G04 #@! TF.GenerationSoftware,KiCad,Pcbnew,(5.0.0)*
G04 #@! TF.CreationDate,2018-12-11T15:37:44-06:00*
G04 #@! TF.ProjectId,fk-core,666B2D636F72652E6B696361645F7063,0.1*
G04 #@! TF.SameCoordinates,PX791ddc0PY791ddc0*
G04 #@! TF.FileFunction,Copper,L4,Bot,Signal*
G04 #@! TF.FilePolarity,Positive*
%FSLAX46Y46*%
G04 Gerber Fmt 4.6, Leading zero omitted, Abs format (unit mm)*
G04 Created by KiCad (PCBNEW (5.0.0)) date 12/11/18 15:37:44*
%MOMM*%
%LPD*%
G01*
G04 APERTURE LIST*
G04 #@! TA.AperFunction,SMDPad,CuDef*
%ADD10R,1.600000X1.400000*%
G04 #@! TD*
G04 #@! TA.AperFunction,SMDPad,CuDef*
%ADD11R,0.400000X1.350000*%
G04 #@! TD*
G04 #@! TA.AperFunction,SMDPad,CuDef*
%ADD12R,1.900000X1.400000*%
G04 #@! TD*
G04 #@! TA.AperFunction,ComponentPad*
%ADD13O,1.651000X1.600000*%
G04 #@! TD*
G04 #@! TA.AperFunction,ComponentPad*
%ADD14O,1.800000X1.100000*%
G04 #@! TD*
G04 #@! TA.AperFunction,ComponentPad*
%ADD15O,2.200000X1.100000*%
G04 #@! TD*
G04 #@! TA.AperFunction,SMDPad,CuDef*
%ADD16R,1.900000X0.400000*%
G04 #@! TD*
G04 #@! TA.AperFunction,SMDPad,CuDef*
%ADD17R,0.400000X1.900000*%
G04 #@! TD*
G04 #@! TA.AperFunction,SMDPad,CuDef*
%ADD18R,0.698500X1.498600*%
G04 #@! TD*
G04 #@! TA.AperFunction,SMDPad,CuDef*
%ADD19R,1.798320X1.399540*%
G04 #@! TD*
G04 #@! TA.AperFunction,SMDPad,CuDef*
%ADD20R,1.399540X1.899920*%
G04 #@! TD*
G04 #@! TA.AperFunction,SMDPad,CuDef*
%ADD21R,1.600200X1.168400*%
G04 #@! TD*
G04 #@! TA.AperFunction,SMDPad,CuDef*
%ADD22R,1.100000X1.000000*%
G04 #@! TD*
G04 #@! TA.AperFunction,ComponentPad*
%ADD23R,1.700000X1.700000*%
G04 #@! TD*
G04 #@! TA.AperFunction,SMDPad,CuDef*
%ADD24R,1.998980X1.000760*%
G04 #@! TD*
G04 #@! TA.AperFunction,SMDPad,CuDef*
%ADD25R,4.500000X2.300000*%
G04 #@! TD*
G04 #@! TA.AperFunction,BGAPad,CuDef*
%ADD26C,1.000000*%
G04 #@! TD*
G04 #@! TA.AperFunction,SMDPad,CuDef*
%ADD27R,1.000000X1.100000*%
G04 #@! TD*
G04 #@! TA.AperFunction,SMDPad,CuDef*
%ADD28R,2.000000X1.300000*%
G04 #@! TD*
G04 #@! TA.AperFunction,SMDPad,CuDef*
%ADD29R,1.168400X1.600200*%
G04 #@! TD*
G04 #@! TA.AperFunction,SMDPad,CuDef*
%ADD30R,1.200000X0.800000*%
G04 #@! TD*
G04 #@! TA.AperFunction,SMDPad,CuDef*
%ADD31R,2.200000X0.800000*%
G04 #@! TD*
G04 #@! TA.AperFunction,SMDPad,CuDef*
%ADD32R,2.500000X2.000000*%
G04 #@! TD*
G04 #@! TA.AperFunction,ViaPad*
%ADD33C,0.500000*%
G04 #@! TD*
G04 #@! TA.AperFunction,Conductor*
%ADD34C,0.203200*%
G04 #@! TD*
G04 #@! TA.AperFunction,Conductor*
%ADD35C,0.508000*%
G04 #@! TD*
G04 #@! TA.AperFunction,Conductor*
%ADD36C,0.381000*%
G04 #@! TD*
G04 #@! TA.AperFunction,Conductor*
%ADD37C,0.762000*%
G04 #@! TD*
G04 #@! TA.AperFunction,Conductor*
%ADD38C,0.254000*%
G04 #@! TD*
G04 #@! TA.AperFunction,Conductor*
%ADD39C,0.152400*%
G04 #@! TD*
G04 APERTURE END LIST*
D10*
G04 #@! TO.P,J9,7*
G04 #@! TO.N,Net-(J9-Pad7)*
X7361000Y14509000D03*
D11*
G04 #@! TO.P,J9,3*
G04 #@! TO.N,/USB+*
X4161000Y13589000D03*
D12*
G04 #@! TO.P,J9,9*
G04 #@! TO.N,Net-(J9-Pad9)*
X5361000Y16509000D03*
D13*
G04 #@! TO.P,J9,*
G04 #@! TO.N,*
X861000Y16259000D03*
D12*
G04 #@! TO.P,J9,8*
G04 #@! TO.N,Net-(J9-Pad8)*
X2961000Y16509000D03*
D13*
G04 #@! TO.P,J9,*
G04 #@! TO.N,*
X7461000Y16259000D03*
D11*
G04 #@! TO.P,J9,2*
G04 #@! TO.N,/USB-*
X3511000Y13589000D03*
G04 #@! TO.P,J9,1*
G04 #@! TO.N,VUSB*
X2861000Y13589000D03*
G04 #@! TO.P,J9,4*
G04 #@! TO.N,Net-(J16-Pad4)*
X4811000Y13589000D03*
G04 #@! TO.P,J9,5*
G04 #@! TO.N,GND*
X5461000Y13589000D03*
D10*
G04 #@! TO.P,J9,6*
G04 #@! TO.N,Net-(C14-Pad1)*
X961000Y14509000D03*
G04 #@! TD*
D14*
G04 #@! TO.P,J16,6*
G04 #@! TO.N,Net-(J16-Pad6)*
X6991000Y12827000D03*
G04 #@! TO.P,J16,7*
G04 #@! TO.N,Net-(C14-Pad1)*
X1391000Y12827000D03*
D15*
G04 #@! TO.P,J16,8*
G04 #@! TO.N,Net-(J16-Pad8)*
X4191000Y14977000D03*
G04 #@! TD*
D16*
G04 #@! TO.P,U1,21*
G04 #@! TO.N,Net-(U1-Pad21)*
X-30795100Y-5459730D03*
G04 #@! TO.P,U1,22*
G04 #@! TO.N,/D2_WIFI_EN*
X-30795100Y-6475730D03*
G04 #@! TO.P,U1,23*
G04 #@! TO.N,/PERIPH_3V3*
X-30795100Y-7491731D03*
G04 #@! TO.P,U1,24*
G04 #@! TO.N,Net-(U1-Pad24)*
X-30795100Y-8507731D03*
G04 #@! TO.P,U1,25*
G04 #@! TO.N,N/C*
X-30795100Y-9523730D03*
G04 #@! TO.P,U1,26*
G04 #@! TO.N,Net-(R4-Pad1)*
X-30795100Y-10539730D03*
G04 #@! TO.P,U1,27*
G04 #@! TO.N,Net-(R5-Pad1)*
X-30795100Y-11555730D03*
G04 #@! TO.P,U1,28*
G04 #@! TO.N,GND*
X-30795100Y-12571730D03*
G04 #@! TO.P,U1,20*
G04 #@! TO.N,/PERIPH_3V3*
X-30795100Y-2411730D03*
D17*
G04 #@! TO.P,U1,4*
G04 #@! TO.N,/A1_WIFI_RST*
X-36514550Y-15242130D03*
G04 #@! TO.P,U1,3*
G04 #@! TO.N,Net-(U1-Pad3)*
X-35498550Y-15242130D03*
G04 #@! TO.P,U1,2*
G04 #@! TO.N,Net-(U1-Pad2)*
X-34482550Y-15242130D03*
G04 #@! TO.P,U1,1*
G04 #@! TO.N,Net-(U1-Pad1)*
X-33466550Y-15242130D03*
G04 #@! TO.P,U1,5*
G04 #@! TO.N,N/C*
X-40578550Y-15242130D03*
G04 #@! TO.P,U1,6*
X-42610553Y-15242130D03*
G04 #@! TO.P,U1,7*
X-43626550Y-15242130D03*
G04 #@! TO.P,U1,8*
X-44642550Y-15242130D03*
G04 #@! TO.P,U1,9*
G04 #@! TO.N,GND*
X-45658550Y-15242130D03*
G04 #@! TO.P,U1,19*
G04 #@! TO.N,Net-(U1-Pad19)*
X-34474330Y-511860D03*
G04 #@! TO.P,U1,18*
G04 #@! TO.N,/SCK*
X-35490330Y-511860D03*
G04 #@! TO.P,U1,17*
G04 #@! TO.N,/MISO*
X-36506330Y-511860D03*
G04 #@! TO.P,U1,16*
G04 #@! TO.N,/D7_WIFI_CS*
X-37522330Y-511860D03*
G04 #@! TO.P,U1,15*
G04 #@! TO.N,/MOSI*
X-38538330Y-511860D03*
G04 #@! TO.P,U1,14*
G04 #@! TO.N,Net-(U1-Pad14)*
X-39554330Y-511860D03*
G04 #@! TO.P,U1,13*
G04 #@! TO.N,/A2_WIFI_IRQ*
X-40570330Y-511860D03*
G04 #@! TO.P,U1,12*
G04 #@! TO.N,GND*
X-41586334Y-511860D03*
G04 #@! TO.P,U1,11*
G04 #@! TO.N,/D8_WIFI_WAKE*
X-42602334Y-511860D03*
G04 #@! TO.P,U1,10*
G04 #@! TO.N,/PERIPH_3V3*
X-43618330Y-511860D03*
G04 #@! TD*
D18*
G04 #@! TO.P,M7,1*
G04 #@! TO.N,Net-(M7-Pad1)*
X-23477220Y-14193520D03*
G04 #@! TO.P,M7,2*
G04 #@! TO.N,/D12_SD_CS*
X-22377400Y-13794740D03*
G04 #@! TO.P,M7,3*
G04 #@! TO.N,/MOSI*
X-21277580Y-14193520D03*
G04 #@! TO.P,M7,4*
G04 #@! TO.N,/PERIPH_3V3*
X-20177760Y-14594840D03*
G04 #@! TO.P,M7,5*
G04 #@! TO.N,/SCK*
X-19077940Y-14193520D03*
G04 #@! TO.P,M7,6*
G04 #@! TO.N,GND*
X-17975580Y-14594840D03*
G04 #@! TO.P,M7,7*
G04 #@! TO.N,/MISO*
X-16875760Y-14193520D03*
G04 #@! TO.P,M7,8*
G04 #@! TO.N,Net-(M7-Pad8)*
X-15775940Y-14193520D03*
D19*
G04 #@! TO.P,M7,CD1*
G04 #@! TO.N,Net-(M7-PadCD1)*
X-16476980Y-3995420D03*
G04 #@! TO.P,M7,CD2*
G04 #@! TO.N,Net-(M7-PadCD2)*
X-22476460Y-3995420D03*
D20*
G04 #@! TO.P,M7,MT1*
G04 #@! TO.N,GND*
X-14876780Y-17094200D03*
G04 #@! TO.P,M7,MT2*
X-28077160Y-17995900D03*
G04 #@! TD*
D21*
G04 #@! TO.P,J12,1*
G04 #@! TO.N,3V3*
X47498000Y-11049000D03*
G04 #@! TO.P,J12,2*
G04 #@! TO.N,/GPS_3V3*
X47498000Y-9525000D03*
G04 #@! TD*
D22*
G04 #@! TO.P,L3,1*
G04 #@! TO.N,/GPS_3V3*
X40575600Y-7620000D03*
G04 #@! TO.P,L3,2*
G04 #@! TO.N,/GPS_PWR_FILT*
X38875600Y-7620000D03*
G04 #@! TD*
D23*
G04 #@! TO.P,J4,1*
G04 #@! TO.N,Net-(J15-Pad1)*
X15621000Y-1905000D03*
G04 #@! TD*
D24*
G04 #@! TO.P,U10,1*
G04 #@! TO.N,/GPS_PWR_FILT*
X31419800Y-5021580D03*
G04 #@! TO.P,U10,2*
G04 #@! TO.N,Net-(U10-Pad2)*
X31419800Y-3522980D03*
G04 #@! TO.P,U10,3*
G04 #@! TO.N,GND*
X31419800Y-2021840D03*
G04 #@! TO.P,U10,4*
G04 #@! TO.N,/BAT_BACKUP*
X31419800Y-523240D03*
G04 #@! TO.P,U10,5*
G04 #@! TO.N,/GPS_FIX*
X31419800Y977900D03*
G04 #@! TO.P,U10,6*
G04 #@! TO.N,Net-(U10-Pad6)*
X31419800Y2476500D03*
G04 #@! TO.P,U10,7*
G04 #@! TO.N,Net-(U10-Pad7)*
X31419800Y3977640D03*
G04 #@! TO.P,U10,8*
G04 #@! TO.N,GND*
X31419800Y5476240D03*
G04 #@! TO.P,U10,9*
G04 #@! TO.N,/GPS_TX*
X31419800Y6977380D03*
G04 #@! TO.P,U10,10*
G04 #@! TO.N,/GPS_RX*
X31419800Y8475980D03*
G04 #@! TO.P,U10,11*
G04 #@! TO.N,Net-(J11-Pad1)*
X47421800Y8475980D03*
G04 #@! TO.P,U10,12*
G04 #@! TO.N,GND*
X47421800Y6977380D03*
G04 #@! TO.P,U10,13*
G04 #@! TO.N,Net-(U10-Pad13)*
X47421800Y5476240D03*
G04 #@! TO.P,U10,14*
G04 #@! TO.N,Net-(U10-Pad14)*
X47421800Y3977640D03*
G04 #@! TO.P,U10,15*
G04 #@! TO.N,Net-(U10-Pad15)*
X47421800Y2476500D03*
G04 #@! TO.P,U10,16*
G04 #@! TO.N,Net-(U10-Pad16)*
X47421800Y977900D03*
G04 #@! TO.P,U10,17*
G04 #@! TO.N,Net-(U10-Pad17)*
X47421800Y-523240D03*
G04 #@! TO.P,U10,18*
G04 #@! TO.N,Net-(U10-Pad18)*
X47421800Y-2021840D03*
G04 #@! TO.P,U10,19*
G04 #@! TO.N,GND*
X47421800Y-3522980D03*
G04 #@! TO.P,U10,20*
G04 #@! TO.N,Net-(U10-Pad20)*
X47421800Y-5021580D03*
G04 #@! TD*
D25*
G04 #@! TO.P,BT1,1*
G04 #@! TO.N,/BAT_BACKUP*
X23723600Y7518400D03*
G04 #@! TO.P,BT1,2*
G04 #@! TO.N,GND*
X7323600Y7518400D03*
G04 #@! TD*
D22*
G04 #@! TO.P,C2,1*
G04 #@! TO.N,/PERIPH_3V3*
X19470000Y-13462000D03*
G04 #@! TO.P,C2,2*
G04 #@! TO.N,GND*
X21170000Y-13462000D03*
G04 #@! TD*
G04 #@! TO.P,C5,1*
G04 #@! TO.N,3V3*
X-4738000Y-1270000D03*
G04 #@! TO.P,C5,2*
G04 #@! TO.N,GND*
X-6438000Y-1270000D03*
G04 #@! TD*
G04 #@! TO.P,C10,1*
G04 #@! TO.N,5V0*
X-7250000Y16790000D03*
G04 #@! TO.P,C10,2*
G04 #@! TO.N,GND*
X-5550000Y16790000D03*
G04 #@! TD*
G04 #@! TO.P,C15,1*
G04 #@! TO.N,3V3*
X-7454000Y-9652000D03*
G04 #@! TO.P,C15,2*
G04 #@! TO.N,GND*
X-5754000Y-9652000D03*
G04 #@! TD*
D26*
G04 #@! TO.P,M9,~*
G04 #@! TO.N,Net-(M9-Pad~)*
X40640000Y16510000D03*
G04 #@! TD*
G04 #@! TO.P,M10,~*
G04 #@! TO.N,Net-(M10-Pad~)*
X-39370000Y-17780000D03*
G04 #@! TD*
G04 #@! TO.P,M11,~*
G04 #@! TO.N,Net-(M11-Pad~)*
X36830000Y-13970000D03*
G04 #@! TD*
D22*
G04 #@! TO.P,R1,1*
G04 #@! TO.N,/A1_WIFI_RST*
X-36410000Y-17780000D03*
G04 #@! TO.P,R1,2*
G04 #@! TO.N,GND*
X-34710000Y-17780000D03*
G04 #@! TD*
D27*
G04 #@! TO.P,R35,1*
G04 #@! TO.N,3V3*
X-10160000Y8548000D03*
G04 #@! TO.P,R35,2*
G04 #@! TO.N,/SDA1*
X-10160000Y10248000D03*
G04 #@! TD*
G04 #@! TO.P,R36,1*
G04 #@! TO.N,3V3*
X-11430000Y14820000D03*
G04 #@! TO.P,R36,2*
G04 #@! TO.N,/SCL1*
X-11430000Y13120000D03*
G04 #@! TD*
D28*
G04 #@! TO.P,U3,1*
G04 #@! TO.N,GND*
X636000Y-18096000D03*
G04 #@! TO.P,U3,2*
G04 #@! TO.N,/MISO*
X636000Y-16096000D03*
G04 #@! TO.P,U3,3*
G04 #@! TO.N,/MOSI*
X636000Y-14096000D03*
G04 #@! TO.P,U3,4*
G04 #@! TO.N,/SCK*
X636000Y-12096000D03*
G04 #@! TO.P,U3,5*
G04 #@! TO.N,/D5_RADIO_CS*
X636000Y-10096000D03*
G04 #@! TO.P,U3,6*
G04 #@! TO.N,Net-(U3-Pad6)*
X636000Y-8096000D03*
G04 #@! TO.P,U3,7*
G04 #@! TO.N,Net-(U3-Pad7)*
X636000Y-6096000D03*
G04 #@! TO.P,U3,8*
G04 #@! TO.N,GND*
X636000Y-4096000D03*
G04 #@! TO.P,U3,9*
G04 #@! TO.N,Net-(J15-Pad1)*
X16636000Y-4096000D03*
G04 #@! TO.P,U3,10*
G04 #@! TO.N,GND*
X16636000Y-6096000D03*
G04 #@! TO.P,U3,11*
G04 #@! TO.N,Net-(U3-Pad11)*
X16636000Y-8096000D03*
G04 #@! TO.P,U3,12*
G04 #@! TO.N,Net-(U3-Pad12)*
X16636000Y-10096000D03*
G04 #@! TO.P,U3,13*
G04 #@! TO.N,/PERIPH_3V3*
X16636000Y-12096000D03*
G04 #@! TO.P,U3,14*
G04 #@! TO.N,/D2_RADIO_D0*
X16636000Y-14096000D03*
G04 #@! TO.P,U3,15*
G04 #@! TO.N,/D1_RADIO_D1*
X16636000Y-16096000D03*
G04 #@! TO.P,U3,16*
G04 #@! TO.N,/D0_RADIO_D2*
X16636000Y-18096000D03*
G04 #@! TD*
D29*
G04 #@! TO.P,J2,1*
G04 #@! TO.N,3V3*
X-13081000Y-2413000D03*
G04 #@! TO.P,J2,2*
G04 #@! TO.N,/PERIPH_3V3*
X-14605000Y-2413000D03*
G04 #@! TD*
G04 #@! TO.P,J14,1*
G04 #@! TO.N,/MODULE_3V3*
X-16357600Y6146800D03*
G04 #@! TO.P,J14,2*
G04 #@! TO.N,3V3*
X-14833600Y6146800D03*
G04 #@! TD*
D30*
G04 #@! TO.P,U14,1*
G04 #@! TO.N,GND*
X-23345200Y8866000D03*
D31*
G04 #@! TO.P,U14,2*
G04 #@! TO.N,VBUS*
X-23845200Y7366000D03*
D30*
G04 #@! TO.P,U14,3*
G04 #@! TO.N,3V3*
X-23345200Y5866000D03*
D32*
G04 #@! TO.P,U14,2*
G04 #@! TO.N,VBUS*
X-26195200Y7366000D03*
G04 #@! TD*
D27*
G04 #@! TO.P,C31,2*
G04 #@! TO.N,/GPS_PWR_FILT*
X31750000Y-7532000D03*
G04 #@! TO.P,C31,1*
G04 #@! TO.N,GND*
X31750000Y-9232000D03*
G04 #@! TD*
G04 #@! TO.P,C32,1*
G04 #@! TO.N,GND*
X34798000Y-9232000D03*
G04 #@! TO.P,C32,2*
G04 #@! TO.N,/GPS_PWR_FILT*
X34798000Y-7532000D03*
G04 #@! TD*
G04 #@! TO.P,C35,1*
G04 #@! TO.N,GND*
X33274000Y-9232000D03*
G04 #@! TO.P,C35,2*
G04 #@! TO.N,/GPS_PWR_FILT*
X33274000Y-7532000D03*
G04 #@! TD*
D22*
G04 #@! TO.P,R15,1*
G04 #@! TO.N,GND*
X-6516000Y-7620000D03*
G04 #@! TO.P,R15,2*
G04 #@! TO.N,/D25_PERIPH_EN*
X-8216000Y-7620000D03*
G04 #@! TD*
G04 #@! TO.P,C6,1*
G04 #@! TO.N,Net-(C6-Pad1)*
X-570000Y6870000D03*
G04 #@! TO.P,C6,2*
G04 #@! TO.N,GND*
X-2270000Y6870000D03*
G04 #@! TD*
G04 #@! TO.P,C8,1*
G04 #@! TO.N,3V3*
X1877724Y1530695D03*
G04 #@! TO.P,C8,2*
G04 #@! TO.N,GND*
X177724Y1530695D03*
G04 #@! TD*
G04 #@! TO.P,C9,2*
G04 #@! TO.N,GND*
X-2240000Y5320000D03*
G04 #@! TO.P,C9,1*
G04 #@! TO.N,3V3*
X-540000Y5320000D03*
G04 #@! TD*
G04 #@! TO.P,C13,1*
G04 #@! TO.N,/PERIPH_3V3*
X19470000Y-11938000D03*
G04 #@! TO.P,C13,2*
G04 #@! TO.N,GND*
X21170000Y-11938000D03*
G04 #@! TD*
G04 #@! TO.P,C14,2*
G04 #@! TO.N,GND*
X-3339276Y12452695D03*
G04 #@! TO.P,C14,1*
G04 #@! TO.N,Net-(C14-Pad1)*
X-1639276Y12452695D03*
G04 #@! TD*
D29*
G04 #@! TO.P,J1,1*
G04 #@! TO.N,/GPS_3V3*
X28956000Y1397000D03*
G04 #@! TO.P,J1,2*
G04 #@! TO.N,3V3*
X27432000Y1397000D03*
G04 #@! TD*
D27*
G04 #@! TO.P,R26,2*
G04 #@! TO.N,/SDA1*
X-5588000Y9144000D03*
G04 #@! TO.P,R26,1*
G04 #@! TO.N,/SDA2*
X-5588000Y7444000D03*
G04 #@! TD*
G04 #@! TO.P,R27,2*
G04 #@! TO.N,/SCL1*
X-4064000Y10033000D03*
G04 #@! TO.P,R27,1*
G04 #@! TO.N,/SCL2*
X-4064000Y8333000D03*
G04 #@! TD*
D22*
G04 #@! TO.P,R31,1*
G04 #@! TO.N,Net-(C14-Pad1)*
X-1639276Y14103695D03*
G04 #@! TO.P,R31,2*
G04 #@! TO.N,GND*
X-3339276Y14103695D03*
G04 #@! TD*
D33*
G04 #@! TO.N,*
X-12446000Y-12170590D03*
G04 #@! TO.N,GND*
X16002000Y-6731000D03*
X-38090000Y9730000D03*
X-37410000Y9670000D03*
X-19126200Y14655800D03*
X-34000000Y16240000D03*
X16120000Y7240000D03*
X-38159083Y8945133D03*
X-37409083Y8945133D03*
X-6890000Y13090000D03*
X-5740000Y5870000D03*
X13770000Y14340000D03*
X28530000Y-13420000D03*
X7580000Y-18370000D03*
X-6190000Y-8900000D03*
X-5500000Y15777598D03*
X1741557Y5252009D03*
X-45720000Y-16510000D03*
X-30861000Y-13081000D03*
X-29235447Y-17382599D03*
X-41529002Y-1651000D03*
X-29083000Y-12954000D03*
X-17653000Y-7747000D03*
X-33020000Y0D03*
X-31750000Y0D03*
X-30480000Y0D03*
X-29210000Y0D03*
X-27940000Y0D03*
X-26670000Y0D03*
X-25400000Y0D03*
X-24130000Y0D03*
X-22860000Y0D03*
X-21590000Y0D03*
X-20320000Y0D03*
X-19050000Y0D03*
X-17780000Y0D03*
X-16510000Y0D03*
X-15240000Y0D03*
X-13970000Y0D03*
X-33655000Y-17780000D03*
X-20603328Y-18284010D03*
X-16260000Y-17942552D03*
X-2260000Y4949010D03*
X-24282400Y8839200D03*
X-22402800Y8890000D03*
X-4368800Y-18135600D03*
X-11426002Y-18186400D03*
X-18034000Y-13610410D03*
X-36982400Y7061200D03*
X-14610577Y-18370340D03*
X-16764000Y9398000D03*
X-30480000Y5842000D03*
X-31242000Y11684000D03*
X33020000Y-1778000D03*
X39370000Y12700000D03*
X41910000Y12700000D03*
X44450000Y12700000D03*
X46990000Y12700000D03*
X46990000Y11430000D03*
X44450000Y11430000D03*
X41910000Y11430000D03*
X39370000Y11430000D03*
X44450000Y10160000D03*
X46990000Y10160000D03*
X9268984Y15853590D03*
X33460000Y15853590D03*
X45720000Y2540000D03*
X43180000Y2540000D03*
X38100000Y2540000D03*
X38100000Y5080000D03*
X43180000Y5080000D03*
X45720000Y5080000D03*
X33020000Y-3048000D03*
X29972000Y-2032000D03*
X29972000Y-3302000D03*
X24638000Y14478000D03*
X-6260013Y-2039987D03*
X16002000Y-635000D03*
X17399000Y-635000D03*
X18923000Y-635000D03*
X20447000Y-635000D03*
X20447000Y-2540000D03*
X20447000Y-3937000D03*
X20447000Y-5334000D03*
X20447000Y-6604000D03*
X19050000Y-6731000D03*
X17780000Y-6731000D03*
X14351000Y-4064000D03*
X14351000Y-2413000D03*
X14351000Y-5334000D03*
X14351000Y-6731000D03*
X9779000Y-11557000D03*
X12954000Y-10160000D03*
X1716000Y-18096000D03*
X29594990Y3810000D03*
X-5870000Y10587821D03*
X8763000Y6223000D03*
X26035000Y-3302000D03*
X14858516Y-18539295D03*
X-750276Y1911695D03*
X3392398Y-530684D03*
X-877276Y-4819305D03*
X-2591678Y12452695D03*
X27646000Y6662419D03*
X21336000Y-14224000D03*
X21170000Y-11596000D03*
X-2032000Y-17526000D03*
X28830000Y-18063379D03*
X31750000Y-10287000D03*
X33274000Y-10033000D03*
X34671000Y-10033000D03*
X33528000Y9525000D03*
X-8763000Y9144000D03*
X-10490442Y13792442D03*
X14478000Y-698500D03*
X-6159500Y-6667500D03*
X46228000Y-3556000D03*
X48641000Y-3556000D03*
X48577500Y6921500D03*
X46164500Y6477000D03*
X14224000Y-14478000D03*
X41940766Y10308410D03*
X39400766Y10308410D03*
X18796000Y15748000D03*
X-36068000Y-9017000D03*
X-34798000Y-9017000D03*
X-33528000Y-9017000D03*
X-32385000Y-9017000D03*
X-43815000Y5461000D03*
X-49784000Y5461000D03*
X2158000Y10922000D03*
X6468220Y11890403D03*
X30226000Y5461000D03*
G04 #@! TO.N,3V3*
X-6950006Y14799994D03*
X-480000Y4450000D03*
X19350000Y-17900000D03*
X-12700000Y-8890000D03*
X-24130000Y3175000D03*
X-25400000Y4445000D03*
X-25400000Y3175000D03*
X-26670000Y4445000D03*
X-26670000Y3175000D03*
X-27940000Y3175000D03*
X-24130000Y4445000D03*
X-13766800Y6400800D03*
X-35306000Y3302000D03*
X18034000Y11684000D03*
X10685377Y9374632D03*
X13469734Y-1250309D03*
X2932724Y895695D03*
X-4821074Y-483014D03*
X-7366000Y-8890000D03*
X-4445000Y-9271000D03*
X-7366000Y-6350000D03*
X38227000Y-16764000D03*
X34290000Y-12573000D03*
X47498000Y-11938000D03*
X-10414000Y9144000D03*
X-12192000Y14859000D03*
X-31369000Y-1182000D03*
X-12446008Y-1905000D03*
X-9398000Y14605000D03*
X25919724Y10801695D03*
X26416000Y1397000D03*
G04 #@! TO.N,/SWDIO*
X6833200Y-1060001D03*
X7874000Y-9020990D03*
G04 #@! TO.N,/SWCLK*
X6160000Y-1054010D03*
X9144000Y-9144000D03*
G04 #@! TO.N,/RESET*
X13600724Y-3549305D03*
X-1512276Y2292695D03*
G04 #@! TO.N,/A3*
X29348724Y13849695D03*
X-5473700Y2696379D03*
G04 #@! TO.N,/MOSI*
X-25607190Y-8128000D03*
X-27482800Y-7772400D03*
X1778000Y-14224000D03*
X-3429000Y-10033002D03*
G04 #@! TO.N,/SCK*
X-25607190Y-9448800D03*
X-26619200Y-9550400D03*
X1397000Y-12827000D03*
X-3011695Y-10534495D03*
G04 #@! TO.N,/MISO*
X-16865600Y-12496800D03*
X-766402Y-13970000D03*
X-2567945Y-9308355D03*
G04 #@! TO.N,/USB-*
X4636200Y10414000D03*
G04 #@! TO.N,/USB+*
X4242603Y11791360D03*
G04 #@! TO.N,/D30*
X3313724Y1911695D03*
X23633724Y-3168305D03*
G04 #@! TO.N,/D31*
X3821724Y1022695D03*
X24903724Y-3422305D03*
G04 #@! TO.N,/USB_ID*
X3048000Y5588000D03*
X6731000Y9070802D03*
G04 #@! TO.N,/A5*
X-36830000Y1524000D03*
X-12765612Y1524000D03*
G04 #@! TO.N,5V0*
X-8382000Y15875000D03*
G04 #@! TO.N,VUSB*
X2413000Y15406598D03*
G04 #@! TO.N,/D13*
X36460724Y11182695D03*
X980725Y555279D03*
G04 #@! TO.N,/SDA2*
X-9627390Y4102888D03*
G04 #@! TO.N,/BAT_BACKUP*
X26517600Y-17018000D03*
X23749000Y8890000D03*
G04 #@! TO.N,Net-(C6-Pad1)*
X1134109Y5489991D03*
G04 #@! TO.N,VBAT*
X-39751000Y-6858000D03*
X-39243000Y-4699000D03*
G04 #@! TO.N,VBUS*
X-29230000Y8120000D03*
X-28370000Y8140000D03*
X-27670000Y8110000D03*
X-29300000Y7430000D03*
X-29260000Y6740000D03*
X-38530000Y7120000D03*
X-34670000Y7040000D03*
X-25400000Y16510000D03*
X-24638000Y16510000D03*
X-23876000Y16510000D03*
X-23876000Y15875000D03*
X-24638000Y15875000D03*
X34290000Y6731000D03*
X32829500Y6731000D03*
X32829500Y7493000D03*
X33528000Y7492998D03*
X33528000Y6731002D03*
G04 #@! TO.N,/GPS_FIX*
X28459724Y11563695D03*
G04 #@! TO.N,Net-(J11-Pad1)*
X46075600Y8839200D03*
X46075600Y8077200D03*
G04 #@! TO.N,Net-(R4-Pad1)*
X-30226000Y-15494000D03*
G04 #@! TO.N,Net-(R5-Pad1)*
X-26670000Y-15494000D03*
G04 #@! TO.N,/SCL2*
X-9969500Y3048000D03*
G04 #@! TO.N,/PG*
X-29722000Y14909800D03*
X-37733532Y6096336D03*
G04 #@! TO.N,/CHG*
X-35379998Y8030000D03*
X-28448000Y10668000D03*
G04 #@! TO.N,/GPS_TX*
X25665724Y9070802D03*
G04 #@! TO.N,/GPS_RX*
X24649724Y9404695D03*
G04 #@! TO.N,/PERIPH_3V3*
X-13462000Y-16256000D03*
X-12446000Y-16256000D03*
X-13462000Y-17780000D03*
X-12446000Y-17780000D03*
X-13970000Y-12170590D03*
X-10922000Y-12170590D03*
X-29464000Y-7620000D03*
X-17526000Y-9017000D03*
X-20031945Y-15751990D03*
X-28037621Y-10433885D03*
X-24790400Y-15494000D03*
X-28346400Y-15494000D03*
X-11057822Y-18921697D03*
X-12422724Y-13673191D03*
X-10921211Y-13673191D03*
X-13965918Y-13673191D03*
X15240000Y-12065000D03*
X18104000Y-12096000D03*
X18835000Y-12827000D03*
X18923000Y-11938000D03*
X-15621000Y-2413000D03*
X-32280452Y-7577010D03*
X-29429046Y-2389680D03*
X-43561000Y762000D03*
G04 #@! TO.N,/GPS_3V3*
X34290000Y4445000D03*
X36830000Y4445000D03*
X42672000Y-6096000D03*
X44196000Y-6096000D03*
X40894000Y-6096000D03*
X40894000Y-4572000D03*
X42672000Y-4572000D03*
X44196000Y-4572000D03*
X38481000Y-1524000D03*
X29972000Y635000D03*
X48260000Y-9398000D03*
G04 #@! TO.N,Net-(C29-Pad1)*
X-15240000Y7924800D03*
X-22250400Y7874000D03*
G04 #@! TO.N,/MODULE_3V3*
X-16459200Y5130800D03*
G04 #@! TO.N,/D12_SD_CS*
X3175000Y-5842000D03*
G04 #@! TO.N,/A1_WIFI_RST*
X-15240000Y-18796000D03*
G04 #@! TO.N,/D2_WIFI_EN*
X-16256000Y-16256000D03*
X-776402Y-12883595D03*
G04 #@! TO.N,/D7_WIFI_CS*
X-1241858Y-902657D03*
G04 #@! TO.N,/A2_WIFI_IRQ*
X-11310989Y1545399D03*
G04 #@! TO.N,/D8_WIFI_WAKE*
X-6096000Y2032000D03*
G04 #@! TO.N,/A4_GPS_EN*
X14478000Y3429000D03*
X-7493000Y3937000D03*
G04 #@! TO.N,/D9_MODULE_EN*
X-18897600Y5334000D03*
X-8128000Y2539994D03*
G04 #@! TO.N,/D1_RADIO_D1*
X-5607509Y639628D03*
G04 #@! TO.N,/D0_RADIO_D2*
X-5449276Y6695D03*
G04 #@! TO.N,/D2_RADIO_D0*
X-3036276Y-2391590D03*
G04 #@! TO.N,/D5_RADIO_CS*
X-2902503Y-4085410D03*
G04 #@! TO.N,/D26_FLASH_CS*
X-15024288Y-14427200D03*
X-1429681Y-10938744D03*
G04 #@! TO.N,/D25_PERIPH_EN*
X-1270000Y4445000D03*
X-9401902Y-7620000D03*
X-7877990Y4482408D03*
G04 #@! TO.N,/GPS_PWR_FILT*
X31369000Y-4826000D03*
G04 #@! TO.N,Net-(J15-Pad1)*
X15240000Y-4064000D03*
X18034000Y-4064000D03*
X16637000Y-3429000D03*
X16637000Y-4826000D03*
G04 #@! TO.N,/SDA1*
X-22935522Y14440368D03*
X10740549Y7170000D03*
X10922000Y0D03*
X33020000Y-18669000D03*
X-9652000Y11684000D03*
X-31115000Y-3144000D03*
X2664953Y-3175000D03*
G04 #@! TO.N,/SCL1*
X-21723650Y14344350D03*
X10541000Y8381998D03*
X10033000Y508000D03*
X30863272Y-18545990D03*
X-11403764Y11930011D03*
X-32966801Y-2110269D03*
X3556000Y-2413000D03*
G04 #@! TO.N,Net-(C40-Pad1)*
X-37846000Y-2794000D03*
X-38989000Y-7493000D03*
G04 #@! TO.N,Net-(J16-Pad4)*
X7620000Y10668000D03*
X3429000Y11176000D03*
G04 #@! TD*
D34*
G04 #@! TO.N,GND*
X13764260Y13106400D02*
X13764260Y14334260D01*
X13764260Y14334260D02*
X13770000Y14340000D01*
D35*
X-5550000Y16790000D02*
X-5550000Y15827598D01*
X-5550000Y15827598D02*
X-5500000Y15777598D01*
D36*
X-2270000Y5350000D02*
X-2240000Y5320000D01*
X-2270000Y6870000D02*
X-2270000Y5350000D01*
D35*
X-45658550Y-15242130D02*
X-45658550Y-16448550D01*
X-45658550Y-16448550D02*
X-45720000Y-16510000D01*
D34*
X-30795100Y-12571730D02*
X-30795100Y-13015100D01*
X-30795100Y-13015100D02*
X-30861000Y-13081000D01*
X-28980130Y-17995900D02*
X-29235447Y-17740583D01*
X-28077160Y-17995900D02*
X-28980130Y-17995900D01*
X-29235447Y-17736152D02*
X-29235447Y-17382599D01*
X-29235447Y-17740583D02*
X-29235447Y-17736152D01*
D35*
X-41586334Y-511860D02*
X-41529002Y-569192D01*
X-41529002Y-569192D02*
X-41529002Y-1297447D01*
X-41529002Y-1297447D02*
X-41529002Y-1651000D01*
D34*
X-34710000Y-17780000D02*
X-33655000Y-17780000D01*
D36*
X-2242563Y5320000D02*
X-2260000Y5302563D01*
X-2260000Y5302563D02*
X-2260000Y4949010D01*
X-2240000Y5320000D02*
X-2242563Y5320000D01*
D35*
X-23345200Y8866000D02*
X-24255600Y8866000D01*
X-24255600Y8866000D02*
X-24282400Y8839200D01*
X-23345200Y8866000D02*
X-22426800Y8866000D01*
X-22426800Y8866000D02*
X-22402800Y8890000D01*
D34*
X-17975580Y-14594840D02*
X-17975580Y-13642340D01*
X-18007510Y-13610410D02*
X-18034000Y-13610410D01*
X-17975580Y-13642340D02*
X-18007510Y-13610410D01*
X-14876780Y-17094200D02*
X-14876780Y-18104137D01*
X-14860576Y-18120341D02*
X-14610577Y-18370340D01*
X-14876780Y-18104137D02*
X-14860576Y-18120341D01*
D35*
X31419800Y-2021840D02*
X32806640Y-2021840D01*
D37*
X16636000Y-6097000D02*
X16002000Y-6731000D01*
X16636000Y-6096000D02*
X16636000Y-6097000D01*
D36*
X636000Y-18096000D02*
X1716000Y-18096000D01*
D34*
X6858000Y7874000D02*
X5334000Y7874000D01*
X7323600Y7518400D02*
X7467600Y7518400D01*
X7467600Y7518400D02*
X8763000Y6223000D01*
X177724Y1530695D02*
X-369276Y1530695D01*
X-369276Y1530695D02*
X-750276Y1911695D01*
X-877276Y-4406076D02*
X-877276Y-4819305D01*
X636000Y-4096000D02*
X-567200Y-4096000D01*
X-567200Y-4096000D02*
X-877276Y-4406076D01*
X-3339276Y14103695D02*
X-3339276Y12452695D01*
X-3339276Y12452695D02*
X-2591678Y12452695D01*
X-6190000Y-9216000D02*
X-5754000Y-9652000D01*
X-6190000Y-8900000D02*
X-6190000Y-9216000D01*
D37*
X21170000Y-11938000D02*
X21170000Y-13462000D01*
X21170000Y-13462000D02*
X21170000Y-14058000D01*
X21170000Y-14058000D02*
X21336000Y-14224000D01*
X21170000Y-11938000D02*
X21170000Y-11596000D01*
D36*
X-6438000Y-1862000D02*
X-6260013Y-2039987D01*
X-6438000Y-1270000D02*
X-6438000Y-1862000D01*
X31750000Y-10287000D02*
X31750000Y-9232000D01*
X31750000Y-9232000D02*
X33274000Y-9232000D01*
X33274000Y-9232000D02*
X34798000Y-9232000D01*
X33274000Y-9232000D02*
X33274000Y-10033000D01*
X34798000Y-9232000D02*
X34798000Y-9906000D01*
X34798000Y-9906000D02*
X34671000Y-10033000D01*
X-6516000Y-7620000D02*
X-6516000Y-7024000D01*
X-6516000Y-7024000D02*
X-6159500Y-6667500D01*
D35*
X47421800Y-3522980D02*
X46261020Y-3522980D01*
X46261020Y-3522980D02*
X46228000Y-3556000D01*
X47421800Y-3522980D02*
X48607980Y-3522980D01*
X48607980Y-3522980D02*
X48641000Y-3556000D01*
X47421800Y6977380D02*
X48521620Y6977380D01*
X48521620Y6977380D02*
X48577500Y6921500D01*
X47421800Y6977380D02*
X46664880Y6977380D01*
X46664880Y6977380D02*
X46164500Y6477000D01*
D38*
X6230597Y11890403D02*
X6468220Y11890403D01*
X5461000Y13589000D02*
X5461000Y12660000D01*
X5461000Y12660000D02*
X6230597Y11890403D01*
D35*
X31419800Y5476240D02*
X30241240Y5476240D01*
X30241240Y5476240D02*
X30226000Y5461000D01*
D34*
G04 #@! TO.N,3V3*
X-540000Y4510000D02*
X-480000Y4450000D01*
X-540000Y5320000D02*
X-540000Y4510000D01*
D35*
X-14833600Y6146800D02*
X-14020800Y6146800D01*
X-14020800Y6146800D02*
X-13766800Y6400800D01*
D34*
X2297724Y1530695D02*
X2932724Y895695D01*
X1877724Y1530695D02*
X2297724Y1530695D01*
X-7454000Y-9652000D02*
X-7454000Y-8978000D01*
X-7454000Y-8978000D02*
X-7366000Y-8890000D01*
D36*
X-4738000Y-566088D02*
X-4821074Y-483014D01*
X-4738000Y-1270000D02*
X-4738000Y-566088D01*
D37*
X47498000Y-11049000D02*
X47498000Y-11938000D01*
D34*
X-10414000Y8802000D02*
X-10160000Y8548000D01*
X-10414000Y9144000D02*
X-10414000Y8802000D01*
D36*
X-11430000Y14820000D02*
X-12153000Y14820000D01*
X-12153000Y14820000D02*
X-12192000Y14859000D01*
D37*
X-12954008Y-2413000D02*
X-12696007Y-2154999D01*
X-12696007Y-2154999D02*
X-12446008Y-1905000D01*
X-13081000Y-2413000D02*
X-12954008Y-2413000D01*
D35*
X27432000Y1397000D02*
X26416000Y1397000D01*
D34*
G04 #@! TO.N,/SWDIO*
X6833200Y-1060001D02*
X6833200Y-7980190D01*
X7624001Y-8770991D02*
X7874000Y-9020990D01*
X6833200Y-7980190D02*
X7624001Y-8770991D01*
G04 #@! TO.N,/SWCLK*
X6160000Y-1407563D02*
X6160000Y-1054010D01*
X6160000Y-8900000D02*
X6160000Y-1407563D01*
X6160000Y-8900000D02*
X6160000Y-8954000D01*
X6160000Y-8954000D02*
X6731000Y-9525000D01*
X6731000Y-9525000D02*
X8763000Y-9525000D01*
X8763000Y-9525000D02*
X9144000Y-9144000D01*
G04 #@! TO.N,/RESET*
X-1512276Y1939142D02*
X-1512276Y2292695D01*
X-242276Y6695D02*
X-1512276Y1276695D01*
X13350725Y-3299306D02*
X11046306Y-3299306D01*
X13600724Y-3549305D02*
X13350725Y-3299306D01*
X-1512276Y1276695D02*
X-1512276Y1939142D01*
X11046306Y-3299306D02*
X7359305Y387695D01*
X7359305Y387695D02*
X1662724Y387695D01*
X1662724Y387695D02*
X1281724Y6695D01*
X1281724Y6695D02*
X-242276Y6695D01*
G04 #@! TO.N,/A3*
X-5120147Y2696379D02*
X-5473700Y2696379D01*
X24522724Y13849695D02*
X20458724Y9785695D01*
X20458724Y9785695D02*
X20458724Y7165602D01*
X29348724Y13849695D02*
X24522724Y13849695D01*
X20458724Y7165602D02*
X16116501Y2823379D01*
X16116501Y2823379D02*
X-4993147Y2823379D01*
X-4993147Y2823379D02*
X-5120147Y2696379D01*
G04 #@! TO.N,/MOSI*
X-27432000Y-7721600D02*
X-27482800Y-7772400D01*
X-27178000Y-7721600D02*
X-27432000Y-7721600D01*
X-21767778Y-12750822D02*
X-21277580Y-13241020D01*
X-21277580Y-13241020D02*
X-21277580Y-14193520D01*
X-25298379Y-12750822D02*
X-21767778Y-12750822D01*
X-27178001Y-10871200D02*
X-25298379Y-12750822D01*
X-27178000Y-7721600D02*
X-27178001Y-10871200D01*
X764000Y-14224000D02*
X636000Y-14096000D01*
X1778000Y-14224000D02*
X764000Y-14224000D01*
X-3429000Y-9541078D02*
X-3429000Y-9679449D01*
X-3429000Y-9679449D02*
X-3429000Y-10033002D01*
X-4592079Y-8377999D02*
X-3429000Y-9541078D01*
X-25357191Y-8377999D02*
X-4592079Y-8377999D01*
X-25607190Y-8128000D02*
X-25357191Y-8377999D01*
X-29946600Y-4572000D02*
X-27178000Y-7340600D01*
X-27178000Y-7340600D02*
X-27178000Y-7721600D01*
X-35228190Y-4572000D02*
X-29946600Y-4572000D01*
X-38538330Y-1261860D02*
X-35228190Y-4572000D01*
X-38538330Y-511860D02*
X-38538330Y-1261860D01*
G04 #@! TO.N,/SCK*
X-35490330Y-1665060D02*
X-32964390Y-4191000D01*
X-35490330Y-511860D02*
X-35490330Y-1665060D01*
X-32964390Y-4191000D02*
X-29464000Y-4191000D01*
X-26847800Y-7167892D02*
X-26822390Y-7193302D01*
X-26847800Y-6807200D02*
X-26847800Y-7167892D01*
X-29464000Y-4191000D02*
X-26847800Y-6807200D01*
X-26822390Y-7193302D02*
X-26822390Y-8991600D01*
X-26670000Y-9499600D02*
X-26619200Y-9550400D01*
X-26822390Y-9499600D02*
X-26670000Y-9499600D01*
X-26822390Y-8991600D02*
X-26822390Y-9499600D01*
X-26822390Y-9499600D02*
X-26822390Y-10723902D01*
X-25151081Y-12395211D02*
X-20476199Y-12395211D01*
X-26822390Y-10723902D02*
X-25151081Y-12395211D01*
X-20476199Y-12395211D02*
X-19077940Y-13793470D01*
X-19077940Y-13793470D02*
X-19077940Y-14193520D01*
X-3261694Y-10784494D02*
X-3011695Y-10534495D01*
X-24271496Y-10784494D02*
X-3261694Y-10784494D01*
X-25607190Y-9448800D02*
X-24271496Y-10784494D01*
X1367000Y-12827000D02*
X636000Y-12096000D01*
X1397000Y-12827000D02*
X1367000Y-12827000D01*
G04 #@! TO.N,/MISO*
X-24892000Y-11582400D02*
X-24790400Y-11582400D01*
X-16865600Y-14183360D02*
X-16875760Y-14193520D01*
X-16865600Y-12496800D02*
X-16865600Y-14183360D01*
X-24434800Y-12039600D02*
X-17932400Y-12039600D01*
X-16875760Y-13096240D02*
X-16875760Y-14193520D01*
X-17932400Y-12039600D02*
X-16875760Y-13096240D01*
X-24892000Y-11582400D02*
X-24434800Y-12039600D01*
X286000Y-16096000D02*
X636000Y-16096000D01*
X-766402Y-15043598D02*
X286000Y-16096000D01*
X-766402Y-13970000D02*
X-766402Y-15043598D01*
X-2317946Y-10586668D02*
X-2317946Y-9558354D01*
X-16875760Y-14193520D02*
X-16875760Y-13793470D01*
X-3165279Y-11434001D02*
X-2317946Y-10586668D01*
X-2317946Y-9558354D02*
X-2567945Y-9308355D01*
X-16875760Y-13793470D02*
X-14516291Y-11434001D01*
X-14516291Y-11434001D02*
X-3165279Y-11434001D01*
X-35944332Y641340D02*
X-35893531Y692141D01*
X-32359611Y-3835389D02*
X-29311611Y-3835389D01*
X-26111200Y-7035800D02*
X-26111200Y-10668000D01*
X-25196800Y-11582400D02*
X-24892000Y-11582400D01*
X-34071129Y692141D02*
X-33655000Y276012D01*
X-26111200Y-10668000D02*
X-25196800Y-11582400D01*
X-36506330Y238140D02*
X-36103130Y641340D01*
X-36103130Y641340D02*
X-35944332Y641340D01*
X-35893531Y692141D02*
X-34071129Y692141D01*
X-33655000Y276012D02*
X-33655000Y-2540000D01*
X-29311611Y-3835389D02*
X-26111200Y-7035800D01*
X-33655000Y-2540000D02*
X-32359611Y-3835389D01*
X-36506330Y-511860D02*
X-36506330Y238140D01*
D39*
G04 #@! TO.N,/USB-*
X2950399Y10946271D02*
X3482670Y10414000D01*
X4282647Y10414000D02*
X4636200Y10414000D01*
X3482670Y10414000D02*
X4282647Y10414000D01*
X2950399Y11405729D02*
X2950399Y10946271D01*
X3511000Y11966330D02*
X2950399Y11405729D01*
X3511000Y13589000D02*
X3511000Y11966330D01*
G04 #@! TO.N,/USB+*
X4161000Y11872963D02*
X4242603Y11791360D01*
X4161000Y13589000D02*
X4161000Y11872963D01*
D34*
G04 #@! TO.N,/D30*
X23633724Y-646724D02*
X23633724Y-3168305D01*
X21583305Y1403695D02*
X23633724Y-646724D01*
X4175277Y1403695D02*
X21583305Y1403695D01*
X3313724Y1911695D02*
X3667277Y1911695D01*
X3667277Y1911695D02*
X4175277Y1403695D01*
G04 #@! TO.N,/D31*
X24522724Y-3803305D02*
X24903724Y-3422305D01*
X23506724Y-3803305D02*
X24522724Y-3803305D01*
X22998724Y-3295305D02*
X23506724Y-3803305D01*
X22998724Y-773724D02*
X22998724Y-3295305D01*
X3821724Y1022695D02*
X21202305Y1022695D01*
X21202305Y1022695D02*
X22998724Y-773724D01*
G04 #@! TO.N,/USB_ID*
X3048000Y5941553D02*
X3048000Y5588000D01*
X3048000Y7100002D02*
X3048000Y5941553D01*
X5018800Y9070802D02*
X3048000Y7100002D01*
X6731000Y9070802D02*
X5018800Y9070802D01*
G04 #@! TO.N,/A5*
X-36830000Y1524000D02*
X-12765612Y1524000D01*
D35*
G04 #@! TO.N,5V0*
X-8382000Y16716000D02*
X-8382000Y16228553D01*
X-8382000Y16228553D02*
X-8382000Y15875000D01*
X-8308000Y16790000D02*
X-8382000Y16716000D01*
X-7250000Y16790000D02*
X-8308000Y16790000D01*
D36*
G04 #@! TO.N,VUSB*
X2861000Y13589000D02*
X2413000Y14037000D01*
X2413000Y14037000D02*
X2413000Y15406598D01*
D34*
G04 #@! TO.N,/D13*
X36210725Y11432694D02*
X36460724Y11182695D01*
X35317724Y12325695D02*
X36210725Y11432694D01*
X27570724Y12325695D02*
X35317724Y12325695D01*
X16516633Y2419695D02*
X20814335Y6717397D01*
X16013724Y2419695D02*
X16516633Y2419695D01*
X20814335Y9638398D02*
X22511021Y11335084D01*
X20814335Y6717397D02*
X20814335Y9638398D01*
X22511021Y11335084D02*
X26580113Y11335084D01*
X26580113Y11335084D02*
X27570724Y12325695D01*
X981725Y556279D02*
X980725Y555279D01*
X981725Y2141898D02*
X981725Y556279D01*
X16013724Y2419695D02*
X1259522Y2419695D01*
X1259522Y2419695D02*
X981725Y2141898D01*
G04 #@! TO.N,/SDA2*
X-9627390Y4107810D02*
X-9627390Y4102888D01*
X-6291200Y7444000D02*
X-9627390Y4107810D01*
X-5588000Y7444000D02*
X-6291200Y7444000D01*
D35*
G04 #@! TO.N,/BAT_BACKUP*
X31419800Y-523240D02*
X25466040Y-523240D01*
X23723600Y1219200D02*
X23723600Y7518400D01*
X25466040Y-523240D02*
X23723600Y1219200D01*
X27772360Y-523240D02*
X31419800Y-523240D01*
X27533600Y-762000D02*
X27772360Y-523240D01*
X27533600Y-8653200D02*
X27533600Y-762000D01*
X26466800Y-9720000D02*
X27533600Y-8653200D01*
X26517600Y-17018000D02*
X26466800Y-16967200D01*
X26466800Y-16967200D02*
X26466800Y-9720000D01*
D34*
X23723600Y7518400D02*
X23723600Y8871600D01*
X23723600Y8871600D02*
X23742000Y8890000D01*
X23742000Y8890000D02*
X23749000Y8890000D01*
X23998999Y9139999D02*
X24004028Y9139999D01*
X23749000Y8890000D02*
X23998999Y9139999D01*
G04 #@! TO.N,Net-(C6-Pad1)*
X-520000Y6870000D02*
X860009Y5489991D01*
X860009Y5489991D02*
X1134109Y5489991D01*
X-570000Y6870000D02*
X-520000Y6870000D01*
G04 #@! TO.N,Net-(C14-Pad1)*
X-1639276Y14103695D02*
X-1639276Y12452695D01*
D36*
X-1264971Y12827000D02*
X-1639276Y12452695D01*
X1391000Y12827000D02*
X-1264971Y12827000D01*
D35*
X961000Y13257000D02*
X1391000Y12827000D01*
X961000Y14509000D02*
X961000Y13257000D01*
D34*
G04 #@! TO.N,VBAT*
X-39751000Y-5207000D02*
X-39492999Y-4948999D01*
X-39492999Y-4948999D02*
X-39243000Y-4699000D01*
X-39751000Y-6858000D02*
X-39751000Y-5207000D01*
D36*
G04 #@! TO.N,VBUS*
X-37918694Y7120000D02*
X-37266993Y6468299D01*
X-35023553Y7040000D02*
X-34670000Y7040000D01*
X-36126106Y7040000D02*
X-35023553Y7040000D01*
X-37266993Y6468299D02*
X-36697807Y6468299D01*
X-36697807Y6468299D02*
X-36126106Y7040000D01*
X-38530000Y7120000D02*
X-37918694Y7120000D01*
D34*
G04 #@! TO.N,/GPS_FIX*
X31419800Y977900D02*
X30920690Y977900D01*
X31918910Y977900D02*
X31419800Y977900D01*
X30289157Y11563695D02*
X33666724Y8186128D01*
X28459724Y11563695D02*
X30289157Y11563695D01*
X33666724Y8186128D02*
X33850872Y8186128D01*
X33850872Y8186128D02*
X35052000Y6985000D01*
X35052000Y6985000D02*
X35052000Y4110990D01*
X35052000Y4110990D02*
X31918910Y977900D01*
D35*
G04 #@! TO.N,Net-(J11-Pad1)*
X47421800Y8475980D02*
X46489620Y8475980D01*
X46489620Y8475980D02*
X46126400Y8839200D01*
X46126400Y8839200D02*
X46075600Y8839200D01*
X47421800Y8475980D02*
X46474380Y8475980D01*
X46474380Y8475980D02*
X46075600Y8077200D01*
D34*
G04 #@! TO.N,Net-(R4-Pad1)*
X-31545100Y-10539730D02*
X-32385000Y-11379630D01*
X-30795100Y-10539730D02*
X-31545100Y-10539730D01*
X-32385000Y-11379630D02*
X-32385000Y-13335000D01*
X-32385000Y-13335000D02*
X-30226000Y-15494000D01*
G04 #@! TO.N,Net-(R5-Pad1)*
X-30795100Y-11555730D02*
X-29641900Y-11555730D01*
X-29641900Y-11555730D02*
X-26670000Y-14527630D01*
X-26670000Y-15140447D02*
X-26670000Y-15494000D01*
X-26670000Y-14527630D02*
X-26670000Y-15140447D01*
G04 #@! TO.N,/SCL2*
X-4064000Y7239000D02*
X-4064000Y8333000D01*
X-4826000Y6477000D02*
X-4064000Y7239000D01*
X-6629320Y6477000D02*
X-4826000Y6477000D01*
X-8381991Y4724329D02*
X-6629320Y6477000D01*
X-9969500Y3048000D02*
X-8381991Y4635509D01*
X-8381991Y4635509D02*
X-8381991Y4724329D01*
D38*
G04 #@! TO.N,/PG*
X-28701887Y9630599D02*
X-28751327Y9630599D01*
X-28751327Y9630599D02*
X-31914836Y6467090D01*
X-31914836Y6467090D02*
X-36034462Y6467090D01*
X-37483533Y5846337D02*
X-37733532Y6096336D01*
X-29722000Y14909800D02*
X-27918599Y13106399D01*
X-36655215Y5846337D02*
X-37483533Y5846337D01*
X-36034462Y6467090D02*
X-36655215Y5846337D01*
X-27918599Y10413887D02*
X-28701887Y9630599D01*
X-27918599Y13106399D02*
X-27918599Y10413887D01*
G04 #@! TO.N,/CHG*
X-35379998Y8030000D02*
X-32741998Y10668000D01*
X-32741998Y10668000D02*
X-28801553Y10668000D01*
X-28801553Y10668000D02*
X-28448000Y10668000D01*
D34*
G04 #@! TO.N,/GPS_TX*
X30217110Y6977380D02*
X31419800Y6977380D01*
X28093039Y6977380D02*
X30217110Y6977380D01*
X25665724Y9070802D02*
X25999617Y9070802D01*
X25999617Y9070802D02*
X28093039Y6977380D01*
G04 #@! TO.N,/GPS_RX*
X24899723Y9654694D02*
X26177725Y9654694D01*
X24649724Y9404695D02*
X24899723Y9654694D01*
X27356439Y8475980D02*
X31419800Y8475980D01*
X26177725Y9654694D02*
X27356439Y8475980D01*
D35*
G04 #@! TO.N,/PERIPH_3V3*
X-30795100Y-7491731D02*
X-29592269Y-7491731D01*
X-29592269Y-7491731D02*
X-29464000Y-7620000D01*
D34*
X-20177760Y-15606175D02*
X-20031945Y-15751990D01*
X-20177760Y-14594840D02*
X-20177760Y-15606175D01*
D36*
X-10223500Y-18288000D02*
X-10424125Y-18288000D01*
X-10424125Y-18288000D02*
X-11057822Y-18921697D01*
D37*
X18104000Y-12096000D02*
X16636000Y-12096000D01*
X19470000Y-13462000D02*
X18835000Y-12827000D01*
X16794000Y-11938000D02*
X16636000Y-12096000D01*
X16636000Y-12096000D02*
X15271000Y-12096000D01*
X15271000Y-12096000D02*
X15240000Y-12065000D01*
X18288000Y-11938000D02*
X18262000Y-11938000D01*
X18262000Y-11938000D02*
X18104000Y-12096000D01*
X19470000Y-11938000D02*
X18923000Y-11938000D01*
X18288000Y-11938000D02*
X16794000Y-11938000D01*
X18835000Y-12827000D02*
X18104000Y-12096000D01*
X18923000Y-11938000D02*
X18288000Y-11938000D01*
X-14605000Y-2413000D02*
X-15621000Y-2413000D01*
D35*
X-32280452Y-7519083D02*
X-32280452Y-7577010D01*
X-32258000Y-7496631D02*
X-32280452Y-7519083D01*
X-32253100Y-7491731D02*
X-32280452Y-7519083D01*
X-30795100Y-7491731D02*
X-32253100Y-7491731D01*
D34*
X-30795100Y-2411730D02*
X-29451096Y-2411730D01*
X-29451096Y-2411730D02*
X-29429046Y-2389680D01*
D35*
X-43618330Y-511860D02*
X-43561000Y-454530D01*
X-43561000Y408447D02*
X-43561000Y762000D01*
X-43561000Y-454530D02*
X-43561000Y408447D01*
G04 #@! TO.N,/GPS_3V3*
X28956000Y1397000D02*
X29210000Y1397000D01*
X29210000Y1397000D02*
X29972000Y635000D01*
D37*
X47498000Y-9525000D02*
X47625000Y-9398000D01*
X47906447Y-9398000D02*
X48260000Y-9398000D01*
X47625000Y-9398000D02*
X47906447Y-9398000D01*
D34*
G04 #@! TO.N,Net-(C29-Pad1)*
X-15240000Y7924800D02*
X-22199600Y7924800D01*
X-22199600Y7924800D02*
X-22250400Y7874000D01*
D35*
G04 #@! TO.N,/MODULE_3V3*
X-16357600Y6146800D02*
X-16357600Y5232400D01*
X-16357600Y5232400D02*
X-16459200Y5130800D01*
D34*
G04 #@! TO.N,/D12_SD_CS*
X3175000Y-9664202D02*
X3175000Y-5842000D01*
X-508000Y-11176000D02*
X1663202Y-11176000D01*
X-3962979Y-14630979D02*
X-508000Y-11176000D01*
X-14126545Y-14630979D02*
X-3962979Y-14630979D01*
X-22377400Y-14747240D02*
X-20868640Y-16256000D01*
X1663202Y-11176000D02*
X3175000Y-9664202D01*
X-22377400Y-13794740D02*
X-22377400Y-14747240D01*
X-17001922Y-16256000D02*
X-16032723Y-15286801D01*
X-20868640Y-16256000D02*
X-17001922Y-16256000D01*
X-16032723Y-15286801D02*
X-14782367Y-15286801D01*
X-14782367Y-15286801D02*
X-14126545Y-14630979D01*
G04 #@! TO.N,/A1_WIFI_RST*
X-36514550Y-17675450D02*
X-36410000Y-17780000D01*
X-36514550Y-15242130D02*
X-36514550Y-17675450D01*
X-36410000Y-17780000D02*
X-36360000Y-17780000D01*
X-32504001Y-17025999D02*
X-32269941Y-16791939D01*
X-32269941Y-16791939D02*
X-25118061Y-16791939D01*
X-15593553Y-18796000D02*
X-15240000Y-18796000D01*
X-23114000Y-18796000D02*
X-15593553Y-18796000D01*
X-35605999Y-17025999D02*
X-32504001Y-17025999D01*
X-25118061Y-16791939D02*
X-23114000Y-18796000D01*
X-36360000Y-17780000D02*
X-35605999Y-17025999D01*
G04 #@! TO.N,/D2_WIFI_EN*
X-16505999Y-16505999D02*
X-16256000Y-16256000D01*
X-16759999Y-16759999D02*
X-16505999Y-16505999D01*
X-27533611Y-11692881D02*
X-22466493Y-16759999D01*
X-22466493Y-16759999D02*
X-16759999Y-16759999D01*
X-27533611Y-8584019D02*
X-27533611Y-11692881D01*
X-30795100Y-6475730D02*
X-29641900Y-6475730D01*
X-29641900Y-6475730D02*
X-27533611Y-8584019D01*
D38*
X-16256000Y-16256000D02*
X-15667812Y-15667812D01*
X-15667812Y-15667812D02*
X-3560619Y-15667812D01*
X-3560619Y-15667812D02*
X-1026401Y-13133594D01*
X-1026401Y-13133594D02*
X-776402Y-12883595D01*
D34*
G04 #@! TO.N,/D7_WIFI_CS*
X-36966738Y641340D02*
X-36566689Y1041389D01*
X-3288144Y1143629D02*
X-1491857Y-652658D01*
X-5951670Y1041389D02*
X-5849430Y1143629D01*
X-37119130Y641340D02*
X-36966738Y641340D01*
X-33917468Y1041389D02*
X-13028925Y1041389D01*
X-37522330Y238140D02*
X-37119130Y641340D01*
X-12502299Y1041389D02*
X-5951670Y1041389D01*
X-13028925Y1041389D02*
X-13007534Y1019998D01*
X-13007534Y1019998D02*
X-12523690Y1019998D01*
X-36566689Y1041389D02*
X-36047192Y1041389D01*
X-36047192Y1041389D02*
X-36040829Y1047752D01*
X-12523690Y1019998D02*
X-12502299Y1041389D01*
X-33923831Y1047752D02*
X-33917468Y1041389D01*
X-37522330Y-511860D02*
X-37522330Y238140D01*
X-1491857Y-652658D02*
X-1241858Y-902657D01*
X-36040829Y1047752D02*
X-33923831Y1047752D01*
X-5849430Y1143629D02*
X-3288144Y1143629D01*
G04 #@! TO.N,/A2_WIFI_IRQ*
X-40570330Y-511860D02*
X-40570330Y238140D01*
X-35239653Y2055763D02*
X-35215890Y2032000D01*
X-40570330Y238140D02*
X-38752707Y2055763D01*
X-35215890Y2032000D02*
X-12337633Y2032000D01*
X-11664542Y1545399D02*
X-11310989Y1545399D01*
X-38752707Y2055763D02*
X-35239653Y2055763D01*
X-11851032Y1545399D02*
X-11664542Y1545399D01*
X-12337633Y2032000D02*
X-11851032Y1545399D01*
G04 #@! TO.N,/D8_WIFI_WAKE*
X-42602334Y-511860D02*
X-42602334Y238140D01*
X-33252021Y2411374D02*
X-33228258Y2387611D01*
X-33228258Y2387611D02*
X-12190335Y2387611D01*
X-12190335Y2387611D02*
X-11852125Y2049401D01*
X-11852125Y2049401D02*
X-11069067Y2049401D01*
X-11051666Y2032000D02*
X-6449553Y2032000D01*
X-11069067Y2049401D02*
X-11051666Y2032000D01*
X-42602334Y238140D02*
X-40429100Y2411374D01*
X-6449553Y2032000D02*
X-6096000Y2032000D01*
X-40429100Y2411374D02*
X-33252021Y2411374D01*
G04 #@! TO.N,/A4_GPS_EN*
X-2011702Y3200389D02*
X-6756389Y3200389D01*
X-6756389Y3200389D02*
X-7243001Y3687001D01*
X-7243001Y3687001D02*
X-7493000Y3937000D01*
X-1783091Y3429000D02*
X-2011702Y3200389D01*
X14478000Y3429000D02*
X-1783091Y3429000D01*
G04 #@! TO.N,/D9_MODULE_EN*
X-16306822Y2743222D02*
X-12043037Y2743222D01*
X-12043037Y2743222D02*
X-11839809Y2539994D01*
X-8481553Y2539994D02*
X-8128000Y2539994D01*
X-11839809Y2539994D02*
X-8481553Y2539994D01*
X-18897600Y5334000D02*
X-16306822Y2743222D01*
G04 #@! TO.N,/D1_RADIO_D1*
X12431419Y-16096000D02*
X5574335Y-9238916D01*
X5574335Y-9238916D02*
X5574335Y-2679593D01*
X2896491Y-1320767D02*
X-960415Y-1320767D01*
X16636000Y-16096000D02*
X12431419Y-16096000D01*
X5574335Y-2679593D02*
X4092518Y-1197776D01*
X4092518Y-1197776D02*
X3019482Y-1197776D01*
X-3643867Y639628D02*
X-5253956Y639628D01*
X-5253956Y639628D02*
X-5607509Y639628D01*
X-1429470Y-1574769D02*
X-3643867Y639628D01*
X-1214417Y-1574769D02*
X-1429470Y-1574769D01*
X3019482Y-1197776D02*
X2896491Y-1320767D01*
X-960415Y-1320767D02*
X-1214417Y-1574769D01*
G04 #@! TO.N,/D0_RADIO_D2*
X5218724Y-9518305D02*
X12943219Y-17242800D01*
X3945220Y-1553387D02*
X5218724Y-2826891D01*
X15432800Y-17242800D02*
X16286000Y-18096000D01*
X16286000Y-18096000D02*
X16636000Y-18096000D01*
X12943219Y-17242800D02*
X15432800Y-17242800D01*
X-1576768Y-1930380D02*
X-1067119Y-1930380D01*
X3043789Y-1676378D02*
X3166780Y-1553387D01*
X5218724Y-2826891D02*
X5218724Y-9518305D01*
X3166780Y-1553387D02*
X3945220Y-1553387D01*
X-813117Y-1676378D02*
X3043789Y-1676378D01*
X-1067119Y-1930380D02*
X-813117Y-1676378D01*
X-3763842Y256694D02*
X-1576768Y-1930380D01*
X-5199277Y256694D02*
X-3763842Y256694D01*
X-5449276Y6695D02*
X-5199277Y256694D01*
G04 #@! TO.N,/D2_RADIO_D0*
X3191087Y-2031989D02*
X-665819Y-2031989D01*
X17795897Y-19043305D02*
X12203724Y-19043305D01*
X4583724Y-11423305D02*
X4583724Y-2694800D01*
X18172724Y-18666478D02*
X17795897Y-19043305D01*
X4583724Y-2694800D02*
X3797922Y-1908998D01*
X16986000Y-14096000D02*
X18172724Y-15282724D01*
X18172724Y-15282724D02*
X18172724Y-18666478D01*
X-665819Y-2031989D02*
X-1025420Y-2391590D01*
X-2682723Y-2391590D02*
X-3036276Y-2391590D01*
X-1025420Y-2391590D02*
X-2682723Y-2391590D01*
X3314078Y-1908998D02*
X3191087Y-2031989D01*
X3797922Y-1908998D02*
X3314078Y-1908998D01*
X12203724Y-19043305D02*
X4583724Y-11423305D01*
X16636000Y-14096000D02*
X16986000Y-14096000D01*
G04 #@! TO.N,/D5_RADIO_CS*
X636000Y-10096000D02*
X286000Y-10096000D01*
X286000Y-10096000D02*
X-2902503Y-6907497D01*
X-2902503Y-4438963D02*
X-2902503Y-4085410D01*
X-2902503Y-6907497D02*
X-2902503Y-4438963D01*
G04 #@! TO.N,/D26_FLASH_CS*
X-4668138Y-14177201D02*
X-1679680Y-11188743D01*
X-1679680Y-11188743D02*
X-1429681Y-10938744D01*
X-15024288Y-14427200D02*
X-14774289Y-14177201D01*
X-14774289Y-14177201D02*
X-4668138Y-14177201D01*
D38*
G04 #@! TO.N,/D25_PERIPH_EN*
X-8216000Y-7620000D02*
X-9401902Y-7620000D01*
D34*
X-1270000Y4445000D02*
X-7840582Y4445000D01*
X-7840582Y4445000D02*
X-7877990Y4482408D01*
D36*
G04 #@! TO.N,/GPS_PWR_FILT*
X31419800Y-5021580D02*
X31369000Y-4970780D01*
X31369000Y-4970780D02*
X31369000Y-4826000D01*
D37*
G04 #@! TO.N,Net-(J15-Pad1)*
X16636000Y-4096000D02*
X15272000Y-4096000D01*
X15272000Y-4096000D02*
X15240000Y-4064000D01*
X16668000Y-4064000D02*
X16636000Y-4096000D01*
X18034000Y-4064000D02*
X16668000Y-4064000D01*
X16636000Y-4096000D02*
X16636000Y-3430000D01*
X16636000Y-3430000D02*
X16637000Y-3429000D01*
X16637000Y-4097000D02*
X16636000Y-4096000D01*
X16637000Y-4826000D02*
X16637000Y-4097000D01*
D35*
X15621000Y-2413000D02*
X16637000Y-3429000D01*
X15621000Y-1905000D02*
X15621000Y-2413000D01*
D38*
G04 #@! TO.N,/SDA1*
X9853001Y8057548D02*
X10490550Y7419999D01*
X10490550Y7419999D02*
X10740549Y7170000D01*
X9853001Y8891921D02*
X9853001Y8057548D01*
X9092922Y9652000D02*
X9853001Y8891921D01*
D34*
X10922000Y0D02*
X17653000Y0D01*
X17653000Y0D02*
X20955000Y0D01*
X20955000Y0D02*
X21844000Y-889000D01*
X21844000Y-889000D02*
X21844000Y-10541000D01*
X21974001Y-10671001D02*
X21974001Y-15878001D01*
X21844000Y-10541000D02*
X21974001Y-10671001D01*
X21974001Y-15878001D02*
X25146000Y-19050000D01*
X25146000Y-19050000D02*
X31242000Y-19050000D01*
X31242000Y-19050000D02*
X32639000Y-19050000D01*
X32639000Y-19050000D02*
X33020000Y-18669000D01*
X-9525000Y11811000D02*
X-9652000Y11684000D01*
X-9901999Y11434001D02*
X-9652000Y11684000D01*
X-9909999Y11426001D02*
X-9901999Y11434001D01*
X-13846999Y13462000D02*
X-11811000Y11426001D01*
X-21957154Y13462000D02*
X-13846999Y13462000D01*
X-11811000Y11426001D02*
X-9909999Y11426001D01*
X-22935522Y14440368D02*
X-21957154Y13462000D01*
X-9652000Y10756000D02*
X-10160000Y10248000D01*
X-9652000Y11684000D02*
X-9652000Y10756000D01*
X-9402001Y11434001D02*
X-8894001Y11434001D01*
X-9652000Y11684000D02*
X-9402001Y11434001D01*
X-6604000Y9144000D02*
X-5588000Y9144000D01*
X-8894001Y11434001D02*
X-6604000Y9144000D01*
D38*
X2414954Y-2925001D02*
X2664953Y-3175000D01*
X-318250Y-2925001D02*
X2414954Y-2925001D01*
X-847660Y-3454411D02*
X-318250Y-2925001D01*
X-4867340Y-3454411D02*
X-847660Y-3454411D01*
X-29433000Y-3144000D02*
X-27305000Y-1016000D01*
X-31115000Y-3144000D02*
X-29433000Y-3144000D01*
X-27305000Y-1016000D02*
X-11623751Y-1016000D01*
X-11623751Y-1016000D02*
X-9439340Y-3200411D01*
X-9439340Y-3200411D02*
X-5121340Y-3200411D01*
X-5121340Y-3200411D02*
X-4867340Y-3454411D01*
D34*
X4246980Y9554387D02*
X5025420Y9554387D01*
X-5588000Y9144000D02*
X3836593Y9144000D01*
X5025420Y9554387D02*
X5123033Y9652000D01*
X5123033Y9652000D02*
X9092922Y9652000D01*
X3836593Y9144000D02*
X4246980Y9554387D01*
D38*
G04 #@! TO.N,/SCL1*
X10494084Y8428914D02*
X10541000Y8381998D01*
X10287000Y8428914D02*
X10494084Y8428914D01*
X10259412Y8663586D02*
X10291001Y8631997D01*
X10291001Y8631997D02*
X10541000Y8381998D01*
X10259412Y9060261D02*
X10259412Y8663586D01*
X9261262Y10058411D02*
X10259412Y9060261D01*
D34*
X30509719Y-18545990D02*
X30863272Y-18545990D01*
X21082000Y508000D02*
X22352000Y-762000D01*
X10033000Y508000D02*
X21082000Y508000D01*
X22352000Y-762000D02*
X22352000Y-15621000D01*
X22352000Y-15621000D02*
X25400000Y-18669000D01*
X25400000Y-18669000D02*
X30386709Y-18669000D01*
X30386709Y-18669000D02*
X30509719Y-18545990D01*
X-21473651Y14094351D02*
X-13568104Y14094351D01*
X-13568104Y14094351D02*
X-11653763Y12180010D01*
X-11430000Y11956247D02*
X-11403764Y11930011D01*
X-11430000Y13120000D02*
X-11430000Y11956247D01*
X-11653763Y12180010D02*
X-11403764Y11930011D01*
X-21723650Y14344350D02*
X-21473651Y14094351D01*
X-4064000Y11049000D02*
X-4064000Y10033000D01*
X-5334000Y12319000D02*
X-4064000Y11049000D01*
X-10661222Y12319000D02*
X-5334000Y12319000D01*
X-11403764Y11930011D02*
X-11050211Y11930011D01*
X-11050211Y11930011D02*
X-10661222Y12319000D01*
D38*
X-9271000Y-2794000D02*
X-4953000Y-2794000D01*
X3202447Y-2413000D02*
X3556000Y-2413000D01*
X-4953000Y-2794000D02*
X-4699000Y-3048000D01*
X-4699000Y-3048000D02*
X-1143000Y-3048000D01*
X-508000Y-2413000D02*
X3202447Y-2413000D01*
X-11455411Y-609589D02*
X-9271000Y-2794000D01*
X-1143000Y-3048000D02*
X-508000Y-2413000D01*
X-32966801Y-2110269D02*
X-32966801Y-1756716D01*
X-32966801Y-1756716D02*
X-31819674Y-609589D01*
X-31819674Y-609589D02*
X-11455411Y-609589D01*
D34*
X9286673Y10033000D02*
X10259412Y9060261D01*
X5001124Y10033000D02*
X9286673Y10033000D01*
X4878122Y9909998D02*
X5001124Y10033000D01*
X4394278Y9909998D02*
X4878122Y9909998D01*
X4271276Y10033000D02*
X4394278Y9909998D01*
X-4064000Y10033000D02*
X4271276Y10033000D01*
G04 #@! TO.N,Net-(C40-Pad1)*
X-37846000Y-2794000D02*
X-37846000Y-6350000D01*
X-37846000Y-6350000D02*
X-38989000Y-7493000D01*
D39*
G04 #@! TO.N,Net-(J16-Pad4)*
X4811000Y12761600D02*
X6269600Y11303000D01*
X4811000Y13589000D02*
X4811000Y12761600D01*
X6269600Y11303000D02*
X6985000Y11303000D01*
X6985000Y11303000D02*
X7620000Y10668000D01*
X7370001Y10917999D02*
X7620000Y10668000D01*
X7361999Y10926001D02*
X7370001Y10917999D01*
X3678999Y10926001D02*
X7361999Y10926001D01*
X3429000Y11176000D02*
X3678999Y10926001D01*
G04 #@! TD*
D34*
G04 #@! TO.N,VBUS*
G36*
X-24161768Y8249432D02*
X-24115357Y8211342D01*
X-24062406Y8183040D01*
X-24004951Y8165611D01*
X-23945200Y8159726D01*
X-22834600Y8159726D01*
X-22834600Y6959600D01*
X-24892000Y6959600D01*
X-24911821Y6957648D01*
X-24930881Y6951866D01*
X-24948446Y6942477D01*
X-24963842Y6929842D01*
X-24976477Y6914446D01*
X-24985866Y6896881D01*
X-24991648Y6877821D01*
X-24993600Y6858000D01*
X-24993600Y6451600D01*
X-29488343Y6451600D01*
X-29469445Y8278429D01*
X-24305170Y8279940D01*
X-24282400Y8277697D01*
X-24259494Y8279953D01*
X-24186835Y8279974D01*
X-24161768Y8249432D01*
X-24161768Y8249432D01*
G37*
X-24161768Y8249432D02*
X-24115357Y8211342D01*
X-24062406Y8183040D01*
X-24004951Y8165611D01*
X-23945200Y8159726D01*
X-22834600Y8159726D01*
X-22834600Y6959600D01*
X-24892000Y6959600D01*
X-24911821Y6957648D01*
X-24930881Y6951866D01*
X-24948446Y6942477D01*
X-24963842Y6929842D01*
X-24976477Y6914446D01*
X-24985866Y6896881D01*
X-24991648Y6877821D01*
X-24993600Y6858000D01*
X-24993600Y6451600D01*
X-29488343Y6451600D01*
X-29469445Y8278429D01*
X-24305170Y8279940D01*
X-24282400Y8277697D01*
X-24259494Y8279953D01*
X-24186835Y8279974D01*
X-24161768Y8249432D01*
G04 #@! TO.N,3V3*
G36*
X-22707600Y2794011D02*
X-30632400Y2794011D01*
X-30632400Y4216400D01*
X-27178000Y4216400D01*
X-27158179Y4218352D01*
X-27139119Y4224134D01*
X-27121554Y4233523D01*
X-27106158Y4246158D01*
X-27093523Y4261554D01*
X-27084134Y4279119D01*
X-27078352Y4298179D01*
X-27076400Y4318000D01*
X-27076400Y5994400D01*
X-22707600Y5994400D01*
X-22707600Y2794011D01*
X-22707600Y2794011D01*
G37*
X-22707600Y2794011D02*
X-30632400Y2794011D01*
X-30632400Y4216400D01*
X-27178000Y4216400D01*
X-27158179Y4218352D01*
X-27139119Y4224134D01*
X-27121554Y4233523D01*
X-27106158Y4246158D01*
X-27093523Y4261554D01*
X-27084134Y4279119D01*
X-27078352Y4298179D01*
X-27076400Y4318000D01*
X-27076400Y5994400D01*
X-22707600Y5994400D01*
X-22707600Y2794011D01*
D38*
G04 #@! TO.N,/GPS_PWR_FILT*
G36*
X39497000Y-8255000D02*
X29845000Y-8255000D01*
X29845000Y-4445000D01*
X39497000Y-4445000D01*
X39497000Y-8255000D01*
X39497000Y-8255000D01*
G37*
X39497000Y-8255000D02*
X29845000Y-8255000D01*
X29845000Y-4445000D01*
X39497000Y-4445000D01*
X39497000Y-8255000D01*
G04 #@! TO.N,GND*
G36*
X33401000Y-3986095D02*
X32755959Y-3977495D01*
X32755959Y-3022600D01*
X32730332Y-2893762D01*
X32657351Y-2784539D01*
X32548128Y-2711558D01*
X32419290Y-2685931D01*
X30420310Y-2685931D01*
X30291472Y-2711558D01*
X30182249Y-2784539D01*
X30109268Y-2893762D01*
X30083641Y-3022600D01*
X30083641Y-3941864D01*
X29845000Y-3938682D01*
X29845000Y-1651000D01*
X33401000Y-1651000D01*
X33401000Y-3986095D01*
X33401000Y-3986095D01*
G37*
X33401000Y-3986095D02*
X32755959Y-3977495D01*
X32755959Y-3022600D01*
X32730332Y-2893762D01*
X32657351Y-2784539D01*
X32548128Y-2711558D01*
X32419290Y-2685931D01*
X30420310Y-2685931D01*
X30291472Y-2711558D01*
X30182249Y-2784539D01*
X30109268Y-2893762D01*
X30083641Y-3022600D01*
X30083641Y-3941864D01*
X29845000Y-3938682D01*
X29845000Y-1651000D01*
X33401000Y-1651000D01*
X33401000Y-3986095D01*
G04 #@! TO.N,/GPS_3V3*
G36*
X44831000Y-8255000D02*
X40005000Y-8255000D01*
X40005000Y-4445000D01*
X44831000Y-4445000D01*
X44831000Y-8255000D01*
X44831000Y-8255000D01*
G37*
X44831000Y-8255000D02*
X40005000Y-8255000D01*
X40005000Y-4445000D01*
X44831000Y-4445000D01*
X44831000Y-8255000D01*
G04 #@! TD*
M02*
