M48
;DRILL file {KiCad (5.0.0)} date 12/11/18 15:37:50
;FORMAT={-:-/ absolute / inch / decimal}
FMAT,2
INCH,TZ
T1C0.0118
T2C0.0197
T3C0.0394
T4C0.0472
T5C0.0413
T6C0.0512
T7C0.1000
%
G90
G05
M72
T1
X-1.96Y0.215
X-1.8Y-0.65
X-1.725Y0.215
X-1.715Y0.03
X-1.635Y-0.065
X-1.565Y-0.27
X-1.545Y-0.185
X-1.535Y-0.295
X-1.5169Y0.2803
X-1.5023Y0.3522
X-1.4996Y0.3831
X-1.49Y-0.11
X-1.4856Y0.24
X-1.4728Y0.3807
X-1.4728Y0.3522
X-1.456Y0.278
X-1.45Y0.06
X-1.42Y-0.355
X-1.3929Y0.3161
X-1.39Y0.13
X-1.37Y-0.355
X-1.365Y0.2772
X-1.3386Y0.6394
X-1.325Y-0.7
X-1.32Y-0.355
X-1.3Y0.
X-1.2979Y-0.0831
X-1.275Y-0.355
X-1.2709Y-0.2983
X-1.25Y0.
X-1.235Y-0.0465
X-1.23Y0.46
X-1.225Y-0.1238
X-1.215Y-0.515
X-1.2Y0.23
X-1.2Y0.
X-1.19Y-0.61
X-1.1702Y0.587
X-1.16Y-0.3
X-1.1586Y-0.0941
X-1.1535Y0.2925
X-1.152Y0.2654
X-1.151Y-0.6844
X-1.1508Y0.3197
X-1.15Y0.
X-1.145Y-0.51
X-1.12Y0.42
X-1.1169Y0.3205
X-1.116Y-0.61
X-1.1038Y-0.4108
X-1.1Y0.125
X-1.1Y0.
X-1.0894Y0.3193
X-1.082Y-0.306
X-1.05Y0.175
X-1.05Y0.125
X-1.05Y0.
X-1.05Y-0.61
X-1.048Y-0.376
X-1.0082Y-0.32
X-1.0082Y-0.372
X-1.Y0.65
X-1.Y0.175
X-1.Y0.125
X-1.Y0.
X-0.976Y-0.61
X-0.97Y0.65
X-0.97Y0.625
X-0.956Y0.348
X-0.95Y0.175
X-0.95Y0.125
X-0.95Y0.
X-0.94Y0.65
X-0.94Y0.625
X-0.903Y0.5685
X-0.9Y0.
X-0.882Y0.35
X-0.876Y0.31
X-0.8553Y0.5647
X-0.85Y0.
X-0.8112Y-0.7198
X-0.8Y0.
X-0.7887Y-0.6202
X-0.753Y0.577
X-0.75Y0.
X-0.744Y0.21
X-0.71Y-0.5358
X-0.7Y0.
X-0.695Y-0.305
X-0.69Y-0.355
X-0.664Y-0.492
X-0.66Y0.37
X-0.65Y0.
X-0.648Y0.202
X-0.6402Y-0.7064
X-0.64Y-0.64
X-0.615Y-0.095
X-0.6Y0.312
X-0.6Y0.
X-0.6Y-0.74
X-0.5915Y-0.568
X-0.5752Y-0.7232
X-0.55Y0.
X-0.55Y-0.4792
X-0.5498Y-0.5383
X-0.542Y0.252
X-0.53Y-0.64
X-0.53Y-0.7
X-0.5026Y0.06
X-0.5Y-0.35
X-0.49Y-0.075
X-0.49Y-0.4792
X-0.49Y-0.64
X-0.49Y-0.7
X-0.4891Y-0.5383
X-0.48Y0.585
X-0.4498Y-0.716
X-0.449Y0.4697
X-0.4453Y0.0608
X-0.4353Y-0.7449
X-0.43Y-0.4792
X-0.43Y-0.5383
X-0.413Y0.543
X-0.41Y0.36
X-0.3925Y0.12
X-0.38Y0.46
X-0.379Y0.1615
X-0.3702Y-0.3
X-0.37Y0.575
X-0.345Y0.36
X-0.33Y0.625
X-0.32Y0.1
X-0.3102Y0.1765
X-0.295Y0.155
X-0.29Y-0.25
X-0.29Y-0.35
X-0.2736Y0.5827
X-0.2713Y0.5154
X-0.2465Y-0.0803
X-0.2437Y-0.3504
X-0.2425Y-0.2625
X-0.24Y0.08
X-0.2311Y0.4168
X-0.226Y0.2311
X-0.2208Y0.0252
X-0.2165Y0.6212
X-0.2155Y0.1062
X-0.2145Y0.0003
X-0.1898Y-0.019
X-0.175Y-0.365
X-0.172Y-0.714
X-0.135Y-0.395
X-0.1195Y-0.0942
X-0.1186Y-0.4147
X-0.1143Y-0.1608
X-0.102Y0.4903
X-0.1011Y-0.3665
X-0.089Y0.1948
X-0.08Y-0.69
X-0.0595Y0.0903
X-0.0563Y-0.4307
X-0.05Y0.175
X-0.0489Y-0.0355
X-0.0345Y-0.1897
X-0.0306Y-0.5072
X-0.0302Y-0.55
X-0.0295Y0.0753
X-0.0189Y0.1752
X0.0386Y0.0219
X0.0446Y0.2161
X0.055Y-0.505
X0.0676Y-0.7124
X0.0686Y0.2068
X0.07Y-0.56
X0.085Y0.43
X0.095Y0.6066
X0.1049Y-0.125
X0.1155Y0.0353
X0.12Y0.22
X0.125Y-0.23
X0.1305Y0.0753
X0.1336Y-0.0209
X0.135Y0.44
X0.14Y-0.095
X0.1505Y0.0403
X0.167Y0.4642
X0.1825Y0.41
X0.2425Y-0.0415
X0.2547Y0.4681
X0.265Y0.3571
X0.269Y-0.0417
X0.2984Y-0.7232
X0.3Y0.42
X0.31Y-0.3552
X0.345Y0.245
X0.36Y-0.36
X0.3649Y0.6242
X0.385Y-0.455
X0.395Y0.02
X0.415Y0.33
X0.4207Y0.3691
X0.4229Y0.2823
X0.43Y0.
X0.51Y-0.4
X0.5303Y-0.0492
X0.5355Y-0.1397
X0.5421Y0.5646
X0.56Y-0.57
X0.565Y-0.095
X0.565Y-0.16
X0.565Y-0.21
X0.565Y-0.265
X0.57Y0.135
X0.57Y-0.0275
X0.585Y-0.7299
X0.6Y-0.16
X0.6Y-0.475
X0.63Y-0.025
X0.63Y-0.265
X0.6346Y0.285
X0.655Y-0.135
X0.655Y-0.19
X0.685Y-0.025
X0.7Y-0.265
X0.71Y0.46
X0.71Y-0.16
X0.7128Y-0.4762
X0.74Y0.62
X0.7415Y-0.505
X0.745Y-0.025
X0.745Y-0.47
X0.75Y-0.265
X0.7618Y-0.7047
X0.805Y-0.025
X0.805Y-0.1
X0.805Y-0.155
X0.805Y-0.21
X0.805Y-0.26
X0.8335Y-0.4565
X0.84Y-0.56
X0.9305Y-0.1247
X0.935Y0.35
X0.97Y0.57
X0.9705Y0.3703
X0.9805Y-0.1347
X1.0105Y0.3571
X1.0205Y0.4253
X1.025Y-0.13
X1.04Y0.055
X1.044Y-0.67
X1.0884Y0.2623
X1.1205Y0.4553
X1.1232Y-0.5283
X1.135Y-0.7112
X1.1555Y0.5453
X1.1652Y0.15
X1.18Y0.025
X1.18Y-0.08
X1.18Y-0.13
X1.19Y0.215
X1.2151Y-0.7302
X1.235Y-0.19
X1.25Y-0.405
X1.2925Y0.295
X1.2925Y0.265
X1.3Y-0.07
X1.3Y-0.12
X1.3Y-0.735
X1.31Y-0.395
X1.3173Y0.6242
X1.32Y0.375
X1.32Y0.295
X1.32Y0.265
X1.35Y0.265
X1.35Y0.175
X1.35Y-0.495
X1.365Y-0.395
X1.4355Y0.4403
X1.45Y0.175
X1.5Y0.2
X1.5Y0.1
X1.505Y-0.66
X1.515Y-0.06
X1.55Y0.5
X1.55Y0.45
X1.5512Y0.4058
X1.61Y-0.18
X1.61Y-0.24
X1.65Y0.5
X1.65Y0.45
X1.6512Y0.4058
X1.68Y-0.18
X1.68Y-0.24
X1.7Y0.2
X1.7Y0.1
X1.74Y-0.18
X1.74Y-0.24
X1.75Y0.5
X1.75Y0.45
X1.75Y0.4
X1.8Y0.2
X1.8Y0.1
X1.814Y0.348
X1.814Y0.318
X1.8175Y0.255
X1.82Y-0.14
X1.85Y0.5
X1.85Y0.45
X1.85Y0.4
X1.87Y-0.47
X1.9Y-0.37
X1.9125Y0.2725
X1.915Y-0.14
T3
X0.615Y-0.075
T5
X0.4734Y0.296
T6
X0.7667Y0.296
T7
X1.8844Y0.6246
X1.8844Y-0.6837
X-2.0026Y-0.6837
X-2.0026Y0.6246
T2
X0.0685Y0.505G85X0.041Y0.505
G05
X0.1867Y0.5896G85X0.1433Y0.5896
G05
X0.289Y0.505G85X0.2615Y0.505
G05
T4
X0.0325Y0.6401G85X0.0353Y0.6401
G05
X0.2924Y0.6401G85X0.2951Y0.6401
G05
T0
M30
