G04 #@! TF.GenerationSoftware,KiCad,Pcbnew,(5.0.0)*
G04 #@! TF.CreationDate,2018-12-11T15:37:44-06:00*
G04 #@! TF.ProjectId,fk-core,666B2D636F72652E6B696361645F7063,0.1*
G04 #@! TF.SameCoordinates,PX791ddc0PY791ddc0*
G04 #@! TF.FileFunction,Legend,Top*
G04 #@! TF.FilePolarity,Positive*
%FSLAX46Y46*%
G04 Gerber Fmt 4.6, Leading zero omitted, Abs format (unit mm)*
G04 Created by KiCad (PCBNEW (5.0.0)) date 12/11/18 15:37:44*
%MOMM*%
%LPD*%
G01*
G04 APERTURE LIST*
%ADD10C,0.180000*%
%ADD11C,0.203200*%
%ADD12C,0.300000*%
%ADD13C,0.200000*%
%ADD14C,0.100000*%
%ADD15C,0.150000*%
%ADD16C,0.127000*%
%ADD17C,0.120000*%
%ADD18C,0.010000*%
G04 APERTURE END LIST*
D10*
X-26360096Y9072620D02*
X-26360096Y10072620D01*
X-26026762Y9358334D01*
X-25693429Y10072620D01*
X-25693429Y9072620D01*
X-25026762Y10072620D02*
X-24836286Y10072620D01*
X-24741048Y10025000D01*
X-24645810Y9929762D01*
X-24598191Y9739286D01*
X-24598191Y9405953D01*
X-24645810Y9215477D01*
X-24741048Y9120239D01*
X-24836286Y9072620D01*
X-25026762Y9072620D01*
X-25122000Y9120239D01*
X-25217239Y9215477D01*
X-25264858Y9405953D01*
X-25264858Y9739286D01*
X-25217239Y9929762D01*
X-25122000Y10025000D01*
X-25026762Y10072620D01*
X-24169620Y9072620D02*
X-24169620Y10072620D01*
X-23931524Y10072620D01*
X-23788667Y10025000D01*
X-23693429Y9929762D01*
X-23645810Y9834524D01*
X-23598191Y9644048D01*
X-23598191Y9501191D01*
X-23645810Y9310715D01*
X-23693429Y9215477D01*
X-23788667Y9120239D01*
X-23931524Y9072620D01*
X-24169620Y9072620D01*
X-23169620Y10072620D02*
X-23169620Y9263096D01*
X-23122000Y9167858D01*
X-23074381Y9120239D01*
X-22979143Y9072620D01*
X-22788667Y9072620D01*
X-22693429Y9120239D01*
X-22645810Y9167858D01*
X-22598191Y9263096D01*
X-22598191Y10072620D01*
X-21645810Y9072620D02*
X-22122000Y9072620D01*
X-22122000Y10072620D01*
X-21312477Y9596429D02*
X-20979143Y9596429D01*
X-20836286Y9072620D02*
X-21312477Y9072620D01*
X-21312477Y10072620D01*
X-20836286Y10072620D01*
D11*
X17126857Y-7216019D02*
X16643047Y-7216019D01*
X16643047Y-6200019D01*
X17659047Y-6200019D02*
X17852571Y-6200019D01*
X17949333Y-6248400D01*
X18046095Y-6345161D01*
X18094476Y-6538685D01*
X18094476Y-6877352D01*
X18046095Y-7070876D01*
X17949333Y-7167638D01*
X17852571Y-7216019D01*
X17659047Y-7216019D01*
X17562285Y-7167638D01*
X17465523Y-7070876D01*
X17417142Y-6877352D01*
X17417142Y-6538685D01*
X17465523Y-6345161D01*
X17562285Y-6248400D01*
X17659047Y-6200019D01*
X19110476Y-7216019D02*
X18771809Y-6732209D01*
X18529904Y-7216019D02*
X18529904Y-6200019D01*
X18916952Y-6200019D01*
X19013714Y-6248400D01*
X19062095Y-6296780D01*
X19110476Y-6393542D01*
X19110476Y-6538685D01*
X19062095Y-6635447D01*
X19013714Y-6683828D01*
X18916952Y-6732209D01*
X18529904Y-6732209D01*
X19497523Y-6925733D02*
X19981333Y-6925733D01*
X19400761Y-7216019D02*
X19739428Y-6200019D01*
X20078095Y-7216019D01*
X17126857Y-8652933D02*
X17610666Y-8652933D01*
X17030095Y-8943219D02*
X17368761Y-7927219D01*
X17707428Y-8943219D01*
X18046095Y-8943219D02*
X18046095Y-7927219D01*
X18626666Y-8943219D01*
X18626666Y-7927219D01*
X18965333Y-7927219D02*
X19545904Y-7927219D01*
X19255619Y-8943219D02*
X19255619Y-7927219D01*
X46264285Y5816600D02*
X46167523Y5864981D01*
X46022380Y5864981D01*
X45877238Y5816600D01*
X45780476Y5719839D01*
X45732095Y5623077D01*
X45683714Y5429553D01*
X45683714Y5284410D01*
X45732095Y5090886D01*
X45780476Y4994124D01*
X45877238Y4897362D01*
X46022380Y4848981D01*
X46119142Y4848981D01*
X46264285Y4897362D01*
X46312666Y4945743D01*
X46312666Y5284410D01*
X46119142Y5284410D01*
X46748095Y4848981D02*
X46748095Y5864981D01*
X47135142Y5864981D01*
X47231904Y5816600D01*
X47280285Y5768220D01*
X47328666Y5671458D01*
X47328666Y5526315D01*
X47280285Y5429553D01*
X47231904Y5381172D01*
X47135142Y5332791D01*
X46748095Y5332791D01*
X47715714Y4897362D02*
X47860857Y4848981D01*
X48102761Y4848981D01*
X48199523Y4897362D01*
X48247904Y4945743D01*
X48296285Y5042505D01*
X48296285Y5139267D01*
X48247904Y5236029D01*
X48199523Y5284410D01*
X48102761Y5332791D01*
X47909238Y5381172D01*
X47812476Y5429553D01*
X47764095Y5477934D01*
X47715714Y5574696D01*
X47715714Y5671458D01*
X47764095Y5768220D01*
X47812476Y5816600D01*
X47909238Y5864981D01*
X48151142Y5864981D01*
X48296285Y5816600D01*
X45828857Y3412067D02*
X46312666Y3412067D01*
X45732095Y3121781D02*
X46070761Y4137781D01*
X46409428Y3121781D01*
X46748095Y3121781D02*
X46748095Y4137781D01*
X47328666Y3121781D01*
X47328666Y4137781D01*
X47667333Y4137781D02*
X48247904Y4137781D01*
X47957619Y3121781D02*
X47957619Y4137781D01*
D10*
X3722857Y-10310761D02*
X3865714Y-10358380D01*
X4103809Y-10358380D01*
X4199047Y-10310761D01*
X4246666Y-10263142D01*
X4294285Y-10167904D01*
X4294285Y-10072666D01*
X4246666Y-9977428D01*
X4199047Y-9929809D01*
X4103809Y-9882190D01*
X3913333Y-9834571D01*
X3818095Y-9786952D01*
X3770476Y-9739333D01*
X3722857Y-9644095D01*
X3722857Y-9548857D01*
X3770476Y-9453619D01*
X3818095Y-9406000D01*
X3913333Y-9358380D01*
X4151428Y-9358380D01*
X4294285Y-9406000D01*
X4627619Y-9358380D02*
X4865714Y-10358380D01*
X5056190Y-9644095D01*
X5246666Y-10358380D01*
X5484761Y-9358380D01*
X5865714Y-10358380D02*
X5865714Y-9358380D01*
X6103809Y-9358380D01*
X6246666Y-9406000D01*
X6341904Y-9501238D01*
X6389523Y-9596476D01*
X6437142Y-9786952D01*
X6437142Y-9929809D01*
X6389523Y-10120285D01*
X6341904Y-10215523D01*
X6246666Y-10310761D01*
X6103809Y-10358380D01*
X5865714Y-10358380D01*
X22384095Y10406000D02*
X22288857Y10453620D01*
X22146000Y10453620D01*
X22003142Y10406000D01*
X21907904Y10310762D01*
X21860285Y10215524D01*
X21812666Y10025048D01*
X21812666Y9882191D01*
X21860285Y9691715D01*
X21907904Y9596477D01*
X22003142Y9501239D01*
X22146000Y9453620D01*
X22241238Y9453620D01*
X22384095Y9501239D01*
X22431714Y9548858D01*
X22431714Y9882191D01*
X22241238Y9882191D01*
X22860285Y9453620D02*
X22860285Y10453620D01*
X23241238Y10453620D01*
X23336476Y10406000D01*
X23384095Y10358381D01*
X23431714Y10263143D01*
X23431714Y10120286D01*
X23384095Y10025048D01*
X23336476Y9977429D01*
X23241238Y9929810D01*
X22860285Y9929810D01*
X23812666Y9501239D02*
X23955523Y9453620D01*
X24193619Y9453620D01*
X24288857Y9501239D01*
X24336476Y9548858D01*
X24384095Y9644096D01*
X24384095Y9739334D01*
X24336476Y9834572D01*
X24288857Y9882191D01*
X24193619Y9929810D01*
X24003142Y9977429D01*
X23907904Y10025048D01*
X23860285Y10072667D01*
X23812666Y10167905D01*
X23812666Y10263143D01*
X23860285Y10358381D01*
X23907904Y10406000D01*
X24003142Y10453620D01*
X24241238Y10453620D01*
X24384095Y10406000D01*
X24812666Y9834572D02*
X25574571Y9834572D01*
X25955523Y10453620D02*
X26622190Y10453620D01*
X26193619Y9453620D01*
X26907904Y10453620D02*
X27526952Y10453620D01*
X27193619Y10072667D01*
X27336476Y10072667D01*
X27431714Y10025048D01*
X27479333Y9977429D01*
X27526952Y9882191D01*
X27526952Y9644096D01*
X27479333Y9548858D01*
X27431714Y9501239D01*
X27336476Y9453620D01*
X27050761Y9453620D01*
X26955523Y9501239D01*
X26907904Y9548858D01*
X28431714Y10453620D02*
X27955523Y10453620D01*
X27907904Y9977429D01*
X27955523Y10025048D01*
X28050761Y10072667D01*
X28288857Y10072667D01*
X28384095Y10025048D01*
X28431714Y9977429D01*
X28479333Y9882191D01*
X28479333Y9644096D01*
X28431714Y9548858D01*
X28384095Y9501239D01*
X28288857Y9453620D01*
X28050761Y9453620D01*
X27955523Y9501239D01*
X27907904Y9548858D01*
X12867000Y1500239D02*
X13009857Y1452620D01*
X13247952Y1452620D01*
X13343190Y1500239D01*
X13390809Y1547858D01*
X13438428Y1643096D01*
X13438428Y1738334D01*
X13390809Y1833572D01*
X13343190Y1881191D01*
X13247952Y1928810D01*
X13057476Y1976429D01*
X12962238Y2024048D01*
X12914619Y2071667D01*
X12867000Y2166905D01*
X12867000Y2262143D01*
X12914619Y2357381D01*
X12962238Y2405000D01*
X13057476Y2452620D01*
X13295571Y2452620D01*
X13438428Y2405000D01*
X13771761Y2452620D02*
X14009857Y1452620D01*
X14200333Y2166905D01*
X14390809Y1452620D01*
X14628904Y2452620D01*
X15009857Y1452620D02*
X15009857Y2452620D01*
X15343190Y2452620D02*
X15914619Y2452620D01*
X15628904Y1452620D02*
X15628904Y2452620D01*
X16819380Y1547858D02*
X16771761Y1500239D01*
X16628904Y1452620D01*
X16533666Y1452620D01*
X16390809Y1500239D01*
X16295571Y1595477D01*
X16247952Y1690715D01*
X16200333Y1881191D01*
X16200333Y2024048D01*
X16247952Y2214524D01*
X16295571Y2309762D01*
X16390809Y2405000D01*
X16533666Y2452620D01*
X16628904Y2452620D01*
X16771761Y2405000D01*
X16819380Y2357381D01*
X17247952Y1452620D02*
X17247952Y2452620D01*
X17247952Y1976429D02*
X17819380Y1976429D01*
X17819380Y1452620D02*
X17819380Y2452620D01*
X22582476Y-11580761D02*
X22725333Y-11628380D01*
X22963428Y-11628380D01*
X23058666Y-11580761D01*
X23106285Y-11533142D01*
X23153904Y-11437904D01*
X23153904Y-11342666D01*
X23106285Y-11247428D01*
X23058666Y-11199809D01*
X22963428Y-11152190D01*
X22772952Y-11104571D01*
X22677714Y-11056952D01*
X22630095Y-11009333D01*
X22582476Y-10914095D01*
X22582476Y-10818857D01*
X22630095Y-10723619D01*
X22677714Y-10676000D01*
X22772952Y-10628380D01*
X23011047Y-10628380D01*
X23153904Y-10676000D01*
X23582476Y-11104571D02*
X23915809Y-11104571D01*
X24058666Y-11628380D02*
X23582476Y-11628380D01*
X23582476Y-10628380D01*
X24058666Y-10628380D01*
X25058666Y-11628380D02*
X24725333Y-11152190D01*
X24487238Y-11628380D02*
X24487238Y-10628380D01*
X24868190Y-10628380D01*
X24963428Y-10676000D01*
X25011047Y-10723619D01*
X25058666Y-10818857D01*
X25058666Y-10961714D01*
X25011047Y-11056952D01*
X24963428Y-11104571D01*
X24868190Y-11152190D01*
X24487238Y-11152190D01*
X25487238Y-11628380D02*
X25487238Y-10628380D01*
X25915809Y-11342666D02*
X26392000Y-11342666D01*
X25820571Y-11628380D02*
X26153904Y-10628380D01*
X26487238Y-11628380D01*
X27296761Y-11628380D02*
X26820571Y-11628380D01*
X26820571Y-10628380D01*
X-46719858Y11152239D02*
X-46577000Y11104620D01*
X-46338905Y11104620D01*
X-46243667Y11152239D01*
X-46196048Y11199858D01*
X-46148429Y11295096D01*
X-46148429Y11390334D01*
X-46196048Y11485572D01*
X-46243667Y11533191D01*
X-46338905Y11580810D01*
X-46529381Y11628429D01*
X-46624620Y11676048D01*
X-46672239Y11723667D01*
X-46719858Y11818905D01*
X-46719858Y11914143D01*
X-46672239Y12009381D01*
X-46624620Y12057000D01*
X-46529381Y12104620D01*
X-46291286Y12104620D01*
X-46148429Y12057000D01*
X-45529381Y12104620D02*
X-45338905Y12104620D01*
X-45243667Y12057000D01*
X-45148429Y11961762D01*
X-45100810Y11771286D01*
X-45100810Y11437953D01*
X-45148429Y11247477D01*
X-45243667Y11152239D01*
X-45338905Y11104620D01*
X-45529381Y11104620D01*
X-45624620Y11152239D01*
X-45719858Y11247477D01*
X-45767477Y11437953D01*
X-45767477Y11771286D01*
X-45719858Y11961762D01*
X-45624620Y12057000D01*
X-45529381Y12104620D01*
X-44196048Y11104620D02*
X-44672239Y11104620D01*
X-44672239Y12104620D01*
X-43910334Y11390334D02*
X-43434143Y11390334D01*
X-44005572Y11104620D02*
X-43672239Y12104620D01*
X-43338905Y11104620D01*
X-42434143Y11104620D02*
X-42767477Y11580810D01*
X-43005572Y11104620D02*
X-43005572Y12104620D01*
X-42624620Y12104620D01*
X-42529381Y12057000D01*
X-42481762Y12009381D01*
X-42434143Y11914143D01*
X-42434143Y11771286D01*
X-42481762Y11676048D01*
X-42529381Y11628429D01*
X-42624620Y11580810D01*
X-43005572Y11580810D01*
X-46696000Y-55571D02*
X-46553143Y-103190D01*
X-46505524Y-150809D01*
X-46457905Y-246047D01*
X-46457905Y-388904D01*
X-46505524Y-484142D01*
X-46553143Y-531761D01*
X-46648381Y-579380D01*
X-47029334Y-579380D01*
X-47029334Y420620D01*
X-46696000Y420620D01*
X-46600762Y373000D01*
X-46553143Y325381D01*
X-46505524Y230143D01*
X-46505524Y134905D01*
X-46553143Y39667D01*
X-46600762Y-7952D01*
X-46696000Y-55571D01*
X-47029334Y-55571D01*
X-46076953Y-293666D02*
X-45600762Y-293666D01*
X-46172191Y-579380D02*
X-45838858Y420620D01*
X-45505524Y-579380D01*
X-45315048Y420620D02*
X-44743620Y420620D01*
X-45029334Y-579380D02*
X-45029334Y420620D01*
X-44553143Y420620D02*
X-43981715Y420620D01*
X-44267429Y-579380D02*
X-44267429Y420620D01*
X-43648381Y-55571D02*
X-43315048Y-55571D01*
X-43172191Y-579380D02*
X-43648381Y-579380D01*
X-43648381Y420620D01*
X-43172191Y420620D01*
X-42172191Y-579380D02*
X-42505524Y-103190D01*
X-42743620Y-579380D02*
X-42743620Y420620D01*
X-42362667Y420620D01*
X-42267429Y373000D01*
X-42219810Y325381D01*
X-42172191Y230143D01*
X-42172191Y87286D01*
X-42219810Y-7952D01*
X-42267429Y-55571D01*
X-42362667Y-103190D01*
X-42743620Y-103190D01*
X-41553143Y-103190D02*
X-41553143Y-579380D01*
X-41886477Y420620D02*
X-41553143Y-103190D01*
X-41219810Y420620D01*
X10985714Y13755620D02*
X10985714Y12946096D01*
X11033333Y12850858D01*
X11080952Y12803239D01*
X11176190Y12755620D01*
X11366666Y12755620D01*
X11461904Y12803239D01*
X11509523Y12850858D01*
X11557142Y12946096D01*
X11557142Y13755620D01*
X11985714Y12803239D02*
X12128571Y12755620D01*
X12366666Y12755620D01*
X12461904Y12803239D01*
X12509523Y12850858D01*
X12557142Y12946096D01*
X12557142Y13041334D01*
X12509523Y13136572D01*
X12461904Y13184191D01*
X12366666Y13231810D01*
X12176190Y13279429D01*
X12080952Y13327048D01*
X12033333Y13374667D01*
X11985714Y13469905D01*
X11985714Y13565143D01*
X12033333Y13660381D01*
X12080952Y13708000D01*
X12176190Y13755620D01*
X12414285Y13755620D01*
X12557142Y13708000D01*
X12985714Y13279429D02*
X13319047Y13279429D01*
X13461904Y12755620D02*
X12985714Y12755620D01*
X12985714Y13755620D01*
X13461904Y13755620D01*
X14461904Y12755620D02*
X14128571Y13231810D01*
X13890476Y12755620D02*
X13890476Y13755620D01*
X14271428Y13755620D01*
X14366666Y13708000D01*
X14414285Y13660381D01*
X14461904Y13565143D01*
X14461904Y13422286D01*
X14414285Y13327048D01*
X14366666Y13279429D01*
X14271428Y13231810D01*
X13890476Y13231810D01*
X10120380Y-15184380D02*
X9787047Y-14708190D01*
X9548952Y-15184380D02*
X9548952Y-14184380D01*
X9929904Y-14184380D01*
X10025142Y-14232000D01*
X10072761Y-14279619D01*
X10120380Y-14374857D01*
X10120380Y-14517714D01*
X10072761Y-14612952D01*
X10025142Y-14660571D01*
X9929904Y-14708190D01*
X9548952Y-14708190D01*
X10501333Y-15136761D02*
X10644190Y-15184380D01*
X10882285Y-15184380D01*
X10977523Y-15136761D01*
X11025142Y-15089142D01*
X11072761Y-14993904D01*
X11072761Y-14898666D01*
X11025142Y-14803428D01*
X10977523Y-14755809D01*
X10882285Y-14708190D01*
X10691809Y-14660571D01*
X10596571Y-14612952D01*
X10548952Y-14565333D01*
X10501333Y-14470095D01*
X10501333Y-14374857D01*
X10548952Y-14279619D01*
X10596571Y-14232000D01*
X10691809Y-14184380D01*
X10929904Y-14184380D01*
X11072761Y-14232000D01*
X11358476Y-14184380D02*
X11929904Y-14184380D01*
X11644190Y-15184380D02*
X11644190Y-14184380D01*
D12*
X-32593689Y-9347200D02*
G75*
G03X-32593689Y-9347200I-70711J0D01*
G01*
X26537511Y-13360400D02*
G75*
G03X26537511Y-13360400I-70711J0D01*
G01*
D10*
X-26138000Y-14930380D02*
X-26138000Y-13930380D01*
X-25899905Y-13930380D01*
X-25757048Y-13978000D01*
X-25661810Y-14073238D01*
X-25614191Y-14168476D01*
X-25566572Y-14358952D01*
X-25566572Y-14501809D01*
X-25614191Y-14692285D01*
X-25661810Y-14787523D01*
X-25757048Y-14882761D01*
X-25899905Y-14930380D01*
X-26138000Y-14930380D01*
X-25185620Y-14644666D02*
X-24709429Y-14644666D01*
X-25280858Y-14930380D02*
X-24947524Y-13930380D01*
X-24614191Y-14930380D01*
X-24423715Y-13930380D02*
X-23852286Y-13930380D01*
X-24138000Y-14930380D02*
X-24138000Y-13930380D01*
X-23566572Y-14644666D02*
X-23090381Y-14644666D01*
X-23661810Y-14930380D02*
X-23328477Y-13930380D01*
X-22995143Y-14930380D01*
X-30979905Y-14835142D02*
X-31027524Y-14882761D01*
X-31170381Y-14930380D01*
X-31265620Y-14930380D01*
X-31408477Y-14882761D01*
X-31503715Y-14787523D01*
X-31551334Y-14692285D01*
X-31598953Y-14501809D01*
X-31598953Y-14358952D01*
X-31551334Y-14168476D01*
X-31503715Y-14073238D01*
X-31408477Y-13978000D01*
X-31265620Y-13930380D01*
X-31170381Y-13930380D01*
X-31027524Y-13978000D01*
X-30979905Y-14025619D01*
X-30360858Y-13930380D02*
X-30170381Y-13930380D01*
X-30075143Y-13978000D01*
X-29979905Y-14073238D01*
X-29932286Y-14263714D01*
X-29932286Y-14597047D01*
X-29979905Y-14787523D01*
X-30075143Y-14882761D01*
X-30170381Y-14930380D01*
X-30360858Y-14930380D01*
X-30456096Y-14882761D01*
X-30551334Y-14787523D01*
X-30598953Y-14597047D01*
X-30598953Y-14263714D01*
X-30551334Y-14073238D01*
X-30456096Y-13978000D01*
X-30360858Y-13930380D01*
X-29503715Y-14930380D02*
X-29503715Y-13930380D01*
X-28932286Y-14930380D01*
X-28932286Y-13930380D01*
X-28456096Y-14930380D02*
X-28456096Y-13930380D01*
X-27884667Y-14930380D01*
X-27884667Y-13930380D01*
D13*
X25717571Y15565429D02*
X25384238Y15565429D01*
X25384238Y15041620D02*
X25384238Y16041620D01*
X25860428Y16041620D01*
X26241380Y15041620D02*
X26241380Y16041620D01*
X26622333Y16041620D02*
X27289000Y15041620D01*
X27289000Y16041620D02*
X26622333Y15041620D01*
X-49264038Y16603981D02*
X-49025943Y15937315D01*
X-48787848Y16603981D01*
X-48216419Y16937315D02*
X-48121181Y16937315D01*
X-48025943Y16889695D01*
X-47978324Y16842076D01*
X-47930705Y16746838D01*
X-47883086Y16556362D01*
X-47883086Y16318267D01*
X-47930705Y16127791D01*
X-47978324Y16032553D01*
X-48025943Y15984934D01*
X-48121181Y15937315D01*
X-48216419Y15937315D01*
X-48311657Y15984934D01*
X-48359276Y16032553D01*
X-48406896Y16127791D01*
X-48454515Y16318267D01*
X-48454515Y16556362D01*
X-48406896Y16746838D01*
X-48359276Y16842076D01*
X-48311657Y16889695D01*
X-48216419Y16937315D01*
X-47454515Y16032553D02*
X-47406896Y15984934D01*
X-47454515Y15937315D01*
X-47502134Y15984934D01*
X-47454515Y16032553D01*
X-47454515Y15937315D01*
X-46454515Y15937315D02*
X-47025943Y15937315D01*
X-46740229Y15937315D02*
X-46740229Y16937315D01*
X-46835467Y16794457D01*
X-46930705Y16699219D01*
X-47025943Y16651600D01*
X-45597372Y16603981D02*
X-45597372Y15937315D01*
X-45835467Y16984934D02*
X-46073562Y16270648D01*
X-45454515Y16270648D01*
X-31702286Y12850858D02*
X-31749905Y12803239D01*
X-31892762Y12755620D01*
X-31988000Y12755620D01*
X-32130858Y12803239D01*
X-32226096Y12898477D01*
X-32273715Y12993715D01*
X-32321334Y13184191D01*
X-32321334Y13327048D01*
X-32273715Y13517524D01*
X-32226096Y13612762D01*
X-32130858Y13708000D01*
X-31988000Y13755620D01*
X-31892762Y13755620D01*
X-31749905Y13708000D01*
X-31702286Y13660381D01*
X-31273715Y12755620D02*
X-31273715Y13755620D01*
X-31273715Y13279429D02*
X-30702286Y13279429D01*
X-30702286Y12755620D02*
X-30702286Y13755620D01*
X-29702286Y13708000D02*
X-29797524Y13755620D01*
X-29940381Y13755620D01*
X-30083239Y13708000D01*
X-30178477Y13612762D01*
X-30226096Y13517524D01*
X-30273715Y13327048D01*
X-30273715Y13184191D01*
X-30226096Y12993715D01*
X-30178477Y12898477D01*
X-30083239Y12803239D01*
X-29940381Y12755620D01*
X-29845143Y12755620D01*
X-29702286Y12803239D01*
X-29654667Y12850858D01*
X-29654667Y13184191D01*
X-29845143Y13184191D01*
X-31241905Y16311620D02*
X-31241905Y17311620D01*
X-30860953Y17311620D01*
X-30765715Y17264000D01*
X-30718096Y17216381D01*
X-30670477Y17121143D01*
X-30670477Y16978286D01*
X-30718096Y16883048D01*
X-30765715Y16835429D01*
X-30860953Y16787810D01*
X-31241905Y16787810D01*
X-29718096Y17264000D02*
X-29813334Y17311620D01*
X-29956191Y17311620D01*
X-30099048Y17264000D01*
X-30194286Y17168762D01*
X-30241905Y17073524D01*
X-30289524Y16883048D01*
X-30289524Y16740191D01*
X-30241905Y16549715D01*
X-30194286Y16454477D01*
X-30099048Y16359239D01*
X-29956191Y16311620D01*
X-29860953Y16311620D01*
X-29718096Y16359239D01*
X-29670477Y16406858D01*
X-29670477Y16740191D01*
X-29860953Y16740191D01*
X38028714Y12374620D02*
X38028714Y13374620D01*
X38266809Y13374620D01*
X38409666Y13327000D01*
X38504904Y13231762D01*
X38552523Y13136524D01*
X38600142Y12946048D01*
X38600142Y12803191D01*
X38552523Y12612715D01*
X38504904Y12517477D01*
X38409666Y12422239D01*
X38266809Y12374620D01*
X38028714Y12374620D01*
X39552523Y12374620D02*
X38981095Y12374620D01*
X39266809Y12374620D02*
X39266809Y13374620D01*
X39171571Y13231762D01*
X39076333Y13136524D01*
X38981095Y13088905D01*
X39885857Y13374620D02*
X40504904Y13374620D01*
X40171571Y12993667D01*
X40314428Y12993667D01*
X40409666Y12946048D01*
X40457285Y12898429D01*
X40504904Y12803191D01*
X40504904Y12565096D01*
X40457285Y12469858D01*
X40409666Y12422239D01*
X40314428Y12374620D01*
X40028714Y12374620D01*
X39933476Y12422239D01*
X39885857Y12469858D01*
D14*
G04 #@! TO.C,J3*
X-49087000Y8560000D02*
G75*
G03X-49087000Y8560000I-200000J0D01*
G01*
D13*
X-42113000Y10452000D02*
X-42113000Y2502000D01*
X-42113000Y2502000D02*
X-42863000Y2502000D01*
X-42113000Y10452000D02*
X-42863000Y10452000D01*
X-46363000Y10452000D02*
X-47113000Y10452000D01*
X-47113000Y10452000D02*
X-47113000Y8227000D01*
X-47113000Y4727000D02*
X-47113000Y2502000D01*
X-47113000Y2502000D02*
X-46363000Y2502000D01*
D14*
G04 #@! TO.C,J10*
X-48706000Y-3013000D02*
G75*
G03X-48706000Y-3013000I-200000J0D01*
G01*
D13*
X-41732000Y-1121000D02*
X-41732000Y-9071000D01*
X-41732000Y-9071000D02*
X-42482000Y-9071000D01*
X-41732000Y-1121000D02*
X-42482000Y-1121000D01*
X-45982000Y-1121000D02*
X-46732000Y-1121000D01*
X-46732000Y-1121000D02*
X-46732000Y-3346000D01*
X-46732000Y-6846000D02*
X-46732000Y-9071000D01*
X-46732000Y-9071000D02*
X-45982000Y-9071000D01*
D15*
G04 #@! TO.C,J16*
X8191000Y11827000D02*
X8191000Y15827000D01*
X8191000Y15827000D02*
X191000Y15827000D01*
X191000Y15827000D02*
X191000Y11827000D01*
X191000Y11827000D02*
X8191000Y11827000D01*
G04 #@! TO.C,U15*
X-36542000Y-4598000D02*
X-38642000Y-4598000D01*
X-35767000Y-7848000D02*
X-38642000Y-7848000D01*
G04 #@! TO.C,C39*
X-40169000Y319000D02*
X-36969000Y319000D01*
X-36969000Y-1081000D02*
X-40169000Y-1081000D01*
X-40169000Y-1081000D02*
X-40169000Y319000D01*
X-36969000Y-1081000D02*
X-36969000Y319000D01*
G04 #@! TO.C,C40*
X-38303000Y-2856000D02*
X-38303000Y-4256000D01*
X-35103000Y-2856000D02*
X-35103000Y-4256000D01*
X-38303000Y-2856000D02*
X-35103000Y-2856000D01*
X-35103000Y-4256000D02*
X-38303000Y-4256000D01*
D16*
G04 #@! TO.C,M7*
X-27477720Y-18694400D02*
X-28475940Y-18694400D01*
X-14478000Y-17995900D02*
X-15476220Y-17995900D01*
D15*
G04 #@! TO.C,R46*
X-32955000Y-432000D02*
X-34355000Y-432000D01*
X-32955000Y-3632000D02*
X-34355000Y-3632000D01*
X-32955000Y-432000D02*
X-32955000Y-3632000D01*
X-34355000Y-3632000D02*
X-34355000Y-432000D01*
G04 #@! TO.C,R45*
X-32831000Y-3632000D02*
X-32831000Y-432000D01*
X-31431000Y-432000D02*
X-31431000Y-3632000D01*
X-31431000Y-3632000D02*
X-32831000Y-3632000D01*
X-31431000Y-432000D02*
X-32831000Y-432000D01*
G04 #@! TO.C,R44*
X-40081000Y-8190000D02*
X-40081000Y-9590000D01*
X-36881000Y-8190000D02*
X-36881000Y-9590000D01*
X-40081000Y-8190000D02*
X-36881000Y-8190000D01*
X-36881000Y-9590000D02*
X-40081000Y-9590000D01*
G04 #@! TO.C,R43*
X-31039000Y-7177000D02*
X-34239000Y-7177000D01*
X-34239000Y-5777000D02*
X-31039000Y-5777000D01*
X-31039000Y-5777000D02*
X-31039000Y-7177000D01*
X-34239000Y-5777000D02*
X-34239000Y-7177000D01*
G04 #@! TO.C,R42*
X-40081000Y-1205000D02*
X-40081000Y-2605000D01*
X-36881000Y-1205000D02*
X-36881000Y-2605000D01*
X-40081000Y-1205000D02*
X-36881000Y-1205000D01*
X-36881000Y-2605000D02*
X-40081000Y-2605000D01*
D17*
G04 #@! TO.C,U4*
X-8880442Y13165608D02*
X-8880442Y14965608D01*
X-12100442Y14965608D02*
X-12100442Y12515608D01*
G04 #@! TO.C,J6*
X-15454200Y14233000D02*
X-15454200Y16033000D01*
X-15454200Y16033000D02*
X-17304200Y16033000D01*
X-17304200Y16033000D02*
X-17304200Y16773000D01*
X-25274200Y14233000D02*
X-25274200Y16033000D01*
X-25274200Y16033000D02*
X-23424200Y16033000D01*
X-15454200Y10913000D02*
X-15454200Y10363000D01*
X-15454200Y10363000D02*
X-25274200Y10363000D01*
X-25274200Y10363000D02*
X-25274200Y10913000D01*
G04 #@! TO.C,J8*
X18541700Y6787800D02*
X18541700Y8587800D01*
X18541700Y8587800D02*
X16691700Y8587800D01*
X16691700Y8587800D02*
X16691700Y9327800D01*
X12471700Y6787800D02*
X12471700Y8587800D01*
X12471700Y8587800D02*
X14321700Y8587800D01*
X18541700Y3467800D02*
X18541700Y2917800D01*
X18541700Y2917800D02*
X12471700Y2917800D01*
X12471700Y2917800D02*
X12471700Y3467800D01*
G04 #@! TO.C,J4*
X14291000Y-3175000D02*
X14291000Y-3235000D01*
X14291000Y-3235000D02*
X16951000Y-3235000D01*
X16951000Y-3235000D02*
X16951000Y-3175000D01*
X16951000Y-3175000D02*
X14291000Y-3175000D01*
X14291000Y-1905000D02*
X14291000Y-575000D01*
X14291000Y-575000D02*
X15621000Y-575000D01*
D12*
G04 #@! TO.C,U5*
X-19835289Y-12152000D02*
G75*
G03X-19835289Y-12152000I-70711J0D01*
G01*
D15*
X-21106000Y-12102000D02*
X-21106000Y-7202000D01*
X-21106000Y-7202000D02*
X-24106000Y-7202000D01*
X-24106000Y-7202000D02*
X-24106000Y-12102000D01*
X-24106000Y-12102000D02*
X-21106000Y-12102000D01*
D12*
G04 #@! TO.C,U9*
X-18257289Y6510000D02*
G75*
G03X-18257289Y6510000I-70711J0D01*
G01*
D15*
X-18378000Y5310000D02*
X-23278000Y5310000D01*
X-23278000Y5310000D02*
X-23278000Y2310000D01*
X-23278000Y2310000D02*
X-18378000Y2310000D01*
X-18378000Y2310000D02*
X-18378000Y5310000D01*
G04 #@! TO.C,F1*
X-3080000Y16025000D02*
X-2280000Y16025000D01*
X-3080000Y17375000D02*
X-2280000Y17375000D01*
G04 #@! TO.C,C16*
X-6226802Y-15690022D02*
X-7626802Y-15690022D01*
X-6226802Y-18890022D02*
X-7626802Y-18890022D01*
X-6226802Y-15690022D02*
X-6226802Y-18890022D01*
X-7626802Y-18890022D02*
X-7626802Y-15690022D01*
D17*
G04 #@! TO.C,J5*
X28552000Y-6090000D02*
X28552000Y-4290000D01*
X28552000Y-4290000D02*
X26702000Y-4290000D01*
X26702000Y-4290000D02*
X26702000Y-3550000D01*
X21232000Y-6090000D02*
X21232000Y-4290000D01*
X21232000Y-4290000D02*
X23082000Y-4290000D01*
X28552000Y-9410000D02*
X28552000Y-9960000D01*
X28552000Y-9960000D02*
X21232000Y-9960000D01*
X21232000Y-9960000D02*
X21232000Y-9410000D01*
G04 #@! TO.C,SW2*
X15365900Y17625000D02*
X15365900Y17525000D01*
X15365900Y14125000D02*
X15365900Y14225000D01*
X10465900Y14225000D02*
X10465900Y14125000D01*
X10465900Y17625000D02*
X10465900Y17525000D01*
X10465900Y16225000D02*
X10465900Y15525000D01*
X15365900Y16225000D02*
X15365900Y15525000D01*
X15365900Y17625000D02*
X10465900Y17625000D01*
X10465900Y14125000D02*
X15365900Y14125000D01*
G04 #@! TO.C,SW1*
X8675200Y-19149000D02*
X8675200Y-19049000D01*
X8675200Y-15649000D02*
X8675200Y-15749000D01*
X13575200Y-15749000D02*
X13575200Y-15649000D01*
X13575200Y-19149000D02*
X13575200Y-19049000D01*
X13575200Y-17749000D02*
X13575200Y-17049000D01*
X8675200Y-17749000D02*
X8675200Y-17049000D01*
X8675200Y-19149000D02*
X13575200Y-19149000D01*
X13575200Y-15649000D02*
X8675200Y-15649000D01*
D15*
G04 #@! TO.C,U13*
X30062800Y11381100D02*
X30262800Y11381100D01*
X30062800Y12931100D02*
X30062800Y11381100D01*
X32262800Y11381100D02*
X31562800Y11381100D01*
X30062800Y16381100D02*
X30062800Y12881100D01*
X32262800Y11381100D02*
X34862800Y11381100D01*
X35117221Y16802100D02*
G75*
G03X35117221Y16802100I-141421J0D01*
G01*
X31562800Y16381100D02*
X33562800Y16381100D01*
X34862800Y16381100D02*
X35062800Y16381100D01*
X35062800Y16381100D02*
X35062800Y11381100D01*
X35062800Y11381100D02*
X34862800Y11381100D01*
X30062800Y16381100D02*
X30212800Y16381100D01*
G04 #@! TO.C,C33*
X-9528802Y-15690022D02*
X-10928802Y-15690022D01*
X-9528802Y-18890022D02*
X-10928802Y-18890022D01*
X-9528802Y-15690022D02*
X-9528802Y-18890022D01*
X-10928802Y-18890022D02*
X-10928802Y-15690022D01*
G04 #@! TO.C,C34*
X-7877802Y-15690022D02*
X-9277802Y-15690022D01*
X-7877802Y-18890022D02*
X-9277802Y-18890022D01*
X-7877802Y-15690022D02*
X-7877802Y-18890022D01*
X-9277802Y-18890022D02*
X-9277802Y-15690022D01*
G04 #@! TO.C,R7*
X-12638000Y-11252000D02*
X-11238000Y-11252000D01*
X-12638000Y-8052000D02*
X-11238000Y-8052000D01*
X-12638000Y-11252000D02*
X-12638000Y-8052000D01*
X-11238000Y-8052000D02*
X-11238000Y-11252000D01*
G04 #@! TO.C,C1*
X-7786600Y6404976D02*
X-6386600Y6404976D01*
X-7786600Y9604976D02*
X-6386600Y9604976D01*
X-7786600Y6404976D02*
X-7786600Y9604976D01*
X-6386600Y9604976D02*
X-6386600Y6404976D01*
G04 #@! TO.C,C3*
X-2348924Y10577658D02*
X-1358974Y11567608D01*
X-4611666Y12840400D02*
X-3621716Y13830350D01*
X-2348924Y10577658D02*
X-4611666Y12840400D01*
X-3621716Y13830350D02*
X-1358974Y11567608D01*
G04 #@! TO.C,C4*
X-1090275Y11298909D02*
X-2080225Y10308959D01*
X1172467Y9036167D02*
X182517Y8046217D01*
X-1090275Y11298909D02*
X1172467Y9036167D01*
X182517Y8046217D02*
X-2080225Y10308959D01*
G04 #@! TO.C,C7*
X-9414208Y5998576D02*
X-8014208Y5998576D01*
X-9414208Y9198576D02*
X-8014208Y9198576D01*
X-9414208Y5998576D02*
X-9414208Y9198576D01*
X-8014208Y9198576D02*
X-8014208Y5998576D01*
G04 #@! TO.C,C11*
X-6997842Y15549994D02*
X-8397842Y15549994D01*
X-6997842Y12349994D02*
X-8397842Y12349994D01*
X-6997842Y15549994D02*
X-6997842Y12349994D01*
X-8397842Y12349994D02*
X-8397842Y15549994D01*
G04 #@! TO.C,C12*
X-31447353Y11060341D02*
X-31447353Y12460341D01*
X-34647353Y11060341D02*
X-34647353Y12460341D01*
X-31447353Y11060341D02*
X-34647353Y11060341D01*
X-34647353Y12460341D02*
X-31447353Y12460341D01*
G04 #@! TO.C,C18*
X-28383000Y-9576000D02*
X-29783000Y-9576000D01*
X-28383000Y-12776000D02*
X-29783000Y-12776000D01*
X-28383000Y-9576000D02*
X-28383000Y-12776000D01*
X-29783000Y-12776000D02*
X-29783000Y-9576000D01*
G04 #@! TO.C,C19*
X-40208000Y3748000D02*
X-40208000Y2348000D01*
X-37008000Y3748000D02*
X-37008000Y2348000D01*
X-40208000Y3748000D02*
X-37008000Y3748000D01*
X-37008000Y2348000D02*
X-40208000Y2348000D01*
G04 #@! TO.C,C20*
X-33706000Y5396000D02*
X-33706000Y6796000D01*
X-36906000Y5396000D02*
X-36906000Y6796000D01*
X-33706000Y5396000D02*
X-36906000Y5396000D01*
X-36906000Y6796000D02*
X-33706000Y6796000D01*
G04 #@! TO.C,C21*
X-19888000Y9336000D02*
X-19888000Y7936000D01*
X-16688000Y9336000D02*
X-16688000Y7936000D01*
X-19888000Y9336000D02*
X-16688000Y9336000D01*
X-16688000Y7936000D02*
X-19888000Y7936000D01*
G04 #@! TO.C,C22*
X30429000Y-13222200D02*
X30429000Y-11822200D01*
X27229000Y-13222200D02*
X27229000Y-11822200D01*
X30429000Y-13222200D02*
X27229000Y-13222200D01*
X27229000Y-11822200D02*
X30429000Y-11822200D01*
G04 #@! TO.C,C24*
X34112000Y-11876000D02*
X34112000Y-10476000D01*
X30912000Y-11876000D02*
X30912000Y-10476000D01*
X34112000Y-11876000D02*
X30912000Y-11876000D01*
X30912000Y-10476000D02*
X34112000Y-10476000D01*
G04 #@! TO.C,D1*
X37047400Y16868600D02*
X37047400Y13668600D01*
X37047400Y13668600D02*
X35647400Y13668600D01*
X35647400Y13668600D02*
X35647400Y16868600D01*
X35647400Y16868600D02*
X37047400Y16868600D01*
X37047400Y16868600D02*
X37047400Y17068600D01*
X37047400Y17068600D02*
X35647400Y17068600D01*
X35647400Y17068600D02*
X35647400Y16868600D01*
G04 #@! TO.C,D2*
X-29097200Y-18900600D02*
X-29097200Y-15700600D01*
X-29097200Y-15700600D02*
X-27697200Y-15700600D01*
X-27697200Y-15700600D02*
X-27697200Y-18900600D01*
X-27697200Y-18900600D02*
X-29097200Y-18900600D01*
X-29097200Y-18900600D02*
X-29097200Y-19100600D01*
X-29097200Y-19100600D02*
X-27697200Y-19100600D01*
X-27697200Y-19100600D02*
X-27697200Y-18900600D01*
G04 #@! TO.C,D3*
X-25431530Y-18920430D02*
X-25431530Y-15720430D01*
X-25431530Y-15720430D02*
X-24031530Y-15720430D01*
X-24031530Y-15720430D02*
X-24031530Y-18920430D01*
X-24031530Y-18920430D02*
X-25431530Y-18920430D01*
X-25431530Y-18920430D02*
X-25431530Y-19120430D01*
X-25431530Y-19120430D02*
X-24031530Y-19120430D01*
X-24031530Y-19120430D02*
X-24031530Y-18920430D01*
G04 #@! TO.C,D7*
X-31731000Y14007400D02*
X-31131000Y14007400D01*
X-33131000Y16007400D02*
X-33131000Y14007400D01*
X-31881000Y16007400D02*
X-32381000Y16007400D01*
X-31131000Y14007400D02*
X-31131000Y16007400D01*
X-33131000Y14007400D02*
X-32531000Y14007400D01*
G04 #@! TO.C,D8*
X3330711Y9700000D02*
G75*
G03X3330711Y9700000I-70711J0D01*
G01*
X3610000Y8250000D02*
X3610000Y7800000D01*
X4910000Y8650000D02*
X4910000Y7750000D01*
X4910000Y6750000D02*
X3610000Y6750000D01*
X4910000Y9650000D02*
X3610000Y9650000D01*
G04 #@! TO.C,D9*
X-26162200Y15635400D02*
X-29362200Y15635400D01*
X-29362200Y15635400D02*
X-29362200Y17035400D01*
X-29362200Y17035400D02*
X-26162200Y17035400D01*
X-26162200Y17035400D02*
X-26162200Y15635400D01*
X-26162200Y15635400D02*
X-25962200Y15635400D01*
X-25962200Y15635400D02*
X-25962200Y17035400D01*
X-25962200Y17035400D02*
X-26162200Y17035400D01*
G04 #@! TO.C,D10*
X-26162200Y12384200D02*
X-29362200Y12384200D01*
X-29362200Y12384200D02*
X-29362200Y13784200D01*
X-29362200Y13784200D02*
X-26162200Y13784200D01*
X-26162200Y13784200D02*
X-26162200Y12384200D01*
X-26162200Y12384200D02*
X-25962200Y12384200D01*
X-25962200Y12384200D02*
X-25962200Y13784200D01*
X-25962200Y13784200D02*
X-26162200Y13784200D01*
G04 #@! TO.C,D11*
X23072800Y16840000D02*
X23072800Y13640000D01*
X23072800Y13640000D02*
X21672800Y13640000D01*
X21672800Y13640000D02*
X21672800Y16840000D01*
X21672800Y16840000D02*
X23072800Y16840000D01*
X23072800Y16840000D02*
X23072800Y17040000D01*
X23072800Y17040000D02*
X21672800Y17040000D01*
X21672800Y17040000D02*
X21672800Y16840000D01*
G04 #@! TO.C,L1*
X-11157008Y5983376D02*
X-9757008Y5983376D01*
X-11157008Y9183376D02*
X-9757008Y9183376D01*
X-11157008Y5983376D02*
X-11157008Y9183376D01*
X-9757008Y9183376D02*
X-9757008Y5983376D01*
G04 #@! TO.C,L2*
X-7960000Y17380000D02*
X-7960000Y15980000D01*
X-4760000Y17380000D02*
X-4760000Y15980000D01*
X-7960000Y17380000D02*
X-4760000Y17380000D01*
X-4760000Y15980000D02*
X-7960000Y15980000D01*
G04 #@! TO.C,Q1*
X38863400Y10677000D02*
X38863400Y12077000D01*
X37963400Y12077000D02*
X38863400Y12077000D01*
X35863400Y12077000D02*
X36863400Y12077000D01*
X35863400Y10677000D02*
X35863400Y12077000D01*
X36963400Y10677000D02*
X37763400Y10677000D01*
G04 #@! TO.C,R2*
X-16394200Y-15700600D02*
X-17794200Y-15700600D01*
X-16394200Y-18900600D02*
X-17794200Y-18900600D01*
X-16394200Y-15700600D02*
X-16394200Y-18900600D01*
X-17794200Y-18900600D02*
X-17794200Y-15700600D01*
G04 #@! TO.C,R3*
X39079400Y16868600D02*
X37679400Y16868600D01*
X39079400Y13668600D02*
X37679400Y13668600D01*
X39079400Y16868600D02*
X39079400Y13668600D01*
X37679400Y13668600D02*
X37679400Y16868600D01*
G04 #@! TO.C,R4*
X-29526000Y-15700600D02*
X-30926000Y-15700600D01*
X-29526000Y-18900600D02*
X-30926000Y-18900600D01*
X-29526000Y-15700600D02*
X-29526000Y-18900600D01*
X-30926000Y-18900600D02*
X-30926000Y-15700600D01*
G04 #@! TO.C,R5*
X-25868400Y-15751400D02*
X-27268400Y-15751400D01*
X-25868400Y-18951400D02*
X-27268400Y-18951400D01*
X-25868400Y-15751400D02*
X-25868400Y-18951400D01*
X-27268400Y-18951400D02*
X-27268400Y-15751400D01*
G04 #@! TO.C,R6*
X-5145000Y-12522000D02*
X-3745000Y-12522000D01*
X-5145000Y-9322000D02*
X-3745000Y-9322000D01*
X-5145000Y-12522000D02*
X-5145000Y-9322000D01*
X-3745000Y-9322000D02*
X-3745000Y-12522000D01*
G04 #@! TO.C,R8*
X19253000Y-18556200D02*
X19253000Y-17156200D01*
X16053000Y-18556200D02*
X16053000Y-17156200D01*
X19253000Y-18556200D02*
X16053000Y-18556200D01*
X16053000Y-17156200D02*
X19253000Y-17156200D01*
G04 #@! TO.C,R9*
X19253000Y-16778200D02*
X19253000Y-15378200D01*
X16053000Y-16778200D02*
X16053000Y-15378200D01*
X19253000Y-16778200D02*
X16053000Y-16778200D01*
X16053000Y-15378200D02*
X19253000Y-15378200D01*
G04 #@! TO.C,R10*
X10871400Y12384000D02*
X10871400Y10984000D01*
X14071400Y12384000D02*
X14071400Y10984000D01*
X10871400Y12384000D02*
X14071400Y12384000D01*
X14071400Y10984000D02*
X10871400Y10984000D01*
G04 #@! TO.C,R17*
X17932200Y10984000D02*
X17932200Y12384000D01*
X14732200Y10984000D02*
X14732200Y12384000D01*
X17932200Y10984000D02*
X14732200Y10984000D01*
X14732200Y12384000D02*
X17932200Y12384000D01*
G04 #@! TO.C,R21*
X-31447353Y9383941D02*
X-31447353Y10783941D01*
X-34647353Y9383941D02*
X-34647353Y10783941D01*
X-31447353Y9383941D02*
X-34647353Y9383941D01*
X-34647353Y10783941D02*
X-31447353Y10783941D01*
G04 #@! TO.C,R22*
X-34277753Y17017941D02*
X-35677753Y17017941D01*
X-34277753Y13817941D02*
X-35677753Y13817941D01*
X-34277753Y17017941D02*
X-34277753Y13817941D01*
X-35677753Y13817941D02*
X-35677753Y17017941D01*
G04 #@! TO.C,R23*
X9844000Y10490000D02*
X8444000Y10490000D01*
X9844000Y7290000D02*
X8444000Y7290000D01*
X9844000Y10490000D02*
X9844000Y7290000D01*
X8444000Y7290000D02*
X8444000Y10490000D01*
G04 #@! TO.C,R24*
X-36055753Y17017941D02*
X-37455753Y17017941D01*
X-36055753Y13817941D02*
X-37455753Y13817941D01*
X-36055753Y17017941D02*
X-36055753Y13817941D01*
X-37455753Y13817941D02*
X-37455753Y17017941D01*
G04 #@! TO.C,R25*
X-37782953Y17017941D02*
X-39182953Y17017941D01*
X-37782953Y13817941D02*
X-39182953Y13817941D01*
X-37782953Y17017941D02*
X-37782953Y13817941D01*
X-39182953Y13817941D02*
X-39182953Y17017941D01*
G04 #@! TO.C,R30*
X8320000Y10490000D02*
X6920000Y10490000D01*
X8320000Y7290000D02*
X6920000Y7290000D01*
X8320000Y10490000D02*
X8320000Y7290000D01*
X6920000Y7290000D02*
X6920000Y10490000D01*
G04 #@! TO.C,R32*
X-29362200Y15409800D02*
X-29362200Y14009800D01*
X-26162200Y15409800D02*
X-26162200Y14009800D01*
X-29362200Y15409800D02*
X-26162200Y15409800D01*
X-26162200Y14009800D02*
X-29362200Y14009800D01*
G04 #@! TO.C,R33*
X-29362200Y12158600D02*
X-29362200Y10758600D01*
X-26162200Y12158600D02*
X-26162200Y10758600D01*
X-29362200Y12158600D02*
X-26162200Y12158600D01*
X-26162200Y10758600D02*
X-29362200Y10758600D01*
G04 #@! TO.C,R34*
X-40960953Y13817941D02*
X-39560953Y13817941D01*
X-40960953Y17017941D02*
X-39560953Y17017941D01*
X-40960953Y13817941D02*
X-40960953Y17017941D01*
X-39560953Y17017941D02*
X-39560953Y13817941D01*
G04 #@! TO.C,R37*
X34188200Y-13222200D02*
X34188200Y-11822200D01*
X30988200Y-13222200D02*
X30988200Y-11822200D01*
X34188200Y-13222200D02*
X30988200Y-13222200D01*
X30988200Y-11822200D02*
X34188200Y-11822200D01*
G04 #@! TO.C,R39*
X23400000Y13640000D02*
X24800000Y13640000D01*
X23400000Y16840000D02*
X24800000Y16840000D01*
X23400000Y13640000D02*
X23400000Y16840000D01*
X24800000Y16840000D02*
X24800000Y13640000D01*
D12*
G04 #@! TO.C,U2*
X-3104662Y6837256D02*
G75*
G03X-3104662Y6837256I-70711J0D01*
G01*
D15*
X-2362200Y-3451147D02*
X2587547Y1498600D01*
X-7311947Y1498600D02*
X-2362200Y6448347D01*
X-2362200Y6448347D02*
X2587547Y1498600D01*
X-7311947Y1498600D02*
X-2362200Y-3451147D01*
G04 #@! TO.C,U6*
X-36684083Y10820133D02*
X-36284083Y10820133D01*
X-36284083Y10820133D02*
X-36284083Y10420133D01*
X-36684083Y7820133D02*
X-36284083Y7820133D01*
X-36284083Y7820133D02*
X-36284083Y8220133D01*
X-39284083Y8220133D02*
X-39284083Y7820133D01*
X-39284083Y7820133D02*
X-38884083Y7820133D01*
D12*
X-39713372Y10620133D02*
G75*
G03X-39713372Y10620133I-70711J0D01*
G01*
D15*
X-38884083Y10820133D02*
X-39284083Y10820133D01*
X-39284083Y10820133D02*
X-39284083Y10420133D01*
D12*
G04 #@! TO.C,U7*
X27774511Y-13883000D02*
G75*
G03X27774511Y-13883000I-70711J0D01*
G01*
D15*
X28903800Y-13933000D02*
X28903800Y-18833000D01*
X28903800Y-18833000D02*
X31903800Y-18833000D01*
X31903800Y-18833000D02*
X31903800Y-13933000D01*
X31903800Y-13933000D02*
X28903800Y-13933000D01*
D12*
G04 #@! TO.C,U12*
X-5493789Y-7747000D02*
G75*
G03X-5493789Y-7747000I-70711J0D01*
G01*
D15*
X-5614500Y-8947000D02*
X-10514500Y-8947000D01*
X-10514500Y-8947000D02*
X-10514500Y-11947000D01*
X-10514500Y-11947000D02*
X-5614500Y-11947000D01*
X-5614500Y-11947000D02*
X-5614500Y-8947000D01*
G04 #@! TO.C,Y1*
X-4058883Y9145023D02*
X-3351777Y8437917D01*
X-2998223Y10205683D02*
X-2291117Y9498577D01*
G04 #@! TO.C,Y2*
X25565800Y-15562200D02*
X25565800Y-14562200D01*
X24065800Y-15562200D02*
X24065800Y-14562200D01*
G04 #@! TO.C,C17*
X-4575802Y-15690022D02*
X-5975802Y-15690022D01*
X-4575802Y-18890022D02*
X-5975802Y-18890022D01*
X-4575802Y-15690022D02*
X-4575802Y-18890022D01*
X-5975802Y-18890022D02*
X-5975802Y-15690022D01*
D17*
G04 #@! TO.C,J13*
X29256000Y6310000D02*
X29256000Y7460000D01*
X29256000Y7460000D02*
X28206000Y7460000D01*
X28206000Y7460000D02*
X28206000Y8450000D01*
X21036000Y6310000D02*
X21036000Y7460000D01*
X21036000Y7460000D02*
X22086000Y7460000D01*
X28086000Y4340000D02*
X22206000Y4340000D01*
D15*
G04 #@! TO.C,C23*
X-32955000Y5156000D02*
X-34355000Y5156000D01*
X-32955000Y1956000D02*
X-34355000Y1956000D01*
X-32955000Y5156000D02*
X-32955000Y1956000D01*
X-34355000Y1956000D02*
X-34355000Y5156000D01*
G04 #@! TO.C,C25*
X-30418000Y686000D02*
X-30418000Y3886000D01*
X-29018000Y3886000D02*
X-29018000Y686000D01*
X-29018000Y686000D02*
X-30418000Y686000D01*
X-29018000Y3886000D02*
X-30418000Y3886000D01*
G04 #@! TO.C,R11*
X-34606000Y5156000D02*
X-34606000Y1956000D01*
X-36006000Y1956000D02*
X-36006000Y5156000D01*
X-36006000Y5156000D02*
X-34606000Y5156000D01*
X-36006000Y1956000D02*
X-34606000Y1956000D01*
G04 #@! TO.C,R12*
X-31431000Y5156000D02*
X-32831000Y5156000D01*
X-31431000Y1956000D02*
X-32831000Y1956000D01*
X-31431000Y5156000D02*
X-31431000Y1956000D01*
X-32831000Y1956000D02*
X-32831000Y5156000D01*
D12*
G04 #@! TO.C,U8*
X-23591289Y6510000D02*
G75*
G03X-23591289Y6510000I-70711J0D01*
G01*
D15*
X-23712000Y5310000D02*
X-28612000Y5310000D01*
X-28612000Y5310000D02*
X-28612000Y2310000D01*
X-28612000Y2310000D02*
X-23712000Y2310000D01*
X-23712000Y2310000D02*
X-23712000Y5310000D01*
G04 #@! TO.C,C26*
X-29780000Y7696000D02*
X-31180000Y7696000D01*
X-29780000Y4496000D02*
X-31180000Y4496000D01*
X-29780000Y7696000D02*
X-29780000Y4496000D01*
X-31180000Y4496000D02*
X-31180000Y7696000D01*
G04 #@! TO.C,C29*
X-15559000Y2718000D02*
X-15559000Y5918000D01*
X-14159000Y5918000D02*
X-14159000Y2718000D01*
X-14159000Y2718000D02*
X-15559000Y2718000D01*
X-14159000Y5918000D02*
X-15559000Y5918000D01*
G04 #@! TO.C,C30*
X-16318000Y4267000D02*
X-17718000Y4267000D01*
X-16318000Y1067000D02*
X-17718000Y1067000D01*
X-16318000Y4267000D02*
X-16318000Y1067000D01*
X-17718000Y1067000D02*
X-17718000Y4267000D01*
G04 #@! TO.C,R13*
X-14110800Y6107200D02*
X-17310800Y6107200D01*
X-17310800Y7507200D02*
X-14110800Y7507200D01*
X-14110800Y7507200D02*
X-14110800Y6107200D01*
X-17310800Y7507200D02*
X-17310800Y6107200D01*
G04 #@! TO.C,R14*
X-12762000Y5879000D02*
X-14162000Y5879000D01*
X-12762000Y2679000D02*
X-14162000Y2679000D01*
X-12762000Y5879000D02*
X-12762000Y2679000D01*
X-14162000Y2679000D02*
X-14162000Y5879000D01*
G04 #@! TO.C,J7*
X13589000Y-7952000D02*
X13589000Y-11352000D01*
X7239000Y-7952000D02*
X7239000Y-11352000D01*
G04 #@! TO.C,R16*
X32867724Y9469695D02*
X32867724Y8069695D01*
X36067724Y9469695D02*
X36067724Y8069695D01*
X32867724Y9469695D02*
X36067724Y9469695D01*
X36067724Y8069695D02*
X32867724Y8069695D01*
G04 #@! TO.C,R18*
X-4394000Y-15810000D02*
X-4394000Y-17210000D01*
X-1194000Y-15810000D02*
X-1194000Y-17210000D01*
X-4394000Y-15810000D02*
X-1194000Y-15810000D01*
X-1194000Y-17210000D02*
X-4394000Y-17210000D01*
G04 #@! TO.C,R19*
X-22163000Y-18999000D02*
X-22163000Y-15799000D01*
X-20763000Y-15799000D02*
X-20763000Y-18999000D01*
X-20763000Y-18999000D02*
X-22163000Y-18999000D01*
X-20763000Y-15799000D02*
X-22163000Y-15799000D01*
G04 #@! TO.C,C27*
X33858000Y3110000D02*
X33858000Y4510000D01*
X30658000Y3110000D02*
X30658000Y4510000D01*
X33858000Y3110000D02*
X30658000Y3110000D01*
X30658000Y4510000D02*
X33858000Y4510000D01*
G04 #@! TO.C,C28*
X33869800Y4776240D02*
X33869800Y6176240D01*
X30669800Y4776240D02*
X30669800Y6176240D01*
X33869800Y4776240D02*
X30669800Y4776240D01*
X30669800Y6176240D02*
X33869800Y6176240D01*
G04 #@! TO.C,C36*
X38430000Y824000D02*
X35230000Y824000D01*
X35230000Y2224000D02*
X38430000Y2224000D01*
X38430000Y2224000D02*
X38430000Y824000D01*
X35230000Y2224000D02*
X35230000Y824000D01*
G04 #@! TO.C,R29*
X35230000Y-824000D02*
X38430000Y-824000D01*
X38430000Y-2224000D02*
X35230000Y-2224000D01*
X35230000Y-2224000D02*
X35230000Y-824000D01*
X38430000Y-2224000D02*
X38430000Y-824000D01*
G04 #@! TO.C,R38*
X35230000Y700000D02*
X35230000Y-700000D01*
X38430000Y700000D02*
X38430000Y-700000D01*
X35230000Y700000D02*
X38430000Y700000D01*
X38430000Y-700000D02*
X35230000Y-700000D01*
D12*
G04 #@! TO.C,U11*
X35851711Y7554600D02*
G75*
G03X35851711Y7554600I-70711J0D01*
G01*
D15*
X36981000Y7504600D02*
X36981000Y2604600D01*
X36981000Y2604600D02*
X39981000Y2604600D01*
X39981000Y2604600D02*
X39981000Y7504600D01*
X39981000Y7504600D02*
X36981000Y7504600D01*
G04 #@! TO.C,R20*
X-40138330Y2224000D02*
X-40138330Y824000D01*
X-36938330Y2224000D02*
X-36938330Y824000D01*
X-40138330Y2224000D02*
X-36938330Y2224000D01*
X-36938330Y824000D02*
X-40138330Y824000D01*
G04 #@! TO.C,R28*
X-36768000Y-1688000D02*
X-36768000Y1512000D01*
X-35368000Y1512000D02*
X-35368000Y-1688000D01*
X-35368000Y-1688000D02*
X-36768000Y-1688000D01*
X-35368000Y1512000D02*
X-36768000Y1512000D01*
G04 #@! TO.C,R40*
X34849000Y-17588000D02*
X38049000Y-17588000D01*
X38049000Y-18988000D02*
X34849000Y-18988000D01*
X34849000Y-18988000D02*
X34849000Y-17588000D01*
X38049000Y-18988000D02*
X38049000Y-17588000D01*
G04 #@! TO.C,R41*
X38010000Y-17464000D02*
X38010000Y-16064000D01*
X34810000Y-17464000D02*
X34810000Y-16064000D01*
X38010000Y-17464000D02*
X34810000Y-17464000D01*
X34810000Y-16064000D02*
X38010000Y-16064000D01*
G04 #@! TO.C,C37*
X16826000Y14148000D02*
X18226000Y14148000D01*
X16826000Y17348000D02*
X18226000Y17348000D01*
X16826000Y14148000D02*
X16826000Y17348000D01*
X18226000Y17348000D02*
X18226000Y14148000D01*
G04 #@! TO.C,C38*
X14148000Y-13778000D02*
X17348000Y-13778000D01*
X17348000Y-15178000D02*
X14148000Y-15178000D01*
X14148000Y-15178000D02*
X14148000Y-13778000D01*
X17348000Y-15178000D02*
X17348000Y-13778000D01*
D18*
G04 #@! TO.C,G\002A\002A\002A*
G36*
X32512629Y-5757760D02*
X32581727Y-5772634D01*
X32652490Y-5799510D01*
X32669891Y-5807750D01*
X32700764Y-5823907D01*
X32726076Y-5840038D01*
X32750103Y-5859267D01*
X32777120Y-5884717D01*
X32782296Y-5889865D01*
X32807927Y-5916413D01*
X32826974Y-5939038D01*
X32842513Y-5962056D01*
X32857624Y-5989787D01*
X32866712Y-6008289D01*
X32886455Y-6051709D01*
X32900159Y-6088670D01*
X32908789Y-6123308D01*
X32913313Y-6159757D01*
X32914696Y-6202152D01*
X32914669Y-6213475D01*
X32914286Y-6234828D01*
X32913197Y-6254822D01*
X32911008Y-6274402D01*
X32907328Y-6294515D01*
X32901766Y-6316105D01*
X32893931Y-6340119D01*
X32883430Y-6367504D01*
X32869873Y-6399204D01*
X32852866Y-6436166D01*
X32832020Y-6479337D01*
X32806942Y-6529661D01*
X32777241Y-6588086D01*
X32742525Y-6655556D01*
X32702403Y-6733019D01*
X32688616Y-6759575D01*
X32656058Y-6822149D01*
X32625028Y-6881563D01*
X32596052Y-6936824D01*
X32569653Y-6986943D01*
X32546359Y-7030927D01*
X32526694Y-7067785D01*
X32511184Y-7096526D01*
X32500353Y-7116159D01*
X32494727Y-7125693D01*
X32494284Y-7126287D01*
X32479290Y-7135175D01*
X32460171Y-7136764D01*
X32443264Y-7130809D01*
X32440387Y-7128379D01*
X32434469Y-7119810D01*
X32423359Y-7101109D01*
X32407671Y-7073441D01*
X32388019Y-7037970D01*
X32365016Y-6995858D01*
X32339278Y-6948270D01*
X32311418Y-6896368D01*
X32282051Y-6841318D01*
X32251791Y-6784282D01*
X32221252Y-6726424D01*
X32191049Y-6668908D01*
X32161795Y-6612897D01*
X32134105Y-6559555D01*
X32108593Y-6510045D01*
X32085873Y-6465532D01*
X32066561Y-6427179D01*
X32051269Y-6396149D01*
X32040612Y-6373606D01*
X32035268Y-6360903D01*
X32015174Y-6284503D01*
X32007284Y-6208935D01*
X32007960Y-6197142D01*
X32144722Y-6197142D01*
X32147798Y-6256424D01*
X32161460Y-6312441D01*
X32184681Y-6364167D01*
X32216433Y-6410576D01*
X32255687Y-6450641D01*
X32301417Y-6483335D01*
X32352594Y-6507632D01*
X32408190Y-6522506D01*
X32467178Y-6526930D01*
X32528529Y-6519877D01*
X32536288Y-6518143D01*
X32596733Y-6497815D01*
X32649740Y-6467519D01*
X32694551Y-6428086D01*
X32730410Y-6380350D01*
X32756563Y-6325140D01*
X32772252Y-6263289D01*
X32773089Y-6257677D01*
X32775884Y-6196346D01*
X32767375Y-6137843D01*
X32748656Y-6083217D01*
X32720822Y-6033515D01*
X32684967Y-5989786D01*
X32642187Y-5953078D01*
X32593575Y-5924440D01*
X32540228Y-5904920D01*
X32483239Y-5895566D01*
X32423704Y-5897428D01*
X32400875Y-5901245D01*
X32337464Y-5919977D01*
X32282088Y-5948248D01*
X32235234Y-5985597D01*
X32197387Y-6031564D01*
X32169034Y-6085690D01*
X32153260Y-6135622D01*
X32144722Y-6197142D01*
X32007960Y-6197142D01*
X32011526Y-6135032D01*
X32027832Y-6063629D01*
X32056129Y-5995559D01*
X32067871Y-5974338D01*
X32110263Y-5914367D01*
X32161383Y-5862793D01*
X32219918Y-5820698D01*
X32284555Y-5789166D01*
X32298527Y-5784075D01*
X32372709Y-5763588D01*
X32443517Y-5754780D01*
X32512629Y-5757760D01*
X32512629Y-5757760D01*
G37*
X32512629Y-5757760D02*
X32581727Y-5772634D01*
X32652490Y-5799510D01*
X32669891Y-5807750D01*
X32700764Y-5823907D01*
X32726076Y-5840038D01*
X32750103Y-5859267D01*
X32777120Y-5884717D01*
X32782296Y-5889865D01*
X32807927Y-5916413D01*
X32826974Y-5939038D01*
X32842513Y-5962056D01*
X32857624Y-5989787D01*
X32866712Y-6008289D01*
X32886455Y-6051709D01*
X32900159Y-6088670D01*
X32908789Y-6123308D01*
X32913313Y-6159757D01*
X32914696Y-6202152D01*
X32914669Y-6213475D01*
X32914286Y-6234828D01*
X32913197Y-6254822D01*
X32911008Y-6274402D01*
X32907328Y-6294515D01*
X32901766Y-6316105D01*
X32893931Y-6340119D01*
X32883430Y-6367504D01*
X32869873Y-6399204D01*
X32852866Y-6436166D01*
X32832020Y-6479337D01*
X32806942Y-6529661D01*
X32777241Y-6588086D01*
X32742525Y-6655556D01*
X32702403Y-6733019D01*
X32688616Y-6759575D01*
X32656058Y-6822149D01*
X32625028Y-6881563D01*
X32596052Y-6936824D01*
X32569653Y-6986943D01*
X32546359Y-7030927D01*
X32526694Y-7067785D01*
X32511184Y-7096526D01*
X32500353Y-7116159D01*
X32494727Y-7125693D01*
X32494284Y-7126287D01*
X32479290Y-7135175D01*
X32460171Y-7136764D01*
X32443264Y-7130809D01*
X32440387Y-7128379D01*
X32434469Y-7119810D01*
X32423359Y-7101109D01*
X32407671Y-7073441D01*
X32388019Y-7037970D01*
X32365016Y-6995858D01*
X32339278Y-6948270D01*
X32311418Y-6896368D01*
X32282051Y-6841318D01*
X32251791Y-6784282D01*
X32221252Y-6726424D01*
X32191049Y-6668908D01*
X32161795Y-6612897D01*
X32134105Y-6559555D01*
X32108593Y-6510045D01*
X32085873Y-6465532D01*
X32066561Y-6427179D01*
X32051269Y-6396149D01*
X32040612Y-6373606D01*
X32035268Y-6360903D01*
X32015174Y-6284503D01*
X32007284Y-6208935D01*
X32007960Y-6197142D01*
X32144722Y-6197142D01*
X32147798Y-6256424D01*
X32161460Y-6312441D01*
X32184681Y-6364167D01*
X32216433Y-6410576D01*
X32255687Y-6450641D01*
X32301417Y-6483335D01*
X32352594Y-6507632D01*
X32408190Y-6522506D01*
X32467178Y-6526930D01*
X32528529Y-6519877D01*
X32536288Y-6518143D01*
X32596733Y-6497815D01*
X32649740Y-6467519D01*
X32694551Y-6428086D01*
X32730410Y-6380350D01*
X32756563Y-6325140D01*
X32772252Y-6263289D01*
X32773089Y-6257677D01*
X32775884Y-6196346D01*
X32767375Y-6137843D01*
X32748656Y-6083217D01*
X32720822Y-6033515D01*
X32684967Y-5989786D01*
X32642187Y-5953078D01*
X32593575Y-5924440D01*
X32540228Y-5904920D01*
X32483239Y-5895566D01*
X32423704Y-5897428D01*
X32400875Y-5901245D01*
X32337464Y-5919977D01*
X32282088Y-5948248D01*
X32235234Y-5985597D01*
X32197387Y-6031564D01*
X32169034Y-6085690D01*
X32153260Y-6135622D01*
X32144722Y-6197142D01*
X32007960Y-6197142D01*
X32011526Y-6135032D01*
X32027832Y-6063629D01*
X32056129Y-5995559D01*
X32067871Y-5974338D01*
X32110263Y-5914367D01*
X32161383Y-5862793D01*
X32219918Y-5820698D01*
X32284555Y-5789166D01*
X32298527Y-5784075D01*
X32372709Y-5763588D01*
X32443517Y-5754780D01*
X32512629Y-5757760D01*
G36*
X45446950Y-6832600D02*
X45034200Y-6832600D01*
X45034200Y-6483350D01*
X45446950Y-6483350D01*
X45446950Y-6832600D01*
X45446950Y-6832600D01*
G37*
X45446950Y-6832600D02*
X45034200Y-6832600D01*
X45034200Y-6483350D01*
X45446950Y-6483350D01*
X45446950Y-6832600D01*
G36*
X46240700Y-6468387D02*
X46290084Y-6468808D01*
X46330168Y-6470192D01*
X46364337Y-6472934D01*
X46395978Y-6477429D01*
X46428478Y-6484073D01*
X46465222Y-6493260D01*
X46474062Y-6495622D01*
X46501050Y-6502889D01*
X46501050Y-6668424D01*
X46501003Y-6718529D01*
X46500800Y-6757317D01*
X46500346Y-6786168D01*
X46499544Y-6806465D01*
X46498300Y-6819590D01*
X46496518Y-6826924D01*
X46494103Y-6829849D01*
X46490958Y-6829748D01*
X46489937Y-6829367D01*
X46456744Y-6818394D01*
X46416220Y-6809091D01*
X46373720Y-6802483D01*
X46334991Y-6799608D01*
X46288609Y-6802058D01*
X46251937Y-6812038D01*
X46224130Y-6830340D01*
X46204343Y-6857752D01*
X46191731Y-6895066D01*
X46185708Y-6939209D01*
X46181970Y-6991124D01*
X46338573Y-6992824D01*
X46495176Y-6994525D01*
X46495176Y-7312025D01*
X46189900Y-7315425D01*
X46189900Y-8343900D01*
X45796200Y-8343900D01*
X45796200Y-7315200D01*
X45637450Y-7315200D01*
X45637450Y-6991350D01*
X45794474Y-6991350D01*
X45797770Y-6897687D01*
X45799918Y-6856723D01*
X45803271Y-6816873D01*
X45807438Y-6782020D01*
X45811950Y-6756400D01*
X45832931Y-6688565D01*
X45862879Y-6629714D01*
X45901907Y-6579725D01*
X45950133Y-6538478D01*
X46007671Y-6505851D01*
X46074638Y-6481724D01*
X46074688Y-6481710D01*
X46094369Y-6476722D01*
X46113725Y-6473119D01*
X46135350Y-6470692D01*
X46161838Y-6469233D01*
X46195785Y-6468534D01*
X46239785Y-6468386D01*
X46240700Y-6468387D01*
X46240700Y-6468387D01*
G37*
X46240700Y-6468387D02*
X46290084Y-6468808D01*
X46330168Y-6470192D01*
X46364337Y-6472934D01*
X46395978Y-6477429D01*
X46428478Y-6484073D01*
X46465222Y-6493260D01*
X46474062Y-6495622D01*
X46501050Y-6502889D01*
X46501050Y-6668424D01*
X46501003Y-6718529D01*
X46500800Y-6757317D01*
X46500346Y-6786168D01*
X46499544Y-6806465D01*
X46498300Y-6819590D01*
X46496518Y-6826924D01*
X46494103Y-6829849D01*
X46490958Y-6829748D01*
X46489937Y-6829367D01*
X46456744Y-6818394D01*
X46416220Y-6809091D01*
X46373720Y-6802483D01*
X46334991Y-6799608D01*
X46288609Y-6802058D01*
X46251937Y-6812038D01*
X46224130Y-6830340D01*
X46204343Y-6857752D01*
X46191731Y-6895066D01*
X46185708Y-6939209D01*
X46181970Y-6991124D01*
X46338573Y-6992824D01*
X46495176Y-6994525D01*
X46495176Y-7312025D01*
X46189900Y-7315425D01*
X46189900Y-8343900D01*
X45796200Y-8343900D01*
X45796200Y-7315200D01*
X45637450Y-7315200D01*
X45637450Y-6991350D01*
X45794474Y-6991350D01*
X45797770Y-6897687D01*
X45799918Y-6856723D01*
X45803271Y-6816873D01*
X45807438Y-6782020D01*
X45811950Y-6756400D01*
X45832931Y-6688565D01*
X45862879Y-6629714D01*
X45901907Y-6579725D01*
X45950133Y-6538478D01*
X46007671Y-6505851D01*
X46074638Y-6481724D01*
X46074688Y-6481710D01*
X46094369Y-6476722D01*
X46113725Y-6473119D01*
X46135350Y-6470692D01*
X46161838Y-6469233D01*
X46195785Y-6468534D01*
X46239785Y-6468386D01*
X46240700Y-6468387D01*
G36*
X45435896Y-7659687D02*
X45434368Y-8340725D01*
X45237459Y-8342402D01*
X45040550Y-8344080D01*
X45040550Y-6978650D01*
X45238987Y-6978649D01*
X45437425Y-6978649D01*
X45435896Y-7659687D01*
X45435896Y-7659687D01*
G37*
X45435896Y-7659687D02*
X45434368Y-8340725D01*
X45237459Y-8342402D01*
X45040550Y-8344080D01*
X45040550Y-6978650D01*
X45238987Y-6978649D01*
X45437425Y-6978649D01*
X45435896Y-7659687D01*
G36*
X43354471Y-6950603D02*
X43370500Y-6954626D01*
X43370500Y-7357903D01*
X43316898Y-7362252D01*
X43240876Y-7373411D01*
X43173438Y-7393915D01*
X43114463Y-7423863D01*
X43063829Y-7463353D01*
X43021412Y-7512486D01*
X42987091Y-7571361D01*
X42960743Y-7640077D01*
X42956443Y-7654925D01*
X42953277Y-7666873D01*
X42950615Y-7678585D01*
X42948404Y-7691267D01*
X42946590Y-7706129D01*
X42945121Y-7724380D01*
X42943944Y-7747227D01*
X42943005Y-7775880D01*
X42942252Y-7811548D01*
X42941632Y-7855438D01*
X42941090Y-7908759D01*
X42940575Y-7972720D01*
X42940199Y-8024812D01*
X42937952Y-8343900D01*
X42545000Y-8343900D01*
X42545000Y-6978650D01*
X42938700Y-6978650D01*
X42938844Y-7104062D01*
X42938988Y-7229475D01*
X42960003Y-7190490D01*
X42997178Y-7130481D01*
X43039739Y-7077507D01*
X43086254Y-7032893D01*
X43135290Y-6997965D01*
X43185416Y-6974048D01*
X43198410Y-6969809D01*
X43224794Y-6963311D01*
X43255798Y-6957586D01*
X43287917Y-6953065D01*
X43317646Y-6950178D01*
X43341480Y-6949358D01*
X43354471Y-6950603D01*
X43354471Y-6950603D01*
G37*
X43354471Y-6950603D02*
X43370500Y-6954626D01*
X43370500Y-7357903D01*
X43316898Y-7362252D01*
X43240876Y-7373411D01*
X43173438Y-7393915D01*
X43114463Y-7423863D01*
X43063829Y-7463353D01*
X43021412Y-7512486D01*
X42987091Y-7571361D01*
X42960743Y-7640077D01*
X42956443Y-7654925D01*
X42953277Y-7666873D01*
X42950615Y-7678585D01*
X42948404Y-7691267D01*
X42946590Y-7706129D01*
X42945121Y-7724380D01*
X42943944Y-7747227D01*
X42943005Y-7775880D01*
X42942252Y-7811548D01*
X42941632Y-7855438D01*
X42941090Y-7908759D01*
X42940575Y-7972720D01*
X42940199Y-8024812D01*
X42937952Y-8343900D01*
X42545000Y-8343900D01*
X42545000Y-6978650D01*
X42938700Y-6978650D01*
X42938844Y-7104062D01*
X42938988Y-7229475D01*
X42960003Y-7190490D01*
X42997178Y-7130481D01*
X43039739Y-7077507D01*
X43086254Y-7032893D01*
X43135290Y-6997965D01*
X43185416Y-6974048D01*
X43198410Y-6969809D01*
X43224794Y-6963311D01*
X43255798Y-6957586D01*
X43287917Y-6953065D01*
X43317646Y-6950178D01*
X43341480Y-6949358D01*
X43354471Y-6950603D01*
G36*
X39179686Y-6956610D02*
X39211203Y-6957343D01*
X39235530Y-6958886D01*
X39255417Y-6961502D01*
X39273619Y-6965454D01*
X39292889Y-6971005D01*
X39293800Y-6971289D01*
X39350833Y-6992594D01*
X39399453Y-7019016D01*
X39443642Y-7052898D01*
X39462656Y-7070725D01*
X39509736Y-7126078D01*
X39547205Y-7189613D01*
X39574932Y-7261063D01*
X39592033Y-7335442D01*
X39593327Y-7349984D01*
X39594498Y-7376657D01*
X39595541Y-7414894D01*
X39596447Y-7464124D01*
X39597210Y-7523781D01*
X39597822Y-7593296D01*
X39598276Y-7672099D01*
X39598565Y-7759624D01*
X39598681Y-7855302D01*
X39598682Y-7858125D01*
X39598792Y-8340725D01*
X39401846Y-8342402D01*
X39204900Y-8344080D01*
X39204900Y-7929399D01*
X39204881Y-7842826D01*
X39204785Y-7767959D01*
X39204548Y-7703803D01*
X39204111Y-7649364D01*
X39203411Y-7603648D01*
X39202387Y-7565661D01*
X39200976Y-7534407D01*
X39199118Y-7508894D01*
X39196750Y-7488126D01*
X39193812Y-7471110D01*
X39190241Y-7456851D01*
X39185976Y-7444354D01*
X39180955Y-7432626D01*
X39175118Y-7420673D01*
X39173137Y-7416774D01*
X39148193Y-7380703D01*
X39113722Y-7349545D01*
X39078449Y-7328665D01*
X39060411Y-7320917D01*
X39043739Y-7316004D01*
X39024617Y-7313303D01*
X38999231Y-7312195D01*
X38976300Y-7312035D01*
X38944401Y-7312414D01*
X38921383Y-7313965D01*
X38903441Y-7317303D01*
X38886768Y-7323046D01*
X38874410Y-7328547D01*
X38831363Y-7353671D01*
X38798502Y-7384437D01*
X38777731Y-7415250D01*
X38770747Y-7428262D01*
X38764719Y-7440459D01*
X38759578Y-7452841D01*
X38755252Y-7466410D01*
X38751671Y-7482168D01*
X38748764Y-7501114D01*
X38746462Y-7524250D01*
X38744694Y-7552577D01*
X38743389Y-7587096D01*
X38742477Y-7628809D01*
X38741888Y-7678715D01*
X38741551Y-7737817D01*
X38741396Y-7807114D01*
X38741352Y-7887609D01*
X38741350Y-7932484D01*
X38741350Y-8343900D01*
X38347650Y-8343900D01*
X38347650Y-6978650D01*
X38741350Y-6978650D01*
X38741338Y-7065962D01*
X38741327Y-7153275D01*
X38803504Y-7092950D01*
X38843814Y-7055712D01*
X38880069Y-7026803D01*
X38915451Y-7004113D01*
X38953140Y-6985532D01*
X38983700Y-6973438D01*
X39001694Y-6967147D01*
X39017612Y-6962629D01*
X39034101Y-6959593D01*
X39053810Y-6957747D01*
X39079385Y-6956799D01*
X39113474Y-6956459D01*
X39138225Y-6956425D01*
X39179686Y-6956610D01*
X39179686Y-6956610D01*
G37*
X39179686Y-6956610D02*
X39211203Y-6957343D01*
X39235530Y-6958886D01*
X39255417Y-6961502D01*
X39273619Y-6965454D01*
X39292889Y-6971005D01*
X39293800Y-6971289D01*
X39350833Y-6992594D01*
X39399453Y-7019016D01*
X39443642Y-7052898D01*
X39462656Y-7070725D01*
X39509736Y-7126078D01*
X39547205Y-7189613D01*
X39574932Y-7261063D01*
X39592033Y-7335442D01*
X39593327Y-7349984D01*
X39594498Y-7376657D01*
X39595541Y-7414894D01*
X39596447Y-7464124D01*
X39597210Y-7523781D01*
X39597822Y-7593296D01*
X39598276Y-7672099D01*
X39598565Y-7759624D01*
X39598681Y-7855302D01*
X39598682Y-7858125D01*
X39598792Y-8340725D01*
X39401846Y-8342402D01*
X39204900Y-8344080D01*
X39204900Y-7929399D01*
X39204881Y-7842826D01*
X39204785Y-7767959D01*
X39204548Y-7703803D01*
X39204111Y-7649364D01*
X39203411Y-7603648D01*
X39202387Y-7565661D01*
X39200976Y-7534407D01*
X39199118Y-7508894D01*
X39196750Y-7488126D01*
X39193812Y-7471110D01*
X39190241Y-7456851D01*
X39185976Y-7444354D01*
X39180955Y-7432626D01*
X39175118Y-7420673D01*
X39173137Y-7416774D01*
X39148193Y-7380703D01*
X39113722Y-7349545D01*
X39078449Y-7328665D01*
X39060411Y-7320917D01*
X39043739Y-7316004D01*
X39024617Y-7313303D01*
X38999231Y-7312195D01*
X38976300Y-7312035D01*
X38944401Y-7312414D01*
X38921383Y-7313965D01*
X38903441Y-7317303D01*
X38886768Y-7323046D01*
X38874410Y-7328547D01*
X38831363Y-7353671D01*
X38798502Y-7384437D01*
X38777731Y-7415250D01*
X38770747Y-7428262D01*
X38764719Y-7440459D01*
X38759578Y-7452841D01*
X38755252Y-7466410D01*
X38751671Y-7482168D01*
X38748764Y-7501114D01*
X38746462Y-7524250D01*
X38744694Y-7552577D01*
X38743389Y-7587096D01*
X38742477Y-7628809D01*
X38741888Y-7678715D01*
X38741551Y-7737817D01*
X38741396Y-7807114D01*
X38741352Y-7887609D01*
X38741350Y-7932484D01*
X38741350Y-8343900D01*
X38347650Y-8343900D01*
X38347650Y-6978650D01*
X38741350Y-6978650D01*
X38741338Y-7065962D01*
X38741327Y-7153275D01*
X38803504Y-7092950D01*
X38843814Y-7055712D01*
X38880069Y-7026803D01*
X38915451Y-7004113D01*
X38953140Y-6985532D01*
X38983700Y-6973438D01*
X39001694Y-6967147D01*
X39017612Y-6962629D01*
X39034101Y-6959593D01*
X39053810Y-6957747D01*
X39079385Y-6956799D01*
X39113474Y-6956459D01*
X39138225Y-6956425D01*
X39179686Y-6956610D01*
G36*
X44886468Y-7015162D02*
X44882309Y-7025915D01*
X44873844Y-7047684D01*
X44861390Y-7079657D01*
X44845263Y-7121022D01*
X44825782Y-7170966D01*
X44803262Y-7228678D01*
X44778021Y-7293345D01*
X44750376Y-7364154D01*
X44720644Y-7440294D01*
X44689142Y-7520952D01*
X44656187Y-7605316D01*
X44622096Y-7692573D01*
X44618197Y-7702550D01*
X44363876Y-8353425D01*
X44184526Y-8355111D01*
X44131963Y-8355558D01*
X44090697Y-8355746D01*
X44059328Y-8355602D01*
X44036455Y-8355054D01*
X44020675Y-8354029D01*
X44010589Y-8352454D01*
X44004796Y-8350257D01*
X44001893Y-8347364D01*
X44001070Y-8345586D01*
X43998261Y-8338301D01*
X43991128Y-8319947D01*
X43979967Y-8291281D01*
X43965075Y-8253064D01*
X43946747Y-8206056D01*
X43925280Y-8151015D01*
X43900971Y-8088702D01*
X43874115Y-8019876D01*
X43845009Y-7945295D01*
X43813949Y-7865721D01*
X43781231Y-7781913D01*
X43747152Y-7694629D01*
X43734532Y-7662308D01*
X43700102Y-7574086D01*
X43666991Y-7489144D01*
X43635491Y-7408235D01*
X43605891Y-7332109D01*
X43578482Y-7261519D01*
X43553557Y-7197215D01*
X43531404Y-7139948D01*
X43512316Y-7090470D01*
X43496583Y-7049533D01*
X43484495Y-7017887D01*
X43476345Y-6996284D01*
X43472421Y-6985475D01*
X43472100Y-6984359D01*
X43478277Y-6982816D01*
X43496129Y-6981574D01*
X43524630Y-6980654D01*
X43562757Y-6980078D01*
X43609486Y-6979865D01*
X43663795Y-6980036D01*
X43679535Y-6980150D01*
X43886970Y-6981825D01*
X44035965Y-7428815D01*
X44063110Y-7509951D01*
X44088234Y-7584447D01*
X44111114Y-7651664D01*
X44131524Y-7710961D01*
X44149241Y-7761700D01*
X44164040Y-7803241D01*
X44175697Y-7834945D01*
X44183988Y-7856172D01*
X44188688Y-7866284D01*
X44189626Y-7866965D01*
X44192366Y-7859633D01*
X44198814Y-7841229D01*
X44208639Y-7812720D01*
X44221514Y-7775076D01*
X44237108Y-7729265D01*
X44255093Y-7676255D01*
X44275139Y-7617016D01*
X44296917Y-7552516D01*
X44320098Y-7483723D01*
X44342075Y-7418387D01*
X44489858Y-6978650D01*
X44900417Y-6978650D01*
X44886468Y-7015162D01*
X44886468Y-7015162D01*
G37*
X44886468Y-7015162D02*
X44882309Y-7025915D01*
X44873844Y-7047684D01*
X44861390Y-7079657D01*
X44845263Y-7121022D01*
X44825782Y-7170966D01*
X44803262Y-7228678D01*
X44778021Y-7293345D01*
X44750376Y-7364154D01*
X44720644Y-7440294D01*
X44689142Y-7520952D01*
X44656187Y-7605316D01*
X44622096Y-7692573D01*
X44618197Y-7702550D01*
X44363876Y-8353425D01*
X44184526Y-8355111D01*
X44131963Y-8355558D01*
X44090697Y-8355746D01*
X44059328Y-8355602D01*
X44036455Y-8355054D01*
X44020675Y-8354029D01*
X44010589Y-8352454D01*
X44004796Y-8350257D01*
X44001893Y-8347364D01*
X44001070Y-8345586D01*
X43998261Y-8338301D01*
X43991128Y-8319947D01*
X43979967Y-8291281D01*
X43965075Y-8253064D01*
X43946747Y-8206056D01*
X43925280Y-8151015D01*
X43900971Y-8088702D01*
X43874115Y-8019876D01*
X43845009Y-7945295D01*
X43813949Y-7865721D01*
X43781231Y-7781913D01*
X43747152Y-7694629D01*
X43734532Y-7662308D01*
X43700102Y-7574086D01*
X43666991Y-7489144D01*
X43635491Y-7408235D01*
X43605891Y-7332109D01*
X43578482Y-7261519D01*
X43553557Y-7197215D01*
X43531404Y-7139948D01*
X43512316Y-7090470D01*
X43496583Y-7049533D01*
X43484495Y-7017887D01*
X43476345Y-6996284D01*
X43472421Y-6985475D01*
X43472100Y-6984359D01*
X43478277Y-6982816D01*
X43496129Y-6981574D01*
X43524630Y-6980654D01*
X43562757Y-6980078D01*
X43609486Y-6979865D01*
X43663795Y-6980036D01*
X43679535Y-6980150D01*
X43886970Y-6981825D01*
X44035965Y-7428815D01*
X44063110Y-7509951D01*
X44088234Y-7584447D01*
X44111114Y-7651664D01*
X44131524Y-7710961D01*
X44149241Y-7761700D01*
X44164040Y-7803241D01*
X44175697Y-7834945D01*
X44183988Y-7856172D01*
X44188688Y-7866284D01*
X44189626Y-7866965D01*
X44192366Y-7859633D01*
X44198814Y-7841229D01*
X44208639Y-7812720D01*
X44221514Y-7775076D01*
X44237108Y-7729265D01*
X44255093Y-7676255D01*
X44275139Y-7617016D01*
X44296917Y-7552516D01*
X44320098Y-7483723D01*
X44342075Y-7418387D01*
X44489858Y-6978650D01*
X44900417Y-6978650D01*
X44886468Y-7015162D01*
G36*
X40377467Y-6957092D02*
X40465408Y-6966703D01*
X40556259Y-6985938D01*
X40649242Y-7014982D01*
X40652700Y-7016243D01*
X40679425Y-7026934D01*
X40709921Y-7040565D01*
X40741813Y-7055901D01*
X40772723Y-7071709D01*
X40800279Y-7086757D01*
X40822104Y-7099811D01*
X40835823Y-7109637D01*
X40838869Y-7112904D01*
X40838305Y-7120771D01*
X40831965Y-7137545D01*
X40819630Y-7163688D01*
X40801081Y-7199659D01*
X40776100Y-7245920D01*
X40772878Y-7251787D01*
X40752554Y-7288697D01*
X40734294Y-7321766D01*
X40718976Y-7349412D01*
X40707480Y-7370048D01*
X40700685Y-7382091D01*
X40699228Y-7384537D01*
X40693089Y-7382867D01*
X40677555Y-7376506D01*
X40654643Y-7366338D01*
X40626368Y-7353245D01*
X40609820Y-7345384D01*
X40574451Y-7328956D01*
X40538390Y-7313090D01*
X40505330Y-7299358D01*
X40478965Y-7289327D01*
X40473614Y-7287503D01*
X40416680Y-7271867D01*
X40363749Y-7263287D01*
X40315874Y-7261531D01*
X40274108Y-7266365D01*
X40239507Y-7277556D01*
X40213122Y-7294870D01*
X40196009Y-7318075D01*
X40189221Y-7346936D01*
X40189150Y-7350494D01*
X40192812Y-7375967D01*
X40204969Y-7396526D01*
X40224759Y-7413933D01*
X40256381Y-7433100D01*
X40299997Y-7454103D01*
X40355773Y-7477021D01*
X40423871Y-7501929D01*
X40443150Y-7508581D01*
X40519810Y-7535952D01*
X40585174Y-7561969D01*
X40640493Y-7587220D01*
X40687021Y-7612293D01*
X40726011Y-7637777D01*
X40738668Y-7647341D01*
X40787484Y-7691461D01*
X40824761Y-7738564D01*
X40851218Y-7790161D01*
X40867570Y-7847762D01*
X40874538Y-7912878D01*
X40874905Y-7934071D01*
X40869432Y-8010889D01*
X40853265Y-8080966D01*
X40826608Y-8144078D01*
X40789671Y-8199998D01*
X40742660Y-8248499D01*
X40685781Y-8289357D01*
X40619243Y-8322344D01*
X40543252Y-8347234D01*
X40485180Y-8359611D01*
X40455671Y-8363286D01*
X40417505Y-8366047D01*
X40374562Y-8367808D01*
X40330726Y-8368485D01*
X40289879Y-8367992D01*
X40255902Y-8366244D01*
X40243125Y-8364927D01*
X40167771Y-8351597D01*
X40088893Y-8331275D01*
X40011883Y-8305548D01*
X39943988Y-8276891D01*
X39919428Y-8264330D01*
X39890941Y-8248438D01*
X39860824Y-8230656D01*
X39831376Y-8212426D01*
X39804896Y-8195189D01*
X39783682Y-8180387D01*
X39770033Y-8169462D01*
X39766577Y-8165617D01*
X39768983Y-8159157D01*
X39777253Y-8143924D01*
X39790238Y-8121737D01*
X39806788Y-8094412D01*
X39825754Y-8063767D01*
X39845988Y-8031617D01*
X39866341Y-7999781D01*
X39885662Y-7970074D01*
X39902804Y-7944314D01*
X39916618Y-7924317D01*
X39925954Y-7911901D01*
X39928984Y-7908811D01*
X39935974Y-7910799D01*
X39951300Y-7918473D01*
X39972654Y-7930591D01*
X39996094Y-7944885D01*
X40071084Y-7987292D01*
X40147954Y-8021891D01*
X40222852Y-8046947D01*
X40223026Y-8046994D01*
X40251034Y-8053653D01*
X40278845Y-8057947D01*
X40310529Y-8060306D01*
X40350158Y-8061160D01*
X40357425Y-8061185D01*
X40392346Y-8061029D01*
X40417390Y-8060177D01*
X40435378Y-8058259D01*
X40449128Y-8054905D01*
X40461460Y-8049745D01*
X40467211Y-8046781D01*
X40495529Y-8025525D01*
X40513115Y-7998177D01*
X40519322Y-7965752D01*
X40519326Y-7964974D01*
X40515933Y-7942192D01*
X40505049Y-7921802D01*
X40485678Y-7903074D01*
X40456824Y-7885282D01*
X40417494Y-7867699D01*
X40366692Y-7849596D01*
X40357425Y-7846601D01*
X40296516Y-7827105D01*
X40246346Y-7810952D01*
X40205539Y-7797669D01*
X40172721Y-7786784D01*
X40146518Y-7777826D01*
X40125553Y-7770321D01*
X40108452Y-7763799D01*
X40093840Y-7757786D01*
X40080342Y-7751811D01*
X40077250Y-7750392D01*
X40008122Y-7712604D01*
X39949670Y-7667952D01*
X39921214Y-7639522D01*
X39885994Y-7594695D01*
X39860494Y-7547832D01*
X39843877Y-7496560D01*
X39835305Y-7438507D01*
X39833643Y-7391653D01*
X39836714Y-7329015D01*
X39846181Y-7274456D01*
X39862712Y-7224719D01*
X39872092Y-7204138D01*
X39908735Y-7143511D01*
X39954514Y-7091009D01*
X40008651Y-7046818D01*
X40070368Y-7011126D01*
X40138886Y-6984120D01*
X40213427Y-6965987D01*
X40293214Y-6956915D01*
X40377467Y-6957092D01*
X40377467Y-6957092D01*
G37*
X40377467Y-6957092D02*
X40465408Y-6966703D01*
X40556259Y-6985938D01*
X40649242Y-7014982D01*
X40652700Y-7016243D01*
X40679425Y-7026934D01*
X40709921Y-7040565D01*
X40741813Y-7055901D01*
X40772723Y-7071709D01*
X40800279Y-7086757D01*
X40822104Y-7099811D01*
X40835823Y-7109637D01*
X40838869Y-7112904D01*
X40838305Y-7120771D01*
X40831965Y-7137545D01*
X40819630Y-7163688D01*
X40801081Y-7199659D01*
X40776100Y-7245920D01*
X40772878Y-7251787D01*
X40752554Y-7288697D01*
X40734294Y-7321766D01*
X40718976Y-7349412D01*
X40707480Y-7370048D01*
X40700685Y-7382091D01*
X40699228Y-7384537D01*
X40693089Y-7382867D01*
X40677555Y-7376506D01*
X40654643Y-7366338D01*
X40626368Y-7353245D01*
X40609820Y-7345384D01*
X40574451Y-7328956D01*
X40538390Y-7313090D01*
X40505330Y-7299358D01*
X40478965Y-7289327D01*
X40473614Y-7287503D01*
X40416680Y-7271867D01*
X40363749Y-7263287D01*
X40315874Y-7261531D01*
X40274108Y-7266365D01*
X40239507Y-7277556D01*
X40213122Y-7294870D01*
X40196009Y-7318075D01*
X40189221Y-7346936D01*
X40189150Y-7350494D01*
X40192812Y-7375967D01*
X40204969Y-7396526D01*
X40224759Y-7413933D01*
X40256381Y-7433100D01*
X40299997Y-7454103D01*
X40355773Y-7477021D01*
X40423871Y-7501929D01*
X40443150Y-7508581D01*
X40519810Y-7535952D01*
X40585174Y-7561969D01*
X40640493Y-7587220D01*
X40687021Y-7612293D01*
X40726011Y-7637777D01*
X40738668Y-7647341D01*
X40787484Y-7691461D01*
X40824761Y-7738564D01*
X40851218Y-7790161D01*
X40867570Y-7847762D01*
X40874538Y-7912878D01*
X40874905Y-7934071D01*
X40869432Y-8010889D01*
X40853265Y-8080966D01*
X40826608Y-8144078D01*
X40789671Y-8199998D01*
X40742660Y-8248499D01*
X40685781Y-8289357D01*
X40619243Y-8322344D01*
X40543252Y-8347234D01*
X40485180Y-8359611D01*
X40455671Y-8363286D01*
X40417505Y-8366047D01*
X40374562Y-8367808D01*
X40330726Y-8368485D01*
X40289879Y-8367992D01*
X40255902Y-8366244D01*
X40243125Y-8364927D01*
X40167771Y-8351597D01*
X40088893Y-8331275D01*
X40011883Y-8305548D01*
X39943988Y-8276891D01*
X39919428Y-8264330D01*
X39890941Y-8248438D01*
X39860824Y-8230656D01*
X39831376Y-8212426D01*
X39804896Y-8195189D01*
X39783682Y-8180387D01*
X39770033Y-8169462D01*
X39766577Y-8165617D01*
X39768983Y-8159157D01*
X39777253Y-8143924D01*
X39790238Y-8121737D01*
X39806788Y-8094412D01*
X39825754Y-8063767D01*
X39845988Y-8031617D01*
X39866341Y-7999781D01*
X39885662Y-7970074D01*
X39902804Y-7944314D01*
X39916618Y-7924317D01*
X39925954Y-7911901D01*
X39928984Y-7908811D01*
X39935974Y-7910799D01*
X39951300Y-7918473D01*
X39972654Y-7930591D01*
X39996094Y-7944885D01*
X40071084Y-7987292D01*
X40147954Y-8021891D01*
X40222852Y-8046947D01*
X40223026Y-8046994D01*
X40251034Y-8053653D01*
X40278845Y-8057947D01*
X40310529Y-8060306D01*
X40350158Y-8061160D01*
X40357425Y-8061185D01*
X40392346Y-8061029D01*
X40417390Y-8060177D01*
X40435378Y-8058259D01*
X40449128Y-8054905D01*
X40461460Y-8049745D01*
X40467211Y-8046781D01*
X40495529Y-8025525D01*
X40513115Y-7998177D01*
X40519322Y-7965752D01*
X40519326Y-7964974D01*
X40515933Y-7942192D01*
X40505049Y-7921802D01*
X40485678Y-7903074D01*
X40456824Y-7885282D01*
X40417494Y-7867699D01*
X40366692Y-7849596D01*
X40357425Y-7846601D01*
X40296516Y-7827105D01*
X40246346Y-7810952D01*
X40205539Y-7797669D01*
X40172721Y-7786784D01*
X40146518Y-7777826D01*
X40125553Y-7770321D01*
X40108452Y-7763799D01*
X40093840Y-7757786D01*
X40080342Y-7751811D01*
X40077250Y-7750392D01*
X40008122Y-7712604D01*
X39949670Y-7667952D01*
X39921214Y-7639522D01*
X39885994Y-7594695D01*
X39860494Y-7547832D01*
X39843877Y-7496560D01*
X39835305Y-7438507D01*
X39833643Y-7391653D01*
X39836714Y-7329015D01*
X39846181Y-7274456D01*
X39862712Y-7224719D01*
X39872092Y-7204138D01*
X39908735Y-7143511D01*
X39954514Y-7091009D01*
X40008651Y-7046818D01*
X40070368Y-7011126D01*
X40138886Y-6984120D01*
X40213427Y-6965987D01*
X40293214Y-6956915D01*
X40377467Y-6957092D01*
G36*
X41725101Y-6955252D02*
X41776496Y-6958979D01*
X41822214Y-6964716D01*
X41856025Y-6971642D01*
X41939320Y-7000026D01*
X42015787Y-7038925D01*
X42085062Y-7087928D01*
X42146786Y-7146622D01*
X42200596Y-7214592D01*
X42246131Y-7291426D01*
X42283031Y-7376711D01*
X42310932Y-7470034D01*
X42317409Y-7499124D01*
X42321378Y-7523438D01*
X42325057Y-7555249D01*
X42328327Y-7592137D01*
X42331066Y-7631679D01*
X42333154Y-7671453D01*
X42334469Y-7709038D01*
X42334892Y-7742011D01*
X42334300Y-7767951D01*
X42332574Y-7784435D01*
X42331783Y-7787265D01*
X42330267Y-7789251D01*
X42326786Y-7790973D01*
X42320491Y-7792448D01*
X42310537Y-7793696D01*
X42296075Y-7794735D01*
X42276259Y-7795585D01*
X42250242Y-7796264D01*
X42217175Y-7796790D01*
X42176214Y-7797183D01*
X42126509Y-7797461D01*
X42067214Y-7797642D01*
X41997482Y-7797747D01*
X41916466Y-7797792D01*
X41855345Y-7797800D01*
X41779145Y-7797820D01*
X41706754Y-7797880D01*
X41639157Y-7797977D01*
X41577342Y-7798106D01*
X41522292Y-7798264D01*
X41474993Y-7798448D01*
X41436431Y-7798656D01*
X41407592Y-7798883D01*
X41389460Y-7799126D01*
X41383021Y-7799381D01*
X41383018Y-7799387D01*
X41385876Y-7812277D01*
X41392798Y-7832826D01*
X41402322Y-7857260D01*
X41412984Y-7881802D01*
X41422384Y-7900942D01*
X41455642Y-7950469D01*
X41497502Y-7990957D01*
X41547354Y-8022107D01*
X41604586Y-8043623D01*
X41668589Y-8055207D01*
X41738753Y-8056561D01*
X41741456Y-8056412D01*
X41810771Y-8046985D01*
X41876492Y-8026627D01*
X41940001Y-7994769D01*
X42002682Y-7950843D01*
X42007565Y-7946901D01*
X42043360Y-7917743D01*
X42154028Y-8014934D01*
X42185506Y-8042843D01*
X42213541Y-8068206D01*
X42236786Y-8089764D01*
X42253896Y-8106255D01*
X42263523Y-8116421D01*
X42265148Y-8118913D01*
X42260853Y-8126728D01*
X42248695Y-8140884D01*
X42230572Y-8159597D01*
X42208380Y-8181083D01*
X42184018Y-8203557D01*
X42159382Y-8225235D01*
X42136371Y-8244333D01*
X42116881Y-8259067D01*
X42113954Y-8261077D01*
X42037564Y-8304963D01*
X41953973Y-8338851D01*
X41864332Y-8362311D01*
X41824275Y-8369078D01*
X41786849Y-8372681D01*
X41741204Y-8374465D01*
X41691680Y-8374487D01*
X41642619Y-8372804D01*
X41598362Y-8369472D01*
X41569875Y-8365750D01*
X41476825Y-8344312D01*
X41390710Y-8312336D01*
X41311009Y-8269564D01*
X41237201Y-8215738D01*
X41200946Y-8183264D01*
X41138746Y-8115145D01*
X41087068Y-8039988D01*
X41046075Y-7958101D01*
X41015928Y-7869791D01*
X41001335Y-7804150D01*
X40996610Y-7766235D01*
X40993860Y-7719880D01*
X40993049Y-7669028D01*
X40994143Y-7617623D01*
X40997106Y-7569606D01*
X40999400Y-7550150D01*
X41377788Y-7550150D01*
X41662944Y-7550150D01*
X41730641Y-7550125D01*
X41786724Y-7550023D01*
X41832280Y-7549800D01*
X41868392Y-7549416D01*
X41896149Y-7548827D01*
X41916635Y-7547991D01*
X41930936Y-7546866D01*
X41940138Y-7545409D01*
X41945328Y-7543578D01*
X41947591Y-7541332D01*
X41948024Y-7539037D01*
X41945494Y-7520514D01*
X41938926Y-7494626D01*
X41929579Y-7465551D01*
X41918711Y-7437467D01*
X41914702Y-7428475D01*
X41884795Y-7376305D01*
X41848390Y-7334790D01*
X41804809Y-7303296D01*
X41758639Y-7282911D01*
X41736384Y-7276307D01*
X41715184Y-7272526D01*
X41690669Y-7271103D01*
X41658467Y-7271576D01*
X41653497Y-7271752D01*
X41621913Y-7273344D01*
X41598804Y-7275966D01*
X41579942Y-7280525D01*
X41561104Y-7287928D01*
X41547114Y-7294573D01*
X41500737Y-7324368D01*
X41460165Y-7364799D01*
X41426075Y-7414885D01*
X41399143Y-7473642D01*
X41380966Y-7535862D01*
X41377788Y-7550150D01*
X40999400Y-7550150D01*
X41001904Y-7528922D01*
X41003879Y-7517802D01*
X41028339Y-7423747D01*
X41062837Y-7336363D01*
X41106796Y-7256252D01*
X41159640Y-7184016D01*
X41220795Y-7120258D01*
X41289684Y-7065580D01*
X41365733Y-7020583D01*
X41448366Y-6985869D01*
X41534750Y-6962493D01*
X41572856Y-6957156D01*
X41619682Y-6954238D01*
X41671630Y-6953637D01*
X41725101Y-6955252D01*
X41725101Y-6955252D01*
G37*
X41725101Y-6955252D02*
X41776496Y-6958979D01*
X41822214Y-6964716D01*
X41856025Y-6971642D01*
X41939320Y-7000026D01*
X42015787Y-7038925D01*
X42085062Y-7087928D01*
X42146786Y-7146622D01*
X42200596Y-7214592D01*
X42246131Y-7291426D01*
X42283031Y-7376711D01*
X42310932Y-7470034D01*
X42317409Y-7499124D01*
X42321378Y-7523438D01*
X42325057Y-7555249D01*
X42328327Y-7592137D01*
X42331066Y-7631679D01*
X42333154Y-7671453D01*
X42334469Y-7709038D01*
X42334892Y-7742011D01*
X42334300Y-7767951D01*
X42332574Y-7784435D01*
X42331783Y-7787265D01*
X42330267Y-7789251D01*
X42326786Y-7790973D01*
X42320491Y-7792448D01*
X42310537Y-7793696D01*
X42296075Y-7794735D01*
X42276259Y-7795585D01*
X42250242Y-7796264D01*
X42217175Y-7796790D01*
X42176214Y-7797183D01*
X42126509Y-7797461D01*
X42067214Y-7797642D01*
X41997482Y-7797747D01*
X41916466Y-7797792D01*
X41855345Y-7797800D01*
X41779145Y-7797820D01*
X41706754Y-7797880D01*
X41639157Y-7797977D01*
X41577342Y-7798106D01*
X41522292Y-7798264D01*
X41474993Y-7798448D01*
X41436431Y-7798656D01*
X41407592Y-7798883D01*
X41389460Y-7799126D01*
X41383021Y-7799381D01*
X41383018Y-7799387D01*
X41385876Y-7812277D01*
X41392798Y-7832826D01*
X41402322Y-7857260D01*
X41412984Y-7881802D01*
X41422384Y-7900942D01*
X41455642Y-7950469D01*
X41497502Y-7990957D01*
X41547354Y-8022107D01*
X41604586Y-8043623D01*
X41668589Y-8055207D01*
X41738753Y-8056561D01*
X41741456Y-8056412D01*
X41810771Y-8046985D01*
X41876492Y-8026627D01*
X41940001Y-7994769D01*
X42002682Y-7950843D01*
X42007565Y-7946901D01*
X42043360Y-7917743D01*
X42154028Y-8014934D01*
X42185506Y-8042843D01*
X42213541Y-8068206D01*
X42236786Y-8089764D01*
X42253896Y-8106255D01*
X42263523Y-8116421D01*
X42265148Y-8118913D01*
X42260853Y-8126728D01*
X42248695Y-8140884D01*
X42230572Y-8159597D01*
X42208380Y-8181083D01*
X42184018Y-8203557D01*
X42159382Y-8225235D01*
X42136371Y-8244333D01*
X42116881Y-8259067D01*
X42113954Y-8261077D01*
X42037564Y-8304963D01*
X41953973Y-8338851D01*
X41864332Y-8362311D01*
X41824275Y-8369078D01*
X41786849Y-8372681D01*
X41741204Y-8374465D01*
X41691680Y-8374487D01*
X41642619Y-8372804D01*
X41598362Y-8369472D01*
X41569875Y-8365750D01*
X41476825Y-8344312D01*
X41390710Y-8312336D01*
X41311009Y-8269564D01*
X41237201Y-8215738D01*
X41200946Y-8183264D01*
X41138746Y-8115145D01*
X41087068Y-8039988D01*
X41046075Y-7958101D01*
X41015928Y-7869791D01*
X41001335Y-7804150D01*
X40996610Y-7766235D01*
X40993860Y-7719880D01*
X40993049Y-7669028D01*
X40994143Y-7617623D01*
X40997106Y-7569606D01*
X40999400Y-7550150D01*
X41377788Y-7550150D01*
X41662944Y-7550150D01*
X41730641Y-7550125D01*
X41786724Y-7550023D01*
X41832280Y-7549800D01*
X41868392Y-7549416D01*
X41896149Y-7548827D01*
X41916635Y-7547991D01*
X41930936Y-7546866D01*
X41940138Y-7545409D01*
X41945328Y-7543578D01*
X41947591Y-7541332D01*
X41948024Y-7539037D01*
X41945494Y-7520514D01*
X41938926Y-7494626D01*
X41929579Y-7465551D01*
X41918711Y-7437467D01*
X41914702Y-7428475D01*
X41884795Y-7376305D01*
X41848390Y-7334790D01*
X41804809Y-7303296D01*
X41758639Y-7282911D01*
X41736384Y-7276307D01*
X41715184Y-7272526D01*
X41690669Y-7271103D01*
X41658467Y-7271576D01*
X41653497Y-7271752D01*
X41621913Y-7273344D01*
X41598804Y-7275966D01*
X41579942Y-7280525D01*
X41561104Y-7287928D01*
X41547114Y-7294573D01*
X41500737Y-7324368D01*
X41460165Y-7364799D01*
X41426075Y-7414885D01*
X41399143Y-7473642D01*
X41380966Y-7535862D01*
X41377788Y-7550150D01*
X40999400Y-7550150D01*
X41001904Y-7528922D01*
X41003879Y-7517802D01*
X41028339Y-7423747D01*
X41062837Y-7336363D01*
X41106796Y-7256252D01*
X41159640Y-7184016D01*
X41220795Y-7120258D01*
X41289684Y-7065580D01*
X41365733Y-7020583D01*
X41448366Y-6985869D01*
X41534750Y-6962493D01*
X41572856Y-6957156D01*
X41619682Y-6954238D01*
X41671630Y-6953637D01*
X41725101Y-6955252D01*
G36*
X37480477Y-6953850D02*
X37530190Y-6957825D01*
X37564642Y-6962823D01*
X37660182Y-6986597D01*
X37749457Y-7020652D01*
X37831809Y-7064437D01*
X37906581Y-7117399D01*
X37973112Y-7178986D01*
X38030746Y-7248646D01*
X38078823Y-7325826D01*
X38116686Y-7409974D01*
X38124692Y-7432675D01*
X38147079Y-7518417D01*
X38158626Y-7607306D01*
X38159474Y-7697303D01*
X38149763Y-7786368D01*
X38129633Y-7872463D01*
X38099223Y-7953549D01*
X38087219Y-7978350D01*
X38037740Y-8061382D01*
X37979251Y-8135552D01*
X37912086Y-8200596D01*
X37836580Y-8256251D01*
X37753069Y-8302253D01*
X37661889Y-8338338D01*
X37609992Y-8353502D01*
X37581391Y-8360393D01*
X37555114Y-8365340D01*
X37527697Y-8368735D01*
X37495679Y-8370971D01*
X37455597Y-8372441D01*
X37439600Y-8372834D01*
X37381611Y-8373299D01*
X37334400Y-8371756D01*
X37296189Y-8368128D01*
X37283114Y-8366091D01*
X37187771Y-8343346D01*
X37098643Y-8310150D01*
X37016352Y-8267152D01*
X36941518Y-8215004D01*
X36874761Y-8154358D01*
X36816704Y-8085863D01*
X36767965Y-8010171D01*
X36729166Y-7927934D01*
X36700927Y-7839800D01*
X36683870Y-7746423D01*
X36682766Y-7736472D01*
X36680346Y-7670164D01*
X37069230Y-7670164D01*
X37076117Y-7735930D01*
X37093072Y-7798923D01*
X37119877Y-7857333D01*
X37156313Y-7909345D01*
X37164794Y-7918882D01*
X37202986Y-7956168D01*
X37241183Y-7984489D01*
X37283614Y-8006853D01*
X37295633Y-8011970D01*
X37341645Y-8025597D01*
X37394218Y-8032683D01*
X37449000Y-8033177D01*
X37501636Y-8027030D01*
X37546006Y-8014870D01*
X37605592Y-7986055D01*
X37656604Y-7948369D01*
X37698393Y-7902385D01*
X37727878Y-7853775D01*
X37748572Y-7805687D01*
X37761675Y-7759900D01*
X37768337Y-7711317D01*
X37769800Y-7667625D01*
X37764701Y-7595450D01*
X37749247Y-7530341D01*
X37723201Y-7471689D01*
X37686326Y-7418886D01*
X37663519Y-7394254D01*
X37611853Y-7351545D01*
X37555134Y-7320069D01*
X37494547Y-7299993D01*
X37431274Y-7291486D01*
X37366499Y-7294717D01*
X37301405Y-7309853D01*
X37242444Y-7334342D01*
X37215298Y-7352152D01*
X37185635Y-7378157D01*
X37156483Y-7409125D01*
X37130871Y-7441827D01*
X37111828Y-7473031D01*
X37111169Y-7474360D01*
X37086537Y-7537566D01*
X37072631Y-7603439D01*
X37069230Y-7670164D01*
X36680346Y-7670164D01*
X36679465Y-7646043D01*
X36687927Y-7555320D01*
X36707669Y-7466247D01*
X36738209Y-7380770D01*
X36779064Y-7300832D01*
X36798445Y-7270461D01*
X36824962Y-7235358D01*
X36858566Y-7196727D01*
X36895821Y-7158149D01*
X36933291Y-7123208D01*
X36963025Y-7098832D01*
X37026689Y-7056984D01*
X37099007Y-7020070D01*
X37176392Y-6989636D01*
X37255257Y-6967228D01*
X37280576Y-6961938D01*
X37322330Y-6956292D01*
X37372358Y-6953071D01*
X37426470Y-6952261D01*
X37480477Y-6953850D01*
X37480477Y-6953850D01*
G37*
X37480477Y-6953850D02*
X37530190Y-6957825D01*
X37564642Y-6962823D01*
X37660182Y-6986597D01*
X37749457Y-7020652D01*
X37831809Y-7064437D01*
X37906581Y-7117399D01*
X37973112Y-7178986D01*
X38030746Y-7248646D01*
X38078823Y-7325826D01*
X38116686Y-7409974D01*
X38124692Y-7432675D01*
X38147079Y-7518417D01*
X38158626Y-7607306D01*
X38159474Y-7697303D01*
X38149763Y-7786368D01*
X38129633Y-7872463D01*
X38099223Y-7953549D01*
X38087219Y-7978350D01*
X38037740Y-8061382D01*
X37979251Y-8135552D01*
X37912086Y-8200596D01*
X37836580Y-8256251D01*
X37753069Y-8302253D01*
X37661889Y-8338338D01*
X37609992Y-8353502D01*
X37581391Y-8360393D01*
X37555114Y-8365340D01*
X37527697Y-8368735D01*
X37495679Y-8370971D01*
X37455597Y-8372441D01*
X37439600Y-8372834D01*
X37381611Y-8373299D01*
X37334400Y-8371756D01*
X37296189Y-8368128D01*
X37283114Y-8366091D01*
X37187771Y-8343346D01*
X37098643Y-8310150D01*
X37016352Y-8267152D01*
X36941518Y-8215004D01*
X36874761Y-8154358D01*
X36816704Y-8085863D01*
X36767965Y-8010171D01*
X36729166Y-7927934D01*
X36700927Y-7839800D01*
X36683870Y-7746423D01*
X36682766Y-7736472D01*
X36680346Y-7670164D01*
X37069230Y-7670164D01*
X37076117Y-7735930D01*
X37093072Y-7798923D01*
X37119877Y-7857333D01*
X37156313Y-7909345D01*
X37164794Y-7918882D01*
X37202986Y-7956168D01*
X37241183Y-7984489D01*
X37283614Y-8006853D01*
X37295633Y-8011970D01*
X37341645Y-8025597D01*
X37394218Y-8032683D01*
X37449000Y-8033177D01*
X37501636Y-8027030D01*
X37546006Y-8014870D01*
X37605592Y-7986055D01*
X37656604Y-7948369D01*
X37698393Y-7902385D01*
X37727878Y-7853775D01*
X37748572Y-7805687D01*
X37761675Y-7759900D01*
X37768337Y-7711317D01*
X37769800Y-7667625D01*
X37764701Y-7595450D01*
X37749247Y-7530341D01*
X37723201Y-7471689D01*
X37686326Y-7418886D01*
X37663519Y-7394254D01*
X37611853Y-7351545D01*
X37555134Y-7320069D01*
X37494547Y-7299993D01*
X37431274Y-7291486D01*
X37366499Y-7294717D01*
X37301405Y-7309853D01*
X37242444Y-7334342D01*
X37215298Y-7352152D01*
X37185635Y-7378157D01*
X37156483Y-7409125D01*
X37130871Y-7441827D01*
X37111828Y-7473031D01*
X37111169Y-7474360D01*
X37086537Y-7537566D01*
X37072631Y-7603439D01*
X37069230Y-7670164D01*
X36680346Y-7670164D01*
X36679465Y-7646043D01*
X36687927Y-7555320D01*
X36707669Y-7466247D01*
X36738209Y-7380770D01*
X36779064Y-7300832D01*
X36798445Y-7270461D01*
X36824962Y-7235358D01*
X36858566Y-7196727D01*
X36895821Y-7158149D01*
X36933291Y-7123208D01*
X36963025Y-7098832D01*
X37026689Y-7056984D01*
X37099007Y-7020070D01*
X37176392Y-6989636D01*
X37255257Y-6967228D01*
X37280576Y-6961938D01*
X37322330Y-6956292D01*
X37372358Y-6953071D01*
X37426470Y-6952261D01*
X37480477Y-6953850D01*
G36*
X36173310Y-6956966D02*
X36260412Y-6969643D01*
X36340155Y-6991147D01*
X36413861Y-7021981D01*
X36482855Y-7062648D01*
X36548459Y-7113650D01*
X36581362Y-7144119D01*
X36621650Y-7183471D01*
X36584172Y-7222348D01*
X36567521Y-7239773D01*
X36544432Y-7264147D01*
X36517117Y-7293123D01*
X36487790Y-7324355D01*
X36462315Y-7351584D01*
X36377937Y-7441944D01*
X36334427Y-7402507D01*
X36285542Y-7361942D01*
X36239045Y-7331796D01*
X36192296Y-7310827D01*
X36142656Y-7297792D01*
X36100430Y-7292348D01*
X36036126Y-7292891D01*
X35976208Y-7305349D01*
X35920794Y-7329679D01*
X35870000Y-7365834D01*
X35843944Y-7390882D01*
X35802631Y-7442846D01*
X35772294Y-7499858D01*
X35752616Y-7562770D01*
X35743282Y-7632431D01*
X35742370Y-7664450D01*
X35747905Y-7736274D01*
X35764293Y-7803045D01*
X35791167Y-7863820D01*
X35828162Y-7917655D01*
X35849594Y-7940939D01*
X35895303Y-7979414D01*
X35944467Y-8007098D01*
X35998822Y-8024658D01*
X36060104Y-8032761D01*
X36090430Y-8033500D01*
X36151254Y-8028331D01*
X36209280Y-8012919D01*
X36266146Y-7986616D01*
X36323490Y-7948770D01*
X36343518Y-7933051D01*
X36362893Y-7917411D01*
X36379302Y-7904438D01*
X36389516Y-7896680D01*
X36390166Y-7896225D01*
X36394921Y-7896068D01*
X36403203Y-7900658D01*
X36415919Y-7910809D01*
X36433975Y-7927336D01*
X36458276Y-7951053D01*
X36489728Y-7982774D01*
X36513335Y-8006939D01*
X36627247Y-8124004D01*
X36590511Y-8161319D01*
X36538061Y-8209521D01*
X36480080Y-8253924D01*
X36419598Y-8292548D01*
X36359649Y-8323414D01*
X36315989Y-8340572D01*
X36262476Y-8354841D01*
X36200552Y-8365565D01*
X36134075Y-8372481D01*
X36066902Y-8375327D01*
X36002892Y-8373839D01*
X35945901Y-8367754D01*
X35937825Y-8366361D01*
X35846781Y-8343740D01*
X35760255Y-8310412D01*
X35679509Y-8267132D01*
X35605803Y-8214656D01*
X35540397Y-8153741D01*
X35496759Y-8101925D01*
X35446011Y-8024519D01*
X35406346Y-7942579D01*
X35377642Y-7857244D01*
X35359775Y-7769653D01*
X35352620Y-7680946D01*
X35356055Y-7592264D01*
X35369956Y-7504745D01*
X35394198Y-7419530D01*
X35428659Y-7337757D01*
X35473214Y-7260568D01*
X35527740Y-7189101D01*
X35592112Y-7124497D01*
X35603961Y-7114333D01*
X35677753Y-7060021D01*
X35756280Y-7017000D01*
X35840097Y-6985081D01*
X35929759Y-6964073D01*
X36025819Y-6953789D01*
X36077525Y-6952612D01*
X36173310Y-6956966D01*
X36173310Y-6956966D01*
G37*
X36173310Y-6956966D02*
X36260412Y-6969643D01*
X36340155Y-6991147D01*
X36413861Y-7021981D01*
X36482855Y-7062648D01*
X36548459Y-7113650D01*
X36581362Y-7144119D01*
X36621650Y-7183471D01*
X36584172Y-7222348D01*
X36567521Y-7239773D01*
X36544432Y-7264147D01*
X36517117Y-7293123D01*
X36487790Y-7324355D01*
X36462315Y-7351584D01*
X36377937Y-7441944D01*
X36334427Y-7402507D01*
X36285542Y-7361942D01*
X36239045Y-7331796D01*
X36192296Y-7310827D01*
X36142656Y-7297792D01*
X36100430Y-7292348D01*
X36036126Y-7292891D01*
X35976208Y-7305349D01*
X35920794Y-7329679D01*
X35870000Y-7365834D01*
X35843944Y-7390882D01*
X35802631Y-7442846D01*
X35772294Y-7499858D01*
X35752616Y-7562770D01*
X35743282Y-7632431D01*
X35742370Y-7664450D01*
X35747905Y-7736274D01*
X35764293Y-7803045D01*
X35791167Y-7863820D01*
X35828162Y-7917655D01*
X35849594Y-7940939D01*
X35895303Y-7979414D01*
X35944467Y-8007098D01*
X35998822Y-8024658D01*
X36060104Y-8032761D01*
X36090430Y-8033500D01*
X36151254Y-8028331D01*
X36209280Y-8012919D01*
X36266146Y-7986616D01*
X36323490Y-7948770D01*
X36343518Y-7933051D01*
X36362893Y-7917411D01*
X36379302Y-7904438D01*
X36389516Y-7896680D01*
X36390166Y-7896225D01*
X36394921Y-7896068D01*
X36403203Y-7900658D01*
X36415919Y-7910809D01*
X36433975Y-7927336D01*
X36458276Y-7951053D01*
X36489728Y-7982774D01*
X36513335Y-8006939D01*
X36627247Y-8124004D01*
X36590511Y-8161319D01*
X36538061Y-8209521D01*
X36480080Y-8253924D01*
X36419598Y-8292548D01*
X36359649Y-8323414D01*
X36315989Y-8340572D01*
X36262476Y-8354841D01*
X36200552Y-8365565D01*
X36134075Y-8372481D01*
X36066902Y-8375327D01*
X36002892Y-8373839D01*
X35945901Y-8367754D01*
X35937825Y-8366361D01*
X35846781Y-8343740D01*
X35760255Y-8310412D01*
X35679509Y-8267132D01*
X35605803Y-8214656D01*
X35540397Y-8153741D01*
X35496759Y-8101925D01*
X35446011Y-8024519D01*
X35406346Y-7942579D01*
X35377642Y-7857244D01*
X35359775Y-7769653D01*
X35352620Y-7680946D01*
X35356055Y-7592264D01*
X35369956Y-7504745D01*
X35394198Y-7419530D01*
X35428659Y-7337757D01*
X35473214Y-7260568D01*
X35527740Y-7189101D01*
X35592112Y-7124497D01*
X35603961Y-7114333D01*
X35677753Y-7060021D01*
X35756280Y-7017000D01*
X35840097Y-6985081D01*
X35929759Y-6964073D01*
X36025819Y-6953789D01*
X36077525Y-6952612D01*
X36173310Y-6956966D01*
G36*
X47875993Y-6978724D02*
X47921248Y-6978935D01*
X47960688Y-6979265D01*
X47992817Y-6979696D01*
X48016139Y-6980208D01*
X48029157Y-6980784D01*
X48031400Y-6981153D01*
X48029183Y-6988383D01*
X48022752Y-7006605D01*
X48012436Y-7034956D01*
X47998563Y-7072568D01*
X47981463Y-7118576D01*
X47961463Y-7172113D01*
X47938894Y-7232313D01*
X47914083Y-7298311D01*
X47887359Y-7369241D01*
X47859051Y-7444236D01*
X47829489Y-7522430D01*
X47799000Y-7602958D01*
X47767914Y-7684953D01*
X47736559Y-7767549D01*
X47705264Y-7849880D01*
X47674358Y-7931081D01*
X47644170Y-8010285D01*
X47615028Y-8086626D01*
X47587262Y-8159238D01*
X47561199Y-8227255D01*
X47537170Y-8289811D01*
X47515502Y-8346040D01*
X47496524Y-8395076D01*
X47480566Y-8436054D01*
X47467955Y-8468106D01*
X47459022Y-8490367D01*
X47454094Y-8501971D01*
X47453765Y-8502650D01*
X47413808Y-8572892D01*
X47370309Y-8631173D01*
X47322895Y-8677825D01*
X47271195Y-8713185D01*
X47214837Y-8737587D01*
X47183675Y-8746033D01*
X47137846Y-8753582D01*
X47085246Y-8758135D01*
X47031506Y-8759428D01*
X46982257Y-8757195D01*
X46971082Y-8756028D01*
X46904837Y-8744360D01*
X46838594Y-8724639D01*
X46818550Y-8717205D01*
X46791751Y-8706229D01*
X46765159Y-8694252D01*
X46741324Y-8682559D01*
X46722797Y-8672432D01*
X46712128Y-8665152D01*
X46710533Y-8662896D01*
X46713108Y-8654992D01*
X46720303Y-8637909D01*
X46731202Y-8613556D01*
X46744891Y-8583841D01*
X46760457Y-8550672D01*
X46776986Y-8515958D01*
X46793563Y-8481608D01*
X46809275Y-8449531D01*
X46823207Y-8421635D01*
X46834446Y-8399829D01*
X46842076Y-8386022D01*
X46845051Y-8382000D01*
X46853476Y-8384679D01*
X46869144Y-8391574D01*
X46882154Y-8397927D01*
X46933720Y-8419086D01*
X46983946Y-8430070D01*
X47030889Y-8430572D01*
X47056675Y-8425712D01*
X47077360Y-8416037D01*
X47099066Y-8399782D01*
X47118064Y-8380409D01*
X47130629Y-8361381D01*
X47132976Y-8354822D01*
X47131244Y-8346275D01*
X47124754Y-8325954D01*
X47113507Y-8293860D01*
X47097505Y-8249995D01*
X47076747Y-8194359D01*
X47051234Y-8126955D01*
X47020966Y-8047784D01*
X46985945Y-7956845D01*
X46946169Y-7854142D01*
X46901641Y-7739675D01*
X46872700Y-7665496D01*
X46838183Y-7577064D01*
X46804986Y-7491911D01*
X46773397Y-7410787D01*
X46743707Y-7334441D01*
X46716207Y-7263623D01*
X46691185Y-7199083D01*
X46668934Y-7141570D01*
X46649741Y-7091834D01*
X46633899Y-7050623D01*
X46621697Y-7018688D01*
X46613425Y-6996779D01*
X46609373Y-6985644D01*
X46609000Y-6984372D01*
X46615180Y-6982819D01*
X46633052Y-6981572D01*
X46661608Y-6980649D01*
X46699842Y-6980073D01*
X46746749Y-6979863D01*
X46801323Y-6980040D01*
X46816435Y-6980150D01*
X47023870Y-6981825D01*
X47328206Y-7894845D01*
X47432009Y-7571685D01*
X47453486Y-7504788D01*
X47475197Y-7437103D01*
X47496560Y-7370448D01*
X47516993Y-7306637D01*
X47535916Y-7247486D01*
X47552747Y-7194812D01*
X47566906Y-7150429D01*
X47577810Y-7116155D01*
X47578626Y-7113587D01*
X47621439Y-6978650D01*
X47826419Y-6978650D01*
X47875993Y-6978724D01*
X47875993Y-6978724D01*
G37*
X47875993Y-6978724D02*
X47921248Y-6978935D01*
X47960688Y-6979265D01*
X47992817Y-6979696D01*
X48016139Y-6980208D01*
X48029157Y-6980784D01*
X48031400Y-6981153D01*
X48029183Y-6988383D01*
X48022752Y-7006605D01*
X48012436Y-7034956D01*
X47998563Y-7072568D01*
X47981463Y-7118576D01*
X47961463Y-7172113D01*
X47938894Y-7232313D01*
X47914083Y-7298311D01*
X47887359Y-7369241D01*
X47859051Y-7444236D01*
X47829489Y-7522430D01*
X47799000Y-7602958D01*
X47767914Y-7684953D01*
X47736559Y-7767549D01*
X47705264Y-7849880D01*
X47674358Y-7931081D01*
X47644170Y-8010285D01*
X47615028Y-8086626D01*
X47587262Y-8159238D01*
X47561199Y-8227255D01*
X47537170Y-8289811D01*
X47515502Y-8346040D01*
X47496524Y-8395076D01*
X47480566Y-8436054D01*
X47467955Y-8468106D01*
X47459022Y-8490367D01*
X47454094Y-8501971D01*
X47453765Y-8502650D01*
X47413808Y-8572892D01*
X47370309Y-8631173D01*
X47322895Y-8677825D01*
X47271195Y-8713185D01*
X47214837Y-8737587D01*
X47183675Y-8746033D01*
X47137846Y-8753582D01*
X47085246Y-8758135D01*
X47031506Y-8759428D01*
X46982257Y-8757195D01*
X46971082Y-8756028D01*
X46904837Y-8744360D01*
X46838594Y-8724639D01*
X46818550Y-8717205D01*
X46791751Y-8706229D01*
X46765159Y-8694252D01*
X46741324Y-8682559D01*
X46722797Y-8672432D01*
X46712128Y-8665152D01*
X46710533Y-8662896D01*
X46713108Y-8654992D01*
X46720303Y-8637909D01*
X46731202Y-8613556D01*
X46744891Y-8583841D01*
X46760457Y-8550672D01*
X46776986Y-8515958D01*
X46793563Y-8481608D01*
X46809275Y-8449531D01*
X46823207Y-8421635D01*
X46834446Y-8399829D01*
X46842076Y-8386022D01*
X46845051Y-8382000D01*
X46853476Y-8384679D01*
X46869144Y-8391574D01*
X46882154Y-8397927D01*
X46933720Y-8419086D01*
X46983946Y-8430070D01*
X47030889Y-8430572D01*
X47056675Y-8425712D01*
X47077360Y-8416037D01*
X47099066Y-8399782D01*
X47118064Y-8380409D01*
X47130629Y-8361381D01*
X47132976Y-8354822D01*
X47131244Y-8346275D01*
X47124754Y-8325954D01*
X47113507Y-8293860D01*
X47097505Y-8249995D01*
X47076747Y-8194359D01*
X47051234Y-8126955D01*
X47020966Y-8047784D01*
X46985945Y-7956845D01*
X46946169Y-7854142D01*
X46901641Y-7739675D01*
X46872700Y-7665496D01*
X46838183Y-7577064D01*
X46804986Y-7491911D01*
X46773397Y-7410787D01*
X46743707Y-7334441D01*
X46716207Y-7263623D01*
X46691185Y-7199083D01*
X46668934Y-7141570D01*
X46649741Y-7091834D01*
X46633899Y-7050623D01*
X46621697Y-7018688D01*
X46613425Y-6996779D01*
X46609373Y-6985644D01*
X46609000Y-6984372D01*
X46615180Y-6982819D01*
X46633052Y-6981572D01*
X46661608Y-6980649D01*
X46699842Y-6980073D01*
X46746749Y-6979863D01*
X46801323Y-6980040D01*
X46816435Y-6980150D01*
X47023870Y-6981825D01*
X47328206Y-7894845D01*
X47432009Y-7571685D01*
X47453486Y-7504788D01*
X47475197Y-7437103D01*
X47496560Y-7370448D01*
X47516993Y-7306637D01*
X47535916Y-7247486D01*
X47552747Y-7194812D01*
X47566906Y-7150429D01*
X47577810Y-7116155D01*
X47578626Y-7113587D01*
X47621439Y-6978650D01*
X47826419Y-6978650D01*
X47875993Y-6978724D01*
G36*
X32527309Y-5032533D02*
X32583187Y-5033129D01*
X32631299Y-5034347D01*
X32674112Y-5036371D01*
X32714090Y-5039383D01*
X32753701Y-5043567D01*
X32795409Y-5049107D01*
X32841680Y-5056185D01*
X32891271Y-5064360D01*
X33061626Y-5099412D01*
X33228536Y-5146426D01*
X33391412Y-5204988D01*
X33549666Y-5274686D01*
X33702708Y-5355107D01*
X33849949Y-5445837D01*
X33990800Y-5546463D01*
X34124671Y-5656573D01*
X34250973Y-5775753D01*
X34369117Y-5903590D01*
X34478513Y-6039671D01*
X34578573Y-6183584D01*
X34646099Y-6294597D01*
X34729704Y-6452865D01*
X34801127Y-6614649D01*
X34860382Y-6779999D01*
X34907481Y-6948969D01*
X34942436Y-7121610D01*
X34965260Y-7297975D01*
X34975967Y-7478117D01*
X34974918Y-7652988D01*
X34962157Y-7827868D01*
X34937005Y-8000919D01*
X34899715Y-8171502D01*
X34850541Y-8338978D01*
X34789734Y-8502707D01*
X34717549Y-8662051D01*
X34634238Y-8816371D01*
X34540055Y-8965026D01*
X34435253Y-9107378D01*
X34365754Y-9191380D01*
X34328435Y-9232810D01*
X34283884Y-9279440D01*
X34234641Y-9328818D01*
X34183249Y-9378490D01*
X34132247Y-9426004D01*
X34084177Y-9468907D01*
X34041581Y-9504745D01*
X34038742Y-9507029D01*
X33895523Y-9613886D01*
X33746078Y-9710032D01*
X33591097Y-9795089D01*
X33431265Y-9868675D01*
X33280350Y-9925978D01*
X33108264Y-9978265D01*
X32934085Y-10018152D01*
X32758298Y-10045576D01*
X32581389Y-10060471D01*
X32403845Y-10062771D01*
X32292925Y-10057796D01*
X32115887Y-10039612D01*
X31941496Y-10009161D01*
X31770332Y-9966708D01*
X31602978Y-9912517D01*
X31440016Y-9846853D01*
X31282027Y-9769980D01*
X31129594Y-9682162D01*
X30983298Y-9583665D01*
X30843722Y-9474752D01*
X30711447Y-9355687D01*
X30680110Y-9324889D01*
X30559016Y-9194968D01*
X30448214Y-9057965D01*
X30347881Y-8914479D01*
X30258195Y-8765109D01*
X30179334Y-8610453D01*
X30111475Y-8451111D01*
X30069109Y-8328953D01*
X30316840Y-8328953D01*
X30318094Y-8337742D01*
X30323921Y-8356215D01*
X30333588Y-8382515D01*
X30346361Y-8414790D01*
X30361506Y-8451184D01*
X30378289Y-8489843D01*
X30395932Y-8528815D01*
X30413526Y-8564577D01*
X30436449Y-8607839D01*
X30462950Y-8655555D01*
X30491281Y-8704681D01*
X30519691Y-8752171D01*
X30546433Y-8794979D01*
X30565017Y-8823175D01*
X30652234Y-8942251D01*
X30748851Y-9057652D01*
X30853001Y-9167506D01*
X30962815Y-9269935D01*
X31076425Y-9363066D01*
X31169938Y-9430389D01*
X31230649Y-9465518D01*
X31302681Y-9496803D01*
X31385174Y-9523997D01*
X31477268Y-9546852D01*
X31578104Y-9565118D01*
X31680150Y-9577888D01*
X31713395Y-9580036D01*
X31755204Y-9580976D01*
X31801502Y-9580753D01*
X31848213Y-9579415D01*
X31891263Y-9577009D01*
X31912409Y-9575197D01*
X31996043Y-9563218D01*
X32073487Y-9544902D01*
X32143304Y-9520745D01*
X32204056Y-9491245D01*
X32254003Y-9457146D01*
X32286785Y-9426501D01*
X32311278Y-9394001D01*
X32329170Y-9356562D01*
X32342151Y-9311100D01*
X32346711Y-9287941D01*
X32360511Y-9227115D01*
X32378979Y-9176762D01*
X32403074Y-9135208D01*
X32433751Y-9100780D01*
X32469529Y-9073368D01*
X32503136Y-9054075D01*
X32540528Y-9037531D01*
X32582739Y-9023580D01*
X32630800Y-9012067D01*
X32685742Y-9002836D01*
X32748597Y-8995730D01*
X32820397Y-8990595D01*
X32902174Y-8987275D01*
X32994959Y-8985612D01*
X33052406Y-8985348D01*
X33201490Y-8983611D01*
X33338485Y-8978591D01*
X33463352Y-8970289D01*
X33576053Y-8958710D01*
X33676550Y-8943856D01*
X33743900Y-8930566D01*
X33869396Y-8897162D01*
X33989009Y-8854261D01*
X34101882Y-8802335D01*
X34207158Y-8741857D01*
X34303981Y-8673299D01*
X34391495Y-8597135D01*
X34441098Y-8545862D01*
X34464344Y-8520131D01*
X34397809Y-8553522D01*
X34363885Y-8569914D01*
X34326773Y-8586835D01*
X34292014Y-8601800D01*
X34274556Y-8608821D01*
X34228839Y-8624745D01*
X34174205Y-8640992D01*
X34114375Y-8656645D01*
X34053069Y-8670783D01*
X33994010Y-8682489D01*
X33943925Y-8690446D01*
X33899260Y-8695081D01*
X33845180Y-8698541D01*
X33784916Y-8700798D01*
X33721700Y-8701824D01*
X33658765Y-8701594D01*
X33599342Y-8700078D01*
X33546664Y-8697250D01*
X33512125Y-8694092D01*
X33344057Y-8668978D01*
X33173343Y-8632337D01*
X33001622Y-8584596D01*
X32830533Y-8526182D01*
X32752220Y-8495735D01*
X32725848Y-8485013D01*
X32701043Y-8474751D01*
X32676338Y-8464293D01*
X32650265Y-8452981D01*
X32621355Y-8440160D01*
X32588140Y-8425172D01*
X32549152Y-8407362D01*
X32502922Y-8386071D01*
X32447983Y-8360644D01*
X32389762Y-8333627D01*
X32221469Y-8260844D01*
X32054404Y-8199280D01*
X31888944Y-8148960D01*
X31725466Y-8109907D01*
X31564346Y-8082147D01*
X31405962Y-8065706D01*
X31250690Y-8060607D01*
X31098908Y-8066876D01*
X30950992Y-8084537D01*
X30807319Y-8113616D01*
X30668267Y-8154138D01*
X30534212Y-8206127D01*
X30524724Y-8210331D01*
X30493827Y-8224829D01*
X30460332Y-8241706D01*
X30426240Y-8259818D01*
X30393551Y-8278026D01*
X30364265Y-8295187D01*
X30340383Y-8310159D01*
X30323905Y-8321803D01*
X30316840Y-8328953D01*
X30069109Y-8328953D01*
X30054795Y-8287681D01*
X30009473Y-8120763D01*
X29975686Y-7950955D01*
X29953611Y-7778856D01*
X29943427Y-7605064D01*
X29944804Y-7477090D01*
X30175601Y-7477090D01*
X30175635Y-7552182D01*
X30177440Y-7629188D01*
X30180921Y-7704884D01*
X30185986Y-7776042D01*
X30192540Y-7839438D01*
X30196412Y-7867650D01*
X30203386Y-7910574D01*
X30211552Y-7955903D01*
X30220540Y-8002039D01*
X30229979Y-8047383D01*
X30239499Y-8090337D01*
X30248731Y-8129304D01*
X30257305Y-8162684D01*
X30264851Y-8188879D01*
X30270999Y-8206291D01*
X30275379Y-8213322D01*
X30276358Y-8213107D01*
X30279601Y-8207145D01*
X30288227Y-8190600D01*
X30301858Y-8164209D01*
X30320119Y-8128708D01*
X30342632Y-8084832D01*
X30369021Y-8033319D01*
X30398908Y-7974904D01*
X30431917Y-7910324D01*
X30467670Y-7840315D01*
X30505792Y-7765613D01*
X30545904Y-7686954D01*
X30587631Y-7605075D01*
X30589018Y-7602352D01*
X30630805Y-7520402D01*
X30671023Y-7441676D01*
X30709295Y-7366909D01*
X30745240Y-7296834D01*
X30778480Y-7232185D01*
X30808636Y-7173697D01*
X30835329Y-7122103D01*
X30858179Y-7078137D01*
X30876807Y-7042534D01*
X30890835Y-7016027D01*
X30899883Y-6999351D01*
X30903572Y-6993239D01*
X30903599Y-6993226D01*
X30907374Y-6998422D01*
X30916580Y-7013911D01*
X30930707Y-7038763D01*
X30949243Y-7072046D01*
X30971677Y-7112831D01*
X30997498Y-7160185D01*
X31026196Y-7213179D01*
X31057258Y-7270882D01*
X31090174Y-7332363D01*
X31101451Y-7353501D01*
X31134870Y-7416071D01*
X31166586Y-7475213D01*
X31196090Y-7529992D01*
X31222871Y-7579471D01*
X31246419Y-7622715D01*
X31266226Y-7658790D01*
X31281780Y-7686760D01*
X31292572Y-7705689D01*
X31298093Y-7714643D01*
X31298671Y-7715250D01*
X31302131Y-7709731D01*
X31311028Y-7693669D01*
X31324972Y-7667804D01*
X31343574Y-7632880D01*
X31366444Y-7589636D01*
X31393192Y-7538814D01*
X31423429Y-7481156D01*
X31456765Y-7417402D01*
X31492811Y-7348295D01*
X31531177Y-7274576D01*
X31571474Y-7196986D01*
X31606478Y-7129462D01*
X31648117Y-7049106D01*
X31688147Y-6971925D01*
X31726177Y-6898668D01*
X31761818Y-6830083D01*
X31794678Y-6766919D01*
X31824368Y-6709923D01*
X31850499Y-6659844D01*
X31872679Y-6617431D01*
X31890519Y-6583431D01*
X31903629Y-6558593D01*
X31911619Y-6543665D01*
X31914083Y-6539336D01*
X31917612Y-6544173D01*
X31926678Y-6559452D01*
X31940859Y-6584400D01*
X31959731Y-6618243D01*
X31982872Y-6660208D01*
X32009859Y-6709522D01*
X32040269Y-6765413D01*
X32073679Y-6827107D01*
X32109667Y-6893831D01*
X32147809Y-6964812D01*
X32187683Y-7039276D01*
X32194500Y-7052031D01*
X32234636Y-7127094D01*
X32273089Y-7198884D01*
X32309436Y-7266619D01*
X32343254Y-7329519D01*
X32374123Y-7386803D01*
X32401620Y-7437689D01*
X32425322Y-7481398D01*
X32444808Y-7517147D01*
X32459656Y-7544157D01*
X32469443Y-7561645D01*
X32473748Y-7568832D01*
X32473900Y-7568974D01*
X32477359Y-7563491D01*
X32486048Y-7547808D01*
X32499388Y-7523019D01*
X32516801Y-7490220D01*
X32537708Y-7450504D01*
X32561531Y-7404966D01*
X32587692Y-7354700D01*
X32615613Y-7300802D01*
X32616458Y-7299167D01*
X32644448Y-7245171D01*
X32670738Y-7194781D01*
X32694744Y-7149091D01*
X32715883Y-7109196D01*
X32733572Y-7076190D01*
X32747227Y-7051168D01*
X32756266Y-7035224D01*
X32760106Y-7029454D01*
X32760133Y-7029450D01*
X32763694Y-7034921D01*
X32772792Y-7050805D01*
X32786995Y-7076304D01*
X32805870Y-7110622D01*
X32828984Y-7152961D01*
X32855904Y-7202524D01*
X32886197Y-7258516D01*
X32919431Y-7320138D01*
X32955172Y-7386594D01*
X32992988Y-7457087D01*
X33030049Y-7526337D01*
X33069721Y-7600534D01*
X33107905Y-7671916D01*
X33144144Y-7739634D01*
X33177985Y-7802839D01*
X33208973Y-7860683D01*
X33236652Y-7912317D01*
X33260569Y-7956894D01*
X33280268Y-7993565D01*
X33295294Y-8021482D01*
X33305194Y-8039796D01*
X33309313Y-8047312D01*
X33322953Y-8071400D01*
X33453623Y-7818712D01*
X33480722Y-7766532D01*
X33506134Y-7718029D01*
X33529254Y-7674328D01*
X33549475Y-7636556D01*
X33566192Y-7605838D01*
X33578798Y-7583300D01*
X33586686Y-7570069D01*
X33589167Y-7566932D01*
X33593173Y-7572549D01*
X33602428Y-7588133D01*
X33616233Y-7612431D01*
X33633893Y-7644189D01*
X33654709Y-7682153D01*
X33677984Y-7725069D01*
X33702970Y-7771587D01*
X33727920Y-7817972D01*
X33751060Y-7860449D01*
X33771706Y-7897801D01*
X33789170Y-7928811D01*
X33802768Y-7952261D01*
X33811813Y-7966933D01*
X33815620Y-7971611D01*
X33815632Y-7971600D01*
X33819081Y-7965490D01*
X33827892Y-7948978D01*
X33841604Y-7922949D01*
X33859756Y-7888288D01*
X33881888Y-7845878D01*
X33907537Y-7796605D01*
X33936244Y-7741353D01*
X33967546Y-7681006D01*
X34000984Y-7616450D01*
X34036096Y-7548568D01*
X34037221Y-7546394D01*
X34072341Y-7478530D01*
X34105790Y-7414054D01*
X34137111Y-7353839D01*
X34165845Y-7298758D01*
X34191532Y-7249687D01*
X34213714Y-7207500D01*
X34231933Y-7173071D01*
X34245730Y-7147273D01*
X34254647Y-7130982D01*
X34258224Y-7125072D01*
X34258250Y-7125064D01*
X34261865Y-7130447D01*
X34271298Y-7145964D01*
X34286038Y-7170740D01*
X34305571Y-7203898D01*
X34329387Y-7244564D01*
X34356973Y-7291861D01*
X34387818Y-7344914D01*
X34421409Y-7402846D01*
X34457234Y-7464783D01*
X34486509Y-7515501D01*
X34523712Y-7579838D01*
X34559120Y-7640735D01*
X34592221Y-7697331D01*
X34622499Y-7748762D01*
X34649441Y-7794166D01*
X34672534Y-7832681D01*
X34691264Y-7863444D01*
X34705118Y-7885594D01*
X34713582Y-7898267D01*
X34716120Y-7901010D01*
X34720344Y-7890520D01*
X34724570Y-7868999D01*
X34728670Y-7838118D01*
X34732517Y-7799544D01*
X34735982Y-7754948D01*
X34738939Y-7705998D01*
X34741258Y-7654364D01*
X34742812Y-7601714D01*
X34743473Y-7549718D01*
X34743486Y-7543800D01*
X34741830Y-7434585D01*
X34736352Y-7333980D01*
X34726651Y-7238364D01*
X34712320Y-7144115D01*
X34692958Y-7047613D01*
X34683631Y-7007225D01*
X34638993Y-6845756D01*
X34583511Y-6690321D01*
X34516759Y-6539948D01*
X34438311Y-6393665D01*
X34359197Y-6267450D01*
X34313694Y-6201468D01*
X34269508Y-6141770D01*
X34224216Y-6085433D01*
X34175393Y-6029536D01*
X34120614Y-5971156D01*
X34074456Y-5924277D01*
X33990426Y-5843365D01*
X33908966Y-5771547D01*
X33827112Y-5706489D01*
X33741902Y-5645852D01*
X33650371Y-5587301D01*
X33636088Y-5578658D01*
X33488673Y-5497321D01*
X33337035Y-5427690D01*
X33181834Y-5369745D01*
X33023730Y-5323470D01*
X32863385Y-5288846D01*
X32701457Y-5265855D01*
X32538609Y-5254480D01*
X32375501Y-5254702D01*
X32212794Y-5266503D01*
X32051147Y-5289866D01*
X31891222Y-5324772D01*
X31733679Y-5371204D01*
X31579178Y-5429143D01*
X31428381Y-5498571D01*
X31281948Y-5579471D01*
X31178500Y-5645550D01*
X31041766Y-5745711D01*
X30913703Y-5854864D01*
X30794648Y-5972435D01*
X30684937Y-6097850D01*
X30584908Y-6230536D01*
X30494896Y-6369917D01*
X30415240Y-6515420D01*
X30346274Y-6666471D01*
X30288337Y-6822496D01*
X30241765Y-6982921D01*
X30206895Y-7147171D01*
X30184062Y-7314673D01*
X30181220Y-7345555D01*
X30177431Y-7407139D01*
X30175601Y-7477090D01*
X29944804Y-7477090D01*
X29945310Y-7430180D01*
X29959439Y-7254801D01*
X29985991Y-7079527D01*
X29997329Y-7022667D01*
X30039825Y-6851590D01*
X30093740Y-6685398D01*
X30158619Y-6524531D01*
X30234007Y-6369426D01*
X30319449Y-6220521D01*
X30414491Y-6078256D01*
X30518678Y-5943067D01*
X30631555Y-5815394D01*
X30752667Y-5695673D01*
X30881560Y-5584345D01*
X31017778Y-5481846D01*
X31160868Y-5388615D01*
X31310374Y-5305090D01*
X31465842Y-5231710D01*
X31626817Y-5168912D01*
X31792843Y-5117135D01*
X31963467Y-5076817D01*
X32029400Y-5064595D01*
X32081632Y-5055860D01*
X32127389Y-5048839D01*
X32169110Y-5043349D01*
X32209232Y-5039208D01*
X32250191Y-5036235D01*
X32294427Y-5034247D01*
X32344375Y-5033063D01*
X32402473Y-5032500D01*
X32461200Y-5032375D01*
X32527309Y-5032533D01*
X32527309Y-5032533D01*
G37*
X32527309Y-5032533D02*
X32583187Y-5033129D01*
X32631299Y-5034347D01*
X32674112Y-5036371D01*
X32714090Y-5039383D01*
X32753701Y-5043567D01*
X32795409Y-5049107D01*
X32841680Y-5056185D01*
X32891271Y-5064360D01*
X33061626Y-5099412D01*
X33228536Y-5146426D01*
X33391412Y-5204988D01*
X33549666Y-5274686D01*
X33702708Y-5355107D01*
X33849949Y-5445837D01*
X33990800Y-5546463D01*
X34124671Y-5656573D01*
X34250973Y-5775753D01*
X34369117Y-5903590D01*
X34478513Y-6039671D01*
X34578573Y-6183584D01*
X34646099Y-6294597D01*
X34729704Y-6452865D01*
X34801127Y-6614649D01*
X34860382Y-6779999D01*
X34907481Y-6948969D01*
X34942436Y-7121610D01*
X34965260Y-7297975D01*
X34975967Y-7478117D01*
X34974918Y-7652988D01*
X34962157Y-7827868D01*
X34937005Y-8000919D01*
X34899715Y-8171502D01*
X34850541Y-8338978D01*
X34789734Y-8502707D01*
X34717549Y-8662051D01*
X34634238Y-8816371D01*
X34540055Y-8965026D01*
X34435253Y-9107378D01*
X34365754Y-9191380D01*
X34328435Y-9232810D01*
X34283884Y-9279440D01*
X34234641Y-9328818D01*
X34183249Y-9378490D01*
X34132247Y-9426004D01*
X34084177Y-9468907D01*
X34041581Y-9504745D01*
X34038742Y-9507029D01*
X33895523Y-9613886D01*
X33746078Y-9710032D01*
X33591097Y-9795089D01*
X33431265Y-9868675D01*
X33280350Y-9925978D01*
X33108264Y-9978265D01*
X32934085Y-10018152D01*
X32758298Y-10045576D01*
X32581389Y-10060471D01*
X32403845Y-10062771D01*
X32292925Y-10057796D01*
X32115887Y-10039612D01*
X31941496Y-10009161D01*
X31770332Y-9966708D01*
X31602978Y-9912517D01*
X31440016Y-9846853D01*
X31282027Y-9769980D01*
X31129594Y-9682162D01*
X30983298Y-9583665D01*
X30843722Y-9474752D01*
X30711447Y-9355687D01*
X30680110Y-9324889D01*
X30559016Y-9194968D01*
X30448214Y-9057965D01*
X30347881Y-8914479D01*
X30258195Y-8765109D01*
X30179334Y-8610453D01*
X30111475Y-8451111D01*
X30069109Y-8328953D01*
X30316840Y-8328953D01*
X30318094Y-8337742D01*
X30323921Y-8356215D01*
X30333588Y-8382515D01*
X30346361Y-8414790D01*
X30361506Y-8451184D01*
X30378289Y-8489843D01*
X30395932Y-8528815D01*
X30413526Y-8564577D01*
X30436449Y-8607839D01*
X30462950Y-8655555D01*
X30491281Y-8704681D01*
X30519691Y-8752171D01*
X30546433Y-8794979D01*
X30565017Y-8823175D01*
X30652234Y-8942251D01*
X30748851Y-9057652D01*
X30853001Y-9167506D01*
X30962815Y-9269935D01*
X31076425Y-9363066D01*
X31169938Y-9430389D01*
X31230649Y-9465518D01*
X31302681Y-9496803D01*
X31385174Y-9523997D01*
X31477268Y-9546852D01*
X31578104Y-9565118D01*
X31680150Y-9577888D01*
X31713395Y-9580036D01*
X31755204Y-9580976D01*
X31801502Y-9580753D01*
X31848213Y-9579415D01*
X31891263Y-9577009D01*
X31912409Y-9575197D01*
X31996043Y-9563218D01*
X32073487Y-9544902D01*
X32143304Y-9520745D01*
X32204056Y-9491245D01*
X32254003Y-9457146D01*
X32286785Y-9426501D01*
X32311278Y-9394001D01*
X32329170Y-9356562D01*
X32342151Y-9311100D01*
X32346711Y-9287941D01*
X32360511Y-9227115D01*
X32378979Y-9176762D01*
X32403074Y-9135208D01*
X32433751Y-9100780D01*
X32469529Y-9073368D01*
X32503136Y-9054075D01*
X32540528Y-9037531D01*
X32582739Y-9023580D01*
X32630800Y-9012067D01*
X32685742Y-9002836D01*
X32748597Y-8995730D01*
X32820397Y-8990595D01*
X32902174Y-8987275D01*
X32994959Y-8985612D01*
X33052406Y-8985348D01*
X33201490Y-8983611D01*
X33338485Y-8978591D01*
X33463352Y-8970289D01*
X33576053Y-8958710D01*
X33676550Y-8943856D01*
X33743900Y-8930566D01*
X33869396Y-8897162D01*
X33989009Y-8854261D01*
X34101882Y-8802335D01*
X34207158Y-8741857D01*
X34303981Y-8673299D01*
X34391495Y-8597135D01*
X34441098Y-8545862D01*
X34464344Y-8520131D01*
X34397809Y-8553522D01*
X34363885Y-8569914D01*
X34326773Y-8586835D01*
X34292014Y-8601800D01*
X34274556Y-8608821D01*
X34228839Y-8624745D01*
X34174205Y-8640992D01*
X34114375Y-8656645D01*
X34053069Y-8670783D01*
X33994010Y-8682489D01*
X33943925Y-8690446D01*
X33899260Y-8695081D01*
X33845180Y-8698541D01*
X33784916Y-8700798D01*
X33721700Y-8701824D01*
X33658765Y-8701594D01*
X33599342Y-8700078D01*
X33546664Y-8697250D01*
X33512125Y-8694092D01*
X33344057Y-8668978D01*
X33173343Y-8632337D01*
X33001622Y-8584596D01*
X32830533Y-8526182D01*
X32752220Y-8495735D01*
X32725848Y-8485013D01*
X32701043Y-8474751D01*
X32676338Y-8464293D01*
X32650265Y-8452981D01*
X32621355Y-8440160D01*
X32588140Y-8425172D01*
X32549152Y-8407362D01*
X32502922Y-8386071D01*
X32447983Y-8360644D01*
X32389762Y-8333627D01*
X32221469Y-8260844D01*
X32054404Y-8199280D01*
X31888944Y-8148960D01*
X31725466Y-8109907D01*
X31564346Y-8082147D01*
X31405962Y-8065706D01*
X31250690Y-8060607D01*
X31098908Y-8066876D01*
X30950992Y-8084537D01*
X30807319Y-8113616D01*
X30668267Y-8154138D01*
X30534212Y-8206127D01*
X30524724Y-8210331D01*
X30493827Y-8224829D01*
X30460332Y-8241706D01*
X30426240Y-8259818D01*
X30393551Y-8278026D01*
X30364265Y-8295187D01*
X30340383Y-8310159D01*
X30323905Y-8321803D01*
X30316840Y-8328953D01*
X30069109Y-8328953D01*
X30054795Y-8287681D01*
X30009473Y-8120763D01*
X29975686Y-7950955D01*
X29953611Y-7778856D01*
X29943427Y-7605064D01*
X29944804Y-7477090D01*
X30175601Y-7477090D01*
X30175635Y-7552182D01*
X30177440Y-7629188D01*
X30180921Y-7704884D01*
X30185986Y-7776042D01*
X30192540Y-7839438D01*
X30196412Y-7867650D01*
X30203386Y-7910574D01*
X30211552Y-7955903D01*
X30220540Y-8002039D01*
X30229979Y-8047383D01*
X30239499Y-8090337D01*
X30248731Y-8129304D01*
X30257305Y-8162684D01*
X30264851Y-8188879D01*
X30270999Y-8206291D01*
X30275379Y-8213322D01*
X30276358Y-8213107D01*
X30279601Y-8207145D01*
X30288227Y-8190600D01*
X30301858Y-8164209D01*
X30320119Y-8128708D01*
X30342632Y-8084832D01*
X30369021Y-8033319D01*
X30398908Y-7974904D01*
X30431917Y-7910324D01*
X30467670Y-7840315D01*
X30505792Y-7765613D01*
X30545904Y-7686954D01*
X30587631Y-7605075D01*
X30589018Y-7602352D01*
X30630805Y-7520402D01*
X30671023Y-7441676D01*
X30709295Y-7366909D01*
X30745240Y-7296834D01*
X30778480Y-7232185D01*
X30808636Y-7173697D01*
X30835329Y-7122103D01*
X30858179Y-7078137D01*
X30876807Y-7042534D01*
X30890835Y-7016027D01*
X30899883Y-6999351D01*
X30903572Y-6993239D01*
X30903599Y-6993226D01*
X30907374Y-6998422D01*
X30916580Y-7013911D01*
X30930707Y-7038763D01*
X30949243Y-7072046D01*
X30971677Y-7112831D01*
X30997498Y-7160185D01*
X31026196Y-7213179D01*
X31057258Y-7270882D01*
X31090174Y-7332363D01*
X31101451Y-7353501D01*
X31134870Y-7416071D01*
X31166586Y-7475213D01*
X31196090Y-7529992D01*
X31222871Y-7579471D01*
X31246419Y-7622715D01*
X31266226Y-7658790D01*
X31281780Y-7686760D01*
X31292572Y-7705689D01*
X31298093Y-7714643D01*
X31298671Y-7715250D01*
X31302131Y-7709731D01*
X31311028Y-7693669D01*
X31324972Y-7667804D01*
X31343574Y-7632880D01*
X31366444Y-7589636D01*
X31393192Y-7538814D01*
X31423429Y-7481156D01*
X31456765Y-7417402D01*
X31492811Y-7348295D01*
X31531177Y-7274576D01*
X31571474Y-7196986D01*
X31606478Y-7129462D01*
X31648117Y-7049106D01*
X31688147Y-6971925D01*
X31726177Y-6898668D01*
X31761818Y-6830083D01*
X31794678Y-6766919D01*
X31824368Y-6709923D01*
X31850499Y-6659844D01*
X31872679Y-6617431D01*
X31890519Y-6583431D01*
X31903629Y-6558593D01*
X31911619Y-6543665D01*
X31914083Y-6539336D01*
X31917612Y-6544173D01*
X31926678Y-6559452D01*
X31940859Y-6584400D01*
X31959731Y-6618243D01*
X31982872Y-6660208D01*
X32009859Y-6709522D01*
X32040269Y-6765413D01*
X32073679Y-6827107D01*
X32109667Y-6893831D01*
X32147809Y-6964812D01*
X32187683Y-7039276D01*
X32194500Y-7052031D01*
X32234636Y-7127094D01*
X32273089Y-7198884D01*
X32309436Y-7266619D01*
X32343254Y-7329519D01*
X32374123Y-7386803D01*
X32401620Y-7437689D01*
X32425322Y-7481398D01*
X32444808Y-7517147D01*
X32459656Y-7544157D01*
X32469443Y-7561645D01*
X32473748Y-7568832D01*
X32473900Y-7568974D01*
X32477359Y-7563491D01*
X32486048Y-7547808D01*
X32499388Y-7523019D01*
X32516801Y-7490220D01*
X32537708Y-7450504D01*
X32561531Y-7404966D01*
X32587692Y-7354700D01*
X32615613Y-7300802D01*
X32616458Y-7299167D01*
X32644448Y-7245171D01*
X32670738Y-7194781D01*
X32694744Y-7149091D01*
X32715883Y-7109196D01*
X32733572Y-7076190D01*
X32747227Y-7051168D01*
X32756266Y-7035224D01*
X32760106Y-7029454D01*
X32760133Y-7029450D01*
X32763694Y-7034921D01*
X32772792Y-7050805D01*
X32786995Y-7076304D01*
X32805870Y-7110622D01*
X32828984Y-7152961D01*
X32855904Y-7202524D01*
X32886197Y-7258516D01*
X32919431Y-7320138D01*
X32955172Y-7386594D01*
X32992988Y-7457087D01*
X33030049Y-7526337D01*
X33069721Y-7600534D01*
X33107905Y-7671916D01*
X33144144Y-7739634D01*
X33177985Y-7802839D01*
X33208973Y-7860683D01*
X33236652Y-7912317D01*
X33260569Y-7956894D01*
X33280268Y-7993565D01*
X33295294Y-8021482D01*
X33305194Y-8039796D01*
X33309313Y-8047312D01*
X33322953Y-8071400D01*
X33453623Y-7818712D01*
X33480722Y-7766532D01*
X33506134Y-7718029D01*
X33529254Y-7674328D01*
X33549475Y-7636556D01*
X33566192Y-7605838D01*
X33578798Y-7583300D01*
X33586686Y-7570069D01*
X33589167Y-7566932D01*
X33593173Y-7572549D01*
X33602428Y-7588133D01*
X33616233Y-7612431D01*
X33633893Y-7644189D01*
X33654709Y-7682153D01*
X33677984Y-7725069D01*
X33702970Y-7771587D01*
X33727920Y-7817972D01*
X33751060Y-7860449D01*
X33771706Y-7897801D01*
X33789170Y-7928811D01*
X33802768Y-7952261D01*
X33811813Y-7966933D01*
X33815620Y-7971611D01*
X33815632Y-7971600D01*
X33819081Y-7965490D01*
X33827892Y-7948978D01*
X33841604Y-7922949D01*
X33859756Y-7888288D01*
X33881888Y-7845878D01*
X33907537Y-7796605D01*
X33936244Y-7741353D01*
X33967546Y-7681006D01*
X34000984Y-7616450D01*
X34036096Y-7548568D01*
X34037221Y-7546394D01*
X34072341Y-7478530D01*
X34105790Y-7414054D01*
X34137111Y-7353839D01*
X34165845Y-7298758D01*
X34191532Y-7249687D01*
X34213714Y-7207500D01*
X34231933Y-7173071D01*
X34245730Y-7147273D01*
X34254647Y-7130982D01*
X34258224Y-7125072D01*
X34258250Y-7125064D01*
X34261865Y-7130447D01*
X34271298Y-7145964D01*
X34286038Y-7170740D01*
X34305571Y-7203898D01*
X34329387Y-7244564D01*
X34356973Y-7291861D01*
X34387818Y-7344914D01*
X34421409Y-7402846D01*
X34457234Y-7464783D01*
X34486509Y-7515501D01*
X34523712Y-7579838D01*
X34559120Y-7640735D01*
X34592221Y-7697331D01*
X34622499Y-7748762D01*
X34649441Y-7794166D01*
X34672534Y-7832681D01*
X34691264Y-7863444D01*
X34705118Y-7885594D01*
X34713582Y-7898267D01*
X34716120Y-7901010D01*
X34720344Y-7890520D01*
X34724570Y-7868999D01*
X34728670Y-7838118D01*
X34732517Y-7799544D01*
X34735982Y-7754948D01*
X34738939Y-7705998D01*
X34741258Y-7654364D01*
X34742812Y-7601714D01*
X34743473Y-7549718D01*
X34743486Y-7543800D01*
X34741830Y-7434585D01*
X34736352Y-7333980D01*
X34726651Y-7238364D01*
X34712320Y-7144115D01*
X34692958Y-7047613D01*
X34683631Y-7007225D01*
X34638993Y-6845756D01*
X34583511Y-6690321D01*
X34516759Y-6539948D01*
X34438311Y-6393665D01*
X34359197Y-6267450D01*
X34313694Y-6201468D01*
X34269508Y-6141770D01*
X34224216Y-6085433D01*
X34175393Y-6029536D01*
X34120614Y-5971156D01*
X34074456Y-5924277D01*
X33990426Y-5843365D01*
X33908966Y-5771547D01*
X33827112Y-5706489D01*
X33741902Y-5645852D01*
X33650371Y-5587301D01*
X33636088Y-5578658D01*
X33488673Y-5497321D01*
X33337035Y-5427690D01*
X33181834Y-5369745D01*
X33023730Y-5323470D01*
X32863385Y-5288846D01*
X32701457Y-5265855D01*
X32538609Y-5254480D01*
X32375501Y-5254702D01*
X32212794Y-5266503D01*
X32051147Y-5289866D01*
X31891222Y-5324772D01*
X31733679Y-5371204D01*
X31579178Y-5429143D01*
X31428381Y-5498571D01*
X31281948Y-5579471D01*
X31178500Y-5645550D01*
X31041766Y-5745711D01*
X30913703Y-5854864D01*
X30794648Y-5972435D01*
X30684937Y-6097850D01*
X30584908Y-6230536D01*
X30494896Y-6369917D01*
X30415240Y-6515420D01*
X30346274Y-6666471D01*
X30288337Y-6822496D01*
X30241765Y-6982921D01*
X30206895Y-7147171D01*
X30184062Y-7314673D01*
X30181220Y-7345555D01*
X30177431Y-7407139D01*
X30175601Y-7477090D01*
X29944804Y-7477090D01*
X29945310Y-7430180D01*
X29959439Y-7254801D01*
X29985991Y-7079527D01*
X29997329Y-7022667D01*
X30039825Y-6851590D01*
X30093740Y-6685398D01*
X30158619Y-6524531D01*
X30234007Y-6369426D01*
X30319449Y-6220521D01*
X30414491Y-6078256D01*
X30518678Y-5943067D01*
X30631555Y-5815394D01*
X30752667Y-5695673D01*
X30881560Y-5584345D01*
X31017778Y-5481846D01*
X31160868Y-5388615D01*
X31310374Y-5305090D01*
X31465842Y-5231710D01*
X31626817Y-5168912D01*
X31792843Y-5117135D01*
X31963467Y-5076817D01*
X32029400Y-5064595D01*
X32081632Y-5055860D01*
X32127389Y-5048839D01*
X32169110Y-5043349D01*
X32209232Y-5039208D01*
X32250191Y-5036235D01*
X32294427Y-5034247D01*
X32344375Y-5033063D01*
X32402473Y-5032500D01*
X32461200Y-5032375D01*
X32527309Y-5032533D01*
G36*
X46748700Y-9419772D02*
X46320228Y-9419772D01*
X46322192Y-9272815D01*
X46324157Y-9125857D01*
X46536428Y-9123933D01*
X46748700Y-9122010D01*
X46748700Y-9419772D01*
X46748700Y-9419772D01*
G37*
X46748700Y-9419772D02*
X46320228Y-9419772D01*
X46322192Y-9272815D01*
X46324157Y-9125857D01*
X46536428Y-9123933D01*
X46748700Y-9122010D01*
X46748700Y-9419772D01*
G36*
X41654185Y-9419772D02*
X41225713Y-9419772D01*
X41227678Y-9272815D01*
X41229643Y-9125857D01*
X41441914Y-9123933D01*
X41654185Y-9122010D01*
X41654185Y-9419772D01*
X41654185Y-9419772D01*
G37*
X41654185Y-9419772D02*
X41225713Y-9419772D01*
X41227678Y-9272815D01*
X41229643Y-9125857D01*
X41441914Y-9123933D01*
X41654185Y-9122010D01*
X41654185Y-9419772D01*
G36*
X44270693Y-9991745D02*
X44306666Y-10009637D01*
X44326774Y-10028712D01*
X44348869Y-10064973D01*
X44358430Y-10104073D01*
X44356009Y-10143254D01*
X44342156Y-10179761D01*
X44317420Y-10210839D01*
X44286186Y-10231949D01*
X44247025Y-10244945D01*
X44209424Y-10244219D01*
X44173635Y-10231514D01*
X44139617Y-10207349D01*
X44116116Y-10175386D01*
X44103669Y-10138364D01*
X44102812Y-10099023D01*
X44114081Y-10060102D01*
X44133988Y-10028927D01*
X44164080Y-10002094D01*
X44199252Y-9988334D01*
X44226715Y-9985829D01*
X44270693Y-9991745D01*
X44270693Y-9991745D01*
G37*
X44270693Y-9991745D02*
X44306666Y-10009637D01*
X44326774Y-10028712D01*
X44348869Y-10064973D01*
X44358430Y-10104073D01*
X44356009Y-10143254D01*
X44342156Y-10179761D01*
X44317420Y-10210839D01*
X44286186Y-10231949D01*
X44247025Y-10244945D01*
X44209424Y-10244219D01*
X44173635Y-10231514D01*
X44139617Y-10207349D01*
X44116116Y-10175386D01*
X44103669Y-10138364D01*
X44102812Y-10099023D01*
X44114081Y-10060102D01*
X44133988Y-10028927D01*
X44164080Y-10002094D01*
X44199252Y-9988334D01*
X44226715Y-9985829D01*
X44270693Y-9991745D01*
G36*
X46734185Y-10668000D02*
X46320528Y-10668000D01*
X46320528Y-9528629D01*
X46734185Y-9528629D01*
X46734185Y-10668000D01*
X46734185Y-10668000D01*
G37*
X46734185Y-10668000D02*
X46320528Y-10668000D01*
X46320528Y-9528629D01*
X46734185Y-9528629D01*
X46734185Y-10668000D01*
G36*
X45465937Y-9510880D02*
X45467814Y-9899531D01*
X45786596Y-9528629D01*
X46013648Y-9528629D01*
X46069391Y-9528748D01*
X46120171Y-9529087D01*
X46164252Y-9529614D01*
X46199896Y-9530302D01*
X46225368Y-9531119D01*
X46238928Y-9532035D01*
X46240700Y-9532521D01*
X46236123Y-9538446D01*
X46223218Y-9553867D01*
X46203216Y-9577362D01*
X46177354Y-9607510D01*
X46146864Y-9642890D01*
X46112982Y-9682080D01*
X46076941Y-9723657D01*
X46039975Y-9766201D01*
X46003319Y-9808290D01*
X45968207Y-9848502D01*
X45935873Y-9885415D01*
X45907551Y-9917609D01*
X45884475Y-9943661D01*
X45867880Y-9962150D01*
X45864660Y-9965672D01*
X45846482Y-9985429D01*
X46041200Y-10310386D01*
X46078933Y-10373335D01*
X46114655Y-10432886D01*
X46147623Y-10487806D01*
X46177098Y-10536863D01*
X46202338Y-10578825D01*
X46222602Y-10612459D01*
X46237150Y-10636532D01*
X46245239Y-10649812D01*
X46246401Y-10651672D01*
X46256883Y-10668000D01*
X45807662Y-10668000D01*
X45689962Y-10475890D01*
X45572262Y-10283779D01*
X45518329Y-10343447D01*
X45464397Y-10403115D01*
X45464291Y-10535557D01*
X45464185Y-10668000D01*
X45057785Y-10668000D01*
X45057785Y-9122229D01*
X45464059Y-9122229D01*
X45465937Y-9510880D01*
X45465937Y-9510880D01*
G37*
X45465937Y-9510880D02*
X45467814Y-9899531D01*
X45786596Y-9528629D01*
X46013648Y-9528629D01*
X46069391Y-9528748D01*
X46120171Y-9529087D01*
X46164252Y-9529614D01*
X46199896Y-9530302D01*
X46225368Y-9531119D01*
X46238928Y-9532035D01*
X46240700Y-9532521D01*
X46236123Y-9538446D01*
X46223218Y-9553867D01*
X46203216Y-9577362D01*
X46177354Y-9607510D01*
X46146864Y-9642890D01*
X46112982Y-9682080D01*
X46076941Y-9723657D01*
X46039975Y-9766201D01*
X46003319Y-9808290D01*
X45968207Y-9848502D01*
X45935873Y-9885415D01*
X45907551Y-9917609D01*
X45884475Y-9943661D01*
X45867880Y-9962150D01*
X45864660Y-9965672D01*
X45846482Y-9985429D01*
X46041200Y-10310386D01*
X46078933Y-10373335D01*
X46114655Y-10432886D01*
X46147623Y-10487806D01*
X46177098Y-10536863D01*
X46202338Y-10578825D01*
X46222602Y-10612459D01*
X46237150Y-10636532D01*
X46245239Y-10649812D01*
X46246401Y-10651672D01*
X46256883Y-10668000D01*
X45807662Y-10668000D01*
X45689962Y-10475890D01*
X45572262Y-10283779D01*
X45518329Y-10343447D01*
X45464397Y-10403115D01*
X45464291Y-10535557D01*
X45464185Y-10668000D01*
X45057785Y-10668000D01*
X45057785Y-9122229D01*
X45464059Y-9122229D01*
X45465937Y-9510880D01*
G36*
X43495718Y-9896929D02*
X43497566Y-10668000D01*
X43083777Y-10668000D01*
X43085624Y-9896929D01*
X43087471Y-9125857D01*
X43493871Y-9125857D01*
X43495718Y-9896929D01*
X43495718Y-9896929D01*
G37*
X43495718Y-9896929D02*
X43497566Y-10668000D01*
X43083777Y-10668000D01*
X43085624Y-9896929D01*
X43087471Y-9125857D01*
X43493871Y-9125857D01*
X43495718Y-9896929D01*
G36*
X41654185Y-10668000D02*
X41247785Y-10668000D01*
X41247785Y-9528629D01*
X41654185Y-9528629D01*
X41654185Y-10668000D01*
X41654185Y-10668000D01*
G37*
X41654185Y-10668000D02*
X41247785Y-10668000D01*
X41247785Y-9528629D01*
X41654185Y-9528629D01*
X41654185Y-10668000D01*
G36*
X40888087Y-9109826D02*
X40939882Y-9113014D01*
X40988069Y-9117930D01*
X41029653Y-9124412D01*
X41061636Y-9132295D01*
X41075428Y-9137866D01*
X41079900Y-9141455D01*
X41083190Y-9148195D01*
X41085475Y-9160086D01*
X41086933Y-9179128D01*
X41087742Y-9207319D01*
X41088078Y-9246659D01*
X41088128Y-9280932D01*
X41087938Y-9323942D01*
X41087409Y-9361784D01*
X41086604Y-9392134D01*
X41085583Y-9412670D01*
X41084411Y-9421066D01*
X41084383Y-9421097D01*
X41075858Y-9421513D01*
X41057946Y-9418578D01*
X41042888Y-9415050D01*
X41007529Y-9408580D01*
X40968143Y-9405637D01*
X40929375Y-9406176D01*
X40895867Y-9410151D01*
X40873889Y-9416702D01*
X40851668Y-9434810D01*
X40835709Y-9463404D01*
X40827580Y-9499235D01*
X40826871Y-9514094D01*
X40826871Y-9542808D01*
X40955685Y-9544790D01*
X41084500Y-9546772D01*
X41086464Y-9693729D01*
X41088429Y-9840686D01*
X40826871Y-9840686D01*
X40826871Y-10668000D01*
X40420471Y-10668000D01*
X40420471Y-9840686D01*
X40289843Y-9840686D01*
X40289843Y-9528629D01*
X40418339Y-9528629D01*
X40422575Y-9461500D01*
X40433396Y-9382910D01*
X40455221Y-9313533D01*
X40487825Y-9253641D01*
X40530987Y-9203506D01*
X40584483Y-9163400D01*
X40648091Y-9133593D01*
X40704746Y-9117634D01*
X40741013Y-9112271D01*
X40785657Y-9109291D01*
X40835680Y-9108531D01*
X40888087Y-9109826D01*
X40888087Y-9109826D01*
G37*
X40888087Y-9109826D02*
X40939882Y-9113014D01*
X40988069Y-9117930D01*
X41029653Y-9124412D01*
X41061636Y-9132295D01*
X41075428Y-9137866D01*
X41079900Y-9141455D01*
X41083190Y-9148195D01*
X41085475Y-9160086D01*
X41086933Y-9179128D01*
X41087742Y-9207319D01*
X41088078Y-9246659D01*
X41088128Y-9280932D01*
X41087938Y-9323942D01*
X41087409Y-9361784D01*
X41086604Y-9392134D01*
X41085583Y-9412670D01*
X41084411Y-9421066D01*
X41084383Y-9421097D01*
X41075858Y-9421513D01*
X41057946Y-9418578D01*
X41042888Y-9415050D01*
X41007529Y-9408580D01*
X40968143Y-9405637D01*
X40929375Y-9406176D01*
X40895867Y-9410151D01*
X40873889Y-9416702D01*
X40851668Y-9434810D01*
X40835709Y-9463404D01*
X40827580Y-9499235D01*
X40826871Y-9514094D01*
X40826871Y-9542808D01*
X40955685Y-9544790D01*
X41084500Y-9546772D01*
X41086464Y-9693729D01*
X41088429Y-9840686D01*
X40826871Y-9840686D01*
X40826871Y-10668000D01*
X40420471Y-10668000D01*
X40420471Y-9840686D01*
X40289843Y-9840686D01*
X40289843Y-9528629D01*
X40418339Y-9528629D01*
X40422575Y-9461500D01*
X40433396Y-9382910D01*
X40455221Y-9313533D01*
X40487825Y-9253641D01*
X40530987Y-9203506D01*
X40584483Y-9163400D01*
X40648091Y-9133593D01*
X40704746Y-9117634D01*
X40741013Y-9112271D01*
X40785657Y-9109291D01*
X40835680Y-9108531D01*
X40888087Y-9109826D01*
G36*
X47450978Y-9381672D02*
X47452943Y-9528629D01*
X47728686Y-9528629D01*
X47726736Y-9693729D01*
X47724785Y-9858829D01*
X47588714Y-9860803D01*
X47452643Y-9862778D01*
X47452643Y-10073435D01*
X47452748Y-10139238D01*
X47453236Y-10192118D01*
X47454370Y-10233667D01*
X47456409Y-10265476D01*
X47459614Y-10289136D01*
X47464247Y-10306238D01*
X47470567Y-10318373D01*
X47478835Y-10327134D01*
X47489313Y-10334110D01*
X47495948Y-10337677D01*
X47519810Y-10344841D01*
X47553084Y-10348106D01*
X47591209Y-10347486D01*
X47629620Y-10343000D01*
X47655843Y-10337115D01*
X47681060Y-10330049D01*
X47702804Y-10324190D01*
X47712085Y-10321840D01*
X47728414Y-10317965D01*
X47728414Y-10632513D01*
X47689244Y-10649836D01*
X47650124Y-10665765D01*
X47613154Y-10677351D01*
X47574498Y-10685323D01*
X47530321Y-10690404D01*
X47476788Y-10693322D01*
X47456271Y-10693938D01*
X47398325Y-10694574D01*
X47352778Y-10693100D01*
X47317658Y-10689423D01*
X47302961Y-10686631D01*
X47234826Y-10664976D01*
X47177012Y-10633165D01*
X47129245Y-10590940D01*
X47091253Y-10538040D01*
X47062764Y-10474209D01*
X47055836Y-10452222D01*
X47052592Y-10438868D01*
X47049896Y-10422389D01*
X47047678Y-10401260D01*
X47045864Y-10373955D01*
X47044381Y-10338951D01*
X47043157Y-10294720D01*
X47042119Y-10239739D01*
X47041193Y-10172481D01*
X47040779Y-10136415D01*
X47037779Y-9862457D01*
X46915614Y-9862457D01*
X46915614Y-9528629D01*
X47038685Y-9528629D01*
X47040649Y-9381672D01*
X47042614Y-9234715D01*
X47449014Y-9234715D01*
X47450978Y-9381672D01*
X47450978Y-9381672D01*
G37*
X47450978Y-9381672D02*
X47452943Y-9528629D01*
X47728686Y-9528629D01*
X47726736Y-9693729D01*
X47724785Y-9858829D01*
X47588714Y-9860803D01*
X47452643Y-9862778D01*
X47452643Y-10073435D01*
X47452748Y-10139238D01*
X47453236Y-10192118D01*
X47454370Y-10233667D01*
X47456409Y-10265476D01*
X47459614Y-10289136D01*
X47464247Y-10306238D01*
X47470567Y-10318373D01*
X47478835Y-10327134D01*
X47489313Y-10334110D01*
X47495948Y-10337677D01*
X47519810Y-10344841D01*
X47553084Y-10348106D01*
X47591209Y-10347486D01*
X47629620Y-10343000D01*
X47655843Y-10337115D01*
X47681060Y-10330049D01*
X47702804Y-10324190D01*
X47712085Y-10321840D01*
X47728414Y-10317965D01*
X47728414Y-10632513D01*
X47689244Y-10649836D01*
X47650124Y-10665765D01*
X47613154Y-10677351D01*
X47574498Y-10685323D01*
X47530321Y-10690404D01*
X47476788Y-10693322D01*
X47456271Y-10693938D01*
X47398325Y-10694574D01*
X47352778Y-10693100D01*
X47317658Y-10689423D01*
X47302961Y-10686631D01*
X47234826Y-10664976D01*
X47177012Y-10633165D01*
X47129245Y-10590940D01*
X47091253Y-10538040D01*
X47062764Y-10474209D01*
X47055836Y-10452222D01*
X47052592Y-10438868D01*
X47049896Y-10422389D01*
X47047678Y-10401260D01*
X47045864Y-10373955D01*
X47044381Y-10338951D01*
X47043157Y-10294720D01*
X47042119Y-10239739D01*
X47041193Y-10172481D01*
X47040779Y-10136415D01*
X47037779Y-9862457D01*
X46915614Y-9862457D01*
X46915614Y-9528629D01*
X47038685Y-9528629D01*
X47040649Y-9381672D01*
X47042614Y-9234715D01*
X47449014Y-9234715D01*
X47450978Y-9381672D01*
G36*
X44874580Y-9898743D02*
X44876431Y-10671629D01*
X44669565Y-10669597D01*
X44462700Y-10667565D01*
X44462700Y-10528356D01*
X44411949Y-10576232D01*
X44384538Y-10600539D01*
X44355628Y-10623679D01*
X44330190Y-10641742D01*
X44323049Y-10646129D01*
X44258535Y-10675548D01*
X44187615Y-10694087D01*
X44114167Y-10701111D01*
X44042067Y-10695985D01*
X44030900Y-10693992D01*
X43948229Y-10670930D01*
X43872971Y-10635639D01*
X43805639Y-10588658D01*
X43746743Y-10530527D01*
X43696794Y-10461784D01*
X43656304Y-10382969D01*
X43625783Y-10294620D01*
X43616542Y-10257009D01*
X43607631Y-10199013D01*
X43603686Y-10132726D01*
X43604603Y-10063421D01*
X43610278Y-9996368D01*
X43620606Y-9936840D01*
X43623062Y-9926909D01*
X43632595Y-9894314D01*
X43644449Y-9859457D01*
X43657489Y-9825060D01*
X43670579Y-9793841D01*
X43682583Y-9768521D01*
X43692367Y-9751820D01*
X43698413Y-9746406D01*
X43703525Y-9752124D01*
X43715885Y-9768267D01*
X43734441Y-9793355D01*
X43758140Y-9825905D01*
X43785930Y-9864438D01*
X43816758Y-9907472D01*
X43849571Y-9953526D01*
X43883315Y-10001121D01*
X43916939Y-10048774D01*
X43949390Y-10095004D01*
X43979614Y-10138332D01*
X44006560Y-10177277D01*
X44029173Y-10210356D01*
X44044693Y-10233497D01*
X44071689Y-10274337D01*
X44460079Y-10464551D01*
X44529952Y-10498709D01*
X44595872Y-10530817D01*
X44656702Y-10560327D01*
X44711302Y-10586693D01*
X44758533Y-10609368D01*
X44797257Y-10627805D01*
X44826336Y-10641457D01*
X44844630Y-10649778D01*
X44850992Y-10652241D01*
X44847498Y-10645948D01*
X44836545Y-10628717D01*
X44818843Y-10601610D01*
X44795096Y-10565688D01*
X44766013Y-10522014D01*
X44732301Y-10471650D01*
X44694665Y-10415658D01*
X44653814Y-10355100D01*
X44616379Y-10299780D01*
X44379243Y-9949842D01*
X44084281Y-9797293D01*
X44023809Y-9766073D01*
X43967293Y-9737002D01*
X43916036Y-9710743D01*
X43871342Y-9687958D01*
X43834514Y-9669311D01*
X43806855Y-9655464D01*
X43789670Y-9647079D01*
X43784273Y-9644743D01*
X43775062Y-9650814D01*
X43759257Y-9668380D01*
X43737697Y-9696471D01*
X43729103Y-9708392D01*
X43715658Y-9725059D01*
X43704824Y-9734556D01*
X43700659Y-9735433D01*
X43694390Y-9728347D01*
X43681527Y-9711576D01*
X43663740Y-9687369D01*
X43642700Y-9657973D01*
X43634531Y-9646383D01*
X43611303Y-9613418D01*
X43589427Y-9582594D01*
X43571042Y-9556914D01*
X43558291Y-9539379D01*
X43556232Y-9536617D01*
X43550315Y-9528338D01*
X43548221Y-9523377D01*
X43551387Y-9522253D01*
X43561253Y-9525483D01*
X43579256Y-9533585D01*
X43606834Y-9547076D01*
X43645425Y-9566475D01*
X43660912Y-9574306D01*
X43784157Y-9636665D01*
X43805928Y-9616065D01*
X43842264Y-9587106D01*
X43888287Y-9558709D01*
X43939334Y-9533614D01*
X43961957Y-9524411D01*
X43985051Y-9516045D01*
X44004983Y-9510291D01*
X44025408Y-9506661D01*
X44049984Y-9504670D01*
X44082366Y-9503830D01*
X44117985Y-9503660D01*
X44161204Y-9503940D01*
X44193498Y-9505129D01*
X44218448Y-9507625D01*
X44239634Y-9511829D01*
X44260638Y-9518140D01*
X44266757Y-9520263D01*
X44318855Y-9543277D01*
X44370510Y-9574222D01*
X44415817Y-9609385D01*
X44430096Y-9623033D01*
X44459071Y-9652713D01*
X44462700Y-9389285D01*
X44466328Y-9125857D01*
X44872728Y-9125857D01*
X44874580Y-9898743D01*
X44874580Y-9898743D01*
G37*
X44874580Y-9898743D02*
X44876431Y-10671629D01*
X44669565Y-10669597D01*
X44462700Y-10667565D01*
X44462700Y-10528356D01*
X44411949Y-10576232D01*
X44384538Y-10600539D01*
X44355628Y-10623679D01*
X44330190Y-10641742D01*
X44323049Y-10646129D01*
X44258535Y-10675548D01*
X44187615Y-10694087D01*
X44114167Y-10701111D01*
X44042067Y-10695985D01*
X44030900Y-10693992D01*
X43948229Y-10670930D01*
X43872971Y-10635639D01*
X43805639Y-10588658D01*
X43746743Y-10530527D01*
X43696794Y-10461784D01*
X43656304Y-10382969D01*
X43625783Y-10294620D01*
X43616542Y-10257009D01*
X43607631Y-10199013D01*
X43603686Y-10132726D01*
X43604603Y-10063421D01*
X43610278Y-9996368D01*
X43620606Y-9936840D01*
X43623062Y-9926909D01*
X43632595Y-9894314D01*
X43644449Y-9859457D01*
X43657489Y-9825060D01*
X43670579Y-9793841D01*
X43682583Y-9768521D01*
X43692367Y-9751820D01*
X43698413Y-9746406D01*
X43703525Y-9752124D01*
X43715885Y-9768267D01*
X43734441Y-9793355D01*
X43758140Y-9825905D01*
X43785930Y-9864438D01*
X43816758Y-9907472D01*
X43849571Y-9953526D01*
X43883315Y-10001121D01*
X43916939Y-10048774D01*
X43949390Y-10095004D01*
X43979614Y-10138332D01*
X44006560Y-10177277D01*
X44029173Y-10210356D01*
X44044693Y-10233497D01*
X44071689Y-10274337D01*
X44460079Y-10464551D01*
X44529952Y-10498709D01*
X44595872Y-10530817D01*
X44656702Y-10560327D01*
X44711302Y-10586693D01*
X44758533Y-10609368D01*
X44797257Y-10627805D01*
X44826336Y-10641457D01*
X44844630Y-10649778D01*
X44850992Y-10652241D01*
X44847498Y-10645948D01*
X44836545Y-10628717D01*
X44818843Y-10601610D01*
X44795096Y-10565688D01*
X44766013Y-10522014D01*
X44732301Y-10471650D01*
X44694665Y-10415658D01*
X44653814Y-10355100D01*
X44616379Y-10299780D01*
X44379243Y-9949842D01*
X44084281Y-9797293D01*
X44023809Y-9766073D01*
X43967293Y-9737002D01*
X43916036Y-9710743D01*
X43871342Y-9687958D01*
X43834514Y-9669311D01*
X43806855Y-9655464D01*
X43789670Y-9647079D01*
X43784273Y-9644743D01*
X43775062Y-9650814D01*
X43759257Y-9668380D01*
X43737697Y-9696471D01*
X43729103Y-9708392D01*
X43715658Y-9725059D01*
X43704824Y-9734556D01*
X43700659Y-9735433D01*
X43694390Y-9728347D01*
X43681527Y-9711576D01*
X43663740Y-9687369D01*
X43642700Y-9657973D01*
X43634531Y-9646383D01*
X43611303Y-9613418D01*
X43589427Y-9582594D01*
X43571042Y-9556914D01*
X43558291Y-9539379D01*
X43556232Y-9536617D01*
X43550315Y-9528338D01*
X43548221Y-9523377D01*
X43551387Y-9522253D01*
X43561253Y-9525483D01*
X43579256Y-9533585D01*
X43606834Y-9547076D01*
X43645425Y-9566475D01*
X43660912Y-9574306D01*
X43784157Y-9636665D01*
X43805928Y-9616065D01*
X43842264Y-9587106D01*
X43888287Y-9558709D01*
X43939334Y-9533614D01*
X43961957Y-9524411D01*
X43985051Y-9516045D01*
X44004983Y-9510291D01*
X44025408Y-9506661D01*
X44049984Y-9504670D01*
X44082366Y-9503830D01*
X44117985Y-9503660D01*
X44161204Y-9503940D01*
X44193498Y-9505129D01*
X44218448Y-9507625D01*
X44239634Y-9511829D01*
X44260638Y-9518140D01*
X44266757Y-9520263D01*
X44318855Y-9543277D01*
X44370510Y-9574222D01*
X44415817Y-9609385D01*
X44430096Y-9623033D01*
X44459071Y-9652713D01*
X44462700Y-9389285D01*
X44466328Y-9125857D01*
X44872728Y-9125857D01*
X44874580Y-9898743D01*
G36*
X42437192Y-9503289D02*
X42491625Y-9507286D01*
X42539146Y-9514061D01*
X42564546Y-9519994D01*
X42648854Y-9551398D01*
X42724614Y-9594254D01*
X42791150Y-9647945D01*
X42847790Y-9711851D01*
X42893856Y-9785353D01*
X42921547Y-9847692D01*
X42941430Y-9907313D01*
X42955858Y-9966924D01*
X42965692Y-10031061D01*
X42971792Y-10104258D01*
X42972416Y-10115869D01*
X42977221Y-10210800D01*
X42204155Y-10210800D01*
X42209067Y-10230757D01*
X42225782Y-10272363D01*
X42253533Y-10312528D01*
X42289042Y-10347425D01*
X42329026Y-10373227D01*
X42332684Y-10374951D01*
X42389852Y-10393283D01*
X42450510Y-10398508D01*
X42512710Y-10390976D01*
X42574501Y-10371036D01*
X42633934Y-10339036D01*
X42666474Y-10315155D01*
X42706356Y-10282668D01*
X42815271Y-10374038D01*
X42848785Y-10402412D01*
X42878119Y-10427744D01*
X42901579Y-10448528D01*
X42917469Y-10463259D01*
X42924093Y-10470432D01*
X42924185Y-10470728D01*
X42919055Y-10478864D01*
X42905292Y-10494091D01*
X42885337Y-10514115D01*
X42861630Y-10536646D01*
X42836612Y-10559391D01*
X42812723Y-10580057D01*
X42792405Y-10596352D01*
X42784031Y-10602358D01*
X42721379Y-10637795D01*
X42648987Y-10667273D01*
X42596944Y-10682841D01*
X42553492Y-10691338D01*
X42500750Y-10697522D01*
X42443776Y-10701148D01*
X42387629Y-10701970D01*
X42337368Y-10699743D01*
X42311239Y-10696701D01*
X42218175Y-10675435D01*
X42131628Y-10642211D01*
X42052690Y-10597702D01*
X41982450Y-10542583D01*
X41921998Y-10477528D01*
X41893747Y-10438412D01*
X41852664Y-10363418D01*
X41823552Y-10282976D01*
X41806129Y-10198815D01*
X41800117Y-10112666D01*
X41805237Y-10026259D01*
X41808745Y-10007600D01*
X42196657Y-10007600D01*
X42590357Y-10007600D01*
X42590357Y-9989730D01*
X42586120Y-9963683D01*
X42574916Y-9931625D01*
X42559000Y-9898749D01*
X42540632Y-9870248D01*
X42535851Y-9864334D01*
X42502057Y-9832969D01*
X42463531Y-9813639D01*
X42417562Y-9805173D01*
X42397566Y-9804560D01*
X42348517Y-9809137D01*
X42308285Y-9823311D01*
X42273863Y-9848259D01*
X42265993Y-9856128D01*
X42246536Y-9881806D01*
X42227257Y-9915727D01*
X42211175Y-9951899D01*
X42201311Y-9984331D01*
X42201283Y-9984469D01*
X42196657Y-10007600D01*
X41808745Y-10007600D01*
X41821207Y-9941324D01*
X41847749Y-9859593D01*
X41884583Y-9782794D01*
X41931429Y-9712660D01*
X41988007Y-9650918D01*
X42026218Y-9618843D01*
X42074300Y-9586934D01*
X42130336Y-9556836D01*
X42188097Y-9531620D01*
X42234757Y-9516082D01*
X42274627Y-9508466D01*
X42324471Y-9503829D01*
X42380067Y-9502120D01*
X42437192Y-9503289D01*
X42437192Y-9503289D01*
G37*
X42437192Y-9503289D02*
X42491625Y-9507286D01*
X42539146Y-9514061D01*
X42564546Y-9519994D01*
X42648854Y-9551398D01*
X42724614Y-9594254D01*
X42791150Y-9647945D01*
X42847790Y-9711851D01*
X42893856Y-9785353D01*
X42921547Y-9847692D01*
X42941430Y-9907313D01*
X42955858Y-9966924D01*
X42965692Y-10031061D01*
X42971792Y-10104258D01*
X42972416Y-10115869D01*
X42977221Y-10210800D01*
X42204155Y-10210800D01*
X42209067Y-10230757D01*
X42225782Y-10272363D01*
X42253533Y-10312528D01*
X42289042Y-10347425D01*
X42329026Y-10373227D01*
X42332684Y-10374951D01*
X42389852Y-10393283D01*
X42450510Y-10398508D01*
X42512710Y-10390976D01*
X42574501Y-10371036D01*
X42633934Y-10339036D01*
X42666474Y-10315155D01*
X42706356Y-10282668D01*
X42815271Y-10374038D01*
X42848785Y-10402412D01*
X42878119Y-10427744D01*
X42901579Y-10448528D01*
X42917469Y-10463259D01*
X42924093Y-10470432D01*
X42924185Y-10470728D01*
X42919055Y-10478864D01*
X42905292Y-10494091D01*
X42885337Y-10514115D01*
X42861630Y-10536646D01*
X42836612Y-10559391D01*
X42812723Y-10580057D01*
X42792405Y-10596352D01*
X42784031Y-10602358D01*
X42721379Y-10637795D01*
X42648987Y-10667273D01*
X42596944Y-10682841D01*
X42553492Y-10691338D01*
X42500750Y-10697522D01*
X42443776Y-10701148D01*
X42387629Y-10701970D01*
X42337368Y-10699743D01*
X42311239Y-10696701D01*
X42218175Y-10675435D01*
X42131628Y-10642211D01*
X42052690Y-10597702D01*
X41982450Y-10542583D01*
X41921998Y-10477528D01*
X41893747Y-10438412D01*
X41852664Y-10363418D01*
X41823552Y-10282976D01*
X41806129Y-10198815D01*
X41800117Y-10112666D01*
X41805237Y-10026259D01*
X41808745Y-10007600D01*
X42196657Y-10007600D01*
X42590357Y-10007600D01*
X42590357Y-9989730D01*
X42586120Y-9963683D01*
X42574916Y-9931625D01*
X42559000Y-9898749D01*
X42540632Y-9870248D01*
X42535851Y-9864334D01*
X42502057Y-9832969D01*
X42463531Y-9813639D01*
X42417562Y-9805173D01*
X42397566Y-9804560D01*
X42348517Y-9809137D01*
X42308285Y-9823311D01*
X42273863Y-9848259D01*
X42265993Y-9856128D01*
X42246536Y-9881806D01*
X42227257Y-9915727D01*
X42211175Y-9951899D01*
X42201311Y-9984331D01*
X42201283Y-9984469D01*
X42196657Y-10007600D01*
X41808745Y-10007600D01*
X41821207Y-9941324D01*
X41847749Y-9859593D01*
X41884583Y-9782794D01*
X41931429Y-9712660D01*
X41988007Y-9650918D01*
X42026218Y-9618843D01*
X42074300Y-9586934D01*
X42130336Y-9556836D01*
X42188097Y-9531620D01*
X42234757Y-9516082D01*
X42274627Y-9508466D01*
X42324471Y-9503829D01*
X42380067Y-9502120D01*
X42437192Y-9503289D01*
G36*
X44390582Y17303750D02*
X44400031Y17254211D01*
X44409159Y17210182D01*
X44417322Y17174481D01*
X44423878Y17149929D01*
X44428075Y17139449D01*
X44439058Y17132746D01*
X44462548Y17121361D01*
X44495288Y17106787D01*
X44534017Y17090518D01*
X44541326Y17087543D01*
X44645351Y17045423D01*
X44676792Y17066901D01*
X44743570Y17112368D01*
X44797628Y17148816D01*
X44840095Y17176971D01*
X44872098Y17197560D01*
X44894765Y17211310D01*
X44909225Y17218946D01*
X44916418Y17221200D01*
X44926263Y17215402D01*
X44945288Y17199579D01*
X44971127Y17176088D01*
X45001417Y17147285D01*
X45033791Y17115527D01*
X45065885Y17083170D01*
X45095333Y17052570D01*
X45119770Y17026085D01*
X45136832Y17006071D01*
X45144154Y16994884D01*
X45144267Y16994176D01*
X45139676Y16983862D01*
X45126970Y16962229D01*
X45107748Y16931823D01*
X45083609Y16895194D01*
X45063977Y16866242D01*
X45036847Y16826333D01*
X45012963Y16790518D01*
X44994057Y16761448D01*
X44981862Y16741776D01*
X44978241Y16735007D01*
X44979066Y16720606D01*
X44986271Y16694870D01*
X44998282Y16661412D01*
X45013525Y16623848D01*
X45030425Y16585790D01*
X45047409Y16550852D01*
X45062902Y16522649D01*
X45075331Y16504795D01*
X45080294Y16500694D01*
X45092284Y16497462D01*
X45117468Y16491846D01*
X45152385Y16484526D01*
X45193576Y16476179D01*
X45237579Y16467486D01*
X45280934Y16459125D01*
X45320181Y16451774D01*
X45351860Y16446114D01*
X45372510Y16442823D01*
X45378068Y16442267D01*
X45379065Y16434227D01*
X45379729Y16411806D01*
X45380037Y16377556D01*
X45379971Y16334026D01*
X45379510Y16283766D01*
X45379396Y16275082D01*
X45377100Y16107897D01*
X45343234Y16101126D01*
X45322411Y16097007D01*
X45289171Y16090483D01*
X45247721Y16082378D01*
X45202265Y16073514D01*
X45191714Y16071460D01*
X45074061Y16048567D01*
X45029033Y15938500D01*
X45012676Y15897657D01*
X44998927Y15861691D01*
X44988982Y15833850D01*
X44984034Y15817387D01*
X44983702Y15815132D01*
X44988182Y15803986D01*
X45000775Y15781566D01*
X45019892Y15750477D01*
X45043946Y15713325D01*
X45063692Y15683899D01*
X45090367Y15643999D01*
X45113310Y15608309D01*
X45130924Y15579425D01*
X45141613Y15559941D01*
X45144125Y15553145D01*
X45138399Y15543359D01*
X45122686Y15524345D01*
X45099332Y15498474D01*
X45070685Y15468121D01*
X45039090Y15435659D01*
X45006894Y15403462D01*
X44976442Y15373903D01*
X44950080Y15349355D01*
X44930155Y15332193D01*
X44919013Y15324789D01*
X44918283Y15324667D01*
X44908336Y15329268D01*
X44887056Y15342002D01*
X44856965Y15361265D01*
X44820584Y15385455D01*
X44791797Y15405100D01*
X44752675Y15431805D01*
X44718290Y15454760D01*
X44691092Y15472370D01*
X44673531Y15483041D01*
X44668201Y15485533D01*
X44657824Y15481957D01*
X44636545Y15472473D01*
X44608505Y15458950D01*
X44601321Y15455357D01*
X44573031Y15441570D01*
X44551239Y15431815D01*
X44539713Y15427752D01*
X44538856Y15427840D01*
X44534988Y15436137D01*
X44525638Y15457809D01*
X44511754Y15490567D01*
X44494287Y15532121D01*
X44474189Y15580184D01*
X44452409Y15632466D01*
X44429897Y15686678D01*
X44407605Y15740532D01*
X44386482Y15791738D01*
X44367478Y15838009D01*
X44351545Y15877054D01*
X44339633Y15906585D01*
X44332691Y15924314D01*
X44332533Y15924738D01*
X44324641Y15947545D01*
X44323298Y15959963D01*
X44328789Y15967338D01*
X44335040Y15971305D01*
X44349268Y15981220D01*
X44371843Y15998620D01*
X44398230Y16019996D01*
X44402043Y16023167D01*
X44452494Y16075260D01*
X44488956Y16134068D01*
X44511644Y16197372D01*
X44520773Y16262955D01*
X44516556Y16328598D01*
X44499209Y16392083D01*
X44468945Y16451191D01*
X44425979Y16503706D01*
X44370525Y16547409D01*
X44350250Y16559131D01*
X44283567Y16585722D01*
X44214680Y16596919D01*
X44145996Y16593445D01*
X44079925Y16576019D01*
X44018873Y16545360D01*
X43965248Y16502190D01*
X43921459Y16447228D01*
X43910023Y16427468D01*
X43882578Y16358981D01*
X43871096Y16288922D01*
X43875010Y16219389D01*
X43893753Y16152481D01*
X43926758Y16090297D01*
X43973457Y16034935D01*
X44027724Y15992027D01*
X44050040Y15975965D01*
X44065028Y15962108D01*
X44069000Y15955255D01*
X44065867Y15944707D01*
X44057120Y15921065D01*
X44043742Y15886829D01*
X44026714Y15844501D01*
X44007017Y15796583D01*
X44002295Y15785231D01*
X43979057Y15729370D01*
X43955262Y15671947D01*
X43932716Y15617341D01*
X43913228Y15569932D01*
X43899514Y15536334D01*
X43884333Y15499739D01*
X43870761Y15468504D01*
X43860417Y15446268D01*
X43855359Y15437143D01*
X43847020Y15433664D01*
X43830851Y15437272D01*
X43804195Y15448740D01*
X43787906Y15456753D01*
X43758647Y15470456D01*
X43734654Y15479806D01*
X43720280Y15483152D01*
X43718849Y15482922D01*
X43708870Y15477051D01*
X43687569Y15463249D01*
X43657538Y15443235D01*
X43621369Y15418730D01*
X43596843Y15401929D01*
X43558148Y15375745D01*
X43523868Y15353359D01*
X43496605Y15336408D01*
X43478959Y15326526D01*
X43473954Y15324667D01*
X43464838Y15330406D01*
X43445999Y15346342D01*
X43419541Y15370554D01*
X43387568Y15401122D01*
X43355561Y15432735D01*
X43320927Y15468131D01*
X43290910Y15500117D01*
X43267433Y15526537D01*
X43252420Y15545233D01*
X43247734Y15553676D01*
X43249121Y15560117D01*
X43253971Y15570544D01*
X43263317Y15586564D01*
X43278191Y15609781D01*
X43299626Y15641803D01*
X43328654Y15684235D01*
X43366309Y15738683D01*
X43371587Y15746289D01*
X43389353Y15773116D01*
X43402495Y15795311D01*
X43408568Y15808689D01*
X43408721Y15809789D01*
X43405815Y15820999D01*
X43397752Y15844797D01*
X43385653Y15878045D01*
X43370640Y15917605D01*
X43365074Y15931927D01*
X43349765Y15971722D01*
X43337524Y16001750D01*
X43325788Y16023778D01*
X43311994Y16039575D01*
X43293580Y16050909D01*
X43267983Y16059547D01*
X43232642Y16067259D01*
X43184992Y16075811D01*
X43146754Y16082560D01*
X43103052Y16090591D01*
X43065287Y16097907D01*
X43036602Y16103870D01*
X43020142Y16107841D01*
X43017637Y16108758D01*
X43015478Y16118175D01*
X43013591Y16141855D01*
X43012087Y16177130D01*
X43011076Y16221329D01*
X43010670Y16271784D01*
X43010667Y16276730D01*
X43010667Y16440394D01*
X43152484Y16466999D01*
X43200596Y16476253D01*
X43243841Y16484998D01*
X43279055Y16492561D01*
X43303073Y16498269D01*
X43311707Y16500872D01*
X43321774Y16511417D01*
X43335778Y16534320D01*
X43352142Y16565962D01*
X43369289Y16602728D01*
X43385645Y16641001D01*
X43399632Y16677165D01*
X43409674Y16707604D01*
X43414195Y16728701D01*
X43413760Y16735007D01*
X43407308Y16746499D01*
X43392931Y16769250D01*
X43372360Y16800607D01*
X43347328Y16837920D01*
X43328024Y16866242D01*
X43301321Y16905805D01*
X43278378Y16941012D01*
X43260795Y16969309D01*
X43250173Y16988140D01*
X43247734Y16994416D01*
X43253592Y17004474D01*
X43269580Y17023597D01*
X43293321Y17049437D01*
X43322435Y17079645D01*
X43354545Y17111873D01*
X43387271Y17143771D01*
X43418235Y17172993D01*
X43445059Y17197190D01*
X43465364Y17214012D01*
X43476771Y17221113D01*
X43477426Y17221200D01*
X43493683Y17216288D01*
X43511175Y17205668D01*
X43525177Y17195530D01*
X43550180Y17178037D01*
X43583141Y17155296D01*
X43621020Y17129411D01*
X43638865Y17117294D01*
X43746362Y17044452D01*
X43850531Y17087119D01*
X43889974Y17103707D01*
X43924012Y17118832D01*
X43949400Y17130994D01*
X43962896Y17138692D01*
X43963832Y17139510D01*
X43969313Y17151787D01*
X43976265Y17176424D01*
X43983530Y17209053D01*
X43986638Y17225433D01*
X43994980Y17271914D01*
X44004456Y17324713D01*
X44013209Y17373483D01*
X44014369Y17379950D01*
X44028426Y17458267D01*
X44362313Y17458267D01*
X44390582Y17303750D01*
X44390582Y17303750D01*
G37*
X44390582Y17303750D02*
X44400031Y17254211D01*
X44409159Y17210182D01*
X44417322Y17174481D01*
X44423878Y17149929D01*
X44428075Y17139449D01*
X44439058Y17132746D01*
X44462548Y17121361D01*
X44495288Y17106787D01*
X44534017Y17090518D01*
X44541326Y17087543D01*
X44645351Y17045423D01*
X44676792Y17066901D01*
X44743570Y17112368D01*
X44797628Y17148816D01*
X44840095Y17176971D01*
X44872098Y17197560D01*
X44894765Y17211310D01*
X44909225Y17218946D01*
X44916418Y17221200D01*
X44926263Y17215402D01*
X44945288Y17199579D01*
X44971127Y17176088D01*
X45001417Y17147285D01*
X45033791Y17115527D01*
X45065885Y17083170D01*
X45095333Y17052570D01*
X45119770Y17026085D01*
X45136832Y17006071D01*
X45144154Y16994884D01*
X45144267Y16994176D01*
X45139676Y16983862D01*
X45126970Y16962229D01*
X45107748Y16931823D01*
X45083609Y16895194D01*
X45063977Y16866242D01*
X45036847Y16826333D01*
X45012963Y16790518D01*
X44994057Y16761448D01*
X44981862Y16741776D01*
X44978241Y16735007D01*
X44979066Y16720606D01*
X44986271Y16694870D01*
X44998282Y16661412D01*
X45013525Y16623848D01*
X45030425Y16585790D01*
X45047409Y16550852D01*
X45062902Y16522649D01*
X45075331Y16504795D01*
X45080294Y16500694D01*
X45092284Y16497462D01*
X45117468Y16491846D01*
X45152385Y16484526D01*
X45193576Y16476179D01*
X45237579Y16467486D01*
X45280934Y16459125D01*
X45320181Y16451774D01*
X45351860Y16446114D01*
X45372510Y16442823D01*
X45378068Y16442267D01*
X45379065Y16434227D01*
X45379729Y16411806D01*
X45380037Y16377556D01*
X45379971Y16334026D01*
X45379510Y16283766D01*
X45379396Y16275082D01*
X45377100Y16107897D01*
X45343234Y16101126D01*
X45322411Y16097007D01*
X45289171Y16090483D01*
X45247721Y16082378D01*
X45202265Y16073514D01*
X45191714Y16071460D01*
X45074061Y16048567D01*
X45029033Y15938500D01*
X45012676Y15897657D01*
X44998927Y15861691D01*
X44988982Y15833850D01*
X44984034Y15817387D01*
X44983702Y15815132D01*
X44988182Y15803986D01*
X45000775Y15781566D01*
X45019892Y15750477D01*
X45043946Y15713325D01*
X45063692Y15683899D01*
X45090367Y15643999D01*
X45113310Y15608309D01*
X45130924Y15579425D01*
X45141613Y15559941D01*
X45144125Y15553145D01*
X45138399Y15543359D01*
X45122686Y15524345D01*
X45099332Y15498474D01*
X45070685Y15468121D01*
X45039090Y15435659D01*
X45006894Y15403462D01*
X44976442Y15373903D01*
X44950080Y15349355D01*
X44930155Y15332193D01*
X44919013Y15324789D01*
X44918283Y15324667D01*
X44908336Y15329268D01*
X44887056Y15342002D01*
X44856965Y15361265D01*
X44820584Y15385455D01*
X44791797Y15405100D01*
X44752675Y15431805D01*
X44718290Y15454760D01*
X44691092Y15472370D01*
X44673531Y15483041D01*
X44668201Y15485533D01*
X44657824Y15481957D01*
X44636545Y15472473D01*
X44608505Y15458950D01*
X44601321Y15455357D01*
X44573031Y15441570D01*
X44551239Y15431815D01*
X44539713Y15427752D01*
X44538856Y15427840D01*
X44534988Y15436137D01*
X44525638Y15457809D01*
X44511754Y15490567D01*
X44494287Y15532121D01*
X44474189Y15580184D01*
X44452409Y15632466D01*
X44429897Y15686678D01*
X44407605Y15740532D01*
X44386482Y15791738D01*
X44367478Y15838009D01*
X44351545Y15877054D01*
X44339633Y15906585D01*
X44332691Y15924314D01*
X44332533Y15924738D01*
X44324641Y15947545D01*
X44323298Y15959963D01*
X44328789Y15967338D01*
X44335040Y15971305D01*
X44349268Y15981220D01*
X44371843Y15998620D01*
X44398230Y16019996D01*
X44402043Y16023167D01*
X44452494Y16075260D01*
X44488956Y16134068D01*
X44511644Y16197372D01*
X44520773Y16262955D01*
X44516556Y16328598D01*
X44499209Y16392083D01*
X44468945Y16451191D01*
X44425979Y16503706D01*
X44370525Y16547409D01*
X44350250Y16559131D01*
X44283567Y16585722D01*
X44214680Y16596919D01*
X44145996Y16593445D01*
X44079925Y16576019D01*
X44018873Y16545360D01*
X43965248Y16502190D01*
X43921459Y16447228D01*
X43910023Y16427468D01*
X43882578Y16358981D01*
X43871096Y16288922D01*
X43875010Y16219389D01*
X43893753Y16152481D01*
X43926758Y16090297D01*
X43973457Y16034935D01*
X44027724Y15992027D01*
X44050040Y15975965D01*
X44065028Y15962108D01*
X44069000Y15955255D01*
X44065867Y15944707D01*
X44057120Y15921065D01*
X44043742Y15886829D01*
X44026714Y15844501D01*
X44007017Y15796583D01*
X44002295Y15785231D01*
X43979057Y15729370D01*
X43955262Y15671947D01*
X43932716Y15617341D01*
X43913228Y15569932D01*
X43899514Y15536334D01*
X43884333Y15499739D01*
X43870761Y15468504D01*
X43860417Y15446268D01*
X43855359Y15437143D01*
X43847020Y15433664D01*
X43830851Y15437272D01*
X43804195Y15448740D01*
X43787906Y15456753D01*
X43758647Y15470456D01*
X43734654Y15479806D01*
X43720280Y15483152D01*
X43718849Y15482922D01*
X43708870Y15477051D01*
X43687569Y15463249D01*
X43657538Y15443235D01*
X43621369Y15418730D01*
X43596843Y15401929D01*
X43558148Y15375745D01*
X43523868Y15353359D01*
X43496605Y15336408D01*
X43478959Y15326526D01*
X43473954Y15324667D01*
X43464838Y15330406D01*
X43445999Y15346342D01*
X43419541Y15370554D01*
X43387568Y15401122D01*
X43355561Y15432735D01*
X43320927Y15468131D01*
X43290910Y15500117D01*
X43267433Y15526537D01*
X43252420Y15545233D01*
X43247734Y15553676D01*
X43249121Y15560117D01*
X43253971Y15570544D01*
X43263317Y15586564D01*
X43278191Y15609781D01*
X43299626Y15641803D01*
X43328654Y15684235D01*
X43366309Y15738683D01*
X43371587Y15746289D01*
X43389353Y15773116D01*
X43402495Y15795311D01*
X43408568Y15808689D01*
X43408721Y15809789D01*
X43405815Y15820999D01*
X43397752Y15844797D01*
X43385653Y15878045D01*
X43370640Y15917605D01*
X43365074Y15931927D01*
X43349765Y15971722D01*
X43337524Y16001750D01*
X43325788Y16023778D01*
X43311994Y16039575D01*
X43293580Y16050909D01*
X43267983Y16059547D01*
X43232642Y16067259D01*
X43184992Y16075811D01*
X43146754Y16082560D01*
X43103052Y16090591D01*
X43065287Y16097907D01*
X43036602Y16103870D01*
X43020142Y16107841D01*
X43017637Y16108758D01*
X43015478Y16118175D01*
X43013591Y16141855D01*
X43012087Y16177130D01*
X43011076Y16221329D01*
X43010670Y16271784D01*
X43010667Y16276730D01*
X43010667Y16440394D01*
X43152484Y16466999D01*
X43200596Y16476253D01*
X43243841Y16484998D01*
X43279055Y16492561D01*
X43303073Y16498269D01*
X43311707Y16500872D01*
X43321774Y16511417D01*
X43335778Y16534320D01*
X43352142Y16565962D01*
X43369289Y16602728D01*
X43385645Y16641001D01*
X43399632Y16677165D01*
X43409674Y16707604D01*
X43414195Y16728701D01*
X43413760Y16735007D01*
X43407308Y16746499D01*
X43392931Y16769250D01*
X43372360Y16800607D01*
X43347328Y16837920D01*
X43328024Y16866242D01*
X43301321Y16905805D01*
X43278378Y16941012D01*
X43260795Y16969309D01*
X43250173Y16988140D01*
X43247734Y16994416D01*
X43253592Y17004474D01*
X43269580Y17023597D01*
X43293321Y17049437D01*
X43322435Y17079645D01*
X43354545Y17111873D01*
X43387271Y17143771D01*
X43418235Y17172993D01*
X43445059Y17197190D01*
X43465364Y17214012D01*
X43476771Y17221113D01*
X43477426Y17221200D01*
X43493683Y17216288D01*
X43511175Y17205668D01*
X43525177Y17195530D01*
X43550180Y17178037D01*
X43583141Y17155296D01*
X43621020Y17129411D01*
X43638865Y17117294D01*
X43746362Y17044452D01*
X43850531Y17087119D01*
X43889974Y17103707D01*
X43924012Y17118832D01*
X43949400Y17130994D01*
X43962896Y17138692D01*
X43963832Y17139510D01*
X43969313Y17151787D01*
X43976265Y17176424D01*
X43983530Y17209053D01*
X43986638Y17225433D01*
X43994980Y17271914D01*
X44004456Y17324713D01*
X44013209Y17373483D01*
X44014369Y17379950D01*
X44028426Y17458267D01*
X44362313Y17458267D01*
X44390582Y17303750D01*
G36*
X45186600Y15015633D02*
X45182367Y15011400D01*
X45178134Y15015633D01*
X45182367Y15019867D01*
X45186600Y15015633D01*
X45186600Y15015633D01*
G37*
X45186600Y15015633D02*
X45182367Y15011400D01*
X45178134Y15015633D01*
X45182367Y15019867D01*
X45186600Y15015633D01*
G36*
X45598009Y15085652D02*
X45645542Y15075168D01*
X45681503Y15052354D01*
X45705771Y15017353D01*
X45718227Y14970310D01*
X45720000Y14939705D01*
X45720000Y14892867D01*
X45622063Y14892867D01*
X45580207Y14892767D01*
X45552573Y14892096D01*
X45536451Y14890294D01*
X45529129Y14886803D01*
X45527897Y14881063D01*
X45529665Y14873817D01*
X45545392Y14846282D01*
X45571192Y14830020D01*
X45603619Y14826106D01*
X45639231Y14835615D01*
X45644249Y14838066D01*
X45662091Y14845753D01*
X45675524Y14844547D01*
X45692939Y14833486D01*
X45694552Y14832297D01*
X45710506Y14819254D01*
X45714170Y14810205D01*
X45707418Y14799872D01*
X45706453Y14798798D01*
X45674708Y14775350D01*
X45633619Y14761684D01*
X45588209Y14758620D01*
X45543501Y14766976D01*
X45533734Y14770646D01*
X45509698Y14785906D01*
X45487240Y14808238D01*
X45482934Y14814039D01*
X45472701Y14830883D01*
X45466394Y14847937D01*
X45463094Y14869955D01*
X45461879Y14901691D01*
X45461767Y14923376D01*
X45463109Y14965218D01*
X45525267Y14965218D01*
X45528316Y14958356D01*
X45539566Y14954326D01*
X45562173Y14952478D01*
X45588767Y14952133D01*
X45622069Y14952762D01*
X45641626Y14955080D01*
X45650593Y14959738D01*
X45652267Y14965218D01*
X45645207Y14983268D01*
X45627904Y15001697D01*
X45606168Y15015502D01*
X45588767Y15019867D01*
X45567793Y15013792D01*
X45546380Y14998900D01*
X45530338Y14980194D01*
X45525267Y14965218D01*
X45463109Y14965218D01*
X45463244Y14969422D01*
X45468945Y15003015D01*
X45480773Y15028475D01*
X45500631Y15050123D01*
X45526045Y15069304D01*
X45548795Y15081870D01*
X45572575Y15086445D01*
X45598009Y15085652D01*
X45598009Y15085652D01*
G37*
X45598009Y15085652D02*
X45645542Y15075168D01*
X45681503Y15052354D01*
X45705771Y15017353D01*
X45718227Y14970310D01*
X45720000Y14939705D01*
X45720000Y14892867D01*
X45622063Y14892867D01*
X45580207Y14892767D01*
X45552573Y14892096D01*
X45536451Y14890294D01*
X45529129Y14886803D01*
X45527897Y14881063D01*
X45529665Y14873817D01*
X45545392Y14846282D01*
X45571192Y14830020D01*
X45603619Y14826106D01*
X45639231Y14835615D01*
X45644249Y14838066D01*
X45662091Y14845753D01*
X45675524Y14844547D01*
X45692939Y14833486D01*
X45694552Y14832297D01*
X45710506Y14819254D01*
X45714170Y14810205D01*
X45707418Y14799872D01*
X45706453Y14798798D01*
X45674708Y14775350D01*
X45633619Y14761684D01*
X45588209Y14758620D01*
X45543501Y14766976D01*
X45533734Y14770646D01*
X45509698Y14785906D01*
X45487240Y14808238D01*
X45482934Y14814039D01*
X45472701Y14830883D01*
X45466394Y14847937D01*
X45463094Y14869955D01*
X45461879Y14901691D01*
X45461767Y14923376D01*
X45463109Y14965218D01*
X45525267Y14965218D01*
X45528316Y14958356D01*
X45539566Y14954326D01*
X45562173Y14952478D01*
X45588767Y14952133D01*
X45622069Y14952762D01*
X45641626Y14955080D01*
X45650593Y14959738D01*
X45652267Y14965218D01*
X45645207Y14983268D01*
X45627904Y15001697D01*
X45606168Y15015502D01*
X45588767Y15019867D01*
X45567793Y15013792D01*
X45546380Y14998900D01*
X45530338Y14980194D01*
X45525267Y14965218D01*
X45463109Y14965218D01*
X45463244Y14969422D01*
X45468945Y15003015D01*
X45480773Y15028475D01*
X45500631Y15050123D01*
X45526045Y15069304D01*
X45548795Y15081870D01*
X45572575Y15086445D01*
X45598009Y15085652D01*
G36*
X45353243Y15085004D02*
X45394057Y15071631D01*
X45427386Y15046114D01*
X45437756Y15033086D01*
X45437803Y15023599D01*
X45426750Y15010647D01*
X45423034Y15006919D01*
X45402263Y14986148D01*
X45367368Y15003412D01*
X45330141Y15014859D01*
X45298462Y15011013D01*
X45274102Y14993089D01*
X45258837Y14962301D01*
X45254334Y14925990D01*
X45257774Y14884803D01*
X45269073Y14856635D01*
X45289700Y14838823D01*
X45305962Y14832352D01*
X45328849Y14827341D01*
X45347202Y14830063D01*
X45369457Y14841431D01*
X45401046Y14860069D01*
X45422426Y14838689D01*
X45436147Y14823917D01*
X45438679Y14814290D01*
X45430876Y14803047D01*
X45427406Y14799188D01*
X45393608Y14773658D01*
X45351609Y14759626D01*
X45306544Y14758152D01*
X45271271Y14766912D01*
X45231290Y14791239D01*
X45203273Y14827464D01*
X45187329Y14875395D01*
X45183340Y14922500D01*
X45186720Y14971120D01*
X45197978Y15008570D01*
X45218786Y15039439D01*
X45230246Y15051053D01*
X45266909Y15074826D01*
X45309384Y15086106D01*
X45353243Y15085004D01*
X45353243Y15085004D01*
G37*
X45353243Y15085004D02*
X45394057Y15071631D01*
X45427386Y15046114D01*
X45437756Y15033086D01*
X45437803Y15023599D01*
X45426750Y15010647D01*
X45423034Y15006919D01*
X45402263Y14986148D01*
X45367368Y15003412D01*
X45330141Y15014859D01*
X45298462Y15011013D01*
X45274102Y14993089D01*
X45258837Y14962301D01*
X45254334Y14925990D01*
X45257774Y14884803D01*
X45269073Y14856635D01*
X45289700Y14838823D01*
X45305962Y14832352D01*
X45328849Y14827341D01*
X45347202Y14830063D01*
X45369457Y14841431D01*
X45401046Y14860069D01*
X45422426Y14838689D01*
X45436147Y14823917D01*
X45438679Y14814290D01*
X45430876Y14803047D01*
X45427406Y14799188D01*
X45393608Y14773658D01*
X45351609Y14759626D01*
X45306544Y14758152D01*
X45271271Y14766912D01*
X45231290Y14791239D01*
X45203273Y14827464D01*
X45187329Y14875395D01*
X45183340Y14922500D01*
X45186720Y14971120D01*
X45197978Y15008570D01*
X45218786Y15039439D01*
X45230246Y15051053D01*
X45266909Y15074826D01*
X45309384Y15086106D01*
X45353243Y15085004D01*
G36*
X45030806Y15086283D02*
X45040563Y15080682D01*
X45042667Y15069355D01*
X45043458Y15057033D01*
X45048671Y15057122D01*
X45060489Y15067238D01*
X45081104Y15077654D01*
X45110244Y15083097D01*
X45141416Y15083384D01*
X45168131Y15078330D01*
X45181596Y15070667D01*
X45188117Y15061181D01*
X45186013Y15050419D01*
X45173913Y15033384D01*
X45170092Y15028684D01*
X45154197Y15010905D01*
X45142552Y15004489D01*
X45129491Y15007070D01*
X45124027Y15009437D01*
X45095391Y15014397D01*
X45068797Y15005289D01*
X45051215Y14986152D01*
X45047122Y14969379D01*
X45044377Y14938507D01*
X45043164Y14896333D01*
X45043271Y14865097D01*
X45044742Y14761633D01*
X44974934Y14756427D01*
X44974934Y15087600D01*
X45008800Y15087600D01*
X45030806Y15086283D01*
X45030806Y15086283D01*
G37*
X45030806Y15086283D02*
X45040563Y15080682D01*
X45042667Y15069355D01*
X45043458Y15057033D01*
X45048671Y15057122D01*
X45060489Y15067238D01*
X45081104Y15077654D01*
X45110244Y15083097D01*
X45141416Y15083384D01*
X45168131Y15078330D01*
X45181596Y15070667D01*
X45188117Y15061181D01*
X45186013Y15050419D01*
X45173913Y15033384D01*
X45170092Y15028684D01*
X45154197Y15010905D01*
X45142552Y15004489D01*
X45129491Y15007070D01*
X45124027Y15009437D01*
X45095391Y15014397D01*
X45068797Y15005289D01*
X45051215Y14986152D01*
X45047122Y14969379D01*
X45044377Y14938507D01*
X45043164Y14896333D01*
X45043271Y14865097D01*
X45044742Y14761633D01*
X44974934Y14756427D01*
X44974934Y15087600D01*
X45008800Y15087600D01*
X45030806Y15086283D01*
G36*
X44873782Y15085970D02*
X44908097Y15083367D01*
X44908097Y14761633D01*
X44873782Y14759030D01*
X44851019Y14758819D01*
X44840972Y14763591D01*
X44839467Y14769831D01*
X44837850Y14778108D01*
X44830007Y14777715D01*
X44814487Y14770318D01*
X44779632Y14759647D01*
X44741457Y14759216D01*
X44707761Y14768930D01*
X44702923Y14771656D01*
X44683450Y14785788D01*
X44669242Y14802278D01*
X44659505Y14823920D01*
X44653441Y14853508D01*
X44650257Y14893834D01*
X44649156Y14947693D01*
X44649115Y14960600D01*
X44648967Y15083367D01*
X44684950Y15085970D01*
X44720934Y15088574D01*
X44720934Y14977635D01*
X44721088Y14932216D01*
X44721893Y14900492D01*
X44723858Y14879226D01*
X44727495Y14865181D01*
X44733314Y14855120D01*
X44741715Y14845915D01*
X44760930Y14831600D01*
X44779253Y14825161D01*
X44780200Y14825133D01*
X44798146Y14830885D01*
X44817582Y14844836D01*
X44818685Y14845915D01*
X44827164Y14855221D01*
X44832956Y14865308D01*
X44836572Y14879414D01*
X44838522Y14900778D01*
X44839316Y14932635D01*
X44839467Y14977635D01*
X44839467Y15088574D01*
X44873782Y15085970D01*
X44873782Y15085970D01*
G37*
X44873782Y15085970D02*
X44908097Y15083367D01*
X44908097Y14761633D01*
X44873782Y14759030D01*
X44851019Y14758819D01*
X44840972Y14763591D01*
X44839467Y14769831D01*
X44837850Y14778108D01*
X44830007Y14777715D01*
X44814487Y14770318D01*
X44779632Y14759647D01*
X44741457Y14759216D01*
X44707761Y14768930D01*
X44702923Y14771656D01*
X44683450Y14785788D01*
X44669242Y14802278D01*
X44659505Y14823920D01*
X44653441Y14853508D01*
X44650257Y14893834D01*
X44649156Y14947693D01*
X44649115Y14960600D01*
X44648967Y15083367D01*
X44684950Y15085970D01*
X44720934Y15088574D01*
X44720934Y14977635D01*
X44721088Y14932216D01*
X44721893Y14900492D01*
X44723858Y14879226D01*
X44727495Y14865181D01*
X44733314Y14855120D01*
X44741715Y14845915D01*
X44760930Y14831600D01*
X44779253Y14825161D01*
X44780200Y14825133D01*
X44798146Y14830885D01*
X44817582Y14844836D01*
X44818685Y14845915D01*
X44827164Y14855221D01*
X44832956Y14865308D01*
X44836572Y14879414D01*
X44838522Y14900778D01*
X44839316Y14932635D01*
X44839467Y14977635D01*
X44839467Y15088574D01*
X44873782Y15085970D01*
G36*
X44471166Y15086102D02*
X44477611Y15085686D01*
X44508593Y15081997D01*
X44530213Y15074208D01*
X44550014Y15059226D01*
X44556091Y15053484D01*
X44581819Y15020397D01*
X44596646Y14980165D01*
X44601418Y14929856D01*
X44600298Y14900022D01*
X44591000Y14845777D01*
X44571595Y14804858D01*
X44541855Y14776837D01*
X44531137Y14771002D01*
X44490109Y14759027D01*
X44447247Y14759021D01*
X44408806Y14770724D01*
X44399114Y14776450D01*
X44371182Y14797836D01*
X44352716Y14819521D01*
X44341876Y14845744D01*
X44336823Y14880744D01*
X44335720Y14921802D01*
X44407667Y14921802D01*
X44408208Y14889187D01*
X44410733Y14868702D01*
X44416591Y14855556D01*
X44427135Y14844957D01*
X44429975Y14842681D01*
X44452288Y14828513D01*
X44472286Y14826555D01*
X44496006Y14834885D01*
X44513859Y14847732D01*
X44522503Y14860689D01*
X44526750Y14885258D01*
X44527862Y14917260D01*
X44526073Y14949817D01*
X44521614Y14976051D01*
X44518319Y14984906D01*
X44500519Y15004041D01*
X44475875Y15014842D01*
X44452190Y15014109D01*
X44430269Y15003559D01*
X44416777Y14988339D01*
X44409869Y14964622D01*
X44407698Y14928581D01*
X44407667Y14921802D01*
X44335720Y14921802D01*
X44335700Y14922517D01*
X44337138Y14968698D01*
X44342704Y15002382D01*
X44354273Y15027855D01*
X44373725Y15049404D01*
X44399979Y15069299D01*
X44420618Y15081064D01*
X44441899Y15086148D01*
X44471166Y15086102D01*
X44471166Y15086102D01*
G37*
X44471166Y15086102D02*
X44477611Y15085686D01*
X44508593Y15081997D01*
X44530213Y15074208D01*
X44550014Y15059226D01*
X44556091Y15053484D01*
X44581819Y15020397D01*
X44596646Y14980165D01*
X44601418Y14929856D01*
X44600298Y14900022D01*
X44591000Y14845777D01*
X44571595Y14804858D01*
X44541855Y14776837D01*
X44531137Y14771002D01*
X44490109Y14759027D01*
X44447247Y14759021D01*
X44408806Y14770724D01*
X44399114Y14776450D01*
X44371182Y14797836D01*
X44352716Y14819521D01*
X44341876Y14845744D01*
X44336823Y14880744D01*
X44335720Y14921802D01*
X44407667Y14921802D01*
X44408208Y14889187D01*
X44410733Y14868702D01*
X44416591Y14855556D01*
X44427135Y14844957D01*
X44429975Y14842681D01*
X44452288Y14828513D01*
X44472286Y14826555D01*
X44496006Y14834885D01*
X44513859Y14847732D01*
X44522503Y14860689D01*
X44526750Y14885258D01*
X44527862Y14917260D01*
X44526073Y14949817D01*
X44521614Y14976051D01*
X44518319Y14984906D01*
X44500519Y15004041D01*
X44475875Y15014842D01*
X44452190Y15014109D01*
X44430269Y15003559D01*
X44416777Y14988339D01*
X44409869Y14964622D01*
X44407698Y14928581D01*
X44407667Y14921802D01*
X44335720Y14921802D01*
X44335700Y14922517D01*
X44337138Y14968698D01*
X44342704Y15002382D01*
X44354273Y15027855D01*
X44373725Y15049404D01*
X44399979Y15069299D01*
X44420618Y15081064D01*
X44441899Y15086148D01*
X44471166Y15086102D01*
G36*
X44227397Y15080170D02*
X44267628Y15063211D01*
X44278948Y15055427D01*
X44298396Y15040360D01*
X44277186Y15015676D01*
X44255976Y14990993D01*
X44225701Y15005430D01*
X44190756Y15017384D01*
X44159689Y15019490D01*
X44135672Y15012365D01*
X44121880Y14996623D01*
X44119800Y14984877D01*
X44121915Y14975371D01*
X44130291Y14968601D01*
X44147974Y14963462D01*
X44178011Y14958848D01*
X44198204Y14956440D01*
X44243554Y14945272D01*
X44277004Y14924466D01*
X44297355Y14895703D01*
X44303407Y14860662D01*
X44294307Y14821845D01*
X44273810Y14793379D01*
X44241593Y14772564D01*
X44201466Y14760300D01*
X44157237Y14757489D01*
X44112716Y14765030D01*
X44090167Y14773595D01*
X44064772Y14786662D01*
X44043452Y14799613D01*
X44039367Y14802573D01*
X44029059Y14811740D01*
X44028546Y14819774D01*
X44038754Y14832192D01*
X44045483Y14839054D01*
X44068533Y14862381D01*
X44101669Y14843757D01*
X44133289Y14830848D01*
X44165305Y14825731D01*
X44194150Y14827842D01*
X44216260Y14836619D01*
X44228068Y14851499D01*
X44228605Y14863793D01*
X44221851Y14875052D01*
X44204361Y14882749D01*
X44183234Y14887104D01*
X44137611Y14895424D01*
X44105516Y14903741D01*
X44083600Y14913427D01*
X44068514Y14925856D01*
X44059684Y14937778D01*
X44047675Y14970511D01*
X44047763Y15006238D01*
X44059551Y15038240D01*
X44066166Y15047093D01*
X44097174Y15070132D01*
X44137497Y15083447D01*
X44182463Y15086854D01*
X44227397Y15080170D01*
X44227397Y15080170D01*
G37*
X44227397Y15080170D02*
X44267628Y15063211D01*
X44278948Y15055427D01*
X44298396Y15040360D01*
X44277186Y15015676D01*
X44255976Y14990993D01*
X44225701Y15005430D01*
X44190756Y15017384D01*
X44159689Y15019490D01*
X44135672Y15012365D01*
X44121880Y14996623D01*
X44119800Y14984877D01*
X44121915Y14975371D01*
X44130291Y14968601D01*
X44147974Y14963462D01*
X44178011Y14958848D01*
X44198204Y14956440D01*
X44243554Y14945272D01*
X44277004Y14924466D01*
X44297355Y14895703D01*
X44303407Y14860662D01*
X44294307Y14821845D01*
X44273810Y14793379D01*
X44241593Y14772564D01*
X44201466Y14760300D01*
X44157237Y14757489D01*
X44112716Y14765030D01*
X44090167Y14773595D01*
X44064772Y14786662D01*
X44043452Y14799613D01*
X44039367Y14802573D01*
X44029059Y14811740D01*
X44028546Y14819774D01*
X44038754Y14832192D01*
X44045483Y14839054D01*
X44068533Y14862381D01*
X44101669Y14843757D01*
X44133289Y14830848D01*
X44165305Y14825731D01*
X44194150Y14827842D01*
X44216260Y14836619D01*
X44228068Y14851499D01*
X44228605Y14863793D01*
X44221851Y14875052D01*
X44204361Y14882749D01*
X44183234Y14887104D01*
X44137611Y14895424D01*
X44105516Y14903741D01*
X44083600Y14913427D01*
X44068514Y14925856D01*
X44059684Y14937778D01*
X44047675Y14970511D01*
X44047763Y15006238D01*
X44059551Y15038240D01*
X44066166Y15047093D01*
X44097174Y15070132D01*
X44137497Y15083447D01*
X44182463Y15086854D01*
X44227397Y15080170D01*
G36*
X43777340Y15082657D02*
X43804006Y15071010D01*
X43822873Y15057636D01*
X43836704Y15042070D01*
X43846294Y15021534D01*
X43852442Y14993254D01*
X43855944Y14954454D01*
X43857598Y14902357D01*
X43857855Y14883498D01*
X43859198Y14761633D01*
X43789600Y14756427D01*
X43789600Y14866042D01*
X43788752Y14920142D01*
X43785624Y14959559D01*
X43779338Y14986482D01*
X43769020Y15003104D01*
X43753793Y15011614D01*
X43732779Y15014205D01*
X43730334Y15014222D01*
X43708661Y15012089D01*
X43692879Y15004225D01*
X43682110Y14988440D01*
X43675472Y14962541D01*
X43672086Y14924335D01*
X43671072Y14871630D01*
X43671067Y14866529D01*
X43671067Y14757400D01*
X43636934Y14757400D01*
X43613050Y14759960D01*
X43599584Y14766632D01*
X43598632Y14768268D01*
X43597412Y14779914D01*
X43596594Y14805555D01*
X43596209Y14842258D01*
X43596291Y14887088D01*
X43596781Y14931251D01*
X43599100Y15083367D01*
X43630918Y15085999D01*
X43655316Y15085271D01*
X43666976Y15077287D01*
X43667727Y15075625D01*
X43673023Y15067564D01*
X43682968Y15068519D01*
X43696872Y15075110D01*
X43736354Y15086511D01*
X43777340Y15082657D01*
X43777340Y15082657D01*
G37*
X43777340Y15082657D02*
X43804006Y15071010D01*
X43822873Y15057636D01*
X43836704Y15042070D01*
X43846294Y15021534D01*
X43852442Y14993254D01*
X43855944Y14954454D01*
X43857598Y14902357D01*
X43857855Y14883498D01*
X43859198Y14761633D01*
X43789600Y14756427D01*
X43789600Y14866042D01*
X43788752Y14920142D01*
X43785624Y14959559D01*
X43779338Y14986482D01*
X43769020Y15003104D01*
X43753793Y15011614D01*
X43732779Y15014205D01*
X43730334Y15014222D01*
X43708661Y15012089D01*
X43692879Y15004225D01*
X43682110Y14988440D01*
X43675472Y14962541D01*
X43672086Y14924335D01*
X43671072Y14871630D01*
X43671067Y14866529D01*
X43671067Y14757400D01*
X43636934Y14757400D01*
X43613050Y14759960D01*
X43599584Y14766632D01*
X43598632Y14768268D01*
X43597412Y14779914D01*
X43596594Y14805555D01*
X43596209Y14842258D01*
X43596291Y14887088D01*
X43596781Y14931251D01*
X43599100Y15083367D01*
X43630918Y15085999D01*
X43655316Y15085271D01*
X43666976Y15077287D01*
X43667727Y15075625D01*
X43673023Y15067564D01*
X43682968Y15068519D01*
X43696872Y15075110D01*
X43736354Y15086511D01*
X43777340Y15082657D01*
G36*
X43465594Y15076973D02*
X43503187Y15057721D01*
X43529952Y15025503D01*
X43545997Y14980211D01*
X43550353Y14948918D01*
X43554852Y14892867D01*
X43349753Y14892867D01*
X43358343Y14870273D01*
X43369890Y14849339D01*
X43381416Y14836676D01*
X43404711Y14827566D01*
X43434788Y14826236D01*
X43463465Y14832539D01*
X43474518Y14838361D01*
X43488437Y14846220D01*
X43500520Y14845021D01*
X43518160Y14833961D01*
X43518735Y14833552D01*
X43535311Y14820319D01*
X43543739Y14810793D01*
X43544009Y14809740D01*
X43537607Y14801888D01*
X43521563Y14788927D01*
X43513372Y14783137D01*
X43476240Y14765774D01*
X43433585Y14758000D01*
X43391322Y14760084D01*
X43355363Y14772291D01*
X43349791Y14775737D01*
X43319365Y14801594D01*
X43299635Y14832288D01*
X43288994Y14871509D01*
X43285834Y14922500D01*
X43289762Y14969067D01*
X43357800Y14969067D01*
X43359399Y14960168D01*
X43366610Y14955070D01*
X43383053Y14952738D01*
X43412349Y14952138D01*
X43417067Y14952133D01*
X43448213Y14952590D01*
X43466057Y14954651D01*
X43474218Y14959349D01*
X43476317Y14967719D01*
X43476333Y14969067D01*
X43468763Y14991455D01*
X43449620Y15009748D01*
X43424260Y15019357D01*
X43417067Y15019867D01*
X43390948Y15013378D01*
X43369606Y14996970D01*
X43358395Y14975232D01*
X43357800Y14969067D01*
X43289762Y14969067D01*
X43290757Y14980861D01*
X43305733Y15025750D01*
X43331067Y15057543D01*
X43367068Y15076617D01*
X43414041Y15083347D01*
X43417067Y15083367D01*
X43465594Y15076973D01*
X43465594Y15076973D01*
G37*
X43465594Y15076973D02*
X43503187Y15057721D01*
X43529952Y15025503D01*
X43545997Y14980211D01*
X43550353Y14948918D01*
X43554852Y14892867D01*
X43349753Y14892867D01*
X43358343Y14870273D01*
X43369890Y14849339D01*
X43381416Y14836676D01*
X43404711Y14827566D01*
X43434788Y14826236D01*
X43463465Y14832539D01*
X43474518Y14838361D01*
X43488437Y14846220D01*
X43500520Y14845021D01*
X43518160Y14833961D01*
X43518735Y14833552D01*
X43535311Y14820319D01*
X43543739Y14810793D01*
X43544009Y14809740D01*
X43537607Y14801888D01*
X43521563Y14788927D01*
X43513372Y14783137D01*
X43476240Y14765774D01*
X43433585Y14758000D01*
X43391322Y14760084D01*
X43355363Y14772291D01*
X43349791Y14775737D01*
X43319365Y14801594D01*
X43299635Y14832288D01*
X43288994Y14871509D01*
X43285834Y14922500D01*
X43289762Y14969067D01*
X43357800Y14969067D01*
X43359399Y14960168D01*
X43366610Y14955070D01*
X43383053Y14952738D01*
X43412349Y14952138D01*
X43417067Y14952133D01*
X43448213Y14952590D01*
X43466057Y14954651D01*
X43474218Y14959349D01*
X43476317Y14967719D01*
X43476333Y14969067D01*
X43468763Y14991455D01*
X43449620Y15009748D01*
X43424260Y15019357D01*
X43417067Y15019867D01*
X43390948Y15013378D01*
X43369606Y14996970D01*
X43358395Y14975232D01*
X43357800Y14969067D01*
X43289762Y14969067D01*
X43290757Y14980861D01*
X43305733Y15025750D01*
X43331067Y15057543D01*
X43367068Y15076617D01*
X43414041Y15083347D01*
X43417067Y15083367D01*
X43465594Y15076973D01*
G36*
X42824972Y15084887D02*
X42864615Y15072267D01*
X42899060Y15047375D01*
X42913817Y15029391D01*
X42923901Y15012544D01*
X42930077Y14995136D01*
X42933268Y14972376D01*
X42934390Y14939471D01*
X42934467Y14921787D01*
X42933869Y14882801D01*
X42931508Y14856010D01*
X42926526Y14836700D01*
X42918071Y14820157D01*
X42915248Y14815802D01*
X42885356Y14785084D01*
X42846583Y14765216D01*
X42803555Y14757254D01*
X42760896Y14762253D01*
X42733306Y14774288D01*
X42704999Y14796220D01*
X42686359Y14823312D01*
X42675895Y14859038D01*
X42672117Y14906869D01*
X42672032Y14916987D01*
X42672523Y14927841D01*
X42739733Y14927841D01*
X42743505Y14882347D01*
X42754984Y14851414D01*
X42774413Y14834405D01*
X42775594Y14833910D01*
X42795024Y14827092D01*
X42808879Y14827226D01*
X42827080Y14834433D01*
X42827301Y14834534D01*
X42850677Y14854227D01*
X42863709Y14887150D01*
X42866618Y14920782D01*
X42864323Y14959019D01*
X42856731Y14984584D01*
X42842333Y15001310D01*
X42832551Y15007330D01*
X42809281Y15015001D01*
X42784954Y15011118D01*
X42782648Y15010334D01*
X42759831Y14998393D01*
X42746434Y14979720D01*
X42740511Y14950575D01*
X42739733Y14927841D01*
X42672523Y14927841D01*
X42674395Y14969158D01*
X42681646Y15006217D01*
X42685744Y15016637D01*
X42710516Y15051110D01*
X42744356Y15074109D01*
X42783696Y15085435D01*
X42824972Y15084887D01*
X42824972Y15084887D01*
G37*
X42824972Y15084887D02*
X42864615Y15072267D01*
X42899060Y15047375D01*
X42913817Y15029391D01*
X42923901Y15012544D01*
X42930077Y14995136D01*
X42933268Y14972376D01*
X42934390Y14939471D01*
X42934467Y14921787D01*
X42933869Y14882801D01*
X42931508Y14856010D01*
X42926526Y14836700D01*
X42918071Y14820157D01*
X42915248Y14815802D01*
X42885356Y14785084D01*
X42846583Y14765216D01*
X42803555Y14757254D01*
X42760896Y14762253D01*
X42733306Y14774288D01*
X42704999Y14796220D01*
X42686359Y14823312D01*
X42675895Y14859038D01*
X42672117Y14906869D01*
X42672032Y14916987D01*
X42672523Y14927841D01*
X42739733Y14927841D01*
X42743505Y14882347D01*
X42754984Y14851414D01*
X42774413Y14834405D01*
X42775594Y14833910D01*
X42795024Y14827092D01*
X42808879Y14827226D01*
X42827080Y14834433D01*
X42827301Y14834534D01*
X42850677Y14854227D01*
X42863709Y14887150D01*
X42866618Y14920782D01*
X42864323Y14959019D01*
X42856731Y14984584D01*
X42842333Y15001310D01*
X42832551Y15007330D01*
X42809281Y15015001D01*
X42784954Y15011118D01*
X42782648Y15010334D01*
X42759831Y14998393D01*
X42746434Y14979720D01*
X42740511Y14950575D01*
X42739733Y14927841D01*
X42672523Y14927841D01*
X42674395Y14969158D01*
X42681646Y15006217D01*
X42685744Y15016637D01*
X42710516Y15051110D01*
X42744356Y15074109D01*
X42783696Y15085435D01*
X42824972Y15084887D01*
G36*
X43307000Y14270567D02*
X43302767Y14266334D01*
X43298534Y14270567D01*
X43302767Y14274800D01*
X43307000Y14270567D01*
X43307000Y14270567D01*
G37*
X43307000Y14270567D02*
X43302767Y14266334D01*
X43298534Y14270567D01*
X43302767Y14274800D01*
X43307000Y14270567D01*
G36*
X45276079Y14580589D02*
X45302775Y14569963D01*
X45337848Y14546597D01*
X45361258Y14515767D01*
X45374893Y14474356D01*
X45379083Y14444086D01*
X45383685Y14393333D01*
X45280339Y14393333D01*
X45237132Y14393245D01*
X45208210Y14392635D01*
X45190926Y14390989D01*
X45182631Y14387790D01*
X45180678Y14382523D01*
X45182419Y14374671D01*
X45182532Y14374283D01*
X45197948Y14348602D01*
X45223721Y14331737D01*
X45254966Y14325120D01*
X45286802Y14330184D01*
X45303357Y14338855D01*
X45317089Y14346648D01*
X45328734Y14345326D01*
X45345383Y14333861D01*
X45347106Y14332505D01*
X45363357Y14318683D01*
X45371999Y14309416D01*
X45372398Y14308442D01*
X45366208Y14301699D01*
X45349878Y14289389D01*
X45337305Y14280925D01*
X45309283Y14265887D01*
X45281050Y14259317D01*
X45254755Y14258404D01*
X45225192Y14259951D01*
X45200502Y14263333D01*
X45190834Y14265990D01*
X45157397Y14288702D01*
X45131832Y14324194D01*
X45115677Y14369543D01*
X45110447Y14418678D01*
X45114160Y14452600D01*
X45179014Y14452600D01*
X45242074Y14452600D01*
X45275243Y14453236D01*
X45294674Y14455580D01*
X45303530Y14460289D01*
X45305134Y14465685D01*
X45299510Y14480236D01*
X45285826Y14498045D01*
X45284352Y14499552D01*
X45257393Y14517035D01*
X45229966Y14519080D01*
X45205806Y14506514D01*
X45188652Y14480167D01*
X45187931Y14478179D01*
X45179014Y14452600D01*
X45114160Y14452600D01*
X45116495Y14473926D01*
X45133382Y14519612D01*
X45159446Y14554429D01*
X45193025Y14577069D01*
X45232457Y14586225D01*
X45276079Y14580589D01*
X45276079Y14580589D01*
G37*
X45276079Y14580589D02*
X45302775Y14569963D01*
X45337848Y14546597D01*
X45361258Y14515767D01*
X45374893Y14474356D01*
X45379083Y14444086D01*
X45383685Y14393333D01*
X45280339Y14393333D01*
X45237132Y14393245D01*
X45208210Y14392635D01*
X45190926Y14390989D01*
X45182631Y14387790D01*
X45180678Y14382523D01*
X45182419Y14374671D01*
X45182532Y14374283D01*
X45197948Y14348602D01*
X45223721Y14331737D01*
X45254966Y14325120D01*
X45286802Y14330184D01*
X45303357Y14338855D01*
X45317089Y14346648D01*
X45328734Y14345326D01*
X45345383Y14333861D01*
X45347106Y14332505D01*
X45363357Y14318683D01*
X45371999Y14309416D01*
X45372398Y14308442D01*
X45366208Y14301699D01*
X45349878Y14289389D01*
X45337305Y14280925D01*
X45309283Y14265887D01*
X45281050Y14259317D01*
X45254755Y14258404D01*
X45225192Y14259951D01*
X45200502Y14263333D01*
X45190834Y14265990D01*
X45157397Y14288702D01*
X45131832Y14324194D01*
X45115677Y14369543D01*
X45110447Y14418678D01*
X45114160Y14452600D01*
X45179014Y14452600D01*
X45242074Y14452600D01*
X45275243Y14453236D01*
X45294674Y14455580D01*
X45303530Y14460289D01*
X45305134Y14465685D01*
X45299510Y14480236D01*
X45285826Y14498045D01*
X45284352Y14499552D01*
X45257393Y14517035D01*
X45229966Y14519080D01*
X45205806Y14506514D01*
X45188652Y14480167D01*
X45187931Y14478179D01*
X45179014Y14452600D01*
X45114160Y14452600D01*
X45116495Y14473926D01*
X45133382Y14519612D01*
X45159446Y14554429D01*
X45193025Y14577069D01*
X45232457Y14586225D01*
X45276079Y14580589D01*
G36*
X45080009Y14579850D02*
X45101592Y14570861D01*
X45108884Y14560368D01*
X45102862Y14544321D01*
X45092274Y14528998D01*
X45079573Y14514160D01*
X45066398Y14507904D01*
X45046018Y14507935D01*
X45034213Y14509210D01*
X45009972Y14510609D01*
X44992254Y14506806D01*
X44980061Y14495689D01*
X44972393Y14475147D01*
X44968252Y14443069D01*
X44966639Y14397344D01*
X44966467Y14366050D01*
X44966467Y14257867D01*
X44890267Y14257867D01*
X44890267Y14417322D01*
X44890459Y14467501D01*
X44890993Y14511606D01*
X44891807Y14546943D01*
X44892839Y14570815D01*
X44894024Y14580528D01*
X44894060Y14580571D01*
X44904093Y14582223D01*
X44924514Y14581720D01*
X44932160Y14581093D01*
X44956592Y14576221D01*
X44966175Y14567229D01*
X44966467Y14564699D01*
X44968058Y14556397D01*
X44975535Y14559989D01*
X44981839Y14565487D01*
X45010561Y14581064D01*
X45046726Y14585664D01*
X45080009Y14579850D01*
X45080009Y14579850D01*
G37*
X45080009Y14579850D02*
X45101592Y14570861D01*
X45108884Y14560368D01*
X45102862Y14544321D01*
X45092274Y14528998D01*
X45079573Y14514160D01*
X45066398Y14507904D01*
X45046018Y14507935D01*
X45034213Y14509210D01*
X45009972Y14510609D01*
X44992254Y14506806D01*
X44980061Y14495689D01*
X44972393Y14475147D01*
X44968252Y14443069D01*
X44966639Y14397344D01*
X44966467Y14366050D01*
X44966467Y14257867D01*
X44890267Y14257867D01*
X44890267Y14417322D01*
X44890459Y14467501D01*
X44890993Y14511606D01*
X44891807Y14546943D01*
X44892839Y14570815D01*
X44894024Y14580528D01*
X44894060Y14580571D01*
X44904093Y14582223D01*
X44924514Y14581720D01*
X44932160Y14581093D01*
X44956592Y14576221D01*
X44966175Y14567229D01*
X44966467Y14564699D01*
X44968058Y14556397D01*
X44975535Y14559989D01*
X44981839Y14565487D01*
X45010561Y14581064D01*
X45046726Y14585664D01*
X45080009Y14579850D01*
G36*
X44754620Y14579214D02*
X44783136Y14568006D01*
X44785929Y14566084D01*
X44802255Y14552470D01*
X44814095Y14537627D01*
X44822159Y14518662D01*
X44827155Y14492684D01*
X44829793Y14456801D01*
X44830781Y14408122D01*
X44830875Y14382750D01*
X44831000Y14257867D01*
X44797839Y14257867D01*
X44775112Y14260368D01*
X44761843Y14266717D01*
X44760797Y14268450D01*
X44755144Y14274788D01*
X44745699Y14268450D01*
X44729233Y14261678D01*
X44702237Y14258668D01*
X44670663Y14259298D01*
X44640461Y14263444D01*
X44617582Y14270981D01*
X44617323Y14271120D01*
X44589434Y14295107D01*
X44573377Y14327902D01*
X44570700Y14360862D01*
X44636267Y14360862D01*
X44641720Y14341800D01*
X44659234Y14330427D01*
X44690539Y14325809D01*
X44701670Y14325600D01*
X44728471Y14326460D01*
X44743434Y14330415D01*
X44751622Y14339527D01*
X44755010Y14347318D01*
X44762651Y14371593D01*
X44760839Y14385460D01*
X44747177Y14391758D01*
X44719264Y14393327D01*
X44716144Y14393333D01*
X44674082Y14390218D01*
X44647626Y14380833D01*
X44636627Y14365117D01*
X44636267Y14360862D01*
X44570700Y14360862D01*
X44570352Y14365133D01*
X44581377Y14402077D01*
X44600694Y14427115D01*
X44629355Y14443159D01*
X44669752Y14451198D01*
X44703580Y14452600D01*
X44734859Y14453051D01*
X44752824Y14455085D01*
X44761083Y14459728D01*
X44763245Y14468002D01*
X44763267Y14469533D01*
X44755895Y14492816D01*
X44736807Y14509774D01*
X44710542Y14518820D01*
X44681640Y14518370D01*
X44655241Y14507264D01*
X44641603Y14499618D01*
X44629662Y14500926D01*
X44612318Y14512135D01*
X44610884Y14513193D01*
X44593193Y14528767D01*
X44589811Y14541628D01*
X44600993Y14555908D01*
X44614138Y14566385D01*
X44640854Y14578264D01*
X44677295Y14584354D01*
X44717278Y14584668D01*
X44754620Y14579214D01*
X44754620Y14579214D01*
G37*
X44754620Y14579214D02*
X44783136Y14568006D01*
X44785929Y14566084D01*
X44802255Y14552470D01*
X44814095Y14537627D01*
X44822159Y14518662D01*
X44827155Y14492684D01*
X44829793Y14456801D01*
X44830781Y14408122D01*
X44830875Y14382750D01*
X44831000Y14257867D01*
X44797839Y14257867D01*
X44775112Y14260368D01*
X44761843Y14266717D01*
X44760797Y14268450D01*
X44755144Y14274788D01*
X44745699Y14268450D01*
X44729233Y14261678D01*
X44702237Y14258668D01*
X44670663Y14259298D01*
X44640461Y14263444D01*
X44617582Y14270981D01*
X44617323Y14271120D01*
X44589434Y14295107D01*
X44573377Y14327902D01*
X44570700Y14360862D01*
X44636267Y14360862D01*
X44641720Y14341800D01*
X44659234Y14330427D01*
X44690539Y14325809D01*
X44701670Y14325600D01*
X44728471Y14326460D01*
X44743434Y14330415D01*
X44751622Y14339527D01*
X44755010Y14347318D01*
X44762651Y14371593D01*
X44760839Y14385460D01*
X44747177Y14391758D01*
X44719264Y14393327D01*
X44716144Y14393333D01*
X44674082Y14390218D01*
X44647626Y14380833D01*
X44636627Y14365117D01*
X44636267Y14360862D01*
X44570700Y14360862D01*
X44570352Y14365133D01*
X44581377Y14402077D01*
X44600694Y14427115D01*
X44629355Y14443159D01*
X44669752Y14451198D01*
X44703580Y14452600D01*
X44734859Y14453051D01*
X44752824Y14455085D01*
X44761083Y14459728D01*
X44763245Y14468002D01*
X44763267Y14469533D01*
X44755895Y14492816D01*
X44736807Y14509774D01*
X44710542Y14518820D01*
X44681640Y14518370D01*
X44655241Y14507264D01*
X44641603Y14499618D01*
X44629662Y14500926D01*
X44612318Y14512135D01*
X44610884Y14513193D01*
X44593193Y14528767D01*
X44589811Y14541628D01*
X44600993Y14555908D01*
X44614138Y14566385D01*
X44640854Y14578264D01*
X44677295Y14584354D01*
X44717278Y14584668D01*
X44754620Y14579214D01*
G36*
X44530433Y14582309D02*
X44552539Y14580782D01*
X44562049Y14575097D01*
X44563412Y14566058D01*
X44560571Y14553052D01*
X44553235Y14526920D01*
X44542286Y14490592D01*
X44528604Y14446999D01*
X44515355Y14406033D01*
X44468184Y14262100D01*
X44404180Y14262100D01*
X44373417Y14366979D01*
X44342654Y14471857D01*
X44320808Y14400845D01*
X44309303Y14363223D01*
X44298342Y14327001D01*
X44289916Y14298765D01*
X44288475Y14293850D01*
X44280832Y14271455D01*
X44271826Y14261016D01*
X44256213Y14258005D01*
X44246786Y14257867D01*
X44215585Y14257867D01*
X44180608Y14365817D01*
X44158534Y14434280D01*
X44141480Y14487983D01*
X44129060Y14528213D01*
X44120889Y14556258D01*
X44116580Y14573405D01*
X44115748Y14580941D01*
X44115982Y14581426D01*
X44125218Y14582412D01*
X44145398Y14581812D01*
X44155555Y14581112D01*
X44180924Y14576973D01*
X44192504Y14568971D01*
X44193974Y14564070D01*
X44197521Y14544110D01*
X44204317Y14516326D01*
X44213237Y14484314D01*
X44223158Y14451668D01*
X44232955Y14421981D01*
X44241502Y14398849D01*
X44247676Y14385864D01*
X44250042Y14384867D01*
X44254720Y14397816D01*
X44263343Y14422925D01*
X44274573Y14456265D01*
X44284141Y14485033D01*
X44296118Y14520730D01*
X44306230Y14549922D01*
X44313277Y14569204D01*
X44315922Y14575226D01*
X44325477Y14578124D01*
X44342692Y14580893D01*
X44352467Y14581564D01*
X44360124Y14579153D01*
X44367038Y14571194D01*
X44374589Y14555220D01*
X44384154Y14528762D01*
X44397110Y14489354D01*
X44401650Y14475303D01*
X44436682Y14366772D01*
X44466624Y14474621D01*
X44496567Y14582469D01*
X44530433Y14582309D01*
X44530433Y14582309D01*
G37*
X44530433Y14582309D02*
X44552539Y14580782D01*
X44562049Y14575097D01*
X44563412Y14566058D01*
X44560571Y14553052D01*
X44553235Y14526920D01*
X44542286Y14490592D01*
X44528604Y14446999D01*
X44515355Y14406033D01*
X44468184Y14262100D01*
X44404180Y14262100D01*
X44373417Y14366979D01*
X44342654Y14471857D01*
X44320808Y14400845D01*
X44309303Y14363223D01*
X44298342Y14327001D01*
X44289916Y14298765D01*
X44288475Y14293850D01*
X44280832Y14271455D01*
X44271826Y14261016D01*
X44256213Y14258005D01*
X44246786Y14257867D01*
X44215585Y14257867D01*
X44180608Y14365817D01*
X44158534Y14434280D01*
X44141480Y14487983D01*
X44129060Y14528213D01*
X44120889Y14556258D01*
X44116580Y14573405D01*
X44115748Y14580941D01*
X44115982Y14581426D01*
X44125218Y14582412D01*
X44145398Y14581812D01*
X44155555Y14581112D01*
X44180924Y14576973D01*
X44192504Y14568971D01*
X44193974Y14564070D01*
X44197521Y14544110D01*
X44204317Y14516326D01*
X44213237Y14484314D01*
X44223158Y14451668D01*
X44232955Y14421981D01*
X44241502Y14398849D01*
X44247676Y14385864D01*
X44250042Y14384867D01*
X44254720Y14397816D01*
X44263343Y14422925D01*
X44274573Y14456265D01*
X44284141Y14485033D01*
X44296118Y14520730D01*
X44306230Y14549922D01*
X44313277Y14569204D01*
X44315922Y14575226D01*
X44325477Y14578124D01*
X44342692Y14580893D01*
X44352467Y14581564D01*
X44360124Y14579153D01*
X44367038Y14571194D01*
X44374589Y14555220D01*
X44384154Y14528762D01*
X44397110Y14489354D01*
X44401650Y14475303D01*
X44436682Y14366772D01*
X44466624Y14474621D01*
X44496567Y14582469D01*
X44530433Y14582309D01*
G36*
X44085934Y14257867D02*
X44052067Y14257867D01*
X44028661Y14259903D01*
X44018916Y14266738D01*
X44018200Y14270784D01*
X44016502Y14278695D01*
X44008436Y14278058D01*
X43993221Y14270784D01*
X43968855Y14262697D01*
X43938352Y14258197D01*
X43928874Y14257867D01*
X43900949Y14260068D01*
X43880488Y14269184D01*
X43861537Y14285836D01*
X43843768Y14306967D01*
X43833505Y14330073D01*
X43827476Y14362565D01*
X43827399Y14363176D01*
X43824858Y14399987D01*
X43824866Y14416405D01*
X43898277Y14416405D01*
X43901339Y14382820D01*
X43908658Y14355387D01*
X43916600Y14342534D01*
X43942007Y14327775D01*
X43970674Y14328583D01*
X43989784Y14337987D01*
X44002704Y14355748D01*
X44010839Y14384181D01*
X44014142Y14418149D01*
X44012568Y14452519D01*
X44006070Y14482156D01*
X43994600Y14501925D01*
X43991296Y14504509D01*
X43967882Y14511269D01*
X43939941Y14509267D01*
X43916901Y14499326D01*
X43915150Y14497855D01*
X43905130Y14479543D01*
X43899523Y14450520D01*
X43898277Y14416405D01*
X43824866Y14416405D01*
X43824881Y14442156D01*
X43826434Y14468267D01*
X43830541Y14500723D01*
X43837108Y14522593D01*
X43848671Y14540225D01*
X43860068Y14552419D01*
X43895374Y14577524D01*
X43933897Y14586178D01*
X43974321Y14578172D01*
X43986450Y14572580D01*
X44018200Y14556026D01*
X44018200Y14715067D01*
X44085934Y14715067D01*
X44085934Y14257867D01*
X44085934Y14257867D01*
G37*
X44085934Y14257867D02*
X44052067Y14257867D01*
X44028661Y14259903D01*
X44018916Y14266738D01*
X44018200Y14270784D01*
X44016502Y14278695D01*
X44008436Y14278058D01*
X43993221Y14270784D01*
X43968855Y14262697D01*
X43938352Y14258197D01*
X43928874Y14257867D01*
X43900949Y14260068D01*
X43880488Y14269184D01*
X43861537Y14285836D01*
X43843768Y14306967D01*
X43833505Y14330073D01*
X43827476Y14362565D01*
X43827399Y14363176D01*
X43824858Y14399987D01*
X43824866Y14416405D01*
X43898277Y14416405D01*
X43901339Y14382820D01*
X43908658Y14355387D01*
X43916600Y14342534D01*
X43942007Y14327775D01*
X43970674Y14328583D01*
X43989784Y14337987D01*
X44002704Y14355748D01*
X44010839Y14384181D01*
X44014142Y14418149D01*
X44012568Y14452519D01*
X44006070Y14482156D01*
X43994600Y14501925D01*
X43991296Y14504509D01*
X43967882Y14511269D01*
X43939941Y14509267D01*
X43916901Y14499326D01*
X43915150Y14497855D01*
X43905130Y14479543D01*
X43899523Y14450520D01*
X43898277Y14416405D01*
X43824866Y14416405D01*
X43824881Y14442156D01*
X43826434Y14468267D01*
X43830541Y14500723D01*
X43837108Y14522593D01*
X43848671Y14540225D01*
X43860068Y14552419D01*
X43895374Y14577524D01*
X43933897Y14586178D01*
X43974321Y14578172D01*
X43986450Y14572580D01*
X44018200Y14556026D01*
X44018200Y14715067D01*
X44085934Y14715067D01*
X44085934Y14257867D01*
G36*
X43784136Y14584110D02*
X43807144Y14575051D01*
X43832314Y14562035D01*
X43810159Y14532989D01*
X43794657Y14514811D01*
X43780584Y14507505D01*
X43760091Y14507838D01*
X43751714Y14508917D01*
X43725850Y14510533D01*
X43708739Y14505241D01*
X43697479Y14495946D01*
X43690079Y14487224D01*
X43685040Y14476390D01*
X43681914Y14460259D01*
X43680254Y14435644D01*
X43679614Y14399360D01*
X43679534Y14367933D01*
X43679534Y14257867D01*
X43612508Y14257867D01*
X43610038Y14419458D01*
X43609353Y14469804D01*
X43608914Y14513923D01*
X43608735Y14549187D01*
X43608828Y14572965D01*
X43609206Y14582627D01*
X43609244Y14582707D01*
X43617856Y14583021D01*
X43637352Y14581796D01*
X43645227Y14581093D01*
X43669697Y14576017D01*
X43679438Y14567262D01*
X43679534Y14566135D01*
X43683021Y14560426D01*
X43695351Y14564523D01*
X43707050Y14571226D01*
X43745427Y14586128D01*
X43784136Y14584110D01*
X43784136Y14584110D01*
G37*
X43784136Y14584110D02*
X43807144Y14575051D01*
X43832314Y14562035D01*
X43810159Y14532989D01*
X43794657Y14514811D01*
X43780584Y14507505D01*
X43760091Y14507838D01*
X43751714Y14508917D01*
X43725850Y14510533D01*
X43708739Y14505241D01*
X43697479Y14495946D01*
X43690079Y14487224D01*
X43685040Y14476390D01*
X43681914Y14460259D01*
X43680254Y14435644D01*
X43679614Y14399360D01*
X43679534Y14367933D01*
X43679534Y14257867D01*
X43612508Y14257867D01*
X43610038Y14419458D01*
X43609353Y14469804D01*
X43608914Y14513923D01*
X43608735Y14549187D01*
X43608828Y14572965D01*
X43609206Y14582627D01*
X43609244Y14582707D01*
X43617856Y14583021D01*
X43637352Y14581796D01*
X43645227Y14581093D01*
X43669697Y14576017D01*
X43679438Y14567262D01*
X43679534Y14566135D01*
X43683021Y14560426D01*
X43695351Y14564523D01*
X43707050Y14571226D01*
X43745427Y14586128D01*
X43784136Y14584110D01*
G36*
X43457932Y14582075D02*
X43498594Y14565169D01*
X43522356Y14544836D01*
X43530610Y14534421D01*
X43536453Y14523990D01*
X43540300Y14510545D01*
X43542569Y14491086D01*
X43543675Y14462616D01*
X43544036Y14422135D01*
X43544067Y14388451D01*
X43544067Y14257867D01*
X43510200Y14257867D01*
X43488994Y14259811D01*
X43477198Y14264666D01*
X43476333Y14266631D01*
X43471151Y14271071D01*
X43459957Y14266631D01*
X43434065Y14259367D01*
X43399607Y14257867D01*
X43363790Y14261728D01*
X43333820Y14270549D01*
X43327156Y14274035D01*
X43304023Y14296320D01*
X43287406Y14327470D01*
X43281600Y14357334D01*
X43282338Y14360317D01*
X43350482Y14360317D01*
X43354363Y14342992D01*
X43364150Y14334745D01*
X43383726Y14328652D01*
X43410692Y14326191D01*
X43438260Y14327297D01*
X43459643Y14331900D01*
X43466174Y14335760D01*
X43473770Y14351362D01*
X43476333Y14369627D01*
X43475514Y14382810D01*
X43470379Y14389892D01*
X43456916Y14392767D01*
X43431113Y14393331D01*
X43426138Y14393333D01*
X43389137Y14390887D01*
X43366730Y14383318D01*
X43362638Y14380029D01*
X43350482Y14360317D01*
X43282338Y14360317D01*
X43288324Y14384507D01*
X43305368Y14412515D01*
X43328044Y14434353D01*
X43336451Y14439246D01*
X43364019Y14447457D01*
X43401350Y14452026D01*
X43420463Y14452600D01*
X43450375Y14453024D01*
X43467125Y14455153D01*
X43474477Y14460274D01*
X43476199Y14469674D01*
X43476204Y14471650D01*
X43471834Y14495578D01*
X43457131Y14509936D01*
X43429098Y14517532D01*
X43426932Y14517833D01*
X43393762Y14517848D01*
X43370376Y14508331D01*
X43355075Y14499752D01*
X43343351Y14500309D01*
X43327599Y14510867D01*
X43324135Y14513590D01*
X43308570Y14528357D01*
X43301555Y14539978D01*
X43301578Y14541500D01*
X43311104Y14552126D01*
X43331817Y14564394D01*
X43358436Y14576000D01*
X43385679Y14584643D01*
X43408265Y14588020D01*
X43408277Y14588020D01*
X43457932Y14582075D01*
X43457932Y14582075D01*
G37*
X43457932Y14582075D02*
X43498594Y14565169D01*
X43522356Y14544836D01*
X43530610Y14534421D01*
X43536453Y14523990D01*
X43540300Y14510545D01*
X43542569Y14491086D01*
X43543675Y14462616D01*
X43544036Y14422135D01*
X43544067Y14388451D01*
X43544067Y14257867D01*
X43510200Y14257867D01*
X43488994Y14259811D01*
X43477198Y14264666D01*
X43476333Y14266631D01*
X43471151Y14271071D01*
X43459957Y14266631D01*
X43434065Y14259367D01*
X43399607Y14257867D01*
X43363790Y14261728D01*
X43333820Y14270549D01*
X43327156Y14274035D01*
X43304023Y14296320D01*
X43287406Y14327470D01*
X43281600Y14357334D01*
X43282338Y14360317D01*
X43350482Y14360317D01*
X43354363Y14342992D01*
X43364150Y14334745D01*
X43383726Y14328652D01*
X43410692Y14326191D01*
X43438260Y14327297D01*
X43459643Y14331900D01*
X43466174Y14335760D01*
X43473770Y14351362D01*
X43476333Y14369627D01*
X43475514Y14382810D01*
X43470379Y14389892D01*
X43456916Y14392767D01*
X43431113Y14393331D01*
X43426138Y14393333D01*
X43389137Y14390887D01*
X43366730Y14383318D01*
X43362638Y14380029D01*
X43350482Y14360317D01*
X43282338Y14360317D01*
X43288324Y14384507D01*
X43305368Y14412515D01*
X43328044Y14434353D01*
X43336451Y14439246D01*
X43364019Y14447457D01*
X43401350Y14452026D01*
X43420463Y14452600D01*
X43450375Y14453024D01*
X43467125Y14455153D01*
X43474477Y14460274D01*
X43476199Y14469674D01*
X43476204Y14471650D01*
X43471834Y14495578D01*
X43457131Y14509936D01*
X43429098Y14517532D01*
X43426932Y14517833D01*
X43393762Y14517848D01*
X43370376Y14508331D01*
X43355075Y14499752D01*
X43343351Y14500309D01*
X43327599Y14510867D01*
X43324135Y14513590D01*
X43308570Y14528357D01*
X43301555Y14539978D01*
X43301578Y14541500D01*
X43311104Y14552126D01*
X43331817Y14564394D01*
X43358436Y14576000D01*
X43385679Y14584643D01*
X43408265Y14588020D01*
X43408277Y14588020D01*
X43457932Y14582075D01*
G36*
X43041139Y15086283D02*
X43050896Y15080682D01*
X43053000Y15069355D01*
X43054006Y15056924D01*
X43059899Y15057790D01*
X43069276Y15065839D01*
X43093927Y15079014D01*
X43127020Y15085465D01*
X43161099Y15084297D01*
X43180060Y15079109D01*
X43202764Y15064664D01*
X43223296Y15043896D01*
X43224670Y15042032D01*
X43233108Y15028421D01*
X43238595Y15013356D01*
X43241745Y14992926D01*
X43243174Y14963223D01*
X43243500Y14922500D01*
X43243140Y14880259D01*
X43241649Y14851035D01*
X43238411Y14830916D01*
X43232811Y14815993D01*
X43224670Y14802968D01*
X43204828Y14782051D01*
X43181901Y14766699D01*
X43180060Y14765892D01*
X43149285Y14759356D01*
X43114702Y14761011D01*
X43083768Y14769966D01*
X43069276Y14779162D01*
X43062876Y14784365D01*
X43058421Y14784904D01*
X43055559Y14778508D01*
X43053937Y14762906D01*
X43053204Y14735827D01*
X43053007Y14695000D01*
X43053000Y14674170D01*
X43053000Y14554449D01*
X43080517Y14571226D01*
X43118824Y14585655D01*
X43157633Y14584612D01*
X43193443Y14569080D01*
X43222755Y14540040D01*
X43229413Y14529457D01*
X43236801Y14514684D01*
X43241905Y14498924D01*
X43245137Y14478764D01*
X43246909Y14450790D01*
X43247632Y14411586D01*
X43247734Y14377364D01*
X43247734Y14257867D01*
X43171534Y14257867D01*
X43171534Y14370855D01*
X43170914Y14423029D01*
X43168435Y14460624D01*
X43163163Y14485968D01*
X43154165Y14501389D01*
X43140508Y14509216D01*
X43121259Y14511776D01*
X43115029Y14511867D01*
X43093956Y14509664D01*
X43078505Y14501582D01*
X43067751Y14485410D01*
X43060770Y14458937D01*
X43056635Y14419953D01*
X43054444Y14367072D01*
X43051654Y14257867D01*
X42985267Y14257867D01*
X42985267Y14936861D01*
X43057305Y14936861D01*
X43058329Y14900318D01*
X43065241Y14866849D01*
X43077704Y14841889D01*
X43084285Y14835418D01*
X43106241Y14828239D01*
X43132708Y14831026D01*
X43155616Y14842409D01*
X43161578Y14848531D01*
X43166929Y14864514D01*
X43169770Y14891450D01*
X43170244Y14923990D01*
X43168489Y14956782D01*
X43164647Y14984475D01*
X43158857Y15001719D01*
X43157518Y15003402D01*
X43139304Y15011710D01*
X43113986Y15012950D01*
X43089460Y15007689D01*
X43074262Y14997430D01*
X43062503Y14971043D01*
X43057305Y14936861D01*
X42985267Y14936861D01*
X42985267Y15087600D01*
X43019133Y15087600D01*
X43041139Y15086283D01*
X43041139Y15086283D01*
G37*
X43041139Y15086283D02*
X43050896Y15080682D01*
X43053000Y15069355D01*
X43054006Y15056924D01*
X43059899Y15057790D01*
X43069276Y15065839D01*
X43093927Y15079014D01*
X43127020Y15085465D01*
X43161099Y15084297D01*
X43180060Y15079109D01*
X43202764Y15064664D01*
X43223296Y15043896D01*
X43224670Y15042032D01*
X43233108Y15028421D01*
X43238595Y15013356D01*
X43241745Y14992926D01*
X43243174Y14963223D01*
X43243500Y14922500D01*
X43243140Y14880259D01*
X43241649Y14851035D01*
X43238411Y14830916D01*
X43232811Y14815993D01*
X43224670Y14802968D01*
X43204828Y14782051D01*
X43181901Y14766699D01*
X43180060Y14765892D01*
X43149285Y14759356D01*
X43114702Y14761011D01*
X43083768Y14769966D01*
X43069276Y14779162D01*
X43062876Y14784365D01*
X43058421Y14784904D01*
X43055559Y14778508D01*
X43053937Y14762906D01*
X43053204Y14735827D01*
X43053007Y14695000D01*
X43053000Y14674170D01*
X43053000Y14554449D01*
X43080517Y14571226D01*
X43118824Y14585655D01*
X43157633Y14584612D01*
X43193443Y14569080D01*
X43222755Y14540040D01*
X43229413Y14529457D01*
X43236801Y14514684D01*
X43241905Y14498924D01*
X43245137Y14478764D01*
X43246909Y14450790D01*
X43247632Y14411586D01*
X43247734Y14377364D01*
X43247734Y14257867D01*
X43171534Y14257867D01*
X43171534Y14370855D01*
X43170914Y14423029D01*
X43168435Y14460624D01*
X43163163Y14485968D01*
X43154165Y14501389D01*
X43140508Y14509216D01*
X43121259Y14511776D01*
X43115029Y14511867D01*
X43093956Y14509664D01*
X43078505Y14501582D01*
X43067751Y14485410D01*
X43060770Y14458937D01*
X43056635Y14419953D01*
X43054444Y14367072D01*
X43051654Y14257867D01*
X42985267Y14257867D01*
X42985267Y14936861D01*
X43057305Y14936861D01*
X43058329Y14900318D01*
X43065241Y14866849D01*
X43077704Y14841889D01*
X43084285Y14835418D01*
X43106241Y14828239D01*
X43132708Y14831026D01*
X43155616Y14842409D01*
X43161578Y14848531D01*
X43166929Y14864514D01*
X43169770Y14891450D01*
X43170244Y14923990D01*
X43168489Y14956782D01*
X43164647Y14984475D01*
X43158857Y15001719D01*
X43157518Y15003402D01*
X43139304Y15011710D01*
X43113986Y15012950D01*
X43089460Y15007689D01*
X43074262Y14997430D01*
X43062503Y14971043D01*
X43057305Y14936861D01*
X42985267Y14936861D01*
X42985267Y15087600D01*
X43019133Y15087600D01*
X43041139Y15086283D01*
G04 #@! TD*
M02*
