G04 #@! TF.FileFunction,Soldermask,Top*
%FSLAX46Y46*%
G04 Gerber Fmt 4.6, Leading zero omitted, Abs format (unit mm)*
G04 Created by KiCad (PCBNEW 4.0.5) date 06/07/17 07:53:00*
%MOMM*%
%LPD*%
G01*
G04 APERTURE LIST*
%ADD10C,0.100000*%
%ADD11R,0.901700X1.701800*%
%ADD12R,2.001520X1.602740*%
%ADD13R,1.602740X2.103120*%
%ADD14O,1.930400X1.930400*%
%ADD15R,1.003200X0.853200*%
%ADD16R,1.553200X0.603200*%
%ADD17C,1.403200*%
%ADD18O,1.903200X1.503200*%
%ADD19R,1.473200X4.403200*%
%ADD20R,1.003200X1.403200*%
%ADD21R,1.003200X2.403200*%
%ADD22R,2.203200X2.703200*%
%ADD23R,0.803200X2.203200*%
%ADD24R,0.903200X1.203200*%
%ADD25R,0.903200X0.803200*%
%ADD26R,1.703200X1.203200*%
%ADD27R,0.903200X1.103200*%
%ADD28R,1.103200X0.903200*%
%ADD29C,2.403200*%
%ADD30O,1.253200X1.253200*%
%ADD31R,1.303200X1.203200*%
%ADD32R,0.700000X0.600000*%
%ADD33R,1.300000X1.800000*%
%ADD34R,0.450000X0.600000*%
%ADD35R,3.703200X1.203200*%
%ADD36R,3.603200X1.703200*%
%ADD37R,1.203200X1.303200*%
%ADD38R,1.253200X0.853200*%
%ADD39R,0.890000X0.890000*%
%ADD40R,0.420000X0.990000*%
%ADD41R,0.990000X0.420000*%
%ADD42R,0.990000X0.440000*%
%ADD43R,0.703200X0.503200*%
%ADD44R,1.263200X1.083200*%
%ADD45R,1.903200X1.903200*%
%ADD46O,1.903200X1.903200*%
%ADD47C,2.000000*%
%ADD48R,0.903200X1.653200*%
%ADD49R,0.853200X1.253200*%
G04 APERTURE END LIST*
D10*
D11*
X14499220Y-23137520D03*
X13399400Y-22738740D03*
X12299580Y-23137520D03*
X11199760Y-23538840D03*
X10099940Y-23137520D03*
X8997580Y-23538840D03*
X7897760Y-23137520D03*
X6797940Y-23137520D03*
D12*
X7498980Y-12939420D03*
X13498460Y-12939420D03*
D13*
X5898780Y-26038200D03*
X19099160Y-26939900D03*
D14*
X24130000Y17780000D03*
X24130000Y20320000D03*
X24130000Y22860000D03*
X24130000Y25400000D03*
X24130000Y50800000D03*
X24130000Y48260000D03*
X24130000Y45720000D03*
X24130000Y43180000D03*
X24130000Y40640000D03*
X24130000Y38100000D03*
X24130000Y35560000D03*
X24130000Y33020000D03*
X24130000Y30480000D03*
X24130000Y27940000D03*
X24130000Y15240000D03*
X24130000Y12700000D03*
X24130000Y10160000D03*
X24130000Y7620000D03*
X24130000Y5080000D03*
D10*
G36*
X10876937Y40951689D02*
X11197398Y41272150D01*
X12260321Y40209227D01*
X11939860Y39888766D01*
X10876937Y40951689D01*
X10876937Y40951689D01*
G37*
G36*
X10523384Y40598136D02*
X10843845Y40918597D01*
X11906768Y39855674D01*
X11586307Y39535213D01*
X10523384Y40598136D01*
X10523384Y40598136D01*
G37*
G36*
X10169830Y40244582D02*
X10490291Y40565043D01*
X11553214Y39502120D01*
X11232753Y39181659D01*
X10169830Y40244582D01*
X10169830Y40244582D01*
G37*
G36*
X9816277Y39891029D02*
X10136738Y40211490D01*
X11199661Y39148567D01*
X10879200Y38828106D01*
X9816277Y39891029D01*
X9816277Y39891029D01*
G37*
G36*
X9462724Y39537476D02*
X9783185Y39857937D01*
X10846108Y38795014D01*
X10525647Y38474553D01*
X9462724Y39537476D01*
X9462724Y39537476D01*
G37*
G36*
X9109170Y39183922D02*
X9429631Y39504383D01*
X10492554Y38441460D01*
X10172093Y38120999D01*
X9109170Y39183922D01*
X9109170Y39183922D01*
G37*
G36*
X8755617Y38830369D02*
X9076078Y39150830D01*
X10139001Y38087907D01*
X9818540Y37767446D01*
X8755617Y38830369D01*
X8755617Y38830369D01*
G37*
G36*
X8402063Y38476815D02*
X8722524Y38797276D01*
X9785447Y37734353D01*
X9464986Y37413892D01*
X8402063Y38476815D01*
X8402063Y38476815D01*
G37*
G36*
X8048510Y38123262D02*
X8368971Y38443723D01*
X9431894Y37380800D01*
X9111433Y37060339D01*
X8048510Y38123262D01*
X8048510Y38123262D01*
G37*
G36*
X7694957Y37769709D02*
X8015418Y38090170D01*
X9078341Y37027247D01*
X8757880Y36706786D01*
X7694957Y37769709D01*
X7694957Y37769709D01*
G37*
G36*
X7341403Y37416155D02*
X7661864Y37736616D01*
X8724787Y36673693D01*
X8404326Y36353232D01*
X7341403Y37416155D01*
X7341403Y37416155D01*
G37*
G36*
X6987850Y37062602D02*
X7308311Y37383063D01*
X8371234Y36320140D01*
X8050773Y35999679D01*
X6987850Y37062602D01*
X6987850Y37062602D01*
G37*
G36*
X7308311Y33736937D02*
X6987850Y34057398D01*
X8050773Y35120321D01*
X8371234Y34799860D01*
X7308311Y33736937D01*
X7308311Y33736937D01*
G37*
G36*
X7661864Y33383384D02*
X7341403Y33703845D01*
X8404326Y34766768D01*
X8724787Y34446307D01*
X7661864Y33383384D01*
X7661864Y33383384D01*
G37*
G36*
X8015418Y33029830D02*
X7694957Y33350291D01*
X8757880Y34413214D01*
X9078341Y34092753D01*
X8015418Y33029830D01*
X8015418Y33029830D01*
G37*
G36*
X8368971Y32676277D02*
X8048510Y32996738D01*
X9111433Y34059661D01*
X9431894Y33739200D01*
X8368971Y32676277D01*
X8368971Y32676277D01*
G37*
G36*
X8722524Y32322724D02*
X8402063Y32643185D01*
X9464986Y33706108D01*
X9785447Y33385647D01*
X8722524Y32322724D01*
X8722524Y32322724D01*
G37*
G36*
X9076078Y31969170D02*
X8755617Y32289631D01*
X9818540Y33352554D01*
X10139001Y33032093D01*
X9076078Y31969170D01*
X9076078Y31969170D01*
G37*
G36*
X9429631Y31615617D02*
X9109170Y31936078D01*
X10172093Y32999001D01*
X10492554Y32678540D01*
X9429631Y31615617D01*
X9429631Y31615617D01*
G37*
G36*
X9783185Y31262063D02*
X9462724Y31582524D01*
X10525647Y32645447D01*
X10846108Y32324986D01*
X9783185Y31262063D01*
X9783185Y31262063D01*
G37*
G36*
X10136738Y30908510D02*
X9816277Y31228971D01*
X10879200Y32291894D01*
X11199661Y31971433D01*
X10136738Y30908510D01*
X10136738Y30908510D01*
G37*
G36*
X10490291Y30554957D02*
X10169830Y30875418D01*
X11232753Y31938341D01*
X11553214Y31617880D01*
X10490291Y30554957D01*
X10490291Y30554957D01*
G37*
G36*
X10843845Y30201403D02*
X10523384Y30521864D01*
X11586307Y31584787D01*
X11906768Y31264326D01*
X10843845Y30201403D01*
X10843845Y30201403D01*
G37*
G36*
X11197398Y29847850D02*
X10876937Y30168311D01*
X11939860Y31231234D01*
X12260321Y30910773D01*
X11197398Y29847850D01*
X11197398Y29847850D01*
G37*
G36*
X13139679Y30910773D02*
X13460140Y31231234D01*
X14523063Y30168311D01*
X14202602Y29847850D01*
X13139679Y30910773D01*
X13139679Y30910773D01*
G37*
G36*
X13493232Y31264326D02*
X13813693Y31584787D01*
X14876616Y30521864D01*
X14556155Y30201403D01*
X13493232Y31264326D01*
X13493232Y31264326D01*
G37*
G36*
X13846786Y31617880D02*
X14167247Y31938341D01*
X15230170Y30875418D01*
X14909709Y30554957D01*
X13846786Y31617880D01*
X13846786Y31617880D01*
G37*
G36*
X14200339Y31971433D02*
X14520800Y32291894D01*
X15583723Y31228971D01*
X15263262Y30908510D01*
X14200339Y31971433D01*
X14200339Y31971433D01*
G37*
G36*
X14553892Y32324986D02*
X14874353Y32645447D01*
X15937276Y31582524D01*
X15616815Y31262063D01*
X14553892Y32324986D01*
X14553892Y32324986D01*
G37*
G36*
X14907446Y32678540D02*
X15227907Y32999001D01*
X16290830Y31936078D01*
X15970369Y31615617D01*
X14907446Y32678540D01*
X14907446Y32678540D01*
G37*
G36*
X15260999Y33032093D02*
X15581460Y33352554D01*
X16644383Y32289631D01*
X16323922Y31969170D01*
X15260999Y33032093D01*
X15260999Y33032093D01*
G37*
G36*
X15614553Y33385647D02*
X15935014Y33706108D01*
X16997937Y32643185D01*
X16677476Y32322724D01*
X15614553Y33385647D01*
X15614553Y33385647D01*
G37*
G36*
X15968106Y33739200D02*
X16288567Y34059661D01*
X17351490Y32996738D01*
X17031029Y32676277D01*
X15968106Y33739200D01*
X15968106Y33739200D01*
G37*
G36*
X16321659Y34092753D02*
X16642120Y34413214D01*
X17705043Y33350291D01*
X17384582Y33029830D01*
X16321659Y34092753D01*
X16321659Y34092753D01*
G37*
G36*
X16675213Y34446307D02*
X16995674Y34766768D01*
X18058597Y33703845D01*
X17738136Y33383384D01*
X16675213Y34446307D01*
X16675213Y34446307D01*
G37*
G36*
X17028766Y34799860D02*
X17349227Y35120321D01*
X18412150Y34057398D01*
X18091689Y33736937D01*
X17028766Y34799860D01*
X17028766Y34799860D01*
G37*
G36*
X17349227Y35999679D02*
X17028766Y36320140D01*
X18091689Y37383063D01*
X18412150Y37062602D01*
X17349227Y35999679D01*
X17349227Y35999679D01*
G37*
G36*
X16995674Y36353232D02*
X16675213Y36673693D01*
X17738136Y37736616D01*
X18058597Y37416155D01*
X16995674Y36353232D01*
X16995674Y36353232D01*
G37*
G36*
X16642120Y36706786D02*
X16321659Y37027247D01*
X17384582Y38090170D01*
X17705043Y37769709D01*
X16642120Y36706786D01*
X16642120Y36706786D01*
G37*
G36*
X16288567Y37060339D02*
X15968106Y37380800D01*
X17031029Y38443723D01*
X17351490Y38123262D01*
X16288567Y37060339D01*
X16288567Y37060339D01*
G37*
G36*
X15935014Y37413892D02*
X15614553Y37734353D01*
X16677476Y38797276D01*
X16997937Y38476815D01*
X15935014Y37413892D01*
X15935014Y37413892D01*
G37*
G36*
X15581460Y37767446D02*
X15260999Y38087907D01*
X16323922Y39150830D01*
X16644383Y38830369D01*
X15581460Y37767446D01*
X15581460Y37767446D01*
G37*
G36*
X15227907Y38120999D02*
X14907446Y38441460D01*
X15970369Y39504383D01*
X16290830Y39183922D01*
X15227907Y38120999D01*
X15227907Y38120999D01*
G37*
G36*
X14874353Y38474553D02*
X14553892Y38795014D01*
X15616815Y39857937D01*
X15937276Y39537476D01*
X14874353Y38474553D01*
X14874353Y38474553D01*
G37*
G36*
X14520800Y38828106D02*
X14200339Y39148567D01*
X15263262Y40211490D01*
X15583723Y39891029D01*
X14520800Y38828106D01*
X14520800Y38828106D01*
G37*
G36*
X14167247Y39181659D02*
X13846786Y39502120D01*
X14909709Y40565043D01*
X15230170Y40244582D01*
X14167247Y39181659D01*
X14167247Y39181659D01*
G37*
G36*
X13813693Y39535213D02*
X13493232Y39855674D01*
X14556155Y40918597D01*
X14876616Y40598136D01*
X13813693Y39535213D01*
X13813693Y39535213D01*
G37*
G36*
X13460140Y39888766D02*
X13139679Y40209227D01*
X14202602Y41272150D01*
X14523063Y40951689D01*
X13460140Y39888766D01*
X13460140Y39888766D01*
G37*
D15*
X18076000Y14434000D03*
X18076000Y15284000D03*
X16976000Y15284000D03*
X16976000Y14434000D03*
D16*
X22500000Y-6675000D03*
X22500000Y-6025000D03*
X22500000Y-5375000D03*
X22500000Y-4725000D03*
X22500000Y-4075000D03*
D17*
X22425000Y-7800000D03*
X22425000Y-2950000D03*
D18*
X25075000Y-9000000D03*
X25075000Y-1750000D03*
D19*
X9352800Y76860400D03*
X4352800Y76860400D03*
D20*
X17780000Y21336000D03*
D21*
X16280000Y20836000D03*
D20*
X14780000Y21336000D03*
D22*
X16280000Y18486000D03*
D23*
X7239000Y27084000D03*
X8509000Y27084000D03*
X9779000Y27084000D03*
X11049000Y27084000D03*
X11049000Y21684000D03*
X9779000Y21684000D03*
X8509000Y21684000D03*
X7239000Y21684000D03*
D10*
G36*
X9849773Y44035040D02*
X11336960Y45522227D01*
X12258461Y44600726D01*
X10771274Y43113539D01*
X9849773Y44035040D01*
X9849773Y44035040D01*
G37*
G36*
X11617539Y42267274D02*
X13104726Y43754461D01*
X14026227Y42832960D01*
X12539040Y41345773D01*
X11617539Y42267274D01*
X11617539Y42267274D01*
G37*
D24*
X22000000Y500000D03*
D25*
X22000000Y2200000D03*
X20000000Y2200000D03*
X20000000Y300000D03*
D26*
X11150000Y6700000D03*
X11150000Y4500000D03*
D10*
G36*
X13360989Y45189670D02*
X12722330Y44551011D01*
X11942249Y45331092D01*
X12580908Y45969751D01*
X13360989Y45189670D01*
X13360989Y45189670D01*
G37*
G36*
X12441751Y46108908D02*
X11803092Y45470249D01*
X11023011Y46250330D01*
X11661670Y46888989D01*
X12441751Y46108908D01*
X12441751Y46108908D01*
G37*
G36*
X13055011Y44218330D02*
X13693670Y44856989D01*
X14473751Y44076908D01*
X13835092Y43438249D01*
X13055011Y44218330D01*
X13055011Y44218330D01*
G37*
G36*
X13974249Y43299092D02*
X14612908Y43937751D01*
X15392989Y43157670D01*
X14754330Y42519011D01*
X13974249Y43299092D01*
X13974249Y43299092D01*
G37*
D27*
X18034000Y41514000D03*
X18034000Y42814000D03*
X5461000Y40498000D03*
X5461000Y41798000D03*
X19304000Y41514000D03*
X19304000Y42814000D03*
X20320000Y34290000D03*
X20320000Y32990000D03*
X4572000Y32146000D03*
X4572000Y30846000D03*
X12446000Y10302000D03*
X12446000Y9002000D03*
D28*
X13096000Y50546000D03*
X11796000Y50546000D03*
X8748000Y10414000D03*
X10048000Y10414000D03*
D27*
X10668000Y17384000D03*
X10668000Y18684000D03*
D28*
X20500000Y-8000000D03*
X19200000Y-8000000D03*
X18176000Y25654000D03*
X16876000Y25654000D03*
D27*
X17526000Y46340000D03*
X17526000Y47640000D03*
X8890000Y18684000D03*
X8890000Y17384000D03*
D28*
X4430000Y13970000D03*
X5730000Y13970000D03*
X4430000Y12700000D03*
X5730000Y12700000D03*
X4430000Y11430000D03*
X5730000Y11430000D03*
X20970000Y35814000D03*
X19670000Y35814000D03*
X14336000Y14224000D03*
X15636000Y14224000D03*
X14336000Y15494000D03*
X15636000Y15494000D03*
D29*
X1400000Y-26600000D03*
X24200000Y-26700000D03*
X1400000Y77600000D03*
X24200000Y77600000D03*
D30*
X15494000Y49784000D03*
X15494000Y51054000D03*
X16764000Y49784000D03*
X16764000Y51054000D03*
X18034000Y49784000D03*
X18034000Y51054000D03*
X19304000Y49784000D03*
X19304000Y51054000D03*
X20574000Y49784000D03*
X20574000Y51054000D03*
D31*
X16676000Y24130000D03*
X18376000Y24130000D03*
D27*
X4191000Y40498000D03*
X4191000Y41798000D03*
D32*
X4026000Y16906000D03*
X4026000Y15606000D03*
D33*
X5076000Y16256000D03*
D34*
X5751000Y16256000D03*
D35*
X6350000Y-650000D03*
X6350000Y-2650000D03*
D36*
X800000Y1700000D03*
X800000Y-5000000D03*
D28*
X13096000Y49276000D03*
X11796000Y49276000D03*
D14*
X1270000Y17780000D03*
X1270000Y20320000D03*
X1270000Y22860000D03*
X1270000Y25400000D03*
X1270000Y50800000D03*
X1270000Y48260000D03*
X1270000Y45720000D03*
X1270000Y43180000D03*
X1270000Y40640000D03*
X1270000Y38100000D03*
X1270000Y35560000D03*
X1270000Y33020000D03*
X1270000Y30480000D03*
X1270000Y27940000D03*
X1270000Y15240000D03*
X1270000Y12700000D03*
X1270000Y10160000D03*
X1270000Y7620000D03*
X1270000Y5080000D03*
D37*
X7112000Y18884000D03*
X7112000Y17184000D03*
D27*
X13716000Y10302000D03*
X13716000Y9002000D03*
D38*
X12820000Y26604000D03*
X12820000Y24704000D03*
X15120000Y25654000D03*
D27*
X18796000Y46340000D03*
X18796000Y47640000D03*
D28*
X20970000Y37084000D03*
X19670000Y37084000D03*
X20500000Y-9500000D03*
X19200000Y-9500000D03*
X5730000Y10160000D03*
X4430000Y10160000D03*
D27*
X8001000Y41006000D03*
X8001000Y42306000D03*
X5588000Y25034000D03*
X5588000Y23734000D03*
X6731000Y41006000D03*
X6731000Y42306000D03*
X12192000Y17384000D03*
X12192000Y18684000D03*
X12954000Y21702000D03*
X12954000Y23002000D03*
D39*
X10414000Y14333000D03*
X9664000Y14333000D03*
X9664000Y13583000D03*
X10414000Y13583000D03*
D40*
X9289000Y12483000D03*
X9789000Y12483000D03*
X10289000Y12483000D03*
X10789000Y12483000D03*
D41*
X11514000Y13208000D03*
X11514000Y13708000D03*
D42*
X11514000Y14208000D03*
D41*
X11514000Y14708000D03*
D40*
X10789000Y15433000D03*
X10289000Y15433000D03*
X9789000Y15433000D03*
X9289000Y15433000D03*
D41*
X8564000Y14708000D03*
X8564000Y14208000D03*
X8564000Y13708000D03*
D42*
X8564000Y13208000D03*
D37*
X5776893Y70141213D03*
X5776893Y71841213D03*
D43*
X18235000Y6987000D03*
X18235000Y6487000D03*
X18235000Y5987000D03*
X18235000Y5487000D03*
X20035000Y5487000D03*
X20035000Y5987000D03*
X20035000Y6487000D03*
X20035000Y6987000D03*
D44*
X19135000Y5797000D03*
X19135000Y6677000D03*
D19*
X21250400Y77000000D03*
X16250400Y77000000D03*
D31*
X17950000Y12200000D03*
X19650000Y12200000D03*
X17950000Y10450000D03*
X19650000Y10450000D03*
D45*
X24100000Y-23800000D03*
D46*
X24100000Y-21260000D03*
X24100000Y-18720000D03*
X24100000Y-16180000D03*
X24100000Y-13640000D03*
D45*
X1066800Y71170800D03*
D31*
X13120000Y3810000D03*
X14820000Y3810000D03*
D47*
X26416000Y-29464000D03*
X24384000Y-29464000D03*
D31*
X16598000Y7366000D03*
X14898000Y7366000D03*
X13120000Y5715000D03*
X14820000Y5715000D03*
D37*
X16637000Y2706000D03*
X16637000Y4406000D03*
D48*
X24219000Y58754000D03*
X24219000Y53594000D03*
X26219000Y53594000D03*
X26219000Y58754000D03*
D37*
X6502400Y-9079600D03*
X6502400Y-7379600D03*
X2895600Y-9079600D03*
X2895600Y-7379600D03*
X4724400Y-9079600D03*
X4724400Y-7379600D03*
X1117600Y-9079600D03*
X1117600Y-7379600D03*
X8432800Y-9079600D03*
X8432800Y-7379600D03*
X10414000Y-9079600D03*
X10414000Y-7379600D03*
X4151293Y70154813D03*
X4151293Y71854813D03*
D31*
X1866000Y57667600D03*
X166000Y57667600D03*
X1866000Y61725200D03*
X166000Y61725200D03*
X1866000Y65786000D03*
X166000Y65786000D03*
D49*
X5572800Y58189600D03*
X3672800Y58189600D03*
X4622800Y55889600D03*
X5572800Y62298000D03*
X3672800Y62298000D03*
X4622800Y59998000D03*
X5572800Y66383600D03*
X3672800Y66383600D03*
X4622800Y64083600D03*
D31*
X166000Y55886400D03*
X1866000Y55886400D03*
X166000Y59998000D03*
X1866000Y59998000D03*
X166000Y64065200D03*
X1866000Y64065200D03*
M02*
