M48
;DRILL file {KiCad 4.0.7-e2-6376~58~ubuntu16.04.1} date Tue Dec 19 15:19:17 2017
;FORMAT={-:-/ absolute / inch / decimal}
FMAT,2
INCH,TZ
T1C0.012
T2C0.028
T3C0.039
T4C0.040
T5C0.043
%
G90
G05
M72
T1
X5.0276Y-2.9134
X5.0689Y-2.9134
X5.1Y-3.25
X5.1083Y-2.9035
X5.11Y-3.74
X5.12Y-3.312
X5.12Y-3.35
X5.144Y-2.598
X5.144Y-2.758
X5.1446Y-2.3865
X5.1446Y-2.5473
X5.1446Y-2.7091
X5.146Y-2.434
X5.16Y-3.85
X5.16Y-3.93
X5.165Y-3.505
X5.1693Y-2.9567
X5.1693Y-2.9882
X5.1693Y-3.0217
X5.1693Y-3.0551
X5.17Y-3.66
X5.17Y-3.69
X5.176Y-3.8015
X5.1798Y-3.5298
X5.19Y-3.445
X5.19Y-3.88
X5.2Y-3.66
X5.205Y-3.963
X5.23Y-3.66
X5.23Y-4.0847
X5.23Y-4.379
X5.2305Y-3.9663
X5.232Y-4.337
X5.237Y-3.345
X5.237Y-4.564
X5.237Y-4.589
X5.238Y-4.478
X5.26Y-3.66
X5.29Y-3.63
X5.292Y-3.214
X5.293Y-3.3125
X5.3013Y-4.7693
X5.33Y-2.4152
X5.33Y-2.6514
X5.3301Y-4.7712
X5.355Y-4.765
X5.36Y-3.3125
X5.36Y-3.87
X5.362Y-3.214
X5.377Y-5.432
X5.377Y-5.469
X5.38Y-5.695
X5.385Y-5.4505
X5.39Y-3.66
X5.39Y-3.84
X5.4Y-3.87
X5.4055Y-5.45
X5.4135Y-5.469
X5.414Y-5.432
X5.417Y-5.562
X5.417Y-5.595
X5.4297Y-4.0847
X5.442Y-2.648
X5.456Y-2.604
X5.46Y-5.16
X5.46Y-5.52
X5.464Y-4.21
X5.49Y-3.53
X5.49Y-3.67
X5.49Y-3.7
X5.49Y-5.16
X5.49Y-5.52
X5.5072Y-4.2829
X5.51Y-3.91
X5.51Y-5.462
X5.51Y-5.49
X5.515Y-5.415
X5.5175Y-4.3275
X5.52Y-3.38
X5.52Y-5.31
X5.52Y-5.34
X5.52Y-5.52
X5.534Y-3.502
X5.535Y-4.2819
X5.5351Y-4.2452
X5.54Y-3.53
X5.54Y-5.16
X5.55Y-3.36
X5.55Y-5.25
X5.55Y-5.28
X5.55Y-5.31
X5.55Y-5.34
X5.55Y-5.52
X5.56Y-3.94
X5.57Y-5.16
X5.57Y-5.5
X5.571Y-2.578
X5.5725Y-3.8675
X5.575Y-4.6573
X5.58Y-5.25
X5.58Y-5.28
X5.58Y-5.31
X5.58Y-5.34
X5.584Y-3.514
X5.595Y-3.04
X5.6022Y-3.9106
X5.622Y-4.277
X5.625Y-4.091
X5.63Y-3.95
X5.64Y-2.555
X5.6425Y-4.6925
X5.66Y-2.5275
X5.67Y-5.605
X5.675Y-3.965
X5.68Y-2.555
X5.68Y-3.93
X5.685Y-4.6625
X5.6875Y-4.545
X5.6988Y-3.2407
X5.71Y-3.4
X5.71Y-3.93
X5.72Y-3.27
X5.741Y-5.847
X5.76Y-3.24
X5.77Y-4.84
X5.79Y-3.27
X5.81Y-4.44
X5.811Y-4.355
X5.82Y-3.24
X5.835Y-5.42
X5.835Y-5.495
X5.836Y-3.706
X5.836Y-3.804
X5.85Y-3.446
X5.8775Y-4.5925
X5.935Y-5.625
X5.9535Y-2.6869
X5.9535Y-2.89
X5.96Y-2.5924
X5.97Y-5.635
X6.0316Y-3.804
X6.037Y-2.517
X6.045Y-5.885
X6.045Y-5.925
T2
X5.6068Y-5.9067
X5.7978Y-5.9067
T3
X5.0395Y-2.1355
X5.05Y-5.2
X5.05Y-5.3
X5.05Y-5.4
X5.05Y-5.5
X5.05Y-5.6
X5.05Y-5.7
T4
X5.05Y-3.
X5.05Y-3.1
X5.05Y-3.2
X5.05Y-3.3
X5.05Y-3.4
X5.05Y-3.5
X5.05Y-3.6
X5.05Y-3.7
X5.05Y-3.8
X5.05Y-3.9
X5.05Y-4.
X5.05Y-4.1
X5.05Y-4.2
X5.05Y-4.3
X5.05Y-4.4
X5.05Y-4.5
X5.05Y-4.6
X5.05Y-4.7
X5.05Y-4.8
X5.95Y-3.
X5.95Y-3.1
X5.95Y-3.2
X5.95Y-3.3
X5.95Y-3.4
X5.95Y-3.5
X5.95Y-3.6
X5.95Y-3.7
X5.95Y-3.8
X5.95Y-3.9
X5.95Y-4.
X5.95Y-4.1
X5.95Y-4.2
X5.95Y-4.3
X5.95Y-4.4
X5.95Y-4.5
X5.95Y-4.6
X5.95Y-4.7
X5.95Y-4.8
T5
X5.5596Y-6.011G85X5.5596Y-6.011
G05
X5.845Y-6.011G85X5.845Y-6.011
G05
T0
M30
