G04 #@! TF.FileFunction,Copper,L2,Bot,Signal*
%FSLAX46Y46*%
G04 Gerber Fmt 4.6, Leading zero omitted, Abs format (unit mm)*
G04 Created by KiCad (PCBNEW 4.0.5) date 06/07/17 08:13:04*
%MOMM*%
%LPD*%
G01*
G04 APERTURE LIST*
%ADD10C,0.100000*%
%ADD11O,1.727200X1.727200*%
%ADD12C,1.200000*%
%ADD13O,1.700000X1.300000*%
%ADD14O,1.050000X1.050000*%
%ADD15R,1.300000X2.000000*%
%ADD16R,1.270000X4.200000*%
%ADD17R,1.700000X1.700000*%
%ADD18O,1.700000X1.700000*%
%ADD19R,1.998980X1.000760*%
%ADD20R,1.900000X0.800000*%
%ADD21R,0.800000X1.900000*%
%ADD22C,0.500000*%
%ADD23C,1.270000*%
%ADD24C,0.254000*%
%ADD25C,0.381000*%
%ADD26C,0.762000*%
%ADD27C,0.508000*%
%ADD28C,0.203200*%
G04 APERTURE END LIST*
D10*
D11*
X24130000Y17780000D03*
X24130000Y20320000D03*
X24130000Y22860000D03*
X24130000Y25400000D03*
X24130000Y50800000D03*
X24130000Y48260000D03*
X24130000Y45720000D03*
X24130000Y43180000D03*
X24130000Y40640000D03*
X24130000Y38100000D03*
X24130000Y35560000D03*
X24130000Y33020000D03*
X24130000Y30480000D03*
X24130000Y27940000D03*
X24130000Y15240000D03*
X24130000Y12700000D03*
X24130000Y10160000D03*
X24130000Y7620000D03*
X24130000Y5080000D03*
D12*
X22425000Y-7800000D03*
X22425000Y-2950000D03*
D13*
X25075000Y-9000000D03*
X25075000Y-1750000D03*
D14*
X15494000Y49784000D03*
X15494000Y51054000D03*
X16764000Y49784000D03*
X16764000Y51054000D03*
X18034000Y49784000D03*
X18034000Y51054000D03*
X19304000Y49784000D03*
X19304000Y51054000D03*
X20574000Y49784000D03*
X20574000Y51054000D03*
D11*
X1270000Y17780000D03*
X1270000Y20320000D03*
X1270000Y22860000D03*
X1270000Y25400000D03*
X1270000Y50800000D03*
X1270000Y48260000D03*
X1270000Y45720000D03*
X1270000Y43180000D03*
X1270000Y40640000D03*
X1270000Y38100000D03*
X1270000Y35560000D03*
X1270000Y33020000D03*
X1270000Y30480000D03*
X1270000Y27940000D03*
X1270000Y15240000D03*
X1270000Y12700000D03*
X1270000Y10160000D03*
X1270000Y7620000D03*
X1270000Y5080000D03*
D15*
X19700000Y31370000D03*
X17700000Y31370000D03*
X15700000Y31370000D03*
X13700000Y31370000D03*
X11700000Y31370000D03*
X9700000Y31370000D03*
X7700000Y31370000D03*
X5700000Y31370000D03*
X5700000Y47370000D03*
X7700000Y47370000D03*
X9700000Y47370000D03*
X11700000Y47370000D03*
X13700000Y47370000D03*
X15700000Y47370000D03*
X17700000Y47370000D03*
X19700000Y47370000D03*
D16*
X18750400Y77000000D03*
X16250400Y77000000D03*
X21250400Y77000000D03*
D17*
X24100000Y-23800000D03*
D18*
X24100000Y-21260000D03*
X24100000Y-18720000D03*
X24100000Y-16180000D03*
X24100000Y-13640000D03*
D19*
X8382000Y59654440D03*
X8382000Y61153040D03*
X8382000Y62654180D03*
X8382000Y64152780D03*
X8382000Y65653920D03*
X8382000Y67152520D03*
X8382000Y68653660D03*
X8382000Y70152260D03*
X8382000Y71653400D03*
X8382000Y73152000D03*
X24384000Y73152000D03*
X24384000Y71653400D03*
X24384000Y70152260D03*
X24384000Y68653660D03*
X24384000Y67152520D03*
X24384000Y65653920D03*
X24384000Y64152780D03*
X24384000Y62654180D03*
X24384000Y61153040D03*
X24384000Y59654440D03*
D17*
X1066800Y71170800D03*
D20*
X1651000Y-18478501D03*
X1651000Y-17462501D03*
X1651000Y-16446500D03*
X1651000Y-15430500D03*
X1651000Y-14414501D03*
X1651000Y-13398501D03*
X1651000Y-12382501D03*
X1651000Y-11366501D03*
X1651000Y-21526501D03*
D21*
X7370450Y-8696101D03*
X6354450Y-8696101D03*
X5338450Y-8696101D03*
X4322450Y-8696101D03*
X11434450Y-8696101D03*
X13466453Y-8696101D03*
X14482450Y-8696101D03*
X15498450Y-8696101D03*
X16514450Y-8696101D03*
X5330230Y-23426371D03*
X6346230Y-23426371D03*
X7362230Y-23426371D03*
X8378230Y-23426371D03*
X9394230Y-23426371D03*
X10410230Y-23426371D03*
X11426230Y-23426371D03*
X12442234Y-23426371D03*
X13458234Y-23426371D03*
X14474230Y-23426371D03*
D16*
X6900000Y77000000D03*
X4400000Y77000000D03*
X9400000Y77000000D03*
D22*
X3672800Y58189600D03*
X3672800Y62298000D03*
X3672800Y66383600D03*
X23977600Y-4673600D03*
X23977600Y-3505200D03*
X12293600Y-20828000D03*
X12446000Y-19507200D03*
X16514450Y-8696101D03*
X1651000Y-11366501D03*
X17526000Y8890000D03*
X15113000Y8636000D03*
X2750000Y53250000D03*
X1750000Y53000000D03*
X700000Y53000000D03*
X4300000Y49400000D03*
X4300000Y50250000D03*
X4300000Y51100000D03*
X4300000Y51900000D03*
X13200000Y44712000D03*
X23050000Y1700000D03*
X23050000Y950000D03*
X19185000Y5797000D03*
X19185000Y6677000D03*
X18832990Y20780904D03*
X18832990Y20187834D03*
X18832990Y22178392D03*
X11800000Y23400000D03*
X10600000Y23400000D03*
X11400000Y24200000D03*
X19400000Y52400000D03*
X18288000Y43942000D03*
X19304000Y44704000D03*
X17526000Y44704000D03*
X20066000Y43942000D03*
X20828000Y44704000D03*
X10515600Y14427200D03*
X10502900Y13487400D03*
X13970000Y12954000D03*
X13970000Y12192000D03*
X13208000Y12192000D03*
X12446000Y12192000D03*
X4318000Y33274000D03*
X21082000Y30734000D03*
X21082000Y32004000D03*
X3810000Y29972000D03*
X11684000Y12192000D03*
X12446000Y15240000D03*
X13081000Y14859000D03*
X7620000Y43434000D03*
X6604000Y43434000D03*
X5588000Y43434000D03*
X10299700Y13970000D03*
X9575800Y14427200D03*
X9779000Y13957300D03*
X9575800Y13487400D03*
X8382000Y59654440D03*
X1651000Y-16446500D03*
X1651000Y-21526501D03*
X16090601Y-21260000D03*
X17674434Y2942434D03*
X16100000Y12200000D03*
X9800000Y20400000D03*
X13843000Y21590000D03*
X13843000Y20955000D03*
X13335000Y20574000D03*
X12700000Y20574000D03*
X12065000Y20320000D03*
X12065000Y20955000D03*
X12065000Y21590000D03*
X2794000Y32004000D03*
X3922000Y25034000D03*
X18034000Y40640000D03*
X3810000Y42926000D03*
X4572000Y42926000D03*
X13096000Y51308000D03*
X13096000Y51928000D03*
X13970000Y19050000D03*
X14732000Y19050000D03*
X14732000Y18288000D03*
X13970000Y18288000D03*
X13970000Y17526000D03*
X14732000Y17526000D03*
X14732000Y16764000D03*
X13970000Y16764000D03*
X13208000Y16764000D03*
X13208000Y17526000D03*
X12954000Y12954000D03*
X11582400Y60807600D03*
X18542000Y-6146800D03*
X11227589Y59740011D03*
X8382000Y65653920D03*
X3657600Y56946800D03*
X3657600Y61010800D03*
X13919200Y-18745200D03*
X12446000Y33782000D03*
X14043130Y-16592896D03*
X12446000Y33020000D03*
X9906000Y34036000D03*
X9144000Y28702000D03*
X7366000Y34798000D03*
X6604000Y34036000D03*
X5842000Y34036000D03*
X5080000Y34036000D03*
X12630311Y-25209112D03*
X4064000Y29210000D03*
X11176000Y28702000D03*
X8128000Y-25095200D03*
X4826000Y28448000D03*
X10160000Y28702000D03*
X7518400Y-21539200D03*
X4064000Y27178000D03*
X11938000Y28194000D03*
X13716000Y37338000D03*
X21590000Y38100000D03*
X9906000Y29464000D03*
X17068800Y-10965156D03*
X11694755Y-11113555D03*
X14478000Y27686000D03*
X15926589Y-10960311D03*
X7366000Y-10414000D03*
X15240000Y27686000D03*
X13716000Y27686000D03*
X17272000Y27178000D03*
X17068800Y-13208000D03*
X18034000Y27178000D03*
X20850000Y10750000D03*
X21500000Y8800000D03*
X14478000Y52324000D03*
X3708400Y65176400D03*
X12446000Y37338000D03*
X4318000Y34036000D03*
X2540000Y44450000D03*
X13716000Y11176000D03*
X13081000Y11176000D03*
X12446000Y11176000D03*
X12954000Y27686000D03*
X3403600Y-13411200D03*
X3352800Y-12395200D03*
D23*
X5700000Y47370000D02*
X5700000Y73684000D01*
X5700000Y73684000D02*
X6852800Y74836800D01*
X1066800Y71170800D02*
X3186800Y71170800D01*
X3186800Y71170800D02*
X6852800Y74836800D01*
X6852800Y74836800D02*
X6852800Y76860400D01*
X5700000Y47370000D02*
X5700000Y48700000D01*
X5700000Y47370000D02*
X5739939Y47409939D01*
D24*
X23977600Y-3858753D02*
X23977600Y-4673600D01*
X23977600Y-3505200D02*
X23977600Y-3858753D01*
X12442234Y-23426371D02*
X12442234Y-19510966D01*
X12442234Y-19510966D02*
X12446000Y-19507200D01*
X1750000Y53000000D02*
X2500000Y53000000D01*
X2500000Y53000000D02*
X2750000Y53250000D01*
X1270000Y50800000D02*
X1270000Y52430000D01*
X1270000Y52430000D02*
X700000Y53000000D01*
X4300000Y51100000D02*
X4300000Y50250000D01*
X1270000Y50800000D02*
X3200000Y50800000D01*
X3200000Y50800000D02*
X4300000Y51900000D01*
X23050000Y950000D02*
X23050000Y1700000D01*
X18832990Y20780904D02*
X18832990Y20187834D01*
X11400000Y24200000D02*
X11400000Y23800000D01*
X11400000Y23800000D02*
X11800000Y23400000D01*
X11400000Y24200000D02*
X10600000Y23400000D01*
X20474162Y52400000D02*
X19400000Y52400000D01*
X20574000Y49784000D02*
X21416001Y50626001D01*
X21416001Y50626001D02*
X21416001Y51458161D01*
X21416001Y51458161D02*
X20474162Y52400000D01*
X18288000Y43942000D02*
X17526000Y44704000D01*
X18288000Y43942000D02*
X18542000Y43942000D01*
X18542000Y43942000D02*
X19304000Y44704000D01*
X20066000Y43942000D02*
X20828000Y44704000D01*
X13208000Y12192000D02*
X13970000Y12192000D01*
X12446000Y12192000D02*
X13208000Y12192000D01*
X3810000Y33274000D02*
X4318000Y33274000D01*
X3810000Y29972000D02*
X3810000Y33274000D01*
X21082000Y32004000D02*
X21082000Y30734000D01*
X3810000Y29972000D02*
X5588000Y29972000D01*
X10940000Y14859000D02*
X10414000Y14333000D01*
X5588000Y43434000D02*
X6604000Y43434000D01*
D25*
X17674434Y2942434D02*
X17674434Y2588881D01*
X17674434Y2588881D02*
X17780000Y2483315D01*
X17780000Y2483315D02*
X17780000Y-4775200D01*
X17780000Y-4775200D02*
X17780000Y-20396400D01*
X17780000Y-20396400D02*
X18643600Y-21260000D01*
X24100000Y-21260000D02*
X18643600Y-21260000D01*
D24*
X18643600Y-21260000D02*
X16090601Y-21260000D01*
X16090601Y-21260000D02*
X14474230Y-22876371D01*
X14474230Y-22876371D02*
X14474230Y-23426371D01*
D25*
X17674434Y2942434D02*
X16100000Y4516868D01*
X16100000Y4516868D02*
X16100000Y4826000D01*
X16100000Y4826000D02*
X16100000Y6477000D01*
X16100000Y12200000D02*
X16100000Y6477000D01*
D26*
X13096000Y51928000D02*
X13096000Y55439550D01*
X13096000Y55439550D02*
X8881110Y59654440D01*
X8881110Y59654440D02*
X8382000Y59654440D01*
X13096000Y52253330D02*
X13096000Y51928000D01*
X14516599Y45943279D02*
X18034000Y42425878D01*
X14516599Y46553401D02*
X14516599Y45943279D01*
X13700000Y47370000D02*
X14516599Y46553401D01*
X18034000Y42425878D02*
X18034000Y41656000D01*
D25*
X16100000Y13100000D02*
X16100000Y12200000D01*
X16100000Y20550000D02*
X16100000Y13100000D01*
X15309999Y21340001D02*
X16100000Y20550000D01*
X13843000Y21590000D02*
X14092999Y21340001D01*
X14092999Y21340001D02*
X15309999Y21340001D01*
D24*
X9800000Y20400000D02*
X1350000Y20400000D01*
X1350000Y20400000D02*
X1270000Y20320000D01*
X13843000Y20955000D02*
X13843000Y21590000D01*
X13335000Y20574000D02*
X13716000Y20955000D01*
X13716000Y20955000D02*
X13843000Y20955000D01*
X12700000Y20574000D02*
X12446000Y20320000D01*
X12446000Y20320000D02*
X12065000Y20320000D01*
X12065000Y20955000D02*
X12065000Y21590000D01*
D25*
X2794000Y32004000D02*
X2794000Y20320000D01*
D24*
X1397000Y20447000D02*
X1270000Y20320000D01*
D26*
X2794000Y37871400D02*
X2794000Y25146000D01*
X2794000Y25146000D02*
X2794000Y20320000D01*
D27*
X3922000Y25034000D02*
X2906000Y25034000D01*
X2906000Y25034000D02*
X2794000Y25146000D01*
X18034000Y40640000D02*
X18034000Y41656000D01*
D26*
X2794000Y37871400D02*
X2794000Y42164000D01*
X2794000Y42164000D02*
X3556000Y42926000D01*
X3556000Y42926000D02*
X4572000Y42926000D01*
X13096000Y51308000D02*
X13096000Y50404000D01*
X13096000Y50404000D02*
X13700000Y49800000D01*
X13700000Y49800000D02*
X13700000Y49260000D01*
X13700000Y49260000D02*
X13700000Y47370000D01*
X13096000Y51928000D02*
X13096000Y51308000D01*
X13716000Y49784000D02*
X15494000Y49784000D01*
D27*
X13096000Y51308000D02*
X13096000Y50912000D01*
D26*
X18034000Y41656000D02*
X18034000Y39370000D01*
X18034000Y39370000D02*
X17526000Y38862000D01*
X17526000Y38862000D02*
X2794000Y38862000D01*
X2794000Y38862000D02*
X2794000Y37871400D01*
X2794000Y20320000D02*
X1270000Y20320000D01*
D24*
X1270000Y17780000D02*
X12954000Y17780000D01*
X13716000Y13716000D02*
X12954000Y12954000D01*
X12954000Y17780000D02*
X13716000Y17018000D01*
X13716000Y17018000D02*
X13716000Y13716000D01*
X14732000Y19050000D02*
X13970000Y19050000D01*
X13970000Y18288000D02*
X14732000Y18288000D01*
X14732000Y17526000D02*
X13970000Y17526000D01*
X13970000Y16764000D02*
X14732000Y16764000D01*
X13208000Y17526000D02*
X13208000Y16764000D01*
D28*
X11582400Y61451490D02*
X8881110Y64152780D01*
X8881110Y64152780D02*
X8382000Y64152780D01*
X11582400Y60807600D02*
X11582400Y61451490D01*
D25*
X18313410Y-12933410D02*
X18313410Y-6197600D01*
X18313410Y-6197600D02*
X18491200Y-6197600D01*
X18491200Y-6197600D02*
X18542000Y-6146800D01*
X24100000Y-18720000D02*
X18313410Y-12933410D01*
D24*
X7764780Y64152780D02*
X8382000Y64152780D01*
D28*
X10977590Y59990010D02*
X11227589Y59740011D01*
X9814560Y61153040D02*
X10977590Y59990010D01*
X8382000Y61153040D02*
X9814560Y61153040D01*
X1270000Y43180000D02*
X2491314Y43180000D01*
X2491314Y43180000D02*
X5325713Y46014399D01*
X5325713Y46014399D02*
X6634481Y46014399D01*
X6634481Y46014399D02*
X6795999Y46175917D01*
X6795999Y46175917D02*
X6795999Y64567029D01*
X6795999Y64567029D02*
X7882890Y65653920D01*
X7882890Y65653920D02*
X8382000Y65653920D01*
X152399Y53543199D02*
X253999Y53543199D01*
X253999Y53543199D02*
X3657600Y56946800D01*
X1270000Y38100000D02*
X152399Y39217601D01*
X152399Y39217601D02*
X152399Y53543199D01*
X-203212Y52679612D02*
X-203212Y57149988D01*
X-203212Y57149988D02*
X3657600Y61010800D01*
X1270000Y35560000D02*
X-203212Y37033212D01*
X-203212Y37033212D02*
X-203212Y52679612D01*
X13919200Y-18745200D02*
X13919200Y-19098753D01*
X13919200Y-19098753D02*
X13458234Y-19559719D01*
X13458234Y-19559719D02*
X13458234Y-22273171D01*
X13458234Y-22273171D02*
X13458234Y-23426371D01*
D24*
X23368000Y23622000D02*
X24130000Y22860000D01*
X21590000Y25908000D02*
X23368000Y24130000D01*
X16510000Y26924000D02*
X17526000Y25908000D01*
X17526000Y28448000D02*
X16510000Y27432000D01*
X21590000Y34036000D02*
X22352000Y33274000D01*
X23368000Y24130000D02*
X23368000Y23622000D01*
X18288000Y28448000D02*
X18796000Y28956000D01*
X17526000Y25908000D02*
X21590000Y25908000D01*
X22352000Y33274000D02*
X22352000Y29464000D01*
X21844000Y28956000D02*
X18796000Y28956000D01*
X16510000Y27432000D02*
X16510000Y26924000D01*
X22352000Y29464000D02*
X21844000Y28956000D01*
X17526000Y28448000D02*
X18288000Y28448000D01*
X12700000Y34036000D02*
X21590000Y34036000D01*
X12446000Y33782000D02*
X12700000Y34036000D01*
D28*
X13793131Y-16842895D02*
X14043130Y-16592896D01*
X11426230Y-23426371D02*
X11426230Y-19209796D01*
X11426230Y-19209796D02*
X13793131Y-16842895D01*
X11620500Y-23232101D02*
X11426230Y-23426371D01*
D24*
X21336000Y33528000D02*
X13208000Y33528000D01*
X21844000Y33020000D02*
X21336000Y33528000D01*
X21844000Y29718000D02*
X21844000Y33020000D01*
X21590000Y29464000D02*
X21844000Y29718000D01*
X16002000Y27686000D02*
X17272000Y28956000D01*
X16002000Y26670000D02*
X16002000Y27686000D01*
X17272000Y25400000D02*
X16002000Y26670000D01*
X24130000Y20320000D02*
X22860000Y21590000D01*
X12700000Y33020000D02*
X12446000Y33020000D01*
X13208000Y33528000D02*
X12700000Y33020000D01*
X22860000Y21590000D02*
X22860000Y23876000D01*
X18542000Y29464000D02*
X21590000Y29464000D01*
X22860000Y23876000D02*
X21336000Y25400000D01*
X17272000Y28956000D02*
X18034000Y28956000D01*
X21336000Y25400000D02*
X17272000Y25400000D01*
X18034000Y28956000D02*
X18542000Y29464000D01*
X24130000Y20828000D02*
X24130000Y20320000D01*
X9906000Y34036000D02*
X8686800Y32816800D01*
X8686800Y32816800D02*
X8686800Y30226000D01*
X8686800Y30226000D02*
X9144000Y29768800D01*
X9144000Y29768800D02*
X9144000Y28702000D01*
X7366000Y34798000D02*
X7620000Y35052000D01*
X7620000Y35052000D02*
X22098000Y35052000D01*
X22098000Y35052000D02*
X24130000Y33020000D01*
X6604000Y34036000D02*
X6604000Y35052000D01*
X6604000Y35052000D02*
X7112000Y35560000D01*
X7112000Y35560000D02*
X24130000Y35560000D01*
X24130000Y40640000D02*
X25310601Y41820601D01*
X25310601Y41820601D02*
X25310601Y43746689D01*
X25310601Y43746689D02*
X24657290Y44400000D01*
X24657290Y44400000D02*
X23702710Y44400000D01*
X23702710Y44400000D02*
X22949399Y45153311D01*
X22949399Y45153311D02*
X22949399Y59083711D01*
X22949399Y59083711D02*
X8881110Y73152000D01*
X8881110Y73152000D02*
X8382000Y73152000D01*
X5842000Y34036000D02*
X5842000Y35052000D01*
X5842000Y35052000D02*
X6858000Y36068000D01*
X6858000Y36068000D02*
X21336000Y36068000D01*
X21336000Y36068000D02*
X22860000Y37592000D01*
X22860000Y37592000D02*
X22860000Y39370000D01*
X22860000Y39370000D02*
X24130000Y40640000D01*
X22200000Y58334510D02*
X8881110Y71653400D01*
X8881110Y71653400D02*
X8382000Y71653400D01*
X22200000Y54600000D02*
X22200000Y58334510D01*
X22200000Y45110000D02*
X22200000Y54600000D01*
X22200000Y54600000D02*
X22200000Y54800000D01*
X24130000Y43180000D02*
X22200000Y45110000D01*
X5080000Y34036000D02*
X5080000Y35052000D01*
X5080000Y35052000D02*
X6604000Y36576000D01*
X6604000Y36576000D02*
X21082000Y36576000D01*
X21082000Y36576000D02*
X22352000Y37846000D01*
X22352000Y37846000D02*
X22352000Y41402000D01*
X22352000Y41402000D02*
X24130000Y43180000D01*
D28*
X12033012Y-25806411D02*
X12380312Y-25459111D01*
X8167390Y-25806411D02*
X12033012Y-25806411D01*
X12380312Y-25459111D02*
X12630311Y-25209112D01*
X1270000Y30480000D02*
X-711222Y28498778D01*
X-711222Y28498778D02*
X-711222Y-22448486D01*
X9394230Y-24579571D02*
X9394230Y-23426371D01*
X-711222Y-22448486D02*
X2646702Y-25806411D01*
X2646702Y-25806411D02*
X8167390Y-25806411D01*
X8167390Y-25806411D02*
X9394230Y-24579571D01*
D24*
X4064000Y29210000D02*
X4064000Y28194000D01*
X4064000Y28194000D02*
X5080000Y27178000D01*
X5080000Y27178000D02*
X9652000Y27178000D01*
X9652000Y27178000D02*
X11176000Y28702000D01*
X11176000Y28702000D02*
X11430000Y28956000D01*
X11430000Y28956000D02*
X11938000Y28956000D01*
X11938000Y28956000D02*
X12446000Y29464000D01*
X12446000Y29464000D02*
X13716000Y29464000D01*
X13716000Y29464000D02*
X14224000Y29972000D01*
X14224000Y29972000D02*
X15494000Y29972000D01*
X15494000Y29972000D02*
X15700000Y30178000D01*
X15700000Y30178000D02*
X15700000Y31370000D01*
D28*
X5475001Y-25450800D02*
X7772400Y-25450800D01*
X7772400Y-25450800D02*
X8128000Y-25095200D01*
X1270000Y27940000D02*
X-355611Y26314389D01*
X-355611Y26314389D02*
X-355611Y-21691589D01*
X-355611Y-21691589D02*
X-355600Y-21691600D01*
X5475001Y-25450800D02*
X6346230Y-24579571D01*
X-355600Y-21691600D02*
X-355600Y-22301200D01*
X-355600Y-22301200D02*
X2794000Y-25450800D01*
X2794000Y-25450800D02*
X5475001Y-25450800D01*
X6346230Y-24579571D02*
X6346230Y-23426371D01*
D24*
X4826000Y28448000D02*
X4826000Y28194000D01*
X4826000Y28194000D02*
X5334000Y27686000D01*
X9144000Y27686000D02*
X10160000Y28702000D01*
X5334000Y27686000D02*
X9144000Y27686000D01*
X13462000Y29972000D02*
X13700000Y30210000D01*
X12192000Y29972000D02*
X13462000Y29972000D01*
X10922000Y29464000D02*
X11684000Y29464000D01*
X11684000Y29464000D02*
X12192000Y29972000D01*
X10160000Y28702000D02*
X10922000Y29464000D01*
X13700000Y30210000D02*
X13700000Y31370000D01*
D28*
X5866259Y-20777200D02*
X7362230Y-22273171D01*
X5409059Y-20320000D02*
X5866259Y-20777200D01*
X5866259Y-20777200D02*
X6756400Y-20777200D01*
X6756400Y-20777200D02*
X7518400Y-21539200D01*
X0Y-5029200D02*
X0Y-19507200D01*
X0Y-19507200D02*
X812800Y-20320000D01*
X812800Y-20320000D02*
X5409059Y-20320000D01*
X7362230Y-22273171D02*
X7362230Y-23426371D01*
X0Y4699000D02*
X0Y-5029200D01*
X16970Y-5012230D02*
X0Y-5029200D01*
X0Y24130000D02*
X406401Y24536401D01*
X406401Y24536401D02*
X1270000Y25400000D01*
X0Y4699000D02*
X0Y24130000D01*
D24*
X4064000Y27178000D02*
X4572000Y26670000D01*
X4572000Y26670000D02*
X10414000Y26670000D01*
X10414000Y26670000D02*
X11938000Y28194000D01*
X11938000Y28194000D02*
X12700000Y28956000D01*
X12700000Y28956000D02*
X13970000Y28956000D01*
X13970000Y28956000D02*
X14478000Y29464000D01*
X16256000Y29972000D02*
X17526000Y29972000D01*
X17700000Y30146000D02*
X17700000Y31370000D01*
X14478000Y29464000D02*
X15748000Y29464000D01*
X15748000Y29464000D02*
X16256000Y29972000D01*
X17526000Y29972000D02*
X17700000Y30146000D01*
X13716000Y37338000D02*
X13970000Y37084000D01*
X13970000Y37084000D02*
X20574000Y37084000D01*
X20574000Y37084000D02*
X21590000Y38100000D01*
X21590000Y38100000D02*
X21590000Y44958000D01*
X21590000Y44958000D02*
X21082000Y45466000D01*
X21082000Y45466000D02*
X16256000Y45466000D01*
X15700000Y46022000D02*
X15700000Y47370000D01*
X16256000Y45466000D02*
X15700000Y46022000D01*
X11700000Y31370000D02*
X11700000Y34052000D01*
X11700000Y34052000D02*
X12192000Y34544000D01*
X12192000Y34544000D02*
X21844000Y34544000D01*
X21844000Y34544000D02*
X22860000Y33528000D01*
X22860000Y33528000D02*
X22860000Y31750000D01*
X22860000Y31750000D02*
X24130000Y30480000D01*
X9906000Y29464000D02*
X10414000Y29972000D01*
X10414000Y29972000D02*
X11430000Y29972000D01*
X11430000Y29972000D02*
X11700000Y30242000D01*
X11700000Y30242000D02*
X11700000Y31370000D01*
X24130000Y30734000D02*
X24130000Y30480000D01*
D28*
X16569644Y-11464312D02*
X16818801Y-11215155D01*
X16818801Y-11215155D02*
X17068800Y-10965156D01*
X11694755Y-11113555D02*
X12045512Y-11464312D01*
X12045512Y-11464312D02*
X16569644Y-11464312D01*
X1651000Y-17462501D02*
X5345809Y-17462501D01*
X5345809Y-17462501D02*
X11694755Y-11113555D01*
D24*
X21844000Y23368000D02*
X21844000Y19304000D01*
X22860000Y16510000D02*
X23266401Y16103599D01*
X23266401Y16103599D02*
X24130000Y15240000D01*
X16861829Y24384000D02*
X20828000Y24384000D01*
X22860000Y18288000D02*
X22860000Y16510000D01*
X14478000Y27686000D02*
X14478000Y26767830D01*
X14478000Y26767830D02*
X16861829Y24384000D01*
X21844000Y19304000D02*
X22860000Y18288000D01*
X20828000Y24384000D02*
X21844000Y23368000D01*
D28*
X7366000Y-10414000D02*
X15380278Y-10414000D01*
X15676590Y-10710312D02*
X15926589Y-10960311D01*
X15380278Y-10414000D02*
X15676590Y-10710312D01*
X7366000Y-10414000D02*
X7366000Y-8700551D01*
X7366000Y-8700551D02*
X7370450Y-8696101D01*
D24*
X22860000Y20828000D02*
X22860000Y19050000D01*
X22352000Y21336000D02*
X22860000Y20828000D01*
X15240000Y26670000D02*
X17018000Y24892000D01*
X17018000Y24892000D02*
X21082000Y24892000D01*
X22352000Y23622000D02*
X22352000Y21336000D01*
X22860000Y19050000D02*
X24130000Y17780000D01*
X15240000Y27686000D02*
X15240000Y26670000D01*
X21082000Y24892000D02*
X22352000Y23622000D01*
X24130000Y18034000D02*
X24130000Y17780000D01*
X23266401Y13563599D02*
X24130000Y12700000D01*
X22860000Y13970000D02*
X23266401Y13563599D01*
X13716000Y26955079D02*
X16795078Y23876000D01*
X22860000Y15748000D02*
X22860000Y13970000D01*
X13716000Y27686000D02*
X13716000Y26955079D01*
X20574000Y23876000D02*
X21336000Y23114000D01*
X16795078Y23876000D02*
X20574000Y23876000D01*
X21336000Y17272000D02*
X22860000Y15748000D01*
X21336000Y23114000D02*
X21336000Y17272000D01*
X17272000Y27178000D02*
X17272000Y27432000D01*
X18542000Y27940000D02*
X19050000Y28448000D01*
X19050000Y28448000D02*
X22352000Y28448000D01*
X22860000Y27940000D02*
X22352000Y28448000D01*
X24130000Y27940000D02*
X22860000Y27940000D01*
X17780000Y27940000D02*
X18542000Y27940000D01*
X17272000Y27432000D02*
X17780000Y27940000D01*
D28*
X17068800Y-13208000D02*
X16715247Y-13208000D01*
X8378230Y-21545017D02*
X8378230Y-22273171D01*
X8378230Y-22273171D02*
X8378230Y-23426371D01*
X16715247Y-13208000D02*
X8378230Y-21545017D01*
D24*
X8318500Y-23366641D02*
X8378230Y-23426371D01*
X18288000Y26416000D02*
X21844000Y26416000D01*
X22860000Y25400000D02*
X24130000Y25400000D01*
X18034000Y26670000D02*
X18288000Y26416000D01*
X21844000Y26416000D02*
X22860000Y25400000D01*
X18034000Y27178000D02*
X18034000Y26670000D01*
D28*
X24130000Y5080000D02*
X25179010Y4030990D01*
X25179010Y4030990D02*
X25179010Y-12560990D01*
X25179010Y-12560990D02*
X24100000Y-13640000D01*
D24*
X20850000Y10750000D02*
X20850000Y8360000D01*
X20850000Y8360000D02*
X24130000Y5080000D01*
X24130000Y5420000D02*
X24130000Y5080000D01*
D28*
X24130000Y7620000D02*
X25534620Y6215380D01*
X25534620Y6215380D02*
X25534620Y-14745380D01*
X25534620Y-14745380D02*
X24100000Y-16180000D01*
D24*
X21500000Y8800000D02*
X22680000Y7620000D01*
X22680000Y7620000D02*
X24130000Y7620000D01*
X14478000Y52324000D02*
X14478000Y52070000D01*
X14478000Y52070000D02*
X15494000Y51054000D01*
D28*
X-609600Y52019200D02*
X-609600Y60858400D01*
X-609600Y60858400D02*
X3708400Y65176400D01*
X-609600Y33678286D02*
X-609600Y52019200D01*
X1270000Y33020000D02*
X48686Y33020000D01*
X48686Y33020000D02*
X-609600Y33678286D01*
D24*
X12446000Y37338000D02*
X12192000Y37084000D01*
X12192000Y37084000D02*
X6350000Y37084000D01*
X6350000Y37084000D02*
X4318000Y35052000D01*
X4318000Y35052000D02*
X4318000Y34036000D01*
X2540000Y44450000D02*
X2540000Y46990000D01*
X2540000Y46990000D02*
X1270000Y48260000D01*
D23*
X24384000Y73152000D02*
X21133400Y73152000D01*
X21133400Y73152000D02*
X18750400Y75535000D01*
X18750400Y75535000D02*
X18750400Y77000000D01*
D24*
X20828000Y22860000D02*
X20828000Y13462000D01*
X23266401Y11023599D02*
X24130000Y10160000D01*
X20828000Y13462000D02*
X23266401Y11023599D01*
X20320000Y23368000D02*
X20828000Y22860000D01*
X16728327Y23368000D02*
X20320000Y23368000D01*
X12954000Y27686000D02*
X12954000Y27142327D01*
X12954000Y27142327D02*
X16728327Y23368000D01*
D28*
X3403600Y-13411200D02*
X1663699Y-13411200D01*
X1663699Y-13411200D02*
X1651000Y-13398501D01*
X3352800Y-12395200D02*
X1663699Y-12395200D01*
X1663699Y-12395200D02*
X1651000Y-12382501D01*
M02*
