G04 #@! TF.FileFunction,Soldermask,Top*
%FSLAX46Y46*%
G04 Gerber Fmt 4.6, Leading zero omitted, Abs format (unit mm)*
G04 Created by KiCad (PCBNEW 4.0.7-e2-6376~58~ubuntu16.04.1) date Mon Jun 18 12:46:04 2018*
%MOMM*%
%LPD*%
G01*
G04 APERTURE LIST*
%ADD10C,0.100000*%
%ADD11C,2.403200*%
%ADD12R,1.203200X1.303200*%
%ADD13R,1.303200X1.203200*%
%ADD14R,0.600000X0.700000*%
%ADD15R,1.800000X1.300000*%
%ADD16R,0.600000X0.450000*%
%ADD17R,1.203200X0.903200*%
%ADD18R,0.803200X0.903200*%
%ADD19R,1.203200X1.703200*%
%ADD20R,0.803200X1.903200*%
%ADD21R,1.203200X3.003200*%
%ADD22R,2.700000X0.950000*%
%ADD23R,1.203200X3.703200*%
%ADD24R,1.703200X3.603200*%
%ADD25R,1.473200X4.403200*%
%ADD26R,2.003200X5.903200*%
%ADD27R,0.853200X1.253200*%
%ADD28R,1.653200X0.903200*%
%ADD29R,0.853200X1.763200*%
%ADD30R,0.803200X2.203200*%
%ADD31R,0.890000X0.890000*%
%ADD32R,0.990000X0.420000*%
%ADD33R,0.420000X0.990000*%
%ADD34R,0.440000X0.990000*%
%ADD35R,2.203200X0.803200*%
%ADD36R,0.453200X0.903200*%
%ADD37R,1.028200X1.053200*%
%ADD38R,0.953200X0.503200*%
%ADD39R,1.078200X0.928200*%
%ADD40R,2.103200X1.303200*%
%ADD41C,1.253200*%
%ADD42C,1.503200*%
%ADD43R,1.003200X1.403200*%
%ADD44R,1.003200X2.403200*%
%ADD45R,2.203200X2.703200*%
%ADD46R,4.403200X1.473200*%
%ADD47R,1.903200X1.903200*%
%ADD48R,1.553200X0.603200*%
%ADD49C,1.403200*%
%ADD50C,1.903200*%
%ADD51R,1.253200X0.853200*%
%ADD52C,2.000000*%
G04 APERTURE END LIST*
D10*
G36*
X-5023463Y6610889D02*
X-4703002Y6931350D01*
X-3640079Y5868427D01*
X-3960540Y5547966D01*
X-5023463Y6610889D01*
X-5023463Y6610889D01*
G37*
G36*
X-5377016Y6257336D02*
X-5056555Y6577797D01*
X-3993632Y5514874D01*
X-4314093Y5194413D01*
X-5377016Y6257336D01*
X-5377016Y6257336D01*
G37*
G36*
X-5730570Y5903782D02*
X-5410109Y6224243D01*
X-4347186Y5161320D01*
X-4667647Y4840859D01*
X-5730570Y5903782D01*
X-5730570Y5903782D01*
G37*
G36*
X-6084123Y5550229D02*
X-5763662Y5870690D01*
X-4700739Y4807767D01*
X-5021200Y4487306D01*
X-6084123Y5550229D01*
X-6084123Y5550229D01*
G37*
G36*
X-6437676Y5196676D02*
X-6117215Y5517137D01*
X-5054292Y4454214D01*
X-5374753Y4133753D01*
X-6437676Y5196676D01*
X-6437676Y5196676D01*
G37*
G36*
X-6791230Y4843122D02*
X-6470769Y5163583D01*
X-5407846Y4100660D01*
X-5728307Y3780199D01*
X-6791230Y4843122D01*
X-6791230Y4843122D01*
G37*
G36*
X-7144783Y4489569D02*
X-6824322Y4810030D01*
X-5761399Y3747107D01*
X-6081860Y3426646D01*
X-7144783Y4489569D01*
X-7144783Y4489569D01*
G37*
G36*
X-7498337Y4136015D02*
X-7177876Y4456476D01*
X-6114953Y3393553D01*
X-6435414Y3073092D01*
X-7498337Y4136015D01*
X-7498337Y4136015D01*
G37*
G36*
X-7851890Y3782462D02*
X-7531429Y4102923D01*
X-6468506Y3040000D01*
X-6788967Y2719539D01*
X-7851890Y3782462D01*
X-7851890Y3782462D01*
G37*
G36*
X-8205443Y3428909D02*
X-7884982Y3749370D01*
X-6822059Y2686447D01*
X-7142520Y2365986D01*
X-8205443Y3428909D01*
X-8205443Y3428909D01*
G37*
G36*
X-8558997Y3075355D02*
X-8238536Y3395816D01*
X-7175613Y2332893D01*
X-7496074Y2012432D01*
X-8558997Y3075355D01*
X-8558997Y3075355D01*
G37*
G36*
X-8912550Y2721802D02*
X-8592089Y3042263D01*
X-7529166Y1979340D01*
X-7849627Y1658879D01*
X-8912550Y2721802D01*
X-8912550Y2721802D01*
G37*
G36*
X-8592089Y-603863D02*
X-8912550Y-283402D01*
X-7849627Y779521D01*
X-7529166Y459060D01*
X-8592089Y-603863D01*
X-8592089Y-603863D01*
G37*
G36*
X-8238536Y-957416D02*
X-8558997Y-636955D01*
X-7496074Y425968D01*
X-7175613Y105507D01*
X-8238536Y-957416D01*
X-8238536Y-957416D01*
G37*
G36*
X-7884982Y-1310970D02*
X-8205443Y-990509D01*
X-7142520Y72414D01*
X-6822059Y-248047D01*
X-7884982Y-1310970D01*
X-7884982Y-1310970D01*
G37*
G36*
X-7531429Y-1664523D02*
X-7851890Y-1344062D01*
X-6788967Y-281139D01*
X-6468506Y-601600D01*
X-7531429Y-1664523D01*
X-7531429Y-1664523D01*
G37*
G36*
X-7177876Y-2018076D02*
X-7498337Y-1697615D01*
X-6435414Y-634692D01*
X-6114953Y-955153D01*
X-7177876Y-2018076D01*
X-7177876Y-2018076D01*
G37*
G36*
X-6824322Y-2371630D02*
X-7144783Y-2051169D01*
X-6081860Y-988246D01*
X-5761399Y-1308707D01*
X-6824322Y-2371630D01*
X-6824322Y-2371630D01*
G37*
G36*
X-6470769Y-2725183D02*
X-6791230Y-2404722D01*
X-5728307Y-1341799D01*
X-5407846Y-1662260D01*
X-6470769Y-2725183D01*
X-6470769Y-2725183D01*
G37*
G36*
X-6117215Y-3078737D02*
X-6437676Y-2758276D01*
X-5374753Y-1695353D01*
X-5054292Y-2015814D01*
X-6117215Y-3078737D01*
X-6117215Y-3078737D01*
G37*
G36*
X-5763662Y-3432290D02*
X-6084123Y-3111829D01*
X-5021200Y-2048906D01*
X-4700739Y-2369367D01*
X-5763662Y-3432290D01*
X-5763662Y-3432290D01*
G37*
G36*
X-5410109Y-3785843D02*
X-5730570Y-3465382D01*
X-4667647Y-2402459D01*
X-4347186Y-2722920D01*
X-5410109Y-3785843D01*
X-5410109Y-3785843D01*
G37*
G36*
X-5056555Y-4139397D02*
X-5377016Y-3818936D01*
X-4314093Y-2756013D01*
X-3993632Y-3076474D01*
X-5056555Y-4139397D01*
X-5056555Y-4139397D01*
G37*
G36*
X-4703002Y-4492950D02*
X-5023463Y-4172489D01*
X-3960540Y-3109566D01*
X-3640079Y-3430027D01*
X-4703002Y-4492950D01*
X-4703002Y-4492950D01*
G37*
G36*
X-2760721Y-3430027D02*
X-2440260Y-3109566D01*
X-1377337Y-4172489D01*
X-1697798Y-4492950D01*
X-2760721Y-3430027D01*
X-2760721Y-3430027D01*
G37*
G36*
X-2407168Y-3076474D02*
X-2086707Y-2756013D01*
X-1023784Y-3818936D01*
X-1344245Y-4139397D01*
X-2407168Y-3076474D01*
X-2407168Y-3076474D01*
G37*
G36*
X-2053614Y-2722920D02*
X-1733153Y-2402459D01*
X-670230Y-3465382D01*
X-990691Y-3785843D01*
X-2053614Y-2722920D01*
X-2053614Y-2722920D01*
G37*
G36*
X-1700061Y-2369367D02*
X-1379600Y-2048906D01*
X-316677Y-3111829D01*
X-637138Y-3432290D01*
X-1700061Y-2369367D01*
X-1700061Y-2369367D01*
G37*
G36*
X-1346508Y-2015814D02*
X-1026047Y-1695353D01*
X36876Y-2758276D01*
X-283585Y-3078737D01*
X-1346508Y-2015814D01*
X-1346508Y-2015814D01*
G37*
G36*
X-992954Y-1662260D02*
X-672493Y-1341799D01*
X390430Y-2404722D01*
X69969Y-2725183D01*
X-992954Y-1662260D01*
X-992954Y-1662260D01*
G37*
G36*
X-639401Y-1308707D02*
X-318940Y-988246D01*
X743983Y-2051169D01*
X423522Y-2371630D01*
X-639401Y-1308707D01*
X-639401Y-1308707D01*
G37*
G36*
X-285847Y-955153D02*
X34614Y-634692D01*
X1097537Y-1697615D01*
X777076Y-2018076D01*
X-285847Y-955153D01*
X-285847Y-955153D01*
G37*
G36*
X67706Y-601600D02*
X388167Y-281139D01*
X1451090Y-1344062D01*
X1130629Y-1664523D01*
X67706Y-601600D01*
X67706Y-601600D01*
G37*
G36*
X421259Y-248047D02*
X741720Y72414D01*
X1804643Y-990509D01*
X1484182Y-1310970D01*
X421259Y-248047D01*
X421259Y-248047D01*
G37*
G36*
X774813Y105507D02*
X1095274Y425968D01*
X2158197Y-636955D01*
X1837736Y-957416D01*
X774813Y105507D01*
X774813Y105507D01*
G37*
G36*
X1128366Y459060D02*
X1448827Y779521D01*
X2511750Y-283402D01*
X2191289Y-603863D01*
X1128366Y459060D01*
X1128366Y459060D01*
G37*
G36*
X1448827Y1658879D02*
X1128366Y1979340D01*
X2191289Y3042263D01*
X2511750Y2721802D01*
X1448827Y1658879D01*
X1448827Y1658879D01*
G37*
G36*
X1095274Y2012432D02*
X774813Y2332893D01*
X1837736Y3395816D01*
X2158197Y3075355D01*
X1095274Y2012432D01*
X1095274Y2012432D01*
G37*
G36*
X741720Y2365986D02*
X421259Y2686447D01*
X1484182Y3749370D01*
X1804643Y3428909D01*
X741720Y2365986D01*
X741720Y2365986D01*
G37*
G36*
X388167Y2719539D02*
X67706Y3040000D01*
X1130629Y4102923D01*
X1451090Y3782462D01*
X388167Y2719539D01*
X388167Y2719539D01*
G37*
G36*
X34614Y3073092D02*
X-285847Y3393553D01*
X777076Y4456476D01*
X1097537Y4136015D01*
X34614Y3073092D01*
X34614Y3073092D01*
G37*
G36*
X-318940Y3426646D02*
X-639401Y3747107D01*
X423522Y4810030D01*
X743983Y4489569D01*
X-318940Y3426646D01*
X-318940Y3426646D01*
G37*
G36*
X-672493Y3780199D02*
X-992954Y4100660D01*
X69969Y5163583D01*
X390430Y4843122D01*
X-672493Y3780199D01*
X-672493Y3780199D01*
G37*
G36*
X-1026047Y4133753D02*
X-1346508Y4454214D01*
X-283585Y5517137D01*
X36876Y5196676D01*
X-1026047Y4133753D01*
X-1026047Y4133753D01*
G37*
G36*
X-1379600Y4487306D02*
X-1700061Y4807767D01*
X-637138Y5870690D01*
X-316677Y5550229D01*
X-1379600Y4487306D01*
X-1379600Y4487306D01*
G37*
G36*
X-1733153Y4840859D02*
X-2053614Y5161320D01*
X-990691Y6224243D01*
X-670230Y5903782D01*
X-1733153Y4840859D01*
X-1733153Y4840859D01*
G37*
G36*
X-2086707Y5194413D02*
X-2407168Y5514874D01*
X-1344245Y6577797D01*
X-1023784Y6257336D01*
X-2086707Y5194413D01*
X-2086707Y5194413D01*
G37*
G36*
X-2440260Y5547966D02*
X-2760721Y5868427D01*
X-1697798Y6931350D01*
X-1377337Y6610889D01*
X-2440260Y5547966D01*
X-2440260Y5547966D01*
G37*
D11*
X47107200Y-18026600D03*
D10*
G36*
X-2336333Y11288208D02*
X-3187124Y10437417D01*
X-4108625Y11358918D01*
X-3257834Y12209709D01*
X-2336333Y11288208D01*
X-2336333Y11288208D01*
G37*
G36*
X-3538415Y12490290D02*
X-4389206Y11639499D01*
X-5310707Y12561000D01*
X-4459916Y13411791D01*
X-3538415Y12490290D01*
X-3538415Y12490290D01*
G37*
G36*
X-2779266Y10029559D02*
X-1928475Y10880350D01*
X-1006974Y9958849D01*
X-1857765Y9108058D01*
X-2779266Y10029559D01*
X-2779266Y10029559D01*
G37*
G36*
X-1577184Y8827477D02*
X-726393Y9678268D01*
X195108Y8756767D01*
X-655683Y7905976D01*
X-1577184Y8827477D01*
X-1577184Y8827477D01*
G37*
D12*
X-9779000Y-3087000D03*
X-9779000Y-4787000D03*
X5334000Y7176400D03*
X5334000Y8876400D03*
X-9552408Y6469176D03*
X-9552408Y8169176D03*
X1981200Y7176400D03*
X1981200Y8876400D03*
X3657600Y7176400D03*
X3657600Y8876400D03*
D13*
X-39326514Y5391344D03*
X-37626514Y5391344D03*
D12*
X-8536042Y14520594D03*
X-8536042Y12820594D03*
D13*
X-33035553Y11480941D03*
X-34735553Y11480941D03*
X-46672612Y2283065D03*
X-48372612Y2283065D03*
X-25602300Y-4546600D03*
X-23902300Y-4546600D03*
D12*
X-42824400Y12459600D03*
X-42824400Y14159600D03*
D13*
X-34749153Y8128141D03*
X-33049153Y8128141D03*
X-34735553Y6451741D03*
X-33035553Y6451741D03*
D12*
X-24739600Y729223D03*
X-24739600Y-970777D03*
X-26583981Y729223D03*
X-26583981Y-970777D03*
D13*
X-31793310Y-9562314D03*
X-30093310Y-9562314D03*
X-30093310Y-6006314D03*
X-31793310Y-6006314D03*
D12*
X-28397200Y736600D03*
X-28397200Y-963400D03*
X-29802214Y6592844D03*
X-29802214Y8292844D03*
X-16728781Y6496823D03*
X-16728781Y8196823D03*
X-18455981Y6496823D03*
X-18455981Y8196823D03*
X35509200Y14139200D03*
X35509200Y15839200D03*
X-31902400Y-16730000D03*
X-31902400Y-18430000D03*
X-28236730Y-16749830D03*
X-28236730Y-18449830D03*
X30429200Y14139200D03*
X30429200Y15839200D03*
X20320000Y14139200D03*
X20320000Y15839200D03*
X25349200Y14139200D03*
X25349200Y15839200D03*
D14*
X-32319200Y15528000D03*
X-33619200Y15528000D03*
D15*
X-32969200Y14478000D03*
D16*
X-32969200Y13803000D03*
D17*
X-39190400Y-2101600D03*
D18*
X-37490400Y-2101600D03*
X-37490400Y-101600D03*
X-39390400Y-101600D03*
D13*
X-29450400Y16056000D03*
X-27750400Y16056000D03*
X-29450400Y12804800D03*
X-27750400Y12804800D03*
D12*
X1066800Y14102000D03*
X1066800Y15802000D03*
D19*
X-37152400Y1727200D03*
X-39352400Y1727200D03*
D20*
X15982000Y-8718000D03*
X14732000Y-8718000D03*
X13482000Y-8718000D03*
D21*
X17832000Y-12068000D03*
X11632000Y-12068000D03*
D20*
X-18702400Y15643600D03*
X-19952400Y15643600D03*
X-21202400Y15643600D03*
X-22452400Y15643600D03*
X-23702400Y15643600D03*
D21*
X-16852400Y12293600D03*
X-25552400Y12293600D03*
D22*
X7791200Y-13665200D03*
X3791200Y-13665200D03*
X7791200Y-12395200D03*
X3791200Y-12395200D03*
X7791200Y-11125200D03*
X3791200Y-11125200D03*
X7791200Y-9855200D03*
X3791200Y-9855200D03*
X7791200Y-8585200D03*
X3791200Y-8585200D03*
D23*
X-42754800Y-11976000D03*
X-40754800Y-11976000D03*
D24*
X-45104800Y-17526000D03*
X-38404800Y-17526000D03*
D25*
X5537200Y14884400D03*
X8037200Y14884400D03*
X3037200Y14884400D03*
D12*
X-11295208Y6453976D03*
X-11295208Y8153976D03*
D13*
X-39326514Y3664144D03*
X-37626514Y3664144D03*
D26*
X-20284781Y2012823D03*
X-15712781Y2012823D03*
D11*
X-47839740Y-18027140D03*
X47107820Y15420720D03*
X-47839440Y15420880D03*
D27*
X35575200Y10047600D03*
X37475200Y10047600D03*
X36525200Y12347600D03*
X30495200Y10029200D03*
X32395200Y10029200D03*
X31445200Y12329200D03*
X20386000Y10047600D03*
X22286000Y10047600D03*
X21336000Y12347600D03*
X25415200Y10080000D03*
X27315200Y10080000D03*
X26365200Y12380000D03*
D12*
X-19659600Y-16730000D03*
X-19659600Y-18430000D03*
X-17932400Y-16730000D03*
X-17932400Y-18430000D03*
X37541200Y15839200D03*
X37541200Y14139200D03*
X-33731200Y-16730000D03*
X-33731200Y-18430000D03*
X-30073600Y-16780800D03*
X-30073600Y-18480800D03*
D13*
X20204800Y-17754600D03*
X18504800Y-17754600D03*
X20204800Y-15976600D03*
X18504800Y-15976600D03*
X10783200Y11988800D03*
X12483200Y11988800D03*
X16344000Y11988800D03*
X14644000Y11988800D03*
D12*
X32461200Y15839200D03*
X32461200Y14139200D03*
X22352000Y15839200D03*
X22352000Y14139200D03*
X27381200Y15839200D03*
X27381200Y14139200D03*
D13*
X-33035553Y9804541D03*
X-34735553Y9804541D03*
D12*
X-35815953Y15988541D03*
X-35815953Y14288541D03*
X6611642Y616974D03*
X6611642Y2316974D03*
X-37593953Y15988541D03*
X-37593953Y14288541D03*
X-39321153Y15988541D03*
X-39321153Y14288541D03*
X4986042Y616974D03*
X4986042Y2316974D03*
D13*
X-46672612Y632065D03*
X-48372612Y632065D03*
X-29450400Y14430400D03*
X-27750400Y14430400D03*
X-29450400Y11179200D03*
X-27750400Y11179200D03*
D12*
X-41099153Y14288541D03*
X-41099153Y15988541D03*
D13*
X35259711Y-10504605D03*
X36959711Y-10504605D03*
X35259711Y-12130205D03*
X36959711Y-12130205D03*
D12*
X-23012400Y-970777D03*
X-23012400Y729223D03*
X-711200Y14291600D03*
X-711200Y15991600D03*
D13*
X-30093310Y-11289514D03*
X-31793310Y-11289514D03*
X-30093310Y-7784314D03*
X-31793310Y-7784314D03*
X-37400600Y-5715000D03*
X-35700600Y-5715000D03*
D12*
X-39243000Y-7758800D03*
X-39243000Y-6058800D03*
X-28057181Y6598423D03*
X-28057181Y8298423D03*
D13*
X-29755200Y4775200D03*
X-28055200Y4775200D03*
D28*
X11316469Y-18271829D03*
X16476469Y-18271829D03*
X16476469Y-16271829D03*
X11316469Y-16271829D03*
X16143600Y16073000D03*
X10983600Y16073000D03*
X10983600Y14073000D03*
X16143600Y14073000D03*
D29*
X-12278642Y12436208D03*
X-11328642Y12436208D03*
X-10378642Y12436208D03*
X-10378642Y15136208D03*
X-12278642Y15136208D03*
D30*
X-26873200Y-6723400D03*
X-25603200Y-6723400D03*
X-24333200Y-6723400D03*
X-23063200Y-6723400D03*
X-23063200Y-12123400D03*
X-24333200Y-12123400D03*
X-25603200Y-12123400D03*
X-26873200Y-12123400D03*
D31*
X-38247283Y8665733D03*
X-38247283Y9415733D03*
X-38997283Y9415733D03*
X-38997283Y8665733D03*
D32*
X-40097283Y9790733D03*
X-40097283Y9290733D03*
X-40097283Y8790733D03*
X-40097283Y8290733D03*
D33*
X-39372283Y7565733D03*
X-38872283Y7565733D03*
D34*
X-38372283Y7565733D03*
D33*
X-37872283Y7565733D03*
D32*
X-37147283Y8290733D03*
X-37147283Y8790733D03*
X-37147283Y9290733D03*
X-37147283Y9790733D03*
D33*
X-37872283Y10515733D03*
X-38372283Y10515733D03*
X-38872283Y10515733D03*
D34*
X-39372283Y10515733D03*
D35*
X32265600Y-14757400D03*
X32265600Y-16027400D03*
X32265600Y-17297400D03*
X32265600Y-18567400D03*
X26865600Y-18567400D03*
X26865600Y-17297400D03*
X26865600Y-16027400D03*
X26865600Y-14757400D03*
D36*
X-25477181Y4345223D03*
X-24977181Y4345223D03*
X-24477181Y4345223D03*
X-23977181Y4345223D03*
X-23477181Y4345223D03*
X-22977181Y4345223D03*
X-22977181Y7245223D03*
X-23477181Y7245223D03*
X-23977181Y7245223D03*
X-24477181Y7245223D03*
X-24977181Y7245223D03*
X-25477181Y7245223D03*
D37*
X-22989681Y6220223D03*
X-23814681Y6220223D03*
X-24639681Y6220223D03*
X-25464681Y6220223D03*
X-22989681Y5370223D03*
X-23814681Y5370223D03*
X-24639681Y5370223D03*
X-25464681Y5370223D03*
D38*
X-34502810Y-9049214D03*
X-34502810Y-8549214D03*
X-34502810Y-8049214D03*
X-34502810Y-7549214D03*
X-37402810Y-7549214D03*
X-37402810Y-8049214D03*
X-37402810Y-8549214D03*
X-37402810Y-9049214D03*
D39*
X-36390310Y-7936714D03*
X-36390310Y-8661714D03*
X-35515310Y-7936714D03*
X-35515310Y-8661714D03*
D10*
G36*
X-6101427Y9643440D02*
X-4614240Y11130627D01*
X-3692739Y10209126D01*
X-5179926Y8721939D01*
X-6101427Y9643440D01*
X-6101427Y9643440D01*
G37*
G36*
X-4333661Y7875674D02*
X-2846474Y9362861D01*
X-1924973Y8441360D01*
X-3412160Y6954173D01*
X-4333661Y7875674D01*
X-4333661Y7875674D01*
G37*
D40*
X23977600Y-16591600D03*
X23977600Y-14091600D03*
D41*
X15816800Y-12090400D03*
D42*
X23266800Y-12090400D03*
D12*
X-7924800Y6875576D03*
X-7924800Y8575576D03*
D13*
X28840800Y-12801600D03*
X27140800Y-12801600D03*
D12*
X35204400Y-14237600D03*
X35204400Y-15937600D03*
D13*
X32600000Y-12801600D03*
X30900000Y-12801600D03*
X-30493600Y-3746500D03*
X-32193600Y-3746500D03*
D43*
X-33961200Y-1369000D03*
D44*
X-32461200Y-869000D03*
D43*
X-30961200Y-1369000D03*
D45*
X-32461200Y1481000D03*
D13*
X35715416Y-6302126D03*
X37415416Y-6302126D03*
X35715416Y-4600326D03*
X37415416Y-4600326D03*
D46*
X46831000Y-6030600D03*
X46831000Y-1030600D03*
D47*
X47040800Y-9067800D03*
D48*
X-45074800Y9465600D03*
X-45074800Y8815600D03*
X-45074800Y8165600D03*
X-45074800Y7515600D03*
X-45074800Y6865600D03*
D49*
X-44999800Y10590600D03*
X-44999800Y5740600D03*
D50*
X-47649800Y11790600D03*
X-47649800Y4540600D03*
D51*
X-11945000Y-6987500D03*
X-11945000Y-8887500D03*
X-9645000Y-7937500D03*
D13*
X-10199000Y-10985500D03*
X-11899000Y-10985500D03*
D52*
X7721600Y-17424400D03*
X47396400Y1778000D03*
X-41249600Y-4318000D03*
M02*
