G04 #@! TF.GenerationSoftware,KiCad,Pcbnew,5.0.1-33cea8e~67~ubuntu18.04.1*
G04 #@! TF.CreationDate,2018-11-07T15:19:55-08:00*
G04 #@! TF.ProjectId,fk-core,666B2D636F72652E6B696361645F7063,0.1*
G04 #@! TF.SameCoordinates,PX791ddc0PY791ddc0*
G04 #@! TF.FileFunction,Soldermask,Top*
G04 #@! TF.FilePolarity,Negative*
%FSLAX46Y46*%
G04 Gerber Fmt 4.6, Leading zero omitted, Abs format (unit mm)*
G04 Created by KiCad (PCBNEW 5.0.1-33cea8e~67~ubuntu18.04.1) date Wed 07 Nov 2018 03:19:55 PM PST*
%MOMM*%
%LPD*%
G01*
G04 APERTURE LIST*
%ADD10C,0.100000*%
G04 APERTURE END LIST*
D10*
G36*
X-20861400Y-18900600D02*
X-22064600Y-18900600D01*
X-22064600Y-17597400D01*
X-20861400Y-17597400D01*
X-20861400Y-18900600D01*
X-20861400Y-18900600D01*
G37*
G36*
X-28633800Y-18853000D02*
X-29837000Y-18853000D01*
X-29837000Y-17549800D01*
X-28633800Y-17549800D01*
X-28633800Y-18853000D01*
X-28633800Y-18853000D01*
G37*
G36*
X14531800Y-18850600D02*
X12878600Y-18850600D01*
X12878600Y-17947400D01*
X14531800Y-17947400D01*
X14531800Y-18850600D01*
X14531800Y-18850600D01*
G37*
G36*
X9371800Y-18850600D02*
X7718600Y-18850600D01*
X7718600Y-17947400D01*
X9371800Y-17947400D01*
X9371800Y-18850600D01*
X9371800Y-18850600D01*
G37*
G36*
X-26796930Y-18822030D02*
X-28000130Y-18822030D01*
X-28000130Y-17518830D01*
X-26796930Y-17518830D01*
X-26796930Y-18822030D01*
X-26796930Y-18822030D01*
G37*
G36*
X-30462600Y-18802200D02*
X-31665800Y-18802200D01*
X-31665800Y-17499000D01*
X-30462600Y-17499000D01*
X-30462600Y-18802200D01*
X-30462600Y-18802200D01*
G37*
G36*
X-16492600Y-18802200D02*
X-17695800Y-18802200D01*
X-17695800Y-17499000D01*
X-16492600Y-17499000D01*
X-16492600Y-18802200D01*
X-16492600Y-18802200D01*
G37*
G36*
X-32291400Y-18802200D02*
X-33494600Y-18802200D01*
X-33494600Y-17499000D01*
X-32291400Y-17499000D01*
X-32291400Y-18802200D01*
X-32291400Y-18802200D01*
G37*
G36*
X-18219800Y-18802200D02*
X-19423000Y-18802200D01*
X-19423000Y-17499000D01*
X-18219800Y-17499000D01*
X-18219800Y-18802200D01*
X-18219800Y-18802200D01*
G37*
G36*
X-9627202Y-18791622D02*
X-10830402Y-18791622D01*
X-10830402Y-17488422D01*
X-9627202Y-17488422D01*
X-9627202Y-18791622D01*
X-9627202Y-18791622D01*
G37*
G36*
X-7976202Y-18791622D02*
X-9179402Y-18791622D01*
X-9179402Y-17488422D01*
X-7976202Y-17488422D01*
X-7976202Y-18791622D01*
X-7976202Y-18791622D01*
G37*
G36*
X-4674202Y-18791622D02*
X-5877402Y-18791622D01*
X-5877402Y-17488422D01*
X-4674202Y-17488422D01*
X-4674202Y-18791622D01*
X-4674202Y-18791622D01*
G37*
G36*
X-6325202Y-18791622D02*
X-7528402Y-18791622D01*
X-7528402Y-17488422D01*
X-6325202Y-17488422D01*
X-6325202Y-18791622D01*
X-6325202Y-18791622D01*
G37*
G36*
X48037800Y-16000901D02*
X48265081Y-16046109D01*
X48514696Y-16149503D01*
X48739344Y-16299608D01*
X48930392Y-16490656D01*
X49080497Y-16715304D01*
X49183891Y-16964919D01*
X49236600Y-17229909D01*
X49236600Y-17500091D01*
X49183891Y-17765081D01*
X49080497Y-18014696D01*
X48930392Y-18239344D01*
X48739344Y-18430392D01*
X48514696Y-18580497D01*
X48265081Y-18683891D01*
X48037800Y-18729099D01*
X48000092Y-18736600D01*
X47729908Y-18736600D01*
X47692200Y-18729099D01*
X47464919Y-18683891D01*
X47215304Y-18580497D01*
X46990656Y-18430392D01*
X46799608Y-18239344D01*
X46649503Y-18014696D01*
X46546109Y-17765081D01*
X46493400Y-17500091D01*
X46493400Y-17229909D01*
X46546109Y-16964919D01*
X46649503Y-16715304D01*
X46799608Y-16490656D01*
X46990656Y-16299608D01*
X47215304Y-16149503D01*
X47464919Y-16046109D01*
X47692200Y-16000901D01*
X47729908Y-15993400D01*
X48000092Y-15993400D01*
X48037800Y-16000901D01*
X48037800Y-16000901D01*
G37*
G36*
X-50692200Y-16000901D02*
X-50464919Y-16046109D01*
X-50215304Y-16149503D01*
X-49990656Y-16299608D01*
X-49799608Y-16490656D01*
X-49649503Y-16715304D01*
X-49546109Y-16964919D01*
X-49493400Y-17229909D01*
X-49493400Y-17500091D01*
X-49546109Y-17765081D01*
X-49649503Y-18014696D01*
X-49799608Y-18239344D01*
X-49990656Y-18430392D01*
X-50215304Y-18580497D01*
X-50464919Y-18683891D01*
X-50692200Y-18729099D01*
X-50729908Y-18736600D01*
X-51000092Y-18736600D01*
X-51037800Y-18729099D01*
X-51265081Y-18683891D01*
X-51514696Y-18580497D01*
X-51739344Y-18430392D01*
X-51930392Y-18239344D01*
X-52080497Y-18014696D01*
X-52183891Y-17765081D01*
X-52236600Y-17500091D01*
X-52236600Y-17229909D01*
X-52183891Y-16964919D01*
X-52080497Y-16715304D01*
X-51930392Y-16490656D01*
X-51739344Y-16299608D01*
X-51514696Y-16149503D01*
X-51265081Y-16046109D01*
X-51037800Y-16000901D01*
X-51000092Y-15993400D01*
X-50729908Y-15993400D01*
X-50692200Y-16000901D01*
X-50692200Y-16000901D01*
G37*
G36*
X34205400Y-18689600D02*
X32002200Y-18689600D01*
X32002200Y-17886400D01*
X34205400Y-17886400D01*
X34205400Y-18689600D01*
X34205400Y-18689600D01*
G37*
G36*
X28805400Y-18689600D02*
X26602200Y-18689600D01*
X26602200Y-17886400D01*
X28805400Y-17886400D01*
X28805400Y-18689600D01*
X28805400Y-18689600D01*
G37*
G36*
X19154600Y-18457800D02*
X17851400Y-18457800D01*
X17851400Y-17254600D01*
X19154600Y-17254600D01*
X19154600Y-18457800D01*
X19154600Y-18457800D01*
G37*
G36*
X17454600Y-18457800D02*
X16151400Y-18457800D01*
X16151400Y-17254600D01*
X17454600Y-17254600D01*
X17454600Y-18457800D01*
X17454600Y-18457800D01*
G37*
G36*
X28805400Y-17419600D02*
X26602200Y-17419600D01*
X26602200Y-16616400D01*
X28805400Y-16616400D01*
X28805400Y-17419600D01*
X28805400Y-17419600D01*
G37*
G36*
X34205400Y-17419600D02*
X32002200Y-17419600D01*
X32002200Y-16616400D01*
X34205400Y-16616400D01*
X34205400Y-17419600D01*
X34205400Y-17419600D01*
G37*
G36*
X-20861400Y-17200600D02*
X-22064600Y-17200600D01*
X-22064600Y-15897400D01*
X-20861400Y-15897400D01*
X-20861400Y-17200600D01*
X-20861400Y-17200600D01*
G37*
G36*
X-28633800Y-17153000D02*
X-29837000Y-17153000D01*
X-29837000Y-15849800D01*
X-28633800Y-15849800D01*
X-28633800Y-17153000D01*
X-28633800Y-17153000D01*
G37*
G36*
X-26796930Y-17122030D02*
X-28000130Y-17122030D01*
X-28000130Y-15818830D01*
X-26796930Y-15818830D01*
X-26796930Y-17122030D01*
X-26796930Y-17122030D01*
G37*
G36*
X-32291400Y-17102200D02*
X-33494600Y-17102200D01*
X-33494600Y-15799000D01*
X-32291400Y-15799000D01*
X-32291400Y-17102200D01*
X-32291400Y-17102200D01*
G37*
G36*
X-30462600Y-17102200D02*
X-31665800Y-17102200D01*
X-31665800Y-15799000D01*
X-30462600Y-15799000D01*
X-30462600Y-17102200D01*
X-30462600Y-17102200D01*
G37*
G36*
X-18219800Y-17102200D02*
X-19423000Y-17102200D01*
X-19423000Y-15799000D01*
X-18219800Y-15799000D01*
X-18219800Y-17102200D01*
X-18219800Y-17102200D01*
G37*
G36*
X-16492600Y-17102200D02*
X-17695800Y-17102200D01*
X-17695800Y-15799000D01*
X-16492600Y-15799000D01*
X-16492600Y-17102200D01*
X-16492600Y-17102200D01*
G37*
G36*
X-9627202Y-17091622D02*
X-10830402Y-17091622D01*
X-10830402Y-15788422D01*
X-9627202Y-15788422D01*
X-9627202Y-17091622D01*
X-9627202Y-17091622D01*
G37*
G36*
X-6325202Y-17091622D02*
X-7528402Y-17091622D01*
X-7528402Y-15788422D01*
X-6325202Y-15788422D01*
X-6325202Y-17091622D01*
X-6325202Y-17091622D01*
G37*
G36*
X-7976202Y-17091622D02*
X-9179402Y-17091622D01*
X-9179402Y-15788422D01*
X-7976202Y-15788422D01*
X-7976202Y-17091622D01*
X-7976202Y-17091622D01*
G37*
G36*
X-4674202Y-17091622D02*
X-5877402Y-17091622D01*
X-5877402Y-15788422D01*
X-4674202Y-15788422D01*
X-4674202Y-17091622D01*
X-4674202Y-17091622D01*
G37*
G36*
X25867400Y-16963800D02*
X23764200Y-16963800D01*
X23764200Y-15660600D01*
X25867400Y-15660600D01*
X25867400Y-16963800D01*
X25867400Y-16963800D01*
G37*
G36*
X14531800Y-16850600D02*
X12878600Y-16850600D01*
X12878600Y-15947400D01*
X14531800Y-15947400D01*
X14531800Y-16850600D01*
X14531800Y-16850600D01*
G37*
G36*
X9371800Y-16850600D02*
X7718600Y-16850600D01*
X7718600Y-15947400D01*
X9371800Y-15947400D01*
X9371800Y-16850600D01*
X9371800Y-16850600D01*
G37*
G36*
X19154600Y-16679800D02*
X17851400Y-16679800D01*
X17851400Y-15476600D01*
X19154600Y-15476600D01*
X19154600Y-16679800D01*
X19154600Y-16679800D01*
G37*
G36*
X17454600Y-16679800D02*
X16151400Y-16679800D01*
X16151400Y-15476600D01*
X17454600Y-15476600D01*
X17454600Y-16679800D01*
X17454600Y-16679800D01*
G37*
G36*
X36644200Y-16309800D02*
X35441000Y-16309800D01*
X35441000Y-15006600D01*
X36644200Y-15006600D01*
X36644200Y-16309800D01*
X36644200Y-16309800D01*
G37*
G36*
X28805400Y-16149600D02*
X26602200Y-16149600D01*
X26602200Y-15346400D01*
X28805400Y-15346400D01*
X28805400Y-16149600D01*
X28805400Y-16149600D01*
G37*
G36*
X34205400Y-16149600D02*
X32002200Y-16149600D01*
X32002200Y-15346400D01*
X34205400Y-15346400D01*
X34205400Y-16149600D01*
X34205400Y-16149600D01*
G37*
G36*
X-11388900Y-15778100D02*
X-12692100Y-15778100D01*
X-12692100Y-14574900D01*
X-11388900Y-14574900D01*
X-11388900Y-15778100D01*
X-11388900Y-15778100D01*
G37*
G36*
X-13088900Y-15778100D02*
X-14392100Y-15778100D01*
X-14392100Y-14574900D01*
X-13088900Y-14574900D01*
X-13088900Y-15778100D01*
X-13088900Y-15778100D01*
G37*
G36*
X28805400Y-14879600D02*
X26602200Y-14879600D01*
X26602200Y-14076400D01*
X28805400Y-14076400D01*
X28805400Y-14879600D01*
X28805400Y-14879600D01*
G37*
G36*
X34205400Y-14879600D02*
X32002200Y-14879600D01*
X32002200Y-14076400D01*
X34205400Y-14076400D01*
X34205400Y-14879600D01*
X34205400Y-14879600D01*
G37*
G36*
X-48687400Y-14663600D02*
X-52690600Y-14663600D01*
X-52690600Y-12960400D01*
X-48687400Y-12960400D01*
X-48687400Y-14663600D01*
X-48687400Y-14663600D01*
G37*
G36*
X36644200Y-14609800D02*
X35441000Y-14609800D01*
X35441000Y-13306600D01*
X36644200Y-13306600D01*
X36644200Y-14609800D01*
X36644200Y-14609800D01*
G37*
G36*
X25867400Y-14463800D02*
X23764200Y-14463800D01*
X23764200Y-13160600D01*
X25867400Y-13160600D01*
X25867400Y-14463800D01*
X25867400Y-14463800D01*
G37*
G36*
X-9567900Y-14248600D02*
X-10371100Y-14248600D01*
X-10371100Y-12045400D01*
X-9567900Y-12045400D01*
X-9567900Y-14248600D01*
X-9567900Y-14248600D01*
G37*
G36*
X-8297900Y-14248600D02*
X-9101100Y-14248600D01*
X-9101100Y-12045400D01*
X-8297900Y-12045400D01*
X-8297900Y-14248600D01*
X-8297900Y-14248600D01*
G37*
G36*
X-7027900Y-14248600D02*
X-7831100Y-14248600D01*
X-7831100Y-12045400D01*
X-7027900Y-12045400D01*
X-7027900Y-14248600D01*
X-7027900Y-14248600D01*
G37*
G36*
X-5757900Y-14248600D02*
X-6561100Y-14248600D01*
X-6561100Y-12045400D01*
X-5757900Y-12045400D01*
X-5757900Y-14248600D01*
X-5757900Y-14248600D01*
G37*
G36*
X-11388900Y-14127100D02*
X-12692100Y-14127100D01*
X-12692100Y-12923900D01*
X-11388900Y-12923900D01*
X-11388900Y-14127100D01*
X-11388900Y-14127100D01*
G37*
G36*
X-13088900Y-14127100D02*
X-14392100Y-14127100D01*
X-14392100Y-12923900D01*
X-13088900Y-12923900D01*
X-13088900Y-14127100D01*
X-13088900Y-14127100D01*
G37*
G36*
X-23093400Y-13945600D02*
X-23896600Y-13945600D01*
X-23896600Y-10742400D01*
X-23093400Y-10742400D01*
X-23093400Y-13945600D01*
X-23093400Y-13945600D01*
G37*
G36*
X-25633400Y-13945600D02*
X-26436600Y-13945600D01*
X-26436600Y-10742400D01*
X-25633400Y-10742400D01*
X-25633400Y-13945600D01*
X-25633400Y-13945600D01*
G37*
G36*
X-24363400Y-13945600D02*
X-25166600Y-13945600D01*
X-25166600Y-10742400D01*
X-24363400Y-10742400D01*
X-24363400Y-13945600D01*
X-24363400Y-13945600D01*
G37*
G36*
X-21823400Y-13945600D02*
X-22626600Y-13945600D01*
X-22626600Y-10742400D01*
X-21823400Y-10742400D01*
X-21823400Y-13945600D01*
X-21823400Y-13945600D01*
G37*
G36*
X9979400Y-13860800D02*
X7279400Y-13860800D01*
X7279400Y-12910800D01*
X9979400Y-12910800D01*
X9979400Y-13860800D01*
X9979400Y-13860800D01*
G37*
G36*
X5979400Y-13860800D02*
X3279400Y-13860800D01*
X3279400Y-12910800D01*
X5979400Y-12910800D01*
X5979400Y-13860800D01*
X5979400Y-13860800D01*
G37*
G36*
X19271800Y-13290200D02*
X18068600Y-13290200D01*
X18068600Y-10287000D01*
X19271800Y-10287000D01*
X19271800Y-13290200D01*
X19271800Y-13290200D01*
G37*
G36*
X13071800Y-13290200D02*
X11868600Y-13290200D01*
X11868600Y-10287000D01*
X13071800Y-10287000D01*
X13071800Y-13290200D01*
X13071800Y-13290200D01*
G37*
G36*
X28630600Y-13123800D02*
X27327400Y-13123800D01*
X27327400Y-11920600D01*
X28630600Y-11920600D01*
X28630600Y-13123800D01*
X28630600Y-13123800D01*
G37*
G36*
X34089800Y-13123800D02*
X32786600Y-13123800D01*
X32786600Y-11920600D01*
X34089800Y-11920600D01*
X34089800Y-13123800D01*
X34089800Y-13123800D01*
G37*
G36*
X32389800Y-13123800D02*
X31086600Y-13123800D01*
X31086600Y-11920600D01*
X32389800Y-11920600D01*
X32389800Y-13123800D01*
X32389800Y-13123800D01*
G37*
G36*
X30330600Y-13123800D02*
X29027400Y-13123800D01*
X29027400Y-11920600D01*
X30330600Y-11920600D01*
X30330600Y-13123800D01*
X30330600Y-13123800D01*
G37*
G36*
X5979400Y-12590800D02*
X3279400Y-12590800D01*
X3279400Y-11640800D01*
X5979400Y-11640800D01*
X5979400Y-12590800D01*
X5979400Y-12590800D01*
G37*
G36*
X9979400Y-12590800D02*
X7279400Y-12590800D01*
X7279400Y-11640800D01*
X9979400Y-11640800D01*
X9979400Y-12590800D01*
X9979400Y-12590800D01*
G37*
G36*
X24324234Y-11088283D02*
X24461016Y-11144940D01*
X24584117Y-11227194D01*
X24688806Y-11331883D01*
X24771060Y-11454984D01*
X24827717Y-11591766D01*
X24856600Y-11736974D01*
X24856600Y-11885026D01*
X24827717Y-12030234D01*
X24771060Y-12167016D01*
X24688806Y-12290117D01*
X24584117Y-12394806D01*
X24461016Y-12477060D01*
X24324234Y-12533717D01*
X24179026Y-12562600D01*
X24030974Y-12562600D01*
X23885766Y-12533717D01*
X23748984Y-12477060D01*
X23625883Y-12394806D01*
X23521194Y-12290117D01*
X23438940Y-12167016D01*
X23382283Y-12030234D01*
X23353400Y-11885026D01*
X23353400Y-11736974D01*
X23382283Y-11591766D01*
X23438940Y-11454984D01*
X23521194Y-11331883D01*
X23625883Y-11227194D01*
X23748984Y-11144940D01*
X23885766Y-11088283D01*
X24030974Y-11059400D01*
X24179026Y-11059400D01*
X24324234Y-11088283D01*
X24324234Y-11088283D01*
G37*
G36*
X38449511Y-12452405D02*
X37146311Y-12452405D01*
X37146311Y-11249205D01*
X38449511Y-11249205D01*
X38449511Y-12452405D01*
X38449511Y-12452405D01*
G37*
G36*
X36749511Y-12452405D02*
X35446311Y-12452405D01*
X35446311Y-11249205D01*
X36749511Y-11249205D01*
X36749511Y-12452405D01*
X36749511Y-12452405D01*
G37*
G36*
X16837773Y-11208479D02*
X16951807Y-11255714D01*
X17054435Y-11324288D01*
X17141712Y-11411565D01*
X17210286Y-11514193D01*
X17257521Y-11628227D01*
X17281600Y-11749284D01*
X17281600Y-11872716D01*
X17257521Y-11993773D01*
X17210286Y-12107807D01*
X17141712Y-12210435D01*
X17054435Y-12297712D01*
X16951807Y-12366286D01*
X16837773Y-12413521D01*
X16716716Y-12437600D01*
X16593284Y-12437600D01*
X16472227Y-12413521D01*
X16358193Y-12366286D01*
X16255565Y-12297712D01*
X16168288Y-12210435D01*
X16099714Y-12107807D01*
X16052479Y-11993773D01*
X16028400Y-11872716D01*
X16028400Y-11749284D01*
X16052479Y-11628227D01*
X16099714Y-11514193D01*
X16168288Y-11411565D01*
X16255565Y-11324288D01*
X16358193Y-11255714D01*
X16472227Y-11208479D01*
X16593284Y-11184400D01*
X16716716Y-11184400D01*
X16837773Y-11208479D01*
X16837773Y-11208479D01*
G37*
G36*
X-11399900Y-12169600D02*
X-12603100Y-12169600D01*
X-12603100Y-10866400D01*
X-11399900Y-10866400D01*
X-11399900Y-12169600D01*
X-11399900Y-12169600D01*
G37*
G36*
X-43487400Y-12063600D02*
X-48190600Y-12063600D01*
X-48190600Y-10860400D01*
X-43487400Y-10860400D01*
X-43487400Y-12063600D01*
X-43487400Y-12063600D01*
G37*
G36*
X-28603510Y-11611714D02*
X-29906710Y-11611714D01*
X-29906710Y-10408514D01*
X-28603510Y-10408514D01*
X-28603510Y-11611714D01*
X-28603510Y-11611714D01*
G37*
G36*
X-30303510Y-11611714D02*
X-31606710Y-11611714D01*
X-31606710Y-10408514D01*
X-30303510Y-10408514D01*
X-30303510Y-11611714D01*
X-30303510Y-11611714D01*
G37*
G36*
X5979400Y-11320800D02*
X3279400Y-11320800D01*
X3279400Y-10370800D01*
X5979400Y-10370800D01*
X5979400Y-11320800D01*
X5979400Y-11320800D01*
G37*
G36*
X9979400Y-11320800D02*
X7279400Y-11320800D01*
X7279400Y-10370800D01*
X9979400Y-10370800D01*
X9979400Y-11320800D01*
X9979400Y-11320800D01*
G37*
G36*
X36749511Y-10826805D02*
X35446311Y-10826805D01*
X35446311Y-9623605D01*
X36749511Y-9623605D01*
X36749511Y-10826805D01*
X36749511Y-10826805D01*
G37*
G36*
X38449511Y-10826805D02*
X37146311Y-10826805D01*
X37146311Y-9623605D01*
X38449511Y-9623605D01*
X38449511Y-10826805D01*
X38449511Y-10826805D01*
G37*
G36*
X-11399900Y-10469600D02*
X-12603100Y-10469600D01*
X-12603100Y-9166400D01*
X-11399900Y-9166400D01*
X-11399900Y-10469600D01*
X-11399900Y-10469600D01*
G37*
G36*
X-598930Y-8387972D02*
X-483011Y-8411029D01*
X-301022Y-8486411D01*
X-137237Y-8595849D01*
X2051Y-8735137D01*
X111489Y-8898922D01*
X186871Y-9080911D01*
X225300Y-9274109D01*
X225300Y-9471091D01*
X186871Y-9664289D01*
X111489Y-9846278D01*
X2051Y-10010063D01*
X-137237Y-10149351D01*
X-301022Y-10258789D01*
X-483011Y-10334171D01*
X-598930Y-10357228D01*
X-676207Y-10372600D01*
X-873193Y-10372600D01*
X-950470Y-10357228D01*
X-1066389Y-10334171D01*
X-1248378Y-10258789D01*
X-1412163Y-10149351D01*
X-1551451Y-10010063D01*
X-1660889Y-9846278D01*
X-1736271Y-9664289D01*
X-1774700Y-9471091D01*
X-1774700Y-9274109D01*
X-1736271Y-9080911D01*
X-1660889Y-8898922D01*
X-1551451Y-8735137D01*
X-1412163Y-8595849D01*
X-1248378Y-8486411D01*
X-1066389Y-8411029D01*
X-950470Y-8387972D01*
X-873193Y-8372600D01*
X-676207Y-8372600D01*
X-598930Y-8387972D01*
X-598930Y-8387972D01*
G37*
G36*
X-43487400Y-10063600D02*
X-48190600Y-10063600D01*
X-48190600Y-8860400D01*
X-43487400Y-8860400D01*
X-43487400Y-10063600D01*
X-43487400Y-10063600D01*
G37*
G36*
X5979400Y-10050800D02*
X3279400Y-10050800D01*
X3279400Y-9100800D01*
X5979400Y-9100800D01*
X5979400Y-10050800D01*
X5979400Y-10050800D01*
G37*
G36*
X9979400Y-10050800D02*
X7279400Y-10050800D01*
X7279400Y-9100800D01*
X9979400Y-9100800D01*
X9979400Y-10050800D01*
X9979400Y-10050800D01*
G37*
G36*
X-28603510Y-9884514D02*
X-29906710Y-9884514D01*
X-29906710Y-8681314D01*
X-28603510Y-8681314D01*
X-28603510Y-9884514D01*
X-28603510Y-9884514D01*
G37*
G36*
X-30303510Y-9884514D02*
X-31606710Y-9884514D01*
X-31606710Y-8681314D01*
X-30303510Y-8681314D01*
X-30303510Y-9884514D01*
X-30303510Y-9884514D01*
G37*
G36*
X48830600Y-9740000D02*
X46927400Y-9740000D01*
X46927400Y-7836800D01*
X48830600Y-7836800D01*
X48830600Y-9740000D01*
X48830600Y-9740000D01*
G37*
G36*
X14721800Y-9390200D02*
X13918600Y-9390200D01*
X13918600Y-7487000D01*
X14721800Y-7487000D01*
X14721800Y-9390200D01*
X14721800Y-9390200D01*
G37*
G36*
X17221800Y-9390200D02*
X16418600Y-9390200D01*
X16418600Y-7487000D01*
X17221800Y-7487000D01*
X17221800Y-9390200D01*
X17221800Y-9390200D01*
G37*
G36*
X15971800Y-9390200D02*
X15168600Y-9390200D01*
X15168600Y-7487000D01*
X15971800Y-7487000D01*
X15971800Y-9390200D01*
X15971800Y-9390200D01*
G37*
G36*
X-36088010Y-7068214D02*
X-36085608Y-7092600D01*
X-36078495Y-7116049D01*
X-36066944Y-7137660D01*
X-36051398Y-7156602D01*
X-36032456Y-7172148D01*
X-36010845Y-7183699D01*
X-35987396Y-7190812D01*
X-35963010Y-7193214D01*
X-34266210Y-7193214D01*
X-34241824Y-7190812D01*
X-34218375Y-7183699D01*
X-34196764Y-7172148D01*
X-34177822Y-7156602D01*
X-34162276Y-7137660D01*
X-34150725Y-7116049D01*
X-34143612Y-7092600D01*
X-34141210Y-7068214D01*
X-34141210Y-7018214D01*
X-33188010Y-7018214D01*
X-33188010Y-9021414D01*
X-34141210Y-9021414D01*
X-34141210Y-8971414D01*
X-34143612Y-8947028D01*
X-34150725Y-8923579D01*
X-34162276Y-8901968D01*
X-34177822Y-8883026D01*
X-34196764Y-8867480D01*
X-34218375Y-8855929D01*
X-34241824Y-8848816D01*
X-34266210Y-8846414D01*
X-35963010Y-8846414D01*
X-35987396Y-8848816D01*
X-36010845Y-8855929D01*
X-36032456Y-8867480D01*
X-36051398Y-8883026D01*
X-36066944Y-8901968D01*
X-36078495Y-8923579D01*
X-36085608Y-8947028D01*
X-36088010Y-8971414D01*
X-36088010Y-9021414D01*
X-37041210Y-9021414D01*
X-37041210Y-7018214D01*
X-36088010Y-7018214D01*
X-36088010Y-7068214D01*
X-36088010Y-7068214D01*
G37*
G36*
X-8297900Y-8848600D02*
X-9101100Y-8848600D01*
X-9101100Y-6645400D01*
X-8297900Y-6645400D01*
X-8297900Y-8848600D01*
X-8297900Y-8848600D01*
G37*
G36*
X-7027900Y-8848600D02*
X-7831100Y-8848600D01*
X-7831100Y-6645400D01*
X-7027900Y-6645400D01*
X-7027900Y-8848600D01*
X-7027900Y-8848600D01*
G37*
G36*
X-5757900Y-8848600D02*
X-6561100Y-8848600D01*
X-6561100Y-6645400D01*
X-5757900Y-6645400D01*
X-5757900Y-8848600D01*
X-5757900Y-8848600D01*
G37*
G36*
X-9567900Y-8848600D02*
X-10371100Y-8848600D01*
X-10371100Y-6645400D01*
X-9567900Y-6645400D01*
X-9567900Y-8848600D01*
X-9567900Y-8848600D01*
G37*
G36*
X9979400Y-8780800D02*
X7279400Y-8780800D01*
X7279400Y-7830800D01*
X9979400Y-7830800D01*
X9979400Y-8780800D01*
X9979400Y-8780800D01*
G37*
G36*
X5979400Y-8780800D02*
X3279400Y-8780800D01*
X3279400Y-7830800D01*
X5979400Y-7830800D01*
X5979400Y-8780800D01*
X5979400Y-8780800D01*
G37*
G36*
X-37803200Y-8131000D02*
X-39006400Y-8131000D01*
X-39006400Y-6827800D01*
X-37803200Y-6827800D01*
X-37803200Y-8131000D01*
X-37803200Y-8131000D01*
G37*
G36*
X-30297400Y-8043800D02*
X-31600600Y-8043800D01*
X-31600600Y-6840600D01*
X-30297400Y-6840600D01*
X-30297400Y-8043800D01*
X-30297400Y-8043800D01*
G37*
G36*
X-28597400Y-8043800D02*
X-29900600Y-8043800D01*
X-29900600Y-6840600D01*
X-28597400Y-6840600D01*
X-28597400Y-8043800D01*
X-28597400Y-8043800D01*
G37*
G36*
X-48687400Y-7963600D02*
X-52690600Y-7963600D01*
X-52690600Y-6260400D01*
X-48687400Y-6260400D01*
X-48687400Y-7963600D01*
X-48687400Y-7963600D01*
G37*
G36*
X-21823400Y-7545600D02*
X-22626600Y-7545600D01*
X-22626600Y-4342400D01*
X-21823400Y-4342400D01*
X-21823400Y-7545600D01*
X-21823400Y-7545600D01*
G37*
G36*
X-25633400Y-7545600D02*
X-26436600Y-7545600D01*
X-26436600Y-4342400D01*
X-25633400Y-4342400D01*
X-25633400Y-7545600D01*
X-25633400Y-7545600D01*
G37*
G36*
X-24363400Y-7545600D02*
X-25166600Y-7545600D01*
X-25166600Y-4342400D01*
X-24363400Y-4342400D01*
X-24363400Y-7545600D01*
X-24363400Y-7545600D01*
G37*
G36*
X-23093400Y-7545600D02*
X-23896600Y-7545600D01*
X-23896600Y-4342400D01*
X-23093400Y-4342400D01*
X-23093400Y-7545600D01*
X-23093400Y-7545600D01*
G37*
G36*
X37205216Y-6624326D02*
X35902016Y-6624326D01*
X35902016Y-5421126D01*
X37205216Y-5421126D01*
X37205216Y-6624326D01*
X37205216Y-6624326D01*
G37*
G36*
X38905216Y-6624326D02*
X37602016Y-6624326D01*
X37602016Y-5421126D01*
X38905216Y-5421126D01*
X38905216Y-6624326D01*
X38905216Y-6624326D01*
G37*
G36*
X49870800Y-6487800D02*
X45467600Y-6487800D01*
X45467600Y-5014600D01*
X49870800Y-5014600D01*
X49870800Y-6487800D01*
X49870800Y-6487800D01*
G37*
G36*
X-37803200Y-6431000D02*
X-39006400Y-6431000D01*
X-39006400Y-5127800D01*
X-37803200Y-5127800D01*
X-37803200Y-6431000D01*
X-37803200Y-6431000D01*
G37*
G36*
X-30303510Y-6265800D02*
X-31606710Y-6265800D01*
X-31606710Y-5062600D01*
X-30303510Y-5062600D01*
X-30303510Y-6265800D01*
X-30303510Y-6265800D01*
G37*
G36*
X-28603510Y-6265800D02*
X-29906710Y-6265800D01*
X-29906710Y-5062600D01*
X-28603510Y-5062600D01*
X-28603510Y-6265800D01*
X-28603510Y-6265800D01*
G37*
G36*
X12484500Y-6062400D02*
X11081300Y-6062400D01*
X11081300Y-4059200D01*
X12484500Y-4059200D01*
X12484500Y-6062400D01*
X12484500Y-6062400D01*
G37*
G36*
X20084500Y-6062400D02*
X18681300Y-6062400D01*
X18681300Y-4059200D01*
X20084500Y-4059200D01*
X20084500Y-6062400D01*
X20084500Y-6062400D01*
G37*
G36*
X-34210800Y-6037200D02*
X-35514000Y-6037200D01*
X-35514000Y-4834000D01*
X-34210800Y-4834000D01*
X-34210800Y-6037200D01*
X-34210800Y-6037200D01*
G37*
G36*
X-35910800Y-6037200D02*
X-37214000Y-6037200D01*
X-37214000Y-4834000D01*
X-35910800Y-4834000D01*
X-35910800Y-6037200D01*
X-35910800Y-6037200D01*
G37*
G36*
X-48687400Y-5582600D02*
X-52690600Y-5582600D01*
X-52690600Y-3879400D01*
X-48687400Y-3879400D01*
X-48687400Y-5582600D01*
X-48687400Y-5582600D01*
G37*
G36*
X26152300Y-5541900D02*
X24849100Y-5541900D01*
X24849100Y-4338700D01*
X26152300Y-4338700D01*
X26152300Y-5541900D01*
X26152300Y-5541900D01*
G37*
G36*
X24452300Y-5541900D02*
X23149100Y-5541900D01*
X23149100Y-4338700D01*
X24452300Y-4338700D01*
X24452300Y-5541900D01*
X24452300Y-5541900D01*
G37*
G36*
X29644522Y-5535774D02*
X28341322Y-5535774D01*
X28341322Y-4332574D01*
X29644522Y-4332574D01*
X29644522Y-5535774D01*
X29644522Y-5535774D01*
G37*
G36*
X27944522Y-5535774D02*
X26641322Y-5535774D01*
X26641322Y-4332574D01*
X27944522Y-4332574D01*
X27944522Y-5535774D01*
X27944522Y-5535774D01*
G37*
G36*
X-40235630Y-3053972D02*
X-40119711Y-3077029D01*
X-39937722Y-3152411D01*
X-39773937Y-3261849D01*
X-39634649Y-3401137D01*
X-39525211Y-3564922D01*
X-39449829Y-3746911D01*
X-39411400Y-3940109D01*
X-39411400Y-4137091D01*
X-39449829Y-4330289D01*
X-39525211Y-4512278D01*
X-39634649Y-4676063D01*
X-39773937Y-4815351D01*
X-39937722Y-4924789D01*
X-40119711Y-5000171D01*
X-40235630Y-5023228D01*
X-40312907Y-5038600D01*
X-40509893Y-5038600D01*
X-40587170Y-5023228D01*
X-40703089Y-5000171D01*
X-40885078Y-4924789D01*
X-41048863Y-4815351D01*
X-41188151Y-4676063D01*
X-41297589Y-4512278D01*
X-41372971Y-4330289D01*
X-41411400Y-4137091D01*
X-41411400Y-3940109D01*
X-41372971Y-3746911D01*
X-41297589Y-3564922D01*
X-41188151Y-3401137D01*
X-41048863Y-3261849D01*
X-40885078Y-3152411D01*
X-40703089Y-3077029D01*
X-40587170Y-3053972D01*
X-40509893Y-3038600D01*
X-40312907Y-3038600D01*
X-40235630Y-3053972D01*
X-40235630Y-3053972D01*
G37*
G36*
X37205216Y-4922526D02*
X35902016Y-4922526D01*
X35902016Y-3719326D01*
X37205216Y-3719326D01*
X37205216Y-4922526D01*
X37205216Y-4922526D01*
G37*
G36*
X38905216Y-4922526D02*
X37602016Y-4922526D01*
X37602016Y-3719326D01*
X38905216Y-3719326D01*
X38905216Y-4922526D01*
X38905216Y-4922526D01*
G37*
G36*
X3349951Y-4002D02*
X-859598Y-4213551D01*
X-1922522Y-3150627D01*
X2287027Y1058922D01*
X3349951Y-4002D01*
X3349951Y-4002D01*
G37*
G36*
X-2801878Y-3150627D02*
X-3864802Y-4213551D01*
X-8074351Y-4002D01*
X-7011427Y1058922D01*
X-2801878Y-3150627D01*
X-2801878Y-3150627D01*
G37*
G36*
X-8136000Y-3927300D02*
X-9339200Y-3927300D01*
X-9339200Y-2624100D01*
X-8136000Y-2624100D01*
X-8136000Y-3927300D01*
X-8136000Y-3927300D01*
G37*
G36*
X-22412500Y-3865500D02*
X-23715700Y-3865500D01*
X-23715700Y-2662300D01*
X-22412500Y-2662300D01*
X-22412500Y-3865500D01*
X-22412500Y-3865500D01*
G37*
G36*
X-24112500Y-3865500D02*
X-25415700Y-3865500D01*
X-25415700Y-2662300D01*
X-24112500Y-2662300D01*
X-24112500Y-3865500D01*
X-24112500Y-3865500D01*
G37*
G36*
X27944522Y-3808574D02*
X26641322Y-3808574D01*
X26641322Y-2605374D01*
X27944522Y-2605374D01*
X27944522Y-3808574D01*
X27944522Y-3808574D01*
G37*
G36*
X29644522Y-3808574D02*
X28341322Y-3808574D01*
X28341322Y-2605374D01*
X29644522Y-2605374D01*
X29644522Y-3808574D01*
X29644522Y-3808574D01*
G37*
G36*
X24439600Y-3776600D02*
X23136400Y-3776600D01*
X23136400Y-2573400D01*
X24439600Y-2573400D01*
X24439600Y-3776600D01*
X24439600Y-3776600D01*
G37*
G36*
X26139600Y-3776600D02*
X24836400Y-3776600D01*
X24836400Y-2573400D01*
X26139600Y-2573400D01*
X26139600Y-3776600D01*
X26139600Y-3776600D01*
G37*
G36*
X18484500Y-3412400D02*
X12681300Y-3412400D01*
X12681300Y-1659200D01*
X18484500Y-1659200D01*
X18484500Y-3412400D01*
X18484500Y-3412400D01*
G37*
G36*
X-43487400Y-2982600D02*
X-48190600Y-2982600D01*
X-48190600Y-1779400D01*
X-43487400Y-1779400D01*
X-43487400Y-2982600D01*
X-43487400Y-2982600D01*
G37*
G36*
X-36250600Y-2273800D02*
X-37053800Y-2273800D01*
X-37053800Y-1370600D01*
X-36250600Y-1370600D01*
X-36250600Y-2273800D01*
X-36250600Y-2273800D01*
G37*
G36*
X-37750600Y-2273800D02*
X-38953800Y-2273800D01*
X-38953800Y-1370600D01*
X-37750600Y-1370600D01*
X-37750600Y-2273800D01*
X-37750600Y-2273800D01*
G37*
G36*
X-8136000Y-2227300D02*
X-9339200Y-2227300D01*
X-9339200Y-924100D01*
X-8136000Y-924100D01*
X-8136000Y-2227300D01*
X-8136000Y-2227300D01*
G37*
G36*
X29644522Y-2055974D02*
X28341322Y-2055974D01*
X28341322Y-852774D01*
X29644522Y-852774D01*
X29644522Y-2055974D01*
X29644522Y-2055974D01*
G37*
G36*
X27944522Y-2055974D02*
X26641322Y-2055974D01*
X26641322Y-852774D01*
X27944522Y-852774D01*
X27944522Y-2055974D01*
X27944522Y-2055974D01*
G37*
G36*
X-32570800Y-2009600D02*
X-33774000Y-2009600D01*
X-33774000Y-706400D01*
X-32570800Y-706400D01*
X-32570800Y-2009600D01*
X-32570800Y-2009600D01*
G37*
G36*
X-29130800Y-1973200D02*
X-30434000Y-1973200D01*
X-30434000Y-770000D01*
X-29130800Y-770000D01*
X-29130800Y-1973200D01*
X-29130800Y-1973200D01*
G37*
G36*
X-30830800Y-1973200D02*
X-32134000Y-1973200D01*
X-32134000Y-770000D01*
X-30830800Y-770000D01*
X-30830800Y-1973200D01*
X-30830800Y-1973200D01*
G37*
G36*
X-25423600Y-1747800D02*
X-27626800Y-1747800D01*
X-27626800Y-944600D01*
X-25423600Y-944600D01*
X-25423600Y-1747800D01*
X-25423600Y-1747800D01*
G37*
G36*
X-20023600Y-1747800D02*
X-22226800Y-1747800D01*
X-22226800Y-944600D01*
X-20023600Y-944600D01*
X-20023600Y-1747800D01*
X-20023600Y-1747800D01*
G37*
G36*
X49870800Y-1487800D02*
X45467600Y-1487800D01*
X45467600Y-14600D01*
X49870800Y-14600D01*
X49870800Y-1487800D01*
X49870800Y-1487800D01*
G37*
G36*
X-43487400Y-982600D02*
X-48190600Y-982600D01*
X-48190600Y220600D01*
X-43487400Y220600D01*
X-43487400Y-982600D01*
X-43487400Y-982600D01*
G37*
G36*
X-20023600Y-477800D02*
X-22226800Y-477800D01*
X-22226800Y325400D01*
X-20023600Y325400D01*
X-20023600Y-477800D01*
X-20023600Y-477800D01*
G37*
G36*
X-25423600Y-477800D02*
X-27626800Y-477800D01*
X-27626800Y325400D01*
X-25423600Y325400D01*
X-25423600Y-477800D01*
X-25423600Y-477800D01*
G37*
G36*
X-30830800Y-347600D02*
X-32134000Y-347600D01*
X-32134000Y855600D01*
X-30830800Y855600D01*
X-30830800Y-347600D01*
X-30830800Y-347600D01*
G37*
G36*
X-29130800Y-347600D02*
X-30434000Y-347600D01*
X-30434000Y855600D01*
X-29130800Y855600D01*
X-29130800Y-347600D01*
X-29130800Y-347600D01*
G37*
G36*
X-32570800Y-309600D02*
X-33774000Y-309600D01*
X-33774000Y993600D01*
X-32570800Y993600D01*
X-32570800Y-309600D01*
X-32570800Y-309600D01*
G37*
G36*
X-38150600Y-273800D02*
X-38953800Y-273800D01*
X-38953800Y629400D01*
X-38150600Y629400D01*
X-38150600Y-273800D01*
X-38150600Y-273800D01*
G37*
G36*
X-36250600Y-273800D02*
X-37053800Y-273800D01*
X-37053800Y629400D01*
X-36250600Y629400D01*
X-36250600Y-273800D01*
X-36250600Y-273800D01*
G37*
G36*
X8051442Y244774D02*
X6848242Y244774D01*
X6848242Y1547974D01*
X8051442Y1547974D01*
X8051442Y244774D01*
X8051442Y244774D01*
G37*
G36*
X6425842Y244774D02*
X5222642Y244774D01*
X5222642Y1547974D01*
X6425842Y1547974D01*
X6425842Y244774D01*
X6425842Y244774D01*
G37*
G36*
X-25423600Y792200D02*
X-27626800Y792200D01*
X-27626800Y1595400D01*
X-25423600Y1595400D01*
X-25423600Y792200D01*
X-25423600Y792200D01*
G37*
G36*
X-20023600Y792200D02*
X-22226800Y792200D01*
X-22226800Y1595400D01*
X-20023600Y1595400D01*
X-20023600Y792200D01*
X-20023600Y792200D01*
G37*
G36*
X48410370Y3042028D02*
X48526289Y3018971D01*
X48708278Y2943589D01*
X48872063Y2834151D01*
X49011351Y2694863D01*
X49120789Y2531078D01*
X49196171Y2349089D01*
X49207560Y2291832D01*
X49234600Y2155893D01*
X49234600Y1958907D01*
X49219228Y1881630D01*
X49196171Y1765711D01*
X49120789Y1583722D01*
X49011351Y1419937D01*
X48872063Y1280649D01*
X48708278Y1171211D01*
X48526289Y1095829D01*
X48410370Y1072772D01*
X48333093Y1057400D01*
X48136107Y1057400D01*
X48058830Y1072772D01*
X47942911Y1095829D01*
X47760922Y1171211D01*
X47597137Y1280649D01*
X47457849Y1419937D01*
X47348411Y1583722D01*
X47273029Y1765711D01*
X47249972Y1881630D01*
X47234600Y1958907D01*
X47234600Y2155893D01*
X47261640Y2291832D01*
X47273029Y2349089D01*
X47348411Y2531078D01*
X47457849Y2694863D01*
X47597137Y2834151D01*
X47760922Y2943589D01*
X47942911Y3018971D01*
X48058830Y3042028D01*
X48136107Y3057400D01*
X48333093Y3057400D01*
X48410370Y3042028D01*
X48410370Y3042028D01*
G37*
G36*
X-48687400Y1117400D02*
X-52690600Y1117400D01*
X-52690600Y2820600D01*
X-48687400Y2820600D01*
X-48687400Y1117400D01*
X-48687400Y1117400D01*
G37*
G36*
X-35712600Y1155000D02*
X-36915800Y1155000D01*
X-36915800Y2858200D01*
X-35712600Y2858200D01*
X-35712600Y1155000D01*
X-35712600Y1155000D01*
G37*
G36*
X-37912600Y1155000D02*
X-39115800Y1155000D01*
X-39115800Y2858200D01*
X-37912600Y2858200D01*
X-37912600Y1155000D01*
X-37912600Y1155000D01*
G37*
G36*
X-30830800Y1278000D02*
X-32134000Y1278000D01*
X-32134000Y2481200D01*
X-30830800Y2481200D01*
X-30830800Y1278000D01*
X-30830800Y1278000D01*
G37*
G36*
X-29130800Y1278000D02*
X-30434000Y1278000D01*
X-30434000Y2481200D01*
X-29130800Y2481200D01*
X-29130800Y1278000D01*
X-29130800Y1278000D01*
G37*
G36*
X3349951Y3001202D02*
X2287027Y1938278D01*
X-1922522Y6147827D01*
X-859598Y7210751D01*
X3349951Y3001202D01*
X3349951Y3001202D01*
G37*
G36*
X-2801878Y6147827D02*
X-7011427Y1938278D01*
X-8074351Y3001202D01*
X-3864802Y7210751D01*
X-2801878Y6147827D01*
X-2801878Y6147827D01*
G37*
G36*
X6425842Y1944774D02*
X5222642Y1944774D01*
X5222642Y3247974D01*
X6425842Y3247974D01*
X6425842Y1944774D01*
X6425842Y1944774D01*
G37*
G36*
X8051442Y1944774D02*
X6848242Y1944774D01*
X6848242Y3247974D01*
X8051442Y3247974D01*
X8051442Y1944774D01*
X8051442Y1944774D01*
G37*
G36*
X-25423600Y2062200D02*
X-27626800Y2062200D01*
X-27626800Y2865400D01*
X-25423600Y2865400D01*
X-25423600Y2062200D01*
X-25423600Y2062200D01*
G37*
G36*
X-20023600Y2062200D02*
X-22226800Y2062200D01*
X-22226800Y2865400D01*
X-20023600Y2865400D01*
X-20023600Y2062200D01*
X-20023600Y2062200D01*
G37*
G36*
X-30830800Y2954400D02*
X-32134000Y2954400D01*
X-32134000Y4157600D01*
X-30830800Y4157600D01*
X-30830800Y2954400D01*
X-30830800Y2954400D01*
G37*
G36*
X-29130800Y2954400D02*
X-30434000Y2954400D01*
X-30434000Y4157600D01*
X-29130800Y4157600D01*
X-29130800Y2954400D01*
X-29130800Y2954400D01*
G37*
G36*
X-37836714Y3341944D02*
X-39139914Y3341944D01*
X-39139914Y4545144D01*
X-37836714Y4545144D01*
X-37836714Y3341944D01*
X-37836714Y3341944D01*
G37*
G36*
X-36136714Y3341944D02*
X-37439914Y3341944D01*
X-37439914Y4545144D01*
X-36136714Y4545144D01*
X-36136714Y3341944D01*
X-36136714Y3341944D01*
G37*
G36*
X18583300Y3626200D02*
X17380100Y3626200D01*
X17380100Y6629400D01*
X18583300Y6629400D01*
X18583300Y3626200D01*
X18583300Y3626200D01*
G37*
G36*
X13633300Y3626200D02*
X12430100Y3626200D01*
X12430100Y6629400D01*
X13633300Y6629400D01*
X13633300Y3626200D01*
X13633300Y3626200D01*
G37*
G36*
X-20023600Y3891000D02*
X-22226800Y3891000D01*
X-22226800Y4694200D01*
X-20023600Y4694200D01*
X-20023600Y3891000D01*
X-20023600Y3891000D01*
G37*
G36*
X-25423600Y3891000D02*
X-27626800Y3891000D01*
X-27626800Y4694200D01*
X-25423600Y4694200D01*
X-25423600Y3891000D01*
X-25423600Y3891000D01*
G37*
G36*
X-50320513Y12936952D02*
X-50204491Y12888894D01*
X-50158394Y12869800D01*
X-50156432Y12868987D01*
X-50113649Y12840400D01*
X-50008761Y12770316D01*
X-49883184Y12644739D01*
X-49883182Y12644736D01*
X-49784513Y12497068D01*
X-49728541Y12361941D01*
X-49716548Y12332986D01*
X-49681900Y12158801D01*
X-49681900Y11976563D01*
X-49683397Y11961371D01*
X-49680996Y11936985D01*
X-49673884Y11913535D01*
X-49662334Y11891924D01*
X-49646790Y11872981D01*
X-49627848Y11857435D01*
X-49606238Y11845882D01*
X-49582789Y11838768D01*
X-49558403Y11836365D01*
X-49534017Y11838766D01*
X-49510562Y11845880D01*
X-49448565Y11871560D01*
X-49322678Y11896600D01*
X-49194322Y11896600D01*
X-49162851Y11890340D01*
X-49068435Y11871560D01*
X-48949852Y11822441D01*
X-48844565Y11752090D01*
X-48843126Y11751129D01*
X-48752371Y11660374D01*
X-48752369Y11660371D01*
X-48681059Y11553648D01*
X-48631940Y11435065D01*
X-48631940Y11435063D01*
X-48620822Y11379169D01*
X-48613709Y11355720D01*
X-48602158Y11334109D01*
X-48586613Y11315167D01*
X-48567671Y11299622D01*
X-48546060Y11288070D01*
X-48522611Y11280957D01*
X-48498224Y11278555D01*
X-48473838Y11280957D01*
X-48450389Y11288070D01*
X-48428778Y11299621D01*
X-48409836Y11315167D01*
X-48348874Y11376129D01*
X-48298142Y11410027D01*
X-48242148Y11447441D01*
X-48123565Y11496560D01*
X-48029149Y11515340D01*
X-47997678Y11521600D01*
X-47869322Y11521600D01*
X-47837851Y11515340D01*
X-47743435Y11496560D01*
X-47624852Y11447441D01*
X-47568858Y11410027D01*
X-47518126Y11376129D01*
X-47427371Y11285374D01*
X-47427369Y11285371D01*
X-47356059Y11178648D01*
X-47306940Y11060065D01*
X-47305920Y11054935D01*
X-47282332Y10936352D01*
X-47281900Y10934177D01*
X-47281900Y10805823D01*
X-47306940Y10679935D01*
X-47356059Y10561352D01*
X-47356060Y10561351D01*
X-47427371Y10454626D01*
X-47518126Y10363871D01*
X-47518129Y10363869D01*
X-47624852Y10292559D01*
X-47638075Y10287082D01*
X-47659680Y10275534D01*
X-47678622Y10259988D01*
X-47694167Y10241046D01*
X-47705718Y10219435D01*
X-47712831Y10195986D01*
X-47715233Y10171600D01*
X-47712831Y10147213D01*
X-47705718Y10123764D01*
X-47694167Y10102153D01*
X-47678621Y10083211D01*
X-47659679Y10067666D01*
X-47638068Y10056115D01*
X-47614619Y10049002D01*
X-47590233Y10046600D01*
X-47231900Y10046600D01*
X-47231900Y6843400D01*
X-47590233Y6843400D01*
X-47614619Y6840998D01*
X-47638068Y6833885D01*
X-47659679Y6822334D01*
X-47678621Y6806788D01*
X-47694167Y6787846D01*
X-47705718Y6766235D01*
X-47712831Y6742786D01*
X-47715233Y6718400D01*
X-47712831Y6694014D01*
X-47705718Y6670565D01*
X-47694167Y6648954D01*
X-47678621Y6630012D01*
X-47659679Y6614466D01*
X-47638075Y6602918D01*
X-47624852Y6597441D01*
X-47624851Y6597440D01*
X-47518126Y6526129D01*
X-47427371Y6435374D01*
X-47427369Y6435371D01*
X-47356059Y6328648D01*
X-47306940Y6210065D01*
X-47291158Y6130720D01*
X-47281900Y6084178D01*
X-47281900Y5955822D01*
X-47288160Y5924351D01*
X-47306940Y5829935D01*
X-47356059Y5711352D01*
X-47371494Y5688252D01*
X-47427371Y5604626D01*
X-47518126Y5513871D01*
X-47518129Y5513869D01*
X-47624852Y5442559D01*
X-47743435Y5393440D01*
X-47837851Y5374660D01*
X-47869322Y5368400D01*
X-47997678Y5368400D01*
X-48029149Y5374660D01*
X-48123565Y5393440D01*
X-48242148Y5442559D01*
X-48348871Y5513869D01*
X-48348874Y5513871D01*
X-48409836Y5574833D01*
X-48428778Y5590379D01*
X-48450389Y5601930D01*
X-48473838Y5609043D01*
X-48498224Y5611445D01*
X-48522610Y5609043D01*
X-48546059Y5601930D01*
X-48567670Y5590379D01*
X-48586612Y5574833D01*
X-48602158Y5555891D01*
X-48613709Y5534280D01*
X-48620822Y5510832D01*
X-48631940Y5454935D01*
X-48681059Y5336352D01*
X-48681060Y5336351D01*
X-48752371Y5229626D01*
X-48843126Y5138871D01*
X-48843129Y5138869D01*
X-48949852Y5067559D01*
X-49068435Y5018440D01*
X-49162851Y4999660D01*
X-49194322Y4993400D01*
X-49322678Y4993400D01*
X-49448565Y5018440D01*
X-49510562Y5044120D01*
X-49534011Y5051233D01*
X-49558397Y5053635D01*
X-49582784Y5051233D01*
X-49606233Y5044120D01*
X-49627844Y5032568D01*
X-49646786Y5017023D01*
X-49662331Y4998081D01*
X-49673882Y4976470D01*
X-49680995Y4953021D01*
X-49683397Y4928635D01*
X-49681900Y4913439D01*
X-49681900Y4731200D01*
X-49716548Y4557013D01*
X-49764606Y4440991D01*
X-49784512Y4392934D01*
X-49883184Y4245261D01*
X-50008761Y4119684D01*
X-50008764Y4119682D01*
X-50156432Y4021013D01*
X-50320513Y3953048D01*
X-50494699Y3918400D01*
X-50672301Y3918400D01*
X-50846487Y3953048D01*
X-51010568Y4021013D01*
X-51158236Y4119682D01*
X-51158239Y4119684D01*
X-51283816Y4245261D01*
X-51382488Y4392934D01*
X-51402394Y4440991D01*
X-51450452Y4557013D01*
X-51485100Y4731200D01*
X-51485100Y4908800D01*
X-51450452Y5082987D01*
X-51382487Y5247068D01*
X-51283818Y5394736D01*
X-51283816Y5394739D01*
X-51158239Y5520316D01*
X-51067684Y5580823D01*
X-51010568Y5618987D01*
X-50846487Y5686952D01*
X-50734750Y5709178D01*
X-50672301Y5721600D01*
X-50494699Y5721600D01*
X-50432250Y5709178D01*
X-50320513Y5686952D01*
X-50264779Y5663866D01*
X-50156433Y5618988D01*
X-50104546Y5584318D01*
X-50082935Y5572767D01*
X-50059486Y5565654D01*
X-50035100Y5563252D01*
X-50010713Y5565654D01*
X-49987264Y5572767D01*
X-49965653Y5584319D01*
X-49946711Y5599864D01*
X-49931166Y5618806D01*
X-49919615Y5640417D01*
X-49912502Y5663866D01*
X-49910100Y5688252D01*
X-49910100Y5709178D01*
X-49903840Y5740649D01*
X-49885060Y5835065D01*
X-49835941Y5953648D01*
X-49764631Y6060371D01*
X-49764629Y6060374D01*
X-49673874Y6151129D01*
X-49567149Y6222440D01*
X-49567148Y6222441D01*
X-49448565Y6271560D01*
X-49354149Y6290340D01*
X-49322678Y6296600D01*
X-49194322Y6296600D01*
X-49162851Y6290340D01*
X-49068435Y6271560D01*
X-48949852Y6222441D01*
X-48949851Y6222440D01*
X-48843126Y6151129D01*
X-48782164Y6090167D01*
X-48763222Y6074621D01*
X-48741611Y6063070D01*
X-48718162Y6055957D01*
X-48693776Y6053555D01*
X-48669390Y6055957D01*
X-48645941Y6063070D01*
X-48624330Y6074621D01*
X-48605388Y6090167D01*
X-48589842Y6109109D01*
X-48578291Y6130720D01*
X-48571178Y6154169D01*
X-48565407Y6183182D01*
X-48560060Y6210065D01*
X-48510941Y6328648D01*
X-48439631Y6435371D01*
X-48439629Y6435374D01*
X-48348874Y6526129D01*
X-48242149Y6597440D01*
X-48242148Y6597441D01*
X-48228925Y6602918D01*
X-48207320Y6614466D01*
X-48188378Y6630012D01*
X-48172833Y6648954D01*
X-48161282Y6670565D01*
X-48154169Y6694014D01*
X-48151767Y6718400D01*
X-48154169Y6742787D01*
X-48161282Y6766236D01*
X-48172833Y6787847D01*
X-48188379Y6806789D01*
X-48207321Y6822334D01*
X-48228932Y6833885D01*
X-48252381Y6840998D01*
X-48276767Y6843400D01*
X-50235100Y6843400D01*
X-50235100Y7821387D01*
X-50237502Y7845773D01*
X-50244615Y7869222D01*
X-50256166Y7890833D01*
X-50271712Y7909775D01*
X-50290654Y7925321D01*
X-50312265Y7936872D01*
X-50335714Y7943985D01*
X-50360100Y7946387D01*
X-50384486Y7943985D01*
X-50407935Y7936872D01*
X-50429546Y7925321D01*
X-50448488Y7909775D01*
X-50464034Y7890833D01*
X-50541671Y7774641D01*
X-50688141Y7628171D01*
X-50688144Y7628169D01*
X-50860381Y7513084D01*
X-51008405Y7451771D01*
X-51051762Y7433812D01*
X-51254925Y7393400D01*
X-51462075Y7393400D01*
X-51665238Y7433812D01*
X-51708595Y7451771D01*
X-51856619Y7513084D01*
X-52028856Y7628169D01*
X-52028859Y7628171D01*
X-52175329Y7774641D01*
X-52252966Y7890833D01*
X-52290416Y7946881D01*
X-52352431Y8096600D01*
X-52369688Y8138262D01*
X-52410100Y8341425D01*
X-52410100Y8548575D01*
X-52369688Y8751738D01*
X-52351729Y8795095D01*
X-52290416Y8943119D01*
X-52175331Y9115356D01*
X-52175329Y9115359D01*
X-52028859Y9261829D01*
X-52001465Y9280133D01*
X-51856619Y9376916D01*
X-51665240Y9456187D01*
X-51665241Y9456187D01*
X-51665238Y9456188D01*
X-51462075Y9496600D01*
X-51254925Y9496600D01*
X-51051762Y9456188D01*
X-51051759Y9456187D01*
X-51051760Y9456187D01*
X-50860381Y9376916D01*
X-50715535Y9280133D01*
X-50688141Y9261829D01*
X-50541671Y9115359D01*
X-50464034Y8999167D01*
X-50448488Y8980225D01*
X-50429546Y8964679D01*
X-50407936Y8953128D01*
X-50384486Y8946015D01*
X-50360100Y8943613D01*
X-50335714Y8946015D01*
X-50312265Y8953128D01*
X-50290654Y8964679D01*
X-50271712Y8980225D01*
X-50256166Y8999167D01*
X-50244615Y9020777D01*
X-50237502Y9044227D01*
X-50235100Y9068613D01*
X-50235100Y10046600D01*
X-48276767Y10046600D01*
X-48252381Y10049002D01*
X-48228932Y10056115D01*
X-48207321Y10067666D01*
X-48188379Y10083212D01*
X-48172833Y10102154D01*
X-48161282Y10123765D01*
X-48154169Y10147214D01*
X-48151767Y10171600D01*
X-48154169Y10195986D01*
X-48161282Y10219435D01*
X-48172833Y10241046D01*
X-48188379Y10259988D01*
X-48207321Y10275534D01*
X-48228925Y10287082D01*
X-48242148Y10292559D01*
X-48348871Y10363869D01*
X-48348874Y10363871D01*
X-48439629Y10454626D01*
X-48510940Y10561351D01*
X-48510941Y10561352D01*
X-48560060Y10679935D01*
X-48571178Y10735832D01*
X-48578291Y10759280D01*
X-48589842Y10780891D01*
X-48605387Y10799833D01*
X-48624329Y10815378D01*
X-48645940Y10826930D01*
X-48669389Y10834043D01*
X-48693776Y10836445D01*
X-48718162Y10834043D01*
X-48741611Y10826930D01*
X-48763222Y10815379D01*
X-48782164Y10799833D01*
X-48843126Y10738871D01*
X-48843129Y10738869D01*
X-48949852Y10667559D01*
X-49068435Y10618440D01*
X-49162851Y10599660D01*
X-49194322Y10593400D01*
X-49322678Y10593400D01*
X-49354149Y10599660D01*
X-49448565Y10618440D01*
X-49567148Y10667559D01*
X-49673871Y10738869D01*
X-49673874Y10738871D01*
X-49764629Y10829626D01*
X-49782920Y10857000D01*
X-49835941Y10936352D01*
X-49885060Y11054935D01*
X-49907629Y11168400D01*
X-49910100Y11180822D01*
X-49910100Y11201748D01*
X-49912502Y11226134D01*
X-49919615Y11249583D01*
X-49931166Y11271194D01*
X-49946712Y11290136D01*
X-49965654Y11305682D01*
X-49987265Y11317233D01*
X-50010714Y11324346D01*
X-50035100Y11326748D01*
X-50059486Y11324346D01*
X-50082935Y11317233D01*
X-50104546Y11305682D01*
X-50156433Y11271012D01*
X-50208168Y11249583D01*
X-50320513Y11203048D01*
X-50327049Y11201748D01*
X-50494699Y11168400D01*
X-50672301Y11168400D01*
X-50839951Y11201748D01*
X-50846487Y11203048D01*
X-51010568Y11271013D01*
X-51158236Y11369682D01*
X-51158239Y11369684D01*
X-51283816Y11495261D01*
X-51382488Y11642934D01*
X-51450452Y11807014D01*
X-51453520Y11822440D01*
X-51485100Y11981200D01*
X-51485100Y12158800D01*
X-51450452Y12332987D01*
X-51382487Y12497068D01*
X-51283818Y12644736D01*
X-51283816Y12644739D01*
X-51158239Y12770316D01*
X-51053351Y12840400D01*
X-51010568Y12868987D01*
X-51008605Y12869800D01*
X-50962509Y12888894D01*
X-50846487Y12936952D01*
X-50672301Y12971600D01*
X-50494699Y12971600D01*
X-50320513Y12936952D01*
X-50320513Y12936952D01*
G37*
G36*
X-45132268Y3989055D02*
X-46435468Y3989055D01*
X-46435468Y5192255D01*
X-45132268Y5192255D01*
X-45132268Y3989055D01*
X-45132268Y3989055D01*
G37*
G36*
X-43432268Y3989055D02*
X-44735468Y3989055D01*
X-44735468Y5192255D01*
X-43432268Y5192255D01*
X-43432268Y3989055D01*
X-43432268Y3989055D01*
G37*
G36*
X-17470400Y4275200D02*
X-18773600Y4275200D01*
X-18773600Y5478400D01*
X-17470400Y5478400D01*
X-17470400Y4275200D01*
X-17470400Y4275200D01*
G37*
G36*
X-15770400Y4275200D02*
X-17073600Y4275200D01*
X-17073600Y5478400D01*
X-15770400Y5478400D01*
X-15770400Y4275200D01*
X-15770400Y4275200D01*
G37*
G36*
X-14079600Y4289600D02*
X-15282800Y4289600D01*
X-15282800Y5592800D01*
X-14079600Y5592800D01*
X-14079600Y4289600D01*
X-14079600Y4289600D01*
G37*
G36*
X-36136714Y5069144D02*
X-37439914Y5069144D01*
X-37439914Y6272344D01*
X-36136714Y6272344D01*
X-36136714Y5069144D01*
X-36136714Y5069144D01*
G37*
G36*
X-37836714Y5069144D02*
X-39139914Y5069144D01*
X-39139914Y6272344D01*
X-37836714Y6272344D01*
X-37836714Y5069144D01*
X-37836714Y5069144D01*
G37*
G36*
X-20023600Y5161000D02*
X-22226800Y5161000D01*
X-22226800Y5964200D01*
X-20023600Y5964200D01*
X-20023600Y5161000D01*
X-20023600Y5161000D01*
G37*
G36*
X-25423600Y5161000D02*
X-27626800Y5161000D01*
X-27626800Y5964200D01*
X-25423600Y5964200D01*
X-25423600Y5161000D01*
X-25423600Y5161000D01*
G37*
G36*
X-43432268Y5640055D02*
X-44735468Y5640055D01*
X-44735468Y6843255D01*
X-43432268Y6843255D01*
X-43432268Y5640055D01*
X-43432268Y5640055D01*
G37*
G36*
X-45132268Y5640055D02*
X-46435468Y5640055D01*
X-46435468Y6843255D01*
X-45132268Y6843255D01*
X-45132268Y5640055D01*
X-45132268Y5640055D01*
G37*
G36*
X-15770400Y5900800D02*
X-17073600Y5900800D01*
X-17073600Y7104000D01*
X-15770400Y7104000D01*
X-15770400Y5900800D01*
X-15770400Y5900800D01*
G37*
G36*
X-17470400Y5900800D02*
X-18773600Y5900800D01*
X-18773600Y7104000D01*
X-17470400Y7104000D01*
X-17470400Y5900800D01*
X-17470400Y5900800D01*
G37*
G36*
X-14079600Y5989600D02*
X-15282800Y5989600D01*
X-15282800Y7292800D01*
X-14079600Y7292800D01*
X-14079600Y5989600D01*
X-14079600Y5989600D01*
G37*
G36*
X-9855408Y6081776D02*
X-11058608Y6081776D01*
X-11058608Y7384976D01*
X-9855408Y7384976D01*
X-9855408Y6081776D01*
X-9855408Y6081776D01*
G37*
G36*
X-8112608Y6096976D02*
X-9315808Y6096976D01*
X-9315808Y7400176D01*
X-8112608Y7400176D01*
X-8112608Y6096976D01*
X-8112608Y6096976D01*
G37*
G36*
X-33245753Y6129541D02*
X-34548953Y6129541D01*
X-34548953Y7332741D01*
X-33245753Y7332741D01*
X-33245753Y6129541D01*
X-33245753Y6129541D01*
G37*
G36*
X-31545753Y6129541D02*
X-32848953Y6129541D01*
X-32848953Y7332741D01*
X-31545753Y7332741D01*
X-31545753Y6129541D01*
X-31545753Y6129541D01*
G37*
G36*
X-20023600Y6431000D02*
X-22226800Y6431000D01*
X-22226800Y7234200D01*
X-20023600Y7234200D01*
X-20023600Y6431000D01*
X-20023600Y6431000D01*
G37*
G36*
X-25423600Y6431000D02*
X-27626800Y6431000D01*
X-27626800Y7234200D01*
X-25423600Y7234200D01*
X-25423600Y6431000D01*
X-25423600Y6431000D01*
G37*
G36*
X-6485000Y6503376D02*
X-7688200Y6503376D01*
X-7688200Y7806576D01*
X-6485000Y7806576D01*
X-6485000Y6503376D01*
X-6485000Y6503376D01*
G37*
G36*
X3421000Y6804200D02*
X2217800Y6804200D01*
X2217800Y8107400D01*
X3421000Y8107400D01*
X3421000Y6804200D01*
X3421000Y6804200D01*
G37*
G36*
X5097400Y6804200D02*
X3894200Y6804200D01*
X3894200Y8107400D01*
X5097400Y8107400D01*
X5097400Y6804200D01*
X5097400Y6804200D01*
G37*
G36*
X6773800Y6804200D02*
X5570600Y6804200D01*
X5570600Y8107400D01*
X6773800Y8107400D01*
X6773800Y6804200D01*
X6773800Y6804200D01*
G37*
G36*
X-1086772Y8720760D02*
X-2573960Y7233572D01*
X-3495462Y8155074D01*
X-2008274Y9642262D01*
X-1086772Y8720760D01*
X-1086772Y8720760D01*
G37*
G36*
X-36824083Y10405133D02*
X-36821681Y10380747D01*
X-36814568Y10357298D01*
X-36803017Y10335687D01*
X-36787471Y10316745D01*
X-36768529Y10301199D01*
X-36746918Y10289648D01*
X-36723469Y10282535D01*
X-36699083Y10280133D01*
X-35814083Y10280133D01*
X-35814083Y8360133D01*
X-36699083Y8360133D01*
X-36723469Y8357731D01*
X-36746918Y8350618D01*
X-36768529Y8339067D01*
X-36787471Y8323521D01*
X-36803017Y8304579D01*
X-36814568Y8282968D01*
X-36821681Y8259519D01*
X-36824083Y8235133D01*
X-36824083Y7350133D01*
X-38744083Y7350133D01*
X-38744083Y8235133D01*
X-38746485Y8259519D01*
X-38753598Y8282968D01*
X-38765149Y8304579D01*
X-38780695Y8323521D01*
X-38799637Y8339067D01*
X-38821248Y8350618D01*
X-38844697Y8357731D01*
X-38869083Y8360133D01*
X-39754083Y8360133D01*
X-39754083Y10280133D01*
X-38879083Y10280133D01*
X-38854697Y10282535D01*
X-38831248Y10289648D01*
X-38809637Y10301199D01*
X-38790695Y10316745D01*
X-38775149Y10335687D01*
X-38763598Y10357298D01*
X-38756485Y10380747D01*
X-38754083Y10405133D01*
X-38754083Y11290133D01*
X-36824083Y11290133D01*
X-36824083Y10405133D01*
X-36824083Y10405133D01*
G37*
G36*
X15283300Y7526200D02*
X14480100Y7526200D01*
X14480100Y9429400D01*
X15283300Y9429400D01*
X15283300Y7526200D01*
X15283300Y7526200D01*
G37*
G36*
X16533300Y7526200D02*
X15730100Y7526200D01*
X15730100Y9429400D01*
X16533300Y9429400D01*
X16533300Y7526200D01*
X16533300Y7526200D01*
G37*
G36*
X-17470400Y7526400D02*
X-18773600Y7526400D01*
X-18773600Y8729600D01*
X-17470400Y8729600D01*
X-17470400Y7526400D01*
X-17470400Y7526400D01*
G37*
G36*
X-15770400Y7526400D02*
X-17073600Y7526400D01*
X-17073600Y8729600D01*
X-15770400Y8729600D01*
X-15770400Y7526400D01*
X-15770400Y7526400D01*
G37*
G36*
X-20023600Y7701000D02*
X-22226800Y7701000D01*
X-22226800Y8504200D01*
X-20023600Y8504200D01*
X-20023600Y7701000D01*
X-20023600Y7701000D01*
G37*
G36*
X-25423600Y7701000D02*
X-27626800Y7701000D01*
X-27626800Y8504200D01*
X-25423600Y8504200D01*
X-25423600Y7701000D01*
X-25423600Y7701000D01*
G37*
G36*
X-9855408Y7781776D02*
X-11058608Y7781776D01*
X-11058608Y9084976D01*
X-9855408Y9084976D01*
X-9855408Y7781776D01*
X-9855408Y7781776D01*
G37*
G36*
X-8112608Y7796976D02*
X-9315808Y7796976D01*
X-9315808Y9100176D01*
X-8112608Y9100176D01*
X-8112608Y7796976D01*
X-8112608Y7796976D01*
G37*
G36*
X-31559353Y7805941D02*
X-32862553Y7805941D01*
X-32862553Y9009141D01*
X-31559353Y9009141D01*
X-31559353Y7805941D01*
X-31559353Y7805941D01*
G37*
G36*
X-33259353Y7805941D02*
X-34562553Y7805941D01*
X-34562553Y9009141D01*
X-33259353Y9009141D01*
X-33259353Y7805941D01*
X-33259353Y7805941D01*
G37*
G36*
X1033309Y9036167D02*
X182517Y8185375D01*
X-738985Y9106877D01*
X111807Y9957669D01*
X1033309Y9036167D01*
X1033309Y9036167D01*
G37*
G36*
X-6485000Y8203376D02*
X-7688200Y8203376D01*
X-7688200Y9506576D01*
X-6485000Y9506576D01*
X-6485000Y8203376D01*
X-6485000Y8203376D01*
G37*
G36*
X3421000Y8504200D02*
X2217800Y8504200D01*
X2217800Y9807400D01*
X3421000Y9807400D01*
X3421000Y8504200D01*
X3421000Y8504200D01*
G37*
G36*
X5097400Y8504200D02*
X3894200Y8504200D01*
X3894200Y9807400D01*
X5097400Y9807400D01*
X5097400Y8504200D01*
X5097400Y8504200D01*
G37*
G36*
X6773800Y8504200D02*
X5570600Y8504200D01*
X5570600Y9807400D01*
X6773800Y9807400D01*
X6773800Y8504200D01*
X6773800Y8504200D01*
G37*
G36*
X-2854538Y10488526D02*
X-4341726Y9001338D01*
X-5263228Y9922840D01*
X-3776040Y11410028D01*
X-2854538Y10488526D01*
X-2854538Y10488526D01*
G37*
G36*
X-168773Y10238249D02*
X-1019565Y9387457D01*
X-1941067Y10308959D01*
X-1090275Y11159751D01*
X-168773Y10238249D01*
X-168773Y10238249D01*
G37*
G36*
X-31545753Y9482341D02*
X-32848953Y9482341D01*
X-32848953Y10685541D01*
X-31545753Y10685541D01*
X-31545753Y9482341D01*
X-31545753Y9482341D01*
G37*
G36*
X-33245753Y9482341D02*
X-34548953Y9482341D01*
X-34548953Y10685541D01*
X-33245753Y10685541D01*
X-33245753Y9482341D01*
X-33245753Y9482341D01*
G37*
G36*
X36840000Y9700400D02*
X35986800Y9700400D01*
X35986800Y10953600D01*
X36840000Y10953600D01*
X36840000Y9700400D01*
X36840000Y9700400D01*
G37*
G36*
X38740000Y9700400D02*
X37886800Y9700400D01*
X37886800Y10953600D01*
X38740000Y10953600D01*
X38740000Y9700400D01*
X38740000Y9700400D01*
G37*
G36*
X31464400Y10579500D02*
X30361200Y10579500D01*
X30361200Y12282700D01*
X31464400Y12282700D01*
X31464400Y10579500D01*
X31464400Y10579500D01*
G37*
G36*
X34764400Y10579500D02*
X33661200Y10579500D01*
X33661200Y12282700D01*
X34764400Y12282700D01*
X34764400Y10579500D01*
X34764400Y10579500D01*
G37*
G36*
X-1498132Y11567608D02*
X-2348924Y10716816D01*
X-3270426Y11638318D01*
X-2419634Y12489110D01*
X-1498132Y11567608D01*
X-1498132Y11567608D01*
G37*
G36*
X-27960600Y10857000D02*
X-29263800Y10857000D01*
X-29263800Y12060200D01*
X-27960600Y12060200D01*
X-27960600Y10857000D01*
X-27960600Y10857000D01*
G37*
G36*
X-26260600Y10857000D02*
X-27563800Y10857000D01*
X-27563800Y12060200D01*
X-26260600Y12060200D01*
X-26260600Y10857000D01*
X-26260600Y10857000D01*
G37*
G36*
X-24112600Y11071400D02*
X-25315800Y11071400D01*
X-25315800Y14074600D01*
X-24112600Y14074600D01*
X-24112600Y11071400D01*
X-24112600Y11071400D01*
G37*
G36*
X-15412600Y11071400D02*
X-16615800Y11071400D01*
X-16615800Y14074600D01*
X-15412600Y14074600D01*
X-15412600Y11071400D01*
X-15412600Y11071400D01*
G37*
G36*
X-33245753Y11158741D02*
X-34548953Y11158741D01*
X-34548953Y12361941D01*
X-33245753Y12361941D01*
X-33245753Y11158741D01*
X-33245753Y11158741D01*
G37*
G36*
X-31545753Y11158741D02*
X-32848953Y11158741D01*
X-32848953Y12361941D01*
X-31545753Y12361941D01*
X-31545753Y11158741D01*
X-31545753Y11158741D01*
G37*
G36*
X12273000Y11666600D02*
X10969800Y11666600D01*
X10969800Y12869800D01*
X12273000Y12869800D01*
X12273000Y11666600D01*
X12273000Y11666600D01*
G37*
G36*
X17833800Y11666600D02*
X16530600Y11666600D01*
X16530600Y12869800D01*
X17833800Y12869800D01*
X17833800Y11666600D01*
X17833800Y11666600D01*
G37*
G36*
X16133800Y11666600D02*
X14830600Y11666600D01*
X14830600Y12869800D01*
X16133800Y12869800D01*
X16133800Y11666600D01*
X16133800Y11666600D01*
G37*
G36*
X13973000Y11666600D02*
X12669800Y11666600D01*
X12669800Y12869800D01*
X13973000Y12869800D01*
X13973000Y11666600D01*
X13973000Y11666600D01*
G37*
G36*
X-9113842Y11834008D02*
X-11867042Y11834008D01*
X-11867042Y13597208D01*
X-9113842Y13597208D01*
X-9113842Y11834008D01*
X-9113842Y11834008D01*
G37*
G36*
X-2700214Y12769690D02*
X-3551006Y11918898D01*
X-4472508Y12840400D01*
X-3621716Y13691192D01*
X-2700214Y12769690D01*
X-2700214Y12769690D01*
G37*
G36*
X37790000Y12000400D02*
X36936800Y12000400D01*
X36936800Y13253600D01*
X37790000Y13253600D01*
X37790000Y12000400D01*
X37790000Y12000400D01*
G37*
G36*
X-41384600Y12087400D02*
X-42587800Y12087400D01*
X-42587800Y13390600D01*
X-41384600Y13390600D01*
X-41384600Y12087400D01*
X-41384600Y12087400D01*
G37*
G36*
X-7096242Y12448394D02*
X-8299442Y12448394D01*
X-8299442Y13751594D01*
X-7096242Y13751594D01*
X-7096242Y12448394D01*
X-7096242Y12448394D01*
G37*
G36*
X-26260600Y12482600D02*
X-27563800Y12482600D01*
X-27563800Y13685800D01*
X-26260600Y13685800D01*
X-26260600Y12482600D01*
X-26260600Y12482600D01*
G37*
G36*
X-27960600Y12482600D02*
X-29263800Y12482600D01*
X-29263800Y13685800D01*
X-27960600Y13685800D01*
X-27960600Y12482600D01*
X-27960600Y12482600D01*
G37*
G36*
X5612000Y13508300D02*
X4138800Y13508300D01*
X4138800Y17911500D01*
X5612000Y17911500D01*
X5612000Y13508300D01*
X5612000Y13508300D01*
G37*
G36*
X8112000Y13508300D02*
X6638800Y13508300D01*
X6638800Y17911500D01*
X8112000Y17911500D01*
X8112000Y13508300D01*
X8112000Y13508300D01*
G37*
G36*
X3112000Y13508300D02*
X1638800Y13508300D01*
X1638800Y17911500D01*
X3112000Y17911500D01*
X3112000Y13508300D01*
X3112000Y13508300D01*
G37*
G36*
X22974400Y13738400D02*
X21771200Y13738400D01*
X21771200Y15041600D01*
X22974400Y15041600D01*
X22974400Y13738400D01*
X22974400Y13738400D01*
G37*
G36*
X24701600Y13738400D02*
X23498400Y13738400D01*
X23498400Y15041600D01*
X24701600Y15041600D01*
X24701600Y13738400D01*
X24701600Y13738400D01*
G37*
G36*
X36949000Y13767000D02*
X35745800Y13767000D01*
X35745800Y15070200D01*
X36949000Y15070200D01*
X36949000Y13767000D01*
X36949000Y13767000D01*
G37*
G36*
X38981000Y13767000D02*
X37777800Y13767000D01*
X37777800Y15070200D01*
X38981000Y15070200D01*
X38981000Y13767000D01*
X38981000Y13767000D01*
G37*
G36*
X-41384600Y13787400D02*
X-42587800Y13787400D01*
X-42587800Y15090600D01*
X-41384600Y15090600D01*
X-41384600Y13787400D01*
X-41384600Y13787400D01*
G37*
G36*
X-32481000Y15532400D02*
X-32478598Y15508014D01*
X-32471485Y15484565D01*
X-32459934Y15462954D01*
X-32444388Y15444012D01*
X-32425446Y15428466D01*
X-32403835Y15416915D01*
X-32380386Y15409802D01*
X-32356000Y15407400D01*
X-31906000Y15407400D01*
X-31881614Y15409802D01*
X-31858165Y15416915D01*
X-31836554Y15428466D01*
X-31817612Y15444012D01*
X-31802066Y15462954D01*
X-31790515Y15484565D01*
X-31783402Y15508014D01*
X-31781000Y15532400D01*
X-31781000Y16157400D01*
X-31181000Y16157400D01*
X-31181000Y15431776D01*
X-31194388Y15420788D01*
X-31209934Y15401846D01*
X-31221485Y15380235D01*
X-31228598Y15356786D01*
X-31231000Y15332400D01*
X-31231000Y14107400D01*
X-31706000Y14107400D01*
X-31730386Y14104998D01*
X-31753835Y14097885D01*
X-31775446Y14086334D01*
X-31794388Y14070788D01*
X-31809934Y14051846D01*
X-31821485Y14030235D01*
X-31828598Y14006786D01*
X-31831000Y13982400D01*
X-31831000Y13857400D01*
X-32431000Y13857400D01*
X-32431000Y13982400D01*
X-32433402Y14006786D01*
X-32440515Y14030235D01*
X-32452066Y14051846D01*
X-32467612Y14070788D01*
X-32486554Y14086334D01*
X-32508165Y14097885D01*
X-32531614Y14104998D01*
X-32556000Y14107400D01*
X-33031000Y14107400D01*
X-33031000Y15332400D01*
X-33033402Y15356786D01*
X-33040515Y15380235D01*
X-33052066Y15401846D01*
X-33067612Y15420788D01*
X-33081000Y15431776D01*
X-33081000Y16157400D01*
X-32481000Y16157400D01*
X-32481000Y15532400D01*
X-32481000Y15532400D01*
G37*
G36*
X-39659353Y13916341D02*
X-40862553Y13916341D01*
X-40862553Y15219541D01*
X-39659353Y15219541D01*
X-39659353Y13916341D01*
X-39659353Y13916341D01*
G37*
G36*
X-37881353Y13916341D02*
X-39084553Y13916341D01*
X-39084553Y15219541D01*
X-37881353Y15219541D01*
X-37881353Y13916341D01*
X-37881353Y13916341D01*
G37*
G36*
X-36154153Y13916341D02*
X-37357353Y13916341D01*
X-37357353Y15219541D01*
X-36154153Y15219541D01*
X-36154153Y13916341D01*
X-36154153Y13916341D01*
G37*
G36*
X-34376153Y13916341D02*
X-35579353Y13916341D01*
X-35579353Y15219541D01*
X-34376153Y15219541D01*
X-34376153Y13916341D01*
X-34376153Y13916341D01*
G37*
G36*
X-12733400Y13992400D02*
X-13936600Y13992400D01*
X-13936600Y15295600D01*
X-12733400Y15295600D01*
X-12733400Y13992400D01*
X-12733400Y13992400D01*
G37*
G36*
X-26260600Y14108200D02*
X-27563800Y14108200D01*
X-27563800Y15311400D01*
X-26260600Y15311400D01*
X-26260600Y14108200D01*
X-26260600Y14108200D01*
G37*
G36*
X-27960600Y14108200D02*
X-29263800Y14108200D01*
X-29263800Y15311400D01*
X-27960600Y15311400D01*
X-27960600Y14108200D01*
X-27960600Y14108200D01*
G37*
G36*
X-7096242Y14148394D02*
X-8299442Y14148394D01*
X-8299442Y15451594D01*
X-7096242Y15451594D01*
X-7096242Y14148394D01*
X-7096242Y14148394D01*
G37*
G36*
X16322500Y14423400D02*
X14669300Y14423400D01*
X14669300Y15326600D01*
X16322500Y15326600D01*
X16322500Y14423400D01*
X16322500Y14423400D01*
G37*
G36*
X11162500Y14423400D02*
X9509300Y14423400D01*
X9509300Y15326600D01*
X11162500Y15326600D01*
X11162500Y14423400D01*
X11162500Y14423400D01*
G37*
G36*
X48037800Y17229099D02*
X48265081Y17183891D01*
X48514696Y17080497D01*
X48739344Y16930392D01*
X48930392Y16739344D01*
X49080497Y16514696D01*
X49183891Y16265081D01*
X49236600Y16000091D01*
X49236600Y15729909D01*
X49183891Y15464919D01*
X49080497Y15215304D01*
X48930392Y14990656D01*
X48739344Y14799608D01*
X48514696Y14649503D01*
X48265081Y14546109D01*
X48037800Y14500901D01*
X48000092Y14493400D01*
X47729908Y14493400D01*
X47692200Y14500901D01*
X47464919Y14546109D01*
X47215304Y14649503D01*
X46990656Y14799608D01*
X46799608Y14990656D01*
X46649503Y15215304D01*
X46546109Y15464919D01*
X46493400Y15729909D01*
X46493400Y16000091D01*
X46546109Y16265081D01*
X46649503Y16514696D01*
X46799608Y16739344D01*
X46990656Y16930392D01*
X47215304Y17080497D01*
X47464919Y17183891D01*
X47692200Y17229099D01*
X47729908Y17236600D01*
X48000092Y17236600D01*
X48037800Y17229099D01*
X48037800Y17229099D01*
G37*
G36*
X-50692200Y17229099D02*
X-50464919Y17183891D01*
X-50215304Y17080497D01*
X-49990656Y16930392D01*
X-49799608Y16739344D01*
X-49649503Y16514696D01*
X-49546109Y16265081D01*
X-49493400Y16000091D01*
X-49493400Y15729909D01*
X-49546109Y15464919D01*
X-49649503Y15215304D01*
X-49799608Y14990656D01*
X-49990656Y14799608D01*
X-50215304Y14649503D01*
X-50464919Y14546109D01*
X-50692200Y14500901D01*
X-50729908Y14493400D01*
X-51000092Y14493400D01*
X-51037800Y14500901D01*
X-51265081Y14546109D01*
X-51514696Y14649503D01*
X-51739344Y14799608D01*
X-51930392Y14990656D01*
X-52080497Y15215304D01*
X-52183891Y15464919D01*
X-52236600Y15729909D01*
X-52236600Y16000091D01*
X-52183891Y16265081D01*
X-52080497Y16514696D01*
X-51930392Y16739344D01*
X-51739344Y16930392D01*
X-51514696Y17080497D01*
X-51265081Y17183891D01*
X-51037800Y17229099D01*
X-51000092Y17236600D01*
X-50729908Y17236600D01*
X-50692200Y17229099D01*
X-50692200Y17229099D01*
G37*
G36*
X-9113842Y14534008D02*
X-9967042Y14534008D01*
X-9967042Y16297208D01*
X-9113842Y16297208D01*
X-9113842Y14534008D01*
X-9113842Y14534008D01*
G37*
G36*
X-11013842Y14534008D02*
X-11867042Y14534008D01*
X-11867042Y16297208D01*
X-11013842Y16297208D01*
X-11013842Y14534008D01*
X-11013842Y14534008D01*
G37*
G36*
X-22462600Y14971400D02*
X-23265800Y14971400D01*
X-23265800Y16874600D01*
X-22462600Y16874600D01*
X-22462600Y14971400D01*
X-22462600Y14971400D01*
G37*
G36*
X-17462600Y14971400D02*
X-18265800Y14971400D01*
X-18265800Y16874600D01*
X-17462600Y16874600D01*
X-17462600Y14971400D01*
X-17462600Y14971400D01*
G37*
G36*
X-18712600Y14971400D02*
X-19515800Y14971400D01*
X-19515800Y16874600D01*
X-18712600Y16874600D01*
X-18712600Y14971400D01*
X-18712600Y14971400D01*
G37*
G36*
X-21212600Y14971400D02*
X-22015800Y14971400D01*
X-22015800Y16874600D01*
X-21212600Y16874600D01*
X-21212600Y14971400D01*
X-21212600Y14971400D01*
G37*
G36*
X-19962600Y14971400D02*
X-20765800Y14971400D01*
X-20765800Y16874600D01*
X-19962600Y16874600D01*
X-19962600Y14971400D01*
X-19962600Y14971400D01*
G37*
G36*
X22974400Y15438400D02*
X21771200Y15438400D01*
X21771200Y16741600D01*
X22974400Y16741600D01*
X22974400Y15438400D01*
X22974400Y15438400D01*
G37*
G36*
X24701600Y15438400D02*
X23498400Y15438400D01*
X23498400Y16741600D01*
X24701600Y16741600D01*
X24701600Y15438400D01*
X24701600Y15438400D01*
G37*
G36*
X36949000Y15467000D02*
X35745800Y15467000D01*
X35745800Y16770200D01*
X36949000Y16770200D01*
X36949000Y15467000D01*
X36949000Y15467000D01*
G37*
G36*
X38981000Y15467000D02*
X37777800Y15467000D01*
X37777800Y16770200D01*
X38981000Y16770200D01*
X38981000Y15467000D01*
X38981000Y15467000D01*
G37*
G36*
X34764400Y15479500D02*
X33661200Y15479500D01*
X33661200Y17182700D01*
X34764400Y17182700D01*
X34764400Y15479500D01*
X34764400Y15479500D01*
G37*
G36*
X31464400Y15479500D02*
X30361200Y15479500D01*
X30361200Y17182700D01*
X31464400Y17182700D01*
X31464400Y15479500D01*
X31464400Y15479500D01*
G37*
G36*
X-39659353Y15616341D02*
X-40862553Y15616341D01*
X-40862553Y16919541D01*
X-39659353Y16919541D01*
X-39659353Y15616341D01*
X-39659353Y15616341D01*
G37*
G36*
X-37881353Y15616341D02*
X-39084553Y15616341D01*
X-39084553Y16919541D01*
X-37881353Y16919541D01*
X-37881353Y15616341D01*
X-37881353Y15616341D01*
G37*
G36*
X-36154153Y15616341D02*
X-37357353Y15616341D01*
X-37357353Y16919541D01*
X-36154153Y16919541D01*
X-36154153Y15616341D01*
X-36154153Y15616341D01*
G37*
G36*
X-34376153Y15616341D02*
X-35579353Y15616341D01*
X-35579353Y16919541D01*
X-34376153Y16919541D01*
X-34376153Y15616341D01*
X-34376153Y15616341D01*
G37*
G36*
X-12733400Y15692400D02*
X-13936600Y15692400D01*
X-13936600Y16995600D01*
X-12733400Y16995600D01*
X-12733400Y15692400D01*
X-12733400Y15692400D01*
G37*
G36*
X-26260600Y15733800D02*
X-27563800Y15733800D01*
X-27563800Y16937000D01*
X-26260600Y16937000D01*
X-26260600Y15733800D01*
X-26260600Y15733800D01*
G37*
G36*
X-27960600Y15733800D02*
X-29263800Y15733800D01*
X-29263800Y16937000D01*
X-27960600Y16937000D01*
X-27960600Y15733800D01*
X-27960600Y15733800D01*
G37*
G36*
X16322500Y16423400D02*
X14669300Y16423400D01*
X14669300Y17326600D01*
X16322500Y17326600D01*
X16322500Y16423400D01*
X16322500Y16423400D01*
G37*
G36*
X11162500Y16423400D02*
X9509300Y16423400D01*
X9509300Y17326600D01*
X11162500Y17326600D01*
X11162500Y16423400D01*
X11162500Y16423400D01*
G37*
M02*
