G04 #@! TF.FileFunction,Soldermask,Bot*
%FSLAX46Y46*%
G04 Gerber Fmt 4.6, Leading zero omitted, Abs format (unit mm)*
G04 Created by KiCad (PCBNEW 4.0.5) date 06/07/17 08:13:04*
%MOMM*%
%LPD*%
G01*
G04 APERTURE LIST*
%ADD10C,0.100000*%
%ADD11O,1.930400X1.930400*%
%ADD12C,1.403200*%
%ADD13O,1.903200X1.503200*%
%ADD14C,2.403200*%
%ADD15O,1.253200X1.253200*%
%ADD16R,1.503200X2.203200*%
%ADD17R,1.473200X4.403200*%
%ADD18R,1.903200X1.903200*%
%ADD19O,1.903200X1.903200*%
%ADD20R,2.202180X1.203960*%
%ADD21R,2.300000X1.200000*%
%ADD22R,1.200000X2.300000*%
G04 APERTURE END LIST*
D10*
D11*
X24130000Y17780000D03*
X24130000Y20320000D03*
X24130000Y22860000D03*
X24130000Y25400000D03*
X24130000Y50800000D03*
X24130000Y48260000D03*
X24130000Y45720000D03*
X24130000Y43180000D03*
X24130000Y40640000D03*
X24130000Y38100000D03*
X24130000Y35560000D03*
X24130000Y33020000D03*
X24130000Y30480000D03*
X24130000Y27940000D03*
X24130000Y15240000D03*
X24130000Y12700000D03*
X24130000Y10160000D03*
X24130000Y7620000D03*
X24130000Y5080000D03*
D12*
X22425000Y-7800000D03*
X22425000Y-2950000D03*
D13*
X25075000Y-9000000D03*
X25075000Y-1750000D03*
D14*
X1400000Y-26600000D03*
X24200000Y-26700000D03*
X1400000Y77600000D03*
X24200000Y77600000D03*
D15*
X15494000Y49784000D03*
X15494000Y51054000D03*
X16764000Y49784000D03*
X16764000Y51054000D03*
X18034000Y49784000D03*
X18034000Y51054000D03*
X19304000Y49784000D03*
X19304000Y51054000D03*
X20574000Y49784000D03*
X20574000Y51054000D03*
D11*
X1270000Y17780000D03*
X1270000Y20320000D03*
X1270000Y22860000D03*
X1270000Y25400000D03*
X1270000Y50800000D03*
X1270000Y48260000D03*
X1270000Y45720000D03*
X1270000Y43180000D03*
X1270000Y40640000D03*
X1270000Y38100000D03*
X1270000Y35560000D03*
X1270000Y33020000D03*
X1270000Y30480000D03*
X1270000Y27940000D03*
X1270000Y15240000D03*
X1270000Y12700000D03*
X1270000Y10160000D03*
X1270000Y7620000D03*
X1270000Y5080000D03*
D16*
X19700000Y31370000D03*
X17700000Y31370000D03*
X15700000Y31370000D03*
X13700000Y31370000D03*
X11700000Y31370000D03*
X9700000Y31370000D03*
X7700000Y31370000D03*
X5700000Y31370000D03*
X5700000Y47370000D03*
X7700000Y47370000D03*
X9700000Y47370000D03*
X11700000Y47370000D03*
X13700000Y47370000D03*
X15700000Y47370000D03*
X17700000Y47370000D03*
X19700000Y47370000D03*
D17*
X18750400Y77000000D03*
X16250400Y77000000D03*
X21250400Y77000000D03*
D18*
X24100000Y-23800000D03*
D19*
X24100000Y-21260000D03*
X24100000Y-18720000D03*
X24100000Y-16180000D03*
X24100000Y-13640000D03*
D20*
X8382000Y59654440D03*
X8382000Y61153040D03*
X8382000Y62654180D03*
X8382000Y64152780D03*
X8382000Y65653920D03*
X8382000Y67152520D03*
X8382000Y68653660D03*
X8382000Y70152260D03*
X8382000Y71653400D03*
X8382000Y73152000D03*
X24384000Y73152000D03*
X24384000Y71653400D03*
X24384000Y70152260D03*
X24384000Y68653660D03*
X24384000Y67152520D03*
X24384000Y65653920D03*
X24384000Y64152780D03*
X24384000Y62654180D03*
X24384000Y61153040D03*
X24384000Y59654440D03*
D18*
X1066800Y71170800D03*
D21*
X1651000Y-18478501D03*
X1651000Y-17462501D03*
X1651000Y-16446500D03*
X1651000Y-15430500D03*
X1651000Y-14414501D03*
X1651000Y-13398501D03*
X1651000Y-12382501D03*
X1651000Y-11366501D03*
X1651000Y-21526501D03*
D22*
X7370450Y-8696101D03*
X6354450Y-8696101D03*
X5338450Y-8696101D03*
X4322450Y-8696101D03*
X11434450Y-8696101D03*
X13466453Y-8696101D03*
X14482450Y-8696101D03*
X15498450Y-8696101D03*
X16514450Y-8696101D03*
X5330230Y-23426371D03*
X6346230Y-23426371D03*
X7362230Y-23426371D03*
X8378230Y-23426371D03*
X9394230Y-23426371D03*
X10410230Y-23426371D03*
X11426230Y-23426371D03*
X12442234Y-23426371D03*
X13458234Y-23426371D03*
X14474230Y-23426371D03*
D17*
X6900000Y77000000D03*
X4400000Y77000000D03*
X9400000Y77000000D03*
M02*
