G04 #@! TF.FileFunction,Legend,Bot*
%FSLAX46Y46*%
G04 Gerber Fmt 4.6, Leading zero omitted, Abs format (unit mm)*
G04 Created by KiCad (PCBNEW 4.0.7-e2-6376~58~ubuntu16.04.1) date Tue Dec 19 15:19:15 2017*
%MOMM*%
%LPD*%
G01*
G04 APERTURE LIST*
%ADD10C,0.100000*%
%ADD11C,0.127000*%
%ADD12C,0.300000*%
%ADD13C,0.150000*%
%ADD14C,0.381000*%
%ADD15C,0.254000*%
G04 APERTURE END LIST*
D10*
X4319260Y-192100D02*
X4319260Y21527900D01*
X4319260Y21527900D02*
X19049260Y21527900D01*
X19049260Y21527900D02*
X19049260Y-192100D01*
X19049260Y-192100D02*
X4319260Y-192100D01*
D11*
X26598880Y-20129500D02*
X26598880Y-21127720D01*
X26598880Y-21127720D02*
X11498580Y-21127720D01*
X11498580Y-21127720D02*
X11498580Y-7129780D01*
X11498580Y-7129780D02*
X25900380Y-7129780D01*
X25900380Y-7129780D02*
X25900380Y-8128000D01*
X24998680Y-8829040D02*
X24998680Y-18529300D01*
X27358340Y-8727440D02*
X27358340Y-17927320D01*
X28260040Y-8727440D02*
X28260040Y-17927320D01*
X32059880Y-8727440D02*
X32059880Y-17927320D01*
X24998680Y-8826500D02*
G75*
G02X25900380Y-8128000I800100J-101600D01*
G01*
X26598880Y-20129500D02*
G75*
G02X24998680Y-18529300I0J1600200D01*
G01*
X26159460Y-7528560D02*
G75*
G02X27358340Y-8727440I0J-1198880D01*
G01*
X27358340Y-17929860D02*
G75*
G02X26258520Y-19227800I-1198880J-99060D01*
G01*
X27058620Y-7526020D02*
G75*
G02X28260040Y-8727440I0J-1201420D01*
G01*
X28257500Y-17927320D02*
G75*
G02X27160220Y-19227800I-1198880J-101600D01*
G01*
X30858460Y-7526020D02*
G75*
G02X32059880Y-8727440I0J-1201420D01*
G01*
X32057340Y-17927320D02*
G75*
G02X30960060Y-19227800I-1198880J-101600D01*
G01*
D12*
X20870711Y30770000D02*
G75*
G03X20870711Y30770000I-70711J0D01*
G01*
D13*
X20700000Y31370000D02*
X20700000Y47370000D01*
X4700000Y31370000D02*
X4700000Y47370000D01*
D14*
X8382000Y66403220D02*
X8382000Y58402220D01*
X8382000Y58402220D02*
X24384000Y58402220D01*
X24384000Y58402220D02*
X24384000Y72402700D01*
X24384000Y72402700D02*
X24384000Y74404220D01*
X24384000Y74404220D02*
X8382000Y74404220D01*
X8382000Y74404220D02*
X8382000Y66403220D01*
D15*
G36*
X20447000Y32639000D02*
X4953000Y32639000D01*
X4953000Y46101000D01*
X20447000Y46101000D01*
X20447000Y32639000D01*
X20447000Y32639000D01*
G37*
X20447000Y32639000D02*
X4953000Y32639000D01*
X4953000Y46101000D01*
X20447000Y46101000D01*
X20447000Y32639000D01*
G36*
X22733000Y37465000D02*
X22479000Y37465000D01*
X22479000Y38735000D01*
X22733000Y38735000D01*
X22733000Y37465000D01*
X22733000Y37465000D01*
G37*
X22733000Y37465000D02*
X22479000Y37465000D01*
X22479000Y38735000D01*
X22733000Y38735000D01*
X22733000Y37465000D01*
G36*
X22733000Y32385000D02*
X22479000Y32385000D01*
X22479000Y33655000D01*
X22733000Y33655000D01*
X22733000Y32385000D01*
X22733000Y32385000D01*
G37*
X22733000Y32385000D02*
X22479000Y32385000D01*
X22479000Y33655000D01*
X22733000Y33655000D01*
X22733000Y32385000D01*
G36*
X22733000Y29864293D02*
X22479000Y29864293D01*
X22479000Y31134293D01*
X22733000Y31134293D01*
X22733000Y29864293D01*
X22733000Y29864293D01*
G37*
X22733000Y29864293D02*
X22479000Y29864293D01*
X22479000Y31134293D01*
X22733000Y31134293D01*
X22733000Y29864293D01*
G36*
X23114000Y58765166D02*
X9768000Y58765166D01*
X9768000Y73961166D01*
X23114000Y73961166D01*
X23114000Y58765166D01*
X23114000Y58765166D01*
G37*
X23114000Y58765166D02*
X9768000Y58765166D01*
X9768000Y73961166D01*
X23114000Y73961166D01*
X23114000Y58765166D01*
M02*
