G04 #@! TF.FileFunction,Soldermask,Top*
%FSLAX46Y46*%
G04 Gerber Fmt 4.6, Leading zero omitted, Abs format (unit mm)*
G04 Created by KiCad (PCBNEW 4.0.7-e2-6376~58~ubuntu16.04.1) date Tue Nov 28 14:50:33 2017*
%MOMM*%
%LPD*%
G01*
G04 APERTURE LIST*
%ADD10C,0.100000*%
%ADD11R,1.903200X1.903200*%
%ADD12O,1.903200X1.903200*%
%ADD13R,1.203200X1.303200*%
%ADD14R,0.853200X1.763200*%
%ADD15R,0.603200X1.553200*%
%ADD16C,1.403200*%
%ADD17C,1.903200*%
%ADD18O,1.930400X1.930400*%
%ADD19R,1.403200X1.003200*%
%ADD20R,2.403200X1.003200*%
%ADD21R,2.703200X2.203200*%
%ADD22R,0.803200X2.203200*%
%ADD23R,1.203200X0.903200*%
%ADD24R,0.803200X0.903200*%
%ADD25R,1.203200X1.703200*%
%ADD26C,2.403200*%
%ADD27R,0.700000X0.600000*%
%ADD28R,1.300000X1.800000*%
%ADD29R,0.450000X0.600000*%
%ADD30R,1.203200X3.703200*%
%ADD31R,1.703200X3.603200*%
%ADD32R,0.853200X1.253200*%
%ADD33R,0.890000X0.890000*%
%ADD34R,0.420000X0.990000*%
%ADD35R,0.990000X0.420000*%
%ADD36R,0.990000X0.440000*%
%ADD37R,1.303200X1.203200*%
%ADD38R,1.473200X4.403200*%
%ADD39R,0.903200X1.653200*%
%ADD40R,0.953200X0.503200*%
%ADD41R,1.078200X0.928200*%
%ADD42R,2.303200X0.953200*%
G04 APERTURE END LIST*
D10*
D11*
X1270000Y-17779000D03*
D12*
X1270000Y-15239000D03*
X1270000Y-12699000D03*
X1270000Y-10159000D03*
X1270000Y-7619000D03*
X1270000Y-5079000D03*
D13*
X15621000Y12407000D03*
X15621000Y10707000D03*
D14*
X17378284Y10141534D03*
X18328284Y10141534D03*
X19278284Y10141534D03*
X19278284Y12841534D03*
X17378284Y12841534D03*
D15*
X16538000Y-23104400D03*
X17188000Y-23104400D03*
X17838000Y-23104400D03*
X18488000Y-23104400D03*
X19138000Y-23104400D03*
D16*
X15413000Y-23029400D03*
X20263000Y-23029400D03*
D17*
X14213000Y-25679400D03*
X21463000Y-25679400D03*
D18*
X24130000Y17780000D03*
X24130000Y20320000D03*
X24130000Y22860000D03*
X24130000Y25400000D03*
X24130000Y50800000D03*
X24130000Y48260000D03*
X24130000Y45720000D03*
X24130000Y43180000D03*
X24130000Y40640000D03*
X24130000Y38100000D03*
X24130000Y35560000D03*
X24130000Y33020000D03*
X24130000Y30480000D03*
X24130000Y27940000D03*
X24130000Y15240000D03*
X24130000Y12700000D03*
X24130000Y10160000D03*
X24130000Y7620000D03*
X24130000Y5080000D03*
D10*
G36*
X10876937Y40951689D02*
X11197398Y41272150D01*
X12260321Y40209227D01*
X11939860Y39888766D01*
X10876937Y40951689D01*
X10876937Y40951689D01*
G37*
G36*
X10523384Y40598136D02*
X10843845Y40918597D01*
X11906768Y39855674D01*
X11586307Y39535213D01*
X10523384Y40598136D01*
X10523384Y40598136D01*
G37*
G36*
X10169830Y40244582D02*
X10490291Y40565043D01*
X11553214Y39502120D01*
X11232753Y39181659D01*
X10169830Y40244582D01*
X10169830Y40244582D01*
G37*
G36*
X9816277Y39891029D02*
X10136738Y40211490D01*
X11199661Y39148567D01*
X10879200Y38828106D01*
X9816277Y39891029D01*
X9816277Y39891029D01*
G37*
G36*
X9462724Y39537476D02*
X9783185Y39857937D01*
X10846108Y38795014D01*
X10525647Y38474553D01*
X9462724Y39537476D01*
X9462724Y39537476D01*
G37*
G36*
X9109170Y39183922D02*
X9429631Y39504383D01*
X10492554Y38441460D01*
X10172093Y38120999D01*
X9109170Y39183922D01*
X9109170Y39183922D01*
G37*
G36*
X8755617Y38830369D02*
X9076078Y39150830D01*
X10139001Y38087907D01*
X9818540Y37767446D01*
X8755617Y38830369D01*
X8755617Y38830369D01*
G37*
G36*
X8402063Y38476815D02*
X8722524Y38797276D01*
X9785447Y37734353D01*
X9464986Y37413892D01*
X8402063Y38476815D01*
X8402063Y38476815D01*
G37*
G36*
X8048510Y38123262D02*
X8368971Y38443723D01*
X9431894Y37380800D01*
X9111433Y37060339D01*
X8048510Y38123262D01*
X8048510Y38123262D01*
G37*
G36*
X7694957Y37769709D02*
X8015418Y38090170D01*
X9078341Y37027247D01*
X8757880Y36706786D01*
X7694957Y37769709D01*
X7694957Y37769709D01*
G37*
G36*
X7341403Y37416155D02*
X7661864Y37736616D01*
X8724787Y36673693D01*
X8404326Y36353232D01*
X7341403Y37416155D01*
X7341403Y37416155D01*
G37*
G36*
X6987850Y37062602D02*
X7308311Y37383063D01*
X8371234Y36320140D01*
X8050773Y35999679D01*
X6987850Y37062602D01*
X6987850Y37062602D01*
G37*
G36*
X7308311Y33736937D02*
X6987850Y34057398D01*
X8050773Y35120321D01*
X8371234Y34799860D01*
X7308311Y33736937D01*
X7308311Y33736937D01*
G37*
G36*
X7661864Y33383384D02*
X7341403Y33703845D01*
X8404326Y34766768D01*
X8724787Y34446307D01*
X7661864Y33383384D01*
X7661864Y33383384D01*
G37*
G36*
X8015418Y33029830D02*
X7694957Y33350291D01*
X8757880Y34413214D01*
X9078341Y34092753D01*
X8015418Y33029830D01*
X8015418Y33029830D01*
G37*
G36*
X8368971Y32676277D02*
X8048510Y32996738D01*
X9111433Y34059661D01*
X9431894Y33739200D01*
X8368971Y32676277D01*
X8368971Y32676277D01*
G37*
G36*
X8722524Y32322724D02*
X8402063Y32643185D01*
X9464986Y33706108D01*
X9785447Y33385647D01*
X8722524Y32322724D01*
X8722524Y32322724D01*
G37*
G36*
X9076078Y31969170D02*
X8755617Y32289631D01*
X9818540Y33352554D01*
X10139001Y33032093D01*
X9076078Y31969170D01*
X9076078Y31969170D01*
G37*
G36*
X9429631Y31615617D02*
X9109170Y31936078D01*
X10172093Y32999001D01*
X10492554Y32678540D01*
X9429631Y31615617D01*
X9429631Y31615617D01*
G37*
G36*
X9783185Y31262063D02*
X9462724Y31582524D01*
X10525647Y32645447D01*
X10846108Y32324986D01*
X9783185Y31262063D01*
X9783185Y31262063D01*
G37*
G36*
X10136738Y30908510D02*
X9816277Y31228971D01*
X10879200Y32291894D01*
X11199661Y31971433D01*
X10136738Y30908510D01*
X10136738Y30908510D01*
G37*
G36*
X10490291Y30554957D02*
X10169830Y30875418D01*
X11232753Y31938341D01*
X11553214Y31617880D01*
X10490291Y30554957D01*
X10490291Y30554957D01*
G37*
G36*
X10843845Y30201403D02*
X10523384Y30521864D01*
X11586307Y31584787D01*
X11906768Y31264326D01*
X10843845Y30201403D01*
X10843845Y30201403D01*
G37*
G36*
X11197398Y29847850D02*
X10876937Y30168311D01*
X11939860Y31231234D01*
X12260321Y30910773D01*
X11197398Y29847850D01*
X11197398Y29847850D01*
G37*
G36*
X13139679Y30910773D02*
X13460140Y31231234D01*
X14523063Y30168311D01*
X14202602Y29847850D01*
X13139679Y30910773D01*
X13139679Y30910773D01*
G37*
G36*
X13493232Y31264326D02*
X13813693Y31584787D01*
X14876616Y30521864D01*
X14556155Y30201403D01*
X13493232Y31264326D01*
X13493232Y31264326D01*
G37*
G36*
X13846786Y31617880D02*
X14167247Y31938341D01*
X15230170Y30875418D01*
X14909709Y30554957D01*
X13846786Y31617880D01*
X13846786Y31617880D01*
G37*
G36*
X14200339Y31971433D02*
X14520800Y32291894D01*
X15583723Y31228971D01*
X15263262Y30908510D01*
X14200339Y31971433D01*
X14200339Y31971433D01*
G37*
G36*
X14553892Y32324986D02*
X14874353Y32645447D01*
X15937276Y31582524D01*
X15616815Y31262063D01*
X14553892Y32324986D01*
X14553892Y32324986D01*
G37*
G36*
X14907446Y32678540D02*
X15227907Y32999001D01*
X16290830Y31936078D01*
X15970369Y31615617D01*
X14907446Y32678540D01*
X14907446Y32678540D01*
G37*
G36*
X15260999Y33032093D02*
X15581460Y33352554D01*
X16644383Y32289631D01*
X16323922Y31969170D01*
X15260999Y33032093D01*
X15260999Y33032093D01*
G37*
G36*
X15614553Y33385647D02*
X15935014Y33706108D01*
X16997937Y32643185D01*
X16677476Y32322724D01*
X15614553Y33385647D01*
X15614553Y33385647D01*
G37*
G36*
X15968106Y33739200D02*
X16288567Y34059661D01*
X17351490Y32996738D01*
X17031029Y32676277D01*
X15968106Y33739200D01*
X15968106Y33739200D01*
G37*
G36*
X16321659Y34092753D02*
X16642120Y34413214D01*
X17705043Y33350291D01*
X17384582Y33029830D01*
X16321659Y34092753D01*
X16321659Y34092753D01*
G37*
G36*
X16675213Y34446307D02*
X16995674Y34766768D01*
X18058597Y33703845D01*
X17738136Y33383384D01*
X16675213Y34446307D01*
X16675213Y34446307D01*
G37*
G36*
X17028766Y34799860D02*
X17349227Y35120321D01*
X18412150Y34057398D01*
X18091689Y33736937D01*
X17028766Y34799860D01*
X17028766Y34799860D01*
G37*
G36*
X17349227Y35999679D02*
X17028766Y36320140D01*
X18091689Y37383063D01*
X18412150Y37062602D01*
X17349227Y35999679D01*
X17349227Y35999679D01*
G37*
G36*
X16995674Y36353232D02*
X16675213Y36673693D01*
X17738136Y37736616D01*
X18058597Y37416155D01*
X16995674Y36353232D01*
X16995674Y36353232D01*
G37*
G36*
X16642120Y36706786D02*
X16321659Y37027247D01*
X17384582Y38090170D01*
X17705043Y37769709D01*
X16642120Y36706786D01*
X16642120Y36706786D01*
G37*
G36*
X16288567Y37060339D02*
X15968106Y37380800D01*
X17031029Y38443723D01*
X17351490Y38123262D01*
X16288567Y37060339D01*
X16288567Y37060339D01*
G37*
G36*
X15935014Y37413892D02*
X15614553Y37734353D01*
X16677476Y38797276D01*
X16997937Y38476815D01*
X15935014Y37413892D01*
X15935014Y37413892D01*
G37*
G36*
X15581460Y37767446D02*
X15260999Y38087907D01*
X16323922Y39150830D01*
X16644383Y38830369D01*
X15581460Y37767446D01*
X15581460Y37767446D01*
G37*
G36*
X15227907Y38120999D02*
X14907446Y38441460D01*
X15970369Y39504383D01*
X16290830Y39183922D01*
X15227907Y38120999D01*
X15227907Y38120999D01*
G37*
G36*
X14874353Y38474553D02*
X14553892Y38795014D01*
X15616815Y39857937D01*
X15937276Y39537476D01*
X14874353Y38474553D01*
X14874353Y38474553D01*
G37*
G36*
X14520800Y38828106D02*
X14200339Y39148567D01*
X15263262Y40211490D01*
X15583723Y39891029D01*
X14520800Y38828106D01*
X14520800Y38828106D01*
G37*
G36*
X14167247Y39181659D02*
X13846786Y39502120D01*
X14909709Y40565043D01*
X15230170Y40244582D01*
X14167247Y39181659D01*
X14167247Y39181659D01*
G37*
G36*
X13813693Y39535213D02*
X13493232Y39855674D01*
X14556155Y40918597D01*
X14876616Y40598136D01*
X13813693Y39535213D01*
X13813693Y39535213D01*
G37*
G36*
X13460140Y39888766D02*
X13139679Y40209227D01*
X14202602Y41272150D01*
X14523063Y40951689D01*
X13460140Y39888766D01*
X13460140Y39888766D01*
G37*
D19*
X19558000Y-7317000D03*
D20*
X19058000Y-5817000D03*
D19*
X19558000Y-4317000D03*
D21*
X16708000Y-5817000D03*
D22*
X7797800Y19339600D03*
X6527800Y19339600D03*
X5257800Y19339600D03*
X3987800Y19339600D03*
X3987800Y24739600D03*
X5257800Y24739600D03*
X6527800Y24739600D03*
X7797800Y24739600D03*
D10*
G36*
X9849773Y44035040D02*
X11336960Y45522227D01*
X12258461Y44600726D01*
X10771274Y43113539D01*
X9849773Y44035040D01*
X9849773Y44035040D01*
G37*
G36*
X11617539Y42267274D02*
X13104726Y43754461D01*
X14026227Y42832960D01*
X12539040Y41345773D01*
X11617539Y42267274D01*
X11617539Y42267274D01*
G37*
D23*
X21068600Y-20532600D03*
D24*
X22768600Y-20532600D03*
X22768600Y-18532600D03*
X20868600Y-18532600D03*
D25*
X13860600Y-19532600D03*
X16060600Y-19532600D03*
D26*
X1400000Y-25819000D03*
X24200000Y-25919000D03*
X1400000Y77200000D03*
X24200000Y77200000D03*
D13*
X20001314Y19302454D03*
X20001314Y21002454D03*
D27*
X4026000Y-8493000D03*
X4026000Y-9793000D03*
D28*
X5076000Y-9143000D03*
D29*
X5751000Y-9143000D03*
D30*
X6922000Y-19977000D03*
X8922000Y-19977000D03*
D31*
X4572000Y-25527000D03*
X11272000Y-25527000D03*
D18*
X1270000Y17780000D03*
X1270000Y20320000D03*
X1270000Y22860000D03*
X1270000Y25400000D03*
X1270000Y50800000D03*
X1270000Y48260000D03*
X1270000Y45720000D03*
X1270000Y43180000D03*
X1270000Y40640000D03*
X1270000Y38100000D03*
X1270000Y35560000D03*
X1270000Y33020000D03*
X1270000Y30480000D03*
X1270000Y27940000D03*
X1270000Y15240000D03*
X1270000Y12700000D03*
X1270000Y10160000D03*
X1270000Y7620000D03*
X1270000Y5080000D03*
D13*
X7010400Y-6515000D03*
X7010400Y-8215000D03*
D32*
X18227000Y15251400D03*
X20127000Y15251400D03*
X19177000Y17551400D03*
D33*
X10414000Y-11066000D03*
X9664000Y-11066000D03*
X9664000Y-11816000D03*
X10414000Y-11816000D03*
D34*
X9289000Y-12916000D03*
X9789000Y-12916000D03*
X10289000Y-12916000D03*
X10789000Y-12916000D03*
D35*
X11514000Y-12191000D03*
X11514000Y-11691000D03*
D36*
X11514000Y-11191000D03*
D35*
X11514000Y-10691000D03*
D34*
X10789000Y-9966000D03*
X10289000Y-9966000D03*
X9789000Y-9966000D03*
X9289000Y-9966000D03*
D35*
X8564000Y-10691000D03*
X8564000Y-11191000D03*
X8564000Y-11691000D03*
D36*
X8564000Y-12191000D03*
D37*
X1898719Y69971009D03*
X198719Y69971009D03*
D38*
X21250400Y77000000D03*
X16250400Y77000000D03*
D37*
X19597000Y6096000D03*
X21297000Y6096000D03*
X19597000Y7747000D03*
X21297000Y7747000D03*
D11*
X1003300Y72758300D03*
D37*
X23393226Y-17018000D03*
X21693226Y-17018000D03*
X18136500Y-15367000D03*
X19836500Y-15367000D03*
D39*
X24219000Y58754000D03*
X24219000Y53594000D03*
X26219000Y53594000D03*
X26219000Y58754000D03*
D13*
X14835422Y17251524D03*
X14835422Y15551524D03*
X14850204Y21007330D03*
X14850204Y19307330D03*
X16613422Y17251524D03*
X16613422Y15551524D03*
X16628204Y21007330D03*
X16628204Y19307330D03*
X12936998Y15480400D03*
X12936998Y13780400D03*
X11201400Y15470050D03*
X11201400Y13770050D03*
D37*
X1866000Y57667600D03*
X166000Y57667600D03*
X1866000Y61725200D03*
X166000Y61725200D03*
X1866000Y65786000D03*
X166000Y65786000D03*
D32*
X5572800Y58189600D03*
X3672800Y58189600D03*
X4622800Y55889600D03*
X5572800Y62298000D03*
X3672800Y62298000D03*
X4622800Y59998000D03*
X5572800Y66383600D03*
X3672800Y66383600D03*
X4622800Y64083600D03*
D37*
X166000Y55886400D03*
X1866000Y55886400D03*
X166000Y59998000D03*
X1866000Y59998000D03*
X166000Y64065200D03*
X1866000Y64065200D03*
D40*
X21671726Y-13659264D03*
X21671726Y-14159264D03*
X21671726Y-14659264D03*
X21671726Y-15159264D03*
X24571726Y-15159264D03*
X24571726Y-14659264D03*
X24571726Y-14159264D03*
X24571726Y-13659264D03*
D41*
X23559226Y-14771764D03*
X23559226Y-14046764D03*
X22684226Y-14771764D03*
X22684226Y-14046764D03*
D38*
X9358000Y77012800D03*
X4358000Y77012800D03*
D42*
X16847000Y53644800D03*
X20447000Y53644800D03*
X16847000Y54914800D03*
X20447000Y54914800D03*
X16847000Y56184800D03*
X20447000Y56184800D03*
X16847000Y57454800D03*
X20447000Y57454800D03*
X16847000Y58724800D03*
X20447000Y58724800D03*
D37*
X16930000Y51435000D03*
X18630000Y51435000D03*
X16930000Y49784000D03*
X18630000Y49784000D03*
D13*
X9804400Y21209000D03*
X9804400Y22909000D03*
D10*
G36*
X13679187Y45642404D02*
X12828396Y44791613D01*
X11906895Y45713114D01*
X12757686Y46563905D01*
X13679187Y45642404D01*
X13679187Y45642404D01*
G37*
G36*
X12477105Y46844486D02*
X11626314Y45993695D01*
X10704813Y46915196D01*
X11555604Y47765987D01*
X12477105Y46844486D01*
X12477105Y46844486D01*
G37*
G36*
X13244813Y44375196D02*
X14095604Y45225987D01*
X15017105Y44304486D01*
X14166314Y43453695D01*
X13244813Y44375196D01*
X13244813Y44375196D01*
G37*
G36*
X14446895Y43173114D02*
X15297686Y44023905D01*
X16219187Y43102404D01*
X15368396Y42251613D01*
X14446895Y43173114D01*
X14446895Y43173114D01*
G37*
D13*
X19202400Y46140000D03*
X19202400Y47840000D03*
X17526000Y46140000D03*
X17526000Y47840000D03*
X18034000Y41314000D03*
X18034000Y43014000D03*
X19710400Y41314000D03*
X19710400Y43014000D03*
X5765800Y40653600D03*
X5765800Y42353600D03*
X9144000Y41161600D03*
X9144000Y42861600D03*
X7442200Y41161600D03*
X7442200Y42861600D03*
X18324914Y21002454D03*
X18324914Y19302454D03*
D37*
X4382400Y-11429000D03*
X6082400Y-11429000D03*
X6082400Y-16305800D03*
X4382400Y-16305800D03*
X4382400Y-13054600D03*
X6082400Y-13054600D03*
X4382400Y-14680200D03*
X6082400Y-14680200D03*
D13*
X12242800Y-14693800D03*
X12242800Y-16393800D03*
D37*
X8751200Y-16458200D03*
X10451200Y-16458200D03*
D13*
X13868400Y-14693800D03*
X13868400Y-16393800D03*
X12039600Y-8215000D03*
X12039600Y-6515000D03*
X10363200Y-8215000D03*
X10363200Y-6515000D03*
X8686800Y-6515000D03*
X8686800Y-8215000D03*
D37*
X23664083Y-23832491D03*
X25364083Y-23832491D03*
D13*
X20218400Y34124000D03*
X20218400Y32424000D03*
X4470400Y32142800D03*
X4470400Y30442800D03*
D37*
X21373200Y37642800D03*
X19673200Y37642800D03*
X21373200Y35966400D03*
X19673200Y35966400D03*
X10375000Y-4190000D03*
X8675000Y-4190000D03*
X14440800Y-11581400D03*
X16140800Y-11581400D03*
X14440800Y-9955800D03*
X16140800Y-9955800D03*
X19835600Y-11581400D03*
X18135600Y-11581400D03*
X19835600Y-9955800D03*
X18135600Y-9955800D03*
X19837226Y-13716000D03*
X18137226Y-13716000D03*
D13*
X4140200Y40653600D03*
X4140200Y42353600D03*
D37*
X23664083Y-22105291D03*
X25364083Y-22105291D03*
X18137226Y-17018000D03*
X19837226Y-17018000D03*
X1885119Y68345409D03*
X185119Y68345409D03*
M02*
