M48
;DRILL file {KiCad 5.0.0-fee4fd1~65~ubuntu16.04.1} date Fri Jul 27 15:43:13 2018
;FORMAT={-:-/ absolute / inch / decimal}
FMAT,2
INCH,TZ
T1C0.0118
T2C0.0276
T3C0.0315
T4C0.0394
T5C0.0433
T6C0.0551
%
G90
G05
M72
T1
X-2.055Y0.28
X-2.03Y0.255
X-2.0125Y-0.4755
X-2.Y-0.445
X-1.949Y-0.4445
X-1.949Y-0.4765
X-1.785Y0.593
X-1.785Y0.569
X-1.785Y-0.255
X-1.755Y0.03
X-1.695Y0.519
X-1.675Y-0.6012
X-1.627Y0.655
X-1.627Y0.623
X-1.567Y-0.064
X-1.567Y-0.064
X-1.563Y0.245
X-1.5037Y0.27
X-1.478Y0.27
X-1.427Y0.291
X-1.407Y-0.625
X-1.393Y-0.043
X-1.381Y-0.013
X-1.375Y-0.627
X-1.367Y0.219
X-1.339Y-0.725
X-1.319Y0.219
X-1.302Y-0.601
X-1.291Y0.661
X-1.238Y0.662
X-1.217Y0.421
X-1.217Y0.397
X-1.217Y0.373
X-1.1702Y0.587
X-1.167Y0.396
X-1.112Y-0.107
X-1.0835Y-0.107
X-1.044Y-0.606
X-1.0132Y-0.6205
X-1.013Y-0.073
X-0.999Y0.371
X-0.999Y0.325
X-0.999Y0.1642
X-0.9951Y-0.5418
X-0.9769Y-0.3882
X-0.971Y0.111
X-0.957Y-0.3623
X-0.947Y0.111
X-0.923Y0.111
X-0.903Y-0.411
X-0.877Y-0.339
X-0.842Y-0.2165
X-0.842Y-0.2465
X-0.842Y-0.2765
X-0.841Y0.415
X-0.835Y0.447
X-0.829Y0.341
X-0.823Y0.017
X-0.803Y0.577
X-0.791Y-0.687
X-0.7817Y-0.3623
X-0.781Y-0.183
X-0.765Y-0.061
X-0.753Y0.577
X-0.742Y-0.484
X-0.71Y-0.109
X-0.708Y-0.36
X-0.674Y-0.143
X-0.626Y-0.656
X-0.595Y-0.66
X-0.559Y-0.133
X-0.5551Y-0.4221
X-0.54Y-0.66
X-0.539Y0.367
X-0.539Y0.315
X-0.519Y0.166
X-0.519Y0.141
X-0.519Y0.116
X-0.519Y0.091
X-0.519Y-0.061
X-0.519Y-0.1833
X-0.4895Y0.2535
X-0.487Y-0.184
X-0.487Y-0.3015
X-0.4825Y-0.715
X-0.467Y-0.109
X-0.4395Y-0.1815
X-0.4Y-0.2225
X-0.3645Y0.061
X-0.347Y0.0785
X-0.3445Y0.041
X-0.327Y0.0585
X-0.2925Y-0.075
X-0.259Y0.0485
X-0.239Y0.085
X-0.213Y0.0345
X-0.181Y0.127
X-0.1695Y-0.382
X-0.163Y0.151
X-0.16Y-0.6725
X-0.1437Y0.0393
X-0.131Y0.175
X-0.1265Y-0.502
X-0.126Y-0.4625
X-0.119Y0.0465
X-0.095Y0.175
X-0.085Y-0.625
X-0.083Y-0.54
X-0.072Y0.496
X-0.057Y0.019
X-0.052Y-0.063
X-0.047Y0.471
X-0.027Y0.451
X-0.017Y0.306
X-0.002Y0.426
X0.001Y0.285
X0.0062Y-0.2334
X0.0083Y-0.2046
X0.035Y-0.555
X0.0351Y-0.1635
X0.0351Y-0.202
X0.055Y-0.587
X0.075Y0.457
X0.097Y-0.143
X0.1212Y-0.181
X0.129Y-0.102
X0.137Y0.179
X0.139Y-0.078
X0.177Y0.245
X0.1783Y-0.0583
X0.1925Y0.487
X0.211Y-0.289
X0.235Y-0.267
X0.283Y-0.009
X0.293Y0.375
X0.293Y0.311
X0.293Y0.271
X0.293Y0.21
X0.331Y-0.047
X0.343Y0.616
X0.343Y0.576
X0.371Y-0.159
X0.3973Y0.2998
X0.399Y-0.187
X0.405Y0.327
X0.4575Y-0.0485
X0.5407Y-0.1786
X0.553Y0.431
X0.563Y-0.289
X0.5685Y-0.0245
X0.593Y0.431
X0.594Y-0.0495
X0.613Y-0.269
X0.633Y0.431
X0.6725Y-0.0018
X0.761Y0.21
X0.793Y0.453
X0.805Y-0.045
X0.827Y0.177
X0.845Y-0.6025
X0.8596Y0.1438
X0.885Y-0.603
X0.911Y-0.523
X0.991Y0.243
X1.0125Y-0.17
X1.191Y0.163
X1.219Y-0.535
X1.241Y-0.605
X1.295Y0.21
X1.295Y-0.133
X1.33Y0.052
X1.345Y-0.392
X1.373Y-0.623
X1.388Y0.587
X1.3926Y-0.1626
X1.3926Y-0.236
X1.411Y0.029
X1.465Y-0.527
X1.465Y-0.577
T2
X-1.8871Y0.428
X-1.8871Y0.237
T3
X-1.9393Y0.4427
X-1.9393Y0.2222
T4
X1.885Y-0.346
T5
X-1.9915Y0.4752G85X-1.9915Y0.4752
G05
X-1.9915Y0.1898G85X-1.9915Y0.1898
G05
T6
X-2.022Y0.3325G85X-2.022Y0.3325
G05
T0
M30
