G04 #@! TF.FileFunction,Paste,Top*
%FSLAX46Y46*%
G04 Gerber Fmt 4.6, Leading zero omitted, Abs format (unit mm)*
G04 Created by KiCad (PCBNEW 4.0.7-e2-6376~58~ubuntu16.04.1) date Tue Nov 28 16:58:52 2017*
%MOMM*%
%LPD*%
G01*
G04 APERTURE LIST*
%ADD10C,0.100000*%
%ADD11R,0.900000X0.990000*%
%ADD12R,0.585000X1.404000*%
%ADD13R,0.360000X1.215000*%
%ADD14C,1.080000*%
%ADD15C,1.530000*%
%ADD16R,1.080000X0.720000*%
%ADD17R,1.980000X0.720000*%
%ADD18R,2.250000X1.800000*%
%ADD19R,0.540000X1.800000*%
%ADD20R,0.900000X0.630000*%
%ADD21R,0.540000X0.630000*%
%ADD22R,0.900000X1.350000*%
%ADD23R,0.450000X0.360000*%
%ADD24R,0.990000X1.440000*%
%ADD25R,0.225000X0.360000*%
%ADD26R,0.900000X3.150000*%
%ADD27R,1.350000X3.060000*%
%ADD28R,0.585000X0.945000*%
%ADD29R,0.435000X0.435000*%
%ADD30R,0.202000X0.715000*%
%ADD31R,0.715000X0.202000*%
%ADD32R,0.715000X0.220000*%
%ADD33R,0.990000X0.900000*%
%ADD34R,1.143000X3.780000*%
%ADD35R,0.630000X1.305000*%
%ADD36R,0.675000X0.270000*%
%ADD37R,0.525000X0.435000*%
%ADD38R,1.890000X0.675000*%
G04 APERTURE END LIST*
D10*
D11*
X15621000Y12407000D03*
X15621000Y10707000D03*
D12*
X17378284Y10141534D03*
X18328284Y10141534D03*
X19278284Y10141534D03*
X19278284Y12841534D03*
X17378284Y12841534D03*
D13*
X16538000Y-23104400D03*
X17188000Y-23104400D03*
X17838000Y-23104400D03*
X18488000Y-23104400D03*
X19138000Y-23104400D03*
D14*
X15413000Y-23029400D03*
X20263000Y-23029400D03*
D15*
X14213000Y-25679400D03*
X21463000Y-25679400D03*
D10*
G36*
X11075422Y40914566D02*
X11234521Y41073665D01*
X12061836Y40246350D01*
X11902737Y40087251D01*
X11075422Y40914566D01*
X11075422Y40914566D01*
G37*
G36*
X10721869Y40561013D02*
X10880968Y40720112D01*
X11708283Y39892797D01*
X11549184Y39733698D01*
X10721869Y40561013D01*
X10721869Y40561013D01*
G37*
G36*
X10368315Y40207459D02*
X10527414Y40366558D01*
X11354729Y39539243D01*
X11195630Y39380144D01*
X10368315Y40207459D01*
X10368315Y40207459D01*
G37*
G36*
X10014762Y39853906D02*
X10173861Y40013005D01*
X11001176Y39185690D01*
X10842077Y39026591D01*
X10014762Y39853906D01*
X10014762Y39853906D01*
G37*
G36*
X9661209Y39500353D02*
X9820308Y39659452D01*
X10647623Y38832137D01*
X10488524Y38673038D01*
X9661209Y39500353D01*
X9661209Y39500353D01*
G37*
G36*
X9307655Y39146799D02*
X9466754Y39305898D01*
X10294069Y38478583D01*
X10134970Y38319484D01*
X9307655Y39146799D01*
X9307655Y39146799D01*
G37*
G36*
X8954102Y38793246D02*
X9113201Y38952345D01*
X9940516Y38125030D01*
X9781417Y37965931D01*
X8954102Y38793246D01*
X8954102Y38793246D01*
G37*
G36*
X8600548Y38439692D02*
X8759647Y38598791D01*
X9586962Y37771476D01*
X9427863Y37612377D01*
X8600548Y38439692D01*
X8600548Y38439692D01*
G37*
G36*
X8246995Y38086139D02*
X8406094Y38245238D01*
X9233409Y37417923D01*
X9074310Y37258824D01*
X8246995Y38086139D01*
X8246995Y38086139D01*
G37*
G36*
X7893442Y37732586D02*
X8052541Y37891685D01*
X8879856Y37064370D01*
X8720757Y36905271D01*
X7893442Y37732586D01*
X7893442Y37732586D01*
G37*
G36*
X7539888Y37379032D02*
X7698987Y37538131D01*
X8526302Y36710816D01*
X8367203Y36551717D01*
X7539888Y37379032D01*
X7539888Y37379032D01*
G37*
G36*
X7186335Y37025479D02*
X7345434Y37184578D01*
X8172749Y36357263D01*
X8013650Y36198164D01*
X7186335Y37025479D01*
X7186335Y37025479D01*
G37*
G36*
X7345434Y33935422D02*
X7186335Y34094521D01*
X8013650Y34921836D01*
X8172749Y34762737D01*
X7345434Y33935422D01*
X7345434Y33935422D01*
G37*
G36*
X7698987Y33581869D02*
X7539888Y33740968D01*
X8367203Y34568283D01*
X8526302Y34409184D01*
X7698987Y33581869D01*
X7698987Y33581869D01*
G37*
G36*
X8052541Y33228315D02*
X7893442Y33387414D01*
X8720757Y34214729D01*
X8879856Y34055630D01*
X8052541Y33228315D01*
X8052541Y33228315D01*
G37*
G36*
X8406094Y32874762D02*
X8246995Y33033861D01*
X9074310Y33861176D01*
X9233409Y33702077D01*
X8406094Y32874762D01*
X8406094Y32874762D01*
G37*
G36*
X8759647Y32521209D02*
X8600548Y32680308D01*
X9427863Y33507623D01*
X9586962Y33348524D01*
X8759647Y32521209D01*
X8759647Y32521209D01*
G37*
G36*
X9113201Y32167655D02*
X8954102Y32326754D01*
X9781417Y33154069D01*
X9940516Y32994970D01*
X9113201Y32167655D01*
X9113201Y32167655D01*
G37*
G36*
X9466754Y31814102D02*
X9307655Y31973201D01*
X10134970Y32800516D01*
X10294069Y32641417D01*
X9466754Y31814102D01*
X9466754Y31814102D01*
G37*
G36*
X9820308Y31460548D02*
X9661209Y31619647D01*
X10488524Y32446962D01*
X10647623Y32287863D01*
X9820308Y31460548D01*
X9820308Y31460548D01*
G37*
G36*
X10173861Y31106995D02*
X10014762Y31266094D01*
X10842077Y32093409D01*
X11001176Y31934310D01*
X10173861Y31106995D01*
X10173861Y31106995D01*
G37*
G36*
X10527414Y30753442D02*
X10368315Y30912541D01*
X11195630Y31739856D01*
X11354729Y31580757D01*
X10527414Y30753442D01*
X10527414Y30753442D01*
G37*
G36*
X10880968Y30399888D02*
X10721869Y30558987D01*
X11549184Y31386302D01*
X11708283Y31227203D01*
X10880968Y30399888D01*
X10880968Y30399888D01*
G37*
G36*
X11234521Y30046335D02*
X11075422Y30205434D01*
X11902737Y31032749D01*
X12061836Y30873650D01*
X11234521Y30046335D01*
X11234521Y30046335D01*
G37*
G36*
X13338164Y30873650D02*
X13497263Y31032749D01*
X14324578Y30205434D01*
X14165479Y30046335D01*
X13338164Y30873650D01*
X13338164Y30873650D01*
G37*
G36*
X13691717Y31227203D02*
X13850816Y31386302D01*
X14678131Y30558987D01*
X14519032Y30399888D01*
X13691717Y31227203D01*
X13691717Y31227203D01*
G37*
G36*
X14045271Y31580757D02*
X14204370Y31739856D01*
X15031685Y30912541D01*
X14872586Y30753442D01*
X14045271Y31580757D01*
X14045271Y31580757D01*
G37*
G36*
X14398824Y31934310D02*
X14557923Y32093409D01*
X15385238Y31266094D01*
X15226139Y31106995D01*
X14398824Y31934310D01*
X14398824Y31934310D01*
G37*
G36*
X14752377Y32287863D02*
X14911476Y32446962D01*
X15738791Y31619647D01*
X15579692Y31460548D01*
X14752377Y32287863D01*
X14752377Y32287863D01*
G37*
G36*
X15105931Y32641417D02*
X15265030Y32800516D01*
X16092345Y31973201D01*
X15933246Y31814102D01*
X15105931Y32641417D01*
X15105931Y32641417D01*
G37*
G36*
X15459484Y32994970D02*
X15618583Y33154069D01*
X16445898Y32326754D01*
X16286799Y32167655D01*
X15459484Y32994970D01*
X15459484Y32994970D01*
G37*
G36*
X15813038Y33348524D02*
X15972137Y33507623D01*
X16799452Y32680308D01*
X16640353Y32521209D01*
X15813038Y33348524D01*
X15813038Y33348524D01*
G37*
G36*
X16166591Y33702077D02*
X16325690Y33861176D01*
X17153005Y33033861D01*
X16993906Y32874762D01*
X16166591Y33702077D01*
X16166591Y33702077D01*
G37*
G36*
X16520144Y34055630D02*
X16679243Y34214729D01*
X17506558Y33387414D01*
X17347459Y33228315D01*
X16520144Y34055630D01*
X16520144Y34055630D01*
G37*
G36*
X16873698Y34409184D02*
X17032797Y34568283D01*
X17860112Y33740968D01*
X17701013Y33581869D01*
X16873698Y34409184D01*
X16873698Y34409184D01*
G37*
G36*
X17227251Y34762737D02*
X17386350Y34921836D01*
X18213665Y34094521D01*
X18054566Y33935422D01*
X17227251Y34762737D01*
X17227251Y34762737D01*
G37*
G36*
X17386350Y36198164D02*
X17227251Y36357263D01*
X18054566Y37184578D01*
X18213665Y37025479D01*
X17386350Y36198164D01*
X17386350Y36198164D01*
G37*
G36*
X17032797Y36551717D02*
X16873698Y36710816D01*
X17701013Y37538131D01*
X17860112Y37379032D01*
X17032797Y36551717D01*
X17032797Y36551717D01*
G37*
G36*
X16679243Y36905271D02*
X16520144Y37064370D01*
X17347459Y37891685D01*
X17506558Y37732586D01*
X16679243Y36905271D01*
X16679243Y36905271D01*
G37*
G36*
X16325690Y37258824D02*
X16166591Y37417923D01*
X16993906Y38245238D01*
X17153005Y38086139D01*
X16325690Y37258824D01*
X16325690Y37258824D01*
G37*
G36*
X15972137Y37612377D02*
X15813038Y37771476D01*
X16640353Y38598791D01*
X16799452Y38439692D01*
X15972137Y37612377D01*
X15972137Y37612377D01*
G37*
G36*
X15618583Y37965931D02*
X15459484Y38125030D01*
X16286799Y38952345D01*
X16445898Y38793246D01*
X15618583Y37965931D01*
X15618583Y37965931D01*
G37*
G36*
X15265030Y38319484D02*
X15105931Y38478583D01*
X15933246Y39305898D01*
X16092345Y39146799D01*
X15265030Y38319484D01*
X15265030Y38319484D01*
G37*
G36*
X14911476Y38673038D02*
X14752377Y38832137D01*
X15579692Y39659452D01*
X15738791Y39500353D01*
X14911476Y38673038D01*
X14911476Y38673038D01*
G37*
G36*
X14557923Y39026591D02*
X14398824Y39185690D01*
X15226139Y40013005D01*
X15385238Y39853906D01*
X14557923Y39026591D01*
X14557923Y39026591D01*
G37*
G36*
X14204370Y39380144D02*
X14045271Y39539243D01*
X14872586Y40366558D01*
X15031685Y40207459D01*
X14204370Y39380144D01*
X14204370Y39380144D01*
G37*
G36*
X13850816Y39733698D02*
X13691717Y39892797D01*
X14519032Y40720112D01*
X14678131Y40561013D01*
X13850816Y39733698D01*
X13850816Y39733698D01*
G37*
G36*
X13497263Y40087251D02*
X13338164Y40246350D01*
X14165479Y41073665D01*
X14324578Y40914566D01*
X13497263Y40087251D01*
X13497263Y40087251D01*
G37*
D16*
X19558000Y-7317000D03*
D17*
X19058000Y-5817000D03*
D16*
X19558000Y-4317000D03*
D18*
X16708000Y-5817000D03*
D19*
X7797800Y19339600D03*
X6527800Y19339600D03*
X5257800Y19339600D03*
X3987800Y19339600D03*
X3987800Y24739600D03*
X5257800Y24739600D03*
X6527800Y24739600D03*
X7797800Y24739600D03*
D10*
G36*
X10099523Y44063325D02*
X11308675Y45272477D01*
X12008711Y44572441D01*
X10799559Y43363289D01*
X10099523Y44063325D01*
X10099523Y44063325D01*
G37*
G36*
X11867289Y42295559D02*
X13076441Y43504711D01*
X13776477Y42804675D01*
X12567325Y41595523D01*
X11867289Y42295559D01*
X11867289Y42295559D01*
G37*
D20*
X21068600Y-20532600D03*
D21*
X22768600Y-20532600D03*
X22768600Y-18532600D03*
X20868600Y-18532600D03*
D22*
X13860600Y-19532600D03*
X16060600Y-19532600D03*
D11*
X20001314Y19302454D03*
X20001314Y21002454D03*
D23*
X4026000Y-8493000D03*
X4026000Y-9793000D03*
D24*
X5076000Y-9143000D03*
D25*
X5751000Y-9143000D03*
D26*
X6922000Y-19977000D03*
X8922000Y-19977000D03*
D27*
X4572000Y-25527000D03*
X11272000Y-25527000D03*
D11*
X7010400Y-6515000D03*
X7010400Y-8215000D03*
D28*
X18227000Y15251400D03*
X20127000Y15251400D03*
X19177000Y17551400D03*
D29*
X10414000Y-11066000D03*
X9664000Y-11066000D03*
X9664000Y-11816000D03*
X10414000Y-11816000D03*
D30*
X9289000Y-12916000D03*
X9789000Y-12916000D03*
X10289000Y-12916000D03*
X10789000Y-12916000D03*
D31*
X11514000Y-12191000D03*
X11514000Y-11691000D03*
D32*
X11514000Y-11191000D03*
D31*
X11514000Y-10691000D03*
D30*
X10789000Y-9966000D03*
X10289000Y-9966000D03*
X9789000Y-9966000D03*
X9289000Y-9966000D03*
D31*
X8564000Y-10691000D03*
X8564000Y-11191000D03*
X8564000Y-11691000D03*
D32*
X8564000Y-12191000D03*
D33*
X1898719Y69971009D03*
X198719Y69971009D03*
D34*
X21250400Y77000000D03*
X16250400Y77000000D03*
D33*
X19597000Y6096000D03*
X21297000Y6096000D03*
X19597000Y7747000D03*
X21297000Y7747000D03*
X23393226Y-17018000D03*
X21693226Y-17018000D03*
X18136500Y-15367000D03*
X19836500Y-15367000D03*
D35*
X24219000Y58754000D03*
X24219000Y53594000D03*
X26219000Y53594000D03*
X26219000Y58754000D03*
D11*
X14835422Y17251524D03*
X14835422Y15551524D03*
X14850204Y21007330D03*
X14850204Y19307330D03*
X16613422Y17251524D03*
X16613422Y15551524D03*
X16628204Y21007330D03*
X16628204Y19307330D03*
X12936998Y15480400D03*
X12936998Y13780400D03*
X11201400Y15470050D03*
X11201400Y13770050D03*
D33*
X1866000Y57667600D03*
X166000Y57667600D03*
X1866000Y61725200D03*
X166000Y61725200D03*
X1866000Y65786000D03*
X166000Y65786000D03*
D28*
X5572800Y58189600D03*
X3672800Y58189600D03*
X4622800Y55889600D03*
X5572800Y62298000D03*
X3672800Y62298000D03*
X4622800Y59998000D03*
X5572800Y66383600D03*
X3672800Y66383600D03*
X4622800Y64083600D03*
D33*
X166000Y55886400D03*
X1866000Y55886400D03*
X166000Y59998000D03*
X1866000Y59998000D03*
X166000Y64065200D03*
X1866000Y64065200D03*
D36*
X21671726Y-13659264D03*
X21671726Y-14159264D03*
X21671726Y-14659264D03*
X21671726Y-15159264D03*
X24571726Y-15159264D03*
X24571726Y-14659264D03*
X24571726Y-14159264D03*
X24571726Y-13659264D03*
D37*
X23559226Y-14771764D03*
X23559226Y-14046764D03*
X22684226Y-14771764D03*
X22684226Y-14046764D03*
D34*
X9358000Y77012800D03*
X4358000Y77012800D03*
D38*
X16847000Y53644800D03*
X20447000Y53644800D03*
X16847000Y54914800D03*
X20447000Y54914800D03*
X16847000Y56184800D03*
X20447000Y56184800D03*
X16847000Y57454800D03*
X20447000Y57454800D03*
X16847000Y58724800D03*
X20447000Y58724800D03*
D33*
X16930000Y51435000D03*
X18630000Y51435000D03*
X16930000Y49784000D03*
X18630000Y49784000D03*
D11*
X9804400Y21209000D03*
X9804400Y22909000D03*
D10*
G36*
X13461257Y45645939D02*
X12824861Y45009543D01*
X12124825Y45709579D01*
X12761221Y46345975D01*
X13461257Y45645939D01*
X13461257Y45645939D01*
G37*
G36*
X12259175Y46848021D02*
X11622779Y46211625D01*
X10922743Y46911661D01*
X11559139Y47548057D01*
X12259175Y46848021D01*
X12259175Y46848021D01*
G37*
G36*
X13462743Y44371661D02*
X14099139Y45008057D01*
X14799175Y44308021D01*
X14162779Y43671625D01*
X13462743Y44371661D01*
X13462743Y44371661D01*
G37*
G36*
X14664825Y43169579D02*
X15301221Y43805975D01*
X16001257Y43105939D01*
X15364861Y42469543D01*
X14664825Y43169579D01*
X14664825Y43169579D01*
G37*
D11*
X19202400Y46140000D03*
X19202400Y47840000D03*
X17526000Y46140000D03*
X17526000Y47840000D03*
X18034000Y41314000D03*
X18034000Y43014000D03*
X19710400Y41314000D03*
X19710400Y43014000D03*
X5765800Y40653600D03*
X5765800Y42353600D03*
X9144000Y41161600D03*
X9144000Y42861600D03*
X7442200Y41161600D03*
X7442200Y42861600D03*
X18324914Y21002454D03*
X18324914Y19302454D03*
D33*
X4382400Y-11429000D03*
X6082400Y-11429000D03*
X6082400Y-16305800D03*
X4382400Y-16305800D03*
X4382400Y-13054600D03*
X6082400Y-13054600D03*
X4382400Y-14680200D03*
X6082400Y-14680200D03*
D11*
X12242800Y-14693800D03*
X12242800Y-16393800D03*
D33*
X8751200Y-16458200D03*
X10451200Y-16458200D03*
D11*
X13868400Y-14693800D03*
X13868400Y-16393800D03*
X12039600Y-8215000D03*
X12039600Y-6515000D03*
X10363200Y-8215000D03*
X10363200Y-6515000D03*
X8686800Y-6515000D03*
X8686800Y-8215000D03*
D33*
X23664083Y-23832491D03*
X25364083Y-23832491D03*
D11*
X20218400Y34124000D03*
X20218400Y32424000D03*
X4470400Y32142800D03*
X4470400Y30442800D03*
D33*
X21373200Y37642800D03*
X19673200Y37642800D03*
X21373200Y35966400D03*
X19673200Y35966400D03*
X10375000Y-4190000D03*
X8675000Y-4190000D03*
X14440800Y-11581400D03*
X16140800Y-11581400D03*
X14440800Y-9955800D03*
X16140800Y-9955800D03*
X19835600Y-11581400D03*
X18135600Y-11581400D03*
X19835600Y-9955800D03*
X18135600Y-9955800D03*
X19837226Y-13716000D03*
X18137226Y-13716000D03*
D11*
X4140200Y40653600D03*
X4140200Y42353600D03*
D33*
X23664083Y-22105291D03*
X25364083Y-22105291D03*
X18137226Y-17018000D03*
X19837226Y-17018000D03*
X1885119Y68345409D03*
X185119Y68345409D03*
M02*
