G04 #@! TF.FileFunction,Paste,Bot*
%FSLAX46Y46*%
G04 Gerber Fmt 4.6, Leading zero omitted, Abs format (unit mm)*
G04 Created by KiCad (PCBNEW 4.0.7-e2-6376~58~ubuntu16.04.1) date Tue Nov 28 14:50:33 2017*
%MOMM*%
%LPD*%
G01*
G04 APERTURE LIST*
%ADD10C,0.100000*%
%ADD11R,0.360000X1.710000*%
%ADD12R,1.710000X0.360000*%
%ADD13R,1.348740X0.628650*%
%ADD14R,1.259586X1.618488*%
%ADD15R,1.709928X1.259586*%
%ADD16R,1.170000X1.800000*%
%ADD17R,1.143000X3.780000*%
%ADD18R,1.799082X0.900684*%
G04 APERTURE END LIST*
D10*
D11*
X9269730Y21528900D03*
X10285730Y21528900D03*
X11301731Y21528900D03*
X12317731Y21528900D03*
X13333730Y21528900D03*
X14349730Y21528900D03*
X15365730Y21528900D03*
X16381730Y21528900D03*
X6221730Y21528900D03*
D12*
X19052130Y15809450D03*
X19052130Y16825450D03*
X19052130Y17841450D03*
X19052130Y18857450D03*
X19052130Y11745450D03*
X19052130Y9713447D03*
X19052130Y8697450D03*
X19052130Y7681450D03*
X19052130Y6665450D03*
X4321860Y17849670D03*
X4321860Y16833670D03*
X4321860Y15817670D03*
X4321860Y14801670D03*
X4321860Y13785670D03*
X4321860Y12769670D03*
X4321860Y11753670D03*
X4321860Y10737666D03*
X4321860Y9721666D03*
X4321860Y8705670D03*
D13*
X22098000Y-16129000D03*
X21699220Y-15029180D03*
X22098000Y-13929360D03*
X22499320Y-12829540D03*
X22098000Y-11729720D03*
X22499320Y-10627360D03*
X22098000Y-9527540D03*
X22098000Y-8427720D03*
D14*
X11899900Y-9128760D03*
X11899900Y-15128240D03*
D15*
X24998680Y-7528560D03*
X25900380Y-20728940D03*
D16*
X19700000Y31370000D03*
X17700000Y31370000D03*
X15700000Y31370000D03*
X13700000Y31370000D03*
X11700000Y31370000D03*
X9700000Y31370000D03*
X7700000Y31370000D03*
X5700000Y31370000D03*
X5700000Y47370000D03*
X7700000Y47370000D03*
X9700000Y47370000D03*
X11700000Y47370000D03*
X13700000Y47370000D03*
X15700000Y47370000D03*
X17700000Y47370000D03*
X19700000Y47370000D03*
D17*
X18750400Y77000000D03*
X16250400Y77000000D03*
X21250400Y77000000D03*
D18*
X8382000Y59654440D03*
X8382000Y61153040D03*
X8382000Y62654180D03*
X8382000Y64152780D03*
X8382000Y65653920D03*
X8382000Y67152520D03*
X8382000Y68653660D03*
X8382000Y70152260D03*
X8382000Y71653400D03*
X8382000Y73152000D03*
X24384000Y73152000D03*
X24384000Y71653400D03*
X24384000Y70152260D03*
X24384000Y68653660D03*
X24384000Y67152520D03*
X24384000Y65653920D03*
X24384000Y64152780D03*
X24384000Y62654180D03*
X24384000Y61153040D03*
X24384000Y59654440D03*
D17*
X6858000Y77012800D03*
X4358000Y77012800D03*
X9358000Y77012800D03*
M02*
