M48
;DRILL file {KiCad 4.0.7-e2-6376~58~ubuntu16.04.1} date Wed Jan 10 12:03:22 2018
;FORMAT={-:-/ absolute / inch / decimal}
FMAT,2
INCH,TZ
T1C0.012
T2C0.028
T3C0.039
T4C0.043
%
G90
G05
M72
T1
X3.83Y-3.63
X3.83Y-3.94
X3.83Y-4.1
X3.93Y-3.63
X3.939Y-3.94
X3.94Y-4.1
X4.05Y-3.49
X4.11Y-3.49
X4.12Y-4.12
X4.15Y-4.09
X4.18Y-4.12
X4.19Y-3.63
X4.274Y-3.91
X4.31Y-3.63
X4.33Y-4.25
X4.35Y-4.47
X4.37Y-3.49
X4.388Y-4.134
X4.41Y-4.35
X4.507Y-4.1354
X4.55Y-4.47
X4.606Y-3.504
X4.61Y-4.35
X4.75Y-4.47
X4.806Y-3.9773
X4.81Y-4.35
X4.836Y-3.8793
X4.872Y-3.904
X4.9546Y-3.9268
X5.116Y-3.892
X5.1286Y-4.1598
X5.1286Y-4.2298
X5.17Y-3.73
X5.17Y-3.78
X5.17Y-3.83
X5.2266Y-4.4018
X5.2272Y-4.1618
X5.2272Y-4.2288
X5.2596Y-4.2849
X5.262Y-3.596
X5.2646Y-4.4018
X5.2746Y-3.9718
X5.2946Y-4.0018
X5.3146Y-3.8118
X5.34Y-4.526
X5.36Y-4.258
X5.38Y-4.308
X5.4166Y-3.9878
X5.4286Y-3.9378
X5.4444Y-4.342
X5.4446Y-3.9818
X5.4446Y-4.0318
X5.4627Y-4.3691
X5.536Y-3.898
X5.54Y-4.492
X5.5746Y-4.1318
X5.5746Y-4.2618
X5.5746Y-4.2918
X5.5746Y-4.3218
X5.5746Y-4.3518
X5.5846Y-4.0318
X5.602Y-4.352
X5.6146Y-4.0318
X5.6206Y-3.6858
X5.69Y-4.39
X5.7186Y-3.6858
X5.73Y-4.39
X5.744Y-4.236
X5.754Y-4.158
X5.7546Y-4.1318
X5.766Y-4.214
X5.81Y-3.73
X5.8231Y-4.19
X5.8246Y-4.0118
X5.832Y-4.352
X5.838Y-4.244
X5.842Y-3.8072
X5.858Y-3.936
X5.862Y-3.828
X5.8646Y-3.8918
X5.878Y-3.868
X5.938Y-4.492
X5.9875Y-4.276
X5.998Y-3.688
X5.998Y-4.078
X6.0364Y-3.6848
X6.13Y-4.006
X6.18Y-4.456
X6.206Y-4.492
X6.216Y-4.432
X6.2516Y-4.2898
X6.27Y-3.948
X6.29Y-4.29
X6.292Y-3.8885
X6.326Y-3.744
X6.346Y-4.266
X6.362Y-3.738
X6.3651Y-3.7644
X6.37Y-4.29
X6.372Y-4.24
X6.394Y-3.986
X6.446Y-4.492
X6.4545Y-3.986
X6.4635Y-3.6955
X6.474Y-4.41
X6.486Y-3.77
X6.492Y-4.284
X6.5002Y-3.6882
X6.522Y-4.056
X6.556Y-3.8312
X6.564Y-4.282
X6.652Y-4.228
X6.682Y-4.138
X6.682Y-4.192
X6.76Y-4.0429
X6.816Y-4.074
X6.816Y-4.1714
X6.8495Y-4.074
X6.8495Y-4.1714
X6.89Y-4.228
X6.902Y-4.048
X6.948Y-4.048
X6.98Y-3.566
X6.9992Y-3.5489
X7.028Y-3.528
X7.03Y-4.35
X7.03Y-4.416
X7.052Y-3.508
X7.0746Y-3.9518
X7.0746Y-3.9818
X7.0746Y-4.0318
X7.0746Y-4.0618
X7.078Y-3.49
X7.112Y-3.628
X7.12Y-3.676
X7.136Y-3.562
X7.142Y-3.7
X7.1646Y-3.9418
X7.1646Y-3.9718
X7.166Y-3.562
X7.1946Y-3.9418
X7.1946Y-3.9718
X7.2246Y-3.9418
X7.2246Y-3.9718
X7.2246Y-4.0018
X7.2546Y-3.9418
X7.2546Y-3.9718
X7.2546Y-4.0018
X7.3296Y-4.0068
X7.3346Y-3.6868
X7.3466Y-4.1078
X7.3466Y-4.1448
X7.3646Y-4.1163
X7.3651Y-4.1368
X7.3766Y-4.0118
X7.3836Y-4.1083
X7.3836Y-4.1448
X7.4046Y-4.0118
X7.4096Y-3.6868
X7.412Y-3.5617
X7.4146Y-3.9518
X7.4346Y-3.9718
X7.4346Y-4.0018
X7.4346Y-4.0318
X7.4346Y-4.0618
X7.441Y-3.461
X7.4766Y-4.1048
X7.5096Y-4.1048
X7.512Y-3.512
X7.5196Y-3.8518
X7.5396Y-3.5868
X7.5496Y-3.5518
X7.6096Y-4.1418
X7.7616Y-3.7808
X7.7996Y-3.4768
X7.8396Y-3.4768
T2
X7.8213Y-3.7241
X7.8213Y-3.915
T3
X4.0501Y-4.4823
X5.412Y-3.5215
X5.512Y-3.5215
X5.612Y-3.5215
X5.712Y-3.5215
X5.812Y-3.5215
X5.912Y-3.5215
X6.012Y-3.5215
X7.1146Y-4.4718
X7.2146Y-4.4718
X7.3146Y-4.4718
X7.4146Y-4.4718
X7.5146Y-4.4718
X7.6146Y-4.4718
T4
X7.9256Y-3.6768G85X7.9256Y-3.6768
G05
X7.9256Y-3.9623G85X7.9256Y-3.9623
G05
T0
M30
