M48
;DRILL file {KiCad 4.0.7-e2-6376~58~ubuntu16.04.1} date Tue Jul 10 13:57:31 2018
;FORMAT={-:-/ absolute / inch / decimal}
FMAT,2
INCH,TZ
T1C0.012
T2C0.028
T3C0.030
T4C0.039
T5C0.043
%
G90
G05
M72
T1
X3.1425Y-5.515
X3.1425Y-5.54
X3.152Y-4.698
X3.152Y-4.73
X3.182Y-4.418
X3.182Y-4.442
X3.206Y-5.516
X3.206Y-5.54
X3.272Y-4.492
X3.2927Y-5.2003
X3.317Y-5.612
X3.34Y-4.356
X3.34Y-4.388
X3.4Y-5.075
X3.4Y-5.075
X3.404Y-4.766
X3.4633Y-4.741
X3.489Y-4.741
X3.54Y-4.72
X3.56Y-5.636
X3.574Y-5.054
X3.586Y-5.024
X3.592Y-5.638
X3.6Y-4.792
X3.628Y-5.736
X3.648Y-4.792
X3.665Y-5.612
X3.676Y-4.35
X3.729Y-4.349
X3.75Y-4.59
X3.75Y-4.614
X3.75Y-4.638
X3.7968Y-4.424
X3.8Y-4.615
X3.855Y-5.118
X3.8835Y-5.118
X3.923Y-5.617
X3.9538Y-5.6315
X3.954Y-5.084
X3.968Y-4.64
X3.968Y-4.686
X3.968Y-4.8468
X3.9719Y-5.5528
X3.9901Y-5.3992
X3.996Y-4.9
X4.01Y-5.3733
X4.02Y-4.9
X4.044Y-4.9
X4.064Y-5.422
X4.09Y-5.35
X4.125Y-5.2275
X4.125Y-5.2575
X4.125Y-5.2875
X4.126Y-4.596
X4.132Y-4.564
X4.138Y-4.67
X4.144Y-4.994
X4.164Y-4.434
X4.176Y-5.698
X4.1853Y-5.3733
X4.186Y-5.194
X4.202Y-5.072
X4.214Y-4.434
X4.225Y-5.495
X4.257Y-5.12
X4.259Y-5.371
X4.293Y-5.154
X4.341Y-5.667
X4.408Y-5.144
X4.4119Y-5.4331
X4.428Y-4.644
X4.428Y-4.696
X4.448Y-4.845
X4.448Y-4.87
X4.448Y-4.895
X4.448Y-4.92
X4.448Y-5.072
X4.448Y-5.1943
X4.4685Y-5.692
X4.4775Y-4.7575
X4.48Y-5.195
X4.48Y-5.3125
X4.5Y-5.12
X4.5275Y-5.1925
X4.55Y-5.2275
X4.6025Y-4.95
X4.62Y-4.9325
X4.6225Y-4.97
X4.64Y-4.9525
X4.648Y-5.072
X4.666Y-5.393
X4.708Y-4.9625
X4.708Y-5.474
X4.708Y-5.518
X4.728Y-4.926
X4.754Y-4.9765
X4.783Y-5.7255
X4.786Y-4.884
X4.8Y-5.6365
X4.804Y-4.86
X4.8075Y-5.7255
X4.8233Y-4.9717
X4.8267Y-5.6473
X4.836Y-4.836
X4.848Y-4.9645
X4.872Y-4.836
X4.884Y-5.551
X4.895Y-4.515
X4.91Y-4.992
X4.915Y-5.074
X4.92Y-4.54
X4.94Y-4.56
X4.95Y-4.705
X4.965Y-4.585
X4.968Y-4.726
X4.9732Y-5.2444
X4.9753Y-5.2156
X5.002Y-5.566
X5.0021Y-5.1745
X5.0021Y-5.213
X5.022Y-5.598
X5.042Y-4.554
X5.064Y-5.154
X5.0882Y-5.192
X5.096Y-5.113
X5.104Y-4.832
X5.106Y-5.089
X5.144Y-4.766
X5.1453Y-5.0693
X5.1595Y-4.524
X5.178Y-5.3
X5.202Y-5.278
X5.25Y-5.02
X5.26Y-4.636
X5.26Y-4.7
X5.26Y-4.74
X5.26Y-4.801
X5.298Y-5.058
X5.31Y-4.395
X5.31Y-4.435
X5.338Y-5.17
X5.3643Y-4.7112
X5.366Y-5.198
X5.372Y-4.684
X5.4245Y-5.0595
X5.52Y-4.58
X5.53Y-5.3
X5.56Y-4.58
X5.58Y-5.28
X5.6Y-4.58
X5.728Y-4.801
X5.748Y-4.424
X5.76Y-4.558
X5.772Y-5.056
X5.794Y-4.834
X5.8266Y-4.8672
X5.852Y-5.614
X5.878Y-5.534
X5.949Y-4.424
X5.958Y-4.768
X6.15Y-4.424
X6.158Y-4.848
X6.186Y-5.546
X6.208Y-5.616
X6.262Y-4.801
X6.262Y-5.144
X6.297Y-4.959
X6.312Y-5.403
X6.34Y-5.634
X6.355Y-4.424
X6.3596Y-5.1736
X6.3596Y-5.247
X6.378Y-4.982
X6.432Y-5.538
X6.432Y-5.588
T2
X3.2284Y-4.583
X3.2284Y-4.774
T3
X5.363Y-5.68
X5.4329Y-4.4066
X5.447Y-5.68
X5.5169Y-4.4066
T4
X6.852Y-5.357
T5
X3.124Y-4.5358G85X3.124Y-4.5358
G05
X3.124Y-4.8212G85X3.124Y-4.8212
G05
T0
M30
