G04 #@! TF.FileFunction,Copper,L1,Top,Signal*
%FSLAX46Y46*%
G04 Gerber Fmt 4.6, Leading zero omitted, Abs format (unit mm)*
G04 Created by KiCad (PCBNEW 4.0.6) date 04/17/17 12:19:39*
%MOMM*%
%LPD*%
G01*
G04 APERTURE LIST*
%ADD10C,0.100000*%
%ADD11R,0.698500X1.498600*%
%ADD12R,1.798320X1.399540*%
%ADD13R,1.399540X1.899920*%
%ADD14O,1.727200X1.727200*%
%ADD15R,0.800000X0.650000*%
%ADD16R,1.350000X0.400000*%
%ADD17C,1.200000*%
%ADD18O,1.700000X1.300000*%
%ADD19R,1.270000X4.200000*%
%ADD20R,0.800000X1.200000*%
%ADD21R,0.800000X2.200000*%
%ADD22R,2.000000X2.500000*%
%ADD23R,0.600000X2.000000*%
%ADD24R,0.700000X1.000000*%
%ADD25R,0.700000X0.600000*%
%ADD26R,1.500000X1.000000*%
%ADD27R,0.700000X0.900000*%
%ADD28R,0.900000X0.700000*%
%ADD29O,1.050000X1.050000*%
%ADD30R,1.100000X1.000000*%
%ADD31R,0.500000X0.400000*%
%ADD32R,1.100000X1.600000*%
%ADD33R,0.250000X0.400000*%
%ADD34R,3.500000X1.000000*%
%ADD35R,3.400000X1.500000*%
%ADD36R,1.000000X1.100000*%
%ADD37R,1.050000X0.650000*%
%ADD38R,0.750000X0.750000*%
%ADD39R,0.280000X0.850000*%
%ADD40R,0.850000X0.280000*%
%ADD41R,0.850000X0.300000*%
%ADD42R,0.500000X0.300000*%
%ADD43R,1.060000X0.880000*%
%ADD44R,1.700000X1.700000*%
%ADD45O,1.700000X1.700000*%
%ADD46C,1.000000*%
%ADD47R,0.700000X1.450000*%
%ADD48R,0.650000X1.050000*%
%ADD49C,0.500000*%
%ADD50C,0.254000*%
%ADD51C,0.381000*%
%ADD52C,0.203200*%
%ADD53C,0.508000*%
G04 APERTURE END LIST*
D10*
D11*
X14499220Y-23137520D03*
X13399400Y-22738740D03*
X12299580Y-23137520D03*
X11199760Y-23538840D03*
X10099940Y-23137520D03*
X8997580Y-23538840D03*
X7897760Y-23137520D03*
X6797940Y-23137520D03*
D12*
X7498980Y-12939420D03*
X13498460Y-12939420D03*
D13*
X5898780Y-26038200D03*
X19099160Y-26939900D03*
D14*
X24130000Y17780000D03*
X24130000Y20320000D03*
X24130000Y22860000D03*
X24130000Y25400000D03*
X24130000Y50800000D03*
X24130000Y48260000D03*
X24130000Y45720000D03*
X24130000Y43180000D03*
X24130000Y40640000D03*
X24130000Y38100000D03*
X24130000Y35560000D03*
X24130000Y33020000D03*
X24130000Y30480000D03*
X24130000Y27940000D03*
X24130000Y15240000D03*
X24130000Y12700000D03*
X24130000Y10160000D03*
X24130000Y7620000D03*
X24130000Y5080000D03*
D10*
G36*
X11020621Y40951689D02*
X11197398Y41128466D01*
X12116637Y40209227D01*
X11939860Y40032450D01*
X11020621Y40951689D01*
X11020621Y40951689D01*
G37*
G36*
X10667068Y40598136D02*
X10843845Y40774913D01*
X11763084Y39855674D01*
X11586307Y39678897D01*
X10667068Y40598136D01*
X10667068Y40598136D01*
G37*
G36*
X10313514Y40244582D02*
X10490291Y40421359D01*
X11409530Y39502120D01*
X11232753Y39325343D01*
X10313514Y40244582D01*
X10313514Y40244582D01*
G37*
G36*
X9959961Y39891029D02*
X10136738Y40067806D01*
X11055977Y39148567D01*
X10879200Y38971790D01*
X9959961Y39891029D01*
X9959961Y39891029D01*
G37*
G36*
X9606408Y39537476D02*
X9783185Y39714253D01*
X10702424Y38795014D01*
X10525647Y38618237D01*
X9606408Y39537476D01*
X9606408Y39537476D01*
G37*
G36*
X9252854Y39183922D02*
X9429631Y39360699D01*
X10348870Y38441460D01*
X10172093Y38264683D01*
X9252854Y39183922D01*
X9252854Y39183922D01*
G37*
G36*
X8899301Y38830369D02*
X9076078Y39007146D01*
X9995317Y38087907D01*
X9818540Y37911130D01*
X8899301Y38830369D01*
X8899301Y38830369D01*
G37*
G36*
X8545747Y38476815D02*
X8722524Y38653592D01*
X9641763Y37734353D01*
X9464986Y37557576D01*
X8545747Y38476815D01*
X8545747Y38476815D01*
G37*
G36*
X8192194Y38123262D02*
X8368971Y38300039D01*
X9288210Y37380800D01*
X9111433Y37204023D01*
X8192194Y38123262D01*
X8192194Y38123262D01*
G37*
G36*
X7838641Y37769709D02*
X8015418Y37946486D01*
X8934657Y37027247D01*
X8757880Y36850470D01*
X7838641Y37769709D01*
X7838641Y37769709D01*
G37*
G36*
X7485087Y37416155D02*
X7661864Y37592932D01*
X8581103Y36673693D01*
X8404326Y36496916D01*
X7485087Y37416155D01*
X7485087Y37416155D01*
G37*
G36*
X7131534Y37062602D02*
X7308311Y37239379D01*
X8227550Y36320140D01*
X8050773Y36143363D01*
X7131534Y37062602D01*
X7131534Y37062602D01*
G37*
G36*
X7308311Y33880621D02*
X7131534Y34057398D01*
X8050773Y34976637D01*
X8227550Y34799860D01*
X7308311Y33880621D01*
X7308311Y33880621D01*
G37*
G36*
X7661864Y33527068D02*
X7485087Y33703845D01*
X8404326Y34623084D01*
X8581103Y34446307D01*
X7661864Y33527068D01*
X7661864Y33527068D01*
G37*
G36*
X8015418Y33173514D02*
X7838641Y33350291D01*
X8757880Y34269530D01*
X8934657Y34092753D01*
X8015418Y33173514D01*
X8015418Y33173514D01*
G37*
G36*
X8368971Y32819961D02*
X8192194Y32996738D01*
X9111433Y33915977D01*
X9288210Y33739200D01*
X8368971Y32819961D01*
X8368971Y32819961D01*
G37*
G36*
X8722524Y32466408D02*
X8545747Y32643185D01*
X9464986Y33562424D01*
X9641763Y33385647D01*
X8722524Y32466408D01*
X8722524Y32466408D01*
G37*
G36*
X9076078Y32112854D02*
X8899301Y32289631D01*
X9818540Y33208870D01*
X9995317Y33032093D01*
X9076078Y32112854D01*
X9076078Y32112854D01*
G37*
G36*
X9429631Y31759301D02*
X9252854Y31936078D01*
X10172093Y32855317D01*
X10348870Y32678540D01*
X9429631Y31759301D01*
X9429631Y31759301D01*
G37*
G36*
X9783185Y31405747D02*
X9606408Y31582524D01*
X10525647Y32501763D01*
X10702424Y32324986D01*
X9783185Y31405747D01*
X9783185Y31405747D01*
G37*
G36*
X10136738Y31052194D02*
X9959961Y31228971D01*
X10879200Y32148210D01*
X11055977Y31971433D01*
X10136738Y31052194D01*
X10136738Y31052194D01*
G37*
G36*
X10490291Y30698641D02*
X10313514Y30875418D01*
X11232753Y31794657D01*
X11409530Y31617880D01*
X10490291Y30698641D01*
X10490291Y30698641D01*
G37*
G36*
X10843845Y30345087D02*
X10667068Y30521864D01*
X11586307Y31441103D01*
X11763084Y31264326D01*
X10843845Y30345087D01*
X10843845Y30345087D01*
G37*
G36*
X11197398Y29991534D02*
X11020621Y30168311D01*
X11939860Y31087550D01*
X12116637Y30910773D01*
X11197398Y29991534D01*
X11197398Y29991534D01*
G37*
G36*
X13283363Y30910773D02*
X13460140Y31087550D01*
X14379379Y30168311D01*
X14202602Y29991534D01*
X13283363Y30910773D01*
X13283363Y30910773D01*
G37*
G36*
X13636916Y31264326D02*
X13813693Y31441103D01*
X14732932Y30521864D01*
X14556155Y30345087D01*
X13636916Y31264326D01*
X13636916Y31264326D01*
G37*
G36*
X13990470Y31617880D02*
X14167247Y31794657D01*
X15086486Y30875418D01*
X14909709Y30698641D01*
X13990470Y31617880D01*
X13990470Y31617880D01*
G37*
G36*
X14344023Y31971433D02*
X14520800Y32148210D01*
X15440039Y31228971D01*
X15263262Y31052194D01*
X14344023Y31971433D01*
X14344023Y31971433D01*
G37*
G36*
X14697576Y32324986D02*
X14874353Y32501763D01*
X15793592Y31582524D01*
X15616815Y31405747D01*
X14697576Y32324986D01*
X14697576Y32324986D01*
G37*
G36*
X15051130Y32678540D02*
X15227907Y32855317D01*
X16147146Y31936078D01*
X15970369Y31759301D01*
X15051130Y32678540D01*
X15051130Y32678540D01*
G37*
G36*
X15404683Y33032093D02*
X15581460Y33208870D01*
X16500699Y32289631D01*
X16323922Y32112854D01*
X15404683Y33032093D01*
X15404683Y33032093D01*
G37*
G36*
X15758237Y33385647D02*
X15935014Y33562424D01*
X16854253Y32643185D01*
X16677476Y32466408D01*
X15758237Y33385647D01*
X15758237Y33385647D01*
G37*
G36*
X16111790Y33739200D02*
X16288567Y33915977D01*
X17207806Y32996738D01*
X17031029Y32819961D01*
X16111790Y33739200D01*
X16111790Y33739200D01*
G37*
G36*
X16465343Y34092753D02*
X16642120Y34269530D01*
X17561359Y33350291D01*
X17384582Y33173514D01*
X16465343Y34092753D01*
X16465343Y34092753D01*
G37*
G36*
X16818897Y34446307D02*
X16995674Y34623084D01*
X17914913Y33703845D01*
X17738136Y33527068D01*
X16818897Y34446307D01*
X16818897Y34446307D01*
G37*
G36*
X17172450Y34799860D02*
X17349227Y34976637D01*
X18268466Y34057398D01*
X18091689Y33880621D01*
X17172450Y34799860D01*
X17172450Y34799860D01*
G37*
G36*
X17349227Y36143363D02*
X17172450Y36320140D01*
X18091689Y37239379D01*
X18268466Y37062602D01*
X17349227Y36143363D01*
X17349227Y36143363D01*
G37*
G36*
X16995674Y36496916D02*
X16818897Y36673693D01*
X17738136Y37592932D01*
X17914913Y37416155D01*
X16995674Y36496916D01*
X16995674Y36496916D01*
G37*
G36*
X16642120Y36850470D02*
X16465343Y37027247D01*
X17384582Y37946486D01*
X17561359Y37769709D01*
X16642120Y36850470D01*
X16642120Y36850470D01*
G37*
G36*
X16288567Y37204023D02*
X16111790Y37380800D01*
X17031029Y38300039D01*
X17207806Y38123262D01*
X16288567Y37204023D01*
X16288567Y37204023D01*
G37*
G36*
X15935014Y37557576D02*
X15758237Y37734353D01*
X16677476Y38653592D01*
X16854253Y38476815D01*
X15935014Y37557576D01*
X15935014Y37557576D01*
G37*
G36*
X15581460Y37911130D02*
X15404683Y38087907D01*
X16323922Y39007146D01*
X16500699Y38830369D01*
X15581460Y37911130D01*
X15581460Y37911130D01*
G37*
G36*
X15227907Y38264683D02*
X15051130Y38441460D01*
X15970369Y39360699D01*
X16147146Y39183922D01*
X15227907Y38264683D01*
X15227907Y38264683D01*
G37*
G36*
X14874353Y38618237D02*
X14697576Y38795014D01*
X15616815Y39714253D01*
X15793592Y39537476D01*
X14874353Y38618237D01*
X14874353Y38618237D01*
G37*
G36*
X14520800Y38971790D02*
X14344023Y39148567D01*
X15263262Y40067806D01*
X15440039Y39891029D01*
X14520800Y38971790D01*
X14520800Y38971790D01*
G37*
G36*
X14167247Y39325343D02*
X13990470Y39502120D01*
X14909709Y40421359D01*
X15086486Y40244582D01*
X14167247Y39325343D01*
X14167247Y39325343D01*
G37*
G36*
X13813693Y39678897D02*
X13636916Y39855674D01*
X14556155Y40774913D01*
X14732932Y40598136D01*
X13813693Y39678897D01*
X13813693Y39678897D01*
G37*
G36*
X13460140Y40032450D02*
X13283363Y40209227D01*
X14202602Y41128466D01*
X14379379Y40951689D01*
X13460140Y40032450D01*
X13460140Y40032450D01*
G37*
D15*
X18076000Y14434000D03*
X18076000Y15284000D03*
X16976000Y15284000D03*
X16976000Y14434000D03*
D16*
X22500000Y-6675000D03*
X22500000Y-6025000D03*
X22500000Y-5375000D03*
X22500000Y-4725000D03*
X22500000Y-4075000D03*
D17*
X22425000Y-7800000D03*
X22425000Y-2950000D03*
D18*
X25075000Y-9000000D03*
X25075000Y-1750000D03*
D19*
X9352800Y76860400D03*
X4352800Y76860400D03*
D20*
X17780000Y21336000D03*
D21*
X16280000Y20836000D03*
D20*
X14780000Y21336000D03*
D22*
X16280000Y18486000D03*
D23*
X7239000Y27084000D03*
X8509000Y27084000D03*
X9779000Y27084000D03*
X11049000Y27084000D03*
X11049000Y21684000D03*
X9779000Y21684000D03*
X8509000Y21684000D03*
X7239000Y21684000D03*
D10*
G36*
X9993457Y44035040D02*
X11336960Y45378543D01*
X12114777Y44600726D01*
X10771274Y43257223D01*
X9993457Y44035040D01*
X9993457Y44035040D01*
G37*
G36*
X11761223Y42267274D02*
X13104726Y43610777D01*
X13882543Y42832960D01*
X12539040Y41489457D01*
X11761223Y42267274D01*
X11761223Y42267274D01*
G37*
D24*
X22000000Y500000D03*
D25*
X22000000Y2200000D03*
X20000000Y2200000D03*
X20000000Y300000D03*
D26*
X11150000Y6700000D03*
X11150000Y4500000D03*
D10*
G36*
X13217304Y45189670D02*
X12722330Y44694696D01*
X12085934Y45331092D01*
X12580908Y45826066D01*
X13217304Y45189670D01*
X13217304Y45189670D01*
G37*
G36*
X12298066Y46108908D02*
X11803092Y45613934D01*
X11166696Y46250330D01*
X11661670Y46745304D01*
X12298066Y46108908D01*
X12298066Y46108908D01*
G37*
G36*
X13198696Y44218330D02*
X13693670Y44713304D01*
X14330066Y44076908D01*
X13835092Y43581934D01*
X13198696Y44218330D01*
X13198696Y44218330D01*
G37*
G36*
X14117934Y43299092D02*
X14612908Y43794066D01*
X15249304Y43157670D01*
X14754330Y42662696D01*
X14117934Y43299092D01*
X14117934Y43299092D01*
G37*
D27*
X18034000Y41514000D03*
X18034000Y42814000D03*
X5461000Y40498000D03*
X5461000Y41798000D03*
X19304000Y41514000D03*
X19304000Y42814000D03*
X20320000Y34290000D03*
X20320000Y32990000D03*
X4572000Y32146000D03*
X4572000Y30846000D03*
X12446000Y10302000D03*
X12446000Y9002000D03*
D28*
X13096000Y50546000D03*
X11796000Y50546000D03*
X8748000Y10414000D03*
X10048000Y10414000D03*
D27*
X10668000Y17384000D03*
X10668000Y18684000D03*
D28*
X20500000Y-8000000D03*
X19200000Y-8000000D03*
X18176000Y25654000D03*
X16876000Y25654000D03*
D27*
X17526000Y46340000D03*
X17526000Y47640000D03*
X8890000Y18684000D03*
X8890000Y17384000D03*
D28*
X4430000Y13970000D03*
X5730000Y13970000D03*
X4430000Y12700000D03*
X5730000Y12700000D03*
X4430000Y11430000D03*
X5730000Y11430000D03*
X20970000Y35814000D03*
X19670000Y35814000D03*
X14336000Y14224000D03*
X15636000Y14224000D03*
X14336000Y15494000D03*
X15636000Y15494000D03*
D29*
X15494000Y49784000D03*
X15494000Y51054000D03*
X16764000Y49784000D03*
X16764000Y51054000D03*
X18034000Y49784000D03*
X18034000Y51054000D03*
X19304000Y49784000D03*
X19304000Y51054000D03*
X20574000Y49784000D03*
X20574000Y51054000D03*
D30*
X16676000Y24130000D03*
X18376000Y24130000D03*
D27*
X4191000Y40498000D03*
X4191000Y41798000D03*
D31*
X4026000Y16906000D03*
X4026000Y15606000D03*
D32*
X5076000Y16256000D03*
D33*
X5751000Y16256000D03*
D34*
X6350000Y-650000D03*
X6350000Y-2650000D03*
D35*
X800000Y1700000D03*
X800000Y-5000000D03*
D28*
X13096000Y49276000D03*
X11796000Y49276000D03*
D14*
X1270000Y17780000D03*
X1270000Y20320000D03*
X1270000Y22860000D03*
X1270000Y25400000D03*
X1270000Y50800000D03*
X1270000Y48260000D03*
X1270000Y45720000D03*
X1270000Y43180000D03*
X1270000Y40640000D03*
X1270000Y38100000D03*
X1270000Y35560000D03*
X1270000Y33020000D03*
X1270000Y30480000D03*
X1270000Y27940000D03*
X1270000Y15240000D03*
X1270000Y12700000D03*
X1270000Y10160000D03*
X1270000Y7620000D03*
X1270000Y5080000D03*
D36*
X7112000Y18884000D03*
X7112000Y17184000D03*
D27*
X13716000Y10302000D03*
X13716000Y9002000D03*
D37*
X12820000Y26604000D03*
X12820000Y24704000D03*
X15120000Y25654000D03*
D27*
X18796000Y46340000D03*
X18796000Y47640000D03*
D28*
X20970000Y37084000D03*
X19670000Y37084000D03*
X20500000Y-9500000D03*
X19200000Y-9500000D03*
X5730000Y10160000D03*
X4430000Y10160000D03*
D27*
X8001000Y41006000D03*
X8001000Y42306000D03*
X5588000Y25034000D03*
X5588000Y23734000D03*
X6731000Y41006000D03*
X6731000Y42306000D03*
X12192000Y17384000D03*
X12192000Y18684000D03*
X12954000Y21702000D03*
X12954000Y23002000D03*
D38*
X10414000Y14333000D03*
X9664000Y14333000D03*
X9664000Y13583000D03*
X10414000Y13583000D03*
D39*
X9289000Y12483000D03*
X9789000Y12483000D03*
X10289000Y12483000D03*
X10789000Y12483000D03*
D40*
X11514000Y13208000D03*
X11514000Y13708000D03*
D41*
X11514000Y14208000D03*
D40*
X11514000Y14708000D03*
D39*
X10789000Y15433000D03*
X10289000Y15433000D03*
X9789000Y15433000D03*
X9289000Y15433000D03*
D40*
X8564000Y14708000D03*
X8564000Y14208000D03*
X8564000Y13708000D03*
D41*
X8564000Y13208000D03*
D36*
X5776893Y70141213D03*
X5776893Y71841213D03*
D42*
X18235000Y6987000D03*
X18235000Y6487000D03*
X18235000Y5987000D03*
X18235000Y5487000D03*
X20035000Y5487000D03*
X20035000Y5987000D03*
X20035000Y6487000D03*
X20035000Y6987000D03*
D43*
X19135000Y5797000D03*
X19135000Y6677000D03*
D19*
X21250400Y77000000D03*
X16250400Y77000000D03*
D30*
X17950000Y12200000D03*
X19650000Y12200000D03*
X17950000Y10450000D03*
X19650000Y10450000D03*
D44*
X24100000Y-23800000D03*
D45*
X24100000Y-21260000D03*
X24100000Y-18720000D03*
X24100000Y-16180000D03*
X24100000Y-13640000D03*
D44*
X1066800Y71170800D03*
D30*
X13120000Y3810000D03*
X14820000Y3810000D03*
D46*
X26416000Y-29464000D03*
X24384000Y-29464000D03*
D30*
X16598000Y7366000D03*
X14898000Y7366000D03*
X13120000Y5715000D03*
X14820000Y5715000D03*
D36*
X16637000Y2706000D03*
X16637000Y4406000D03*
D47*
X24219000Y58754000D03*
X24219000Y53594000D03*
X26219000Y53594000D03*
X26219000Y58754000D03*
D36*
X6502400Y-9079600D03*
X6502400Y-7379600D03*
X2895600Y-9079600D03*
X2895600Y-7379600D03*
X4724400Y-9079600D03*
X4724400Y-7379600D03*
X1117600Y-9079600D03*
X1117600Y-7379600D03*
X8432800Y-9079600D03*
X8432800Y-7379600D03*
X10414000Y-9079600D03*
X10414000Y-7379600D03*
X4151293Y70154813D03*
X4151293Y71854813D03*
D30*
X1866000Y57667600D03*
X166000Y57667600D03*
X1866000Y61725200D03*
X166000Y61725200D03*
X1866000Y65786000D03*
X166000Y65786000D03*
D48*
X5572800Y58189600D03*
X3672800Y58189600D03*
X4622800Y55889600D03*
X5572800Y62298000D03*
X3672800Y62298000D03*
X4622800Y59998000D03*
X5572800Y66383600D03*
X3672800Y66383600D03*
X4622800Y64083600D03*
D30*
X166000Y55886400D03*
X1866000Y55886400D03*
X166000Y59998000D03*
X1866000Y59998000D03*
X166000Y64065200D03*
X1866000Y64065200D03*
D49*
X3672800Y58189600D03*
X3672800Y62298000D03*
X3672800Y66383600D03*
X23977600Y-4673600D03*
X23977600Y-3505200D03*
X12293600Y-20828000D03*
X12446000Y-19507200D03*
X16514450Y-8696101D03*
X1651000Y-11366501D03*
X17526000Y8890000D03*
X15113000Y8636000D03*
X2750000Y53250000D03*
X1750000Y53000000D03*
X700000Y53000000D03*
X4300000Y49400000D03*
X4300000Y50250000D03*
X4300000Y51100000D03*
X4300000Y51900000D03*
X13200000Y44712000D03*
X23050000Y1700000D03*
X23050000Y950000D03*
X19185000Y5797000D03*
X19185000Y6677000D03*
X18832990Y20780904D03*
X18832990Y20187834D03*
X18832990Y22178392D03*
X11800000Y23400000D03*
X10600000Y23400000D03*
X11400000Y24200000D03*
X19400000Y52400000D03*
X18288000Y43942000D03*
X19304000Y44704000D03*
X17526000Y44704000D03*
X20066000Y43942000D03*
X20828000Y44704000D03*
X10515600Y14427200D03*
X10502900Y13487400D03*
X13970000Y12954000D03*
X13970000Y12192000D03*
X13208000Y12192000D03*
X12446000Y12192000D03*
X4318000Y33274000D03*
X21082000Y30734000D03*
X21082000Y32004000D03*
X3810000Y29972000D03*
X11684000Y12192000D03*
X12446000Y15240000D03*
X13081000Y14859000D03*
X7620000Y43434000D03*
X6604000Y43434000D03*
X5588000Y43434000D03*
X10299700Y13970000D03*
X9575800Y14427200D03*
X9779000Y13957300D03*
X9575800Y13487400D03*
X8382000Y59654440D03*
X1651000Y-16446500D03*
X1651000Y-21526501D03*
X16090601Y-21260000D03*
X17674434Y2942434D03*
X16100000Y12200000D03*
X9800000Y20400000D03*
X13843000Y21590000D03*
X13843000Y20955000D03*
X13335000Y20574000D03*
X12700000Y20574000D03*
X12065000Y20320000D03*
X12065000Y20955000D03*
X12065000Y21590000D03*
X2794000Y32004000D03*
X3922000Y25034000D03*
X18034000Y40640000D03*
X3810000Y42926000D03*
X4572000Y42926000D03*
X13096000Y51308000D03*
X13096000Y51928000D03*
X13970000Y19050000D03*
X14732000Y19050000D03*
X14732000Y18288000D03*
X13970000Y18288000D03*
X13970000Y17526000D03*
X14732000Y17526000D03*
X14732000Y16764000D03*
X13970000Y16764000D03*
X13208000Y16764000D03*
X13208000Y17526000D03*
X12954000Y12954000D03*
X11582400Y60807600D03*
X18542000Y-6146800D03*
X11227589Y59740011D03*
X8382000Y65653920D03*
X3657600Y56946800D03*
X3657600Y61010800D03*
X13919200Y-18745200D03*
X12446000Y33782000D03*
X14043130Y-16592896D03*
X12446000Y33020000D03*
X9906000Y34036000D03*
X9144000Y28702000D03*
X7366000Y34798000D03*
X6604000Y34036000D03*
X5842000Y34036000D03*
X5080000Y34036000D03*
X12630311Y-25209112D03*
X4064000Y29210000D03*
X11176000Y28702000D03*
X8128000Y-25095200D03*
X4826000Y28448000D03*
X10160000Y28702000D03*
X7518400Y-21539200D03*
X4064000Y27178000D03*
X11938000Y28194000D03*
X13716000Y37338000D03*
X21590000Y38100000D03*
X9906000Y29464000D03*
X17068800Y-10965156D03*
X11694755Y-11113555D03*
X14478000Y27686000D03*
X15926589Y-10960311D03*
X7366000Y-10414000D03*
X15240000Y27686000D03*
X13716000Y27686000D03*
X17272000Y27178000D03*
X17068800Y-13208000D03*
X18034000Y27178000D03*
X20850000Y10750000D03*
X21500000Y8800000D03*
X14478000Y52324000D03*
X3708400Y65176400D03*
X12446000Y37338000D03*
X4318000Y34036000D03*
X2540000Y44450000D03*
X13716000Y11176000D03*
X13081000Y11176000D03*
X12446000Y11176000D03*
X12954000Y27686000D03*
X3403600Y-13411200D03*
X3352800Y-12395200D03*
D50*
X18376000Y24638000D02*
X18376000Y24130000D01*
X18376000Y24638000D02*
X18376000Y24892000D01*
X18176000Y25654000D02*
X18176000Y25092000D01*
X18176000Y25092000D02*
X18376000Y24892000D01*
X16466000Y15284000D02*
X16256000Y15494000D01*
X16256000Y15494000D02*
X15636000Y15494000D01*
X16976000Y15284000D02*
X16466000Y15284000D01*
X16256000Y14224000D02*
X16466000Y14434000D01*
X16466000Y14434000D02*
X16976000Y14434000D01*
X15636000Y14224000D02*
X16256000Y14224000D01*
X23977600Y-4673600D02*
X23407800Y-4103800D01*
X23407800Y-4103800D02*
X23407800Y-4075000D01*
X22500000Y-4075000D02*
X23407800Y-4075000D01*
X23407800Y-4075000D02*
X23977600Y-3505200D01*
X12446000Y-19507200D02*
X12446000Y-20675600D01*
X12446000Y-20675600D02*
X12293600Y-20828000D01*
D51*
X18235000Y6987000D02*
X18235000Y8181000D01*
X18235000Y8181000D02*
X17526000Y8890000D01*
D50*
X13120000Y3810000D02*
X13170000Y3810000D01*
X14898000Y7366000D02*
X14898000Y8421000D01*
X14898000Y8421000D02*
X15113000Y8636000D01*
X700000Y53000000D02*
X1750000Y53000000D01*
X4300000Y50250000D02*
X4300000Y49400000D01*
X4300000Y51900000D02*
X4300000Y51100000D01*
D51*
X13200000Y44712000D02*
X13200000Y44700000D01*
X13200000Y44712000D02*
X13764381Y44147619D01*
X12651619Y45260381D02*
X13200000Y44712000D01*
D50*
X12446000Y9002000D02*
X10856000Y9002000D01*
X10856000Y9002000D02*
X10048000Y9810000D01*
X10048000Y9810000D02*
X10048000Y10414000D01*
X22000000Y500000D02*
X22600000Y500000D01*
X22600000Y500000D02*
X23050000Y950000D01*
X18235000Y5487000D02*
X18825000Y5487000D01*
X18825000Y5487000D02*
X19135000Y5797000D01*
X18235000Y6987000D02*
X18825000Y6987000D01*
X18825000Y6987000D02*
X19135000Y6677000D01*
X18728166Y20187834D02*
X18832990Y20187834D01*
X17780000Y21336000D02*
X17780000Y21136000D01*
X18832990Y22178392D02*
X18832990Y20780904D01*
X17780000Y21136000D02*
X18728166Y20187834D01*
X10600000Y23400000D02*
X11800000Y23400000D01*
X12820000Y24704000D02*
X11904000Y24704000D01*
X11904000Y24704000D02*
X11400000Y24200000D01*
X18288000Y43942000D02*
X20066000Y43942000D01*
X20066000Y43942000D02*
X19304000Y44704000D01*
X18034000Y42814000D02*
X18034000Y44196000D01*
X18034000Y44196000D02*
X17526000Y44704000D01*
X13970000Y12192000D02*
X13970000Y12954000D01*
X13716000Y12700000D02*
X13208000Y12192000D01*
X13208000Y12192000D02*
X12954000Y11938000D01*
X11684000Y12192000D02*
X12446000Y12192000D01*
X20320000Y32004000D02*
X21082000Y32004000D01*
X20320000Y32990000D02*
X20320000Y32004000D01*
X4572000Y29972000D02*
X3810000Y29972000D01*
X4572000Y30226000D02*
X4572000Y29972000D01*
X4572000Y30846000D02*
X4572000Y30226000D01*
X11684000Y12192000D02*
X11393000Y12483000D01*
X11938000Y11938000D02*
X11684000Y12192000D01*
X10789000Y12483000D02*
X11393000Y12483000D01*
X11514000Y13708000D02*
X10539000Y13708000D01*
X10539000Y13708000D02*
X10414000Y13583000D01*
D52*
X11514000Y14708000D02*
X10999600Y14708000D01*
X10999600Y14708000D02*
X10896600Y14605000D01*
X10896600Y14605000D02*
X10686000Y14605000D01*
X10686000Y14605000D02*
X10414000Y14333000D01*
X10789000Y12483000D02*
X10789000Y12985400D01*
X10789000Y12985400D02*
X10693400Y13081000D01*
X10693400Y13081000D02*
X10693400Y13303600D01*
X10693400Y13303600D02*
X10414000Y13583000D01*
D50*
X13081000Y14859000D02*
X12827000Y14859000D01*
X12827000Y14859000D02*
X12446000Y15240000D01*
X13081000Y14859000D02*
X12573000Y14859000D01*
X12573000Y14859000D02*
X12422000Y14708000D01*
X12422000Y14708000D02*
X11514000Y14708000D01*
X13470000Y13708000D02*
X13716000Y13462000D01*
X13716000Y13462000D02*
X13716000Y12700000D01*
X12954000Y11938000D02*
X11938000Y11938000D01*
X6604000Y43434000D02*
X7620000Y43434000D01*
X5461000Y41798000D02*
X5461000Y43307000D01*
X5461000Y43307000D02*
X5588000Y43434000D01*
X11732381Y46179619D02*
X11732381Y44996147D01*
X11732381Y44996147D02*
X11054117Y44317883D01*
X11054117Y44328117D02*
X11684000Y44958000D01*
X11054117Y44317883D02*
X11054117Y44328117D01*
X11215076Y40226905D02*
X10414000Y41027981D01*
X10414000Y41027981D02*
X10414000Y43677766D01*
X10414000Y43677766D02*
X11054117Y44317883D01*
X14683619Y43228381D02*
X13500147Y43228381D01*
X13500147Y43228381D02*
X12821883Y42550117D01*
X12832117Y42550117D02*
X13462000Y43180000D01*
X12821883Y42550117D02*
X12832117Y42550117D01*
X11568629Y40580458D02*
X10922000Y41227087D01*
X10922000Y41227087D02*
X10922000Y41656000D01*
X10922000Y41656000D02*
X11176000Y41910000D01*
X11176000Y41910000D02*
X12181766Y41910000D01*
X12181766Y41910000D02*
X12821883Y42550117D01*
D52*
X6858000Y59080400D02*
X7807960Y59080400D01*
X7807960Y59080400D02*
X8382000Y59654440D01*
X6858000Y63144400D02*
X6858000Y59080400D01*
X1866000Y58370800D02*
X2575600Y59080400D01*
X1866000Y57667600D02*
X1866000Y58370800D01*
X2575600Y59080400D02*
X6858000Y59080400D01*
X6858000Y66802000D02*
X6858000Y63144400D01*
X1866000Y61725200D02*
X1866000Y62428400D01*
X1866000Y62428400D02*
X2582000Y63144400D01*
X2582000Y63144400D02*
X6858000Y63144400D01*
X5994400Y67665600D02*
X6858000Y66802000D01*
X3042400Y67665600D02*
X5994400Y67665600D01*
X1866000Y65786000D02*
X1866000Y66489200D01*
X1866000Y66489200D02*
X3042400Y67665600D01*
X5537200Y-13110300D02*
X5537200Y-10798000D01*
X5537200Y-10798000D02*
X6502400Y-9832800D01*
X6502400Y-9832800D02*
X6502400Y-9079600D01*
X1651000Y-16446500D02*
X2201000Y-16446500D01*
X2201000Y-16446500D02*
X5537200Y-13110300D01*
X2895600Y-9079600D02*
X2895600Y-9029600D01*
X5748399Y-8275599D02*
X6502400Y-9029600D01*
X2895600Y-9029600D02*
X3649601Y-8275599D01*
X6502400Y-9029600D02*
X6502400Y-9079600D01*
X3649601Y-8275599D02*
X5748399Y-8275599D01*
X4127501Y-19050000D02*
X4127501Y-18923001D01*
X4127501Y-18923001D02*
X1651000Y-16446500D01*
X7663420Y-19050000D02*
X4127501Y-19050000D01*
X4127501Y-19050000D02*
X1651000Y-21526501D01*
X11199760Y-23538840D02*
X11199760Y-22586340D01*
X11199760Y-22586340D02*
X7663420Y-19050000D01*
X11199760Y-23538840D02*
X11199760Y-24491340D01*
X11199760Y-24491340D02*
X12514820Y-25806400D01*
X12514820Y-25806400D02*
X14478000Y-25806400D01*
X14478000Y-25806400D02*
X16090601Y-24193799D01*
X16090601Y-24193799D02*
X16090601Y-21260000D01*
D51*
X11199760Y-23938890D02*
X11199760Y-23538840D01*
D50*
X16637000Y2706000D02*
X17438000Y2706000D01*
X17438000Y2706000D02*
X17674434Y2942434D01*
D52*
X16637000Y2706000D02*
X17057000Y2706000D01*
D50*
X17950000Y12200000D02*
X16100000Y12200000D01*
X17950000Y10450000D02*
X17950000Y12200000D01*
X9779000Y21684000D02*
X9779000Y20421000D01*
X9779000Y20421000D02*
X9800000Y20400000D01*
X13335000Y20574000D02*
X12700000Y20574000D01*
X12065000Y20955000D02*
X12065000Y20320000D01*
X12065000Y21590000D02*
X12192000Y21717000D01*
X12192000Y21717000D02*
X12939000Y21717000D01*
X12939000Y21717000D02*
X12954000Y21702000D01*
X15245584Y39166245D02*
X14687339Y38608000D01*
X14687339Y38608000D02*
X14687339Y38144661D01*
X14687339Y38144661D02*
X15240000Y37592000D01*
X15240000Y37592000D02*
X15240000Y36909087D01*
X15240000Y36909087D02*
X17720458Y34428629D01*
D51*
X2906000Y32146000D02*
X2794000Y32034000D01*
X2794000Y32034000D02*
X2794000Y32004000D01*
X4572000Y32146000D02*
X2906000Y32146000D01*
D50*
X19670000Y35814000D02*
X19670000Y35448000D01*
X19670000Y35448000D02*
X20320000Y34798000D01*
X20320000Y34798000D02*
X20320000Y34290000D01*
X19050000Y33924000D02*
X18225087Y33924000D01*
X20320000Y34290000D02*
X19416000Y34290000D01*
X19416000Y34290000D02*
X19050000Y33924000D01*
X18225087Y33924000D02*
X17720458Y34428629D01*
X14780000Y23416000D02*
X15494000Y24130000D01*
X15494000Y24130000D02*
X16676000Y24130000D01*
X14780000Y21336000D02*
X14780000Y23416000D01*
D53*
X5588000Y25034000D02*
X3922000Y25034000D01*
D50*
X18034000Y40640000D02*
X16719339Y40640000D01*
X16719339Y40640000D02*
X15245584Y39166245D01*
D53*
X18034000Y41514000D02*
X18034000Y40640000D01*
X4572000Y42926000D02*
X4064000Y42926000D01*
X4064000Y42926000D02*
X3810000Y42926000D01*
X4191000Y41798000D02*
X4191000Y42799000D01*
X4191000Y42799000D02*
X4064000Y42926000D01*
X4191000Y41798000D02*
X4191000Y42545000D01*
X13096000Y51674000D02*
X13096000Y51928000D01*
X13096000Y49276000D02*
X13096000Y50546000D01*
X13096000Y50546000D02*
X13096000Y51674000D01*
D50*
X18034000Y41514000D02*
X18034000Y40894000D01*
X15494000Y48768000D02*
X15494000Y49022000D01*
X15494000Y47498000D02*
X15494000Y49022000D01*
X15494000Y49022000D02*
X15494000Y49784000D01*
X16652000Y46340000D02*
X15494000Y47498000D01*
X17526000Y46340000D02*
X16652000Y46340000D01*
X8128000Y32048661D02*
X9093755Y33014416D01*
X5700000Y32146000D02*
X5797339Y32048661D01*
X5797339Y32048661D02*
X8128000Y32048661D01*
X4572000Y32146000D02*
X5700000Y32146000D01*
X7239000Y27084000D02*
X8509000Y27084000D01*
X6746000Y25034000D02*
X7239000Y25527000D01*
X7239000Y25527000D02*
X7239000Y27084000D01*
X5588000Y25034000D02*
X6746000Y25034000D01*
X9800862Y38812691D02*
X8481553Y40132000D01*
X8481553Y40132000D02*
X6208000Y40132000D01*
X6208000Y40132000D02*
X5842000Y40498000D01*
X5842000Y40498000D02*
X5461000Y40498000D01*
X4191000Y40498000D02*
X5461000Y40498000D01*
X19304000Y41514000D02*
X19304000Y40894000D01*
X19304000Y40894000D02*
X18288000Y39878000D01*
X18288000Y39878000D02*
X16664447Y39878000D01*
X16664447Y39878000D02*
X15599138Y38812691D01*
X16280000Y20686000D02*
X16280000Y19586000D01*
X13970000Y19050000D02*
X13970000Y18288000D01*
X14732000Y18288000D02*
X14732000Y19050000D01*
X13970000Y17526000D02*
X13970000Y18288000D01*
X14732000Y16764000D02*
X14732000Y17526000D01*
X13208000Y16764000D02*
X13970000Y16764000D01*
X12192000Y17384000D02*
X13066000Y17384000D01*
X13066000Y17384000D02*
X13208000Y17526000D01*
X12954000Y12954000D02*
X12700000Y13208000D01*
X12700000Y13208000D02*
X11514000Y13208000D01*
X16256000Y16510000D02*
X16256000Y19562000D01*
X16256000Y19562000D02*
X16280000Y19586000D01*
X18034000Y16510000D02*
X16256000Y16510000D01*
X18076000Y16468000D02*
X18034000Y16510000D01*
X18076000Y15284000D02*
X18076000Y16468000D01*
X18076000Y14434000D02*
X18076000Y15284000D01*
D52*
X10261600Y59539647D02*
X10314447Y59539647D01*
X10314447Y59539647D02*
X11582400Y60807600D01*
X126999Y49100000D02*
X404600Y49377601D01*
X404600Y49377601D02*
X1501651Y49377601D01*
X1501651Y49377601D02*
X3144390Y51020340D01*
X3144390Y51020340D02*
X3144390Y52447298D01*
X3144390Y52447298D02*
X4752701Y54055609D01*
X4752701Y54055609D02*
X4777562Y54055609D01*
X4777562Y54055609D02*
X10261600Y59539647D01*
D51*
X7350000Y4200000D02*
X6350000Y3200000D01*
X6350000Y3200000D02*
X6350000Y-650000D01*
X9481000Y-650000D02*
X6350000Y-650000D01*
X18542000Y-6146800D02*
X18188447Y-6146800D01*
X18188447Y-6146800D02*
X12691647Y-650000D01*
X12691647Y-650000D02*
X9481000Y-650000D01*
D50*
X8748000Y5602000D02*
X8748000Y5715000D01*
X8748000Y5715000D02*
X8748000Y7600000D01*
X13120000Y5715000D02*
X12316000Y5715000D01*
X12316000Y5715000D02*
X8748000Y5715000D01*
X126999Y8763001D02*
X1270000Y7620000D01*
X126999Y49100000D02*
X126999Y8763001D01*
X8748000Y7600000D02*
X8748000Y10414000D01*
X1270000Y7620000D02*
X8728000Y7620000D01*
X8728000Y7620000D02*
X8748000Y7600000D01*
X8750000Y5600000D02*
X7350000Y4200000D01*
X8750000Y5600000D02*
X8748000Y5602000D01*
X10289000Y12483000D02*
X9789000Y12483000D01*
X9652000Y11557000D02*
X9789000Y11694000D01*
X9789000Y11694000D02*
X9789000Y12483000D01*
X8890000Y11557000D02*
X9652000Y11557000D01*
X8748000Y11415000D02*
X8890000Y11557000D01*
X8748000Y10414000D02*
X8748000Y11415000D01*
X22225000Y-8000000D02*
X22425000Y-7800000D01*
X20500000Y-8000000D02*
X22225000Y-8000000D01*
X20500000Y-8000000D02*
X20500000Y-9500000D01*
D51*
X21500000Y-6675000D02*
X22500000Y-6675000D01*
X11150000Y4500000D02*
X11150000Y2619000D01*
X11150000Y2619000D02*
X18500000Y-4731000D01*
X20000000Y-950000D02*
X20000000Y300000D01*
X18500000Y-2450000D02*
X20000000Y-950000D01*
X18500000Y-4731000D02*
X18500000Y-2450000D01*
X21500000Y-6675000D02*
X20444000Y-6675000D01*
X20444000Y-6675000D02*
X18500000Y-4731000D01*
D50*
X18796000Y46340000D02*
X21732000Y46340000D01*
X21732000Y46340000D02*
X21844000Y46228000D01*
X21844000Y46228000D02*
X21844000Y40894000D01*
X21844000Y40894000D02*
X19812000Y38862000D01*
X19812000Y38862000D02*
X17769767Y38862000D01*
X17769767Y38862000D02*
X16659798Y37752031D01*
X8890000Y17384000D02*
X8890000Y16764000D01*
X8890000Y16764000D02*
X8890000Y17130000D01*
X9289000Y15433000D02*
X9289000Y16365000D01*
X9289000Y16365000D02*
X8890000Y16764000D01*
X6858000Y13970000D02*
X7096000Y14208000D01*
X7096000Y14208000D02*
X7636000Y14208000D01*
X5730000Y13970000D02*
X6858000Y13970000D01*
X8564000Y14208000D02*
X7636000Y14208000D01*
X7358000Y13708000D02*
X6350000Y12700000D01*
X6350000Y12700000D02*
X5730000Y12700000D01*
X8564000Y13708000D02*
X7358000Y13708000D01*
X7374000Y13708000D02*
X8564000Y13708000D01*
X8564000Y13208000D02*
X7620000Y13208000D01*
X7620000Y13208000D02*
X6604000Y12192000D01*
X6604000Y12192000D02*
X6604000Y11684000D01*
X6604000Y11684000D02*
X6350000Y11430000D01*
X6350000Y11430000D02*
X5730000Y11430000D01*
D52*
X11227589Y59740011D02*
X11022811Y59740011D01*
X11022811Y59740011D02*
X3582800Y52300000D01*
X2491314Y45720000D02*
X1270000Y45720000D01*
X3582800Y52300000D02*
X3582800Y46811486D01*
X3582800Y46811486D02*
X2491314Y45720000D01*
D50*
X1270000Y45720000D02*
X2286000Y45720000D01*
X8128000Y44704000D02*
X9398000Y43434000D01*
X2286000Y45720000D02*
X3302000Y44704000D01*
X3302000Y44704000D02*
X8128000Y44704000D01*
X9398000Y43434000D02*
X9398000Y41336873D01*
X9398000Y41336873D02*
X10861522Y39873351D01*
D52*
X8382000Y65653920D02*
X8382000Y68239306D01*
X8382000Y68239306D02*
X6480093Y70141213D01*
X6480093Y70141213D02*
X5776893Y70141213D01*
D50*
X9447309Y38459138D02*
X8282447Y39624000D01*
X8282447Y39624000D02*
X3048000Y39624000D01*
X3048000Y39624000D02*
X2540000Y40132000D01*
X2540000Y40132000D02*
X2540000Y41910000D01*
X2540000Y41910000D02*
X1270000Y43180000D01*
X9093755Y38105584D02*
X8083339Y39116000D01*
X8083339Y39116000D02*
X2794000Y39116000D01*
X2794000Y39116000D02*
X1270000Y40640000D01*
D52*
X3657600Y56946800D02*
X4900400Y58189600D01*
X4900400Y58189600D02*
X5572800Y58189600D01*
D50*
X8740202Y37752031D02*
X7884233Y38608000D01*
X7884233Y38608000D02*
X1778000Y38608000D01*
X1778000Y38608000D02*
X1270000Y38100000D01*
D52*
X5572800Y62298000D02*
X4944800Y62298000D01*
X4944800Y62298000D02*
X3657600Y61010800D01*
D50*
X1270000Y35560000D02*
X2540000Y36830000D01*
X2540000Y36830000D02*
X2540000Y37846000D01*
X2540000Y37846000D02*
X2794000Y38100000D01*
X2794000Y38100000D02*
X7685127Y38100000D01*
X7685127Y38100000D02*
X8386649Y37398478D01*
D52*
X14169199Y-18495201D02*
X13919200Y-18745200D01*
X16513998Y-16150402D02*
X14169199Y-18495201D01*
X16513998Y-13016878D02*
X16513998Y-16150402D01*
X17350488Y-12180388D02*
X16513998Y-13016878D01*
X24845203Y-12180388D02*
X17350488Y-12180388D01*
X24130000Y22860000D02*
X26670045Y20319955D01*
X26670045Y20319955D02*
X26670045Y-10355546D01*
X26670045Y-10355546D02*
X24845203Y-12180388D01*
D50*
X12446000Y33782000D02*
X12192000Y34036000D01*
X12192000Y34036000D02*
X12192000Y34544000D01*
X12192000Y34544000D02*
X10236200Y36499800D01*
X10236200Y36499800D02*
X8578219Y36499800D01*
X8578219Y36499800D02*
X8033095Y37044924D01*
D52*
X16107587Y-14528439D02*
X14293129Y-16342897D01*
X17203190Y-11824777D02*
X16107587Y-12920380D01*
X24697905Y-11824777D02*
X17203190Y-11824777D01*
X14293129Y-16342897D02*
X14043130Y-16592896D01*
X26314434Y18135566D02*
X26314434Y-10208248D01*
X24130000Y20320000D02*
X26314434Y18135566D01*
X26314434Y-10208248D02*
X24697905Y-11824777D01*
X16107587Y-12920380D02*
X16107587Y-14528439D01*
D50*
X12446000Y33020000D02*
X12192000Y33020000D01*
X12192000Y33020000D02*
X11684000Y33528000D01*
X11684000Y33528000D02*
X11684000Y34290000D01*
X11684000Y34290000D02*
X9956800Y36017200D01*
X9956800Y36017200D02*
X8353713Y36017200D01*
X8353713Y36017200D02*
X7679542Y36691371D01*
X9144000Y25908000D02*
X7239000Y24003000D01*
X7239000Y24003000D02*
X7239000Y22938000D01*
X7239000Y22938000D02*
X7239000Y21684000D01*
X9144000Y28702000D02*
X9144000Y25908000D01*
X9906000Y34036000D02*
X9652000Y34036000D01*
X9652000Y34036000D02*
X8636000Y35052000D01*
X8636000Y35052000D02*
X8302913Y35052000D01*
X8302913Y35052000D02*
X7679542Y34428629D01*
X7366000Y34798000D02*
X7366000Y34742171D01*
X7366000Y34742171D02*
X7679542Y34428629D01*
X6604000Y34036000D02*
X7112000Y33528000D01*
X7112000Y33528000D02*
X7486019Y33528000D01*
X7486019Y33528000D02*
X8033095Y34075076D01*
X5842000Y34036000D02*
X5842000Y33528000D01*
X5842000Y33528000D02*
X6350000Y33020000D01*
X6350000Y33020000D02*
X7685127Y33020000D01*
X7685127Y33020000D02*
X8386649Y33721522D01*
X5080000Y34036000D02*
X5080000Y33528000D01*
X7874000Y32512000D02*
X8729969Y33367969D01*
X5080000Y33528000D02*
X6096000Y32512000D01*
X6096000Y32512000D02*
X7874000Y32512000D01*
X8729969Y33367969D02*
X8740202Y33367969D01*
D52*
X12380312Y-24959113D02*
X12630311Y-25209112D01*
X12299580Y-24878381D02*
X12380312Y-24959113D01*
X12299580Y-23137520D02*
X12299580Y-24878381D01*
D50*
X2540000Y29210000D02*
X2286000Y29464000D01*
X7973553Y30480000D02*
X9800862Y32307309D01*
X4064000Y29210000D02*
X5080000Y29210000D01*
X5080000Y29210000D02*
X6350000Y30480000D01*
X6350000Y30480000D02*
X7973553Y30480000D01*
X4064000Y29210000D02*
X2540000Y29210000D01*
X2286000Y29464000D02*
X1270000Y30480000D01*
X11176000Y28702000D02*
X11049000Y28575000D01*
X11049000Y28575000D02*
X11049000Y27084000D01*
D52*
X8128000Y-25095200D02*
X9094760Y-25095200D01*
X9094760Y-25095200D02*
X10099940Y-24090020D01*
X10099940Y-24090020D02*
X10099940Y-23137520D01*
D50*
X4826000Y28448000D02*
X1535174Y28448000D01*
X4826000Y28448000D02*
X1778000Y28448000D01*
X4826000Y28448000D02*
X5080000Y28448000D01*
X5080000Y28448000D02*
X6604000Y29972000D01*
X1778000Y28448000D02*
X1270000Y27940000D01*
X6604000Y29972000D02*
X8172661Y29972000D01*
X8172661Y29972000D02*
X10154416Y31953755D01*
X10160000Y28702000D02*
X9779000Y28321000D01*
X9779000Y28321000D02*
X9779000Y27084000D01*
D52*
X7897760Y-23137520D02*
X7897760Y-21918560D01*
X7897760Y-21918560D02*
X7518400Y-21539200D01*
D50*
X8509000Y22384000D02*
X8509000Y21684000D01*
X11938000Y25813000D02*
X8509000Y22384000D01*
X11938000Y28194000D02*
X11938000Y25813000D01*
X4064000Y27178000D02*
X4572000Y27178000D01*
X4572000Y27178000D02*
X6858000Y29464000D01*
X6858000Y29464000D02*
X8371767Y29464000D01*
X8371767Y29464000D02*
X10507969Y31600202D01*
X4064000Y27178000D02*
X3048000Y27178000D01*
X3048000Y27178000D02*
X1270000Y25400000D01*
X10861522Y31246649D02*
X8570873Y28956000D01*
X8570873Y28956000D02*
X7112000Y28956000D01*
X7112000Y28956000D02*
X4572000Y26416000D01*
X2540000Y25654000D02*
X2540000Y24130000D01*
X4572000Y26416000D02*
X3302000Y26416000D01*
X3302000Y26416000D02*
X2540000Y25654000D01*
X2540000Y24130000D02*
X1270000Y22860000D01*
X13716000Y37338000D02*
X13716000Y32766000D01*
X13716000Y32766000D02*
X12446000Y31496000D01*
X12446000Y31496000D02*
X11817981Y31496000D01*
X11817981Y31496000D02*
X11215076Y30893095D01*
X21590000Y38100000D02*
X24130000Y38100000D01*
X9906000Y29464000D02*
X10493087Y29464000D01*
X10493087Y29464000D02*
X11568629Y30539542D01*
D52*
X17422353Y-10965156D02*
X17068800Y-10965156D01*
X25603212Y13766788D02*
X25603212Y-9913652D01*
X24551708Y-10965156D02*
X17422353Y-10965156D01*
X24130000Y15240000D02*
X25603212Y13766788D01*
X25603212Y-9913652D02*
X24551708Y-10965156D01*
X10414000Y-9079600D02*
X10414000Y-9832800D01*
X10414000Y-9832800D02*
X11694755Y-11113555D01*
D50*
X14478000Y27686000D02*
X14478000Y29892913D01*
X14478000Y29892913D02*
X13831371Y30539542D01*
D52*
X16176588Y-11210310D02*
X15926589Y-10960311D01*
X24550608Y-11469166D02*
X16435444Y-11469166D01*
X16435444Y-11469166D02*
X16176588Y-11210310D01*
X24130000Y17780000D02*
X25958823Y15951177D01*
X25958823Y-10060951D02*
X24550608Y-11469166D01*
X25958823Y15951177D02*
X25958823Y-10060951D01*
X8432800Y-9079600D02*
X8432800Y-9347200D01*
X8432800Y-9347200D02*
X7366000Y-10414000D01*
D50*
X15240000Y27686000D02*
X15240000Y30545127D01*
X15240000Y30545127D02*
X14538478Y31246649D01*
D52*
X25247601Y11582399D02*
X24993599Y11836401D01*
X25247601Y-9766354D02*
X25247601Y11582399D01*
X24557654Y-10456301D02*
X25247601Y-9766354D01*
X24993599Y11836401D02*
X24130000Y12700000D01*
X15189200Y-10668000D02*
X15400899Y-10456301D01*
X13399400Y-15674276D02*
X15189200Y-13884476D01*
X15400899Y-10456301D02*
X24557654Y-10456301D01*
X13399400Y-22738740D02*
X13399400Y-15674276D01*
X15189200Y-13884476D02*
X15189200Y-10668000D01*
X13411200Y-22726940D02*
X13399400Y-22738740D01*
D50*
X16002000Y27432000D02*
X16002000Y30480000D01*
X14224000Y26924000D02*
X15494000Y26924000D01*
X13716000Y27686000D02*
X13716000Y27432000D01*
X13716000Y27432000D02*
X14224000Y26924000D01*
X15494000Y26924000D02*
X16002000Y27432000D01*
X16002000Y30480000D02*
X14892031Y31589969D01*
X14892031Y31589969D02*
X14892031Y31600202D01*
X17272000Y27178000D02*
X17272000Y29927339D01*
X17272000Y29927339D02*
X15245584Y31953755D01*
D52*
X22974779Y-12535999D02*
X17740801Y-12535999D01*
X17740801Y-12535999D02*
X17068800Y-13208000D01*
X27051000Y-10731500D02*
X25246501Y-12535999D01*
X27051000Y22479000D02*
X27051000Y-10731500D01*
X24130000Y25400000D02*
X27051000Y22479000D01*
X25246501Y-12535999D02*
X22974779Y-12535999D01*
D50*
X18034000Y29872447D02*
X15599138Y32307309D01*
X18034000Y27178000D02*
X18034000Y29872447D01*
D52*
X20035000Y6987000D02*
X20035000Y7340200D01*
X20035000Y7340200D02*
X18845999Y8529201D01*
X18845999Y8529201D02*
X18845999Y9804001D01*
X19650000Y12200000D02*
X18896800Y12200000D01*
X18896800Y12200000D02*
X18845999Y12149199D01*
X18845999Y12149199D02*
X18845999Y9804001D01*
X20135000Y6987000D02*
X20035000Y6987000D01*
D50*
X21173355Y11073355D02*
X20850000Y10750000D01*
X21173355Y12200000D02*
X21173355Y11073355D01*
X21173355Y14173355D02*
X21173355Y12200000D01*
X19650000Y12200000D02*
X21173355Y12200000D01*
X21173355Y19473355D02*
X21173355Y14173355D01*
X21173355Y26873355D02*
X21173355Y19473355D01*
X20900000Y27700000D02*
X21173355Y27426645D01*
X21173355Y27426645D02*
X21173355Y26873355D01*
X18796000Y29804000D02*
X20900000Y27700000D01*
X18796000Y29817553D02*
X18796000Y29804000D01*
X18796000Y29817553D02*
X15952691Y32660862D01*
D52*
X20035000Y6487000D02*
X20488200Y6487000D01*
X19650000Y9746800D02*
X19650000Y10450000D01*
X20488200Y6487000D02*
X20828000Y6826800D01*
X20828000Y6826800D02*
X20828000Y8568800D01*
X20828000Y8568800D02*
X19650000Y9746800D01*
D50*
X21437957Y10270598D02*
X21617359Y10450000D01*
X20454000Y9696000D02*
X20863359Y9696000D01*
X20863359Y9696000D02*
X21437957Y10270598D01*
X19700000Y10450000D02*
X20454000Y9696000D01*
X19650000Y10450000D02*
X19700000Y10450000D01*
X21617359Y14117359D02*
X21617359Y10450000D01*
X21617359Y10450000D02*
X21617359Y8917359D01*
X21617359Y8917359D02*
X21500000Y8800000D01*
D52*
X21617359Y13964159D02*
X21617359Y14117359D01*
D50*
X21617359Y14117359D02*
X21617359Y27703302D01*
X21617359Y27703302D02*
X19558000Y29762661D01*
X19558000Y29762661D02*
X16306245Y33014416D01*
X20667001Y2500000D02*
X20667001Y-1094985D01*
X20667001Y-1094985D02*
X19111978Y-2650008D01*
X19111978Y-2650008D02*
X19111978Y-4625250D01*
X19111978Y-4625250D02*
X20511728Y-6025000D01*
X20511728Y-6025000D02*
X21500000Y-6025000D01*
X21500000Y-6025000D02*
X22500000Y-6025000D01*
X22071510Y4613272D02*
X20667001Y3208763D01*
X20667001Y3208763D02*
X20667001Y2500000D01*
X16659798Y33367969D02*
X22071510Y27956257D01*
X22071510Y27956257D02*
X22071510Y4613272D01*
X20000000Y2200000D02*
X20604000Y2200000D01*
X20604000Y2200000D02*
X20667001Y2263001D01*
X20667001Y2263001D02*
X20667001Y2500000D01*
X22500000Y-5375000D02*
X20571000Y-5375000D01*
X20571000Y-5375000D02*
X19555989Y-4359989D01*
X21132032Y-1257880D02*
X21132032Y2200000D01*
X19555989Y-4359989D02*
X19555989Y-2833923D01*
X19555989Y-2833923D02*
X21132032Y-1257880D01*
X22505380Y4450000D02*
X22505380Y28229493D01*
X21132032Y2500000D02*
X21132032Y3076652D01*
X21132032Y3076652D02*
X22505380Y4450000D01*
X21132032Y2200000D02*
X21132032Y2500000D01*
X22000000Y2200000D02*
X21132032Y2200000D01*
X17543680Y33191193D02*
X17013351Y33721522D01*
X22505380Y28229493D02*
X17543680Y33191193D01*
X21132032Y2463968D02*
X21132032Y2500000D01*
X16764000Y51054000D02*
X16764000Y51562000D01*
X16764000Y51562000D02*
X16256000Y52070000D01*
X16256000Y52070000D02*
X15240000Y52070000D01*
X15240000Y52070000D02*
X14478000Y51308000D01*
X14478000Y51308000D02*
X14478000Y47752000D01*
X14478000Y47752000D02*
X16764000Y45466000D01*
X16764000Y45466000D02*
X16764000Y41391767D01*
X16764000Y41391767D02*
X14892031Y39519798D01*
X14478000Y52324000D02*
X13970000Y51816000D01*
X13970000Y51816000D02*
X13970000Y47498000D01*
X13970000Y47498000D02*
X16256000Y45212000D01*
X16256000Y45212000D02*
X16256000Y41590873D01*
X16256000Y41590873D02*
X14538478Y39873351D01*
D52*
X5572800Y66383600D02*
X4915600Y66383600D01*
X4915600Y66383600D02*
X3708400Y65176400D01*
X5572800Y66183600D02*
X5572800Y66383600D01*
D50*
X4318000Y34036000D02*
X2286000Y34036000D01*
X2286000Y34036000D02*
X1270000Y33020000D01*
X12446000Y37338000D02*
X12446000Y38487981D01*
X12446000Y38487981D02*
X14184924Y40226905D01*
X19050000Y37084000D02*
X19670000Y37084000D01*
X18542000Y36576000D02*
X19050000Y37084000D01*
X16306245Y38105584D02*
X15748000Y37547339D01*
X15748000Y37547339D02*
X15748000Y37084000D01*
X15748000Y37084000D02*
X17068800Y35763200D01*
X17068800Y35763200D02*
X17729200Y35763200D01*
X17729200Y35763200D02*
X18542000Y36576000D01*
X2540000Y44450000D02*
X2794000Y44196000D01*
X2794000Y44196000D02*
X7874000Y44196000D01*
X7874000Y44196000D02*
X8890000Y43180000D01*
X8890000Y43180000D02*
X8890000Y41137767D01*
X8890000Y41137767D02*
X9021767Y41006000D01*
X6731000Y41006000D02*
X8001000Y41006000D01*
X8001000Y41006000D02*
X9021767Y41006000D01*
X9021767Y41006000D02*
X10507969Y39519798D01*
X9895767Y40132000D02*
X10507969Y39519798D01*
X26219000Y53594000D02*
X26219000Y58754000D01*
X24130000Y50800000D02*
X25351314Y50800000D01*
X25351314Y50800000D02*
X26219000Y51667686D01*
X26219000Y51667686D02*
X26219000Y52615000D01*
X26219000Y52615000D02*
X26219000Y53594000D01*
X18796000Y47640000D02*
X21478000Y47640000D01*
X21478000Y47640000D02*
X22098000Y48260000D01*
X22098000Y48260000D02*
X22098000Y50546000D01*
X22098000Y50546000D02*
X22098000Y50800000D01*
X17526000Y47640000D02*
X18796000Y47640000D01*
X24130000Y50800000D02*
X22098000Y50800000D01*
X20574000Y51054000D02*
X21844000Y51054000D01*
X21844000Y51054000D02*
X22098000Y50800000D01*
D51*
X11150000Y6700000D02*
X12281000Y6700000D01*
X12281000Y6700000D02*
X13716000Y8135000D01*
X13716000Y8135000D02*
X13716000Y8171000D01*
X13716000Y8171000D02*
X13716000Y9002000D01*
D50*
X13718000Y9000000D02*
X13716000Y9002000D01*
X22500000Y-4725000D02*
X20571000Y-4725000D01*
X22949389Y2584125D02*
X22949389Y28434389D01*
X20571000Y-4725000D02*
X20000000Y-4154000D01*
X20000000Y-4154000D02*
X20000000Y-3083516D01*
X20000000Y-3083516D02*
X23579402Y495886D01*
X21844000Y34336000D02*
X20970000Y35210000D01*
X23579402Y495886D02*
X23579401Y1954113D01*
X20970000Y35210000D02*
X20970000Y35814000D01*
X23579401Y1954113D02*
X22949389Y2584125D01*
X22949389Y28434389D02*
X21844000Y29539778D01*
X21844000Y29539778D02*
X21844000Y34336000D01*
X20970000Y35814000D02*
X20970000Y37084000D01*
X24130000Y45720000D02*
X23876000Y45720000D01*
X23876000Y45720000D02*
X22860000Y44704000D01*
X22860000Y44704000D02*
X22860000Y40386000D01*
X22860000Y40386000D02*
X20320000Y37846000D01*
X20320000Y37846000D02*
X18875087Y37846000D01*
X18875087Y37846000D02*
X17720458Y36691371D01*
X24130000Y48260000D02*
X22352000Y46482000D01*
X18675981Y38354000D02*
X17366905Y37044924D01*
X22352000Y46482000D02*
X22352000Y40640000D01*
X22352000Y40640000D02*
X20066000Y38354000D01*
X20066000Y38354000D02*
X18675981Y38354000D01*
X11514000Y14208000D02*
X14320000Y14208000D01*
X14320000Y14208000D02*
X14336000Y14224000D01*
X13208000Y15494000D02*
X12700000Y16002000D01*
X14336000Y15494000D02*
X13208000Y15494000D01*
X12700000Y16002000D02*
X10922000Y16002000D01*
X10922000Y16002000D02*
X10789000Y15869000D01*
X10789000Y15869000D02*
X10789000Y15433000D01*
D53*
X13716000Y10302000D02*
X13716000Y11176000D01*
X13081000Y11176000D02*
X12446000Y11176000D01*
X13081000Y11176000D02*
X13716000Y11176000D01*
X12446000Y10302000D02*
X12446000Y11176000D01*
X12446000Y10302000D02*
X13716000Y10302000D01*
D50*
X15120000Y25654000D02*
X16876000Y25654000D01*
X15120000Y25654000D02*
X15748000Y25654000D01*
X5730000Y10160000D02*
X6350000Y10160000D01*
X6350000Y10160000D02*
X7112000Y10922000D01*
X7112000Y10922000D02*
X7112000Y11938000D01*
X7657000Y12483000D02*
X9289000Y12483000D01*
X7112000Y11938000D02*
X7657000Y12483000D01*
X18235000Y6487000D02*
X16723000Y6487000D01*
X16723000Y6487000D02*
X16598000Y6612000D01*
X16598000Y7366000D02*
X16598000Y6612000D01*
X16598000Y6612000D02*
X15701000Y5715000D01*
X15701000Y5715000D02*
X15624000Y5715000D01*
X15624000Y5715000D02*
X14820000Y5715000D01*
D52*
X4151293Y71854813D02*
X5763293Y71854813D01*
X5763293Y71854813D02*
X5776893Y71841213D01*
D50*
X16637000Y4406000D02*
X15416000Y4406000D01*
X15416000Y4406000D02*
X14820000Y3810000D01*
X16637000Y4406000D02*
X16637000Y5210000D01*
X16637000Y5210000D02*
X17414000Y5987000D01*
X17414000Y5987000D02*
X17731000Y5987000D01*
X17731000Y5987000D02*
X18235000Y5987000D01*
X12954000Y27686000D02*
X12954000Y27940000D01*
X12954000Y27940000D02*
X13970000Y28956000D01*
X13970000Y28956000D02*
X13970000Y29591000D01*
X13970000Y29591000D02*
X12827000Y30734000D01*
X12827000Y30734000D02*
X12827000Y31115000D01*
X12954000Y27686000D02*
X12820000Y27552000D01*
X12820000Y27552000D02*
X12820000Y26604000D01*
X13208000Y31496000D02*
X13582019Y31496000D01*
X12827000Y31115000D02*
X13208000Y31496000D01*
X13582019Y31496000D02*
X14184924Y30893095D01*
D52*
X6502400Y-7379600D02*
X4724400Y-7379600D01*
X2895600Y-7379600D02*
X1117600Y-7379600D01*
X3962400Y-10594800D02*
X3962400Y-12852400D01*
X3962400Y-12852400D02*
X3403600Y-13411200D01*
X4724400Y-9079600D02*
X4724400Y-9832800D01*
X4724400Y-9832800D02*
X3962400Y-10594800D01*
X3556000Y-10871200D02*
X3556000Y-12192000D01*
X3556000Y-12192000D02*
X3352800Y-12395200D01*
X2997200Y-10312400D02*
X3556000Y-10871200D01*
X1597200Y-10312400D02*
X2997200Y-10312400D01*
X1117600Y-9079600D02*
X1117600Y-9832800D01*
X1117600Y-9832800D02*
X1597200Y-10312400D01*
X166000Y57667600D02*
X166000Y55886400D01*
X166000Y61725200D02*
X166000Y59998000D01*
X166000Y65786000D02*
X166000Y64065200D01*
X1866000Y55886400D02*
X4619600Y55886400D01*
X4619600Y55886400D02*
X4622800Y55889600D01*
X1866000Y59998000D02*
X4622800Y59998000D01*
X4622800Y64083600D02*
X1884400Y64083600D01*
X1884400Y64083600D02*
X1866000Y64065200D01*
M02*
