G04 #@! TF.FileFunction,Soldermask,Bot*
%FSLAX46Y46*%
G04 Gerber Fmt 4.6, Leading zero omitted, Abs format (unit mm)*
G04 Created by KiCad (PCBNEW 4.0.7-e2-6376~58~ubuntu16.04.1) date Wed Jan 10 12:03:20 2018*
%MOMM*%
%LPD*%
G01*
G04 APERTURE LIST*
%ADD10C,0.100000*%
%ADD11R,2.300000X0.800000*%
%ADD12R,0.800000X2.300000*%
%ADD13R,1.903200X1.903200*%
%ADD14O,1.903200X1.903200*%
%ADD15C,1.403200*%
%ADD16C,1.903200*%
%ADD17R,0.901700X1.701800*%
%ADD18R,2.001520X1.602740*%
%ADD19R,1.602740X2.103120*%
%ADD20C,2.403200*%
%ADD21R,2.203200X1.503200*%
%ADD22R,4.403200X1.473200*%
%ADD23R,1.203960X2.202180*%
G04 APERTURE END LIST*
D10*
D11*
X27102887Y21414821D03*
X27102887Y22430821D03*
X27102887Y23446822D03*
X27102887Y24462822D03*
X27102887Y25478821D03*
X27102887Y26494821D03*
X27102887Y27510821D03*
X27102887Y28526821D03*
X27102887Y18366821D03*
D12*
X32822337Y31197221D03*
X31806337Y31197221D03*
X30790337Y31197221D03*
X29774337Y31197221D03*
X36886337Y31197221D03*
X38918340Y31197221D03*
X39934337Y31197221D03*
X40950337Y31197221D03*
X41966337Y31197221D03*
X30782117Y16466951D03*
X31798117Y16466951D03*
X32814117Y16466951D03*
X33830117Y16466951D03*
X34846117Y16466951D03*
X35862117Y16466951D03*
X36878117Y16466951D03*
X37894121Y16466951D03*
X38910121Y16466951D03*
X39926117Y16466951D03*
D13*
X66410787Y13415091D03*
D14*
X63870787Y13415091D03*
X61330787Y13415091D03*
X58790787Y13415091D03*
X56250787Y13415091D03*
X53710787Y13415091D03*
D15*
X71661187Y27558091D03*
X71661187Y32408091D03*
D16*
X74311187Y26358091D03*
X74311187Y33608091D03*
D17*
X64760787Y34243091D03*
X63660967Y33844311D03*
X62561147Y34243091D03*
X61461327Y34644411D03*
X60361507Y34243091D03*
X59259147Y34644411D03*
X58159327Y34243091D03*
X57059507Y34243091D03*
D18*
X57760547Y24044991D03*
X63760027Y24044991D03*
D19*
X56160347Y37143771D03*
X69360727Y38045471D03*
D20*
X74450787Y13545091D03*
X74550787Y36345091D03*
X-28568213Y13545091D03*
X-28568213Y36345091D03*
D21*
X17261787Y31845091D03*
X17261787Y29845091D03*
X17261787Y27845091D03*
X17261787Y25845091D03*
X17261787Y23845091D03*
X17261787Y21845091D03*
X17261787Y19845091D03*
X17261787Y17845091D03*
X1261787Y17845091D03*
X1261787Y19845091D03*
X1261787Y21845091D03*
X1261787Y23845091D03*
X1261787Y25845091D03*
X1261787Y27845091D03*
X1261787Y29845091D03*
X1261787Y31845091D03*
D22*
X-28368213Y30895491D03*
X-28368213Y28395491D03*
X-28368213Y33395491D03*
D23*
X-11022653Y20527091D03*
X-12521253Y20527091D03*
X-14022393Y20527091D03*
X-15520993Y20527091D03*
X-17022133Y20527091D03*
X-18520733Y20527091D03*
X-20021873Y20527091D03*
X-21520473Y20527091D03*
X-23021613Y20527091D03*
X-24520213Y20527091D03*
X-24520213Y36529091D03*
X-23021613Y36529091D03*
X-21520473Y36529091D03*
X-20021873Y36529091D03*
X-18520733Y36529091D03*
X-17022133Y36529091D03*
X-15520993Y36529091D03*
X-14022393Y36529091D03*
X-12521253Y36529091D03*
X-11022653Y36529091D03*
D13*
X-24126513Y13148391D03*
D22*
X-28381013Y19003091D03*
X-28381013Y16503091D03*
X-28381013Y21503091D03*
D13*
X25704800Y37554000D03*
D14*
X23164800Y37554000D03*
X20624800Y37554000D03*
X18084800Y37554000D03*
X15544800Y37554000D03*
X13004800Y37554000D03*
X10464800Y37554000D03*
M02*
