G04 #@! TF.FileFunction,Legend,Bot*
%FSLAX46Y46*%
G04 Gerber Fmt 4.6, Leading zero omitted, Abs format (unit mm)*
G04 Created by KiCad (PCBNEW 4.0.7-e2-6376~58~ubuntu16.04.1) date Wed Jan 10 12:03:20 2018*
%MOMM*%
%LPD*%
G01*
G04 APERTURE LIST*
%ADD10C,0.100000*%
%ADD11C,0.127000*%
%ADD12C,0.300000*%
%ADD13C,0.150000*%
%ADD14C,0.381000*%
%ADD15C,0.254000*%
G04 APERTURE END LIST*
D10*
X48823887Y16464351D02*
X27103887Y16464351D01*
X27103887Y16464351D02*
X27103887Y31194351D01*
X27103887Y31194351D02*
X48823887Y31194351D01*
X48823887Y31194351D02*
X48823887Y16464351D01*
D11*
X68761287Y38743971D02*
X69759507Y38743971D01*
X69759507Y38743971D02*
X69759507Y23643671D01*
X69759507Y23643671D02*
X55761567Y23643671D01*
X55761567Y23643671D02*
X55761567Y38045471D01*
X55761567Y38045471D02*
X56759787Y38045471D01*
X57460827Y37143771D02*
X67161087Y37143771D01*
X57359227Y39503431D02*
X66559107Y39503431D01*
X57359227Y40405131D02*
X66559107Y40405131D01*
X57359227Y44204971D02*
X66559107Y44204971D01*
X57458287Y37143771D02*
G75*
G02X56759787Y38045471I101600J800100D01*
G01*
X68761287Y38743971D02*
G75*
G02X67161087Y37143771I-1600200J0D01*
G01*
X56160347Y38304551D02*
G75*
G02X57359227Y39503431I1198880J0D01*
G01*
X66561647Y39503431D02*
G75*
G02X67859587Y38403611I99060J-1198880D01*
G01*
X56157807Y39203711D02*
G75*
G02X57359227Y40405131I1201420J0D01*
G01*
X66559107Y40402591D02*
G75*
G02X67859587Y39305311I101600J-1198880D01*
G01*
X56157807Y43003551D02*
G75*
G02X57359227Y44204971I1201420J0D01*
G01*
X66559107Y44202431D02*
G75*
G02X67859587Y43105151I101600J-1198880D01*
G01*
D12*
X17932498Y32945091D02*
G75*
G03X17932498Y32945091I-70711J0D01*
G01*
D13*
X17261787Y32845091D02*
X1261787Y32845091D01*
X17261787Y16845091D02*
X1261787Y16845091D01*
D14*
X-17771433Y20527091D02*
X-9770433Y20527091D01*
X-9770433Y20527091D02*
X-9770433Y36529091D01*
X-9770433Y36529091D02*
X-23770913Y36529091D01*
X-23770913Y36529091D02*
X-25772433Y36529091D01*
X-25772433Y36529091D02*
X-25772433Y20527091D01*
X-25772433Y20527091D02*
X-17771433Y20527091D01*
D15*
G36*
X15992787Y17098091D02*
X2530787Y17098091D01*
X2530787Y32592091D01*
X15992787Y32592091D01*
X15992787Y17098091D01*
X15992787Y17098091D01*
G37*
X15992787Y17098091D02*
X2530787Y17098091D01*
X2530787Y32592091D01*
X15992787Y32592091D01*
X15992787Y17098091D01*
G36*
X11166787Y34624091D02*
X9896787Y34624091D01*
X9896787Y34878091D01*
X11166787Y34878091D01*
X11166787Y34624091D01*
X11166787Y34624091D01*
G37*
X11166787Y34624091D02*
X9896787Y34624091D01*
X9896787Y34878091D01*
X11166787Y34878091D01*
X11166787Y34624091D01*
G36*
X16246787Y34624091D02*
X14976787Y34624091D01*
X14976787Y34878091D01*
X16246787Y34878091D01*
X16246787Y34624091D01*
X16246787Y34624091D01*
G37*
X16246787Y34624091D02*
X14976787Y34624091D01*
X14976787Y34878091D01*
X16246787Y34878091D01*
X16246787Y34624091D01*
G36*
X18767494Y34624091D02*
X17497494Y34624091D01*
X17497494Y34878091D01*
X18767494Y34878091D01*
X18767494Y34624091D01*
X18767494Y34624091D01*
G37*
X18767494Y34624091D02*
X17497494Y34624091D01*
X17497494Y34878091D01*
X18767494Y34878091D01*
X18767494Y34624091D01*
G36*
X-10133379Y21913091D02*
X-25329379Y21913091D01*
X-25329379Y35259091D01*
X-10133379Y35259091D01*
X-10133379Y21913091D01*
X-10133379Y21913091D01*
G37*
X-10133379Y21913091D02*
X-25329379Y21913091D01*
X-25329379Y35259091D01*
X-10133379Y35259091D01*
X-10133379Y21913091D01*
M02*
