G04 #@! TF.FileFunction,Legend,Top*
%FSLAX46Y46*%
G04 Gerber Fmt 4.6, Leading zero omitted, Abs format (unit mm)*
G04 Created by KiCad (PCBNEW 4.0.7-e2-6376~58~ubuntu16.04.1) date Tue Jul 10 13:57:30 2018*
%MOMM*%
%LPD*%
G01*
G04 APERTURE LIST*
%ADD10C,0.100000*%
%ADD11C,0.180000*%
%ADD12C,0.300000*%
%ADD13C,0.200000*%
%ADD14C,0.150000*%
%ADD15C,0.127000*%
%ADD16C,0.120000*%
%ADD17C,0.010000*%
G04 APERTURE END LIST*
D10*
D11*
X16930619Y16700286D02*
X16121095Y16700286D01*
X16025857Y16652667D01*
X15978238Y16605048D01*
X15930619Y16509810D01*
X15930619Y16319333D01*
X15978238Y16224095D01*
X16025857Y16176476D01*
X16121095Y16128857D01*
X16930619Y16128857D01*
X15978238Y15700286D02*
X15930619Y15557429D01*
X15930619Y15319333D01*
X15978238Y15224095D01*
X16025857Y15176476D01*
X16121095Y15128857D01*
X16216333Y15128857D01*
X16311571Y15176476D01*
X16359190Y15224095D01*
X16406810Y15319333D01*
X16454429Y15509810D01*
X16502048Y15605048D01*
X16549667Y15652667D01*
X16644905Y15700286D01*
X16740143Y15700286D01*
X16835381Y15652667D01*
X16883000Y15605048D01*
X16930619Y15509810D01*
X16930619Y15271714D01*
X16883000Y15128857D01*
X16454429Y14700286D02*
X16454429Y14366952D01*
X15930619Y14224095D02*
X15930619Y14700286D01*
X16930619Y14700286D01*
X16930619Y14224095D01*
X15930619Y13224095D02*
X16406810Y13557429D01*
X15930619Y13795524D02*
X16930619Y13795524D01*
X16930619Y13414571D01*
X16883000Y13319333D01*
X16835381Y13271714D01*
X16740143Y13224095D01*
X16597286Y13224095D01*
X16502048Y13271714D01*
X16454429Y13319333D01*
X16406810Y13414571D01*
X16406810Y13795524D01*
X5389619Y-16724381D02*
X5865810Y-16391047D01*
X5389619Y-16152952D02*
X6389619Y-16152952D01*
X6389619Y-16533905D01*
X6342000Y-16629143D01*
X6294381Y-16676762D01*
X6199143Y-16724381D01*
X6056286Y-16724381D01*
X5961048Y-16676762D01*
X5913429Y-16629143D01*
X5865810Y-16533905D01*
X5865810Y-16152952D01*
X5437238Y-17105333D02*
X5389619Y-17248190D01*
X5389619Y-17486286D01*
X5437238Y-17581524D01*
X5484857Y-17629143D01*
X5580095Y-17676762D01*
X5675333Y-17676762D01*
X5770571Y-17629143D01*
X5818190Y-17581524D01*
X5865810Y-17486286D01*
X5913429Y-17295809D01*
X5961048Y-17200571D01*
X6008667Y-17152952D01*
X6103905Y-17105333D01*
X6199143Y-17105333D01*
X6294381Y-17152952D01*
X6342000Y-17200571D01*
X6389619Y-17295809D01*
X6389619Y-17533905D01*
X6342000Y-17676762D01*
X6389619Y-17962476D02*
X6389619Y-18533905D01*
X5389619Y-18248190D02*
X6389619Y-18248190D01*
D12*
X-25430889Y3403600D02*
G75*
G03X-25430889Y3403600I-70711J0D01*
G01*
X-33431889Y-9626600D02*
G75*
G03X-33431889Y-9626600I-70711J0D01*
G01*
X25699311Y-13639800D02*
G75*
G03X25699311Y-13639800I-70711J0D01*
G01*
D11*
X-27122381Y-16026000D02*
X-26122381Y-16026000D01*
X-26122381Y-16264095D01*
X-26170000Y-16406953D01*
X-26265238Y-16502191D01*
X-26360476Y-16549810D01*
X-26550952Y-16597429D01*
X-26693810Y-16597429D01*
X-26884286Y-16549810D01*
X-26979524Y-16502191D01*
X-27074762Y-16406953D01*
X-27122381Y-16264095D01*
X-27122381Y-16026000D01*
X-26836667Y-16978381D02*
X-26836667Y-17454572D01*
X-27122381Y-16883143D02*
X-26122381Y-17216476D01*
X-27122381Y-17549810D01*
X-26122381Y-17740286D02*
X-26122381Y-18311715D01*
X-27122381Y-18026000D02*
X-26122381Y-18026000D01*
X-26836667Y-18597429D02*
X-26836667Y-19073620D01*
X-27122381Y-18502191D02*
X-26122381Y-18835524D01*
X-27122381Y-19168858D01*
X-34408904Y-15597143D02*
X-34456523Y-15644762D01*
X-34599380Y-15692381D01*
X-34694618Y-15692381D01*
X-34837476Y-15644762D01*
X-34932714Y-15549524D01*
X-34980333Y-15454286D01*
X-35027952Y-15263810D01*
X-35027952Y-15120952D01*
X-34980333Y-14930476D01*
X-34932714Y-14835238D01*
X-34837476Y-14740000D01*
X-34694618Y-14692381D01*
X-34599380Y-14692381D01*
X-34456523Y-14740000D01*
X-34408904Y-14787619D01*
X-33789857Y-14692381D02*
X-33599380Y-14692381D01*
X-33504142Y-14740000D01*
X-33408904Y-14835238D01*
X-33361285Y-15025714D01*
X-33361285Y-15359048D01*
X-33408904Y-15549524D01*
X-33504142Y-15644762D01*
X-33599380Y-15692381D01*
X-33789857Y-15692381D01*
X-33885095Y-15644762D01*
X-33980333Y-15549524D01*
X-34027952Y-15359048D01*
X-34027952Y-15025714D01*
X-33980333Y-14835238D01*
X-33885095Y-14740000D01*
X-33789857Y-14692381D01*
X-32932714Y-15692381D02*
X-32932714Y-14692381D01*
X-32361285Y-15692381D01*
X-32361285Y-14692381D01*
X-31885095Y-15692381D02*
X-31885095Y-14692381D01*
X-31313666Y-15692381D01*
X-31313666Y-14692381D01*
D13*
X-3816171Y16322628D02*
X-3816171Y16655962D01*
X-4339981Y16655962D02*
X-3339981Y16655962D01*
X-3339981Y16179771D01*
X-4339981Y15798819D02*
X-3339981Y15798819D01*
X-3339981Y15417867D02*
X-4339981Y14751200D01*
X-3339981Y14751200D02*
X-4339981Y15417867D01*
X-42970629Y16092514D02*
X-43208724Y16759181D01*
X-43446820Y16092514D01*
X-44018248Y15759181D02*
X-44113487Y15759181D01*
X-44208725Y15806800D01*
X-44256344Y15854419D01*
X-44303963Y15949657D01*
X-44351582Y16140133D01*
X-44351582Y16378229D01*
X-44303963Y16568705D01*
X-44256344Y16663943D01*
X-44208725Y16711562D01*
X-44113487Y16759181D01*
X-44018248Y16759181D01*
X-43923010Y16711562D01*
X-43875391Y16663943D01*
X-43827772Y16568705D01*
X-43780153Y16378229D01*
X-43780153Y16140133D01*
X-43827772Y15949657D01*
X-43875391Y15854419D01*
X-43923010Y15806800D01*
X-44018248Y15759181D01*
X-44780153Y16663943D02*
X-44827772Y16711562D01*
X-44780153Y16759181D01*
X-44732534Y16711562D01*
X-44780153Y16663943D01*
X-44780153Y16759181D01*
X-45399200Y16187752D02*
X-45303962Y16140133D01*
X-45256343Y16092514D01*
X-45208724Y15997276D01*
X-45208724Y15949657D01*
X-45256343Y15854419D01*
X-45303962Y15806800D01*
X-45399200Y15759181D01*
X-45589677Y15759181D01*
X-45684915Y15806800D01*
X-45732534Y15854419D01*
X-45780153Y15949657D01*
X-45780153Y15997276D01*
X-45732534Y16092514D01*
X-45684915Y16140133D01*
X-45589677Y16187752D01*
X-45399200Y16187752D01*
X-45303962Y16235371D01*
X-45256343Y16282990D01*
X-45208724Y16378229D01*
X-45208724Y16568705D01*
X-45256343Y16663943D01*
X-45303962Y16711562D01*
X-45399200Y16759181D01*
X-45589677Y16759181D01*
X-45684915Y16711562D01*
X-45732534Y16663943D01*
X-45780153Y16568705D01*
X-45780153Y16378229D01*
X-45732534Y16282990D01*
X-45684915Y16235371D01*
X-45589677Y16187752D01*
X-31446743Y12909485D02*
X-31494362Y12957104D01*
X-31541981Y13099961D01*
X-31541981Y13195199D01*
X-31494362Y13338057D01*
X-31399124Y13433295D01*
X-31303886Y13480914D01*
X-31113410Y13528533D01*
X-30970552Y13528533D01*
X-30780076Y13480914D01*
X-30684838Y13433295D01*
X-30589600Y13338057D01*
X-30541981Y13195199D01*
X-30541981Y13099961D01*
X-30589600Y12957104D01*
X-30637219Y12909485D01*
X-31541981Y12480914D02*
X-30541981Y12480914D01*
X-31018171Y12480914D02*
X-31018171Y11909485D01*
X-31541981Y11909485D02*
X-30541981Y11909485D01*
X-30589600Y10909485D02*
X-30541981Y11004723D01*
X-30541981Y11147580D01*
X-30589600Y11290438D01*
X-30684838Y11385676D01*
X-30780076Y11433295D01*
X-30970552Y11480914D01*
X-31113410Y11480914D01*
X-31303886Y11433295D01*
X-31399124Y11385676D01*
X-31494362Y11290438D01*
X-31541981Y11147580D01*
X-31541981Y11052342D01*
X-31494362Y10909485D01*
X-31446743Y10861866D01*
X-31113410Y10861866D01*
X-31113410Y11052342D01*
X-31541981Y16716305D02*
X-30541981Y16716305D01*
X-30541981Y16335352D01*
X-30589600Y16240114D01*
X-30637219Y16192495D01*
X-30732457Y16144876D01*
X-30875314Y16144876D01*
X-30970552Y16192495D01*
X-31018171Y16240114D01*
X-31065790Y16335352D01*
X-31065790Y16716305D01*
X-30589600Y15192495D02*
X-30541981Y15287733D01*
X-30541981Y15430590D01*
X-30589600Y15573448D01*
X-30684838Y15668686D01*
X-30780076Y15716305D01*
X-30970552Y15763924D01*
X-31113410Y15763924D01*
X-31303886Y15716305D01*
X-31399124Y15668686D01*
X-31494362Y15573448D01*
X-31541981Y15430590D01*
X-31541981Y15335352D01*
X-31494362Y15192495D01*
X-31446743Y15144876D01*
X-31113410Y15144876D01*
X-31113410Y15335352D01*
X18603933Y16528986D02*
X18603933Y16052795D01*
X18318219Y16624224D02*
X19318219Y16290891D01*
X18318219Y15957557D01*
X18984886Y15195652D02*
X18318219Y15195652D01*
X19365838Y15433748D02*
X18651552Y15671843D01*
X18651552Y15052795D01*
X23620433Y16516286D02*
X23620433Y16040095D01*
X23334719Y16611524D02*
X24334719Y16278191D01*
X23334719Y15944857D01*
X24334719Y15135333D02*
X24334719Y15611524D01*
X23858529Y15659143D01*
X23906148Y15611524D01*
X23953767Y15516286D01*
X23953767Y15278190D01*
X23906148Y15182952D01*
X23858529Y15135333D01*
X23763290Y15087714D01*
X23525195Y15087714D01*
X23429957Y15135333D01*
X23382338Y15182952D01*
X23334719Y15278190D01*
X23334719Y15516286D01*
X23382338Y15611524D01*
X23429957Y15659143D01*
X28687733Y16516286D02*
X28687733Y16040095D01*
X28402019Y16611524D02*
X29402019Y16278191D01*
X28402019Y15944857D01*
X29402019Y15706762D02*
X29402019Y15087714D01*
X29021067Y15421048D01*
X29021067Y15278190D01*
X28973448Y15182952D01*
X28925829Y15135333D01*
X28830590Y15087714D01*
X28592495Y15087714D01*
X28497257Y15135333D01*
X28449638Y15182952D01*
X28402019Y15278190D01*
X28402019Y15563905D01*
X28449638Y15659143D01*
X28497257Y15706762D01*
X33456619Y16635286D02*
X34456619Y16635286D01*
X34456619Y16397191D01*
X34409000Y16254333D01*
X34313762Y16159095D01*
X34218524Y16111476D01*
X34028048Y16063857D01*
X33885190Y16063857D01*
X33694714Y16111476D01*
X33599476Y16159095D01*
X33504238Y16254333D01*
X33456619Y16397191D01*
X33456619Y16635286D01*
X33456619Y15111476D02*
X33456619Y15682905D01*
X33456619Y15397191D02*
X34456619Y15397191D01*
X34313762Y15492429D01*
X34218524Y15587667D01*
X34170905Y15682905D01*
X34456619Y14778143D02*
X34456619Y14159095D01*
X34075667Y14492429D01*
X34075667Y14349571D01*
X34028048Y14254333D01*
X33980429Y14206714D01*
X33885190Y14159095D01*
X33647095Y14159095D01*
X33551857Y14206714D01*
X33504238Y14254333D01*
X33456619Y14349571D01*
X33456619Y14635286D01*
X33504238Y14730524D01*
X33551857Y14778143D01*
D12*
X-3942862Y6557856D02*
G75*
G03X-3942862Y6557856I-70711J0D01*
G01*
D14*
X-3200400Y-3730547D02*
X1749347Y1219200D01*
X-8150147Y1219200D02*
X-3200400Y6168947D01*
X-3200400Y6168947D02*
X1749347Y1219200D01*
X-8150147Y1219200D02*
X-3200400Y-3730547D01*
D15*
X-48747680Y-2689860D02*
X-48747680Y-1691640D01*
X-48049180Y-15689580D02*
X-48049180Y-14691360D01*
D14*
X-3187124Y10298258D02*
X-2197174Y11288208D01*
X-5449866Y12561000D02*
X-4459916Y13550950D01*
X-3187124Y10298258D02*
X-5449866Y12561000D01*
X-4459916Y13550950D02*
X-2197174Y11288208D01*
X-1928475Y11019509D02*
X-2918425Y10029559D01*
X334267Y8756767D02*
X-655683Y7766817D01*
X-1928475Y11019509D02*
X334267Y8756767D01*
X-655683Y7766817D02*
X-2918425Y10029559D01*
X-9079000Y-2337000D02*
X-10479000Y-2337000D01*
X-9079000Y-5537000D02*
X-10479000Y-5537000D01*
X-9079000Y-2337000D02*
X-9079000Y-5537000D01*
X-10479000Y-5537000D02*
X-10479000Y-2337000D01*
X4634000Y6426400D02*
X6034000Y6426400D01*
X4634000Y9626400D02*
X6034000Y9626400D01*
X4634000Y6426400D02*
X4634000Y9626400D01*
X6034000Y9626400D02*
X6034000Y6426400D01*
X-10252408Y5719176D02*
X-8852408Y5719176D01*
X-10252408Y8919176D02*
X-8852408Y8919176D01*
X-10252408Y5719176D02*
X-10252408Y8919176D01*
X-8852408Y8919176D02*
X-8852408Y5719176D01*
X1281200Y6426400D02*
X2681200Y6426400D01*
X1281200Y9626400D02*
X2681200Y9626400D01*
X1281200Y6426400D02*
X1281200Y9626400D01*
X2681200Y9626400D02*
X2681200Y6426400D01*
X2957600Y6426400D02*
X4357600Y6426400D01*
X2957600Y9626400D02*
X4357600Y9626400D01*
X2957600Y6426400D02*
X2957600Y9626400D01*
X4357600Y9626400D02*
X4357600Y6426400D01*
X-40076514Y6091344D02*
X-40076514Y4691344D01*
X-36876514Y6091344D02*
X-36876514Y4691344D01*
X-40076514Y6091344D02*
X-36876514Y6091344D01*
X-36876514Y4691344D02*
X-40076514Y4691344D01*
X-7836042Y15270594D02*
X-9236042Y15270594D01*
X-7836042Y12070594D02*
X-9236042Y12070594D01*
X-7836042Y15270594D02*
X-7836042Y12070594D01*
X-9236042Y12070594D02*
X-9236042Y15270594D01*
X-32285553Y10780941D02*
X-32285553Y12180941D01*
X-35485553Y10780941D02*
X-35485553Y12180941D01*
X-32285553Y10780941D02*
X-35485553Y10780941D01*
X-35485553Y12180941D02*
X-32285553Y12180941D01*
X-45922612Y1583065D02*
X-45922612Y2983065D01*
X-49122612Y1583065D02*
X-49122612Y2983065D01*
X-45922612Y1583065D02*
X-49122612Y1583065D01*
X-49122612Y2983065D02*
X-45922612Y2983065D01*
X-26352300Y-3846600D02*
X-26352300Y-5246600D01*
X-23152300Y-3846600D02*
X-23152300Y-5246600D01*
X-26352300Y-3846600D02*
X-23152300Y-3846600D01*
X-23152300Y-5246600D02*
X-26352300Y-5246600D01*
X-43524400Y11709600D02*
X-42124400Y11709600D01*
X-43524400Y14909600D02*
X-42124400Y14909600D01*
X-43524400Y11709600D02*
X-43524400Y14909600D01*
X-42124400Y14909600D02*
X-42124400Y11709600D01*
X-35499153Y8828141D02*
X-35499153Y7428141D01*
X-32299153Y8828141D02*
X-32299153Y7428141D01*
X-35499153Y8828141D02*
X-32299153Y8828141D01*
X-32299153Y7428141D02*
X-35499153Y7428141D01*
X-35485553Y7151741D02*
X-35485553Y5751741D01*
X-32285553Y7151741D02*
X-32285553Y5751741D01*
X-35485553Y7151741D02*
X-32285553Y7151741D01*
X-32285553Y5751741D02*
X-35485553Y5751741D01*
X-24039600Y1479223D02*
X-25439600Y1479223D01*
X-24039600Y-1720777D02*
X-25439600Y-1720777D01*
X-24039600Y1479223D02*
X-24039600Y-1720777D01*
X-25439600Y-1720777D02*
X-25439600Y1479223D01*
X-25883981Y1479223D02*
X-27283981Y1479223D01*
X-25883981Y-1720777D02*
X-27283981Y-1720777D01*
X-25883981Y1479223D02*
X-25883981Y-1720777D01*
X-27283981Y-1720777D02*
X-27283981Y1479223D01*
X-32543310Y-8862314D02*
X-32543310Y-10262314D01*
X-29343310Y-8862314D02*
X-29343310Y-10262314D01*
X-32543310Y-8862314D02*
X-29343310Y-8862314D01*
X-29343310Y-10262314D02*
X-32543310Y-10262314D01*
X-29337200Y-8421600D02*
X-29337200Y-7021600D01*
X-32537200Y-8421600D02*
X-32537200Y-7021600D01*
X-29337200Y-8421600D02*
X-32537200Y-8421600D01*
X-32537200Y-7021600D02*
X-29337200Y-7021600D01*
X-27697200Y1486600D02*
X-29097200Y1486600D01*
X-27697200Y-1713400D02*
X-29097200Y-1713400D01*
X-27697200Y1486600D02*
X-27697200Y-1713400D01*
X-29097200Y-1713400D02*
X-29097200Y1486600D01*
X-30502214Y5842844D02*
X-29102214Y5842844D01*
X-30502214Y9042844D02*
X-29102214Y9042844D01*
X-30502214Y5842844D02*
X-30502214Y9042844D01*
X-29102214Y9042844D02*
X-29102214Y5842844D01*
X-17428781Y5746823D02*
X-16028781Y5746823D01*
X-17428781Y8946823D02*
X-16028781Y8946823D01*
X-17428781Y5746823D02*
X-17428781Y8946823D01*
X-16028781Y8946823D02*
X-16028781Y5746823D01*
X-19155981Y5746823D02*
X-17755981Y5746823D01*
X-19155981Y8946823D02*
X-17755981Y8946823D01*
X-19155981Y5746823D02*
X-19155981Y8946823D01*
X-17755981Y8946823D02*
X-17755981Y5746823D01*
X36209200Y16589200D02*
X36209200Y13389200D01*
X36209200Y13389200D02*
X34809200Y13389200D01*
X34809200Y13389200D02*
X34809200Y16589200D01*
X34809200Y16589200D02*
X36209200Y16589200D01*
X36209200Y16589200D02*
X36209200Y16789200D01*
X36209200Y16789200D02*
X34809200Y16789200D01*
X34809200Y16789200D02*
X34809200Y16589200D01*
X-32602400Y-19180000D02*
X-32602400Y-15980000D01*
X-32602400Y-15980000D02*
X-31202400Y-15980000D01*
X-31202400Y-15980000D02*
X-31202400Y-19180000D01*
X-31202400Y-19180000D02*
X-32602400Y-19180000D01*
X-32602400Y-19180000D02*
X-32602400Y-19380000D01*
X-32602400Y-19380000D02*
X-31202400Y-19380000D01*
X-31202400Y-19380000D02*
X-31202400Y-19180000D01*
X-28936730Y-19199830D02*
X-28936730Y-15999830D01*
X-28936730Y-15999830D02*
X-27536730Y-15999830D01*
X-27536730Y-15999830D02*
X-27536730Y-19199830D01*
X-27536730Y-19199830D02*
X-28936730Y-19199830D01*
X-28936730Y-19199830D02*
X-28936730Y-19399830D01*
X-28936730Y-19399830D02*
X-27536730Y-19399830D01*
X-27536730Y-19399830D02*
X-27536730Y-19199830D01*
X31129200Y16589200D02*
X31129200Y13389200D01*
X31129200Y13389200D02*
X29729200Y13389200D01*
X29729200Y13389200D02*
X29729200Y16589200D01*
X29729200Y16589200D02*
X31129200Y16589200D01*
X31129200Y16589200D02*
X31129200Y16789200D01*
X31129200Y16789200D02*
X29729200Y16789200D01*
X29729200Y16789200D02*
X29729200Y16589200D01*
X21020000Y16589200D02*
X21020000Y13389200D01*
X21020000Y13389200D02*
X19620000Y13389200D01*
X19620000Y13389200D02*
X19620000Y16589200D01*
X19620000Y16589200D02*
X21020000Y16589200D01*
X21020000Y16589200D02*
X21020000Y16789200D01*
X21020000Y16789200D02*
X19620000Y16789200D01*
X19620000Y16789200D02*
X19620000Y16589200D01*
X26049200Y16589200D02*
X26049200Y13389200D01*
X26049200Y13389200D02*
X24649200Y13389200D01*
X24649200Y13389200D02*
X24649200Y16589200D01*
X24649200Y16589200D02*
X26049200Y16589200D01*
X26049200Y16589200D02*
X26049200Y16789200D01*
X26049200Y16789200D02*
X24649200Y16789200D01*
X24649200Y16789200D02*
X24649200Y16589200D01*
X-32569200Y13728000D02*
X-31969200Y13728000D01*
X-33969200Y15728000D02*
X-33969200Y13728000D01*
X-32719200Y15728000D02*
X-33219200Y15728000D01*
X-31969200Y13728000D02*
X-31969200Y15728000D01*
X-33969200Y13728000D02*
X-33369200Y13728000D01*
X-39869689Y-2101600D02*
G75*
G03X-39869689Y-2101600I-70711J0D01*
G01*
X-38490400Y-1751600D02*
X-38040400Y-1751600D01*
X-38890400Y-451600D02*
X-37990400Y-451600D01*
X-36990400Y-451600D02*
X-36990400Y-1751600D01*
X-39890400Y-451600D02*
X-39890400Y-1751600D01*
X-27000400Y15356000D02*
X-30200400Y15356000D01*
X-30200400Y15356000D02*
X-30200400Y16756000D01*
X-30200400Y16756000D02*
X-27000400Y16756000D01*
X-27000400Y16756000D02*
X-27000400Y15356000D01*
X-27000400Y15356000D02*
X-26800400Y15356000D01*
X-26800400Y15356000D02*
X-26800400Y16756000D01*
X-26800400Y16756000D02*
X-27000400Y16756000D01*
X-27000400Y12104800D02*
X-30200400Y12104800D01*
X-30200400Y12104800D02*
X-30200400Y13504800D01*
X-30200400Y13504800D02*
X-27000400Y13504800D01*
X-27000400Y13504800D02*
X-27000400Y12104800D01*
X-27000400Y12104800D02*
X-26800400Y12104800D01*
X-26800400Y12104800D02*
X-26800400Y13504800D01*
X-26800400Y13504800D02*
X-27000400Y13504800D01*
X266800Y16552000D02*
X266800Y13352000D01*
X266800Y13352000D02*
X-1133200Y13352000D01*
X-1133200Y13352000D02*
X-1133200Y16552000D01*
X-1133200Y16552000D02*
X266800Y16552000D01*
X266800Y16552000D02*
X266800Y16752000D01*
X266800Y16752000D02*
X-1133200Y16752000D01*
X-1133200Y16752000D02*
X-1133200Y16552000D01*
X-37852400Y2402200D02*
X-38652400Y2402200D01*
X-37852400Y1052200D02*
X-38652400Y1052200D01*
D16*
X18392000Y-10408000D02*
X18392000Y-8608000D01*
X18392000Y-8608000D02*
X16542000Y-8608000D01*
X16542000Y-8608000D02*
X16542000Y-7868000D01*
X11072000Y-10408000D02*
X11072000Y-8608000D01*
X11072000Y-8608000D02*
X12922000Y-8608000D01*
X18392000Y-13728000D02*
X18392000Y-14278000D01*
X18392000Y-14278000D02*
X11072000Y-14278000D01*
X11072000Y-14278000D02*
X11072000Y-13728000D01*
X-16292400Y13953600D02*
X-16292400Y15753600D01*
X-16292400Y15753600D02*
X-18142400Y15753600D01*
X-18142400Y15753600D02*
X-18142400Y16493600D01*
X-26112400Y13953600D02*
X-26112400Y15753600D01*
X-26112400Y15753600D02*
X-24262400Y15753600D01*
X-16292400Y10633600D02*
X-16292400Y10083600D01*
X-16292400Y10083600D02*
X-26112400Y10083600D01*
X-26112400Y10083600D02*
X-26112400Y10633600D01*
D14*
X7491200Y-14300200D02*
X4091200Y-14300200D01*
X7491200Y-7950200D02*
X4091200Y-7950200D01*
X-38604800Y-13276000D02*
X-38604800Y-11676000D01*
X-38604800Y-11676000D02*
X-37804800Y-11676000D01*
X-37804800Y-11676000D02*
X-37804800Y-15526000D01*
X-44054800Y-19276000D02*
X-39454800Y-19276000D01*
X-44904800Y-13276000D02*
X-44904800Y-11676000D01*
X-44904800Y-11676000D02*
X-45704800Y-11676000D01*
X-45704800Y-11676000D02*
X-45704800Y-15526000D01*
X-38604800Y-13276000D02*
X-39854800Y-13276000D01*
X-44904800Y-13276000D02*
X-43654800Y-13276000D01*
X-11995208Y5703976D02*
X-10595208Y5703976D01*
X-11995208Y8903976D02*
X-10595208Y8903976D01*
X-11995208Y5703976D02*
X-11995208Y8903976D01*
X-10595208Y8903976D02*
X-10595208Y5703976D01*
X-40076514Y4364144D02*
X-40076514Y2964144D01*
X-36876514Y4364144D02*
X-36876514Y2964144D01*
X-40076514Y4364144D02*
X-36876514Y4364144D01*
X-36876514Y2964144D02*
X-40076514Y2964144D01*
D16*
X-14749581Y-1187177D02*
X-21349581Y-1187177D01*
X-21349581Y5212823D02*
X-14749581Y5212823D01*
D14*
X38025200Y10397600D02*
X38025200Y11797600D01*
X37125200Y11797600D02*
X38025200Y11797600D01*
X35025200Y11797600D02*
X36025200Y11797600D01*
X35025200Y10397600D02*
X35025200Y11797600D01*
X36125200Y10397600D02*
X36925200Y10397600D01*
X32945200Y10379200D02*
X32945200Y11779200D01*
X32045200Y11779200D02*
X32945200Y11779200D01*
X29945200Y11779200D02*
X30945200Y11779200D01*
X29945200Y10379200D02*
X29945200Y11779200D01*
X31045200Y10379200D02*
X31845200Y10379200D01*
X22836000Y10397600D02*
X22836000Y11797600D01*
X21936000Y11797600D02*
X22836000Y11797600D01*
X19836000Y11797600D02*
X20836000Y11797600D01*
X19836000Y10397600D02*
X19836000Y11797600D01*
X20936000Y10397600D02*
X21736000Y10397600D01*
X27865200Y10430000D02*
X27865200Y11830000D01*
X26965200Y11830000D02*
X27865200Y11830000D01*
X24865200Y11830000D02*
X25865200Y11830000D01*
X24865200Y10430000D02*
X24865200Y11830000D01*
X25965200Y10430000D02*
X26765200Y10430000D01*
X-18959600Y-15980000D02*
X-20359600Y-15980000D01*
X-18959600Y-19180000D02*
X-20359600Y-19180000D01*
X-18959600Y-15980000D02*
X-18959600Y-19180000D01*
X-20359600Y-19180000D02*
X-20359600Y-15980000D01*
X-17232400Y-15980000D02*
X-18632400Y-15980000D01*
X-17232400Y-19180000D02*
X-18632400Y-19180000D01*
X-17232400Y-15980000D02*
X-17232400Y-19180000D01*
X-18632400Y-19180000D02*
X-18632400Y-15980000D01*
X38241200Y16589200D02*
X36841200Y16589200D01*
X38241200Y13389200D02*
X36841200Y13389200D01*
X38241200Y16589200D02*
X38241200Y13389200D01*
X36841200Y13389200D02*
X36841200Y16589200D01*
X-33031200Y-15980000D02*
X-34431200Y-15980000D01*
X-33031200Y-19180000D02*
X-34431200Y-19180000D01*
X-33031200Y-15980000D02*
X-33031200Y-19180000D01*
X-34431200Y-19180000D02*
X-34431200Y-15980000D01*
X-29373600Y-16030800D02*
X-30773600Y-16030800D01*
X-29373600Y-19230800D02*
X-30773600Y-19230800D01*
X-29373600Y-16030800D02*
X-29373600Y-19230800D01*
X-30773600Y-19230800D02*
X-30773600Y-16030800D01*
X18414800Y-18835600D02*
X18414800Y-17435600D01*
X15214800Y-18835600D02*
X15214800Y-17435600D01*
X18414800Y-18835600D02*
X15214800Y-18835600D01*
X15214800Y-17435600D02*
X18414800Y-17435600D01*
X18414800Y-17057600D02*
X18414800Y-15657600D01*
X15214800Y-17057600D02*
X15214800Y-15657600D01*
X18414800Y-17057600D02*
X15214800Y-17057600D01*
X15214800Y-15657600D02*
X18414800Y-15657600D01*
X10033200Y12688800D02*
X10033200Y11288800D01*
X13233200Y12688800D02*
X13233200Y11288800D01*
X10033200Y12688800D02*
X13233200Y12688800D01*
X13233200Y11288800D02*
X10033200Y11288800D01*
X17094000Y11288800D02*
X17094000Y12688800D01*
X13894000Y11288800D02*
X13894000Y12688800D01*
X17094000Y11288800D02*
X13894000Y11288800D01*
X13894000Y12688800D02*
X17094000Y12688800D01*
X33161200Y16589200D02*
X31761200Y16589200D01*
X33161200Y13389200D02*
X31761200Y13389200D01*
X33161200Y16589200D02*
X33161200Y13389200D01*
X31761200Y13389200D02*
X31761200Y16589200D01*
X23052000Y16589200D02*
X21652000Y16589200D01*
X23052000Y13389200D02*
X21652000Y13389200D01*
X23052000Y16589200D02*
X23052000Y13389200D01*
X21652000Y13389200D02*
X21652000Y16589200D01*
X28081200Y16589200D02*
X26681200Y16589200D01*
X28081200Y13389200D02*
X26681200Y13389200D01*
X28081200Y16589200D02*
X28081200Y13389200D01*
X26681200Y13389200D02*
X26681200Y16589200D01*
X-32285553Y9104541D02*
X-32285553Y10504541D01*
X-35485553Y9104541D02*
X-35485553Y10504541D01*
X-32285553Y9104541D02*
X-35485553Y9104541D01*
X-35485553Y10504541D02*
X-32285553Y10504541D01*
X-35115953Y16738541D02*
X-36515953Y16738541D01*
X-35115953Y13538541D02*
X-36515953Y13538541D01*
X-35115953Y16738541D02*
X-35115953Y13538541D01*
X-36515953Y13538541D02*
X-36515953Y16738541D01*
X5911642Y-133026D02*
X7311642Y-133026D01*
X5911642Y3066974D02*
X7311642Y3066974D01*
X5911642Y-133026D02*
X5911642Y3066974D01*
X7311642Y3066974D02*
X7311642Y-133026D01*
X-36893953Y16738541D02*
X-38293953Y16738541D01*
X-36893953Y13538541D02*
X-38293953Y13538541D01*
X-36893953Y16738541D02*
X-36893953Y13538541D01*
X-38293953Y13538541D02*
X-38293953Y16738541D01*
X-38621153Y16738541D02*
X-40021153Y16738541D01*
X-38621153Y13538541D02*
X-40021153Y13538541D01*
X-38621153Y16738541D02*
X-38621153Y13538541D01*
X-40021153Y13538541D02*
X-40021153Y16738541D01*
X4286042Y-133026D02*
X5686042Y-133026D01*
X4286042Y3066974D02*
X5686042Y3066974D01*
X4286042Y-133026D02*
X4286042Y3066974D01*
X5686042Y3066974D02*
X5686042Y-133026D01*
X-45922612Y-67935D02*
X-45922612Y1332065D01*
X-49122612Y-67935D02*
X-49122612Y1332065D01*
X-45922612Y-67935D02*
X-49122612Y-67935D01*
X-49122612Y1332065D02*
X-45922612Y1332065D01*
X-30200400Y15130400D02*
X-30200400Y13730400D01*
X-27000400Y15130400D02*
X-27000400Y13730400D01*
X-30200400Y15130400D02*
X-27000400Y15130400D01*
X-27000400Y13730400D02*
X-30200400Y13730400D01*
X-30200400Y11879200D02*
X-30200400Y10479200D01*
X-27000400Y11879200D02*
X-27000400Y10479200D01*
X-30200400Y11879200D02*
X-27000400Y11879200D01*
X-27000400Y10479200D02*
X-30200400Y10479200D01*
X-41799153Y13538541D02*
X-40399153Y13538541D01*
X-41799153Y16738541D02*
X-40399153Y16738541D01*
X-41799153Y13538541D02*
X-41799153Y16738541D01*
X-40399153Y16738541D02*
X-40399153Y13538541D01*
X34509711Y-9804605D02*
X34509711Y-11204605D01*
X37709711Y-9804605D02*
X37709711Y-11204605D01*
X34509711Y-9804605D02*
X37709711Y-9804605D01*
X37709711Y-11204605D02*
X34509711Y-11204605D01*
X34509711Y-11430205D02*
X34509711Y-12830205D01*
X37709711Y-11430205D02*
X37709711Y-12830205D01*
X34509711Y-11430205D02*
X37709711Y-11430205D01*
X37709711Y-12830205D02*
X34509711Y-12830205D01*
X-23712400Y-1720777D02*
X-22312400Y-1720777D01*
X-23712400Y1479223D02*
X-22312400Y1479223D01*
X-23712400Y-1720777D02*
X-23712400Y1479223D01*
X-22312400Y1479223D02*
X-22312400Y-1720777D01*
X-2911200Y13541600D02*
X-1511200Y13541600D01*
X-2911200Y16741600D02*
X-1511200Y16741600D01*
X-2911200Y13541600D02*
X-2911200Y16741600D01*
X-1511200Y16741600D02*
X-1511200Y13541600D01*
X-29343310Y-11989514D02*
X-29343310Y-10589514D01*
X-32543310Y-11989514D02*
X-32543310Y-10589514D01*
X-29343310Y-11989514D02*
X-32543310Y-11989514D01*
X-32543310Y-10589514D02*
X-29343310Y-10589514D01*
X-29343310Y-6643600D02*
X-29343310Y-5243600D01*
X-32543310Y-6643600D02*
X-32543310Y-5243600D01*
X-29343310Y-6643600D02*
X-32543310Y-6643600D01*
X-32543310Y-5243600D02*
X-29343310Y-5243600D01*
X-38150600Y-5015000D02*
X-38150600Y-6415000D01*
X-34950600Y-5015000D02*
X-34950600Y-6415000D01*
X-38150600Y-5015000D02*
X-34950600Y-5015000D01*
X-34950600Y-6415000D02*
X-38150600Y-6415000D01*
X-39943000Y-8508800D02*
X-38543000Y-8508800D01*
X-39943000Y-5308800D02*
X-38543000Y-5308800D01*
X-39943000Y-8508800D02*
X-39943000Y-5308800D01*
X-38543000Y-5308800D02*
X-38543000Y-8508800D01*
X-28757181Y5848423D02*
X-27357181Y5848423D01*
X-28757181Y9048423D02*
X-27357181Y9048423D01*
X-28757181Y5848423D02*
X-28757181Y9048423D01*
X-27357181Y9048423D02*
X-27357181Y5848423D01*
X-30505200Y5475200D02*
X-30505200Y4075200D01*
X-27305200Y5475200D02*
X-27305200Y4075200D01*
X-30505200Y5475200D02*
X-27305200Y5475200D01*
X-27305200Y4075200D02*
X-30505200Y4075200D01*
D16*
X-9718642Y12886208D02*
X-9718642Y14686208D01*
X-12938642Y14686208D02*
X-12938642Y12236208D01*
D12*
X-27397489Y-12123400D02*
G75*
G03X-27397489Y-12123400I-70711J0D01*
G01*
D14*
X-27418200Y-10923400D02*
X-22518200Y-10923400D01*
X-22518200Y-10923400D02*
X-22518200Y-7923400D01*
X-22518200Y-7923400D02*
X-27418200Y-7923400D01*
X-27418200Y-7923400D02*
X-27418200Y-10923400D01*
X-37522283Y10540733D02*
X-37122283Y10540733D01*
X-37122283Y10540733D02*
X-37122283Y10140733D01*
X-37522283Y7540733D02*
X-37122283Y7540733D01*
X-37122283Y7540733D02*
X-37122283Y7940733D01*
X-40122283Y7940733D02*
X-40122283Y7540733D01*
X-40122283Y7540733D02*
X-39722283Y7540733D01*
D12*
X-40551572Y10340733D02*
G75*
G03X-40551572Y10340733I-70711J0D01*
G01*
D14*
X-39722283Y10540733D02*
X-40122283Y10540733D01*
X-40122283Y10540733D02*
X-40122283Y10140733D01*
D12*
X26936311Y-14162400D02*
G75*
G03X26936311Y-14162400I-70711J0D01*
G01*
D14*
X28065600Y-14212400D02*
X28065600Y-19112400D01*
X28065600Y-19112400D02*
X31065600Y-19112400D01*
X31065600Y-19112400D02*
X31065600Y-14212400D01*
X31065600Y-14212400D02*
X28065600Y-14212400D01*
X-22102181Y4695223D02*
X-22102181Y6895223D01*
X-26352181Y3920223D02*
X-26352181Y6895223D01*
X-34877810Y-7174214D02*
X-37027810Y-7174214D01*
X-34052810Y-9424214D02*
X-37027810Y-9424214D01*
X-4897083Y8865623D02*
X-4189977Y8158517D01*
X-3836423Y9926283D02*
X-3129317Y9219177D01*
X24727600Y-15841600D02*
X24727600Y-14841600D01*
X23227600Y-15841600D02*
X23227600Y-14841600D01*
X-8624800Y6125576D02*
X-7224800Y6125576D01*
X-8624800Y9325576D02*
X-7224800Y9325576D01*
X-8624800Y6125576D02*
X-8624800Y9325576D01*
X-7224800Y9325576D02*
X-7224800Y6125576D01*
X29590800Y-13501600D02*
X29590800Y-12101600D01*
X26390800Y-13501600D02*
X26390800Y-12101600D01*
X29590800Y-13501600D02*
X26390800Y-13501600D01*
X26390800Y-12101600D02*
X29590800Y-12101600D01*
X35904400Y-13487600D02*
X34504400Y-13487600D01*
X35904400Y-16687600D02*
X34504400Y-16687600D01*
X35904400Y-13487600D02*
X35904400Y-16687600D01*
X34504400Y-16687600D02*
X34504400Y-13487600D01*
X33350000Y-13501600D02*
X33350000Y-12101600D01*
X30150000Y-13501600D02*
X30150000Y-12101600D01*
X33350000Y-13501600D02*
X30150000Y-13501600D01*
X30150000Y-12101600D02*
X33350000Y-12101600D01*
X-29743600Y-4446500D02*
X-29743600Y-3046500D01*
X-32943600Y-4446500D02*
X-32943600Y-3046500D01*
X-29743600Y-4446500D02*
X-32943600Y-4446500D01*
X-32943600Y-3046500D02*
X-29743600Y-3046500D01*
X-34961200Y3381000D02*
X-34961200Y-2619000D01*
X-34961200Y3381000D02*
X-29961200Y3381000D01*
X-29961200Y3381000D02*
X-29961200Y-2619000D01*
X-29961200Y-2619000D02*
X-34961200Y-2619000D01*
X34965416Y-5602126D02*
X34965416Y-7002126D01*
X38165416Y-5602126D02*
X38165416Y-7002126D01*
X34965416Y-5602126D02*
X38165416Y-5602126D01*
X38165416Y-7002126D02*
X34965416Y-7002126D01*
X34965416Y-3900326D02*
X34965416Y-5300326D01*
X38165416Y-3900326D02*
X38165416Y-5300326D01*
X34965416Y-3900326D02*
X38165416Y-3900326D01*
X38165416Y-5300326D02*
X34965416Y-5300326D01*
D16*
X45710800Y-10337800D02*
X45710800Y-10397800D01*
X45710800Y-10397800D02*
X48370800Y-10397800D01*
X48370800Y-10397800D02*
X48370800Y-10337800D01*
X48370800Y-10337800D02*
X45710800Y-10337800D01*
X45710800Y-9067800D02*
X45710800Y-7737800D01*
X45710800Y-7737800D02*
X47040800Y-7737800D01*
D12*
X-43846089Y9911600D02*
G75*
G03X-43846089Y9911600I-70711J0D01*
G01*
D14*
X-46524800Y4365600D02*
X-44974800Y4365600D01*
X-44974800Y4365600D02*
X-44974800Y4915600D01*
X-46524800Y11965600D02*
X-44974800Y11965600D01*
X-44974800Y11965600D02*
X-44974800Y11415600D01*
X-48724800Y4365600D02*
X-49824800Y4365600D01*
X-49824800Y11965600D02*
X-48724800Y11965600D01*
X-49824800Y11965600D02*
X-49824800Y4365600D01*
D16*
X7837000Y-19021829D02*
X7837000Y-18921829D01*
X7837000Y-15521829D02*
X7837000Y-15621829D01*
X12737000Y-15621829D02*
X12737000Y-15521829D01*
X12737000Y-19021829D02*
X12737000Y-18921829D01*
X12737000Y-17621829D02*
X12737000Y-16921829D01*
X7837000Y-17621829D02*
X7837000Y-16921829D01*
X7837000Y-19021829D02*
X12737000Y-19021829D01*
X12737000Y-15521829D02*
X7837000Y-15521829D01*
X14513600Y16823000D02*
X14513600Y16723000D01*
X14513600Y13323000D02*
X14513600Y13423000D01*
X9613600Y13423000D02*
X9613600Y13323000D01*
X9613600Y16823000D02*
X9613600Y16723000D01*
X9613600Y15423000D02*
X9613600Y14723000D01*
X14513600Y15423000D02*
X14513600Y14723000D01*
X14513600Y16823000D02*
X9613600Y16823000D01*
X9613600Y13323000D02*
X14513600Y13323000D01*
D14*
X-14336800Y-15976800D02*
X-15736800Y-15976800D01*
X-14336800Y-19176800D02*
X-15736800Y-19176800D01*
X-14336800Y-15976800D02*
X-14336800Y-19176800D01*
X-15736800Y-19176800D02*
X-15736800Y-15976800D01*
X-9132800Y-19176800D02*
X-7732800Y-19176800D01*
X-9132800Y-15976800D02*
X-7732800Y-15976800D01*
X-9132800Y-19176800D02*
X-9132800Y-15976800D01*
X-7732800Y-15976800D02*
X-7732800Y-19176800D01*
X-7354800Y-19176800D02*
X-5954800Y-19176800D01*
X-7354800Y-15976800D02*
X-5954800Y-15976800D01*
X-7354800Y-19176800D02*
X-7354800Y-15976800D01*
X-5954800Y-15976800D02*
X-5954800Y-19176800D01*
D16*
X-10446000Y-15865200D02*
X-12246000Y-15865200D01*
X-12246000Y-19085200D02*
X-9796000Y-19085200D01*
D14*
X-10338000Y-15279600D02*
X-10338000Y-13879600D01*
X-13538000Y-15279600D02*
X-13538000Y-13879600D01*
X-10338000Y-15279600D02*
X-13538000Y-15279600D01*
X-13538000Y-13879600D02*
X-10338000Y-13879600D01*
D17*
G36*
X22904592Y1787011D02*
X22959025Y1783014D01*
X23006546Y1776239D01*
X23031946Y1770306D01*
X23116254Y1738902D01*
X23192014Y1696046D01*
X23258550Y1642355D01*
X23315190Y1578449D01*
X23361256Y1504947D01*
X23388947Y1442608D01*
X23408830Y1382987D01*
X23423258Y1323376D01*
X23433092Y1259239D01*
X23439192Y1186042D01*
X23439816Y1174431D01*
X23444621Y1079500D01*
X22671555Y1079500D01*
X22676467Y1059543D01*
X22693182Y1017937D01*
X22720933Y977772D01*
X22756442Y942875D01*
X22796426Y917073D01*
X22800084Y915349D01*
X22857252Y897017D01*
X22917910Y891792D01*
X22980110Y899324D01*
X23041901Y919264D01*
X23101334Y951264D01*
X23133874Y975145D01*
X23173756Y1007632D01*
X23282671Y916262D01*
X23316185Y887888D01*
X23345519Y862556D01*
X23368979Y841772D01*
X23384869Y827041D01*
X23391493Y819868D01*
X23391585Y819572D01*
X23386455Y811436D01*
X23372692Y796209D01*
X23352737Y776185D01*
X23329030Y753654D01*
X23304012Y730909D01*
X23280123Y710243D01*
X23259805Y693948D01*
X23251431Y687942D01*
X23188779Y652505D01*
X23116387Y623027D01*
X23064344Y607459D01*
X23020892Y598962D01*
X22968150Y592778D01*
X22911176Y589152D01*
X22855029Y588330D01*
X22804768Y590557D01*
X22778639Y593599D01*
X22685575Y614865D01*
X22599028Y648089D01*
X22520090Y692598D01*
X22449850Y747717D01*
X22389398Y812772D01*
X22361147Y851888D01*
X22320064Y926882D01*
X22290952Y1007324D01*
X22273529Y1091485D01*
X22267517Y1177634D01*
X22272637Y1264041D01*
X22276145Y1282700D01*
X22664057Y1282700D01*
X23057757Y1282700D01*
X23057757Y1300570D01*
X23053520Y1326617D01*
X23042316Y1358675D01*
X23026400Y1391551D01*
X23008032Y1420052D01*
X23003251Y1425966D01*
X22969457Y1457331D01*
X22930931Y1476661D01*
X22884962Y1485127D01*
X22864966Y1485740D01*
X22815917Y1481163D01*
X22775685Y1466989D01*
X22741263Y1442041D01*
X22733393Y1434172D01*
X22713936Y1408494D01*
X22694657Y1374573D01*
X22678575Y1338401D01*
X22668711Y1305969D01*
X22668683Y1305831D01*
X22664057Y1282700D01*
X22276145Y1282700D01*
X22288607Y1348976D01*
X22315149Y1430707D01*
X22351983Y1507506D01*
X22398829Y1577640D01*
X22455407Y1639382D01*
X22493618Y1671457D01*
X22541700Y1703366D01*
X22597736Y1733464D01*
X22655497Y1758680D01*
X22702157Y1774218D01*
X22742027Y1781834D01*
X22791871Y1786471D01*
X22847467Y1788180D01*
X22904592Y1787011D01*
X22904592Y1787011D01*
G37*
X22904592Y1787011D02*
X22959025Y1783014D01*
X23006546Y1776239D01*
X23031946Y1770306D01*
X23116254Y1738902D01*
X23192014Y1696046D01*
X23258550Y1642355D01*
X23315190Y1578449D01*
X23361256Y1504947D01*
X23388947Y1442608D01*
X23408830Y1382987D01*
X23423258Y1323376D01*
X23433092Y1259239D01*
X23439192Y1186042D01*
X23439816Y1174431D01*
X23444621Y1079500D01*
X22671555Y1079500D01*
X22676467Y1059543D01*
X22693182Y1017937D01*
X22720933Y977772D01*
X22756442Y942875D01*
X22796426Y917073D01*
X22800084Y915349D01*
X22857252Y897017D01*
X22917910Y891792D01*
X22980110Y899324D01*
X23041901Y919264D01*
X23101334Y951264D01*
X23133874Y975145D01*
X23173756Y1007632D01*
X23282671Y916262D01*
X23316185Y887888D01*
X23345519Y862556D01*
X23368979Y841772D01*
X23384869Y827041D01*
X23391493Y819868D01*
X23391585Y819572D01*
X23386455Y811436D01*
X23372692Y796209D01*
X23352737Y776185D01*
X23329030Y753654D01*
X23304012Y730909D01*
X23280123Y710243D01*
X23259805Y693948D01*
X23251431Y687942D01*
X23188779Y652505D01*
X23116387Y623027D01*
X23064344Y607459D01*
X23020892Y598962D01*
X22968150Y592778D01*
X22911176Y589152D01*
X22855029Y588330D01*
X22804768Y590557D01*
X22778639Y593599D01*
X22685575Y614865D01*
X22599028Y648089D01*
X22520090Y692598D01*
X22449850Y747717D01*
X22389398Y812772D01*
X22361147Y851888D01*
X22320064Y926882D01*
X22290952Y1007324D01*
X22273529Y1091485D01*
X22267517Y1177634D01*
X22272637Y1264041D01*
X22276145Y1282700D01*
X22664057Y1282700D01*
X23057757Y1282700D01*
X23057757Y1300570D01*
X23053520Y1326617D01*
X23042316Y1358675D01*
X23026400Y1391551D01*
X23008032Y1420052D01*
X23003251Y1425966D01*
X22969457Y1457331D01*
X22930931Y1476661D01*
X22884962Y1485127D01*
X22864966Y1485740D01*
X22815917Y1481163D01*
X22775685Y1466989D01*
X22741263Y1442041D01*
X22733393Y1434172D01*
X22713936Y1408494D01*
X22694657Y1374573D01*
X22678575Y1338401D01*
X22668711Y1305969D01*
X22668683Y1305831D01*
X22664057Y1282700D01*
X22276145Y1282700D01*
X22288607Y1348976D01*
X22315149Y1430707D01*
X22351983Y1507506D01*
X22398829Y1577640D01*
X22455407Y1639382D01*
X22493618Y1671457D01*
X22541700Y1703366D01*
X22597736Y1733464D01*
X22655497Y1758680D01*
X22702157Y1774218D01*
X22742027Y1781834D01*
X22791871Y1786471D01*
X22847467Y1788180D01*
X22904592Y1787011D01*
G36*
X25341980Y1391557D02*
X25343831Y618671D01*
X25136965Y620703D01*
X24930100Y622735D01*
X24930100Y761944D01*
X24879349Y714068D01*
X24851938Y689761D01*
X24823028Y666621D01*
X24797590Y648558D01*
X24790449Y644171D01*
X24725935Y614752D01*
X24655015Y596213D01*
X24581567Y589189D01*
X24509467Y594315D01*
X24498300Y596308D01*
X24415629Y619370D01*
X24340371Y654661D01*
X24273039Y701642D01*
X24214143Y759773D01*
X24164194Y828516D01*
X24123704Y907331D01*
X24093183Y995680D01*
X24083942Y1033291D01*
X24075031Y1091287D01*
X24071086Y1157574D01*
X24072003Y1226879D01*
X24077678Y1293932D01*
X24088006Y1353460D01*
X24090462Y1363391D01*
X24099995Y1395986D01*
X24111849Y1430843D01*
X24124889Y1465240D01*
X24137979Y1496459D01*
X24149983Y1521779D01*
X24159767Y1538480D01*
X24165813Y1543894D01*
X24170925Y1538176D01*
X24183285Y1522033D01*
X24201841Y1496945D01*
X24225540Y1464395D01*
X24253330Y1425862D01*
X24284158Y1382828D01*
X24316971Y1336774D01*
X24350715Y1289179D01*
X24384339Y1241526D01*
X24416790Y1195296D01*
X24447014Y1151968D01*
X24473960Y1113023D01*
X24496573Y1079944D01*
X24512093Y1056803D01*
X24539089Y1015963D01*
X24927479Y825749D01*
X24997352Y791591D01*
X25063272Y759483D01*
X25124102Y729973D01*
X25178702Y703607D01*
X25225933Y680932D01*
X25264657Y662495D01*
X25293736Y648843D01*
X25312030Y640522D01*
X25318392Y638059D01*
X25314898Y644352D01*
X25303945Y661583D01*
X25286243Y688690D01*
X25262496Y724612D01*
X25233413Y768286D01*
X25199701Y818650D01*
X25162065Y874642D01*
X25121214Y935200D01*
X25083779Y990520D01*
X24846643Y1340458D01*
X24551681Y1493007D01*
X24491209Y1524227D01*
X24434693Y1553298D01*
X24383436Y1579557D01*
X24338742Y1602342D01*
X24301914Y1620989D01*
X24274255Y1634836D01*
X24257070Y1643221D01*
X24251673Y1645557D01*
X24242462Y1639486D01*
X24226657Y1621920D01*
X24205097Y1593829D01*
X24196503Y1581908D01*
X24183058Y1565241D01*
X24172224Y1555744D01*
X24168059Y1554867D01*
X24161790Y1561953D01*
X24148927Y1578724D01*
X24131140Y1602931D01*
X24110100Y1632327D01*
X24101931Y1643917D01*
X24078703Y1676882D01*
X24056827Y1707706D01*
X24038442Y1733386D01*
X24025691Y1750921D01*
X24023632Y1753683D01*
X24017715Y1761962D01*
X24015621Y1766923D01*
X24018787Y1768047D01*
X24028653Y1764817D01*
X24046656Y1756715D01*
X24074234Y1743224D01*
X24112825Y1723825D01*
X24128312Y1715994D01*
X24251557Y1653635D01*
X24273328Y1674235D01*
X24309664Y1703194D01*
X24355687Y1731591D01*
X24406734Y1756686D01*
X24429357Y1765889D01*
X24452451Y1774255D01*
X24472383Y1780009D01*
X24492808Y1783639D01*
X24517384Y1785630D01*
X24549766Y1786470D01*
X24585385Y1786640D01*
X24628604Y1786360D01*
X24660898Y1785171D01*
X24685848Y1782675D01*
X24707034Y1778471D01*
X24728038Y1772160D01*
X24734157Y1770037D01*
X24786255Y1747023D01*
X24837910Y1716078D01*
X24883217Y1680915D01*
X24897496Y1667267D01*
X24926471Y1637587D01*
X24930100Y1901015D01*
X24933728Y2164443D01*
X25340128Y2164443D01*
X25341980Y1391557D01*
X25341980Y1391557D01*
G37*
X25341980Y1391557D02*
X25343831Y618671D01*
X25136965Y620703D01*
X24930100Y622735D01*
X24930100Y761944D01*
X24879349Y714068D01*
X24851938Y689761D01*
X24823028Y666621D01*
X24797590Y648558D01*
X24790449Y644171D01*
X24725935Y614752D01*
X24655015Y596213D01*
X24581567Y589189D01*
X24509467Y594315D01*
X24498300Y596308D01*
X24415629Y619370D01*
X24340371Y654661D01*
X24273039Y701642D01*
X24214143Y759773D01*
X24164194Y828516D01*
X24123704Y907331D01*
X24093183Y995680D01*
X24083942Y1033291D01*
X24075031Y1091287D01*
X24071086Y1157574D01*
X24072003Y1226879D01*
X24077678Y1293932D01*
X24088006Y1353460D01*
X24090462Y1363391D01*
X24099995Y1395986D01*
X24111849Y1430843D01*
X24124889Y1465240D01*
X24137979Y1496459D01*
X24149983Y1521779D01*
X24159767Y1538480D01*
X24165813Y1543894D01*
X24170925Y1538176D01*
X24183285Y1522033D01*
X24201841Y1496945D01*
X24225540Y1464395D01*
X24253330Y1425862D01*
X24284158Y1382828D01*
X24316971Y1336774D01*
X24350715Y1289179D01*
X24384339Y1241526D01*
X24416790Y1195296D01*
X24447014Y1151968D01*
X24473960Y1113023D01*
X24496573Y1079944D01*
X24512093Y1056803D01*
X24539089Y1015963D01*
X24927479Y825749D01*
X24997352Y791591D01*
X25063272Y759483D01*
X25124102Y729973D01*
X25178702Y703607D01*
X25225933Y680932D01*
X25264657Y662495D01*
X25293736Y648843D01*
X25312030Y640522D01*
X25318392Y638059D01*
X25314898Y644352D01*
X25303945Y661583D01*
X25286243Y688690D01*
X25262496Y724612D01*
X25233413Y768286D01*
X25199701Y818650D01*
X25162065Y874642D01*
X25121214Y935200D01*
X25083779Y990520D01*
X24846643Y1340458D01*
X24551681Y1493007D01*
X24491209Y1524227D01*
X24434693Y1553298D01*
X24383436Y1579557D01*
X24338742Y1602342D01*
X24301914Y1620989D01*
X24274255Y1634836D01*
X24257070Y1643221D01*
X24251673Y1645557D01*
X24242462Y1639486D01*
X24226657Y1621920D01*
X24205097Y1593829D01*
X24196503Y1581908D01*
X24183058Y1565241D01*
X24172224Y1555744D01*
X24168059Y1554867D01*
X24161790Y1561953D01*
X24148927Y1578724D01*
X24131140Y1602931D01*
X24110100Y1632327D01*
X24101931Y1643917D01*
X24078703Y1676882D01*
X24056827Y1707706D01*
X24038442Y1733386D01*
X24025691Y1750921D01*
X24023632Y1753683D01*
X24017715Y1761962D01*
X24015621Y1766923D01*
X24018787Y1768047D01*
X24028653Y1764817D01*
X24046656Y1756715D01*
X24074234Y1743224D01*
X24112825Y1723825D01*
X24128312Y1715994D01*
X24251557Y1653635D01*
X24273328Y1674235D01*
X24309664Y1703194D01*
X24355687Y1731591D01*
X24406734Y1756686D01*
X24429357Y1765889D01*
X24452451Y1774255D01*
X24472383Y1780009D01*
X24492808Y1783639D01*
X24517384Y1785630D01*
X24549766Y1786470D01*
X24585385Y1786640D01*
X24628604Y1786360D01*
X24660898Y1785171D01*
X24685848Y1782675D01*
X24707034Y1778471D01*
X24728038Y1772160D01*
X24734157Y1770037D01*
X24786255Y1747023D01*
X24837910Y1716078D01*
X24883217Y1680915D01*
X24897496Y1667267D01*
X24926471Y1637587D01*
X24930100Y1901015D01*
X24933728Y2164443D01*
X25340128Y2164443D01*
X25341980Y1391557D01*
G36*
X27918378Y1908628D02*
X27920343Y1761671D01*
X28196086Y1761671D01*
X28194136Y1596571D01*
X28192185Y1431471D01*
X28056114Y1429497D01*
X27920043Y1427522D01*
X27920043Y1216865D01*
X27920148Y1151062D01*
X27920636Y1098182D01*
X27921770Y1056633D01*
X27923809Y1024824D01*
X27927014Y1001164D01*
X27931647Y984062D01*
X27937967Y971927D01*
X27946235Y963166D01*
X27956713Y956190D01*
X27963348Y952623D01*
X27987210Y945459D01*
X28020484Y942194D01*
X28058609Y942814D01*
X28097020Y947300D01*
X28123243Y953185D01*
X28148460Y960251D01*
X28170204Y966110D01*
X28179485Y968460D01*
X28195814Y972335D01*
X28195814Y657787D01*
X28156644Y640464D01*
X28117524Y624535D01*
X28080554Y612949D01*
X28041898Y604977D01*
X27997721Y599896D01*
X27944188Y596978D01*
X27923671Y596362D01*
X27865725Y595726D01*
X27820178Y597200D01*
X27785058Y600877D01*
X27770361Y603669D01*
X27702226Y625324D01*
X27644412Y657135D01*
X27596645Y699360D01*
X27558653Y752260D01*
X27530164Y816091D01*
X27523236Y838078D01*
X27519992Y851432D01*
X27517296Y867911D01*
X27515078Y889040D01*
X27513264Y916345D01*
X27511781Y951349D01*
X27510557Y995580D01*
X27509519Y1050561D01*
X27508593Y1117819D01*
X27508179Y1153885D01*
X27505179Y1427843D01*
X27383014Y1427843D01*
X27383014Y1761671D01*
X27506085Y1761671D01*
X27508049Y1908628D01*
X27510014Y2055585D01*
X27916414Y2055585D01*
X27918378Y1908628D01*
X27918378Y1908628D01*
G37*
X27918378Y1908628D02*
X27920343Y1761671D01*
X28196086Y1761671D01*
X28194136Y1596571D01*
X28192185Y1431471D01*
X28056114Y1429497D01*
X27920043Y1427522D01*
X27920043Y1216865D01*
X27920148Y1151062D01*
X27920636Y1098182D01*
X27921770Y1056633D01*
X27923809Y1024824D01*
X27927014Y1001164D01*
X27931647Y984062D01*
X27937967Y971927D01*
X27946235Y963166D01*
X27956713Y956190D01*
X27963348Y952623D01*
X27987210Y945459D01*
X28020484Y942194D01*
X28058609Y942814D01*
X28097020Y947300D01*
X28123243Y953185D01*
X28148460Y960251D01*
X28170204Y966110D01*
X28179485Y968460D01*
X28195814Y972335D01*
X28195814Y657787D01*
X28156644Y640464D01*
X28117524Y624535D01*
X28080554Y612949D01*
X28041898Y604977D01*
X27997721Y599896D01*
X27944188Y596978D01*
X27923671Y596362D01*
X27865725Y595726D01*
X27820178Y597200D01*
X27785058Y600877D01*
X27770361Y603669D01*
X27702226Y625324D01*
X27644412Y657135D01*
X27596645Y699360D01*
X27558653Y752260D01*
X27530164Y816091D01*
X27523236Y838078D01*
X27519992Y851432D01*
X27517296Y867911D01*
X27515078Y889040D01*
X27513264Y916345D01*
X27511781Y951349D01*
X27510557Y995580D01*
X27509519Y1050561D01*
X27508593Y1117819D01*
X27508179Y1153885D01*
X27505179Y1427843D01*
X27383014Y1427843D01*
X27383014Y1761671D01*
X27506085Y1761671D01*
X27508049Y1908628D01*
X27510014Y2055585D01*
X27916414Y2055585D01*
X27918378Y1908628D01*
G36*
X21355487Y2180474D02*
X21407282Y2177286D01*
X21455469Y2172370D01*
X21497053Y2165888D01*
X21529036Y2158005D01*
X21542828Y2152434D01*
X21547300Y2148845D01*
X21550590Y2142105D01*
X21552875Y2130214D01*
X21554333Y2111172D01*
X21555142Y2082981D01*
X21555478Y2043641D01*
X21555528Y2009368D01*
X21555338Y1966358D01*
X21554809Y1928516D01*
X21554004Y1898166D01*
X21552983Y1877630D01*
X21551811Y1869234D01*
X21551783Y1869203D01*
X21543258Y1868787D01*
X21525346Y1871722D01*
X21510288Y1875250D01*
X21474929Y1881720D01*
X21435543Y1884663D01*
X21396775Y1884124D01*
X21363267Y1880149D01*
X21341289Y1873598D01*
X21319068Y1855490D01*
X21303109Y1826896D01*
X21294980Y1791065D01*
X21294271Y1776206D01*
X21294271Y1747492D01*
X21423085Y1745510D01*
X21551900Y1743528D01*
X21553864Y1596571D01*
X21555829Y1449614D01*
X21294271Y1449614D01*
X21294271Y622300D01*
X20887871Y622300D01*
X20887871Y1449614D01*
X20757243Y1449614D01*
X20757243Y1761671D01*
X20885739Y1761671D01*
X20889975Y1828800D01*
X20900796Y1907390D01*
X20922621Y1976767D01*
X20955225Y2036659D01*
X20998387Y2086794D01*
X21051883Y2126900D01*
X21115491Y2156707D01*
X21172146Y2172666D01*
X21208413Y2178029D01*
X21253057Y2181009D01*
X21303080Y2181769D01*
X21355487Y2180474D01*
X21355487Y2180474D01*
G37*
X21355487Y2180474D02*
X21407282Y2177286D01*
X21455469Y2172370D01*
X21497053Y2165888D01*
X21529036Y2158005D01*
X21542828Y2152434D01*
X21547300Y2148845D01*
X21550590Y2142105D01*
X21552875Y2130214D01*
X21554333Y2111172D01*
X21555142Y2082981D01*
X21555478Y2043641D01*
X21555528Y2009368D01*
X21555338Y1966358D01*
X21554809Y1928516D01*
X21554004Y1898166D01*
X21552983Y1877630D01*
X21551811Y1869234D01*
X21551783Y1869203D01*
X21543258Y1868787D01*
X21525346Y1871722D01*
X21510288Y1875250D01*
X21474929Y1881720D01*
X21435543Y1884663D01*
X21396775Y1884124D01*
X21363267Y1880149D01*
X21341289Y1873598D01*
X21319068Y1855490D01*
X21303109Y1826896D01*
X21294980Y1791065D01*
X21294271Y1776206D01*
X21294271Y1747492D01*
X21423085Y1745510D01*
X21551900Y1743528D01*
X21553864Y1596571D01*
X21555829Y1449614D01*
X21294271Y1449614D01*
X21294271Y622300D01*
X20887871Y622300D01*
X20887871Y1449614D01*
X20757243Y1449614D01*
X20757243Y1761671D01*
X20885739Y1761671D01*
X20889975Y1828800D01*
X20900796Y1907390D01*
X20922621Y1976767D01*
X20955225Y2036659D01*
X20998387Y2086794D01*
X21051883Y2126900D01*
X21115491Y2156707D01*
X21172146Y2172666D01*
X21208413Y2178029D01*
X21253057Y2181009D01*
X21303080Y2181769D01*
X21355487Y2180474D01*
G36*
X22121585Y622300D02*
X21715185Y622300D01*
X21715185Y1761671D01*
X22121585Y1761671D01*
X22121585Y622300D01*
X22121585Y622300D01*
G37*
X22121585Y622300D02*
X21715185Y622300D01*
X21715185Y1761671D01*
X22121585Y1761671D01*
X22121585Y622300D01*
G36*
X23963118Y1393371D02*
X23964966Y622300D01*
X23551177Y622300D01*
X23553024Y1393371D01*
X23554871Y2164443D01*
X23961271Y2164443D01*
X23963118Y1393371D01*
X23963118Y1393371D01*
G37*
X23963118Y1393371D02*
X23964966Y622300D01*
X23551177Y622300D01*
X23553024Y1393371D01*
X23554871Y2164443D01*
X23961271Y2164443D01*
X23963118Y1393371D01*
G36*
X25933337Y1779420D02*
X25935214Y1390769D01*
X26253996Y1761671D01*
X26481048Y1761671D01*
X26536791Y1761552D01*
X26587571Y1761213D01*
X26631652Y1760686D01*
X26667296Y1759998D01*
X26692768Y1759181D01*
X26706328Y1758265D01*
X26708100Y1757779D01*
X26703523Y1751854D01*
X26690618Y1736433D01*
X26670616Y1712938D01*
X26644754Y1682790D01*
X26614264Y1647410D01*
X26580382Y1608220D01*
X26544341Y1566643D01*
X26507375Y1524099D01*
X26470719Y1482010D01*
X26435607Y1441798D01*
X26403273Y1404885D01*
X26374951Y1372691D01*
X26351875Y1346639D01*
X26335280Y1328150D01*
X26332060Y1324628D01*
X26313882Y1304871D01*
X26508600Y979914D01*
X26546333Y916965D01*
X26582055Y857414D01*
X26615023Y802494D01*
X26644498Y753437D01*
X26669738Y711475D01*
X26690002Y677841D01*
X26704550Y653768D01*
X26712639Y640488D01*
X26713801Y638628D01*
X26724283Y622300D01*
X26275062Y622300D01*
X26157362Y814410D01*
X26039662Y1006521D01*
X25985729Y946853D01*
X25931797Y887185D01*
X25931691Y754743D01*
X25931585Y622300D01*
X25525185Y622300D01*
X25525185Y2168071D01*
X25931459Y2168071D01*
X25933337Y1779420D01*
X25933337Y1779420D01*
G37*
X25933337Y1779420D02*
X25935214Y1390769D01*
X26253996Y1761671D01*
X26481048Y1761671D01*
X26536791Y1761552D01*
X26587571Y1761213D01*
X26631652Y1760686D01*
X26667296Y1759998D01*
X26692768Y1759181D01*
X26706328Y1758265D01*
X26708100Y1757779D01*
X26703523Y1751854D01*
X26690618Y1736433D01*
X26670616Y1712938D01*
X26644754Y1682790D01*
X26614264Y1647410D01*
X26580382Y1608220D01*
X26544341Y1566643D01*
X26507375Y1524099D01*
X26470719Y1482010D01*
X26435607Y1441798D01*
X26403273Y1404885D01*
X26374951Y1372691D01*
X26351875Y1346639D01*
X26335280Y1328150D01*
X26332060Y1324628D01*
X26313882Y1304871D01*
X26508600Y979914D01*
X26546333Y916965D01*
X26582055Y857414D01*
X26615023Y802494D01*
X26644498Y753437D01*
X26669738Y711475D01*
X26690002Y677841D01*
X26704550Y653768D01*
X26712639Y640488D01*
X26713801Y638628D01*
X26724283Y622300D01*
X26275062Y622300D01*
X26157362Y814410D01*
X26039662Y1006521D01*
X25985729Y946853D01*
X25931797Y887185D01*
X25931691Y754743D01*
X25931585Y622300D01*
X25525185Y622300D01*
X25525185Y2168071D01*
X25931459Y2168071D01*
X25933337Y1779420D01*
G36*
X27201585Y622300D02*
X26787928Y622300D01*
X26787928Y1761671D01*
X27201585Y1761671D01*
X27201585Y622300D01*
X27201585Y622300D01*
G37*
X27201585Y622300D02*
X26787928Y622300D01*
X26787928Y1761671D01*
X27201585Y1761671D01*
X27201585Y622300D01*
G36*
X24738093Y1298555D02*
X24774066Y1280663D01*
X24794174Y1261588D01*
X24816269Y1225327D01*
X24825830Y1186227D01*
X24823409Y1147046D01*
X24809556Y1110539D01*
X24784820Y1079461D01*
X24753586Y1058351D01*
X24714425Y1045355D01*
X24676824Y1046081D01*
X24641035Y1058786D01*
X24607017Y1082951D01*
X24583516Y1114914D01*
X24571069Y1151936D01*
X24570212Y1191277D01*
X24581481Y1230198D01*
X24601388Y1261373D01*
X24631480Y1288206D01*
X24666652Y1301966D01*
X24694115Y1304471D01*
X24738093Y1298555D01*
X24738093Y1298555D01*
G37*
X24738093Y1298555D02*
X24774066Y1280663D01*
X24794174Y1261588D01*
X24816269Y1225327D01*
X24825830Y1186227D01*
X24823409Y1147046D01*
X24809556Y1110539D01*
X24784820Y1079461D01*
X24753586Y1058351D01*
X24714425Y1045355D01*
X24676824Y1046081D01*
X24641035Y1058786D01*
X24607017Y1082951D01*
X24583516Y1114914D01*
X24571069Y1151936D01*
X24570212Y1191277D01*
X24581481Y1230198D01*
X24601388Y1261373D01*
X24631480Y1288206D01*
X24666652Y1301966D01*
X24694115Y1304471D01*
X24738093Y1298555D01*
G36*
X22121585Y1870528D02*
X21693113Y1870528D01*
X21695078Y2017485D01*
X21697043Y2164443D01*
X21909314Y2166367D01*
X22121585Y2168290D01*
X22121585Y1870528D01*
X22121585Y1870528D01*
G37*
X22121585Y1870528D02*
X21693113Y1870528D01*
X21695078Y2017485D01*
X21697043Y2164443D01*
X21909314Y2166367D01*
X22121585Y2168290D01*
X22121585Y1870528D01*
G36*
X27216100Y1870528D02*
X26787628Y1870528D01*
X26789592Y2017485D01*
X26791557Y2164443D01*
X27003828Y2166367D01*
X27216100Y2168290D01*
X27216100Y1870528D01*
X27216100Y1870528D01*
G37*
X27216100Y1870528D02*
X26787628Y1870528D01*
X26789592Y2017485D01*
X26791557Y2164443D01*
X27003828Y2166367D01*
X27216100Y2168290D01*
X27216100Y1870528D01*
G36*
X15788709Y6181567D02*
X15844587Y6180971D01*
X15892699Y6179753D01*
X15935512Y6177729D01*
X15975490Y6174717D01*
X16015101Y6170533D01*
X16056809Y6164993D01*
X16103080Y6157915D01*
X16152671Y6149740D01*
X16323026Y6114688D01*
X16489936Y6067674D01*
X16652812Y6009112D01*
X16811066Y5939414D01*
X16964108Y5858993D01*
X17111349Y5768263D01*
X17252200Y5667637D01*
X17386071Y5557527D01*
X17512373Y5438347D01*
X17630517Y5310510D01*
X17739913Y5174429D01*
X17839973Y5030516D01*
X17907499Y4919503D01*
X17991104Y4761235D01*
X18062527Y4599451D01*
X18121782Y4434101D01*
X18168881Y4265131D01*
X18203836Y4092490D01*
X18226660Y3916125D01*
X18237367Y3735983D01*
X18236318Y3561112D01*
X18223557Y3386232D01*
X18198405Y3213181D01*
X18161115Y3042598D01*
X18111941Y2875122D01*
X18051134Y2711393D01*
X17978949Y2552049D01*
X17895638Y2397729D01*
X17801455Y2249074D01*
X17696653Y2106722D01*
X17627154Y2022720D01*
X17589835Y1981290D01*
X17545284Y1934660D01*
X17496041Y1885282D01*
X17444649Y1835610D01*
X17393647Y1788096D01*
X17345577Y1745193D01*
X17302981Y1709355D01*
X17300142Y1707071D01*
X17156923Y1600214D01*
X17007478Y1504068D01*
X16852497Y1419011D01*
X16692665Y1345425D01*
X16541750Y1288122D01*
X16369664Y1235835D01*
X16195485Y1195948D01*
X16019698Y1168524D01*
X15842789Y1153629D01*
X15665245Y1151329D01*
X15554325Y1156304D01*
X15377287Y1174488D01*
X15202896Y1204939D01*
X15031732Y1247392D01*
X14864378Y1301583D01*
X14701416Y1367247D01*
X14543427Y1444120D01*
X14390994Y1531938D01*
X14244698Y1630435D01*
X14105122Y1739348D01*
X13972847Y1858413D01*
X13941510Y1889211D01*
X13820416Y2019132D01*
X13709614Y2156135D01*
X13609281Y2299621D01*
X13519595Y2448991D01*
X13440734Y2603647D01*
X13372875Y2762989D01*
X13330509Y2885147D01*
X13578240Y2885147D01*
X13579494Y2876358D01*
X13585321Y2857885D01*
X13594988Y2831585D01*
X13607761Y2799310D01*
X13622906Y2762916D01*
X13639689Y2724257D01*
X13657332Y2685285D01*
X13674926Y2649523D01*
X13697849Y2606261D01*
X13724350Y2558545D01*
X13752681Y2509419D01*
X13781091Y2461929D01*
X13807833Y2419121D01*
X13826417Y2390925D01*
X13913634Y2271849D01*
X14010251Y2156448D01*
X14114401Y2046594D01*
X14224215Y1944165D01*
X14337825Y1851034D01*
X14431338Y1783711D01*
X14492049Y1748582D01*
X14564081Y1717297D01*
X14646574Y1690103D01*
X14738668Y1667248D01*
X14839504Y1648982D01*
X14941550Y1636212D01*
X14974795Y1634064D01*
X15016604Y1633124D01*
X15062902Y1633347D01*
X15109613Y1634685D01*
X15152663Y1637091D01*
X15173809Y1638903D01*
X15257443Y1650882D01*
X15334887Y1669198D01*
X15404704Y1693355D01*
X15465456Y1722855D01*
X15515403Y1756954D01*
X15548185Y1787599D01*
X15572678Y1820099D01*
X15590570Y1857538D01*
X15603551Y1903000D01*
X15608111Y1926159D01*
X15621911Y1986985D01*
X15640379Y2037338D01*
X15664474Y2078892D01*
X15695151Y2113320D01*
X15730929Y2140732D01*
X15764536Y2160025D01*
X15801928Y2176569D01*
X15844139Y2190520D01*
X15892200Y2202033D01*
X15947142Y2211264D01*
X16009997Y2218370D01*
X16081797Y2223505D01*
X16163574Y2226825D01*
X16256359Y2228488D01*
X16313806Y2228752D01*
X16462890Y2230489D01*
X16599885Y2235509D01*
X16724752Y2243811D01*
X16837453Y2255390D01*
X16937950Y2270244D01*
X17005300Y2283534D01*
X17130796Y2316938D01*
X17250409Y2359839D01*
X17363282Y2411765D01*
X17468558Y2472243D01*
X17565381Y2540801D01*
X17652895Y2616965D01*
X17702498Y2668238D01*
X17725744Y2693969D01*
X17659209Y2660578D01*
X17625285Y2644186D01*
X17588173Y2627265D01*
X17553414Y2612300D01*
X17535956Y2605279D01*
X17490239Y2589355D01*
X17435605Y2573108D01*
X17375775Y2557455D01*
X17314469Y2543317D01*
X17255410Y2531611D01*
X17205325Y2523654D01*
X17160660Y2519019D01*
X17106580Y2515559D01*
X17046316Y2513302D01*
X16983100Y2512276D01*
X16920165Y2512506D01*
X16860742Y2514022D01*
X16808064Y2516850D01*
X16773525Y2520008D01*
X16605457Y2545122D01*
X16434743Y2581763D01*
X16263022Y2629504D01*
X16091933Y2687918D01*
X16013620Y2718365D01*
X15987248Y2729087D01*
X15962443Y2739349D01*
X15937738Y2749807D01*
X15911665Y2761119D01*
X15882755Y2773940D01*
X15849540Y2788928D01*
X15810552Y2806738D01*
X15764322Y2828029D01*
X15709383Y2853456D01*
X15651162Y2880473D01*
X15482869Y2953256D01*
X15315804Y3014820D01*
X15150344Y3065140D01*
X14986866Y3104193D01*
X14825746Y3131953D01*
X14667362Y3148394D01*
X14512090Y3153493D01*
X14360308Y3147224D01*
X14212392Y3129563D01*
X14068719Y3100484D01*
X13929667Y3059962D01*
X13795612Y3007973D01*
X13786124Y3003769D01*
X13755227Y2989271D01*
X13721732Y2972394D01*
X13687640Y2954282D01*
X13654951Y2936074D01*
X13625665Y2918913D01*
X13601783Y2903941D01*
X13585305Y2892297D01*
X13578240Y2885147D01*
X13330509Y2885147D01*
X13316195Y2926419D01*
X13270873Y3093337D01*
X13237086Y3263145D01*
X13215011Y3435244D01*
X13204827Y3609036D01*
X13206204Y3737010D01*
X13437001Y3737010D01*
X13437035Y3661918D01*
X13438840Y3584912D01*
X13442321Y3509216D01*
X13447386Y3438058D01*
X13453940Y3374662D01*
X13457812Y3346450D01*
X13464786Y3303526D01*
X13472952Y3258197D01*
X13481940Y3212061D01*
X13491379Y3166717D01*
X13500899Y3123763D01*
X13510131Y3084796D01*
X13518705Y3051416D01*
X13526251Y3025221D01*
X13532399Y3007809D01*
X13536779Y3000778D01*
X13537758Y3000993D01*
X13541001Y3006955D01*
X13549627Y3023500D01*
X13563258Y3049891D01*
X13581519Y3085392D01*
X13604032Y3129268D01*
X13630421Y3180781D01*
X13660308Y3239196D01*
X13693317Y3303776D01*
X13729070Y3373785D01*
X13767192Y3448487D01*
X13807304Y3527146D01*
X13849031Y3609025D01*
X13850418Y3611748D01*
X13892205Y3693698D01*
X13932423Y3772424D01*
X13970695Y3847191D01*
X14006640Y3917266D01*
X14039880Y3981915D01*
X14070036Y4040403D01*
X14096729Y4091997D01*
X14119579Y4135963D01*
X14138207Y4171566D01*
X14152235Y4198073D01*
X14161283Y4214749D01*
X14164972Y4220861D01*
X14164999Y4220874D01*
X14168774Y4215678D01*
X14177980Y4200189D01*
X14192107Y4175337D01*
X14210643Y4142054D01*
X14233077Y4101269D01*
X14258898Y4053915D01*
X14287596Y4000921D01*
X14318658Y3943218D01*
X14351574Y3881737D01*
X14362851Y3860599D01*
X14396270Y3798029D01*
X14427986Y3738887D01*
X14457490Y3684108D01*
X14484271Y3634629D01*
X14507819Y3591385D01*
X14527626Y3555310D01*
X14543180Y3527340D01*
X14553972Y3508411D01*
X14559493Y3499457D01*
X14560071Y3498850D01*
X14563531Y3504369D01*
X14572428Y3520431D01*
X14586372Y3546296D01*
X14604974Y3581220D01*
X14627844Y3624464D01*
X14654592Y3675286D01*
X14684829Y3732944D01*
X14718165Y3796698D01*
X14754211Y3865805D01*
X14792577Y3939524D01*
X14832874Y4017114D01*
X14867878Y4084638D01*
X14909517Y4164994D01*
X14949547Y4242175D01*
X14987577Y4315432D01*
X15023218Y4384017D01*
X15056078Y4447181D01*
X15085768Y4504177D01*
X15111899Y4554256D01*
X15134079Y4596669D01*
X15151919Y4630669D01*
X15165029Y4655507D01*
X15173019Y4670435D01*
X15175483Y4674764D01*
X15179012Y4669927D01*
X15188078Y4654648D01*
X15202259Y4629700D01*
X15221131Y4595857D01*
X15244272Y4553892D01*
X15271259Y4504578D01*
X15301669Y4448687D01*
X15335079Y4386993D01*
X15371067Y4320269D01*
X15409209Y4249288D01*
X15449083Y4174824D01*
X15455900Y4162069D01*
X15496036Y4087006D01*
X15534489Y4015216D01*
X15570836Y3947481D01*
X15604654Y3884581D01*
X15635523Y3827297D01*
X15663020Y3776411D01*
X15686722Y3732702D01*
X15706208Y3696953D01*
X15721056Y3669943D01*
X15730843Y3652455D01*
X15735148Y3645268D01*
X15735300Y3645126D01*
X15738759Y3650609D01*
X15747448Y3666292D01*
X15760788Y3691081D01*
X15778201Y3723880D01*
X15799108Y3763596D01*
X15822931Y3809134D01*
X15849092Y3859400D01*
X15877013Y3913298D01*
X15877858Y3914933D01*
X15905848Y3968929D01*
X15932138Y4019319D01*
X15956144Y4065009D01*
X15977283Y4104904D01*
X15994972Y4137910D01*
X16008627Y4162932D01*
X16017666Y4178876D01*
X16021506Y4184646D01*
X16021533Y4184650D01*
X16025094Y4179179D01*
X16034192Y4163295D01*
X16048395Y4137796D01*
X16067270Y4103478D01*
X16090384Y4061139D01*
X16117304Y4011576D01*
X16147597Y3955584D01*
X16180831Y3893962D01*
X16216572Y3827506D01*
X16254388Y3757013D01*
X16291449Y3687763D01*
X16331121Y3613566D01*
X16369305Y3542184D01*
X16405544Y3474466D01*
X16439385Y3411261D01*
X16470373Y3353417D01*
X16498052Y3301783D01*
X16521969Y3257206D01*
X16541668Y3220535D01*
X16556694Y3192618D01*
X16566594Y3174304D01*
X16570713Y3166788D01*
X16584353Y3142700D01*
X16715023Y3395388D01*
X16742122Y3447568D01*
X16767534Y3496071D01*
X16790654Y3539772D01*
X16810875Y3577544D01*
X16827592Y3608262D01*
X16840198Y3630800D01*
X16848086Y3644031D01*
X16850567Y3647168D01*
X16854573Y3641551D01*
X16863828Y3625967D01*
X16877633Y3601669D01*
X16895293Y3569911D01*
X16916109Y3531947D01*
X16939384Y3489031D01*
X16964370Y3442513D01*
X16989320Y3396128D01*
X17012460Y3353651D01*
X17033106Y3316299D01*
X17050570Y3285289D01*
X17064168Y3261839D01*
X17073213Y3247167D01*
X17077020Y3242489D01*
X17077032Y3242500D01*
X17080481Y3248610D01*
X17089292Y3265122D01*
X17103004Y3291151D01*
X17121156Y3325812D01*
X17143288Y3368222D01*
X17168937Y3417495D01*
X17197644Y3472747D01*
X17228946Y3533094D01*
X17262384Y3597650D01*
X17297496Y3665532D01*
X17298621Y3667706D01*
X17333741Y3735570D01*
X17367190Y3800046D01*
X17398511Y3860261D01*
X17427245Y3915342D01*
X17452932Y3964413D01*
X17475114Y4006600D01*
X17493333Y4041029D01*
X17507130Y4066827D01*
X17516047Y4083118D01*
X17519624Y4089028D01*
X17519650Y4089036D01*
X17523265Y4083653D01*
X17532698Y4068136D01*
X17547438Y4043360D01*
X17566971Y4010202D01*
X17590787Y3969536D01*
X17618373Y3922239D01*
X17649218Y3869186D01*
X17682809Y3811254D01*
X17718634Y3749317D01*
X17747909Y3698599D01*
X17785112Y3634262D01*
X17820520Y3573365D01*
X17853621Y3516769D01*
X17883899Y3465338D01*
X17910841Y3419934D01*
X17933934Y3381419D01*
X17952664Y3350656D01*
X17966518Y3328506D01*
X17974982Y3315833D01*
X17977520Y3313090D01*
X17981744Y3323580D01*
X17985970Y3345101D01*
X17990070Y3375982D01*
X17993917Y3414556D01*
X17997382Y3459152D01*
X18000339Y3508102D01*
X18002658Y3559736D01*
X18004212Y3612386D01*
X18004873Y3664382D01*
X18004886Y3670300D01*
X18003230Y3779515D01*
X17997752Y3880120D01*
X17988051Y3975736D01*
X17973720Y4069985D01*
X17954358Y4166487D01*
X17945031Y4206875D01*
X17900393Y4368344D01*
X17844911Y4523779D01*
X17778159Y4674152D01*
X17699711Y4820435D01*
X17620597Y4946650D01*
X17575094Y5012632D01*
X17530908Y5072330D01*
X17485616Y5128667D01*
X17436793Y5184564D01*
X17382014Y5242944D01*
X17335856Y5289823D01*
X17251826Y5370735D01*
X17170366Y5442553D01*
X17088512Y5507611D01*
X17003302Y5568248D01*
X16911771Y5626799D01*
X16897488Y5635442D01*
X16750073Y5716779D01*
X16598435Y5786410D01*
X16443234Y5844355D01*
X16285130Y5890630D01*
X16124785Y5925254D01*
X15962857Y5948245D01*
X15800009Y5959620D01*
X15636901Y5959398D01*
X15474194Y5947597D01*
X15312547Y5924234D01*
X15152622Y5889328D01*
X14995079Y5842896D01*
X14840578Y5784957D01*
X14689781Y5715529D01*
X14543348Y5634629D01*
X14439900Y5568550D01*
X14303166Y5468389D01*
X14175103Y5359236D01*
X14056048Y5241665D01*
X13946337Y5116250D01*
X13846308Y4983564D01*
X13756296Y4844183D01*
X13676640Y4698680D01*
X13607674Y4547629D01*
X13549737Y4391604D01*
X13503165Y4231179D01*
X13468295Y4066929D01*
X13445462Y3899427D01*
X13442620Y3868545D01*
X13438831Y3806961D01*
X13437001Y3737010D01*
X13206204Y3737010D01*
X13206710Y3783920D01*
X13220839Y3959299D01*
X13247391Y4134573D01*
X13258729Y4191433D01*
X13301225Y4362510D01*
X13355140Y4528702D01*
X13420019Y4689569D01*
X13495407Y4844674D01*
X13580849Y4993579D01*
X13675891Y5135844D01*
X13780078Y5271033D01*
X13892955Y5398706D01*
X14014067Y5518427D01*
X14142960Y5629755D01*
X14279178Y5732254D01*
X14422268Y5825485D01*
X14571774Y5909010D01*
X14727242Y5982390D01*
X14888217Y6045188D01*
X15054243Y6096965D01*
X15224867Y6137283D01*
X15290800Y6149505D01*
X15343032Y6158240D01*
X15388789Y6165261D01*
X15430510Y6170751D01*
X15470632Y6174892D01*
X15511591Y6177865D01*
X15555827Y6179853D01*
X15605775Y6181037D01*
X15663873Y6181600D01*
X15722600Y6181725D01*
X15788709Y6181567D01*
X15788709Y6181567D01*
G37*
X15788709Y6181567D02*
X15844587Y6180971D01*
X15892699Y6179753D01*
X15935512Y6177729D01*
X15975490Y6174717D01*
X16015101Y6170533D01*
X16056809Y6164993D01*
X16103080Y6157915D01*
X16152671Y6149740D01*
X16323026Y6114688D01*
X16489936Y6067674D01*
X16652812Y6009112D01*
X16811066Y5939414D01*
X16964108Y5858993D01*
X17111349Y5768263D01*
X17252200Y5667637D01*
X17386071Y5557527D01*
X17512373Y5438347D01*
X17630517Y5310510D01*
X17739913Y5174429D01*
X17839973Y5030516D01*
X17907499Y4919503D01*
X17991104Y4761235D01*
X18062527Y4599451D01*
X18121782Y4434101D01*
X18168881Y4265131D01*
X18203836Y4092490D01*
X18226660Y3916125D01*
X18237367Y3735983D01*
X18236318Y3561112D01*
X18223557Y3386232D01*
X18198405Y3213181D01*
X18161115Y3042598D01*
X18111941Y2875122D01*
X18051134Y2711393D01*
X17978949Y2552049D01*
X17895638Y2397729D01*
X17801455Y2249074D01*
X17696653Y2106722D01*
X17627154Y2022720D01*
X17589835Y1981290D01*
X17545284Y1934660D01*
X17496041Y1885282D01*
X17444649Y1835610D01*
X17393647Y1788096D01*
X17345577Y1745193D01*
X17302981Y1709355D01*
X17300142Y1707071D01*
X17156923Y1600214D01*
X17007478Y1504068D01*
X16852497Y1419011D01*
X16692665Y1345425D01*
X16541750Y1288122D01*
X16369664Y1235835D01*
X16195485Y1195948D01*
X16019698Y1168524D01*
X15842789Y1153629D01*
X15665245Y1151329D01*
X15554325Y1156304D01*
X15377287Y1174488D01*
X15202896Y1204939D01*
X15031732Y1247392D01*
X14864378Y1301583D01*
X14701416Y1367247D01*
X14543427Y1444120D01*
X14390994Y1531938D01*
X14244698Y1630435D01*
X14105122Y1739348D01*
X13972847Y1858413D01*
X13941510Y1889211D01*
X13820416Y2019132D01*
X13709614Y2156135D01*
X13609281Y2299621D01*
X13519595Y2448991D01*
X13440734Y2603647D01*
X13372875Y2762989D01*
X13330509Y2885147D01*
X13578240Y2885147D01*
X13579494Y2876358D01*
X13585321Y2857885D01*
X13594988Y2831585D01*
X13607761Y2799310D01*
X13622906Y2762916D01*
X13639689Y2724257D01*
X13657332Y2685285D01*
X13674926Y2649523D01*
X13697849Y2606261D01*
X13724350Y2558545D01*
X13752681Y2509419D01*
X13781091Y2461929D01*
X13807833Y2419121D01*
X13826417Y2390925D01*
X13913634Y2271849D01*
X14010251Y2156448D01*
X14114401Y2046594D01*
X14224215Y1944165D01*
X14337825Y1851034D01*
X14431338Y1783711D01*
X14492049Y1748582D01*
X14564081Y1717297D01*
X14646574Y1690103D01*
X14738668Y1667248D01*
X14839504Y1648982D01*
X14941550Y1636212D01*
X14974795Y1634064D01*
X15016604Y1633124D01*
X15062902Y1633347D01*
X15109613Y1634685D01*
X15152663Y1637091D01*
X15173809Y1638903D01*
X15257443Y1650882D01*
X15334887Y1669198D01*
X15404704Y1693355D01*
X15465456Y1722855D01*
X15515403Y1756954D01*
X15548185Y1787599D01*
X15572678Y1820099D01*
X15590570Y1857538D01*
X15603551Y1903000D01*
X15608111Y1926159D01*
X15621911Y1986985D01*
X15640379Y2037338D01*
X15664474Y2078892D01*
X15695151Y2113320D01*
X15730929Y2140732D01*
X15764536Y2160025D01*
X15801928Y2176569D01*
X15844139Y2190520D01*
X15892200Y2202033D01*
X15947142Y2211264D01*
X16009997Y2218370D01*
X16081797Y2223505D01*
X16163574Y2226825D01*
X16256359Y2228488D01*
X16313806Y2228752D01*
X16462890Y2230489D01*
X16599885Y2235509D01*
X16724752Y2243811D01*
X16837453Y2255390D01*
X16937950Y2270244D01*
X17005300Y2283534D01*
X17130796Y2316938D01*
X17250409Y2359839D01*
X17363282Y2411765D01*
X17468558Y2472243D01*
X17565381Y2540801D01*
X17652895Y2616965D01*
X17702498Y2668238D01*
X17725744Y2693969D01*
X17659209Y2660578D01*
X17625285Y2644186D01*
X17588173Y2627265D01*
X17553414Y2612300D01*
X17535956Y2605279D01*
X17490239Y2589355D01*
X17435605Y2573108D01*
X17375775Y2557455D01*
X17314469Y2543317D01*
X17255410Y2531611D01*
X17205325Y2523654D01*
X17160660Y2519019D01*
X17106580Y2515559D01*
X17046316Y2513302D01*
X16983100Y2512276D01*
X16920165Y2512506D01*
X16860742Y2514022D01*
X16808064Y2516850D01*
X16773525Y2520008D01*
X16605457Y2545122D01*
X16434743Y2581763D01*
X16263022Y2629504D01*
X16091933Y2687918D01*
X16013620Y2718365D01*
X15987248Y2729087D01*
X15962443Y2739349D01*
X15937738Y2749807D01*
X15911665Y2761119D01*
X15882755Y2773940D01*
X15849540Y2788928D01*
X15810552Y2806738D01*
X15764322Y2828029D01*
X15709383Y2853456D01*
X15651162Y2880473D01*
X15482869Y2953256D01*
X15315804Y3014820D01*
X15150344Y3065140D01*
X14986866Y3104193D01*
X14825746Y3131953D01*
X14667362Y3148394D01*
X14512090Y3153493D01*
X14360308Y3147224D01*
X14212392Y3129563D01*
X14068719Y3100484D01*
X13929667Y3059962D01*
X13795612Y3007973D01*
X13786124Y3003769D01*
X13755227Y2989271D01*
X13721732Y2972394D01*
X13687640Y2954282D01*
X13654951Y2936074D01*
X13625665Y2918913D01*
X13601783Y2903941D01*
X13585305Y2892297D01*
X13578240Y2885147D01*
X13330509Y2885147D01*
X13316195Y2926419D01*
X13270873Y3093337D01*
X13237086Y3263145D01*
X13215011Y3435244D01*
X13204827Y3609036D01*
X13206204Y3737010D01*
X13437001Y3737010D01*
X13437035Y3661918D01*
X13438840Y3584912D01*
X13442321Y3509216D01*
X13447386Y3438058D01*
X13453940Y3374662D01*
X13457812Y3346450D01*
X13464786Y3303526D01*
X13472952Y3258197D01*
X13481940Y3212061D01*
X13491379Y3166717D01*
X13500899Y3123763D01*
X13510131Y3084796D01*
X13518705Y3051416D01*
X13526251Y3025221D01*
X13532399Y3007809D01*
X13536779Y3000778D01*
X13537758Y3000993D01*
X13541001Y3006955D01*
X13549627Y3023500D01*
X13563258Y3049891D01*
X13581519Y3085392D01*
X13604032Y3129268D01*
X13630421Y3180781D01*
X13660308Y3239196D01*
X13693317Y3303776D01*
X13729070Y3373785D01*
X13767192Y3448487D01*
X13807304Y3527146D01*
X13849031Y3609025D01*
X13850418Y3611748D01*
X13892205Y3693698D01*
X13932423Y3772424D01*
X13970695Y3847191D01*
X14006640Y3917266D01*
X14039880Y3981915D01*
X14070036Y4040403D01*
X14096729Y4091997D01*
X14119579Y4135963D01*
X14138207Y4171566D01*
X14152235Y4198073D01*
X14161283Y4214749D01*
X14164972Y4220861D01*
X14164999Y4220874D01*
X14168774Y4215678D01*
X14177980Y4200189D01*
X14192107Y4175337D01*
X14210643Y4142054D01*
X14233077Y4101269D01*
X14258898Y4053915D01*
X14287596Y4000921D01*
X14318658Y3943218D01*
X14351574Y3881737D01*
X14362851Y3860599D01*
X14396270Y3798029D01*
X14427986Y3738887D01*
X14457490Y3684108D01*
X14484271Y3634629D01*
X14507819Y3591385D01*
X14527626Y3555310D01*
X14543180Y3527340D01*
X14553972Y3508411D01*
X14559493Y3499457D01*
X14560071Y3498850D01*
X14563531Y3504369D01*
X14572428Y3520431D01*
X14586372Y3546296D01*
X14604974Y3581220D01*
X14627844Y3624464D01*
X14654592Y3675286D01*
X14684829Y3732944D01*
X14718165Y3796698D01*
X14754211Y3865805D01*
X14792577Y3939524D01*
X14832874Y4017114D01*
X14867878Y4084638D01*
X14909517Y4164994D01*
X14949547Y4242175D01*
X14987577Y4315432D01*
X15023218Y4384017D01*
X15056078Y4447181D01*
X15085768Y4504177D01*
X15111899Y4554256D01*
X15134079Y4596669D01*
X15151919Y4630669D01*
X15165029Y4655507D01*
X15173019Y4670435D01*
X15175483Y4674764D01*
X15179012Y4669927D01*
X15188078Y4654648D01*
X15202259Y4629700D01*
X15221131Y4595857D01*
X15244272Y4553892D01*
X15271259Y4504578D01*
X15301669Y4448687D01*
X15335079Y4386993D01*
X15371067Y4320269D01*
X15409209Y4249288D01*
X15449083Y4174824D01*
X15455900Y4162069D01*
X15496036Y4087006D01*
X15534489Y4015216D01*
X15570836Y3947481D01*
X15604654Y3884581D01*
X15635523Y3827297D01*
X15663020Y3776411D01*
X15686722Y3732702D01*
X15706208Y3696953D01*
X15721056Y3669943D01*
X15730843Y3652455D01*
X15735148Y3645268D01*
X15735300Y3645126D01*
X15738759Y3650609D01*
X15747448Y3666292D01*
X15760788Y3691081D01*
X15778201Y3723880D01*
X15799108Y3763596D01*
X15822931Y3809134D01*
X15849092Y3859400D01*
X15877013Y3913298D01*
X15877858Y3914933D01*
X15905848Y3968929D01*
X15932138Y4019319D01*
X15956144Y4065009D01*
X15977283Y4104904D01*
X15994972Y4137910D01*
X16008627Y4162932D01*
X16017666Y4178876D01*
X16021506Y4184646D01*
X16021533Y4184650D01*
X16025094Y4179179D01*
X16034192Y4163295D01*
X16048395Y4137796D01*
X16067270Y4103478D01*
X16090384Y4061139D01*
X16117304Y4011576D01*
X16147597Y3955584D01*
X16180831Y3893962D01*
X16216572Y3827506D01*
X16254388Y3757013D01*
X16291449Y3687763D01*
X16331121Y3613566D01*
X16369305Y3542184D01*
X16405544Y3474466D01*
X16439385Y3411261D01*
X16470373Y3353417D01*
X16498052Y3301783D01*
X16521969Y3257206D01*
X16541668Y3220535D01*
X16556694Y3192618D01*
X16566594Y3174304D01*
X16570713Y3166788D01*
X16584353Y3142700D01*
X16715023Y3395388D01*
X16742122Y3447568D01*
X16767534Y3496071D01*
X16790654Y3539772D01*
X16810875Y3577544D01*
X16827592Y3608262D01*
X16840198Y3630800D01*
X16848086Y3644031D01*
X16850567Y3647168D01*
X16854573Y3641551D01*
X16863828Y3625967D01*
X16877633Y3601669D01*
X16895293Y3569911D01*
X16916109Y3531947D01*
X16939384Y3489031D01*
X16964370Y3442513D01*
X16989320Y3396128D01*
X17012460Y3353651D01*
X17033106Y3316299D01*
X17050570Y3285289D01*
X17064168Y3261839D01*
X17073213Y3247167D01*
X17077020Y3242489D01*
X17077032Y3242500D01*
X17080481Y3248610D01*
X17089292Y3265122D01*
X17103004Y3291151D01*
X17121156Y3325812D01*
X17143288Y3368222D01*
X17168937Y3417495D01*
X17197644Y3472747D01*
X17228946Y3533094D01*
X17262384Y3597650D01*
X17297496Y3665532D01*
X17298621Y3667706D01*
X17333741Y3735570D01*
X17367190Y3800046D01*
X17398511Y3860261D01*
X17427245Y3915342D01*
X17452932Y3964413D01*
X17475114Y4006600D01*
X17493333Y4041029D01*
X17507130Y4066827D01*
X17516047Y4083118D01*
X17519624Y4089028D01*
X17519650Y4089036D01*
X17523265Y4083653D01*
X17532698Y4068136D01*
X17547438Y4043360D01*
X17566971Y4010202D01*
X17590787Y3969536D01*
X17618373Y3922239D01*
X17649218Y3869186D01*
X17682809Y3811254D01*
X17718634Y3749317D01*
X17747909Y3698599D01*
X17785112Y3634262D01*
X17820520Y3573365D01*
X17853621Y3516769D01*
X17883899Y3465338D01*
X17910841Y3419934D01*
X17933934Y3381419D01*
X17952664Y3350656D01*
X17966518Y3328506D01*
X17974982Y3315833D01*
X17977520Y3313090D01*
X17981744Y3323580D01*
X17985970Y3345101D01*
X17990070Y3375982D01*
X17993917Y3414556D01*
X17997382Y3459152D01*
X18000339Y3508102D01*
X18002658Y3559736D01*
X18004212Y3612386D01*
X18004873Y3664382D01*
X18004886Y3670300D01*
X18003230Y3779515D01*
X17997752Y3880120D01*
X17988051Y3975736D01*
X17973720Y4069985D01*
X17954358Y4166487D01*
X17945031Y4206875D01*
X17900393Y4368344D01*
X17844911Y4523779D01*
X17778159Y4674152D01*
X17699711Y4820435D01*
X17620597Y4946650D01*
X17575094Y5012632D01*
X17530908Y5072330D01*
X17485616Y5128667D01*
X17436793Y5184564D01*
X17382014Y5242944D01*
X17335856Y5289823D01*
X17251826Y5370735D01*
X17170366Y5442553D01*
X17088512Y5507611D01*
X17003302Y5568248D01*
X16911771Y5626799D01*
X16897488Y5635442D01*
X16750073Y5716779D01*
X16598435Y5786410D01*
X16443234Y5844355D01*
X16285130Y5890630D01*
X16124785Y5925254D01*
X15962857Y5948245D01*
X15800009Y5959620D01*
X15636901Y5959398D01*
X15474194Y5947597D01*
X15312547Y5924234D01*
X15152622Y5889328D01*
X14995079Y5842896D01*
X14840578Y5784957D01*
X14689781Y5715529D01*
X14543348Y5634629D01*
X14439900Y5568550D01*
X14303166Y5468389D01*
X14175103Y5359236D01*
X14056048Y5241665D01*
X13946337Y5116250D01*
X13846308Y4983564D01*
X13756296Y4844183D01*
X13676640Y4698680D01*
X13607674Y4547629D01*
X13549737Y4391604D01*
X13503165Y4231179D01*
X13468295Y4066929D01*
X13445462Y3899427D01*
X13442620Y3868545D01*
X13438831Y3806961D01*
X13437001Y3737010D01*
X13206204Y3737010D01*
X13206710Y3783920D01*
X13220839Y3959299D01*
X13247391Y4134573D01*
X13258729Y4191433D01*
X13301225Y4362510D01*
X13355140Y4528702D01*
X13420019Y4689569D01*
X13495407Y4844674D01*
X13580849Y4993579D01*
X13675891Y5135844D01*
X13780078Y5271033D01*
X13892955Y5398706D01*
X14014067Y5518427D01*
X14142960Y5629755D01*
X14279178Y5732254D01*
X14422268Y5825485D01*
X14571774Y5909010D01*
X14727242Y5982390D01*
X14888217Y6045188D01*
X15054243Y6096965D01*
X15224867Y6137283D01*
X15290800Y6149505D01*
X15343032Y6158240D01*
X15388789Y6165261D01*
X15430510Y6170751D01*
X15470632Y6174892D01*
X15511591Y6177865D01*
X15555827Y6179853D01*
X15605775Y6181037D01*
X15663873Y6181600D01*
X15722600Y6181725D01*
X15788709Y6181567D01*
G36*
X31137393Y4235376D02*
X31182648Y4235165D01*
X31222088Y4234835D01*
X31254217Y4234404D01*
X31277539Y4233892D01*
X31290557Y4233316D01*
X31292800Y4232947D01*
X31290583Y4225717D01*
X31284152Y4207495D01*
X31273836Y4179144D01*
X31259963Y4141532D01*
X31242863Y4095524D01*
X31222863Y4041987D01*
X31200294Y3981787D01*
X31175483Y3915789D01*
X31148759Y3844859D01*
X31120451Y3769864D01*
X31090889Y3691670D01*
X31060400Y3611142D01*
X31029314Y3529147D01*
X30997959Y3446551D01*
X30966664Y3364220D01*
X30935758Y3283019D01*
X30905570Y3203815D01*
X30876428Y3127474D01*
X30848662Y3054862D01*
X30822599Y2986845D01*
X30798570Y2924289D01*
X30776902Y2868060D01*
X30757924Y2819024D01*
X30741966Y2778046D01*
X30729355Y2745994D01*
X30720422Y2723733D01*
X30715494Y2712129D01*
X30715165Y2711450D01*
X30675208Y2641208D01*
X30631709Y2582927D01*
X30584295Y2536275D01*
X30532595Y2500915D01*
X30476237Y2476513D01*
X30445075Y2468067D01*
X30399246Y2460518D01*
X30346646Y2455965D01*
X30292906Y2454672D01*
X30243657Y2456905D01*
X30232482Y2458072D01*
X30166237Y2469740D01*
X30099994Y2489461D01*
X30079950Y2496895D01*
X30053151Y2507871D01*
X30026559Y2519848D01*
X30002724Y2531541D01*
X29984197Y2541668D01*
X29973528Y2548948D01*
X29971933Y2551204D01*
X29974508Y2559108D01*
X29981703Y2576191D01*
X29992602Y2600544D01*
X30006291Y2630259D01*
X30021857Y2663428D01*
X30038386Y2698142D01*
X30054963Y2732492D01*
X30070675Y2764569D01*
X30084607Y2792465D01*
X30095846Y2814271D01*
X30103476Y2828078D01*
X30106451Y2832100D01*
X30114876Y2829421D01*
X30130544Y2822526D01*
X30143554Y2816173D01*
X30195120Y2795014D01*
X30245346Y2784030D01*
X30292289Y2783528D01*
X30318075Y2788388D01*
X30338760Y2798063D01*
X30360466Y2814318D01*
X30379464Y2833691D01*
X30392029Y2852719D01*
X30394376Y2859278D01*
X30392644Y2867825D01*
X30386154Y2888146D01*
X30374907Y2920240D01*
X30358905Y2964105D01*
X30338147Y3019741D01*
X30312634Y3087145D01*
X30282366Y3166316D01*
X30247345Y3257255D01*
X30207569Y3359958D01*
X30163041Y3474425D01*
X30134100Y3548604D01*
X30099583Y3637036D01*
X30066386Y3722189D01*
X30034797Y3803313D01*
X30005107Y3879659D01*
X29977607Y3950477D01*
X29952585Y4015017D01*
X29930334Y4072530D01*
X29911141Y4122266D01*
X29895299Y4163477D01*
X29883097Y4195412D01*
X29874825Y4217321D01*
X29870773Y4228456D01*
X29870400Y4229728D01*
X29876580Y4231281D01*
X29894452Y4232528D01*
X29923008Y4233451D01*
X29961242Y4234027D01*
X30008149Y4234237D01*
X30062723Y4234060D01*
X30077835Y4233950D01*
X30285270Y4232275D01*
X30589606Y3319255D01*
X30693409Y3642415D01*
X30714886Y3709312D01*
X30736597Y3776997D01*
X30757960Y3843652D01*
X30778393Y3907463D01*
X30797316Y3966614D01*
X30814147Y4019288D01*
X30828306Y4063671D01*
X30839210Y4097945D01*
X30840026Y4100513D01*
X30882839Y4235450D01*
X31087819Y4235450D01*
X31137393Y4235376D01*
X31137393Y4235376D01*
G37*
X31137393Y4235376D02*
X31182648Y4235165D01*
X31222088Y4234835D01*
X31254217Y4234404D01*
X31277539Y4233892D01*
X31290557Y4233316D01*
X31292800Y4232947D01*
X31290583Y4225717D01*
X31284152Y4207495D01*
X31273836Y4179144D01*
X31259963Y4141532D01*
X31242863Y4095524D01*
X31222863Y4041987D01*
X31200294Y3981787D01*
X31175483Y3915789D01*
X31148759Y3844859D01*
X31120451Y3769864D01*
X31090889Y3691670D01*
X31060400Y3611142D01*
X31029314Y3529147D01*
X30997959Y3446551D01*
X30966664Y3364220D01*
X30935758Y3283019D01*
X30905570Y3203815D01*
X30876428Y3127474D01*
X30848662Y3054862D01*
X30822599Y2986845D01*
X30798570Y2924289D01*
X30776902Y2868060D01*
X30757924Y2819024D01*
X30741966Y2778046D01*
X30729355Y2745994D01*
X30720422Y2723733D01*
X30715494Y2712129D01*
X30715165Y2711450D01*
X30675208Y2641208D01*
X30631709Y2582927D01*
X30584295Y2536275D01*
X30532595Y2500915D01*
X30476237Y2476513D01*
X30445075Y2468067D01*
X30399246Y2460518D01*
X30346646Y2455965D01*
X30292906Y2454672D01*
X30243657Y2456905D01*
X30232482Y2458072D01*
X30166237Y2469740D01*
X30099994Y2489461D01*
X30079950Y2496895D01*
X30053151Y2507871D01*
X30026559Y2519848D01*
X30002724Y2531541D01*
X29984197Y2541668D01*
X29973528Y2548948D01*
X29971933Y2551204D01*
X29974508Y2559108D01*
X29981703Y2576191D01*
X29992602Y2600544D01*
X30006291Y2630259D01*
X30021857Y2663428D01*
X30038386Y2698142D01*
X30054963Y2732492D01*
X30070675Y2764569D01*
X30084607Y2792465D01*
X30095846Y2814271D01*
X30103476Y2828078D01*
X30106451Y2832100D01*
X30114876Y2829421D01*
X30130544Y2822526D01*
X30143554Y2816173D01*
X30195120Y2795014D01*
X30245346Y2784030D01*
X30292289Y2783528D01*
X30318075Y2788388D01*
X30338760Y2798063D01*
X30360466Y2814318D01*
X30379464Y2833691D01*
X30392029Y2852719D01*
X30394376Y2859278D01*
X30392644Y2867825D01*
X30386154Y2888146D01*
X30374907Y2920240D01*
X30358905Y2964105D01*
X30338147Y3019741D01*
X30312634Y3087145D01*
X30282366Y3166316D01*
X30247345Y3257255D01*
X30207569Y3359958D01*
X30163041Y3474425D01*
X30134100Y3548604D01*
X30099583Y3637036D01*
X30066386Y3722189D01*
X30034797Y3803313D01*
X30005107Y3879659D01*
X29977607Y3950477D01*
X29952585Y4015017D01*
X29930334Y4072530D01*
X29911141Y4122266D01*
X29895299Y4163477D01*
X29883097Y4195412D01*
X29874825Y4217321D01*
X29870773Y4228456D01*
X29870400Y4229728D01*
X29876580Y4231281D01*
X29894452Y4232528D01*
X29923008Y4233451D01*
X29961242Y4234027D01*
X30008149Y4234237D01*
X30062723Y4234060D01*
X30077835Y4233950D01*
X30285270Y4232275D01*
X30589606Y3319255D01*
X30693409Y3642415D01*
X30714886Y3709312D01*
X30736597Y3776997D01*
X30757960Y3843652D01*
X30778393Y3907463D01*
X30797316Y3966614D01*
X30814147Y4019288D01*
X30828306Y4063671D01*
X30839210Y4097945D01*
X30840026Y4100513D01*
X30882839Y4235450D01*
X31087819Y4235450D01*
X31137393Y4235376D01*
G36*
X19434710Y4257134D02*
X19521812Y4244457D01*
X19601555Y4222953D01*
X19675261Y4192119D01*
X19744255Y4151452D01*
X19809859Y4100450D01*
X19842762Y4069981D01*
X19883050Y4030629D01*
X19845572Y3991752D01*
X19828921Y3974327D01*
X19805832Y3949953D01*
X19778517Y3920977D01*
X19749190Y3889745D01*
X19723715Y3862516D01*
X19639337Y3772156D01*
X19595827Y3811593D01*
X19546942Y3852158D01*
X19500445Y3882304D01*
X19453696Y3903273D01*
X19404056Y3916308D01*
X19361830Y3921752D01*
X19297526Y3921209D01*
X19237608Y3908751D01*
X19182194Y3884421D01*
X19131400Y3848266D01*
X19105344Y3823218D01*
X19064031Y3771254D01*
X19033694Y3714242D01*
X19014016Y3651330D01*
X19004682Y3581669D01*
X19003770Y3549650D01*
X19009305Y3477826D01*
X19025693Y3411055D01*
X19052567Y3350280D01*
X19089562Y3296445D01*
X19110994Y3273161D01*
X19156703Y3234686D01*
X19205867Y3207002D01*
X19260222Y3189442D01*
X19321504Y3181339D01*
X19351830Y3180600D01*
X19412654Y3185769D01*
X19470680Y3201181D01*
X19527546Y3227484D01*
X19584890Y3265330D01*
X19604918Y3281049D01*
X19624293Y3296689D01*
X19640702Y3309662D01*
X19650916Y3317420D01*
X19651566Y3317875D01*
X19656321Y3318032D01*
X19664603Y3313442D01*
X19677319Y3303291D01*
X19695375Y3286764D01*
X19719676Y3263047D01*
X19751128Y3231326D01*
X19774735Y3207161D01*
X19888647Y3090096D01*
X19851911Y3052781D01*
X19799461Y3004579D01*
X19741480Y2960176D01*
X19680998Y2921552D01*
X19621049Y2890686D01*
X19577389Y2873528D01*
X19523876Y2859259D01*
X19461952Y2848535D01*
X19395475Y2841619D01*
X19328302Y2838773D01*
X19264292Y2840261D01*
X19207301Y2846346D01*
X19199225Y2847739D01*
X19108181Y2870360D01*
X19021655Y2903688D01*
X18940909Y2946968D01*
X18867203Y2999444D01*
X18801797Y3060359D01*
X18758159Y3112175D01*
X18707411Y3189581D01*
X18667746Y3271521D01*
X18639042Y3356856D01*
X18621175Y3444447D01*
X18614020Y3533154D01*
X18617455Y3621836D01*
X18631356Y3709355D01*
X18655598Y3794570D01*
X18690059Y3876343D01*
X18734614Y3953532D01*
X18789140Y4024999D01*
X18853512Y4089603D01*
X18865361Y4099767D01*
X18939153Y4154079D01*
X19017680Y4197100D01*
X19101497Y4229019D01*
X19191159Y4250027D01*
X19287219Y4260311D01*
X19338925Y4261488D01*
X19434710Y4257134D01*
X19434710Y4257134D01*
G37*
X19434710Y4257134D02*
X19521812Y4244457D01*
X19601555Y4222953D01*
X19675261Y4192119D01*
X19744255Y4151452D01*
X19809859Y4100450D01*
X19842762Y4069981D01*
X19883050Y4030629D01*
X19845572Y3991752D01*
X19828921Y3974327D01*
X19805832Y3949953D01*
X19778517Y3920977D01*
X19749190Y3889745D01*
X19723715Y3862516D01*
X19639337Y3772156D01*
X19595827Y3811593D01*
X19546942Y3852158D01*
X19500445Y3882304D01*
X19453696Y3903273D01*
X19404056Y3916308D01*
X19361830Y3921752D01*
X19297526Y3921209D01*
X19237608Y3908751D01*
X19182194Y3884421D01*
X19131400Y3848266D01*
X19105344Y3823218D01*
X19064031Y3771254D01*
X19033694Y3714242D01*
X19014016Y3651330D01*
X19004682Y3581669D01*
X19003770Y3549650D01*
X19009305Y3477826D01*
X19025693Y3411055D01*
X19052567Y3350280D01*
X19089562Y3296445D01*
X19110994Y3273161D01*
X19156703Y3234686D01*
X19205867Y3207002D01*
X19260222Y3189442D01*
X19321504Y3181339D01*
X19351830Y3180600D01*
X19412654Y3185769D01*
X19470680Y3201181D01*
X19527546Y3227484D01*
X19584890Y3265330D01*
X19604918Y3281049D01*
X19624293Y3296689D01*
X19640702Y3309662D01*
X19650916Y3317420D01*
X19651566Y3317875D01*
X19656321Y3318032D01*
X19664603Y3313442D01*
X19677319Y3303291D01*
X19695375Y3286764D01*
X19719676Y3263047D01*
X19751128Y3231326D01*
X19774735Y3207161D01*
X19888647Y3090096D01*
X19851911Y3052781D01*
X19799461Y3004579D01*
X19741480Y2960176D01*
X19680998Y2921552D01*
X19621049Y2890686D01*
X19577389Y2873528D01*
X19523876Y2859259D01*
X19461952Y2848535D01*
X19395475Y2841619D01*
X19328302Y2838773D01*
X19264292Y2840261D01*
X19207301Y2846346D01*
X19199225Y2847739D01*
X19108181Y2870360D01*
X19021655Y2903688D01*
X18940909Y2946968D01*
X18867203Y2999444D01*
X18801797Y3060359D01*
X18758159Y3112175D01*
X18707411Y3189581D01*
X18667746Y3271521D01*
X18639042Y3356856D01*
X18621175Y3444447D01*
X18614020Y3533154D01*
X18617455Y3621836D01*
X18631356Y3709355D01*
X18655598Y3794570D01*
X18690059Y3876343D01*
X18734614Y3953532D01*
X18789140Y4024999D01*
X18853512Y4089603D01*
X18865361Y4099767D01*
X18939153Y4154079D01*
X19017680Y4197100D01*
X19101497Y4229019D01*
X19191159Y4250027D01*
X19287219Y4260311D01*
X19338925Y4261488D01*
X19434710Y4257134D01*
G36*
X20741877Y4260250D02*
X20791590Y4256275D01*
X20826042Y4251277D01*
X20921582Y4227503D01*
X21010857Y4193448D01*
X21093209Y4149663D01*
X21167981Y4096701D01*
X21234512Y4035114D01*
X21292146Y3965454D01*
X21340223Y3888274D01*
X21378086Y3804126D01*
X21386092Y3781425D01*
X21408479Y3695683D01*
X21420026Y3606794D01*
X21420874Y3516797D01*
X21411163Y3427732D01*
X21391033Y3341637D01*
X21360623Y3260551D01*
X21348619Y3235750D01*
X21299140Y3152718D01*
X21240651Y3078548D01*
X21173486Y3013504D01*
X21097980Y2957849D01*
X21014469Y2911847D01*
X20923289Y2875762D01*
X20871392Y2860598D01*
X20842791Y2853707D01*
X20816514Y2848760D01*
X20789097Y2845365D01*
X20757079Y2843129D01*
X20716997Y2841659D01*
X20701000Y2841266D01*
X20643011Y2840801D01*
X20595800Y2842344D01*
X20557589Y2845972D01*
X20544514Y2848009D01*
X20449171Y2870754D01*
X20360043Y2903950D01*
X20277752Y2946948D01*
X20202918Y2999096D01*
X20136161Y3059742D01*
X20078104Y3128237D01*
X20029365Y3203929D01*
X19990566Y3286166D01*
X19962327Y3374300D01*
X19945270Y3467677D01*
X19944166Y3477628D01*
X19941746Y3543936D01*
X20330630Y3543936D01*
X20337517Y3478170D01*
X20354472Y3415177D01*
X20381277Y3356767D01*
X20417713Y3304755D01*
X20426194Y3295218D01*
X20464386Y3257932D01*
X20502583Y3229611D01*
X20545014Y3207247D01*
X20557033Y3202130D01*
X20603045Y3188503D01*
X20655618Y3181417D01*
X20710400Y3180923D01*
X20763036Y3187070D01*
X20807406Y3199230D01*
X20866992Y3228045D01*
X20918004Y3265731D01*
X20959793Y3311715D01*
X20989278Y3360325D01*
X21009972Y3408413D01*
X21023075Y3454200D01*
X21029737Y3502783D01*
X21031200Y3546475D01*
X21026101Y3618650D01*
X21010647Y3683759D01*
X20984601Y3742411D01*
X20947726Y3795214D01*
X20924919Y3819846D01*
X20873253Y3862555D01*
X20816534Y3894031D01*
X20755947Y3914107D01*
X20692674Y3922614D01*
X20627899Y3919383D01*
X20562805Y3904247D01*
X20503844Y3879758D01*
X20476698Y3861948D01*
X20447035Y3835943D01*
X20417883Y3804975D01*
X20392271Y3772273D01*
X20373228Y3741069D01*
X20372569Y3739740D01*
X20347937Y3676534D01*
X20334031Y3610661D01*
X20330630Y3543936D01*
X19941746Y3543936D01*
X19940865Y3568057D01*
X19949327Y3658780D01*
X19969069Y3747853D01*
X19999609Y3833330D01*
X20040464Y3913268D01*
X20059845Y3943639D01*
X20086362Y3978742D01*
X20119966Y4017373D01*
X20157221Y4055951D01*
X20194691Y4090892D01*
X20224425Y4115268D01*
X20288089Y4157116D01*
X20360407Y4194030D01*
X20437792Y4224464D01*
X20516657Y4246872D01*
X20541976Y4252162D01*
X20583730Y4257808D01*
X20633758Y4261029D01*
X20687870Y4261839D01*
X20741877Y4260250D01*
X20741877Y4260250D01*
G37*
X20741877Y4260250D02*
X20791590Y4256275D01*
X20826042Y4251277D01*
X20921582Y4227503D01*
X21010857Y4193448D01*
X21093209Y4149663D01*
X21167981Y4096701D01*
X21234512Y4035114D01*
X21292146Y3965454D01*
X21340223Y3888274D01*
X21378086Y3804126D01*
X21386092Y3781425D01*
X21408479Y3695683D01*
X21420026Y3606794D01*
X21420874Y3516797D01*
X21411163Y3427732D01*
X21391033Y3341637D01*
X21360623Y3260551D01*
X21348619Y3235750D01*
X21299140Y3152718D01*
X21240651Y3078548D01*
X21173486Y3013504D01*
X21097980Y2957849D01*
X21014469Y2911847D01*
X20923289Y2875762D01*
X20871392Y2860598D01*
X20842791Y2853707D01*
X20816514Y2848760D01*
X20789097Y2845365D01*
X20757079Y2843129D01*
X20716997Y2841659D01*
X20701000Y2841266D01*
X20643011Y2840801D01*
X20595800Y2842344D01*
X20557589Y2845972D01*
X20544514Y2848009D01*
X20449171Y2870754D01*
X20360043Y2903950D01*
X20277752Y2946948D01*
X20202918Y2999096D01*
X20136161Y3059742D01*
X20078104Y3128237D01*
X20029365Y3203929D01*
X19990566Y3286166D01*
X19962327Y3374300D01*
X19945270Y3467677D01*
X19944166Y3477628D01*
X19941746Y3543936D01*
X20330630Y3543936D01*
X20337517Y3478170D01*
X20354472Y3415177D01*
X20381277Y3356767D01*
X20417713Y3304755D01*
X20426194Y3295218D01*
X20464386Y3257932D01*
X20502583Y3229611D01*
X20545014Y3207247D01*
X20557033Y3202130D01*
X20603045Y3188503D01*
X20655618Y3181417D01*
X20710400Y3180923D01*
X20763036Y3187070D01*
X20807406Y3199230D01*
X20866992Y3228045D01*
X20918004Y3265731D01*
X20959793Y3311715D01*
X20989278Y3360325D01*
X21009972Y3408413D01*
X21023075Y3454200D01*
X21029737Y3502783D01*
X21031200Y3546475D01*
X21026101Y3618650D01*
X21010647Y3683759D01*
X20984601Y3742411D01*
X20947726Y3795214D01*
X20924919Y3819846D01*
X20873253Y3862555D01*
X20816534Y3894031D01*
X20755947Y3914107D01*
X20692674Y3922614D01*
X20627899Y3919383D01*
X20562805Y3904247D01*
X20503844Y3879758D01*
X20476698Y3861948D01*
X20447035Y3835943D01*
X20417883Y3804975D01*
X20392271Y3772273D01*
X20373228Y3741069D01*
X20372569Y3739740D01*
X20347937Y3676534D01*
X20334031Y3610661D01*
X20330630Y3543936D01*
X19941746Y3543936D01*
X19940865Y3568057D01*
X19949327Y3658780D01*
X19969069Y3747853D01*
X19999609Y3833330D01*
X20040464Y3913268D01*
X20059845Y3943639D01*
X20086362Y3978742D01*
X20119966Y4017373D01*
X20157221Y4055951D01*
X20194691Y4090892D01*
X20224425Y4115268D01*
X20288089Y4157116D01*
X20360407Y4194030D01*
X20437792Y4224464D01*
X20516657Y4246872D01*
X20541976Y4252162D01*
X20583730Y4257808D01*
X20633758Y4261029D01*
X20687870Y4261839D01*
X20741877Y4260250D01*
G36*
X24986501Y4258848D02*
X25037896Y4255121D01*
X25083614Y4249384D01*
X25117425Y4242458D01*
X25200720Y4214074D01*
X25277187Y4175175D01*
X25346462Y4126172D01*
X25408186Y4067478D01*
X25461996Y3999508D01*
X25507531Y3922674D01*
X25544431Y3837389D01*
X25572332Y3744066D01*
X25578809Y3714976D01*
X25582778Y3690662D01*
X25586457Y3658851D01*
X25589727Y3621963D01*
X25592466Y3582421D01*
X25594554Y3542647D01*
X25595869Y3505062D01*
X25596292Y3472089D01*
X25595700Y3446149D01*
X25593974Y3429665D01*
X25593183Y3426835D01*
X25591667Y3424849D01*
X25588186Y3423127D01*
X25581891Y3421652D01*
X25571937Y3420404D01*
X25557475Y3419365D01*
X25537659Y3418515D01*
X25511642Y3417836D01*
X25478575Y3417310D01*
X25437614Y3416917D01*
X25387909Y3416639D01*
X25328614Y3416458D01*
X25258882Y3416353D01*
X25177866Y3416308D01*
X25116745Y3416300D01*
X25040545Y3416280D01*
X24968154Y3416220D01*
X24900557Y3416123D01*
X24838742Y3415994D01*
X24783692Y3415836D01*
X24736393Y3415652D01*
X24697831Y3415444D01*
X24668992Y3415217D01*
X24650860Y3414974D01*
X24644421Y3414719D01*
X24644418Y3414713D01*
X24647276Y3401823D01*
X24654198Y3381274D01*
X24663722Y3356840D01*
X24674384Y3332298D01*
X24683784Y3313158D01*
X24717042Y3263631D01*
X24758902Y3223143D01*
X24808754Y3191993D01*
X24865986Y3170477D01*
X24929989Y3158893D01*
X25000153Y3157539D01*
X25002856Y3157688D01*
X25072171Y3167115D01*
X25137892Y3187473D01*
X25201401Y3219331D01*
X25264082Y3263257D01*
X25268965Y3267199D01*
X25304760Y3296357D01*
X25415428Y3199166D01*
X25446906Y3171257D01*
X25474941Y3145894D01*
X25498186Y3124336D01*
X25515296Y3107845D01*
X25524923Y3097679D01*
X25526548Y3095187D01*
X25522253Y3087372D01*
X25510095Y3073216D01*
X25491972Y3054503D01*
X25469780Y3033017D01*
X25445418Y3010543D01*
X25420782Y2988865D01*
X25397771Y2969767D01*
X25378281Y2955033D01*
X25375354Y2953023D01*
X25298964Y2909137D01*
X25215373Y2875249D01*
X25125732Y2851789D01*
X25085675Y2845022D01*
X25048249Y2841419D01*
X25002604Y2839635D01*
X24953080Y2839613D01*
X24904019Y2841296D01*
X24859762Y2844628D01*
X24831275Y2848350D01*
X24738225Y2869788D01*
X24652110Y2901764D01*
X24572409Y2944536D01*
X24498601Y2998362D01*
X24462346Y3030836D01*
X24400146Y3098955D01*
X24348468Y3174112D01*
X24307475Y3255999D01*
X24277328Y3344309D01*
X24262735Y3409950D01*
X24258010Y3447865D01*
X24255260Y3494220D01*
X24254449Y3545072D01*
X24255543Y3596477D01*
X24258506Y3644494D01*
X24260800Y3663950D01*
X24639188Y3663950D01*
X24924344Y3663950D01*
X24992041Y3663975D01*
X25048124Y3664077D01*
X25093680Y3664300D01*
X25129792Y3664684D01*
X25157549Y3665273D01*
X25178035Y3666109D01*
X25192336Y3667234D01*
X25201538Y3668691D01*
X25206728Y3670522D01*
X25208991Y3672768D01*
X25209424Y3675063D01*
X25206894Y3693586D01*
X25200326Y3719474D01*
X25190979Y3748549D01*
X25180111Y3776633D01*
X25176102Y3785625D01*
X25146195Y3837795D01*
X25109790Y3879310D01*
X25066209Y3910804D01*
X25020039Y3931189D01*
X24997784Y3937793D01*
X24976584Y3941574D01*
X24952069Y3942997D01*
X24919867Y3942524D01*
X24914897Y3942348D01*
X24883313Y3940756D01*
X24860204Y3938134D01*
X24841342Y3933575D01*
X24822504Y3926172D01*
X24808514Y3919527D01*
X24762137Y3889732D01*
X24721565Y3849301D01*
X24687475Y3799215D01*
X24660543Y3740458D01*
X24642366Y3678238D01*
X24639188Y3663950D01*
X24260800Y3663950D01*
X24263304Y3685178D01*
X24265279Y3696298D01*
X24289739Y3790353D01*
X24324237Y3877737D01*
X24368196Y3957848D01*
X24421040Y4030084D01*
X24482195Y4093842D01*
X24551084Y4148520D01*
X24627133Y4193517D01*
X24709766Y4228231D01*
X24796150Y4251607D01*
X24834256Y4256944D01*
X24881082Y4259862D01*
X24933030Y4260463D01*
X24986501Y4258848D01*
X24986501Y4258848D01*
G37*
X24986501Y4258848D02*
X25037896Y4255121D01*
X25083614Y4249384D01*
X25117425Y4242458D01*
X25200720Y4214074D01*
X25277187Y4175175D01*
X25346462Y4126172D01*
X25408186Y4067478D01*
X25461996Y3999508D01*
X25507531Y3922674D01*
X25544431Y3837389D01*
X25572332Y3744066D01*
X25578809Y3714976D01*
X25582778Y3690662D01*
X25586457Y3658851D01*
X25589727Y3621963D01*
X25592466Y3582421D01*
X25594554Y3542647D01*
X25595869Y3505062D01*
X25596292Y3472089D01*
X25595700Y3446149D01*
X25593974Y3429665D01*
X25593183Y3426835D01*
X25591667Y3424849D01*
X25588186Y3423127D01*
X25581891Y3421652D01*
X25571937Y3420404D01*
X25557475Y3419365D01*
X25537659Y3418515D01*
X25511642Y3417836D01*
X25478575Y3417310D01*
X25437614Y3416917D01*
X25387909Y3416639D01*
X25328614Y3416458D01*
X25258882Y3416353D01*
X25177866Y3416308D01*
X25116745Y3416300D01*
X25040545Y3416280D01*
X24968154Y3416220D01*
X24900557Y3416123D01*
X24838742Y3415994D01*
X24783692Y3415836D01*
X24736393Y3415652D01*
X24697831Y3415444D01*
X24668992Y3415217D01*
X24650860Y3414974D01*
X24644421Y3414719D01*
X24644418Y3414713D01*
X24647276Y3401823D01*
X24654198Y3381274D01*
X24663722Y3356840D01*
X24674384Y3332298D01*
X24683784Y3313158D01*
X24717042Y3263631D01*
X24758902Y3223143D01*
X24808754Y3191993D01*
X24865986Y3170477D01*
X24929989Y3158893D01*
X25000153Y3157539D01*
X25002856Y3157688D01*
X25072171Y3167115D01*
X25137892Y3187473D01*
X25201401Y3219331D01*
X25264082Y3263257D01*
X25268965Y3267199D01*
X25304760Y3296357D01*
X25415428Y3199166D01*
X25446906Y3171257D01*
X25474941Y3145894D01*
X25498186Y3124336D01*
X25515296Y3107845D01*
X25524923Y3097679D01*
X25526548Y3095187D01*
X25522253Y3087372D01*
X25510095Y3073216D01*
X25491972Y3054503D01*
X25469780Y3033017D01*
X25445418Y3010543D01*
X25420782Y2988865D01*
X25397771Y2969767D01*
X25378281Y2955033D01*
X25375354Y2953023D01*
X25298964Y2909137D01*
X25215373Y2875249D01*
X25125732Y2851789D01*
X25085675Y2845022D01*
X25048249Y2841419D01*
X25002604Y2839635D01*
X24953080Y2839613D01*
X24904019Y2841296D01*
X24859762Y2844628D01*
X24831275Y2848350D01*
X24738225Y2869788D01*
X24652110Y2901764D01*
X24572409Y2944536D01*
X24498601Y2998362D01*
X24462346Y3030836D01*
X24400146Y3098955D01*
X24348468Y3174112D01*
X24307475Y3255999D01*
X24277328Y3344309D01*
X24262735Y3409950D01*
X24258010Y3447865D01*
X24255260Y3494220D01*
X24254449Y3545072D01*
X24255543Y3596477D01*
X24258506Y3644494D01*
X24260800Y3663950D01*
X24639188Y3663950D01*
X24924344Y3663950D01*
X24992041Y3663975D01*
X25048124Y3664077D01*
X25093680Y3664300D01*
X25129792Y3664684D01*
X25157549Y3665273D01*
X25178035Y3666109D01*
X25192336Y3667234D01*
X25201538Y3668691D01*
X25206728Y3670522D01*
X25208991Y3672768D01*
X25209424Y3675063D01*
X25206894Y3693586D01*
X25200326Y3719474D01*
X25190979Y3748549D01*
X25180111Y3776633D01*
X25176102Y3785625D01*
X25146195Y3837795D01*
X25109790Y3879310D01*
X25066209Y3910804D01*
X25020039Y3931189D01*
X24997784Y3937793D01*
X24976584Y3941574D01*
X24952069Y3942997D01*
X24919867Y3942524D01*
X24914897Y3942348D01*
X24883313Y3940756D01*
X24860204Y3938134D01*
X24841342Y3933575D01*
X24822504Y3926172D01*
X24808514Y3919527D01*
X24762137Y3889732D01*
X24721565Y3849301D01*
X24687475Y3799215D01*
X24660543Y3740458D01*
X24642366Y3678238D01*
X24639188Y3663950D01*
X24260800Y3663950D01*
X24263304Y3685178D01*
X24265279Y3696298D01*
X24289739Y3790353D01*
X24324237Y3877737D01*
X24368196Y3957848D01*
X24421040Y4030084D01*
X24482195Y4093842D01*
X24551084Y4148520D01*
X24627133Y4193517D01*
X24709766Y4228231D01*
X24796150Y4251607D01*
X24834256Y4256944D01*
X24881082Y4259862D01*
X24933030Y4260463D01*
X24986501Y4258848D01*
G36*
X23638867Y4257008D02*
X23726808Y4247397D01*
X23817659Y4228162D01*
X23910642Y4199118D01*
X23914100Y4197857D01*
X23940825Y4187166D01*
X23971321Y4173535D01*
X24003213Y4158199D01*
X24034123Y4142391D01*
X24061679Y4127343D01*
X24083504Y4114289D01*
X24097223Y4104463D01*
X24100269Y4101196D01*
X24099705Y4093329D01*
X24093365Y4076555D01*
X24081030Y4050412D01*
X24062481Y4014441D01*
X24037500Y3968180D01*
X24034278Y3962313D01*
X24013954Y3925403D01*
X23995694Y3892334D01*
X23980376Y3864688D01*
X23968880Y3844052D01*
X23962085Y3832009D01*
X23960628Y3829563D01*
X23954489Y3831233D01*
X23938955Y3837594D01*
X23916043Y3847762D01*
X23887768Y3860855D01*
X23871220Y3868716D01*
X23835851Y3885144D01*
X23799790Y3901010D01*
X23766730Y3914742D01*
X23740365Y3924773D01*
X23735014Y3926597D01*
X23678080Y3942233D01*
X23625149Y3950813D01*
X23577274Y3952569D01*
X23535508Y3947735D01*
X23500907Y3936544D01*
X23474522Y3919230D01*
X23457409Y3896025D01*
X23450621Y3867164D01*
X23450550Y3863606D01*
X23454212Y3838133D01*
X23466369Y3817574D01*
X23486159Y3800167D01*
X23517781Y3781000D01*
X23561397Y3759997D01*
X23617173Y3737079D01*
X23685271Y3712171D01*
X23704550Y3705519D01*
X23781210Y3678148D01*
X23846574Y3652131D01*
X23901893Y3626880D01*
X23948421Y3601807D01*
X23987411Y3576323D01*
X24000068Y3566759D01*
X24048884Y3522639D01*
X24086161Y3475536D01*
X24112618Y3423939D01*
X24128970Y3366338D01*
X24135938Y3301222D01*
X24136305Y3280029D01*
X24130832Y3203211D01*
X24114665Y3133134D01*
X24088008Y3070022D01*
X24051071Y3014102D01*
X24004060Y2965601D01*
X23947181Y2924743D01*
X23880643Y2891756D01*
X23804652Y2866866D01*
X23746580Y2854489D01*
X23717071Y2850814D01*
X23678905Y2848053D01*
X23635962Y2846292D01*
X23592126Y2845615D01*
X23551279Y2846108D01*
X23517302Y2847856D01*
X23504525Y2849173D01*
X23429171Y2862503D01*
X23350293Y2882825D01*
X23273283Y2908552D01*
X23205388Y2937209D01*
X23180828Y2949770D01*
X23152341Y2965662D01*
X23122224Y2983444D01*
X23092776Y3001674D01*
X23066296Y3018911D01*
X23045082Y3033713D01*
X23031433Y3044638D01*
X23027977Y3048483D01*
X23030383Y3054943D01*
X23038653Y3070176D01*
X23051638Y3092363D01*
X23068188Y3119688D01*
X23087154Y3150333D01*
X23107388Y3182483D01*
X23127741Y3214319D01*
X23147062Y3244026D01*
X23164204Y3269786D01*
X23178018Y3289783D01*
X23187354Y3302199D01*
X23190384Y3305289D01*
X23197374Y3303301D01*
X23212700Y3295627D01*
X23234054Y3283509D01*
X23257494Y3269215D01*
X23332484Y3226808D01*
X23409354Y3192209D01*
X23484252Y3167153D01*
X23484426Y3167106D01*
X23512434Y3160447D01*
X23540245Y3156153D01*
X23571929Y3153794D01*
X23611558Y3152940D01*
X23618825Y3152915D01*
X23653746Y3153071D01*
X23678790Y3153923D01*
X23696778Y3155841D01*
X23710528Y3159195D01*
X23722860Y3164355D01*
X23728611Y3167319D01*
X23756929Y3188575D01*
X23774515Y3215923D01*
X23780722Y3248348D01*
X23780726Y3249126D01*
X23777333Y3271908D01*
X23766449Y3292298D01*
X23747078Y3311026D01*
X23718224Y3328818D01*
X23678894Y3346401D01*
X23628092Y3364504D01*
X23618825Y3367499D01*
X23557916Y3386995D01*
X23507746Y3403148D01*
X23466939Y3416431D01*
X23434121Y3427316D01*
X23407918Y3436274D01*
X23386953Y3443779D01*
X23369852Y3450301D01*
X23355240Y3456314D01*
X23341742Y3462289D01*
X23338650Y3463708D01*
X23269522Y3501496D01*
X23211070Y3546148D01*
X23182614Y3574578D01*
X23147394Y3619405D01*
X23121894Y3666268D01*
X23105277Y3717540D01*
X23096705Y3775593D01*
X23095043Y3822447D01*
X23098114Y3885085D01*
X23107581Y3939644D01*
X23124112Y3989381D01*
X23133492Y4009962D01*
X23170135Y4070589D01*
X23215914Y4123091D01*
X23270051Y4167282D01*
X23331768Y4202974D01*
X23400286Y4229980D01*
X23474827Y4248113D01*
X23554614Y4257185D01*
X23638867Y4257008D01*
X23638867Y4257008D01*
G37*
X23638867Y4257008D02*
X23726808Y4247397D01*
X23817659Y4228162D01*
X23910642Y4199118D01*
X23914100Y4197857D01*
X23940825Y4187166D01*
X23971321Y4173535D01*
X24003213Y4158199D01*
X24034123Y4142391D01*
X24061679Y4127343D01*
X24083504Y4114289D01*
X24097223Y4104463D01*
X24100269Y4101196D01*
X24099705Y4093329D01*
X24093365Y4076555D01*
X24081030Y4050412D01*
X24062481Y4014441D01*
X24037500Y3968180D01*
X24034278Y3962313D01*
X24013954Y3925403D01*
X23995694Y3892334D01*
X23980376Y3864688D01*
X23968880Y3844052D01*
X23962085Y3832009D01*
X23960628Y3829563D01*
X23954489Y3831233D01*
X23938955Y3837594D01*
X23916043Y3847762D01*
X23887768Y3860855D01*
X23871220Y3868716D01*
X23835851Y3885144D01*
X23799790Y3901010D01*
X23766730Y3914742D01*
X23740365Y3924773D01*
X23735014Y3926597D01*
X23678080Y3942233D01*
X23625149Y3950813D01*
X23577274Y3952569D01*
X23535508Y3947735D01*
X23500907Y3936544D01*
X23474522Y3919230D01*
X23457409Y3896025D01*
X23450621Y3867164D01*
X23450550Y3863606D01*
X23454212Y3838133D01*
X23466369Y3817574D01*
X23486159Y3800167D01*
X23517781Y3781000D01*
X23561397Y3759997D01*
X23617173Y3737079D01*
X23685271Y3712171D01*
X23704550Y3705519D01*
X23781210Y3678148D01*
X23846574Y3652131D01*
X23901893Y3626880D01*
X23948421Y3601807D01*
X23987411Y3576323D01*
X24000068Y3566759D01*
X24048884Y3522639D01*
X24086161Y3475536D01*
X24112618Y3423939D01*
X24128970Y3366338D01*
X24135938Y3301222D01*
X24136305Y3280029D01*
X24130832Y3203211D01*
X24114665Y3133134D01*
X24088008Y3070022D01*
X24051071Y3014102D01*
X24004060Y2965601D01*
X23947181Y2924743D01*
X23880643Y2891756D01*
X23804652Y2866866D01*
X23746580Y2854489D01*
X23717071Y2850814D01*
X23678905Y2848053D01*
X23635962Y2846292D01*
X23592126Y2845615D01*
X23551279Y2846108D01*
X23517302Y2847856D01*
X23504525Y2849173D01*
X23429171Y2862503D01*
X23350293Y2882825D01*
X23273283Y2908552D01*
X23205388Y2937209D01*
X23180828Y2949770D01*
X23152341Y2965662D01*
X23122224Y2983444D01*
X23092776Y3001674D01*
X23066296Y3018911D01*
X23045082Y3033713D01*
X23031433Y3044638D01*
X23027977Y3048483D01*
X23030383Y3054943D01*
X23038653Y3070176D01*
X23051638Y3092363D01*
X23068188Y3119688D01*
X23087154Y3150333D01*
X23107388Y3182483D01*
X23127741Y3214319D01*
X23147062Y3244026D01*
X23164204Y3269786D01*
X23178018Y3289783D01*
X23187354Y3302199D01*
X23190384Y3305289D01*
X23197374Y3303301D01*
X23212700Y3295627D01*
X23234054Y3283509D01*
X23257494Y3269215D01*
X23332484Y3226808D01*
X23409354Y3192209D01*
X23484252Y3167153D01*
X23484426Y3167106D01*
X23512434Y3160447D01*
X23540245Y3156153D01*
X23571929Y3153794D01*
X23611558Y3152940D01*
X23618825Y3152915D01*
X23653746Y3153071D01*
X23678790Y3153923D01*
X23696778Y3155841D01*
X23710528Y3159195D01*
X23722860Y3164355D01*
X23728611Y3167319D01*
X23756929Y3188575D01*
X23774515Y3215923D01*
X23780722Y3248348D01*
X23780726Y3249126D01*
X23777333Y3271908D01*
X23766449Y3292298D01*
X23747078Y3311026D01*
X23718224Y3328818D01*
X23678894Y3346401D01*
X23628092Y3364504D01*
X23618825Y3367499D01*
X23557916Y3386995D01*
X23507746Y3403148D01*
X23466939Y3416431D01*
X23434121Y3427316D01*
X23407918Y3436274D01*
X23386953Y3443779D01*
X23369852Y3450301D01*
X23355240Y3456314D01*
X23341742Y3462289D01*
X23338650Y3463708D01*
X23269522Y3501496D01*
X23211070Y3546148D01*
X23182614Y3574578D01*
X23147394Y3619405D01*
X23121894Y3666268D01*
X23105277Y3717540D01*
X23096705Y3775593D01*
X23095043Y3822447D01*
X23098114Y3885085D01*
X23107581Y3939644D01*
X23124112Y3989381D01*
X23133492Y4009962D01*
X23170135Y4070589D01*
X23215914Y4123091D01*
X23270051Y4167282D01*
X23331768Y4202974D01*
X23400286Y4229980D01*
X23474827Y4248113D01*
X23554614Y4257185D01*
X23638867Y4257008D01*
G36*
X28147868Y4198938D02*
X28143709Y4188185D01*
X28135244Y4166416D01*
X28122790Y4134443D01*
X28106663Y4093078D01*
X28087182Y4043134D01*
X28064662Y3985422D01*
X28039421Y3920755D01*
X28011776Y3849946D01*
X27982044Y3773806D01*
X27950542Y3693148D01*
X27917587Y3608784D01*
X27883496Y3521527D01*
X27879597Y3511550D01*
X27625276Y2860675D01*
X27445926Y2858989D01*
X27393363Y2858542D01*
X27352097Y2858354D01*
X27320728Y2858498D01*
X27297855Y2859046D01*
X27282075Y2860071D01*
X27271989Y2861646D01*
X27266196Y2863843D01*
X27263293Y2866736D01*
X27262470Y2868514D01*
X27259661Y2875799D01*
X27252528Y2894153D01*
X27241367Y2922819D01*
X27226475Y2961036D01*
X27208147Y3008044D01*
X27186680Y3063085D01*
X27162371Y3125398D01*
X27135515Y3194224D01*
X27106409Y3268805D01*
X27075349Y3348379D01*
X27042631Y3432187D01*
X27008552Y3519471D01*
X26995932Y3551792D01*
X26961502Y3640014D01*
X26928391Y3724956D01*
X26896891Y3805865D01*
X26867291Y3881991D01*
X26839882Y3952581D01*
X26814957Y4016885D01*
X26792804Y4074152D01*
X26773716Y4123630D01*
X26757983Y4164567D01*
X26745895Y4196213D01*
X26737745Y4217816D01*
X26733821Y4228625D01*
X26733500Y4229741D01*
X26739677Y4231284D01*
X26757529Y4232526D01*
X26786030Y4233446D01*
X26824157Y4234022D01*
X26870886Y4234235D01*
X26925195Y4234064D01*
X26940935Y4233950D01*
X27148370Y4232275D01*
X27297365Y3785285D01*
X27324510Y3704149D01*
X27349634Y3629653D01*
X27372514Y3562436D01*
X27392924Y3503139D01*
X27410641Y3452400D01*
X27425440Y3410859D01*
X27437097Y3379155D01*
X27445388Y3357928D01*
X27450088Y3347816D01*
X27451026Y3347135D01*
X27453766Y3354467D01*
X27460214Y3372871D01*
X27470039Y3401380D01*
X27482914Y3439024D01*
X27498508Y3484835D01*
X27516493Y3537845D01*
X27536539Y3597084D01*
X27558317Y3661584D01*
X27581498Y3730377D01*
X27603475Y3795713D01*
X27751258Y4235450D01*
X28161817Y4235450D01*
X28147868Y4198938D01*
X28147868Y4198938D01*
G37*
X28147868Y4198938D02*
X28143709Y4188185D01*
X28135244Y4166416D01*
X28122790Y4134443D01*
X28106663Y4093078D01*
X28087182Y4043134D01*
X28064662Y3985422D01*
X28039421Y3920755D01*
X28011776Y3849946D01*
X27982044Y3773806D01*
X27950542Y3693148D01*
X27917587Y3608784D01*
X27883496Y3521527D01*
X27879597Y3511550D01*
X27625276Y2860675D01*
X27445926Y2858989D01*
X27393363Y2858542D01*
X27352097Y2858354D01*
X27320728Y2858498D01*
X27297855Y2859046D01*
X27282075Y2860071D01*
X27271989Y2861646D01*
X27266196Y2863843D01*
X27263293Y2866736D01*
X27262470Y2868514D01*
X27259661Y2875799D01*
X27252528Y2894153D01*
X27241367Y2922819D01*
X27226475Y2961036D01*
X27208147Y3008044D01*
X27186680Y3063085D01*
X27162371Y3125398D01*
X27135515Y3194224D01*
X27106409Y3268805D01*
X27075349Y3348379D01*
X27042631Y3432187D01*
X27008552Y3519471D01*
X26995932Y3551792D01*
X26961502Y3640014D01*
X26928391Y3724956D01*
X26896891Y3805865D01*
X26867291Y3881991D01*
X26839882Y3952581D01*
X26814957Y4016885D01*
X26792804Y4074152D01*
X26773716Y4123630D01*
X26757983Y4164567D01*
X26745895Y4196213D01*
X26737745Y4217816D01*
X26733821Y4228625D01*
X26733500Y4229741D01*
X26739677Y4231284D01*
X26757529Y4232526D01*
X26786030Y4233446D01*
X26824157Y4234022D01*
X26870886Y4234235D01*
X26925195Y4234064D01*
X26940935Y4233950D01*
X27148370Y4232275D01*
X27297365Y3785285D01*
X27324510Y3704149D01*
X27349634Y3629653D01*
X27372514Y3562436D01*
X27392924Y3503139D01*
X27410641Y3452400D01*
X27425440Y3410859D01*
X27437097Y3379155D01*
X27445388Y3357928D01*
X27450088Y3347816D01*
X27451026Y3347135D01*
X27453766Y3354467D01*
X27460214Y3372871D01*
X27470039Y3401380D01*
X27482914Y3439024D01*
X27498508Y3484835D01*
X27516493Y3537845D01*
X27536539Y3597084D01*
X27558317Y3661584D01*
X27581498Y3730377D01*
X27603475Y3795713D01*
X27751258Y4235450D01*
X28161817Y4235450D01*
X28147868Y4198938D01*
G36*
X22441086Y4257490D02*
X22472603Y4256757D01*
X22496930Y4255214D01*
X22516817Y4252598D01*
X22535019Y4248646D01*
X22554289Y4243095D01*
X22555200Y4242811D01*
X22612233Y4221506D01*
X22660853Y4195084D01*
X22705042Y4161202D01*
X22724056Y4143375D01*
X22771136Y4088022D01*
X22808605Y4024487D01*
X22836332Y3953037D01*
X22853433Y3878658D01*
X22854727Y3864116D01*
X22855898Y3837443D01*
X22856941Y3799206D01*
X22857847Y3749976D01*
X22858610Y3690319D01*
X22859222Y3620804D01*
X22859676Y3542001D01*
X22859965Y3454476D01*
X22860081Y3358798D01*
X22860082Y3355975D01*
X22860192Y2873375D01*
X22663246Y2871698D01*
X22466300Y2870020D01*
X22466300Y3284701D01*
X22466281Y3371274D01*
X22466185Y3446141D01*
X22465948Y3510297D01*
X22465511Y3564736D01*
X22464811Y3610452D01*
X22463787Y3648439D01*
X22462376Y3679693D01*
X22460518Y3705206D01*
X22458150Y3725974D01*
X22455212Y3742990D01*
X22451641Y3757249D01*
X22447376Y3769746D01*
X22442355Y3781474D01*
X22436518Y3793427D01*
X22434537Y3797326D01*
X22409593Y3833397D01*
X22375122Y3864555D01*
X22339849Y3885435D01*
X22321811Y3893183D01*
X22305139Y3898096D01*
X22286017Y3900797D01*
X22260631Y3901905D01*
X22237700Y3902065D01*
X22205801Y3901686D01*
X22182783Y3900135D01*
X22164841Y3896797D01*
X22148168Y3891054D01*
X22135810Y3885553D01*
X22092763Y3860429D01*
X22059902Y3829663D01*
X22039131Y3798850D01*
X22032147Y3785838D01*
X22026119Y3773641D01*
X22020978Y3761259D01*
X22016652Y3747690D01*
X22013071Y3731932D01*
X22010164Y3712986D01*
X22007862Y3689850D01*
X22006094Y3661523D01*
X22004789Y3627004D01*
X22003877Y3585291D01*
X22003288Y3535385D01*
X22002951Y3476283D01*
X22002796Y3406986D01*
X22002752Y3326491D01*
X22002750Y3281616D01*
X22002750Y2870200D01*
X21609050Y2870200D01*
X21609050Y4235450D01*
X22002750Y4235450D01*
X22002738Y4148138D01*
X22002727Y4060825D01*
X22064904Y4121150D01*
X22105214Y4158388D01*
X22141469Y4187297D01*
X22176851Y4209987D01*
X22214540Y4228568D01*
X22245100Y4240662D01*
X22263094Y4246953D01*
X22279012Y4251471D01*
X22295501Y4254507D01*
X22315210Y4256353D01*
X22340785Y4257301D01*
X22374874Y4257641D01*
X22399625Y4257675D01*
X22441086Y4257490D01*
X22441086Y4257490D01*
G37*
X22441086Y4257490D02*
X22472603Y4256757D01*
X22496930Y4255214D01*
X22516817Y4252598D01*
X22535019Y4248646D01*
X22554289Y4243095D01*
X22555200Y4242811D01*
X22612233Y4221506D01*
X22660853Y4195084D01*
X22705042Y4161202D01*
X22724056Y4143375D01*
X22771136Y4088022D01*
X22808605Y4024487D01*
X22836332Y3953037D01*
X22853433Y3878658D01*
X22854727Y3864116D01*
X22855898Y3837443D01*
X22856941Y3799206D01*
X22857847Y3749976D01*
X22858610Y3690319D01*
X22859222Y3620804D01*
X22859676Y3542001D01*
X22859965Y3454476D01*
X22860081Y3358798D01*
X22860082Y3355975D01*
X22860192Y2873375D01*
X22663246Y2871698D01*
X22466300Y2870020D01*
X22466300Y3284701D01*
X22466281Y3371274D01*
X22466185Y3446141D01*
X22465948Y3510297D01*
X22465511Y3564736D01*
X22464811Y3610452D01*
X22463787Y3648439D01*
X22462376Y3679693D01*
X22460518Y3705206D01*
X22458150Y3725974D01*
X22455212Y3742990D01*
X22451641Y3757249D01*
X22447376Y3769746D01*
X22442355Y3781474D01*
X22436518Y3793427D01*
X22434537Y3797326D01*
X22409593Y3833397D01*
X22375122Y3864555D01*
X22339849Y3885435D01*
X22321811Y3893183D01*
X22305139Y3898096D01*
X22286017Y3900797D01*
X22260631Y3901905D01*
X22237700Y3902065D01*
X22205801Y3901686D01*
X22182783Y3900135D01*
X22164841Y3896797D01*
X22148168Y3891054D01*
X22135810Y3885553D01*
X22092763Y3860429D01*
X22059902Y3829663D01*
X22039131Y3798850D01*
X22032147Y3785838D01*
X22026119Y3773641D01*
X22020978Y3761259D01*
X22016652Y3747690D01*
X22013071Y3731932D01*
X22010164Y3712986D01*
X22007862Y3689850D01*
X22006094Y3661523D01*
X22004789Y3627004D01*
X22003877Y3585291D01*
X22003288Y3535385D01*
X22002951Y3476283D01*
X22002796Y3406986D01*
X22002752Y3326491D01*
X22002750Y3281616D01*
X22002750Y2870200D01*
X21609050Y2870200D01*
X21609050Y4235450D01*
X22002750Y4235450D01*
X22002738Y4148138D01*
X22002727Y4060825D01*
X22064904Y4121150D01*
X22105214Y4158388D01*
X22141469Y4187297D01*
X22176851Y4209987D01*
X22214540Y4228568D01*
X22245100Y4240662D01*
X22263094Y4246953D01*
X22279012Y4251471D01*
X22295501Y4254507D01*
X22315210Y4256353D01*
X22340785Y4257301D01*
X22374874Y4257641D01*
X22399625Y4257675D01*
X22441086Y4257490D01*
G36*
X26615871Y4263497D02*
X26631900Y4259474D01*
X26631900Y3856197D01*
X26578298Y3851848D01*
X26502276Y3840689D01*
X26434838Y3820185D01*
X26375863Y3790237D01*
X26325229Y3750747D01*
X26282812Y3701614D01*
X26248491Y3642739D01*
X26222143Y3574023D01*
X26217843Y3559175D01*
X26214677Y3547227D01*
X26212015Y3535515D01*
X26209804Y3522833D01*
X26207990Y3507971D01*
X26206521Y3489720D01*
X26205344Y3466873D01*
X26204405Y3438220D01*
X26203652Y3402552D01*
X26203032Y3358662D01*
X26202490Y3305341D01*
X26201975Y3241380D01*
X26201599Y3189288D01*
X26199352Y2870200D01*
X25806400Y2870200D01*
X25806400Y4235450D01*
X26200100Y4235450D01*
X26200244Y4110038D01*
X26200388Y3984625D01*
X26221403Y4023610D01*
X26258578Y4083619D01*
X26301139Y4136593D01*
X26347654Y4181207D01*
X26396690Y4216135D01*
X26446816Y4240052D01*
X26459810Y4244291D01*
X26486194Y4250789D01*
X26517198Y4256514D01*
X26549317Y4261035D01*
X26579046Y4263922D01*
X26602880Y4264742D01*
X26615871Y4263497D01*
X26615871Y4263497D01*
G37*
X26615871Y4263497D02*
X26631900Y4259474D01*
X26631900Y3856197D01*
X26578298Y3851848D01*
X26502276Y3840689D01*
X26434838Y3820185D01*
X26375863Y3790237D01*
X26325229Y3750747D01*
X26282812Y3701614D01*
X26248491Y3642739D01*
X26222143Y3574023D01*
X26217843Y3559175D01*
X26214677Y3547227D01*
X26212015Y3535515D01*
X26209804Y3522833D01*
X26207990Y3507971D01*
X26206521Y3489720D01*
X26205344Y3466873D01*
X26204405Y3438220D01*
X26203652Y3402552D01*
X26203032Y3358662D01*
X26202490Y3305341D01*
X26201975Y3241380D01*
X26201599Y3189288D01*
X26199352Y2870200D01*
X25806400Y2870200D01*
X25806400Y4235450D01*
X26200100Y4235450D01*
X26200244Y4110038D01*
X26200388Y3984625D01*
X26221403Y4023610D01*
X26258578Y4083619D01*
X26301139Y4136593D01*
X26347654Y4181207D01*
X26396690Y4216135D01*
X26446816Y4240052D01*
X26459810Y4244291D01*
X26486194Y4250789D01*
X26517198Y4256514D01*
X26549317Y4261035D01*
X26579046Y4263922D01*
X26602880Y4264742D01*
X26615871Y4263497D01*
G36*
X28697296Y3554413D02*
X28695768Y2873375D01*
X28498859Y2871698D01*
X28301950Y2870020D01*
X28301950Y4235450D01*
X28500387Y4235451D01*
X28698825Y4235451D01*
X28697296Y3554413D01*
X28697296Y3554413D01*
G37*
X28697296Y3554413D02*
X28695768Y2873375D01*
X28498859Y2871698D01*
X28301950Y2870020D01*
X28301950Y4235450D01*
X28500387Y4235451D01*
X28698825Y4235451D01*
X28697296Y3554413D01*
G36*
X29502100Y4745713D02*
X29551484Y4745292D01*
X29591568Y4743908D01*
X29625737Y4741166D01*
X29657378Y4736671D01*
X29689878Y4730027D01*
X29726622Y4720840D01*
X29735462Y4718478D01*
X29762450Y4711211D01*
X29762450Y4545676D01*
X29762403Y4495571D01*
X29762200Y4456783D01*
X29761746Y4427932D01*
X29760944Y4407635D01*
X29759700Y4394510D01*
X29757918Y4387176D01*
X29755503Y4384251D01*
X29752358Y4384352D01*
X29751337Y4384733D01*
X29718144Y4395706D01*
X29677620Y4405009D01*
X29635120Y4411617D01*
X29596391Y4414492D01*
X29550009Y4412042D01*
X29513337Y4402062D01*
X29485530Y4383760D01*
X29465743Y4356348D01*
X29453131Y4319034D01*
X29447108Y4274891D01*
X29443370Y4222976D01*
X29599973Y4221276D01*
X29756576Y4219575D01*
X29756576Y3902075D01*
X29451300Y3898675D01*
X29451300Y2870200D01*
X29057600Y2870200D01*
X29057600Y3898900D01*
X28898850Y3898900D01*
X28898850Y4222750D01*
X29055874Y4222750D01*
X29059170Y4316413D01*
X29061318Y4357377D01*
X29064671Y4397227D01*
X29068838Y4432080D01*
X29073350Y4457700D01*
X29094331Y4525535D01*
X29124279Y4584386D01*
X29163307Y4634375D01*
X29211533Y4675622D01*
X29269071Y4708249D01*
X29336038Y4732376D01*
X29336088Y4732390D01*
X29355769Y4737378D01*
X29375125Y4740981D01*
X29396750Y4743408D01*
X29423238Y4744867D01*
X29457185Y4745566D01*
X29501185Y4745714D01*
X29502100Y4745713D01*
X29502100Y4745713D01*
G37*
X29502100Y4745713D02*
X29551484Y4745292D01*
X29591568Y4743908D01*
X29625737Y4741166D01*
X29657378Y4736671D01*
X29689878Y4730027D01*
X29726622Y4720840D01*
X29735462Y4718478D01*
X29762450Y4711211D01*
X29762450Y4545676D01*
X29762403Y4495571D01*
X29762200Y4456783D01*
X29761746Y4427932D01*
X29760944Y4407635D01*
X29759700Y4394510D01*
X29757918Y4387176D01*
X29755503Y4384251D01*
X29752358Y4384352D01*
X29751337Y4384733D01*
X29718144Y4395706D01*
X29677620Y4405009D01*
X29635120Y4411617D01*
X29596391Y4414492D01*
X29550009Y4412042D01*
X29513337Y4402062D01*
X29485530Y4383760D01*
X29465743Y4356348D01*
X29453131Y4319034D01*
X29447108Y4274891D01*
X29443370Y4222976D01*
X29599973Y4221276D01*
X29756576Y4219575D01*
X29756576Y3902075D01*
X29451300Y3898675D01*
X29451300Y2870200D01*
X29057600Y2870200D01*
X29057600Y3898900D01*
X28898850Y3898900D01*
X28898850Y4222750D01*
X29055874Y4222750D01*
X29059170Y4316413D01*
X29061318Y4357377D01*
X29064671Y4397227D01*
X29068838Y4432080D01*
X29073350Y4457700D01*
X29094331Y4525535D01*
X29124279Y4584386D01*
X29163307Y4634375D01*
X29211533Y4675622D01*
X29269071Y4708249D01*
X29336038Y4732376D01*
X29336088Y4732390D01*
X29355769Y4737378D01*
X29375125Y4740981D01*
X29396750Y4743408D01*
X29423238Y4744867D01*
X29457185Y4745566D01*
X29501185Y4745714D01*
X29502100Y4745713D01*
G36*
X28708350Y4381500D02*
X28295600Y4381500D01*
X28295600Y4730750D01*
X28708350Y4730750D01*
X28708350Y4381500D01*
X28708350Y4381500D01*
G37*
X28708350Y4381500D02*
X28295600Y4381500D01*
X28295600Y4730750D01*
X28708350Y4730750D01*
X28708350Y4381500D01*
G36*
X15774029Y5456340D02*
X15843127Y5441466D01*
X15913890Y5414590D01*
X15931291Y5406350D01*
X15962164Y5390193D01*
X15987476Y5374062D01*
X16011503Y5354833D01*
X16038520Y5329383D01*
X16043696Y5324235D01*
X16069327Y5297687D01*
X16088374Y5275062D01*
X16103913Y5252044D01*
X16119024Y5224313D01*
X16128112Y5205811D01*
X16147855Y5162391D01*
X16161559Y5125430D01*
X16170189Y5090792D01*
X16174713Y5054343D01*
X16176096Y5011948D01*
X16176069Y5000625D01*
X16175686Y4979272D01*
X16174597Y4959278D01*
X16172408Y4939698D01*
X16168728Y4919585D01*
X16163166Y4897995D01*
X16155331Y4873981D01*
X16144830Y4846596D01*
X16131273Y4814896D01*
X16114266Y4777934D01*
X16093420Y4734763D01*
X16068342Y4684439D01*
X16038641Y4626014D01*
X16003925Y4558544D01*
X15963803Y4481081D01*
X15950016Y4454525D01*
X15917458Y4391951D01*
X15886428Y4332537D01*
X15857452Y4277276D01*
X15831053Y4227157D01*
X15807759Y4183173D01*
X15788094Y4146315D01*
X15772584Y4117574D01*
X15761753Y4097941D01*
X15756127Y4088407D01*
X15755684Y4087813D01*
X15740690Y4078925D01*
X15721571Y4077336D01*
X15704664Y4083291D01*
X15701787Y4085721D01*
X15695869Y4094290D01*
X15684759Y4112991D01*
X15669071Y4140659D01*
X15649419Y4176130D01*
X15626416Y4218242D01*
X15600678Y4265830D01*
X15572818Y4317732D01*
X15543451Y4372782D01*
X15513191Y4429818D01*
X15482652Y4487676D01*
X15452449Y4545192D01*
X15423195Y4601203D01*
X15395505Y4654545D01*
X15369993Y4704055D01*
X15347273Y4748568D01*
X15327961Y4786921D01*
X15312669Y4817951D01*
X15302012Y4840494D01*
X15296668Y4853197D01*
X15276574Y4929597D01*
X15268684Y5005165D01*
X15269360Y5016958D01*
X15406122Y5016958D01*
X15409198Y4957676D01*
X15422860Y4901659D01*
X15446081Y4849933D01*
X15477833Y4803524D01*
X15517087Y4763459D01*
X15562817Y4730765D01*
X15613994Y4706468D01*
X15669590Y4691594D01*
X15728578Y4687170D01*
X15789929Y4694223D01*
X15797688Y4695957D01*
X15858133Y4716285D01*
X15911140Y4746581D01*
X15955951Y4786014D01*
X15991810Y4833750D01*
X16017963Y4888960D01*
X16033652Y4950811D01*
X16034489Y4956423D01*
X16037284Y5017754D01*
X16028775Y5076257D01*
X16010056Y5130883D01*
X15982222Y5180585D01*
X15946367Y5224314D01*
X15903587Y5261022D01*
X15854975Y5289660D01*
X15801628Y5309180D01*
X15744639Y5318534D01*
X15685104Y5316672D01*
X15662275Y5312855D01*
X15598864Y5294123D01*
X15543488Y5265852D01*
X15496634Y5228503D01*
X15458787Y5182536D01*
X15430434Y5128410D01*
X15414660Y5078478D01*
X15406122Y5016958D01*
X15269360Y5016958D01*
X15272926Y5079068D01*
X15289232Y5150471D01*
X15317529Y5218541D01*
X15329271Y5239762D01*
X15371663Y5299733D01*
X15422783Y5351307D01*
X15481318Y5393402D01*
X15545955Y5424934D01*
X15559927Y5430025D01*
X15634109Y5450512D01*
X15704917Y5459320D01*
X15774029Y5456340D01*
X15774029Y5456340D01*
G37*
X15774029Y5456340D02*
X15843127Y5441466D01*
X15913890Y5414590D01*
X15931291Y5406350D01*
X15962164Y5390193D01*
X15987476Y5374062D01*
X16011503Y5354833D01*
X16038520Y5329383D01*
X16043696Y5324235D01*
X16069327Y5297687D01*
X16088374Y5275062D01*
X16103913Y5252044D01*
X16119024Y5224313D01*
X16128112Y5205811D01*
X16147855Y5162391D01*
X16161559Y5125430D01*
X16170189Y5090792D01*
X16174713Y5054343D01*
X16176096Y5011948D01*
X16176069Y5000625D01*
X16175686Y4979272D01*
X16174597Y4959278D01*
X16172408Y4939698D01*
X16168728Y4919585D01*
X16163166Y4897995D01*
X16155331Y4873981D01*
X16144830Y4846596D01*
X16131273Y4814896D01*
X16114266Y4777934D01*
X16093420Y4734763D01*
X16068342Y4684439D01*
X16038641Y4626014D01*
X16003925Y4558544D01*
X15963803Y4481081D01*
X15950016Y4454525D01*
X15917458Y4391951D01*
X15886428Y4332537D01*
X15857452Y4277276D01*
X15831053Y4227157D01*
X15807759Y4183173D01*
X15788094Y4146315D01*
X15772584Y4117574D01*
X15761753Y4097941D01*
X15756127Y4088407D01*
X15755684Y4087813D01*
X15740690Y4078925D01*
X15721571Y4077336D01*
X15704664Y4083291D01*
X15701787Y4085721D01*
X15695869Y4094290D01*
X15684759Y4112991D01*
X15669071Y4140659D01*
X15649419Y4176130D01*
X15626416Y4218242D01*
X15600678Y4265830D01*
X15572818Y4317732D01*
X15543451Y4372782D01*
X15513191Y4429818D01*
X15482652Y4487676D01*
X15452449Y4545192D01*
X15423195Y4601203D01*
X15395505Y4654545D01*
X15369993Y4704055D01*
X15347273Y4748568D01*
X15327961Y4786921D01*
X15312669Y4817951D01*
X15302012Y4840494D01*
X15296668Y4853197D01*
X15276574Y4929597D01*
X15268684Y5005165D01*
X15269360Y5016958D01*
X15406122Y5016958D01*
X15409198Y4957676D01*
X15422860Y4901659D01*
X15446081Y4849933D01*
X15477833Y4803524D01*
X15517087Y4763459D01*
X15562817Y4730765D01*
X15613994Y4706468D01*
X15669590Y4691594D01*
X15728578Y4687170D01*
X15789929Y4694223D01*
X15797688Y4695957D01*
X15858133Y4716285D01*
X15911140Y4746581D01*
X15955951Y4786014D01*
X15991810Y4833750D01*
X16017963Y4888960D01*
X16033652Y4950811D01*
X16034489Y4956423D01*
X16037284Y5017754D01*
X16028775Y5076257D01*
X16010056Y5130883D01*
X15982222Y5180585D01*
X15946367Y5224314D01*
X15903587Y5261022D01*
X15854975Y5289660D01*
X15801628Y5309180D01*
X15744639Y5318534D01*
X15685104Y5316672D01*
X15662275Y5312855D01*
X15598864Y5294123D01*
X15543488Y5265852D01*
X15496634Y5228503D01*
X15458787Y5182536D01*
X15430434Y5128410D01*
X15414660Y5078478D01*
X15406122Y5016958D01*
X15269360Y5016958D01*
X15272926Y5079068D01*
X15289232Y5150471D01*
X15317529Y5218541D01*
X15329271Y5239762D01*
X15371663Y5299733D01*
X15422783Y5351307D01*
X15481318Y5393402D01*
X15545955Y5424934D01*
X15559927Y5430025D01*
X15634109Y5450512D01*
X15704917Y5459320D01*
X15774029Y5456340D01*
G36*
X41667861Y15774717D02*
X41658104Y15780318D01*
X41656000Y15791645D01*
X41654994Y15804076D01*
X41649101Y15803210D01*
X41639724Y15795161D01*
X41615073Y15781986D01*
X41581980Y15775535D01*
X41547901Y15776703D01*
X41528940Y15781891D01*
X41506236Y15796336D01*
X41485704Y15817104D01*
X41484330Y15818968D01*
X41475892Y15832579D01*
X41470405Y15847644D01*
X41467255Y15868074D01*
X41465826Y15897777D01*
X41465500Y15938500D01*
X41465860Y15980741D01*
X41467351Y16009965D01*
X41470589Y16030084D01*
X41476189Y16045007D01*
X41484330Y16058032D01*
X41504172Y16078949D01*
X41527099Y16094301D01*
X41528940Y16095108D01*
X41559715Y16101644D01*
X41594298Y16099989D01*
X41625232Y16091034D01*
X41639724Y16081838D01*
X41646124Y16076635D01*
X41650579Y16076096D01*
X41653441Y16082492D01*
X41655063Y16098094D01*
X41655796Y16125173D01*
X41655993Y16166000D01*
X41656000Y16186830D01*
X41656000Y16306551D01*
X41628483Y16289774D01*
X41590176Y16275345D01*
X41551367Y16276388D01*
X41515557Y16291920D01*
X41486245Y16320960D01*
X41479587Y16331543D01*
X41472199Y16346316D01*
X41467095Y16362076D01*
X41463863Y16382236D01*
X41462091Y16410210D01*
X41461368Y16449414D01*
X41461266Y16483636D01*
X41461266Y16603133D01*
X41537466Y16603133D01*
X41537466Y16490145D01*
X41538086Y16437971D01*
X41540565Y16400376D01*
X41545837Y16375032D01*
X41554835Y16359611D01*
X41568492Y16351784D01*
X41587741Y16349224D01*
X41593971Y16349133D01*
X41615044Y16351336D01*
X41630495Y16359418D01*
X41641249Y16375590D01*
X41648230Y16402063D01*
X41652365Y16441047D01*
X41654556Y16493928D01*
X41657346Y16603133D01*
X41723733Y16603133D01*
X41723733Y15924139D01*
X41651695Y15924139D01*
X41650671Y15960682D01*
X41643759Y15994151D01*
X41631296Y16019111D01*
X41624715Y16025582D01*
X41602759Y16032761D01*
X41576292Y16029974D01*
X41553384Y16018591D01*
X41547422Y16012469D01*
X41542071Y15996486D01*
X41539230Y15969550D01*
X41538756Y15937010D01*
X41540511Y15904218D01*
X41544353Y15876525D01*
X41550143Y15859281D01*
X41551482Y15857598D01*
X41569696Y15849290D01*
X41595014Y15848050D01*
X41619540Y15853311D01*
X41634738Y15863570D01*
X41646497Y15889957D01*
X41651695Y15924139D01*
X41723733Y15924139D01*
X41723733Y15773400D01*
X41689867Y15773400D01*
X41667861Y15774717D01*
X41667861Y15774717D01*
G37*
X41667861Y15774717D02*
X41658104Y15780318D01*
X41656000Y15791645D01*
X41654994Y15804076D01*
X41649101Y15803210D01*
X41639724Y15795161D01*
X41615073Y15781986D01*
X41581980Y15775535D01*
X41547901Y15776703D01*
X41528940Y15781891D01*
X41506236Y15796336D01*
X41485704Y15817104D01*
X41484330Y15818968D01*
X41475892Y15832579D01*
X41470405Y15847644D01*
X41467255Y15868074D01*
X41465826Y15897777D01*
X41465500Y15938500D01*
X41465860Y15980741D01*
X41467351Y16009965D01*
X41470589Y16030084D01*
X41476189Y16045007D01*
X41484330Y16058032D01*
X41504172Y16078949D01*
X41527099Y16094301D01*
X41528940Y16095108D01*
X41559715Y16101644D01*
X41594298Y16099989D01*
X41625232Y16091034D01*
X41639724Y16081838D01*
X41646124Y16076635D01*
X41650579Y16076096D01*
X41653441Y16082492D01*
X41655063Y16098094D01*
X41655796Y16125173D01*
X41655993Y16166000D01*
X41656000Y16186830D01*
X41656000Y16306551D01*
X41628483Y16289774D01*
X41590176Y16275345D01*
X41551367Y16276388D01*
X41515557Y16291920D01*
X41486245Y16320960D01*
X41479587Y16331543D01*
X41472199Y16346316D01*
X41467095Y16362076D01*
X41463863Y16382236D01*
X41462091Y16410210D01*
X41461368Y16449414D01*
X41461266Y16483636D01*
X41461266Y16603133D01*
X41537466Y16603133D01*
X41537466Y16490145D01*
X41538086Y16437971D01*
X41540565Y16400376D01*
X41545837Y16375032D01*
X41554835Y16359611D01*
X41568492Y16351784D01*
X41587741Y16349224D01*
X41593971Y16349133D01*
X41615044Y16351336D01*
X41630495Y16359418D01*
X41641249Y16375590D01*
X41648230Y16402063D01*
X41652365Y16441047D01*
X41654556Y16493928D01*
X41657346Y16603133D01*
X41723733Y16603133D01*
X41723733Y15924139D01*
X41651695Y15924139D01*
X41650671Y15960682D01*
X41643759Y15994151D01*
X41631296Y16019111D01*
X41624715Y16025582D01*
X41602759Y16032761D01*
X41576292Y16029974D01*
X41553384Y16018591D01*
X41547422Y16012469D01*
X41542071Y15996486D01*
X41539230Y15969550D01*
X41538756Y15937010D01*
X41540511Y15904218D01*
X41544353Y15876525D01*
X41550143Y15859281D01*
X41551482Y15857598D01*
X41569696Y15849290D01*
X41595014Y15848050D01*
X41619540Y15853311D01*
X41634738Y15863570D01*
X41646497Y15889957D01*
X41651695Y15924139D01*
X41723733Y15924139D01*
X41723733Y15773400D01*
X41689867Y15773400D01*
X41667861Y15774717D01*
G36*
X41251068Y16278925D02*
X41210406Y16295831D01*
X41186644Y16316164D01*
X41178390Y16326579D01*
X41172547Y16337010D01*
X41168700Y16350455D01*
X41166431Y16369914D01*
X41165325Y16398384D01*
X41164964Y16438865D01*
X41164933Y16472549D01*
X41164933Y16603133D01*
X41198800Y16603133D01*
X41220006Y16601189D01*
X41231802Y16596334D01*
X41232667Y16594369D01*
X41237849Y16589929D01*
X41249043Y16594369D01*
X41274935Y16601633D01*
X41309393Y16603133D01*
X41345210Y16599272D01*
X41375180Y16590451D01*
X41381844Y16586965D01*
X41404977Y16564680D01*
X41421594Y16533530D01*
X41427400Y16503666D01*
X41426662Y16500683D01*
X41358518Y16500683D01*
X41354637Y16518008D01*
X41344850Y16526255D01*
X41325274Y16532348D01*
X41298308Y16534809D01*
X41270740Y16533703D01*
X41249357Y16529100D01*
X41242826Y16525240D01*
X41235230Y16509638D01*
X41232667Y16491373D01*
X41233486Y16478190D01*
X41238621Y16471108D01*
X41252084Y16468233D01*
X41277887Y16467669D01*
X41282862Y16467667D01*
X41319863Y16470113D01*
X41342270Y16477682D01*
X41346362Y16480971D01*
X41358518Y16500683D01*
X41426662Y16500683D01*
X41420676Y16476493D01*
X41403632Y16448485D01*
X41380956Y16426647D01*
X41372549Y16421754D01*
X41344981Y16413543D01*
X41307650Y16408974D01*
X41288537Y16408400D01*
X41258625Y16407976D01*
X41241875Y16405847D01*
X41234523Y16400726D01*
X41232801Y16391326D01*
X41232796Y16389350D01*
X41237166Y16365422D01*
X41251869Y16351064D01*
X41279902Y16343468D01*
X41282068Y16343167D01*
X41315238Y16343152D01*
X41338624Y16352669D01*
X41353925Y16361248D01*
X41365649Y16360691D01*
X41381401Y16350133D01*
X41384865Y16347410D01*
X41400430Y16332643D01*
X41407445Y16321022D01*
X41407422Y16319500D01*
X41397896Y16308874D01*
X41377183Y16296606D01*
X41350564Y16285000D01*
X41323321Y16276357D01*
X41300735Y16272980D01*
X41300723Y16272980D01*
X41251068Y16278925D01*
X41251068Y16278925D01*
G37*
X41251068Y16278925D02*
X41210406Y16295831D01*
X41186644Y16316164D01*
X41178390Y16326579D01*
X41172547Y16337010D01*
X41168700Y16350455D01*
X41166431Y16369914D01*
X41165325Y16398384D01*
X41164964Y16438865D01*
X41164933Y16472549D01*
X41164933Y16603133D01*
X41198800Y16603133D01*
X41220006Y16601189D01*
X41231802Y16596334D01*
X41232667Y16594369D01*
X41237849Y16589929D01*
X41249043Y16594369D01*
X41274935Y16601633D01*
X41309393Y16603133D01*
X41345210Y16599272D01*
X41375180Y16590451D01*
X41381844Y16586965D01*
X41404977Y16564680D01*
X41421594Y16533530D01*
X41427400Y16503666D01*
X41426662Y16500683D01*
X41358518Y16500683D01*
X41354637Y16518008D01*
X41344850Y16526255D01*
X41325274Y16532348D01*
X41298308Y16534809D01*
X41270740Y16533703D01*
X41249357Y16529100D01*
X41242826Y16525240D01*
X41235230Y16509638D01*
X41232667Y16491373D01*
X41233486Y16478190D01*
X41238621Y16471108D01*
X41252084Y16468233D01*
X41277887Y16467669D01*
X41282862Y16467667D01*
X41319863Y16470113D01*
X41342270Y16477682D01*
X41346362Y16480971D01*
X41358518Y16500683D01*
X41426662Y16500683D01*
X41420676Y16476493D01*
X41403632Y16448485D01*
X41380956Y16426647D01*
X41372549Y16421754D01*
X41344981Y16413543D01*
X41307650Y16408974D01*
X41288537Y16408400D01*
X41258625Y16407976D01*
X41241875Y16405847D01*
X41234523Y16400726D01*
X41232801Y16391326D01*
X41232796Y16389350D01*
X41237166Y16365422D01*
X41251869Y16351064D01*
X41279902Y16343468D01*
X41282068Y16343167D01*
X41315238Y16343152D01*
X41338624Y16352669D01*
X41353925Y16361248D01*
X41365649Y16360691D01*
X41381401Y16350133D01*
X41384865Y16347410D01*
X41400430Y16332643D01*
X41407445Y16321022D01*
X41407422Y16319500D01*
X41397896Y16308874D01*
X41377183Y16296606D01*
X41350564Y16285000D01*
X41323321Y16276357D01*
X41300735Y16272980D01*
X41300723Y16272980D01*
X41251068Y16278925D01*
G36*
X40924864Y16276890D02*
X40901856Y16285949D01*
X40876686Y16298965D01*
X40898841Y16328011D01*
X40914343Y16346189D01*
X40928416Y16353495D01*
X40948909Y16353162D01*
X40957286Y16352083D01*
X40983150Y16350467D01*
X41000261Y16355759D01*
X41011521Y16365054D01*
X41018921Y16373776D01*
X41023960Y16384610D01*
X41027086Y16400741D01*
X41028746Y16425356D01*
X41029386Y16461640D01*
X41029466Y16493067D01*
X41029466Y16603133D01*
X41096492Y16603133D01*
X41098962Y16441542D01*
X41099647Y16391196D01*
X41100086Y16347077D01*
X41100265Y16311813D01*
X41100172Y16288035D01*
X41099794Y16278373D01*
X41099756Y16278293D01*
X41091144Y16277979D01*
X41071648Y16279204D01*
X41063773Y16279907D01*
X41039303Y16284983D01*
X41029562Y16293738D01*
X41029466Y16294865D01*
X41025979Y16300574D01*
X41013649Y16296477D01*
X41001950Y16289774D01*
X40963573Y16274872D01*
X40924864Y16276890D01*
X40924864Y16276890D01*
G37*
X40924864Y16276890D02*
X40901856Y16285949D01*
X40876686Y16298965D01*
X40898841Y16328011D01*
X40914343Y16346189D01*
X40928416Y16353495D01*
X40948909Y16353162D01*
X40957286Y16352083D01*
X40983150Y16350467D01*
X41000261Y16355759D01*
X41011521Y16365054D01*
X41018921Y16373776D01*
X41023960Y16384610D01*
X41027086Y16400741D01*
X41028746Y16425356D01*
X41029386Y16461640D01*
X41029466Y16493067D01*
X41029466Y16603133D01*
X41096492Y16603133D01*
X41098962Y16441542D01*
X41099647Y16391196D01*
X41100086Y16347077D01*
X41100265Y16311813D01*
X41100172Y16288035D01*
X41099794Y16278373D01*
X41099756Y16278293D01*
X41091144Y16277979D01*
X41071648Y16279204D01*
X41063773Y16279907D01*
X41039303Y16284983D01*
X41029562Y16293738D01*
X41029466Y16294865D01*
X41025979Y16300574D01*
X41013649Y16296477D01*
X41001950Y16289774D01*
X40963573Y16274872D01*
X40924864Y16276890D01*
G36*
X40623066Y16603133D02*
X40656933Y16603133D01*
X40680339Y16601097D01*
X40690084Y16594262D01*
X40690800Y16590216D01*
X40692498Y16582305D01*
X40700564Y16582942D01*
X40715779Y16590216D01*
X40740145Y16598303D01*
X40770648Y16602803D01*
X40780126Y16603133D01*
X40808051Y16600932D01*
X40828512Y16591816D01*
X40847463Y16575164D01*
X40865232Y16554033D01*
X40875495Y16530927D01*
X40881524Y16498435D01*
X40881601Y16497824D01*
X40884142Y16461013D01*
X40884134Y16444595D01*
X40810723Y16444595D01*
X40807661Y16478180D01*
X40800342Y16505613D01*
X40792400Y16518466D01*
X40766993Y16533225D01*
X40738326Y16532417D01*
X40719216Y16523013D01*
X40706296Y16505252D01*
X40698161Y16476819D01*
X40694858Y16442851D01*
X40696432Y16408481D01*
X40702930Y16378844D01*
X40714400Y16359075D01*
X40717704Y16356491D01*
X40741118Y16349731D01*
X40769059Y16351733D01*
X40792099Y16361674D01*
X40793850Y16363145D01*
X40803870Y16381457D01*
X40809477Y16410480D01*
X40810723Y16444595D01*
X40884134Y16444595D01*
X40884119Y16418844D01*
X40882566Y16392733D01*
X40878459Y16360277D01*
X40871892Y16338407D01*
X40860329Y16320775D01*
X40848932Y16308581D01*
X40813626Y16283476D01*
X40775103Y16274822D01*
X40734679Y16282828D01*
X40722550Y16288420D01*
X40690800Y16304974D01*
X40690800Y16145933D01*
X40623066Y16145933D01*
X40623066Y16603133D01*
X40623066Y16603133D01*
G37*
X40623066Y16603133D02*
X40656933Y16603133D01*
X40680339Y16601097D01*
X40690084Y16594262D01*
X40690800Y16590216D01*
X40692498Y16582305D01*
X40700564Y16582942D01*
X40715779Y16590216D01*
X40740145Y16598303D01*
X40770648Y16602803D01*
X40780126Y16603133D01*
X40808051Y16600932D01*
X40828512Y16591816D01*
X40847463Y16575164D01*
X40865232Y16554033D01*
X40875495Y16530927D01*
X40881524Y16498435D01*
X40881601Y16497824D01*
X40884142Y16461013D01*
X40884134Y16444595D01*
X40810723Y16444595D01*
X40807661Y16478180D01*
X40800342Y16505613D01*
X40792400Y16518466D01*
X40766993Y16533225D01*
X40738326Y16532417D01*
X40719216Y16523013D01*
X40706296Y16505252D01*
X40698161Y16476819D01*
X40694858Y16442851D01*
X40696432Y16408481D01*
X40702930Y16378844D01*
X40714400Y16359075D01*
X40717704Y16356491D01*
X40741118Y16349731D01*
X40769059Y16351733D01*
X40792099Y16361674D01*
X40793850Y16363145D01*
X40803870Y16381457D01*
X40809477Y16410480D01*
X40810723Y16444595D01*
X40884134Y16444595D01*
X40884119Y16418844D01*
X40882566Y16392733D01*
X40878459Y16360277D01*
X40871892Y16338407D01*
X40860329Y16320775D01*
X40848932Y16308581D01*
X40813626Y16283476D01*
X40775103Y16274822D01*
X40734679Y16282828D01*
X40722550Y16288420D01*
X40690800Y16304974D01*
X40690800Y16145933D01*
X40623066Y16145933D01*
X40623066Y16603133D01*
G36*
X40178567Y16278691D02*
X40156461Y16280218D01*
X40146951Y16285903D01*
X40145588Y16294942D01*
X40148429Y16307948D01*
X40155765Y16334080D01*
X40166714Y16370408D01*
X40180396Y16414001D01*
X40193645Y16454967D01*
X40240816Y16598900D01*
X40304820Y16598900D01*
X40335583Y16494021D01*
X40366346Y16389143D01*
X40388192Y16460155D01*
X40399697Y16497777D01*
X40410658Y16533999D01*
X40419084Y16562235D01*
X40420525Y16567150D01*
X40428168Y16589545D01*
X40437174Y16599984D01*
X40452787Y16602995D01*
X40462214Y16603133D01*
X40493415Y16603133D01*
X40528392Y16495183D01*
X40550466Y16426720D01*
X40567520Y16373017D01*
X40579940Y16332787D01*
X40588111Y16304742D01*
X40592420Y16287595D01*
X40593252Y16280059D01*
X40593018Y16279574D01*
X40583782Y16278588D01*
X40563602Y16279188D01*
X40553445Y16279888D01*
X40528076Y16284027D01*
X40516496Y16292029D01*
X40515026Y16296930D01*
X40511479Y16316890D01*
X40504683Y16344674D01*
X40495763Y16376686D01*
X40485842Y16409332D01*
X40476045Y16439019D01*
X40467498Y16462151D01*
X40461324Y16475136D01*
X40458958Y16476133D01*
X40454280Y16463184D01*
X40445657Y16438075D01*
X40434427Y16404735D01*
X40424859Y16375967D01*
X40412882Y16340270D01*
X40402770Y16311078D01*
X40395723Y16291796D01*
X40393078Y16285774D01*
X40383523Y16282876D01*
X40366308Y16280107D01*
X40356533Y16279436D01*
X40348876Y16281847D01*
X40341962Y16289806D01*
X40334411Y16305780D01*
X40324846Y16332238D01*
X40311890Y16371646D01*
X40307350Y16385697D01*
X40272318Y16494228D01*
X40242376Y16386379D01*
X40212433Y16278531D01*
X40178567Y16278691D01*
X40178567Y16278691D01*
G37*
X40178567Y16278691D02*
X40156461Y16280218D01*
X40146951Y16285903D01*
X40145588Y16294942D01*
X40148429Y16307948D01*
X40155765Y16334080D01*
X40166714Y16370408D01*
X40180396Y16414001D01*
X40193645Y16454967D01*
X40240816Y16598900D01*
X40304820Y16598900D01*
X40335583Y16494021D01*
X40366346Y16389143D01*
X40388192Y16460155D01*
X40399697Y16497777D01*
X40410658Y16533999D01*
X40419084Y16562235D01*
X40420525Y16567150D01*
X40428168Y16589545D01*
X40437174Y16599984D01*
X40452787Y16602995D01*
X40462214Y16603133D01*
X40493415Y16603133D01*
X40528392Y16495183D01*
X40550466Y16426720D01*
X40567520Y16373017D01*
X40579940Y16332787D01*
X40588111Y16304742D01*
X40592420Y16287595D01*
X40593252Y16280059D01*
X40593018Y16279574D01*
X40583782Y16278588D01*
X40563602Y16279188D01*
X40553445Y16279888D01*
X40528076Y16284027D01*
X40516496Y16292029D01*
X40515026Y16296930D01*
X40511479Y16316890D01*
X40504683Y16344674D01*
X40495763Y16376686D01*
X40485842Y16409332D01*
X40476045Y16439019D01*
X40467498Y16462151D01*
X40461324Y16475136D01*
X40458958Y16476133D01*
X40454280Y16463184D01*
X40445657Y16438075D01*
X40434427Y16404735D01*
X40424859Y16375967D01*
X40412882Y16340270D01*
X40402770Y16311078D01*
X40395723Y16291796D01*
X40393078Y16285774D01*
X40383523Y16282876D01*
X40366308Y16280107D01*
X40356533Y16279436D01*
X40348876Y16281847D01*
X40341962Y16289806D01*
X40334411Y16305780D01*
X40324846Y16332238D01*
X40311890Y16371646D01*
X40307350Y16385697D01*
X40272318Y16494228D01*
X40242376Y16386379D01*
X40212433Y16278531D01*
X40178567Y16278691D01*
G36*
X39954380Y16281786D02*
X39925864Y16292994D01*
X39923071Y16294916D01*
X39906745Y16308530D01*
X39894905Y16323373D01*
X39886841Y16342338D01*
X39881845Y16368316D01*
X39879207Y16404199D01*
X39878219Y16452878D01*
X39878125Y16478250D01*
X39878000Y16603133D01*
X39911161Y16603133D01*
X39933888Y16600632D01*
X39947157Y16594283D01*
X39948203Y16592550D01*
X39953856Y16586212D01*
X39963301Y16592550D01*
X39979767Y16599322D01*
X40006763Y16602332D01*
X40038337Y16601702D01*
X40068539Y16597556D01*
X40091418Y16590019D01*
X40091677Y16589880D01*
X40119566Y16565893D01*
X40135623Y16533098D01*
X40138300Y16500138D01*
X40072733Y16500138D01*
X40067280Y16519200D01*
X40049766Y16530573D01*
X40018461Y16535191D01*
X40007330Y16535400D01*
X39980529Y16534540D01*
X39965566Y16530585D01*
X39957378Y16521473D01*
X39953990Y16513682D01*
X39946349Y16489407D01*
X39948161Y16475540D01*
X39961823Y16469242D01*
X39989736Y16467673D01*
X39992856Y16467667D01*
X40034918Y16470782D01*
X40061374Y16480167D01*
X40072373Y16495883D01*
X40072733Y16500138D01*
X40138300Y16500138D01*
X40138648Y16495867D01*
X40127623Y16458923D01*
X40108306Y16433885D01*
X40079645Y16417841D01*
X40039248Y16409802D01*
X40005420Y16408400D01*
X39974141Y16407949D01*
X39956176Y16405915D01*
X39947917Y16401272D01*
X39945755Y16392998D01*
X39945733Y16391467D01*
X39953105Y16368184D01*
X39972193Y16351226D01*
X39998458Y16342180D01*
X40027360Y16342630D01*
X40053759Y16353736D01*
X40067397Y16361382D01*
X40079338Y16360074D01*
X40096682Y16348865D01*
X40098116Y16347807D01*
X40115807Y16332233D01*
X40119189Y16319372D01*
X40108007Y16305092D01*
X40094862Y16294615D01*
X40068146Y16282736D01*
X40031705Y16276646D01*
X39991722Y16276332D01*
X39954380Y16281786D01*
X39954380Y16281786D01*
G37*
X39954380Y16281786D02*
X39925864Y16292994D01*
X39923071Y16294916D01*
X39906745Y16308530D01*
X39894905Y16323373D01*
X39886841Y16342338D01*
X39881845Y16368316D01*
X39879207Y16404199D01*
X39878219Y16452878D01*
X39878125Y16478250D01*
X39878000Y16603133D01*
X39911161Y16603133D01*
X39933888Y16600632D01*
X39947157Y16594283D01*
X39948203Y16592550D01*
X39953856Y16586212D01*
X39963301Y16592550D01*
X39979767Y16599322D01*
X40006763Y16602332D01*
X40038337Y16601702D01*
X40068539Y16597556D01*
X40091418Y16590019D01*
X40091677Y16589880D01*
X40119566Y16565893D01*
X40135623Y16533098D01*
X40138300Y16500138D01*
X40072733Y16500138D01*
X40067280Y16519200D01*
X40049766Y16530573D01*
X40018461Y16535191D01*
X40007330Y16535400D01*
X39980529Y16534540D01*
X39965566Y16530585D01*
X39957378Y16521473D01*
X39953990Y16513682D01*
X39946349Y16489407D01*
X39948161Y16475540D01*
X39961823Y16469242D01*
X39989736Y16467673D01*
X39992856Y16467667D01*
X40034918Y16470782D01*
X40061374Y16480167D01*
X40072373Y16495883D01*
X40072733Y16500138D01*
X40138300Y16500138D01*
X40138648Y16495867D01*
X40127623Y16458923D01*
X40108306Y16433885D01*
X40079645Y16417841D01*
X40039248Y16409802D01*
X40005420Y16408400D01*
X39974141Y16407949D01*
X39956176Y16405915D01*
X39947917Y16401272D01*
X39945755Y16392998D01*
X39945733Y16391467D01*
X39953105Y16368184D01*
X39972193Y16351226D01*
X39998458Y16342180D01*
X40027360Y16342630D01*
X40053759Y16353736D01*
X40067397Y16361382D01*
X40079338Y16360074D01*
X40096682Y16348865D01*
X40098116Y16347807D01*
X40115807Y16332233D01*
X40119189Y16319372D01*
X40108007Y16305092D01*
X40094862Y16294615D01*
X40068146Y16282736D01*
X40031705Y16276646D01*
X39991722Y16276332D01*
X39954380Y16281786D01*
G36*
X39628991Y16281150D02*
X39607408Y16290139D01*
X39600116Y16300632D01*
X39606138Y16316679D01*
X39616726Y16332002D01*
X39629427Y16346840D01*
X39642602Y16353096D01*
X39662982Y16353065D01*
X39674787Y16351790D01*
X39699028Y16350391D01*
X39716746Y16354194D01*
X39728939Y16365311D01*
X39736607Y16385853D01*
X39740748Y16417931D01*
X39742361Y16463656D01*
X39742533Y16494950D01*
X39742533Y16603133D01*
X39818733Y16603133D01*
X39818733Y16443678D01*
X39818541Y16393499D01*
X39818007Y16349394D01*
X39817193Y16314057D01*
X39816161Y16290185D01*
X39814976Y16280472D01*
X39814940Y16280429D01*
X39804907Y16278777D01*
X39784486Y16279280D01*
X39776840Y16279907D01*
X39752408Y16284779D01*
X39742825Y16293771D01*
X39742533Y16296301D01*
X39740942Y16304603D01*
X39733465Y16301011D01*
X39727161Y16295513D01*
X39698439Y16279936D01*
X39662274Y16275336D01*
X39628991Y16281150D01*
X39628991Y16281150D01*
G37*
X39628991Y16281150D02*
X39607408Y16290139D01*
X39600116Y16300632D01*
X39606138Y16316679D01*
X39616726Y16332002D01*
X39629427Y16346840D01*
X39642602Y16353096D01*
X39662982Y16353065D01*
X39674787Y16351790D01*
X39699028Y16350391D01*
X39716746Y16354194D01*
X39728939Y16365311D01*
X39736607Y16385853D01*
X39740748Y16417931D01*
X39742361Y16463656D01*
X39742533Y16494950D01*
X39742533Y16603133D01*
X39818733Y16603133D01*
X39818733Y16443678D01*
X39818541Y16393499D01*
X39818007Y16349394D01*
X39817193Y16314057D01*
X39816161Y16290185D01*
X39814976Y16280472D01*
X39814940Y16280429D01*
X39804907Y16278777D01*
X39784486Y16279280D01*
X39776840Y16279907D01*
X39752408Y16284779D01*
X39742825Y16293771D01*
X39742533Y16296301D01*
X39740942Y16304603D01*
X39733465Y16301011D01*
X39727161Y16295513D01*
X39698439Y16279936D01*
X39662274Y16275336D01*
X39628991Y16281150D01*
G36*
X39432921Y16280411D02*
X39406225Y16291037D01*
X39371152Y16314403D01*
X39347742Y16345233D01*
X39334107Y16386644D01*
X39329917Y16416914D01*
X39325315Y16467667D01*
X39428661Y16467667D01*
X39471868Y16467755D01*
X39500790Y16468365D01*
X39518074Y16470011D01*
X39526369Y16473210D01*
X39528322Y16478477D01*
X39526581Y16486329D01*
X39526468Y16486717D01*
X39511052Y16512398D01*
X39485279Y16529263D01*
X39454034Y16535880D01*
X39422198Y16530816D01*
X39405643Y16522145D01*
X39391911Y16514352D01*
X39380266Y16515674D01*
X39363617Y16527139D01*
X39361894Y16528495D01*
X39345643Y16542317D01*
X39337001Y16551584D01*
X39336602Y16552558D01*
X39342792Y16559301D01*
X39359122Y16571611D01*
X39371695Y16580075D01*
X39399717Y16595113D01*
X39427950Y16601683D01*
X39454245Y16602596D01*
X39483808Y16601049D01*
X39508498Y16597667D01*
X39518166Y16595010D01*
X39551603Y16572298D01*
X39577168Y16536806D01*
X39593323Y16491457D01*
X39598553Y16442322D01*
X39594840Y16408400D01*
X39529986Y16408400D01*
X39466926Y16408400D01*
X39433757Y16407764D01*
X39414326Y16405420D01*
X39405470Y16400711D01*
X39403866Y16395315D01*
X39409490Y16380764D01*
X39423174Y16362955D01*
X39424648Y16361448D01*
X39451607Y16343965D01*
X39479034Y16341920D01*
X39503194Y16354486D01*
X39520348Y16380833D01*
X39521069Y16382821D01*
X39529986Y16408400D01*
X39594840Y16408400D01*
X39592505Y16387074D01*
X39575618Y16341388D01*
X39549554Y16306571D01*
X39515975Y16283931D01*
X39476543Y16274775D01*
X39432921Y16280411D01*
X39432921Y16280411D01*
G37*
X39432921Y16280411D02*
X39406225Y16291037D01*
X39371152Y16314403D01*
X39347742Y16345233D01*
X39334107Y16386644D01*
X39329917Y16416914D01*
X39325315Y16467667D01*
X39428661Y16467667D01*
X39471868Y16467755D01*
X39500790Y16468365D01*
X39518074Y16470011D01*
X39526369Y16473210D01*
X39528322Y16478477D01*
X39526581Y16486329D01*
X39526468Y16486717D01*
X39511052Y16512398D01*
X39485279Y16529263D01*
X39454034Y16535880D01*
X39422198Y16530816D01*
X39405643Y16522145D01*
X39391911Y16514352D01*
X39380266Y16515674D01*
X39363617Y16527139D01*
X39361894Y16528495D01*
X39345643Y16542317D01*
X39337001Y16551584D01*
X39336602Y16552558D01*
X39342792Y16559301D01*
X39359122Y16571611D01*
X39371695Y16580075D01*
X39399717Y16595113D01*
X39427950Y16601683D01*
X39454245Y16602596D01*
X39483808Y16601049D01*
X39508498Y16597667D01*
X39518166Y16595010D01*
X39551603Y16572298D01*
X39577168Y16536806D01*
X39593323Y16491457D01*
X39598553Y16442322D01*
X39594840Y16408400D01*
X39529986Y16408400D01*
X39466926Y16408400D01*
X39433757Y16407764D01*
X39414326Y16405420D01*
X39405470Y16400711D01*
X39403866Y16395315D01*
X39409490Y16380764D01*
X39423174Y16362955D01*
X39424648Y16361448D01*
X39451607Y16343965D01*
X39479034Y16341920D01*
X39503194Y16354486D01*
X39520348Y16380833D01*
X39521069Y16382821D01*
X39529986Y16408400D01*
X39594840Y16408400D01*
X39592505Y16387074D01*
X39575618Y16341388D01*
X39549554Y16306571D01*
X39515975Y16283931D01*
X39476543Y16274775D01*
X39432921Y16280411D01*
G36*
X41402000Y16590433D02*
X41406233Y16594666D01*
X41410466Y16590433D01*
X41406233Y16586200D01*
X41402000Y16590433D01*
X41402000Y16590433D01*
G37*
X41402000Y16590433D02*
X41406233Y16594666D01*
X41410466Y16590433D01*
X41406233Y16586200D01*
X41402000Y16590433D01*
G36*
X41884028Y15776113D02*
X41844385Y15788733D01*
X41809940Y15813625D01*
X41795183Y15831609D01*
X41785099Y15848456D01*
X41778923Y15865864D01*
X41775732Y15888624D01*
X41774610Y15921529D01*
X41774533Y15939213D01*
X41775131Y15978199D01*
X41777492Y16004990D01*
X41782474Y16024300D01*
X41790929Y16040843D01*
X41793752Y16045198D01*
X41823644Y16075916D01*
X41862417Y16095784D01*
X41905445Y16103746D01*
X41948104Y16098747D01*
X41975694Y16086712D01*
X42004001Y16064780D01*
X42022641Y16037688D01*
X42033105Y16001962D01*
X42036883Y15954131D01*
X42036968Y15944013D01*
X42036477Y15933159D01*
X41969267Y15933159D01*
X41965495Y15978653D01*
X41954016Y16009586D01*
X41934587Y16026595D01*
X41933406Y16027090D01*
X41913976Y16033908D01*
X41900121Y16033774D01*
X41881920Y16026567D01*
X41881699Y16026466D01*
X41858323Y16006773D01*
X41845291Y15973850D01*
X41842382Y15940218D01*
X41844677Y15901981D01*
X41852269Y15876416D01*
X41866667Y15859690D01*
X41876449Y15853670D01*
X41899719Y15845999D01*
X41924046Y15849882D01*
X41926352Y15850666D01*
X41949169Y15862607D01*
X41962566Y15881280D01*
X41968489Y15910425D01*
X41969267Y15933159D01*
X42036477Y15933159D01*
X42034605Y15891842D01*
X42027354Y15854783D01*
X42023256Y15844363D01*
X41998484Y15809890D01*
X41964644Y15786891D01*
X41925304Y15775565D01*
X41884028Y15776113D01*
X41884028Y15776113D01*
G37*
X41884028Y15776113D02*
X41844385Y15788733D01*
X41809940Y15813625D01*
X41795183Y15831609D01*
X41785099Y15848456D01*
X41778923Y15865864D01*
X41775732Y15888624D01*
X41774610Y15921529D01*
X41774533Y15939213D01*
X41775131Y15978199D01*
X41777492Y16004990D01*
X41782474Y16024300D01*
X41790929Y16040843D01*
X41793752Y16045198D01*
X41823644Y16075916D01*
X41862417Y16095784D01*
X41905445Y16103746D01*
X41948104Y16098747D01*
X41975694Y16086712D01*
X42004001Y16064780D01*
X42022641Y16037688D01*
X42033105Y16001962D01*
X42036883Y15954131D01*
X42036968Y15944013D01*
X42036477Y15933159D01*
X41969267Y15933159D01*
X41965495Y15978653D01*
X41954016Y16009586D01*
X41934587Y16026595D01*
X41933406Y16027090D01*
X41913976Y16033908D01*
X41900121Y16033774D01*
X41881920Y16026567D01*
X41881699Y16026466D01*
X41858323Y16006773D01*
X41845291Y15973850D01*
X41842382Y15940218D01*
X41844677Y15901981D01*
X41852269Y15876416D01*
X41866667Y15859690D01*
X41876449Y15853670D01*
X41899719Y15845999D01*
X41924046Y15849882D01*
X41926352Y15850666D01*
X41949169Y15862607D01*
X41962566Y15881280D01*
X41968489Y15910425D01*
X41969267Y15933159D01*
X42036477Y15933159D01*
X42034605Y15891842D01*
X42027354Y15854783D01*
X42023256Y15844363D01*
X41998484Y15809890D01*
X41964644Y15786891D01*
X41925304Y15775565D01*
X41884028Y15776113D01*
G36*
X41243406Y15784027D02*
X41205813Y15803279D01*
X41179048Y15835497D01*
X41163003Y15880789D01*
X41158647Y15912082D01*
X41154148Y15968133D01*
X41359247Y15968133D01*
X41350657Y15990727D01*
X41339110Y16011661D01*
X41327584Y16024324D01*
X41304289Y16033434D01*
X41274212Y16034764D01*
X41245535Y16028461D01*
X41234482Y16022639D01*
X41220563Y16014780D01*
X41208480Y16015979D01*
X41190840Y16027039D01*
X41190265Y16027448D01*
X41173689Y16040681D01*
X41165261Y16050207D01*
X41164991Y16051260D01*
X41171393Y16059112D01*
X41187437Y16072073D01*
X41195628Y16077863D01*
X41232760Y16095226D01*
X41275415Y16103000D01*
X41317678Y16100916D01*
X41353637Y16088709D01*
X41359209Y16085263D01*
X41389635Y16059406D01*
X41409365Y16028712D01*
X41420006Y15989491D01*
X41423166Y15938500D01*
X41419238Y15891933D01*
X41351200Y15891933D01*
X41349601Y15900832D01*
X41342390Y15905930D01*
X41325947Y15908262D01*
X41296651Y15908862D01*
X41291933Y15908867D01*
X41260787Y15908410D01*
X41242943Y15906349D01*
X41234782Y15901651D01*
X41232683Y15893281D01*
X41232667Y15891933D01*
X41240237Y15869545D01*
X41259380Y15851252D01*
X41284740Y15841643D01*
X41291933Y15841133D01*
X41318052Y15847622D01*
X41339394Y15864030D01*
X41350605Y15885768D01*
X41351200Y15891933D01*
X41419238Y15891933D01*
X41418243Y15880139D01*
X41403267Y15835250D01*
X41377933Y15803457D01*
X41341932Y15784383D01*
X41294959Y15777653D01*
X41291933Y15777633D01*
X41243406Y15784027D01*
X41243406Y15784027D01*
G37*
X41243406Y15784027D02*
X41205813Y15803279D01*
X41179048Y15835497D01*
X41163003Y15880789D01*
X41158647Y15912082D01*
X41154148Y15968133D01*
X41359247Y15968133D01*
X41350657Y15990727D01*
X41339110Y16011661D01*
X41327584Y16024324D01*
X41304289Y16033434D01*
X41274212Y16034764D01*
X41245535Y16028461D01*
X41234482Y16022639D01*
X41220563Y16014780D01*
X41208480Y16015979D01*
X41190840Y16027039D01*
X41190265Y16027448D01*
X41173689Y16040681D01*
X41165261Y16050207D01*
X41164991Y16051260D01*
X41171393Y16059112D01*
X41187437Y16072073D01*
X41195628Y16077863D01*
X41232760Y16095226D01*
X41275415Y16103000D01*
X41317678Y16100916D01*
X41353637Y16088709D01*
X41359209Y16085263D01*
X41389635Y16059406D01*
X41409365Y16028712D01*
X41420006Y15989491D01*
X41423166Y15938500D01*
X41419238Y15891933D01*
X41351200Y15891933D01*
X41349601Y15900832D01*
X41342390Y15905930D01*
X41325947Y15908262D01*
X41296651Y15908862D01*
X41291933Y15908867D01*
X41260787Y15908410D01*
X41242943Y15906349D01*
X41234782Y15901651D01*
X41232683Y15893281D01*
X41232667Y15891933D01*
X41240237Y15869545D01*
X41259380Y15851252D01*
X41284740Y15841643D01*
X41291933Y15841133D01*
X41318052Y15847622D01*
X41339394Y15864030D01*
X41350605Y15885768D01*
X41351200Y15891933D01*
X41419238Y15891933D01*
X41418243Y15880139D01*
X41403267Y15835250D01*
X41377933Y15803457D01*
X41341932Y15784383D01*
X41294959Y15777653D01*
X41291933Y15777633D01*
X41243406Y15784027D01*
G36*
X40931660Y15778343D02*
X40904994Y15789990D01*
X40886127Y15803364D01*
X40872296Y15818930D01*
X40862706Y15839466D01*
X40856558Y15867746D01*
X40853056Y15906546D01*
X40851402Y15958643D01*
X40851145Y15977502D01*
X40849802Y16099367D01*
X40919400Y16104573D01*
X40919400Y15994958D01*
X40920248Y15940858D01*
X40923376Y15901441D01*
X40929662Y15874518D01*
X40939980Y15857896D01*
X40955207Y15849386D01*
X40976221Y15846795D01*
X40978666Y15846778D01*
X41000339Y15848911D01*
X41016121Y15856775D01*
X41026890Y15872560D01*
X41033528Y15898459D01*
X41036914Y15936665D01*
X41037928Y15989370D01*
X41037933Y15994471D01*
X41037933Y16103600D01*
X41072066Y16103600D01*
X41095950Y16101040D01*
X41109416Y16094368D01*
X41110368Y16092732D01*
X41111588Y16081086D01*
X41112406Y16055445D01*
X41112791Y16018742D01*
X41112709Y15973912D01*
X41112219Y15929749D01*
X41109900Y15777633D01*
X41078082Y15775001D01*
X41053684Y15775729D01*
X41042024Y15783713D01*
X41041273Y15785375D01*
X41035977Y15793436D01*
X41026032Y15792481D01*
X41012128Y15785890D01*
X40972646Y15774489D01*
X40931660Y15778343D01*
X40931660Y15778343D01*
G37*
X40931660Y15778343D02*
X40904994Y15789990D01*
X40886127Y15803364D01*
X40872296Y15818930D01*
X40862706Y15839466D01*
X40856558Y15867746D01*
X40853056Y15906546D01*
X40851402Y15958643D01*
X40851145Y15977502D01*
X40849802Y16099367D01*
X40919400Y16104573D01*
X40919400Y15994958D01*
X40920248Y15940858D01*
X40923376Y15901441D01*
X40929662Y15874518D01*
X40939980Y15857896D01*
X40955207Y15849386D01*
X40976221Y15846795D01*
X40978666Y15846778D01*
X41000339Y15848911D01*
X41016121Y15856775D01*
X41026890Y15872560D01*
X41033528Y15898459D01*
X41036914Y15936665D01*
X41037928Y15989370D01*
X41037933Y15994471D01*
X41037933Y16103600D01*
X41072066Y16103600D01*
X41095950Y16101040D01*
X41109416Y16094368D01*
X41110368Y16092732D01*
X41111588Y16081086D01*
X41112406Y16055445D01*
X41112791Y16018742D01*
X41112709Y15973912D01*
X41112219Y15929749D01*
X41109900Y15777633D01*
X41078082Y15775001D01*
X41053684Y15775729D01*
X41042024Y15783713D01*
X41041273Y15785375D01*
X41035977Y15793436D01*
X41026032Y15792481D01*
X41012128Y15785890D01*
X40972646Y15774489D01*
X40931660Y15778343D01*
G36*
X40481603Y15780830D02*
X40441372Y15797789D01*
X40430052Y15805573D01*
X40410604Y15820640D01*
X40431814Y15845324D01*
X40453024Y15870007D01*
X40483299Y15855570D01*
X40518244Y15843616D01*
X40549311Y15841510D01*
X40573328Y15848635D01*
X40587120Y15864377D01*
X40589200Y15876123D01*
X40587085Y15885629D01*
X40578709Y15892399D01*
X40561026Y15897538D01*
X40530989Y15902152D01*
X40510796Y15904560D01*
X40465446Y15915728D01*
X40431996Y15936534D01*
X40411645Y15965297D01*
X40405593Y16000338D01*
X40414693Y16039155D01*
X40435190Y16067621D01*
X40467407Y16088436D01*
X40507534Y16100700D01*
X40551763Y16103511D01*
X40596284Y16095970D01*
X40618833Y16087405D01*
X40644228Y16074338D01*
X40665548Y16061387D01*
X40669633Y16058427D01*
X40679941Y16049260D01*
X40680454Y16041226D01*
X40670246Y16028808D01*
X40663517Y16021946D01*
X40640467Y15998619D01*
X40607331Y16017243D01*
X40575711Y16030152D01*
X40543695Y16035269D01*
X40514850Y16033158D01*
X40492740Y16024381D01*
X40480932Y16009501D01*
X40480395Y15997207D01*
X40487149Y15985948D01*
X40504639Y15978251D01*
X40525766Y15973896D01*
X40571389Y15965576D01*
X40603484Y15957259D01*
X40625400Y15947573D01*
X40640486Y15935144D01*
X40649316Y15923222D01*
X40661325Y15890489D01*
X40661237Y15854762D01*
X40649449Y15822760D01*
X40642834Y15813907D01*
X40611826Y15790868D01*
X40571503Y15777553D01*
X40526537Y15774146D01*
X40481603Y15780830D01*
X40481603Y15780830D01*
G37*
X40481603Y15780830D02*
X40441372Y15797789D01*
X40430052Y15805573D01*
X40410604Y15820640D01*
X40431814Y15845324D01*
X40453024Y15870007D01*
X40483299Y15855570D01*
X40518244Y15843616D01*
X40549311Y15841510D01*
X40573328Y15848635D01*
X40587120Y15864377D01*
X40589200Y15876123D01*
X40587085Y15885629D01*
X40578709Y15892399D01*
X40561026Y15897538D01*
X40530989Y15902152D01*
X40510796Y15904560D01*
X40465446Y15915728D01*
X40431996Y15936534D01*
X40411645Y15965297D01*
X40405593Y16000338D01*
X40414693Y16039155D01*
X40435190Y16067621D01*
X40467407Y16088436D01*
X40507534Y16100700D01*
X40551763Y16103511D01*
X40596284Y16095970D01*
X40618833Y16087405D01*
X40644228Y16074338D01*
X40665548Y16061387D01*
X40669633Y16058427D01*
X40679941Y16049260D01*
X40680454Y16041226D01*
X40670246Y16028808D01*
X40663517Y16021946D01*
X40640467Y15998619D01*
X40607331Y16017243D01*
X40575711Y16030152D01*
X40543695Y16035269D01*
X40514850Y16033158D01*
X40492740Y16024381D01*
X40480932Y16009501D01*
X40480395Y15997207D01*
X40487149Y15985948D01*
X40504639Y15978251D01*
X40525766Y15973896D01*
X40571389Y15965576D01*
X40603484Y15957259D01*
X40625400Y15947573D01*
X40640486Y15935144D01*
X40649316Y15923222D01*
X40661325Y15890489D01*
X40661237Y15854762D01*
X40649449Y15822760D01*
X40642834Y15813907D01*
X40611826Y15790868D01*
X40571503Y15777553D01*
X40526537Y15774146D01*
X40481603Y15780830D01*
G36*
X40237834Y15774898D02*
X40231389Y15775314D01*
X40200407Y15779003D01*
X40178787Y15786792D01*
X40158986Y15801774D01*
X40152909Y15807516D01*
X40127181Y15840603D01*
X40112354Y15880835D01*
X40107582Y15931144D01*
X40108702Y15960978D01*
X40118000Y16015223D01*
X40137405Y16056142D01*
X40167145Y16084163D01*
X40177863Y16089998D01*
X40218891Y16101973D01*
X40261753Y16101979D01*
X40300194Y16090276D01*
X40309886Y16084550D01*
X40337818Y16063164D01*
X40356284Y16041479D01*
X40367124Y16015256D01*
X40372177Y15980256D01*
X40373280Y15939198D01*
X40301333Y15939198D01*
X40300792Y15971813D01*
X40298267Y15992298D01*
X40292409Y16005444D01*
X40281865Y16016043D01*
X40279025Y16018319D01*
X40256712Y16032487D01*
X40236714Y16034445D01*
X40212994Y16026115D01*
X40195141Y16013268D01*
X40186497Y16000311D01*
X40182250Y15975742D01*
X40181138Y15943740D01*
X40182927Y15911183D01*
X40187386Y15884949D01*
X40190681Y15876094D01*
X40208481Y15856959D01*
X40233125Y15846158D01*
X40256810Y15846891D01*
X40278731Y15857441D01*
X40292223Y15872661D01*
X40299131Y15896378D01*
X40301302Y15932419D01*
X40301333Y15939198D01*
X40373280Y15939198D01*
X40373300Y15938483D01*
X40371862Y15892302D01*
X40366296Y15858618D01*
X40354727Y15833145D01*
X40335275Y15811596D01*
X40309021Y15791701D01*
X40288382Y15779936D01*
X40267101Y15774852D01*
X40237834Y15774898D01*
X40237834Y15774898D01*
G37*
X40237834Y15774898D02*
X40231389Y15775314D01*
X40200407Y15779003D01*
X40178787Y15786792D01*
X40158986Y15801774D01*
X40152909Y15807516D01*
X40127181Y15840603D01*
X40112354Y15880835D01*
X40107582Y15931144D01*
X40108702Y15960978D01*
X40118000Y16015223D01*
X40137405Y16056142D01*
X40167145Y16084163D01*
X40177863Y16089998D01*
X40218891Y16101973D01*
X40261753Y16101979D01*
X40300194Y16090276D01*
X40309886Y16084550D01*
X40337818Y16063164D01*
X40356284Y16041479D01*
X40367124Y16015256D01*
X40372177Y15980256D01*
X40373280Y15939198D01*
X40301333Y15939198D01*
X40300792Y15971813D01*
X40298267Y15992298D01*
X40292409Y16005444D01*
X40281865Y16016043D01*
X40279025Y16018319D01*
X40256712Y16032487D01*
X40236714Y16034445D01*
X40212994Y16026115D01*
X40195141Y16013268D01*
X40186497Y16000311D01*
X40182250Y15975742D01*
X40181138Y15943740D01*
X40182927Y15911183D01*
X40187386Y15884949D01*
X40190681Y15876094D01*
X40208481Y15856959D01*
X40233125Y15846158D01*
X40256810Y15846891D01*
X40278731Y15857441D01*
X40292223Y15872661D01*
X40299131Y15896378D01*
X40301302Y15932419D01*
X40301333Y15939198D01*
X40373280Y15939198D01*
X40373300Y15938483D01*
X40371862Y15892302D01*
X40366296Y15858618D01*
X40354727Y15833145D01*
X40335275Y15811596D01*
X40309021Y15791701D01*
X40288382Y15779936D01*
X40267101Y15774852D01*
X40237834Y15774898D01*
G36*
X39835218Y15775030D02*
X39800903Y15777633D01*
X39800903Y16099367D01*
X39835218Y16101970D01*
X39857981Y16102181D01*
X39868028Y16097409D01*
X39869533Y16091169D01*
X39871150Y16082892D01*
X39878993Y16083285D01*
X39894513Y16090682D01*
X39929368Y16101353D01*
X39967543Y16101784D01*
X40001239Y16092070D01*
X40006077Y16089344D01*
X40025550Y16075212D01*
X40039758Y16058722D01*
X40049495Y16037080D01*
X40055559Y16007492D01*
X40058743Y15967166D01*
X40059844Y15913307D01*
X40059885Y15900400D01*
X40060033Y15777633D01*
X40024050Y15775030D01*
X39988066Y15772426D01*
X39988066Y15883365D01*
X39987912Y15928784D01*
X39987107Y15960508D01*
X39985142Y15981774D01*
X39981505Y15995819D01*
X39975686Y16005880D01*
X39967285Y16015085D01*
X39948070Y16029400D01*
X39929747Y16035839D01*
X39928800Y16035867D01*
X39910854Y16030115D01*
X39891418Y16016164D01*
X39890315Y16015085D01*
X39881836Y16005779D01*
X39876044Y15995692D01*
X39872428Y15981586D01*
X39870478Y15960222D01*
X39869684Y15928365D01*
X39869533Y15883365D01*
X39869533Y15772426D01*
X39835218Y15775030D01*
X39835218Y15775030D01*
G37*
X39835218Y15775030D02*
X39800903Y15777633D01*
X39800903Y16099367D01*
X39835218Y16101970D01*
X39857981Y16102181D01*
X39868028Y16097409D01*
X39869533Y16091169D01*
X39871150Y16082892D01*
X39878993Y16083285D01*
X39894513Y16090682D01*
X39929368Y16101353D01*
X39967543Y16101784D01*
X40001239Y16092070D01*
X40006077Y16089344D01*
X40025550Y16075212D01*
X40039758Y16058722D01*
X40049495Y16037080D01*
X40055559Y16007492D01*
X40058743Y15967166D01*
X40059844Y15913307D01*
X40059885Y15900400D01*
X40060033Y15777633D01*
X40024050Y15775030D01*
X39988066Y15772426D01*
X39988066Y15883365D01*
X39987912Y15928784D01*
X39987107Y15960508D01*
X39985142Y15981774D01*
X39981505Y15995819D01*
X39975686Y16005880D01*
X39967285Y16015085D01*
X39948070Y16029400D01*
X39929747Y16035839D01*
X39928800Y16035867D01*
X39910854Y16030115D01*
X39891418Y16016164D01*
X39890315Y16015085D01*
X39881836Y16005779D01*
X39876044Y15995692D01*
X39872428Y15981586D01*
X39870478Y15960222D01*
X39869684Y15928365D01*
X39869533Y15883365D01*
X39869533Y15772426D01*
X39835218Y15775030D01*
G36*
X39678194Y15774717D02*
X39668437Y15780318D01*
X39666333Y15791645D01*
X39665542Y15803967D01*
X39660329Y15803878D01*
X39648511Y15793762D01*
X39627896Y15783346D01*
X39598756Y15777903D01*
X39567584Y15777616D01*
X39540869Y15782670D01*
X39527404Y15790333D01*
X39520883Y15799819D01*
X39522987Y15810581D01*
X39535087Y15827616D01*
X39538908Y15832316D01*
X39554803Y15850095D01*
X39566448Y15856511D01*
X39579509Y15853930D01*
X39584973Y15851563D01*
X39613609Y15846603D01*
X39640203Y15855711D01*
X39657785Y15874848D01*
X39661878Y15891621D01*
X39664623Y15922493D01*
X39665836Y15964667D01*
X39665729Y15995903D01*
X39664258Y16099367D01*
X39734066Y16104573D01*
X39734066Y15773400D01*
X39700200Y15773400D01*
X39678194Y15774717D01*
X39678194Y15774717D01*
G37*
X39678194Y15774717D02*
X39668437Y15780318D01*
X39666333Y15791645D01*
X39665542Y15803967D01*
X39660329Y15803878D01*
X39648511Y15793762D01*
X39627896Y15783346D01*
X39598756Y15777903D01*
X39567584Y15777616D01*
X39540869Y15782670D01*
X39527404Y15790333D01*
X39520883Y15799819D01*
X39522987Y15810581D01*
X39535087Y15827616D01*
X39538908Y15832316D01*
X39554803Y15850095D01*
X39566448Y15856511D01*
X39579509Y15853930D01*
X39584973Y15851563D01*
X39613609Y15846603D01*
X39640203Y15855711D01*
X39657785Y15874848D01*
X39661878Y15891621D01*
X39664623Y15922493D01*
X39665836Y15964667D01*
X39665729Y15995903D01*
X39664258Y16099367D01*
X39734066Y16104573D01*
X39734066Y15773400D01*
X39700200Y15773400D01*
X39678194Y15774717D01*
G36*
X39355757Y15775996D02*
X39314943Y15789369D01*
X39281614Y15814886D01*
X39271244Y15827914D01*
X39271197Y15837401D01*
X39282250Y15850353D01*
X39285966Y15854081D01*
X39306737Y15874852D01*
X39341632Y15857588D01*
X39378859Y15846141D01*
X39410538Y15849987D01*
X39434898Y15867911D01*
X39450163Y15898699D01*
X39454666Y15935010D01*
X39451226Y15976197D01*
X39439927Y16004365D01*
X39419300Y16022177D01*
X39403038Y16028648D01*
X39380151Y16033659D01*
X39361798Y16030937D01*
X39339543Y16019569D01*
X39307954Y16000931D01*
X39286574Y16022311D01*
X39272853Y16037083D01*
X39270321Y16046710D01*
X39278124Y16057953D01*
X39281594Y16061812D01*
X39315392Y16087342D01*
X39357391Y16101374D01*
X39402456Y16102848D01*
X39437729Y16094088D01*
X39477710Y16069761D01*
X39505727Y16033536D01*
X39521671Y15985605D01*
X39525660Y15938500D01*
X39522280Y15889880D01*
X39511022Y15852430D01*
X39490214Y15821561D01*
X39478754Y15809947D01*
X39442091Y15786174D01*
X39399616Y15774894D01*
X39355757Y15775996D01*
X39355757Y15775996D01*
G37*
X39355757Y15775996D02*
X39314943Y15789369D01*
X39281614Y15814886D01*
X39271244Y15827914D01*
X39271197Y15837401D01*
X39282250Y15850353D01*
X39285966Y15854081D01*
X39306737Y15874852D01*
X39341632Y15857588D01*
X39378859Y15846141D01*
X39410538Y15849987D01*
X39434898Y15867911D01*
X39450163Y15898699D01*
X39454666Y15935010D01*
X39451226Y15976197D01*
X39439927Y16004365D01*
X39419300Y16022177D01*
X39403038Y16028648D01*
X39380151Y16033659D01*
X39361798Y16030937D01*
X39339543Y16019569D01*
X39307954Y16000931D01*
X39286574Y16022311D01*
X39272853Y16037083D01*
X39270321Y16046710D01*
X39278124Y16057953D01*
X39281594Y16061812D01*
X39315392Y16087342D01*
X39357391Y16101374D01*
X39402456Y16102848D01*
X39437729Y16094088D01*
X39477710Y16069761D01*
X39505727Y16033536D01*
X39521671Y15985605D01*
X39525660Y15938500D01*
X39522280Y15889880D01*
X39511022Y15852430D01*
X39490214Y15821561D01*
X39478754Y15809947D01*
X39442091Y15786174D01*
X39399616Y15774894D01*
X39355757Y15775996D01*
G36*
X39110991Y15775348D02*
X39063458Y15785832D01*
X39027497Y15808646D01*
X39003229Y15843647D01*
X38990773Y15890690D01*
X38989000Y15921295D01*
X38989000Y15968133D01*
X39086937Y15968133D01*
X39128793Y15968233D01*
X39156427Y15968904D01*
X39172549Y15970706D01*
X39179871Y15974197D01*
X39181103Y15979937D01*
X39179335Y15987183D01*
X39163608Y16014718D01*
X39137808Y16030980D01*
X39105381Y16034894D01*
X39069769Y16025385D01*
X39064751Y16022934D01*
X39046909Y16015247D01*
X39033476Y16016453D01*
X39016061Y16027514D01*
X39014448Y16028703D01*
X38998494Y16041746D01*
X38994830Y16050795D01*
X39001582Y16061128D01*
X39002547Y16062202D01*
X39034292Y16085650D01*
X39075381Y16099316D01*
X39120791Y16102380D01*
X39165499Y16094024D01*
X39175266Y16090354D01*
X39199302Y16075094D01*
X39221760Y16052762D01*
X39226066Y16046961D01*
X39236299Y16030117D01*
X39242606Y16013063D01*
X39245906Y15991045D01*
X39247121Y15959309D01*
X39247233Y15937624D01*
X39245891Y15895782D01*
X39183733Y15895782D01*
X39180684Y15902644D01*
X39169434Y15906674D01*
X39146827Y15908522D01*
X39120233Y15908867D01*
X39086931Y15908238D01*
X39067374Y15905920D01*
X39058407Y15901262D01*
X39056733Y15895782D01*
X39063793Y15877732D01*
X39081096Y15859303D01*
X39102832Y15845498D01*
X39120233Y15841133D01*
X39141207Y15847208D01*
X39162620Y15862100D01*
X39178662Y15880806D01*
X39183733Y15895782D01*
X39245891Y15895782D01*
X39245756Y15891578D01*
X39240055Y15857985D01*
X39228227Y15832525D01*
X39208369Y15810877D01*
X39182955Y15791696D01*
X39160205Y15779130D01*
X39136425Y15774555D01*
X39110991Y15775348D01*
X39110991Y15775348D01*
G37*
X39110991Y15775348D02*
X39063458Y15785832D01*
X39027497Y15808646D01*
X39003229Y15843647D01*
X38990773Y15890690D01*
X38989000Y15921295D01*
X38989000Y15968133D01*
X39086937Y15968133D01*
X39128793Y15968233D01*
X39156427Y15968904D01*
X39172549Y15970706D01*
X39179871Y15974197D01*
X39181103Y15979937D01*
X39179335Y15987183D01*
X39163608Y16014718D01*
X39137808Y16030980D01*
X39105381Y16034894D01*
X39069769Y16025385D01*
X39064751Y16022934D01*
X39046909Y16015247D01*
X39033476Y16016453D01*
X39016061Y16027514D01*
X39014448Y16028703D01*
X38998494Y16041746D01*
X38994830Y16050795D01*
X39001582Y16061128D01*
X39002547Y16062202D01*
X39034292Y16085650D01*
X39075381Y16099316D01*
X39120791Y16102380D01*
X39165499Y16094024D01*
X39175266Y16090354D01*
X39199302Y16075094D01*
X39221760Y16052762D01*
X39226066Y16046961D01*
X39236299Y16030117D01*
X39242606Y16013063D01*
X39245906Y15991045D01*
X39247121Y15959309D01*
X39247233Y15937624D01*
X39245891Y15895782D01*
X39183733Y15895782D01*
X39180684Y15902644D01*
X39169434Y15906674D01*
X39146827Y15908522D01*
X39120233Y15908867D01*
X39086931Y15908238D01*
X39067374Y15905920D01*
X39058407Y15901262D01*
X39056733Y15895782D01*
X39063793Y15877732D01*
X39081096Y15859303D01*
X39102832Y15845498D01*
X39120233Y15841133D01*
X39141207Y15847208D01*
X39162620Y15862100D01*
X39178662Y15880806D01*
X39183733Y15895782D01*
X39245891Y15895782D01*
X39245756Y15891578D01*
X39240055Y15857985D01*
X39228227Y15832525D01*
X39208369Y15810877D01*
X39182955Y15791696D01*
X39160205Y15779130D01*
X39136425Y15774555D01*
X39110991Y15775348D01*
G36*
X39522400Y15845367D02*
X39526633Y15849600D01*
X39530866Y15845367D01*
X39526633Y15841133D01*
X39522400Y15845367D01*
X39522400Y15845367D01*
G37*
X39522400Y15845367D02*
X39526633Y15849600D01*
X39530866Y15845367D01*
X39526633Y15841133D01*
X39522400Y15845367D01*
G36*
X40318418Y13557250D02*
X40308969Y13606789D01*
X40299841Y13650818D01*
X40291678Y13686519D01*
X40285122Y13711071D01*
X40280925Y13721551D01*
X40269942Y13728254D01*
X40246452Y13739639D01*
X40213712Y13754213D01*
X40174983Y13770482D01*
X40167674Y13773457D01*
X40063649Y13815577D01*
X40032208Y13794099D01*
X39965430Y13748632D01*
X39911372Y13712184D01*
X39868905Y13684029D01*
X39836902Y13663440D01*
X39814235Y13649690D01*
X39799775Y13642054D01*
X39792582Y13639800D01*
X39782737Y13645598D01*
X39763712Y13661421D01*
X39737873Y13684912D01*
X39707583Y13713715D01*
X39675209Y13745473D01*
X39643115Y13777830D01*
X39613667Y13808430D01*
X39589230Y13834915D01*
X39572168Y13854929D01*
X39564846Y13866116D01*
X39564733Y13866824D01*
X39569324Y13877138D01*
X39582030Y13898771D01*
X39601252Y13929177D01*
X39625391Y13965806D01*
X39645023Y13994758D01*
X39672153Y14034667D01*
X39696037Y14070482D01*
X39714943Y14099552D01*
X39727138Y14119224D01*
X39730759Y14125993D01*
X39729934Y14140394D01*
X39722729Y14166130D01*
X39710718Y14199588D01*
X39695475Y14237152D01*
X39678575Y14275210D01*
X39661591Y14310148D01*
X39646098Y14338351D01*
X39633669Y14356205D01*
X39628706Y14360306D01*
X39616716Y14363538D01*
X39591532Y14369154D01*
X39556615Y14376474D01*
X39515424Y14384821D01*
X39471421Y14393514D01*
X39428066Y14401875D01*
X39388819Y14409226D01*
X39357140Y14414886D01*
X39336490Y14418177D01*
X39330932Y14418733D01*
X39329935Y14426773D01*
X39329271Y14449194D01*
X39328963Y14483444D01*
X39329029Y14526974D01*
X39329490Y14577234D01*
X39329604Y14585918D01*
X39331900Y14753103D01*
X39365766Y14759874D01*
X39386589Y14763993D01*
X39419829Y14770517D01*
X39461279Y14778622D01*
X39506735Y14787486D01*
X39517286Y14789540D01*
X39634939Y14812433D01*
X39679967Y14922500D01*
X39696324Y14963343D01*
X39710073Y14999309D01*
X39720018Y15027150D01*
X39724966Y15043613D01*
X39725298Y15045868D01*
X39720818Y15057014D01*
X39708225Y15079434D01*
X39689108Y15110523D01*
X39665054Y15147675D01*
X39645308Y15177101D01*
X39618633Y15217001D01*
X39595690Y15252691D01*
X39578076Y15281575D01*
X39567387Y15301059D01*
X39564875Y15307855D01*
X39570601Y15317641D01*
X39586314Y15336655D01*
X39609668Y15362526D01*
X39638315Y15392879D01*
X39669910Y15425341D01*
X39702106Y15457538D01*
X39732558Y15487097D01*
X39758920Y15511645D01*
X39778845Y15528807D01*
X39789987Y15536211D01*
X39790717Y15536333D01*
X39800664Y15531732D01*
X39821944Y15518998D01*
X39852035Y15499735D01*
X39888416Y15475545D01*
X39917203Y15455900D01*
X39956325Y15429195D01*
X39990710Y15406240D01*
X40017908Y15388630D01*
X40035469Y15377959D01*
X40040799Y15375467D01*
X40051176Y15379043D01*
X40072455Y15388527D01*
X40100495Y15402050D01*
X40107679Y15405643D01*
X40135969Y15419430D01*
X40157761Y15429185D01*
X40169287Y15433248D01*
X40170144Y15433160D01*
X40174012Y15424863D01*
X40183362Y15403191D01*
X40197246Y15370433D01*
X40214713Y15328879D01*
X40234811Y15280816D01*
X40256591Y15228534D01*
X40279103Y15174322D01*
X40301395Y15120468D01*
X40322518Y15069262D01*
X40341522Y15022991D01*
X40357455Y14983946D01*
X40369367Y14954415D01*
X40376309Y14936686D01*
X40376467Y14936262D01*
X40384359Y14913455D01*
X40385702Y14901037D01*
X40380211Y14893662D01*
X40373960Y14889695D01*
X40359732Y14879780D01*
X40337157Y14862380D01*
X40310770Y14841004D01*
X40306957Y14837833D01*
X40256506Y14785740D01*
X40220044Y14726932D01*
X40197356Y14663628D01*
X40188227Y14598045D01*
X40192444Y14532402D01*
X40209791Y14468917D01*
X40240055Y14409809D01*
X40283021Y14357294D01*
X40338475Y14313591D01*
X40358750Y14301869D01*
X40425433Y14275278D01*
X40494320Y14264081D01*
X40563004Y14267555D01*
X40629075Y14284981D01*
X40690127Y14315640D01*
X40743752Y14358810D01*
X40787541Y14413772D01*
X40798977Y14433532D01*
X40826422Y14502019D01*
X40837904Y14572078D01*
X40833990Y14641611D01*
X40815247Y14708519D01*
X40782242Y14770703D01*
X40735543Y14826065D01*
X40681276Y14868973D01*
X40658960Y14885035D01*
X40643972Y14898892D01*
X40640000Y14905745D01*
X40643133Y14916293D01*
X40651880Y14939935D01*
X40665258Y14974171D01*
X40682286Y15016499D01*
X40701983Y15064417D01*
X40706705Y15075769D01*
X40729943Y15131630D01*
X40753738Y15189053D01*
X40776284Y15243659D01*
X40795772Y15291068D01*
X40809486Y15324666D01*
X40824667Y15361261D01*
X40838239Y15392496D01*
X40848583Y15414732D01*
X40853641Y15423857D01*
X40861980Y15427336D01*
X40878149Y15423728D01*
X40904805Y15412260D01*
X40921094Y15404247D01*
X40950353Y15390544D01*
X40974346Y15381194D01*
X40988720Y15377848D01*
X40990151Y15378078D01*
X41000130Y15383949D01*
X41021431Y15397751D01*
X41051462Y15417765D01*
X41087631Y15442270D01*
X41112157Y15459071D01*
X41150852Y15485255D01*
X41185132Y15507641D01*
X41212395Y15524592D01*
X41230041Y15534474D01*
X41235046Y15536333D01*
X41244162Y15530594D01*
X41263001Y15514658D01*
X41289459Y15490446D01*
X41321432Y15459878D01*
X41353439Y15428265D01*
X41388073Y15392869D01*
X41418090Y15360883D01*
X41441567Y15334463D01*
X41456580Y15315767D01*
X41461266Y15307324D01*
X41459879Y15300883D01*
X41455029Y15290456D01*
X41445683Y15274436D01*
X41430809Y15251219D01*
X41409374Y15219197D01*
X41380346Y15176765D01*
X41342691Y15122317D01*
X41337413Y15114711D01*
X41319647Y15087884D01*
X41306505Y15065689D01*
X41300432Y15052311D01*
X41300279Y15051211D01*
X41303185Y15040001D01*
X41311248Y15016203D01*
X41323347Y14982955D01*
X41338360Y14943395D01*
X41343926Y14929073D01*
X41359235Y14889278D01*
X41371476Y14859250D01*
X41383212Y14837222D01*
X41397006Y14821425D01*
X41415420Y14810091D01*
X41441017Y14801453D01*
X41476358Y14793741D01*
X41524008Y14785189D01*
X41562246Y14778440D01*
X41605948Y14770409D01*
X41643713Y14763093D01*
X41672398Y14757130D01*
X41688858Y14753159D01*
X41691363Y14752242D01*
X41693522Y14742825D01*
X41695409Y14719145D01*
X41696913Y14683870D01*
X41697924Y14639671D01*
X41698330Y14589216D01*
X41698333Y14584270D01*
X41698333Y14420606D01*
X41556516Y14394001D01*
X41508404Y14384747D01*
X41465159Y14376002D01*
X41429945Y14368439D01*
X41405927Y14362731D01*
X41397293Y14360128D01*
X41387226Y14349583D01*
X41373222Y14326680D01*
X41356858Y14295038D01*
X41339711Y14258272D01*
X41323355Y14219999D01*
X41309368Y14183835D01*
X41299326Y14153396D01*
X41294805Y14132299D01*
X41295240Y14125993D01*
X41301692Y14114501D01*
X41316069Y14091750D01*
X41336640Y14060393D01*
X41361672Y14023080D01*
X41380976Y13994758D01*
X41407679Y13955195D01*
X41430622Y13919988D01*
X41448205Y13891691D01*
X41458827Y13872860D01*
X41461266Y13866584D01*
X41455408Y13856526D01*
X41439420Y13837403D01*
X41415679Y13811563D01*
X41386565Y13781355D01*
X41354455Y13749127D01*
X41321729Y13717229D01*
X41290765Y13688007D01*
X41263941Y13663810D01*
X41243636Y13646988D01*
X41232229Y13639887D01*
X41231574Y13639800D01*
X41215317Y13644712D01*
X41197825Y13655332D01*
X41183823Y13665470D01*
X41158820Y13682963D01*
X41125859Y13705704D01*
X41087980Y13731589D01*
X41070135Y13743706D01*
X40962638Y13816548D01*
X40858469Y13773881D01*
X40819026Y13757293D01*
X40784988Y13742168D01*
X40759600Y13730006D01*
X40746104Y13722308D01*
X40745168Y13721490D01*
X40739687Y13709213D01*
X40732735Y13684576D01*
X40725470Y13651947D01*
X40722362Y13635567D01*
X40714020Y13589086D01*
X40704544Y13536287D01*
X40695791Y13487517D01*
X40694631Y13481050D01*
X40680574Y13402733D01*
X40346687Y13402733D01*
X40318418Y13557250D01*
X40318418Y13557250D01*
G37*
X40318418Y13557250D02*
X40308969Y13606789D01*
X40299841Y13650818D01*
X40291678Y13686519D01*
X40285122Y13711071D01*
X40280925Y13721551D01*
X40269942Y13728254D01*
X40246452Y13739639D01*
X40213712Y13754213D01*
X40174983Y13770482D01*
X40167674Y13773457D01*
X40063649Y13815577D01*
X40032208Y13794099D01*
X39965430Y13748632D01*
X39911372Y13712184D01*
X39868905Y13684029D01*
X39836902Y13663440D01*
X39814235Y13649690D01*
X39799775Y13642054D01*
X39792582Y13639800D01*
X39782737Y13645598D01*
X39763712Y13661421D01*
X39737873Y13684912D01*
X39707583Y13713715D01*
X39675209Y13745473D01*
X39643115Y13777830D01*
X39613667Y13808430D01*
X39589230Y13834915D01*
X39572168Y13854929D01*
X39564846Y13866116D01*
X39564733Y13866824D01*
X39569324Y13877138D01*
X39582030Y13898771D01*
X39601252Y13929177D01*
X39625391Y13965806D01*
X39645023Y13994758D01*
X39672153Y14034667D01*
X39696037Y14070482D01*
X39714943Y14099552D01*
X39727138Y14119224D01*
X39730759Y14125993D01*
X39729934Y14140394D01*
X39722729Y14166130D01*
X39710718Y14199588D01*
X39695475Y14237152D01*
X39678575Y14275210D01*
X39661591Y14310148D01*
X39646098Y14338351D01*
X39633669Y14356205D01*
X39628706Y14360306D01*
X39616716Y14363538D01*
X39591532Y14369154D01*
X39556615Y14376474D01*
X39515424Y14384821D01*
X39471421Y14393514D01*
X39428066Y14401875D01*
X39388819Y14409226D01*
X39357140Y14414886D01*
X39336490Y14418177D01*
X39330932Y14418733D01*
X39329935Y14426773D01*
X39329271Y14449194D01*
X39328963Y14483444D01*
X39329029Y14526974D01*
X39329490Y14577234D01*
X39329604Y14585918D01*
X39331900Y14753103D01*
X39365766Y14759874D01*
X39386589Y14763993D01*
X39419829Y14770517D01*
X39461279Y14778622D01*
X39506735Y14787486D01*
X39517286Y14789540D01*
X39634939Y14812433D01*
X39679967Y14922500D01*
X39696324Y14963343D01*
X39710073Y14999309D01*
X39720018Y15027150D01*
X39724966Y15043613D01*
X39725298Y15045868D01*
X39720818Y15057014D01*
X39708225Y15079434D01*
X39689108Y15110523D01*
X39665054Y15147675D01*
X39645308Y15177101D01*
X39618633Y15217001D01*
X39595690Y15252691D01*
X39578076Y15281575D01*
X39567387Y15301059D01*
X39564875Y15307855D01*
X39570601Y15317641D01*
X39586314Y15336655D01*
X39609668Y15362526D01*
X39638315Y15392879D01*
X39669910Y15425341D01*
X39702106Y15457538D01*
X39732558Y15487097D01*
X39758920Y15511645D01*
X39778845Y15528807D01*
X39789987Y15536211D01*
X39790717Y15536333D01*
X39800664Y15531732D01*
X39821944Y15518998D01*
X39852035Y15499735D01*
X39888416Y15475545D01*
X39917203Y15455900D01*
X39956325Y15429195D01*
X39990710Y15406240D01*
X40017908Y15388630D01*
X40035469Y15377959D01*
X40040799Y15375467D01*
X40051176Y15379043D01*
X40072455Y15388527D01*
X40100495Y15402050D01*
X40107679Y15405643D01*
X40135969Y15419430D01*
X40157761Y15429185D01*
X40169287Y15433248D01*
X40170144Y15433160D01*
X40174012Y15424863D01*
X40183362Y15403191D01*
X40197246Y15370433D01*
X40214713Y15328879D01*
X40234811Y15280816D01*
X40256591Y15228534D01*
X40279103Y15174322D01*
X40301395Y15120468D01*
X40322518Y15069262D01*
X40341522Y15022991D01*
X40357455Y14983946D01*
X40369367Y14954415D01*
X40376309Y14936686D01*
X40376467Y14936262D01*
X40384359Y14913455D01*
X40385702Y14901037D01*
X40380211Y14893662D01*
X40373960Y14889695D01*
X40359732Y14879780D01*
X40337157Y14862380D01*
X40310770Y14841004D01*
X40306957Y14837833D01*
X40256506Y14785740D01*
X40220044Y14726932D01*
X40197356Y14663628D01*
X40188227Y14598045D01*
X40192444Y14532402D01*
X40209791Y14468917D01*
X40240055Y14409809D01*
X40283021Y14357294D01*
X40338475Y14313591D01*
X40358750Y14301869D01*
X40425433Y14275278D01*
X40494320Y14264081D01*
X40563004Y14267555D01*
X40629075Y14284981D01*
X40690127Y14315640D01*
X40743752Y14358810D01*
X40787541Y14413772D01*
X40798977Y14433532D01*
X40826422Y14502019D01*
X40837904Y14572078D01*
X40833990Y14641611D01*
X40815247Y14708519D01*
X40782242Y14770703D01*
X40735543Y14826065D01*
X40681276Y14868973D01*
X40658960Y14885035D01*
X40643972Y14898892D01*
X40640000Y14905745D01*
X40643133Y14916293D01*
X40651880Y14939935D01*
X40665258Y14974171D01*
X40682286Y15016499D01*
X40701983Y15064417D01*
X40706705Y15075769D01*
X40729943Y15131630D01*
X40753738Y15189053D01*
X40776284Y15243659D01*
X40795772Y15291068D01*
X40809486Y15324666D01*
X40824667Y15361261D01*
X40838239Y15392496D01*
X40848583Y15414732D01*
X40853641Y15423857D01*
X40861980Y15427336D01*
X40878149Y15423728D01*
X40904805Y15412260D01*
X40921094Y15404247D01*
X40950353Y15390544D01*
X40974346Y15381194D01*
X40988720Y15377848D01*
X40990151Y15378078D01*
X41000130Y15383949D01*
X41021431Y15397751D01*
X41051462Y15417765D01*
X41087631Y15442270D01*
X41112157Y15459071D01*
X41150852Y15485255D01*
X41185132Y15507641D01*
X41212395Y15524592D01*
X41230041Y15534474D01*
X41235046Y15536333D01*
X41244162Y15530594D01*
X41263001Y15514658D01*
X41289459Y15490446D01*
X41321432Y15459878D01*
X41353439Y15428265D01*
X41388073Y15392869D01*
X41418090Y15360883D01*
X41441567Y15334463D01*
X41456580Y15315767D01*
X41461266Y15307324D01*
X41459879Y15300883D01*
X41455029Y15290456D01*
X41445683Y15274436D01*
X41430809Y15251219D01*
X41409374Y15219197D01*
X41380346Y15176765D01*
X41342691Y15122317D01*
X41337413Y15114711D01*
X41319647Y15087884D01*
X41306505Y15065689D01*
X41300432Y15052311D01*
X41300279Y15051211D01*
X41303185Y15040001D01*
X41311248Y15016203D01*
X41323347Y14982955D01*
X41338360Y14943395D01*
X41343926Y14929073D01*
X41359235Y14889278D01*
X41371476Y14859250D01*
X41383212Y14837222D01*
X41397006Y14821425D01*
X41415420Y14810091D01*
X41441017Y14801453D01*
X41476358Y14793741D01*
X41524008Y14785189D01*
X41562246Y14778440D01*
X41605948Y14770409D01*
X41643713Y14763093D01*
X41672398Y14757130D01*
X41688858Y14753159D01*
X41691363Y14752242D01*
X41693522Y14742825D01*
X41695409Y14719145D01*
X41696913Y14683870D01*
X41697924Y14639671D01*
X41698330Y14589216D01*
X41698333Y14584270D01*
X41698333Y14420606D01*
X41556516Y14394001D01*
X41508404Y14384747D01*
X41465159Y14376002D01*
X41429945Y14368439D01*
X41405927Y14362731D01*
X41397293Y14360128D01*
X41387226Y14349583D01*
X41373222Y14326680D01*
X41356858Y14295038D01*
X41339711Y14258272D01*
X41323355Y14219999D01*
X41309368Y14183835D01*
X41299326Y14153396D01*
X41294805Y14132299D01*
X41295240Y14125993D01*
X41301692Y14114501D01*
X41316069Y14091750D01*
X41336640Y14060393D01*
X41361672Y14023080D01*
X41380976Y13994758D01*
X41407679Y13955195D01*
X41430622Y13919988D01*
X41448205Y13891691D01*
X41458827Y13872860D01*
X41461266Y13866584D01*
X41455408Y13856526D01*
X41439420Y13837403D01*
X41415679Y13811563D01*
X41386565Y13781355D01*
X41354455Y13749127D01*
X41321729Y13717229D01*
X41290765Y13688007D01*
X41263941Y13663810D01*
X41243636Y13646988D01*
X41232229Y13639887D01*
X41231574Y13639800D01*
X41215317Y13644712D01*
X41197825Y13655332D01*
X41183823Y13665470D01*
X41158820Y13682963D01*
X41125859Y13705704D01*
X41087980Y13731589D01*
X41070135Y13743706D01*
X40962638Y13816548D01*
X40858469Y13773881D01*
X40819026Y13757293D01*
X40784988Y13742168D01*
X40759600Y13730006D01*
X40746104Y13722308D01*
X40745168Y13721490D01*
X40739687Y13709213D01*
X40732735Y13684576D01*
X40725470Y13651947D01*
X40722362Y13635567D01*
X40714020Y13589086D01*
X40704544Y13536287D01*
X40695791Y13487517D01*
X40694631Y13481050D01*
X40680574Y13402733D01*
X40346687Y13402733D01*
X40318418Y13557250D01*
M02*
