G04 #@! TF.FileFunction,Soldermask,Bot*
%FSLAX46Y46*%
G04 Gerber Fmt 4.6, Leading zero omitted, Abs format (unit mm)*
G04 Created by KiCad (PCBNEW 4.0.7-e2-6376~58~ubuntu16.04.1) date Tue Nov 28 14:50:33 2017*
%MOMM*%
%LPD*%
G01*
G04 APERTURE LIST*
%ADD10C,0.100000*%
%ADD11R,0.800000X2.300000*%
%ADD12R,2.300000X0.800000*%
%ADD13R,1.903200X1.903200*%
%ADD14O,1.903200X1.903200*%
%ADD15C,1.403200*%
%ADD16C,1.903200*%
%ADD17R,1.701800X0.901700*%
%ADD18R,1.602740X2.001520*%
%ADD19R,2.103120X1.602740*%
%ADD20O,1.930400X1.930400*%
%ADD21C,2.403200*%
%ADD22R,1.503200X2.203200*%
%ADD23R,1.473200X4.403200*%
%ADD24R,2.202180X1.203960*%
G04 APERTURE END LIST*
D10*
D11*
X9269730Y21528900D03*
X10285730Y21528900D03*
X11301731Y21528900D03*
X12317731Y21528900D03*
X13333730Y21528900D03*
X14349730Y21528900D03*
X15365730Y21528900D03*
X16381730Y21528900D03*
X6221730Y21528900D03*
D12*
X19052130Y15809450D03*
X19052130Y16825450D03*
X19052130Y17841450D03*
X19052130Y18857450D03*
X19052130Y11745450D03*
X19052130Y9713447D03*
X19052130Y8697450D03*
X19052130Y7681450D03*
X19052130Y6665450D03*
X4321860Y17849670D03*
X4321860Y16833670D03*
X4321860Y15817670D03*
X4321860Y14801670D03*
X4321860Y13785670D03*
X4321860Y12769670D03*
X4321860Y11753670D03*
X4321860Y10737666D03*
X4321860Y9721666D03*
X4321860Y8705670D03*
D13*
X1270000Y-17779000D03*
D14*
X1270000Y-15239000D03*
X1270000Y-12699000D03*
X1270000Y-10159000D03*
X1270000Y-7619000D03*
X1270000Y-5079000D03*
D15*
X15413000Y-23029400D03*
X20263000Y-23029400D03*
D16*
X14213000Y-25679400D03*
X21463000Y-25679400D03*
D17*
X22098000Y-16129000D03*
X21699220Y-15029180D03*
X22098000Y-13929360D03*
X22499320Y-12829540D03*
X22098000Y-11729720D03*
X22499320Y-10627360D03*
X22098000Y-9527540D03*
X22098000Y-8427720D03*
D18*
X11899900Y-9128760D03*
X11899900Y-15128240D03*
D19*
X24998680Y-7528560D03*
X25900380Y-20728940D03*
D20*
X24130000Y17780000D03*
X24130000Y20320000D03*
X24130000Y22860000D03*
X24130000Y25400000D03*
X24130000Y50800000D03*
X24130000Y48260000D03*
X24130000Y45720000D03*
X24130000Y43180000D03*
X24130000Y40640000D03*
X24130000Y38100000D03*
X24130000Y35560000D03*
X24130000Y33020000D03*
X24130000Y30480000D03*
X24130000Y27940000D03*
X24130000Y15240000D03*
X24130000Y12700000D03*
X24130000Y10160000D03*
X24130000Y7620000D03*
X24130000Y5080000D03*
D21*
X1400000Y-25819000D03*
X24200000Y-25919000D03*
X1400000Y77200000D03*
X24200000Y77200000D03*
D20*
X1270000Y17780000D03*
X1270000Y20320000D03*
X1270000Y22860000D03*
X1270000Y25400000D03*
X1270000Y50800000D03*
X1270000Y48260000D03*
X1270000Y45720000D03*
X1270000Y43180000D03*
X1270000Y40640000D03*
X1270000Y38100000D03*
X1270000Y35560000D03*
X1270000Y33020000D03*
X1270000Y30480000D03*
X1270000Y27940000D03*
X1270000Y15240000D03*
X1270000Y12700000D03*
X1270000Y10160000D03*
X1270000Y7620000D03*
X1270000Y5080000D03*
D22*
X19700000Y31370000D03*
X17700000Y31370000D03*
X15700000Y31370000D03*
X13700000Y31370000D03*
X11700000Y31370000D03*
X9700000Y31370000D03*
X7700000Y31370000D03*
X5700000Y31370000D03*
X5700000Y47370000D03*
X7700000Y47370000D03*
X9700000Y47370000D03*
X11700000Y47370000D03*
X13700000Y47370000D03*
X15700000Y47370000D03*
X17700000Y47370000D03*
X19700000Y47370000D03*
D23*
X18750400Y77000000D03*
X16250400Y77000000D03*
X21250400Y77000000D03*
D24*
X8382000Y59654440D03*
X8382000Y61153040D03*
X8382000Y62654180D03*
X8382000Y64152780D03*
X8382000Y65653920D03*
X8382000Y67152520D03*
X8382000Y68653660D03*
X8382000Y70152260D03*
X8382000Y71653400D03*
X8382000Y73152000D03*
X24384000Y73152000D03*
X24384000Y71653400D03*
X24384000Y70152260D03*
X24384000Y68653660D03*
X24384000Y67152520D03*
X24384000Y65653920D03*
X24384000Y64152780D03*
X24384000Y62654180D03*
X24384000Y61153040D03*
X24384000Y59654440D03*
D13*
X1003300Y72758300D03*
D23*
X6858000Y77012800D03*
X4358000Y77012800D03*
X9358000Y77012800D03*
M02*
