G04 #@! TF.FileFunction,Paste,Top*
%FSLAX46Y46*%
G04 Gerber Fmt 4.6, Leading zero omitted, Abs format (unit mm)*
G04 Created by KiCad (PCBNEW 4.0.6) date 06/09/17 16:23:24*
%MOMM*%
%LPD*%
G01*
G04 APERTURE LIST*
%ADD10C,0.100000*%
%ADD11R,0.628650X1.348740*%
%ADD12R,1.618488X1.259586*%
%ADD13R,1.259586X1.709928*%
%ADD14R,0.720000X0.585000*%
%ADD15R,1.215000X0.360000*%
%ADD16C,1.080000*%
%ADD17O,1.530000X1.170000*%
%ADD18R,0.720000X1.080000*%
%ADD19R,0.720000X1.980000*%
%ADD20R,1.800000X2.250000*%
%ADD21R,0.540000X1.800000*%
%ADD22R,0.630000X0.900000*%
%ADD23R,0.630000X0.540000*%
%ADD24R,1.350000X0.900000*%
%ADD25R,0.630000X0.810000*%
%ADD26R,0.810000X0.630000*%
%ADD27R,0.990000X0.900000*%
%ADD28R,0.450000X0.360000*%
%ADD29R,0.990000X1.440000*%
%ADD30R,0.225000X0.360000*%
%ADD31R,3.150000X0.900000*%
%ADD32R,3.060000X1.350000*%
%ADD33R,0.900000X0.990000*%
%ADD34R,0.945000X0.585000*%
%ADD35R,0.435000X0.435000*%
%ADD36R,0.202000X0.715000*%
%ADD37R,0.715000X0.202000*%
%ADD38R,0.715000X0.220000*%
%ADD39R,1.143000X3.780000*%
%ADD40R,0.630000X1.305000*%
%ADD41R,0.585000X0.945000*%
%ADD42R,0.675000X0.270000*%
%ADD43R,0.525000X0.435000*%
G04 APERTURE END LIST*
D10*
D11*
X14499220Y-23137520D03*
X13399400Y-22738740D03*
X12299580Y-23137520D03*
X11199760Y-23538840D03*
X10099940Y-23137520D03*
X8997580Y-23538840D03*
X7897760Y-23137520D03*
X6797940Y-23137520D03*
D12*
X7498980Y-12939420D03*
X13498460Y-12939420D03*
D13*
X5898780Y-26038200D03*
X19099160Y-26939900D03*
D10*
G36*
X11075422Y40914566D02*
X11234521Y41073665D01*
X12061836Y40246350D01*
X11902737Y40087251D01*
X11075422Y40914566D01*
X11075422Y40914566D01*
G37*
G36*
X10721869Y40561013D02*
X10880968Y40720112D01*
X11708283Y39892797D01*
X11549184Y39733698D01*
X10721869Y40561013D01*
X10721869Y40561013D01*
G37*
G36*
X10368315Y40207459D02*
X10527414Y40366558D01*
X11354729Y39539243D01*
X11195630Y39380144D01*
X10368315Y40207459D01*
X10368315Y40207459D01*
G37*
G36*
X10014762Y39853906D02*
X10173861Y40013005D01*
X11001176Y39185690D01*
X10842077Y39026591D01*
X10014762Y39853906D01*
X10014762Y39853906D01*
G37*
G36*
X9661209Y39500353D02*
X9820308Y39659452D01*
X10647623Y38832137D01*
X10488524Y38673038D01*
X9661209Y39500353D01*
X9661209Y39500353D01*
G37*
G36*
X9307655Y39146799D02*
X9466754Y39305898D01*
X10294069Y38478583D01*
X10134970Y38319484D01*
X9307655Y39146799D01*
X9307655Y39146799D01*
G37*
G36*
X8954102Y38793246D02*
X9113201Y38952345D01*
X9940516Y38125030D01*
X9781417Y37965931D01*
X8954102Y38793246D01*
X8954102Y38793246D01*
G37*
G36*
X8600548Y38439692D02*
X8759647Y38598791D01*
X9586962Y37771476D01*
X9427863Y37612377D01*
X8600548Y38439692D01*
X8600548Y38439692D01*
G37*
G36*
X8246995Y38086139D02*
X8406094Y38245238D01*
X9233409Y37417923D01*
X9074310Y37258824D01*
X8246995Y38086139D01*
X8246995Y38086139D01*
G37*
G36*
X7893442Y37732586D02*
X8052541Y37891685D01*
X8879856Y37064370D01*
X8720757Y36905271D01*
X7893442Y37732586D01*
X7893442Y37732586D01*
G37*
G36*
X7539888Y37379032D02*
X7698987Y37538131D01*
X8526302Y36710816D01*
X8367203Y36551717D01*
X7539888Y37379032D01*
X7539888Y37379032D01*
G37*
G36*
X7186335Y37025479D02*
X7345434Y37184578D01*
X8172749Y36357263D01*
X8013650Y36198164D01*
X7186335Y37025479D01*
X7186335Y37025479D01*
G37*
G36*
X7345434Y33935422D02*
X7186335Y34094521D01*
X8013650Y34921836D01*
X8172749Y34762737D01*
X7345434Y33935422D01*
X7345434Y33935422D01*
G37*
G36*
X7698987Y33581869D02*
X7539888Y33740968D01*
X8367203Y34568283D01*
X8526302Y34409184D01*
X7698987Y33581869D01*
X7698987Y33581869D01*
G37*
G36*
X8052541Y33228315D02*
X7893442Y33387414D01*
X8720757Y34214729D01*
X8879856Y34055630D01*
X8052541Y33228315D01*
X8052541Y33228315D01*
G37*
G36*
X8406094Y32874762D02*
X8246995Y33033861D01*
X9074310Y33861176D01*
X9233409Y33702077D01*
X8406094Y32874762D01*
X8406094Y32874762D01*
G37*
G36*
X8759647Y32521209D02*
X8600548Y32680308D01*
X9427863Y33507623D01*
X9586962Y33348524D01*
X8759647Y32521209D01*
X8759647Y32521209D01*
G37*
G36*
X9113201Y32167655D02*
X8954102Y32326754D01*
X9781417Y33154069D01*
X9940516Y32994970D01*
X9113201Y32167655D01*
X9113201Y32167655D01*
G37*
G36*
X9466754Y31814102D02*
X9307655Y31973201D01*
X10134970Y32800516D01*
X10294069Y32641417D01*
X9466754Y31814102D01*
X9466754Y31814102D01*
G37*
G36*
X9820308Y31460548D02*
X9661209Y31619647D01*
X10488524Y32446962D01*
X10647623Y32287863D01*
X9820308Y31460548D01*
X9820308Y31460548D01*
G37*
G36*
X10173861Y31106995D02*
X10014762Y31266094D01*
X10842077Y32093409D01*
X11001176Y31934310D01*
X10173861Y31106995D01*
X10173861Y31106995D01*
G37*
G36*
X10527414Y30753442D02*
X10368315Y30912541D01*
X11195630Y31739856D01*
X11354729Y31580757D01*
X10527414Y30753442D01*
X10527414Y30753442D01*
G37*
G36*
X10880968Y30399888D02*
X10721869Y30558987D01*
X11549184Y31386302D01*
X11708283Y31227203D01*
X10880968Y30399888D01*
X10880968Y30399888D01*
G37*
G36*
X11234521Y30046335D02*
X11075422Y30205434D01*
X11902737Y31032749D01*
X12061836Y30873650D01*
X11234521Y30046335D01*
X11234521Y30046335D01*
G37*
G36*
X13338164Y30873650D02*
X13497263Y31032749D01*
X14324578Y30205434D01*
X14165479Y30046335D01*
X13338164Y30873650D01*
X13338164Y30873650D01*
G37*
G36*
X13691717Y31227203D02*
X13850816Y31386302D01*
X14678131Y30558987D01*
X14519032Y30399888D01*
X13691717Y31227203D01*
X13691717Y31227203D01*
G37*
G36*
X14045271Y31580757D02*
X14204370Y31739856D01*
X15031685Y30912541D01*
X14872586Y30753442D01*
X14045271Y31580757D01*
X14045271Y31580757D01*
G37*
G36*
X14398824Y31934310D02*
X14557923Y32093409D01*
X15385238Y31266094D01*
X15226139Y31106995D01*
X14398824Y31934310D01*
X14398824Y31934310D01*
G37*
G36*
X14752377Y32287863D02*
X14911476Y32446962D01*
X15738791Y31619647D01*
X15579692Y31460548D01*
X14752377Y32287863D01*
X14752377Y32287863D01*
G37*
G36*
X15105931Y32641417D02*
X15265030Y32800516D01*
X16092345Y31973201D01*
X15933246Y31814102D01*
X15105931Y32641417D01*
X15105931Y32641417D01*
G37*
G36*
X15459484Y32994970D02*
X15618583Y33154069D01*
X16445898Y32326754D01*
X16286799Y32167655D01*
X15459484Y32994970D01*
X15459484Y32994970D01*
G37*
G36*
X15813038Y33348524D02*
X15972137Y33507623D01*
X16799452Y32680308D01*
X16640353Y32521209D01*
X15813038Y33348524D01*
X15813038Y33348524D01*
G37*
G36*
X16166591Y33702077D02*
X16325690Y33861176D01*
X17153005Y33033861D01*
X16993906Y32874762D01*
X16166591Y33702077D01*
X16166591Y33702077D01*
G37*
G36*
X16520144Y34055630D02*
X16679243Y34214729D01*
X17506558Y33387414D01*
X17347459Y33228315D01*
X16520144Y34055630D01*
X16520144Y34055630D01*
G37*
G36*
X16873698Y34409184D02*
X17032797Y34568283D01*
X17860112Y33740968D01*
X17701013Y33581869D01*
X16873698Y34409184D01*
X16873698Y34409184D01*
G37*
G36*
X17227251Y34762737D02*
X17386350Y34921836D01*
X18213665Y34094521D01*
X18054566Y33935422D01*
X17227251Y34762737D01*
X17227251Y34762737D01*
G37*
G36*
X17386350Y36198164D02*
X17227251Y36357263D01*
X18054566Y37184578D01*
X18213665Y37025479D01*
X17386350Y36198164D01*
X17386350Y36198164D01*
G37*
G36*
X17032797Y36551717D02*
X16873698Y36710816D01*
X17701013Y37538131D01*
X17860112Y37379032D01*
X17032797Y36551717D01*
X17032797Y36551717D01*
G37*
G36*
X16679243Y36905271D02*
X16520144Y37064370D01*
X17347459Y37891685D01*
X17506558Y37732586D01*
X16679243Y36905271D01*
X16679243Y36905271D01*
G37*
G36*
X16325690Y37258824D02*
X16166591Y37417923D01*
X16993906Y38245238D01*
X17153005Y38086139D01*
X16325690Y37258824D01*
X16325690Y37258824D01*
G37*
G36*
X15972137Y37612377D02*
X15813038Y37771476D01*
X16640353Y38598791D01*
X16799452Y38439692D01*
X15972137Y37612377D01*
X15972137Y37612377D01*
G37*
G36*
X15618583Y37965931D02*
X15459484Y38125030D01*
X16286799Y38952345D01*
X16445898Y38793246D01*
X15618583Y37965931D01*
X15618583Y37965931D01*
G37*
G36*
X15265030Y38319484D02*
X15105931Y38478583D01*
X15933246Y39305898D01*
X16092345Y39146799D01*
X15265030Y38319484D01*
X15265030Y38319484D01*
G37*
G36*
X14911476Y38673038D02*
X14752377Y38832137D01*
X15579692Y39659452D01*
X15738791Y39500353D01*
X14911476Y38673038D01*
X14911476Y38673038D01*
G37*
G36*
X14557923Y39026591D02*
X14398824Y39185690D01*
X15226139Y40013005D01*
X15385238Y39853906D01*
X14557923Y39026591D01*
X14557923Y39026591D01*
G37*
G36*
X14204370Y39380144D02*
X14045271Y39539243D01*
X14872586Y40366558D01*
X15031685Y40207459D01*
X14204370Y39380144D01*
X14204370Y39380144D01*
G37*
G36*
X13850816Y39733698D02*
X13691717Y39892797D01*
X14519032Y40720112D01*
X14678131Y40561013D01*
X13850816Y39733698D01*
X13850816Y39733698D01*
G37*
G36*
X13497263Y40087251D02*
X13338164Y40246350D01*
X14165479Y41073665D01*
X14324578Y40914566D01*
X13497263Y40087251D01*
X13497263Y40087251D01*
G37*
D14*
X18076000Y14434000D03*
X18076000Y15284000D03*
X16976000Y15284000D03*
X16976000Y14434000D03*
D15*
X22500000Y-6675000D03*
X22500000Y-6025000D03*
X22500000Y-5375000D03*
X22500000Y-4725000D03*
X22500000Y-4075000D03*
D16*
X22425000Y-7800000D03*
X22425000Y-2950000D03*
D17*
X25075000Y-9000000D03*
X25075000Y-1750000D03*
D18*
X17780000Y21336000D03*
D19*
X16280000Y20836000D03*
D18*
X14780000Y21336000D03*
D20*
X16280000Y18486000D03*
D21*
X7239000Y27084000D03*
X8509000Y27084000D03*
X9779000Y27084000D03*
X11049000Y27084000D03*
X11049000Y21684000D03*
X9779000Y21684000D03*
X8509000Y21684000D03*
X7239000Y21684000D03*
D10*
G36*
X10099523Y44063325D02*
X11308675Y45272477D01*
X12008711Y44572441D01*
X10799559Y43363289D01*
X10099523Y44063325D01*
X10099523Y44063325D01*
G37*
G36*
X11867289Y42295559D02*
X13076441Y43504711D01*
X13776477Y42804675D01*
X12567325Y41595523D01*
X11867289Y42295559D01*
X11867289Y42295559D01*
G37*
D22*
X22000000Y500000D03*
D23*
X22000000Y2200000D03*
X20000000Y2200000D03*
X20000000Y300000D03*
D24*
X11150000Y6700000D03*
X11150000Y4500000D03*
D10*
G36*
X13160736Y45196741D02*
X12715259Y44751264D01*
X12142502Y45324021D01*
X12587979Y45769498D01*
X13160736Y45196741D01*
X13160736Y45196741D01*
G37*
G36*
X12241498Y46115979D02*
X11796021Y45670502D01*
X11223264Y46243259D01*
X11668741Y46688736D01*
X12241498Y46115979D01*
X12241498Y46115979D01*
G37*
G36*
X13255264Y44211259D02*
X13700741Y44656736D01*
X14273498Y44083979D01*
X13828021Y43638502D01*
X13255264Y44211259D01*
X13255264Y44211259D01*
G37*
G36*
X14174502Y43292021D02*
X14619979Y43737498D01*
X15192736Y43164741D01*
X14747259Y42719264D01*
X14174502Y43292021D01*
X14174502Y43292021D01*
G37*
D25*
X18034000Y41514000D03*
X18034000Y42814000D03*
X5461000Y40498000D03*
X5461000Y41798000D03*
X19304000Y41514000D03*
X19304000Y42814000D03*
X20320000Y34290000D03*
X20320000Y32990000D03*
X4572000Y32146000D03*
X4572000Y30846000D03*
X12446000Y10302000D03*
X12446000Y9002000D03*
D26*
X13096000Y50546000D03*
X11796000Y50546000D03*
X8748000Y10414000D03*
X10048000Y10414000D03*
D25*
X10668000Y17384000D03*
X10668000Y18684000D03*
D26*
X20500000Y-8000000D03*
X19200000Y-8000000D03*
X18176000Y25654000D03*
X16876000Y25654000D03*
D25*
X17526000Y46340000D03*
X17526000Y47640000D03*
X8890000Y18684000D03*
X8890000Y17384000D03*
D26*
X4430000Y13970000D03*
X5730000Y13970000D03*
X4430000Y12700000D03*
X5730000Y12700000D03*
X4430000Y11430000D03*
X5730000Y11430000D03*
X20970000Y35814000D03*
X19670000Y35814000D03*
X14336000Y14224000D03*
X15636000Y14224000D03*
X14336000Y15494000D03*
X15636000Y15494000D03*
D27*
X16676000Y24130000D03*
X18376000Y24130000D03*
D25*
X4191000Y40498000D03*
X4191000Y41798000D03*
D28*
X4026000Y16906000D03*
X4026000Y15606000D03*
D29*
X5076000Y16256000D03*
D30*
X5751000Y16256000D03*
D31*
X6350000Y-650000D03*
X6350000Y-2650000D03*
D32*
X800000Y1700000D03*
X800000Y-5000000D03*
D26*
X13096000Y49276000D03*
X11796000Y49276000D03*
D33*
X7112000Y18884000D03*
X7112000Y17184000D03*
D25*
X13716000Y10302000D03*
X13716000Y9002000D03*
D34*
X12820000Y26604000D03*
X12820000Y24704000D03*
X15120000Y25654000D03*
D25*
X18796000Y46340000D03*
X18796000Y47640000D03*
D26*
X20970000Y37084000D03*
X19670000Y37084000D03*
X20500000Y-9500000D03*
X19200000Y-9500000D03*
X5730000Y10160000D03*
X4430000Y10160000D03*
D25*
X8001000Y41006000D03*
X8001000Y42306000D03*
X5588000Y25034000D03*
X5588000Y23734000D03*
X6731000Y41006000D03*
X6731000Y42306000D03*
X12192000Y17384000D03*
X12192000Y18684000D03*
X12954000Y21702000D03*
X12954000Y23002000D03*
D35*
X10414000Y14333000D03*
X9664000Y14333000D03*
X9664000Y13583000D03*
X10414000Y13583000D03*
D36*
X9289000Y12483000D03*
X9789000Y12483000D03*
X10289000Y12483000D03*
X10789000Y12483000D03*
D37*
X11514000Y13208000D03*
X11514000Y13708000D03*
D38*
X11514000Y14208000D03*
D37*
X11514000Y14708000D03*
D36*
X10789000Y15433000D03*
X10289000Y15433000D03*
X9789000Y15433000D03*
X9289000Y15433000D03*
D37*
X8564000Y14708000D03*
X8564000Y14208000D03*
X8564000Y13708000D03*
D38*
X8564000Y13208000D03*
D33*
X5776893Y70141213D03*
X5776893Y71841213D03*
D39*
X21250400Y77000000D03*
X16250400Y77000000D03*
D27*
X17950000Y12200000D03*
X19650000Y12200000D03*
X17950000Y10450000D03*
X19650000Y10450000D03*
X13120000Y3810000D03*
X14820000Y3810000D03*
X16598000Y7366000D03*
X14898000Y7366000D03*
X13120000Y5715000D03*
X14820000Y5715000D03*
D33*
X16637000Y2706000D03*
X16637000Y4406000D03*
D40*
X24219000Y58754000D03*
X24219000Y53594000D03*
X26219000Y53594000D03*
X26219000Y58754000D03*
D33*
X6502400Y-9079600D03*
X6502400Y-7379600D03*
X2895600Y-9079600D03*
X2895600Y-7379600D03*
X4724400Y-9079600D03*
X4724400Y-7379600D03*
X1117600Y-9079600D03*
X1117600Y-7379600D03*
X8432800Y-9079600D03*
X8432800Y-7379600D03*
X10414000Y-9079600D03*
X10414000Y-7379600D03*
X4151293Y70154813D03*
X4151293Y71854813D03*
D27*
X1866000Y57667600D03*
X166000Y57667600D03*
X1866000Y61725200D03*
X166000Y61725200D03*
X1866000Y65786000D03*
X166000Y65786000D03*
D41*
X5572800Y58189600D03*
X3672800Y58189600D03*
X4622800Y55889600D03*
X5572800Y62298000D03*
X3672800Y62298000D03*
X4622800Y59998000D03*
X5572800Y66383600D03*
X3672800Y66383600D03*
X4622800Y64083600D03*
D27*
X166000Y55886400D03*
X1866000Y55886400D03*
X166000Y59998000D03*
X1866000Y59998000D03*
X166000Y64065200D03*
X1866000Y64065200D03*
D42*
X18164500Y6987000D03*
X18164500Y6487000D03*
X18164500Y5987000D03*
X18164500Y5487000D03*
X21064500Y5487000D03*
X21064500Y5987000D03*
X21064500Y6487000D03*
X21064500Y6987000D03*
D43*
X20052000Y5874500D03*
X20052000Y6599500D03*
X19177000Y5874500D03*
X19177000Y6599500D03*
M02*
