M48
;DRILL file {KiCad 4.0.6} date 06/09/17 16:23:26
;FORMAT={-:-/ absolute / inch / decimal}
FMAT,2
INCH,TZ
T1C0.012
T2C0.026
T3C0.028
T4C0.039
T5C0.040
T6C0.087
%
G90
G05
M72
T1
X5.0276Y-2.9134
X5.065Y-5.4475
X5.065Y-5.6475
X5.065Y-5.8475
X5.0689Y-2.9134
X5.1Y-3.25
X5.1083Y-2.9035
X5.11Y-3.74
X5.132Y-5.488
X5.134Y-5.528
X5.144Y-2.598
X5.144Y-2.758
X5.1446Y-2.3865
X5.1446Y-2.5473
X5.1446Y-2.7091
X5.146Y-2.434
X5.15Y-3.31
X5.15Y-3.82
X5.1544Y-4.0144
X5.16Y-3.85
X5.16Y-3.93
X5.1693Y-2.9567
X5.1693Y-2.9882
X5.1693Y-3.0217
X5.1693Y-3.0551
X5.17Y-3.66
X5.17Y-3.69
X5.18Y-3.31
X5.19Y-3.88
X5.2Y-3.66
X5.22Y-3.29
X5.23Y-3.66
X5.26Y-3.29
X5.26Y-3.66
X5.29Y-3.63
X5.29Y-5.41
X5.296Y-5.848
X5.3Y-3.29
X5.32Y-5.988
X5.33Y-2.4152
X5.33Y-2.6514
X5.36Y-3.87
X5.377Y-4.432
X5.377Y-4.469
X5.385Y-4.4505
X5.3858Y-4.1969
X5.39Y-3.66
X5.39Y-3.84
X5.4Y-3.87
X5.4055Y-4.45
X5.4135Y-4.469
X5.414Y-4.432
X5.4173Y-4.0787
X5.44Y-3.87
X5.442Y-2.648
X5.4488Y-4.0472
X5.456Y-2.606
X5.46Y-4.52
X5.4604Y-5.4375
X5.4646Y-4.0787
X5.47Y-3.89
X5.475Y-4.15
X5.475Y-4.175
X5.475Y-4.2
X5.484Y-5.82
X5.49Y-3.53
X5.49Y-3.67
X5.49Y-3.7
X5.49Y-4.4
X5.49Y-4.52
X5.49Y-4.56
X5.49Y-5.768
X5.4973Y-5.9925
X5.5Y-4.19
X5.51Y-3.91
X5.51Y-4.49
X5.515Y-4.415
X5.515Y-4.56
X5.5156Y-2.9556
X5.5156Y-2.98
X5.5197Y-3.2397
X5.52Y-4.31
X5.52Y-4.34
X5.52Y-4.52
X5.525Y-4.19
X5.54Y-3.53
X5.54Y-3.91
X5.54Y-4.56
X5.545Y-4.15
X5.545Y-4.175
X5.548Y-5.738
X5.55Y-4.25
X5.55Y-4.28
X5.55Y-4.31
X5.55Y-4.34
X5.55Y-4.49
X5.55Y-4.52
X5.5529Y-5.6533
X5.57Y-2.94
X5.57Y-3.91
X5.58Y-4.25
X5.58Y-4.28
X5.58Y-4.31
X5.58Y-4.34
X5.595Y-4.66
X5.6Y-3.91
X5.627Y-5.4315
X5.6335Y-5.837
X5.6339Y-4.5197
X5.6502Y-5.3424
X5.672Y-5.4317
X5.672Y-5.52
X5.68Y-3.93
X5.69Y-3.24
X5.69Y-4.65
X5.6958Y-4.8842
X5.71Y-3.4
X5.71Y-3.93
X5.72Y-3.27
X5.73Y-5.242
X5.7415Y-4.1268
X5.7415Y-4.1819
X5.7415Y-4.2052
X5.7553Y-4.7371
X5.7553Y-4.7718
X5.76Y-3.24
X5.7638Y-2.937
X5.79Y-3.27
X5.82Y-3.24
X5.8209Y-4.5768
X5.83Y-3.74
X5.83Y-3.79
X5.8465Y-4.6535
X5.85Y-3.5
X5.9075Y-4.9331
X5.9075Y-4.9626
X5.9425Y-5.4117
X5.944Y-5.138
X5.944Y-5.184
X5.9666Y-5.4317
X5.99Y-5.0075
X6.0075Y-4.9825
T2
X5.61Y-2.99
X5.61Y-3.04
X5.66Y-2.99
X5.66Y-3.04
X5.71Y-2.99
X5.71Y-3.04
X5.76Y-2.99
X5.76Y-3.04
X5.81Y-2.99
X5.81Y-3.04
T3
X5.8829Y-5.1161
X5.8829Y-5.3071
T4
X5.042Y-2.198
X5.9488Y-5.537
X5.9488Y-5.637
X5.9488Y-5.737
X5.9488Y-5.837
X5.9488Y-5.937
T5
X5.05Y-3.
X5.05Y-3.1
X5.05Y-3.2
X5.05Y-3.3
X5.05Y-3.4
X5.05Y-3.5
X5.05Y-3.6
X5.05Y-3.7
X5.05Y-3.8
X5.05Y-3.9
X5.05Y-4.
X5.05Y-4.1
X5.05Y-4.2
X5.05Y-4.3
X5.05Y-4.4
X5.05Y-4.5
X5.05Y-4.6
X5.05Y-4.7
X5.05Y-4.8
X5.95Y-3.
X5.95Y-3.1
X5.95Y-3.2
X5.95Y-3.3
X5.95Y-3.4
X5.95Y-3.5
X5.95Y-3.6
X5.95Y-3.7
X5.95Y-3.8
X5.95Y-3.9
X5.95Y-4.
X5.95Y-4.1
X5.95Y-4.2
X5.95Y-4.3
X5.95Y-4.4
X5.95Y-4.5
X5.95Y-4.6
X5.95Y-4.7
X5.95Y-4.8
T6
X5.0551Y-1.9449
X5.0551Y-6.0472
X5.9528Y-1.9449
X5.9528Y-6.0512
T3
X5.9793Y-5.0689G85X5.9951Y-5.0689
G05
X5.9793Y-5.3543G85X5.9951Y-5.3543
G05
T0
M30
