G04 #@! TF.FileFunction,Paste,Bot*
%FSLAX46Y46*%
G04 Gerber Fmt 4.6, Leading zero omitted, Abs format (unit mm)*
G04 Created by KiCad (PCBNEW 4.0.6) date 06/09/17 16:27:28*
%MOMM*%
%LPD*%
G01*
G04 APERTURE LIST*
%ADD10C,0.100000*%
%ADD11R,1.170000X1.800000*%
%ADD12R,1.143000X3.780000*%
%ADD13R,1.799082X0.900684*%
%ADD14R,1.710000X0.720000*%
%ADD15R,0.720000X1.710000*%
G04 APERTURE END LIST*
D10*
D11*
X19700000Y31370000D03*
X17700000Y31370000D03*
X15700000Y31370000D03*
X13700000Y31370000D03*
X11700000Y31370000D03*
X9700000Y31370000D03*
X7700000Y31370000D03*
X5700000Y31370000D03*
X5700000Y47370000D03*
X7700000Y47370000D03*
X9700000Y47370000D03*
X11700000Y47370000D03*
X13700000Y47370000D03*
X15700000Y47370000D03*
X17700000Y47370000D03*
X19700000Y47370000D03*
D12*
X18750400Y77000000D03*
X16250400Y77000000D03*
X21250400Y77000000D03*
D13*
X8382000Y59654440D03*
X8382000Y61153040D03*
X8382000Y62654180D03*
X8382000Y64152780D03*
X8382000Y65653920D03*
X8382000Y67152520D03*
X8382000Y68653660D03*
X8382000Y70152260D03*
X8382000Y71653400D03*
X8382000Y73152000D03*
X24384000Y73152000D03*
X24384000Y71653400D03*
X24384000Y70152260D03*
X24384000Y68653660D03*
X24384000Y67152520D03*
X24384000Y65653920D03*
X24384000Y64152780D03*
X24384000Y62654180D03*
X24384000Y61153040D03*
X24384000Y59654440D03*
D14*
X1651000Y-18478501D03*
X1651000Y-17462501D03*
X1651000Y-16446500D03*
X1651000Y-15430500D03*
X1651000Y-14414501D03*
X1651000Y-13398501D03*
X1651000Y-12382501D03*
X1651000Y-11366501D03*
X1651000Y-21526501D03*
D15*
X7370450Y-8696101D03*
X6354450Y-8696101D03*
X5338450Y-8696101D03*
X4322450Y-8696101D03*
X11434450Y-8696101D03*
X13466453Y-8696101D03*
X14482450Y-8696101D03*
X15498450Y-8696101D03*
X16514450Y-8696101D03*
X5330230Y-23426371D03*
X6346230Y-23426371D03*
X7362230Y-23426371D03*
X8378230Y-23426371D03*
X9394230Y-23426371D03*
X10410230Y-23426371D03*
X11426230Y-23426371D03*
X12442234Y-23426371D03*
X13458234Y-23426371D03*
X14474230Y-23426371D03*
D12*
X6858000Y77012800D03*
X4358000Y77012800D03*
X9358000Y77012800D03*
M02*
