G04 #@! TF.GenerationSoftware,KiCad,Pcbnew,(5.0.1-3-g963ef8bb5)*
G04 #@! TF.CreationDate,2019-02-11T18:03:15-05:00*
G04 #@! TF.ProjectId,fk-core-v0.15-01x04,666B2D636F72652D76302E31352D3031,0.1*
G04 #@! TF.SameCoordinates,PX791ddc0PY791ddc0*
G04 #@! TF.FileFunction,Copper,L4,Bot,Signal*
G04 #@! TF.FilePolarity,Positive*
%FSLAX46Y46*%
G04 Gerber Fmt 4.6, Leading zero omitted, Abs format (unit mm)*
G04 Created by KiCad (PCBNEW (5.0.1-3-g963ef8bb5)) date Monday, February 11, 2019 at 06:03:15 PM*
%MOMM*%
%LPD*%
G01*
G04 APERTURE LIST*
G04 #@! TA.AperFunction,NonConductor*
%ADD10C,0.300000*%
G04 #@! TD*
G04 #@! TA.AperFunction,BGAPad,CuDef*
%ADD11C,2.000000*%
G04 #@! TD*
G04 #@! TA.AperFunction,SMDPad,CuDef*
%ADD12R,1.399540X1.899920*%
G04 #@! TD*
G04 #@! TA.AperFunction,SMDPad,CuDef*
%ADD13R,1.798320X1.399540*%
G04 #@! TD*
G04 #@! TA.AperFunction,SMDPad,CuDef*
%ADD14R,0.698500X1.498600*%
G04 #@! TD*
G04 #@! TA.AperFunction,SMDPad,CuDef*
%ADD15R,1.168400X1.600200*%
G04 #@! TD*
G04 #@! TA.AperFunction,SMDPad,CuDef*
%ADD16R,1.100000X1.000000*%
G04 #@! TD*
G04 #@! TA.AperFunction,BGAPad,CuDef*
%ADD17C,1.000000*%
G04 #@! TD*
G04 #@! TA.AperFunction,SMDPad,CuDef*
%ADD18R,2.500000X2.000000*%
G04 #@! TD*
G04 #@! TA.AperFunction,SMDPad,CuDef*
%ADD19R,1.200000X0.800000*%
G04 #@! TD*
G04 #@! TA.AperFunction,SMDPad,CuDef*
%ADD20R,2.200000X0.800000*%
G04 #@! TD*
G04 #@! TA.AperFunction,SMDPad,CuDef*
%ADD21R,2.000000X1.300000*%
G04 #@! TD*
G04 #@! TA.AperFunction,SMDPad,CuDef*
%ADD22R,1.600000X1.400000*%
G04 #@! TD*
G04 #@! TA.AperFunction,SMDPad,CuDef*
%ADD23R,0.400000X1.350000*%
G04 #@! TD*
G04 #@! TA.AperFunction,ComponentPad*
%ADD24O,1.651000X1.600000*%
G04 #@! TD*
G04 #@! TA.AperFunction,SMDPad,CuDef*
%ADD25R,1.900000X1.400000*%
G04 #@! TD*
G04 #@! TA.AperFunction,SMDPad,CuDef*
%ADD26R,0.400000X1.900000*%
G04 #@! TD*
G04 #@! TA.AperFunction,SMDPad,CuDef*
%ADD27R,1.900000X0.400000*%
G04 #@! TD*
G04 #@! TA.AperFunction,SMDPad,CuDef*
%ADD28R,4.500000X2.300000*%
G04 #@! TD*
G04 #@! TA.AperFunction,SMDPad,CuDef*
%ADD29R,1.600200X1.168400*%
G04 #@! TD*
G04 #@! TA.AperFunction,SMDPad,CuDef*
%ADD30R,1.998980X1.000760*%
G04 #@! TD*
G04 #@! TA.AperFunction,SMDPad,CuDef*
%ADD31R,1.000000X1.100000*%
G04 #@! TD*
G04 #@! TA.AperFunction,ComponentPad*
%ADD32R,1.700000X1.700000*%
G04 #@! TD*
G04 #@! TA.AperFunction,ComponentPad*
%ADD33O,2.200000X1.100000*%
G04 #@! TD*
G04 #@! TA.AperFunction,ComponentPad*
%ADD34O,1.800000X1.100000*%
G04 #@! TD*
G04 #@! TA.AperFunction,ViaPad*
%ADD35C,0.500000*%
G04 #@! TD*
G04 #@! TA.AperFunction,Conductor*
%ADD36C,0.508000*%
G04 #@! TD*
G04 #@! TA.AperFunction,Conductor*
%ADD37C,0.203200*%
G04 #@! TD*
G04 #@! TA.AperFunction,Conductor*
%ADD38C,0.762000*%
G04 #@! TD*
G04 #@! TA.AperFunction,Conductor*
%ADD39C,0.381000*%
G04 #@! TD*
G04 #@! TA.AperFunction,Conductor*
%ADD40C,0.254000*%
G04 #@! TD*
G04 #@! TA.AperFunction,Conductor*
%ADD41C,0.152400*%
G04 #@! TD*
G04 APERTURE END LIST*
D10*
X35318542Y-4660828D02*
X35247114Y-4446542D01*
X35175685Y-4375114D01*
X35032828Y-4303685D01*
X34818542Y-4303685D01*
X34675685Y-4375114D01*
X34604257Y-4446542D01*
X34532828Y-4589400D01*
X34532828Y-5160828D01*
X36032828Y-5160828D01*
X36032828Y-4660828D01*
X35961400Y-4517971D01*
X35889971Y-4446542D01*
X35747114Y-4375114D01*
X35604257Y-4375114D01*
X35461400Y-4446542D01*
X35389971Y-4517971D01*
X35318542Y-4660828D01*
X35318542Y-5160828D01*
X34532828Y-3017971D02*
X35318542Y-3017971D01*
X35461400Y-3089400D01*
X35532828Y-3232257D01*
X35532828Y-3517971D01*
X35461400Y-3660828D01*
X34604257Y-3017971D02*
X34532828Y-3160828D01*
X34532828Y-3517971D01*
X34604257Y-3660828D01*
X34747114Y-3732257D01*
X34889971Y-3732257D01*
X35032828Y-3660828D01*
X35104257Y-3517971D01*
X35104257Y-3160828D01*
X35175685Y-3017971D01*
X35532828Y-2517971D02*
X35532828Y-1946542D01*
X36032828Y-2303685D02*
X34747114Y-2303685D01*
X34604257Y-2232257D01*
X34532828Y-2089400D01*
X34532828Y-1946542D01*
X34604257Y-803685D02*
X34532828Y-946542D01*
X34532828Y-1232257D01*
X34604257Y-1375114D01*
X34675685Y-1446542D01*
X34818542Y-1517971D01*
X35247114Y-1517971D01*
X35389971Y-1446542D01*
X35461400Y-1375114D01*
X35532828Y-1232257D01*
X35532828Y-946542D01*
X35461400Y-803685D01*
X34532828Y-160828D02*
X36032828Y-160828D01*
X34532828Y482029D02*
X35318542Y482029D01*
X35461400Y410600D01*
X35532828Y267743D01*
X35532828Y53458D01*
X35461400Y-89400D01*
X35389971Y-160828D01*
X34532828Y3124886D02*
X34532828Y2267743D01*
X34532828Y2696315D02*
X36032828Y2696315D01*
X35818542Y2553458D01*
X35675685Y2410600D01*
X35604257Y2267743D01*
X35104257Y4910600D02*
X35104257Y6053458D01*
X34532828Y7910600D02*
X36032828Y7910600D01*
X36032828Y8267743D01*
X35961400Y8482029D01*
X35818542Y8624886D01*
X35675685Y8696315D01*
X35389971Y8767743D01*
X35175685Y8767743D01*
X34889971Y8696315D01*
X34747114Y8624886D01*
X34604257Y8482029D01*
X34532828Y8267743D01*
X34532828Y7910600D01*
X34604257Y9982029D02*
X34532828Y9839172D01*
X34532828Y9553458D01*
X34604257Y9410600D01*
X34747114Y9339172D01*
X35318542Y9339172D01*
X35461400Y9410600D01*
X35532828Y9553458D01*
X35532828Y9839172D01*
X35461400Y9982029D01*
X35318542Y10053458D01*
X35175685Y10053458D01*
X35032828Y9339172D01*
X34604257Y11339172D02*
X34532828Y11196315D01*
X34532828Y10910600D01*
X34604257Y10767743D01*
X34675685Y10696315D01*
X34818542Y10624886D01*
X35247114Y10624886D01*
X35389971Y10696315D01*
X35461400Y10767743D01*
X35532828Y10910600D01*
X35532828Y11196315D01*
X35461400Y11339172D01*
X34604257Y12553458D02*
X34532828Y12410600D01*
X34532828Y12124886D01*
X34604257Y11982029D01*
X34747114Y11910600D01*
X35318542Y11910600D01*
X35461400Y11982029D01*
X35532828Y12124886D01*
X35532828Y12410600D01*
X35461400Y12553458D01*
X35318542Y12624886D01*
X35175685Y12624886D01*
X35032828Y11910600D01*
X34532828Y13267743D02*
X35532828Y13267743D01*
X35389971Y13267743D02*
X35461400Y13339172D01*
X35532828Y13482029D01*
X35532828Y13696315D01*
X35461400Y13839172D01*
X35318542Y13910600D01*
X34532828Y13910600D01*
X35318542Y13910600D02*
X35461400Y13982029D01*
X35532828Y14124886D01*
X35532828Y14339172D01*
X35461400Y14482029D01*
X35318542Y14553458D01*
X34532828Y14553458D01*
X34532828Y15267743D02*
X36032828Y15267743D01*
X35461400Y15267743D02*
X35532828Y15410600D01*
X35532828Y15696315D01*
X35461400Y15839172D01*
X35389971Y15910600D01*
X35247114Y15982029D01*
X34818542Y15982029D01*
X34675685Y15910600D01*
X34604257Y15839172D01*
X34532828Y15696315D01*
X34532828Y15410600D01*
X34604257Y15267743D01*
X34604257Y17196315D02*
X34532828Y17053458D01*
X34532828Y16767743D01*
X34604257Y16624886D01*
X34747114Y16553458D01*
X35318542Y16553458D01*
X35461400Y16624886D01*
X35532828Y16767743D01*
X35532828Y17053458D01*
X35461400Y17196315D01*
X35318542Y17267743D01*
X35175685Y17267743D01*
X35032828Y16553458D01*
X34532828Y17910600D02*
X35532828Y17910600D01*
X35247114Y17910600D02*
X35389971Y17982029D01*
X35461400Y18053458D01*
X35532828Y18196315D01*
X35532828Y18339172D01*
X35889971Y19910600D02*
X35961400Y19982029D01*
X36032828Y20124886D01*
X36032828Y20482029D01*
X35961400Y20624886D01*
X35889971Y20696315D01*
X35747114Y20767743D01*
X35604257Y20767743D01*
X35389971Y20696315D01*
X34532828Y19839172D01*
X34532828Y20767743D01*
X36032828Y21696315D02*
X36032828Y21839172D01*
X35961400Y21982029D01*
X35889971Y22053458D01*
X35747114Y22124886D01*
X35461400Y22196315D01*
X35104257Y22196315D01*
X34818542Y22124886D01*
X34675685Y22053458D01*
X34604257Y21982029D01*
X34532828Y21839172D01*
X34532828Y21696315D01*
X34604257Y21553458D01*
X34675685Y21482029D01*
X34818542Y21410600D01*
X35104257Y21339172D01*
X35461400Y21339172D01*
X35747114Y21410600D01*
X35889971Y21482029D01*
X35961400Y21553458D01*
X36032828Y21696315D01*
X34532828Y23624886D02*
X34532828Y22767743D01*
X34532828Y23196315D02*
X36032828Y23196315D01*
X35818542Y23053458D01*
X35675685Y22910600D01*
X35604257Y22767743D01*
X35389971Y24482029D02*
X35461400Y24339172D01*
X35532828Y24267743D01*
X35675685Y24196315D01*
X35747114Y24196315D01*
X35889971Y24267743D01*
X35961400Y24339172D01*
X36032828Y24482029D01*
X36032828Y24767743D01*
X35961400Y24910600D01*
X35889971Y24982029D01*
X35747114Y25053458D01*
X35675685Y25053458D01*
X35532828Y24982029D01*
X35461400Y24910600D01*
X35389971Y24767743D01*
X35389971Y24482029D01*
X35318542Y24339172D01*
X35247114Y24267743D01*
X35104257Y24196315D01*
X34818542Y24196315D01*
X34675685Y24267743D01*
X34604257Y24339172D01*
X34532828Y24482029D01*
X34532828Y24767743D01*
X34604257Y24910600D01*
X34675685Y24982029D01*
X34818542Y25053458D01*
X35104257Y25053458D01*
X35247114Y24982029D01*
X35318542Y24910600D01*
X35389971Y24767743D01*
X-79610029Y17803458D02*
X-79610029Y17232029D01*
X-78610029Y17589172D02*
X-79895743Y17589172D01*
X-80038600Y17517743D01*
X-80110029Y17374886D01*
X-80110029Y17232029D01*
X-78610029Y16732029D02*
X-80110029Y16732029D01*
X-79181458Y16589172D02*
X-78610029Y16160600D01*
X-79610029Y16160600D02*
X-79038600Y16732029D01*
X-79181458Y15517743D02*
X-79181458Y14374886D01*
X-78681458Y13017743D02*
X-78610029Y13160600D01*
X-78610029Y13446315D01*
X-78681458Y13589172D01*
X-78752886Y13660600D01*
X-78895743Y13732029D01*
X-79324315Y13732029D01*
X-79467172Y13660600D01*
X-79538600Y13589172D01*
X-79610029Y13446315D01*
X-79610029Y13160600D01*
X-79538600Y13017743D01*
X-78610029Y12160600D02*
X-78681458Y12303458D01*
X-78752886Y12374886D01*
X-78895743Y12446315D01*
X-79324315Y12446315D01*
X-79467172Y12374886D01*
X-79538600Y12303458D01*
X-79610029Y12160600D01*
X-79610029Y11946315D01*
X-79538600Y11803458D01*
X-79467172Y11732029D01*
X-79324315Y11660600D01*
X-78895743Y11660600D01*
X-78752886Y11732029D01*
X-78681458Y11803458D01*
X-78610029Y11946315D01*
X-78610029Y12160600D01*
X-78610029Y11017743D02*
X-79610029Y11017743D01*
X-79324315Y11017743D02*
X-79467172Y10946315D01*
X-79538600Y10874886D01*
X-79610029Y10732029D01*
X-79610029Y10589172D01*
X-78681458Y9517743D02*
X-78610029Y9660600D01*
X-78610029Y9946315D01*
X-78681458Y10089172D01*
X-78824315Y10160600D01*
X-79395743Y10160600D01*
X-79538600Y10089172D01*
X-79610029Y9946315D01*
X-79610029Y9660600D01*
X-79538600Y9517743D01*
X-79395743Y9446315D01*
X-79252886Y9446315D01*
X-79110029Y10160600D01*
X-79610029Y7803458D02*
X-78610029Y7446315D01*
X-79610029Y7089172D01*
X-80110029Y6232029D02*
X-80110029Y6089172D01*
X-80038600Y5946315D01*
X-79967172Y5874886D01*
X-79824315Y5803458D01*
X-79538600Y5732029D01*
X-79181458Y5732029D01*
X-78895743Y5803458D01*
X-78752886Y5874886D01*
X-78681458Y5946315D01*
X-78610029Y6089172D01*
X-78610029Y6232029D01*
X-78681458Y6374886D01*
X-78752886Y6446315D01*
X-78895743Y6517743D01*
X-79181458Y6589172D01*
X-79538600Y6589172D01*
X-79824315Y6517743D01*
X-79967172Y6446315D01*
X-80038600Y6374886D01*
X-80110029Y6232029D01*
X-78752886Y5089172D02*
X-78681458Y5017743D01*
X-78610029Y5089172D01*
X-78681458Y5160600D01*
X-78752886Y5089172D01*
X-78610029Y5089172D01*
X-78610029Y3589172D02*
X-78610029Y4446315D01*
X-78610029Y4017743D02*
X-80110029Y4017743D01*
X-79895743Y4160600D01*
X-79752886Y4303458D01*
X-79681458Y4446315D01*
X-80110029Y2232029D02*
X-80110029Y2946315D01*
X-79395743Y3017743D01*
X-79467172Y2946315D01*
X-79538600Y2803458D01*
X-79538600Y2446315D01*
X-79467172Y2303458D01*
X-79395743Y2232029D01*
X-79252886Y2160600D01*
X-78895743Y2160600D01*
X-78752886Y2232029D01*
X-78681458Y2303458D01*
X-78610029Y2446315D01*
X-78610029Y2803458D01*
X-78681458Y2946315D01*
X-78752886Y3017743D01*
D11*
G04 #@! TO.P,J18,1*
G04 #@! TO.N,/SWDIO*
X-19659600Y-43318800D03*
G04 #@! TD*
G04 #@! TO.P,J19,1*
G04 #@! TO.N,/SWCLK*
X-23749000Y-43268000D03*
G04 #@! TD*
D12*
G04 #@! TO.P,M7,MT2*
G04 #@! TO.N,GND*
X-48854360Y-68071100D03*
G04 #@! TO.P,M7,MT1*
X-35653980Y-67169400D03*
D13*
G04 #@! TO.P,M7,CD2*
G04 #@! TO.N,Net-(M7-PadCD2)*
X-43253660Y-54070620D03*
G04 #@! TO.P,M7,CD1*
G04 #@! TO.N,Net-(M7-PadCD1)*
X-37254180Y-54070620D03*
D14*
G04 #@! TO.P,M7,8*
G04 #@! TO.N,Net-(M7-Pad8)*
X-36553140Y-64268720D03*
G04 #@! TO.P,M7,7*
G04 #@! TO.N,/MISO*
X-37652960Y-64268720D03*
G04 #@! TO.P,M7,6*
G04 #@! TO.N,GND*
X-38752780Y-64670040D03*
G04 #@! TO.P,M7,5*
G04 #@! TO.N,/SCK*
X-39855140Y-64268720D03*
G04 #@! TO.P,M7,4*
G04 #@! TO.N,/PERIPH_3V3*
X-40954960Y-64670040D03*
G04 #@! TO.P,M7,3*
G04 #@! TO.N,/MOSI*
X-42054780Y-64268720D03*
G04 #@! TO.P,M7,2*
G04 #@! TO.N,/D12_SD_CS*
X-43154600Y-63869940D03*
G04 #@! TO.P,M7,1*
G04 #@! TO.N,Net-(M7-Pad1)*
X-44254420Y-64268720D03*
G04 #@! TD*
D15*
G04 #@! TO.P,J14,2*
G04 #@! TO.N,3V3*
X-35610800Y-43928400D03*
G04 #@! TO.P,J14,1*
G04 #@! TO.N,/MODULE_3V3*
X-37134800Y-43928400D03*
G04 #@! TD*
D16*
G04 #@! TO.P,R30,2*
G04 #@! TO.N,/USB_ID*
X-9982200Y-36587800D03*
G04 #@! TO.P,R30,1*
G04 #@! TO.N,Net-(J16-Pad4)*
X-11682200Y-36587800D03*
G04 #@! TD*
D17*
G04 #@! TO.P,M11,~*
G04 #@! TO.N,Net-(M11-Pad~)*
X16052800Y-64045200D03*
G04 #@! TD*
D16*
G04 #@! TO.P,R23,2*
G04 #@! TO.N,3V3*
X-9970400Y-35063800D03*
G04 #@! TO.P,R23,1*
G04 #@! TO.N,Net-(J16-Pad4)*
X-11670400Y-35063800D03*
G04 #@! TD*
D17*
G04 #@! TO.P,M9,~*
G04 #@! TO.N,Net-(M9-Pad~)*
X19862800Y-33565200D03*
G04 #@! TD*
D18*
G04 #@! TO.P,U14,2*
G04 #@! TO.N,VBUS*
X-46972400Y-42709200D03*
D19*
G04 #@! TO.P,U14,3*
G04 #@! TO.N,3V3*
X-44122400Y-44209200D03*
D20*
G04 #@! TO.P,U14,2*
G04 #@! TO.N,VBUS*
X-44622400Y-42709200D03*
D19*
G04 #@! TO.P,U14,1*
G04 #@! TO.N,GND*
X-44122400Y-41209200D03*
G04 #@! TD*
D15*
G04 #@! TO.P,J2,2*
G04 #@! TO.N,/PERIPH_3V3*
X-35382200Y-52488200D03*
G04 #@! TO.P,J2,1*
G04 #@! TO.N,3V3*
X-33858200Y-52488200D03*
G04 #@! TD*
D17*
G04 #@! TO.P,M10,~*
G04 #@! TO.N,Net-(M10-Pad~)*
X-65227200Y-67855200D03*
G04 #@! TD*
D21*
G04 #@! TO.P,U3,16*
G04 #@! TO.N,/LORA_D2*
X-4141200Y-68171200D03*
G04 #@! TO.P,U3,15*
G04 #@! TO.N,/LORA_D1*
X-4141200Y-66171200D03*
G04 #@! TO.P,U3,14*
G04 #@! TO.N,/LORA_D0*
X-4141200Y-64171200D03*
G04 #@! TO.P,U3,13*
G04 #@! TO.N,/PERIPH_3V3*
X-4141200Y-62171200D03*
G04 #@! TO.P,U3,12*
G04 #@! TO.N,Net-(U3-Pad12)*
X-4141200Y-60171200D03*
G04 #@! TO.P,U3,11*
G04 #@! TO.N,Net-(U3-Pad11)*
X-4141200Y-58171200D03*
G04 #@! TO.P,U3,10*
G04 #@! TO.N,GND*
X-4141200Y-56171200D03*
G04 #@! TO.P,U3,9*
G04 #@! TO.N,Net-(J15-Pad1)*
X-4141200Y-54171200D03*
G04 #@! TO.P,U3,8*
G04 #@! TO.N,GND*
X-20141200Y-54171200D03*
G04 #@! TO.P,U3,7*
G04 #@! TO.N,Net-(U3-Pad7)*
X-20141200Y-56171200D03*
G04 #@! TO.P,U3,6*
G04 #@! TO.N,Net-(U3-Pad6)*
X-20141200Y-58171200D03*
G04 #@! TO.P,U3,5*
G04 #@! TO.N,/D5_RADIO_CS*
X-20141200Y-60171200D03*
G04 #@! TO.P,U3,4*
G04 #@! TO.N,/SCK*
X-20141200Y-62171200D03*
G04 #@! TO.P,U3,3*
G04 #@! TO.N,/MOSI*
X-20141200Y-64171200D03*
G04 #@! TO.P,U3,2*
G04 #@! TO.N,/MISO*
X-20141200Y-66171200D03*
G04 #@! TO.P,U3,1*
G04 #@! TO.N,GND*
X-20141200Y-68171200D03*
G04 #@! TD*
D22*
G04 #@! TO.P,J9,6*
G04 #@! TO.N,Net-(C14-Pad1)*
X-19816200Y-35566200D03*
D23*
G04 #@! TO.P,J9,5*
G04 #@! TO.N,GND*
X-15316200Y-36486200D03*
G04 #@! TO.P,J9,4*
G04 #@! TO.N,Net-(J16-Pad4)*
X-15966200Y-36486200D03*
G04 #@! TO.P,J9,1*
G04 #@! TO.N,VUSB*
X-17916200Y-36486200D03*
G04 #@! TO.P,J9,2*
G04 #@! TO.N,/USB-*
X-17266200Y-36486200D03*
D24*
G04 #@! TO.P,J9,*
G04 #@! TO.N,*
X-13316200Y-33816200D03*
D25*
G04 #@! TO.P,J9,8*
G04 #@! TO.N,Net-(J9-Pad8)*
X-17816200Y-33566200D03*
D24*
G04 #@! TO.P,J9,*
G04 #@! TO.N,*
X-19916200Y-33816200D03*
D25*
G04 #@! TO.P,J9,9*
G04 #@! TO.N,Net-(J9-Pad9)*
X-15416200Y-33566200D03*
D23*
G04 #@! TO.P,J9,3*
G04 #@! TO.N,/USB+*
X-16616200Y-36486200D03*
D22*
G04 #@! TO.P,J9,7*
G04 #@! TO.N,Net-(J9-Pad7)*
X-13416200Y-35566200D03*
G04 #@! TD*
D26*
G04 #@! TO.P,U1,10*
G04 #@! TO.N,/PERIPH_3V3*
X-64395530Y-50587060D03*
G04 #@! TO.P,U1,11*
G04 #@! TO.N,/D8_WIFI_WAKE*
X-63379534Y-50587060D03*
G04 #@! TO.P,U1,12*
G04 #@! TO.N,GND*
X-62363534Y-50587060D03*
G04 #@! TO.P,U1,13*
G04 #@! TO.N,/A2_WIFI_IRQ*
X-61347530Y-50587060D03*
G04 #@! TO.P,U1,14*
G04 #@! TO.N,Net-(U1-Pad14)*
X-60331530Y-50587060D03*
G04 #@! TO.P,U1,15*
G04 #@! TO.N,/MOSI*
X-59315530Y-50587060D03*
G04 #@! TO.P,U1,16*
G04 #@! TO.N,/D7_WIFI_CS*
X-58299530Y-50587060D03*
G04 #@! TO.P,U1,17*
G04 #@! TO.N,/MISO*
X-57283530Y-50587060D03*
G04 #@! TO.P,U1,18*
G04 #@! TO.N,/SCK*
X-56267530Y-50587060D03*
G04 #@! TO.P,U1,19*
G04 #@! TO.N,Net-(U1-Pad19)*
X-55251530Y-50587060D03*
G04 #@! TO.P,U1,9*
G04 #@! TO.N,GND*
X-66435750Y-65317330D03*
G04 #@! TO.P,U1,8*
G04 #@! TO.N,N/C*
X-65419750Y-65317330D03*
G04 #@! TO.P,U1,7*
X-64403750Y-65317330D03*
G04 #@! TO.P,U1,6*
X-63387753Y-65317330D03*
G04 #@! TO.P,U1,5*
X-61355750Y-65317330D03*
G04 #@! TO.P,U1,1*
G04 #@! TO.N,Net-(U1-Pad1)*
X-54243750Y-65317330D03*
G04 #@! TO.P,U1,2*
G04 #@! TO.N,Net-(U1-Pad2)*
X-55259750Y-65317330D03*
G04 #@! TO.P,U1,3*
G04 #@! TO.N,Net-(U1-Pad3)*
X-56275750Y-65317330D03*
G04 #@! TO.P,U1,4*
G04 #@! TO.N,/A1_WIFI_RST*
X-57291750Y-65317330D03*
D27*
G04 #@! TO.P,U1,20*
G04 #@! TO.N,/PERIPH_3V3*
X-51572300Y-52486930D03*
G04 #@! TO.P,U1,28*
G04 #@! TO.N,GND*
X-51572300Y-62646930D03*
G04 #@! TO.P,U1,27*
G04 #@! TO.N,Net-(R5-Pad1)*
X-51572300Y-61630930D03*
G04 #@! TO.P,U1,26*
G04 #@! TO.N,Net-(R4-Pad1)*
X-51572300Y-60614930D03*
G04 #@! TO.P,U1,25*
G04 #@! TO.N,N/C*
X-51572300Y-59598930D03*
G04 #@! TO.P,U1,24*
G04 #@! TO.N,Net-(U1-Pad24)*
X-51572300Y-58582931D03*
G04 #@! TO.P,U1,23*
G04 #@! TO.N,/PERIPH_3V3*
X-51572300Y-57566931D03*
G04 #@! TO.P,U1,22*
G04 #@! TO.N,/D2_WIFI_EN*
X-51572300Y-56550930D03*
G04 #@! TO.P,U1,21*
G04 #@! TO.N,Net-(U1-Pad21)*
X-51572300Y-55534930D03*
G04 #@! TD*
D28*
G04 #@! TO.P,BT1,2*
G04 #@! TO.N,GND*
X-13453600Y-42556800D03*
G04 #@! TO.P,BT1,1*
G04 #@! TO.N,/BAT_BACKUP*
X2946400Y-42556800D03*
G04 #@! TD*
D29*
G04 #@! TO.P,J12,2*
G04 #@! TO.N,/GPS_3V3*
X26720800Y-59600200D03*
G04 #@! TO.P,J12,1*
G04 #@! TO.N,3V3*
X26720800Y-61124200D03*
G04 #@! TD*
D30*
G04 #@! TO.P,U10,20*
G04 #@! TO.N,Net-(U10-Pad20)*
X26644600Y-55096780D03*
G04 #@! TO.P,U10,19*
G04 #@! TO.N,GND*
X26644600Y-53598180D03*
G04 #@! TO.P,U10,18*
G04 #@! TO.N,Net-(U10-Pad18)*
X26644600Y-52097040D03*
G04 #@! TO.P,U10,17*
G04 #@! TO.N,Net-(U10-Pad17)*
X26644600Y-50598440D03*
G04 #@! TO.P,U10,16*
G04 #@! TO.N,Net-(U10-Pad16)*
X26644600Y-49097300D03*
G04 #@! TO.P,U10,15*
G04 #@! TO.N,Net-(U10-Pad15)*
X26644600Y-47598700D03*
G04 #@! TO.P,U10,14*
G04 #@! TO.N,Net-(U10-Pad14)*
X26644600Y-46097560D03*
G04 #@! TO.P,U10,13*
G04 #@! TO.N,Net-(U10-Pad13)*
X26644600Y-44598960D03*
G04 #@! TO.P,U10,12*
G04 #@! TO.N,GND*
X26644600Y-43097820D03*
G04 #@! TO.P,U10,11*
G04 #@! TO.N,Net-(J11-Pad1)*
X26644600Y-41599220D03*
G04 #@! TO.P,U10,10*
G04 #@! TO.N,/GPS_RX*
X10642600Y-41599220D03*
G04 #@! TO.P,U10,9*
G04 #@! TO.N,/GPS_TX*
X10642600Y-43097820D03*
G04 #@! TO.P,U10,8*
G04 #@! TO.N,GND*
X10642600Y-44598960D03*
G04 #@! TO.P,U10,7*
G04 #@! TO.N,Net-(U10-Pad7)*
X10642600Y-46097560D03*
G04 #@! TO.P,U10,6*
G04 #@! TO.N,Net-(U10-Pad6)*
X10642600Y-47598700D03*
G04 #@! TO.P,U10,5*
G04 #@! TO.N,/GPS_FIX*
X10642600Y-49097300D03*
G04 #@! TO.P,U10,4*
G04 #@! TO.N,/BAT_BACKUP*
X10642600Y-50598440D03*
G04 #@! TO.P,U10,3*
G04 #@! TO.N,GND*
X10642600Y-52097040D03*
G04 #@! TO.P,U10,2*
G04 #@! TO.N,Net-(U10-Pad2)*
X10642600Y-53598180D03*
G04 #@! TO.P,U10,1*
G04 #@! TO.N,/GPS_PWR_FILT*
X10642600Y-55096780D03*
G04 #@! TD*
D16*
G04 #@! TO.P,R31,2*
G04 #@! TO.N,GND*
X-24116476Y-35971505D03*
G04 #@! TO.P,R31,1*
G04 #@! TO.N,Net-(C14-Pad1)*
X-22416476Y-35971505D03*
G04 #@! TD*
D31*
G04 #@! TO.P,R26,1*
G04 #@! TO.N,/SDA2*
X-31369000Y-37234600D03*
G04 #@! TO.P,R26,2*
G04 #@! TO.N,/SDA1*
X-31369000Y-35534600D03*
G04 #@! TD*
D15*
G04 #@! TO.P,J1,2*
G04 #@! TO.N,3V3*
X6654800Y-48678200D03*
G04 #@! TO.P,J1,1*
G04 #@! TO.N,/GPS_3V3*
X8178800Y-48678200D03*
G04 #@! TD*
D31*
G04 #@! TO.P,R27,1*
G04 #@! TO.N,/SCL2*
X-29845000Y-37209200D03*
G04 #@! TO.P,R27,2*
G04 #@! TO.N,/SCL1*
X-29845000Y-35509200D03*
G04 #@! TD*
D32*
G04 #@! TO.P,J4,1*
G04 #@! TO.N,Net-(J15-Pad1)*
X-5156200Y-51980200D03*
G04 #@! TD*
D33*
G04 #@! TO.P,J16,8*
G04 #@! TO.N,Net-(J16-Pad8)*
X-16586200Y-35098200D03*
D34*
G04 #@! TO.P,J16,7*
G04 #@! TO.N,Net-(C14-Pad1)*
X-19386200Y-37248200D03*
G04 #@! TO.P,J16,6*
G04 #@! TO.N,Net-(J16-Pad6)*
X-13786200Y-37248200D03*
G04 #@! TD*
D16*
G04 #@! TO.P,C14,1*
G04 #@! TO.N,Net-(C14-Pad1)*
X-22416476Y-37622505D03*
G04 #@! TO.P,C14,2*
G04 #@! TO.N,GND*
X-24116476Y-37622505D03*
G04 #@! TD*
D11*
G04 #@! TO.P,J19,1*
G04 #@! TO.N,/SWCLK*
X-23749000Y-2768000D03*
G04 #@! TD*
D14*
G04 #@! TO.P,M7,1*
G04 #@! TO.N,Net-(M7-Pad1)*
X-44254420Y-23768720D03*
G04 #@! TO.P,M7,2*
G04 #@! TO.N,/D12_SD_CS*
X-43154600Y-23369940D03*
G04 #@! TO.P,M7,3*
G04 #@! TO.N,/MOSI*
X-42054780Y-23768720D03*
G04 #@! TO.P,M7,4*
G04 #@! TO.N,/PERIPH_3V3*
X-40954960Y-24170040D03*
G04 #@! TO.P,M7,5*
G04 #@! TO.N,/SCK*
X-39855140Y-23768720D03*
G04 #@! TO.P,M7,6*
G04 #@! TO.N,GND*
X-38752780Y-24170040D03*
G04 #@! TO.P,M7,7*
G04 #@! TO.N,/MISO*
X-37652960Y-23768720D03*
G04 #@! TO.P,M7,8*
G04 #@! TO.N,Net-(M7-Pad8)*
X-36553140Y-23768720D03*
D13*
G04 #@! TO.P,M7,CD1*
G04 #@! TO.N,Net-(M7-PadCD1)*
X-37254180Y-13570620D03*
G04 #@! TO.P,M7,CD2*
G04 #@! TO.N,Net-(M7-PadCD2)*
X-43253660Y-13570620D03*
D12*
G04 #@! TO.P,M7,MT1*
G04 #@! TO.N,GND*
X-35653980Y-26669400D03*
G04 #@! TO.P,M7,MT2*
X-48854360Y-27571100D03*
G04 #@! TD*
D11*
G04 #@! TO.P,J18,1*
G04 #@! TO.N,/SWDIO*
X-19659600Y-2818800D03*
G04 #@! TD*
D22*
G04 #@! TO.P,J9,7*
G04 #@! TO.N,Net-(J9-Pad7)*
X-13416200Y4933800D03*
D23*
G04 #@! TO.P,J9,3*
G04 #@! TO.N,/USB+*
X-16616200Y4013800D03*
D25*
G04 #@! TO.P,J9,9*
G04 #@! TO.N,Net-(J9-Pad9)*
X-15416200Y6933800D03*
D24*
G04 #@! TO.P,J9,*
G04 #@! TO.N,*
X-19916200Y6683800D03*
D25*
G04 #@! TO.P,J9,8*
G04 #@! TO.N,Net-(J9-Pad8)*
X-17816200Y6933800D03*
D24*
G04 #@! TO.P,J9,*
G04 #@! TO.N,*
X-13316200Y6683800D03*
D23*
G04 #@! TO.P,J9,2*
G04 #@! TO.N,/USB-*
X-17266200Y4013800D03*
G04 #@! TO.P,J9,1*
G04 #@! TO.N,VUSB*
X-17916200Y4013800D03*
G04 #@! TO.P,J9,4*
G04 #@! TO.N,Net-(J16-Pad4)*
X-15966200Y4013800D03*
G04 #@! TO.P,J9,5*
G04 #@! TO.N,GND*
X-15316200Y4013800D03*
D22*
G04 #@! TO.P,J9,6*
G04 #@! TO.N,Net-(C14-Pad1)*
X-19816200Y4933800D03*
G04 #@! TD*
D27*
G04 #@! TO.P,U1,21*
G04 #@! TO.N,Net-(U1-Pad21)*
X-51572300Y-15034930D03*
G04 #@! TO.P,U1,22*
G04 #@! TO.N,/D2_WIFI_EN*
X-51572300Y-16050930D03*
G04 #@! TO.P,U1,23*
G04 #@! TO.N,/PERIPH_3V3*
X-51572300Y-17066931D03*
G04 #@! TO.P,U1,24*
G04 #@! TO.N,Net-(U1-Pad24)*
X-51572300Y-18082931D03*
G04 #@! TO.P,U1,25*
G04 #@! TO.N,N/C*
X-51572300Y-19098930D03*
G04 #@! TO.P,U1,26*
G04 #@! TO.N,Net-(R4-Pad1)*
X-51572300Y-20114930D03*
G04 #@! TO.P,U1,27*
G04 #@! TO.N,Net-(R5-Pad1)*
X-51572300Y-21130930D03*
G04 #@! TO.P,U1,28*
G04 #@! TO.N,GND*
X-51572300Y-22146930D03*
G04 #@! TO.P,U1,20*
G04 #@! TO.N,/PERIPH_3V3*
X-51572300Y-11986930D03*
D26*
G04 #@! TO.P,U1,4*
G04 #@! TO.N,/A1_WIFI_RST*
X-57291750Y-24817330D03*
G04 #@! TO.P,U1,3*
G04 #@! TO.N,Net-(U1-Pad3)*
X-56275750Y-24817330D03*
G04 #@! TO.P,U1,2*
G04 #@! TO.N,Net-(U1-Pad2)*
X-55259750Y-24817330D03*
G04 #@! TO.P,U1,1*
G04 #@! TO.N,Net-(U1-Pad1)*
X-54243750Y-24817330D03*
G04 #@! TO.P,U1,5*
G04 #@! TO.N,N/C*
X-61355750Y-24817330D03*
G04 #@! TO.P,U1,6*
X-63387753Y-24817330D03*
G04 #@! TO.P,U1,7*
X-64403750Y-24817330D03*
G04 #@! TO.P,U1,8*
X-65419750Y-24817330D03*
G04 #@! TO.P,U1,9*
G04 #@! TO.N,GND*
X-66435750Y-24817330D03*
G04 #@! TO.P,U1,19*
G04 #@! TO.N,Net-(U1-Pad19)*
X-55251530Y-10087060D03*
G04 #@! TO.P,U1,18*
G04 #@! TO.N,/SCK*
X-56267530Y-10087060D03*
G04 #@! TO.P,U1,17*
G04 #@! TO.N,/MISO*
X-57283530Y-10087060D03*
G04 #@! TO.P,U1,16*
G04 #@! TO.N,/D7_WIFI_CS*
X-58299530Y-10087060D03*
G04 #@! TO.P,U1,15*
G04 #@! TO.N,/MOSI*
X-59315530Y-10087060D03*
G04 #@! TO.P,U1,14*
G04 #@! TO.N,Net-(U1-Pad14)*
X-60331530Y-10087060D03*
G04 #@! TO.P,U1,13*
G04 #@! TO.N,/A2_WIFI_IRQ*
X-61347530Y-10087060D03*
G04 #@! TO.P,U1,12*
G04 #@! TO.N,GND*
X-62363534Y-10087060D03*
G04 #@! TO.P,U1,11*
G04 #@! TO.N,/D8_WIFI_WAKE*
X-63379534Y-10087060D03*
G04 #@! TO.P,U1,10*
G04 #@! TO.N,/PERIPH_3V3*
X-64395530Y-10087060D03*
G04 #@! TD*
D29*
G04 #@! TO.P,J12,1*
G04 #@! TO.N,3V3*
X26720800Y-20624200D03*
G04 #@! TO.P,J12,2*
G04 #@! TO.N,/GPS_3V3*
X26720800Y-19100200D03*
G04 #@! TD*
D28*
G04 #@! TO.P,BT1,1*
G04 #@! TO.N,/BAT_BACKUP*
X2946400Y-2056800D03*
G04 #@! TO.P,BT1,2*
G04 #@! TO.N,GND*
X-13453600Y-2056800D03*
G04 #@! TD*
D32*
G04 #@! TO.P,J4,1*
G04 #@! TO.N,Net-(J15-Pad1)*
X-5156200Y-11480200D03*
G04 #@! TD*
D30*
G04 #@! TO.P,U10,1*
G04 #@! TO.N,/GPS_PWR_FILT*
X10642600Y-14596780D03*
G04 #@! TO.P,U10,2*
G04 #@! TO.N,Net-(U10-Pad2)*
X10642600Y-13098180D03*
G04 #@! TO.P,U10,3*
G04 #@! TO.N,GND*
X10642600Y-11597040D03*
G04 #@! TO.P,U10,4*
G04 #@! TO.N,/BAT_BACKUP*
X10642600Y-10098440D03*
G04 #@! TO.P,U10,5*
G04 #@! TO.N,/GPS_FIX*
X10642600Y-8597300D03*
G04 #@! TO.P,U10,6*
G04 #@! TO.N,Net-(U10-Pad6)*
X10642600Y-7098700D03*
G04 #@! TO.P,U10,7*
G04 #@! TO.N,Net-(U10-Pad7)*
X10642600Y-5597560D03*
G04 #@! TO.P,U10,8*
G04 #@! TO.N,GND*
X10642600Y-4098960D03*
G04 #@! TO.P,U10,9*
G04 #@! TO.N,/GPS_TX*
X10642600Y-2597820D03*
G04 #@! TO.P,U10,10*
G04 #@! TO.N,/GPS_RX*
X10642600Y-1099220D03*
G04 #@! TO.P,U10,11*
G04 #@! TO.N,Net-(J11-Pad1)*
X26644600Y-1099220D03*
G04 #@! TO.P,U10,12*
G04 #@! TO.N,GND*
X26644600Y-2597820D03*
G04 #@! TO.P,U10,13*
G04 #@! TO.N,Net-(U10-Pad13)*
X26644600Y-4098960D03*
G04 #@! TO.P,U10,14*
G04 #@! TO.N,Net-(U10-Pad14)*
X26644600Y-5597560D03*
G04 #@! TO.P,U10,15*
G04 #@! TO.N,Net-(U10-Pad15)*
X26644600Y-7098700D03*
G04 #@! TO.P,U10,16*
G04 #@! TO.N,Net-(U10-Pad16)*
X26644600Y-8597300D03*
G04 #@! TO.P,U10,17*
G04 #@! TO.N,Net-(U10-Pad17)*
X26644600Y-10098440D03*
G04 #@! TO.P,U10,18*
G04 #@! TO.N,Net-(U10-Pad18)*
X26644600Y-11597040D03*
G04 #@! TO.P,U10,19*
G04 #@! TO.N,GND*
X26644600Y-13098180D03*
G04 #@! TO.P,U10,20*
G04 #@! TO.N,Net-(U10-Pad20)*
X26644600Y-14596780D03*
G04 #@! TD*
D16*
G04 #@! TO.P,C14,2*
G04 #@! TO.N,GND*
X-24116476Y2877495D03*
G04 #@! TO.P,C14,1*
G04 #@! TO.N,Net-(C14-Pad1)*
X-22416476Y2877495D03*
G04 #@! TD*
D15*
G04 #@! TO.P,J1,1*
G04 #@! TO.N,/GPS_3V3*
X8178800Y-8178200D03*
G04 #@! TO.P,J1,2*
G04 #@! TO.N,3V3*
X6654800Y-8178200D03*
G04 #@! TD*
D31*
G04 #@! TO.P,R27,2*
G04 #@! TO.N,/SCL1*
X-29845000Y4990800D03*
G04 #@! TO.P,R27,1*
G04 #@! TO.N,/SCL2*
X-29845000Y3290800D03*
G04 #@! TD*
D16*
G04 #@! TO.P,R31,1*
G04 #@! TO.N,Net-(C14-Pad1)*
X-22416476Y4528495D03*
G04 #@! TO.P,R31,2*
G04 #@! TO.N,GND*
X-24116476Y4528495D03*
G04 #@! TD*
D34*
G04 #@! TO.P,J16,6*
G04 #@! TO.N,Net-(J16-Pad6)*
X-13786200Y3251800D03*
G04 #@! TO.P,J16,7*
G04 #@! TO.N,Net-(C14-Pad1)*
X-19386200Y3251800D03*
D33*
G04 #@! TO.P,J16,8*
G04 #@! TO.N,Net-(J16-Pad8)*
X-16586200Y5401800D03*
G04 #@! TD*
D31*
G04 #@! TO.P,R26,2*
G04 #@! TO.N,/SDA1*
X-31369000Y4965400D03*
G04 #@! TO.P,R26,1*
G04 #@! TO.N,/SDA2*
X-31369000Y3265400D03*
G04 #@! TD*
D16*
G04 #@! TO.P,R30,1*
G04 #@! TO.N,Net-(J16-Pad4)*
X-11682200Y3912200D03*
G04 #@! TO.P,R30,2*
G04 #@! TO.N,/USB_ID*
X-9982200Y3912200D03*
G04 #@! TD*
D15*
G04 #@! TO.P,J14,1*
G04 #@! TO.N,/MODULE_3V3*
X-37134800Y-3428400D03*
G04 #@! TO.P,J14,2*
G04 #@! TO.N,3V3*
X-35610800Y-3428400D03*
G04 #@! TD*
D17*
G04 #@! TO.P,M11,~*
G04 #@! TO.N,Net-(M11-Pad~)*
X16052800Y-23545200D03*
G04 #@! TD*
D21*
G04 #@! TO.P,U3,1*
G04 #@! TO.N,GND*
X-20141200Y-27671200D03*
G04 #@! TO.P,U3,2*
G04 #@! TO.N,/MISO*
X-20141200Y-25671200D03*
G04 #@! TO.P,U3,3*
G04 #@! TO.N,/MOSI*
X-20141200Y-23671200D03*
G04 #@! TO.P,U3,4*
G04 #@! TO.N,/SCK*
X-20141200Y-21671200D03*
G04 #@! TO.P,U3,5*
G04 #@! TO.N,/D5_RADIO_CS*
X-20141200Y-19671200D03*
G04 #@! TO.P,U3,6*
G04 #@! TO.N,Net-(U3-Pad6)*
X-20141200Y-17671200D03*
G04 #@! TO.P,U3,7*
G04 #@! TO.N,Net-(U3-Pad7)*
X-20141200Y-15671200D03*
G04 #@! TO.P,U3,8*
G04 #@! TO.N,GND*
X-20141200Y-13671200D03*
G04 #@! TO.P,U3,9*
G04 #@! TO.N,Net-(J15-Pad1)*
X-4141200Y-13671200D03*
G04 #@! TO.P,U3,10*
G04 #@! TO.N,GND*
X-4141200Y-15671200D03*
G04 #@! TO.P,U3,11*
G04 #@! TO.N,Net-(U3-Pad11)*
X-4141200Y-17671200D03*
G04 #@! TO.P,U3,12*
G04 #@! TO.N,Net-(U3-Pad12)*
X-4141200Y-19671200D03*
G04 #@! TO.P,U3,13*
G04 #@! TO.N,/PERIPH_3V3*
X-4141200Y-21671200D03*
G04 #@! TO.P,U3,14*
G04 #@! TO.N,/LORA_D0*
X-4141200Y-23671200D03*
G04 #@! TO.P,U3,15*
G04 #@! TO.N,/LORA_D1*
X-4141200Y-25671200D03*
G04 #@! TO.P,U3,16*
G04 #@! TO.N,/LORA_D2*
X-4141200Y-27671200D03*
G04 #@! TD*
D17*
G04 #@! TO.P,M9,~*
G04 #@! TO.N,Net-(M9-Pad~)*
X19862800Y6934800D03*
G04 #@! TD*
D15*
G04 #@! TO.P,J2,1*
G04 #@! TO.N,3V3*
X-33858200Y-11988200D03*
G04 #@! TO.P,J2,2*
G04 #@! TO.N,/PERIPH_3V3*
X-35382200Y-11988200D03*
G04 #@! TD*
D16*
G04 #@! TO.P,R23,1*
G04 #@! TO.N,Net-(J16-Pad4)*
X-11670400Y5436200D03*
G04 #@! TO.P,R23,2*
G04 #@! TO.N,3V3*
X-9970400Y5436200D03*
G04 #@! TD*
D19*
G04 #@! TO.P,U14,1*
G04 #@! TO.N,GND*
X-44122400Y-709200D03*
D20*
G04 #@! TO.P,U14,2*
G04 #@! TO.N,VBUS*
X-44622400Y-2209200D03*
D19*
G04 #@! TO.P,U14,3*
G04 #@! TO.N,3V3*
X-44122400Y-3709200D03*
D18*
G04 #@! TO.P,U14,2*
G04 #@! TO.N,VBUS*
X-46972400Y-2209200D03*
G04 #@! TD*
D17*
G04 #@! TO.P,M10,~*
G04 #@! TO.N,Net-(M10-Pad~)*
X-65227200Y-27355200D03*
G04 #@! TD*
D12*
G04 #@! TO.P,M7,MT2*
G04 #@! TO.N,GND*
X-48854360Y12928900D03*
G04 #@! TO.P,M7,MT1*
X-35653980Y13830600D03*
D13*
G04 #@! TO.P,M7,CD2*
G04 #@! TO.N,Net-(M7-PadCD2)*
X-43253660Y26929380D03*
G04 #@! TO.P,M7,CD1*
G04 #@! TO.N,Net-(M7-PadCD1)*
X-37254180Y26929380D03*
D14*
G04 #@! TO.P,M7,8*
G04 #@! TO.N,Net-(M7-Pad8)*
X-36553140Y16731280D03*
G04 #@! TO.P,M7,7*
G04 #@! TO.N,/MISO*
X-37652960Y16731280D03*
G04 #@! TO.P,M7,6*
G04 #@! TO.N,GND*
X-38752780Y16329960D03*
G04 #@! TO.P,M7,5*
G04 #@! TO.N,/SCK*
X-39855140Y16731280D03*
G04 #@! TO.P,M7,4*
G04 #@! TO.N,/PERIPH_3V3*
X-40954960Y16329960D03*
G04 #@! TO.P,M7,3*
G04 #@! TO.N,/MOSI*
X-42054780Y16731280D03*
G04 #@! TO.P,M7,2*
G04 #@! TO.N,/D12_SD_CS*
X-43154600Y17130060D03*
G04 #@! TO.P,M7,1*
G04 #@! TO.N,Net-(M7-Pad1)*
X-44254420Y16731280D03*
G04 #@! TD*
D11*
G04 #@! TO.P,J19,1*
G04 #@! TO.N,/SWCLK*
X-23749000Y37732000D03*
G04 #@! TD*
G04 #@! TO.P,J18,1*
G04 #@! TO.N,/SWDIO*
X-19659600Y37681200D03*
G04 #@! TD*
D22*
G04 #@! TO.P,J9,6*
G04 #@! TO.N,Net-(C14-Pad1)*
X-19816200Y45433800D03*
D23*
G04 #@! TO.P,J9,5*
G04 #@! TO.N,GND*
X-15316200Y44513800D03*
G04 #@! TO.P,J9,4*
G04 #@! TO.N,Net-(J16-Pad4)*
X-15966200Y44513800D03*
G04 #@! TO.P,J9,1*
G04 #@! TO.N,VUSB*
X-17916200Y44513800D03*
G04 #@! TO.P,J9,2*
G04 #@! TO.N,/USB-*
X-17266200Y44513800D03*
D24*
G04 #@! TO.P,J9,*
G04 #@! TO.N,*
X-13316200Y47183800D03*
D25*
G04 #@! TO.P,J9,8*
G04 #@! TO.N,Net-(J9-Pad8)*
X-17816200Y47433800D03*
D24*
G04 #@! TO.P,J9,*
G04 #@! TO.N,*
X-19916200Y47183800D03*
D25*
G04 #@! TO.P,J9,9*
G04 #@! TO.N,Net-(J9-Pad9)*
X-15416200Y47433800D03*
D23*
G04 #@! TO.P,J9,3*
G04 #@! TO.N,/USB+*
X-16616200Y44513800D03*
D22*
G04 #@! TO.P,J9,7*
G04 #@! TO.N,Net-(J9-Pad7)*
X-13416200Y45433800D03*
G04 #@! TD*
D26*
G04 #@! TO.P,U1,10*
G04 #@! TO.N,/PERIPH_3V3*
X-64395530Y30412940D03*
G04 #@! TO.P,U1,11*
G04 #@! TO.N,/D8_WIFI_WAKE*
X-63379534Y30412940D03*
G04 #@! TO.P,U1,12*
G04 #@! TO.N,GND*
X-62363534Y30412940D03*
G04 #@! TO.P,U1,13*
G04 #@! TO.N,/A2_WIFI_IRQ*
X-61347530Y30412940D03*
G04 #@! TO.P,U1,14*
G04 #@! TO.N,Net-(U1-Pad14)*
X-60331530Y30412940D03*
G04 #@! TO.P,U1,15*
G04 #@! TO.N,/MOSI*
X-59315530Y30412940D03*
G04 #@! TO.P,U1,16*
G04 #@! TO.N,/D7_WIFI_CS*
X-58299530Y30412940D03*
G04 #@! TO.P,U1,17*
G04 #@! TO.N,/MISO*
X-57283530Y30412940D03*
G04 #@! TO.P,U1,18*
G04 #@! TO.N,/SCK*
X-56267530Y30412940D03*
G04 #@! TO.P,U1,19*
G04 #@! TO.N,Net-(U1-Pad19)*
X-55251530Y30412940D03*
G04 #@! TO.P,U1,9*
G04 #@! TO.N,GND*
X-66435750Y15682670D03*
G04 #@! TO.P,U1,8*
G04 #@! TO.N,N/C*
X-65419750Y15682670D03*
G04 #@! TO.P,U1,7*
X-64403750Y15682670D03*
G04 #@! TO.P,U1,6*
X-63387753Y15682670D03*
G04 #@! TO.P,U1,5*
X-61355750Y15682670D03*
G04 #@! TO.P,U1,1*
G04 #@! TO.N,Net-(U1-Pad1)*
X-54243750Y15682670D03*
G04 #@! TO.P,U1,2*
G04 #@! TO.N,Net-(U1-Pad2)*
X-55259750Y15682670D03*
G04 #@! TO.P,U1,3*
G04 #@! TO.N,Net-(U1-Pad3)*
X-56275750Y15682670D03*
G04 #@! TO.P,U1,4*
G04 #@! TO.N,/A1_WIFI_RST*
X-57291750Y15682670D03*
D27*
G04 #@! TO.P,U1,20*
G04 #@! TO.N,/PERIPH_3V3*
X-51572300Y28513070D03*
G04 #@! TO.P,U1,28*
G04 #@! TO.N,GND*
X-51572300Y18353070D03*
G04 #@! TO.P,U1,27*
G04 #@! TO.N,Net-(R5-Pad1)*
X-51572300Y19369070D03*
G04 #@! TO.P,U1,26*
G04 #@! TO.N,Net-(R4-Pad1)*
X-51572300Y20385070D03*
G04 #@! TO.P,U1,25*
G04 #@! TO.N,N/C*
X-51572300Y21401070D03*
G04 #@! TO.P,U1,24*
G04 #@! TO.N,Net-(U1-Pad24)*
X-51572300Y22417069D03*
G04 #@! TO.P,U1,23*
G04 #@! TO.N,/PERIPH_3V3*
X-51572300Y23433069D03*
G04 #@! TO.P,U1,22*
G04 #@! TO.N,/D2_WIFI_EN*
X-51572300Y24449070D03*
G04 #@! TO.P,U1,21*
G04 #@! TO.N,Net-(U1-Pad21)*
X-51572300Y25465070D03*
G04 #@! TD*
D29*
G04 #@! TO.P,J12,2*
G04 #@! TO.N,/GPS_3V3*
X26720800Y21399800D03*
G04 #@! TO.P,J12,1*
G04 #@! TO.N,3V3*
X26720800Y19875800D03*
G04 #@! TD*
D28*
G04 #@! TO.P,BT1,2*
G04 #@! TO.N,GND*
X-13453600Y38443200D03*
G04 #@! TO.P,BT1,1*
G04 #@! TO.N,/BAT_BACKUP*
X2946400Y38443200D03*
G04 #@! TD*
D32*
G04 #@! TO.P,J4,1*
G04 #@! TO.N,Net-(J15-Pad1)*
X-5156200Y29019800D03*
G04 #@! TD*
D30*
G04 #@! TO.P,U10,20*
G04 #@! TO.N,Net-(U10-Pad20)*
X26644600Y25903220D03*
G04 #@! TO.P,U10,19*
G04 #@! TO.N,GND*
X26644600Y27401820D03*
G04 #@! TO.P,U10,18*
G04 #@! TO.N,Net-(U10-Pad18)*
X26644600Y28902960D03*
G04 #@! TO.P,U10,17*
G04 #@! TO.N,Net-(U10-Pad17)*
X26644600Y30401560D03*
G04 #@! TO.P,U10,16*
G04 #@! TO.N,Net-(U10-Pad16)*
X26644600Y31902700D03*
G04 #@! TO.P,U10,15*
G04 #@! TO.N,Net-(U10-Pad15)*
X26644600Y33401300D03*
G04 #@! TO.P,U10,14*
G04 #@! TO.N,Net-(U10-Pad14)*
X26644600Y34902440D03*
G04 #@! TO.P,U10,13*
G04 #@! TO.N,Net-(U10-Pad13)*
X26644600Y36401040D03*
G04 #@! TO.P,U10,12*
G04 #@! TO.N,GND*
X26644600Y37902180D03*
G04 #@! TO.P,U10,11*
G04 #@! TO.N,Net-(J11-Pad1)*
X26644600Y39400780D03*
G04 #@! TO.P,U10,10*
G04 #@! TO.N,/GPS_RX*
X10642600Y39400780D03*
G04 #@! TO.P,U10,9*
G04 #@! TO.N,/GPS_TX*
X10642600Y37902180D03*
G04 #@! TO.P,U10,8*
G04 #@! TO.N,GND*
X10642600Y36401040D03*
G04 #@! TO.P,U10,7*
G04 #@! TO.N,Net-(U10-Pad7)*
X10642600Y34902440D03*
G04 #@! TO.P,U10,6*
G04 #@! TO.N,Net-(U10-Pad6)*
X10642600Y33401300D03*
G04 #@! TO.P,U10,5*
G04 #@! TO.N,/GPS_FIX*
X10642600Y31902700D03*
G04 #@! TO.P,U10,4*
G04 #@! TO.N,/BAT_BACKUP*
X10642600Y30401560D03*
G04 #@! TO.P,U10,3*
G04 #@! TO.N,GND*
X10642600Y28902960D03*
G04 #@! TO.P,U10,2*
G04 #@! TO.N,Net-(U10-Pad2)*
X10642600Y27401820D03*
G04 #@! TO.P,U10,1*
G04 #@! TO.N,/GPS_PWR_FILT*
X10642600Y25903220D03*
G04 #@! TD*
D33*
G04 #@! TO.P,J16,8*
G04 #@! TO.N,Net-(J16-Pad8)*
X-16586200Y45901800D03*
D34*
G04 #@! TO.P,J16,7*
G04 #@! TO.N,Net-(C14-Pad1)*
X-19386200Y43751800D03*
G04 #@! TO.P,J16,6*
G04 #@! TO.N,Net-(J16-Pad6)*
X-13786200Y43751800D03*
G04 #@! TD*
D15*
G04 #@! TO.P,J1,2*
G04 #@! TO.N,3V3*
X6654800Y32321800D03*
G04 #@! TO.P,J1,1*
G04 #@! TO.N,/GPS_3V3*
X8178800Y32321800D03*
G04 #@! TD*
D16*
G04 #@! TO.P,C14,1*
G04 #@! TO.N,Net-(C14-Pad1)*
X-22416476Y43377495D03*
G04 #@! TO.P,C14,2*
G04 #@! TO.N,GND*
X-24116476Y43377495D03*
G04 #@! TD*
D31*
G04 #@! TO.P,R26,1*
G04 #@! TO.N,/SDA2*
X-31369000Y43765400D03*
G04 #@! TO.P,R26,2*
G04 #@! TO.N,/SDA1*
X-31369000Y45465400D03*
G04 #@! TD*
G04 #@! TO.P,R27,1*
G04 #@! TO.N,/SCL2*
X-29845000Y43790800D03*
G04 #@! TO.P,R27,2*
G04 #@! TO.N,/SCL1*
X-29845000Y45490800D03*
G04 #@! TD*
D16*
G04 #@! TO.P,R31,2*
G04 #@! TO.N,GND*
X-24116476Y45028495D03*
G04 #@! TO.P,R31,1*
G04 #@! TO.N,Net-(C14-Pad1)*
X-22416476Y45028495D03*
G04 #@! TD*
D17*
G04 #@! TO.P,M11,~*
G04 #@! TO.N,Net-(M11-Pad~)*
X16052800Y16954800D03*
G04 #@! TD*
D16*
G04 #@! TO.P,R23,2*
G04 #@! TO.N,3V3*
X-9970400Y45936200D03*
G04 #@! TO.P,R23,1*
G04 #@! TO.N,Net-(J16-Pad4)*
X-11670400Y45936200D03*
G04 #@! TD*
D15*
G04 #@! TO.P,J2,2*
G04 #@! TO.N,/PERIPH_3V3*
X-35382200Y28511800D03*
G04 #@! TO.P,J2,1*
G04 #@! TO.N,3V3*
X-33858200Y28511800D03*
G04 #@! TD*
D18*
G04 #@! TO.P,U14,2*
G04 #@! TO.N,VBUS*
X-46972400Y38290800D03*
D19*
G04 #@! TO.P,U14,3*
G04 #@! TO.N,3V3*
X-44122400Y36790800D03*
D20*
G04 #@! TO.P,U14,2*
G04 #@! TO.N,VBUS*
X-44622400Y38290800D03*
D19*
G04 #@! TO.P,U14,1*
G04 #@! TO.N,GND*
X-44122400Y39790800D03*
G04 #@! TD*
D21*
G04 #@! TO.P,U3,16*
G04 #@! TO.N,/LORA_D2*
X-4141200Y12828800D03*
G04 #@! TO.P,U3,15*
G04 #@! TO.N,/LORA_D1*
X-4141200Y14828800D03*
G04 #@! TO.P,U3,14*
G04 #@! TO.N,/LORA_D0*
X-4141200Y16828800D03*
G04 #@! TO.P,U3,13*
G04 #@! TO.N,/PERIPH_3V3*
X-4141200Y18828800D03*
G04 #@! TO.P,U3,12*
G04 #@! TO.N,Net-(U3-Pad12)*
X-4141200Y20828800D03*
G04 #@! TO.P,U3,11*
G04 #@! TO.N,Net-(U3-Pad11)*
X-4141200Y22828800D03*
G04 #@! TO.P,U3,10*
G04 #@! TO.N,GND*
X-4141200Y24828800D03*
G04 #@! TO.P,U3,9*
G04 #@! TO.N,Net-(J15-Pad1)*
X-4141200Y26828800D03*
G04 #@! TO.P,U3,8*
G04 #@! TO.N,GND*
X-20141200Y26828800D03*
G04 #@! TO.P,U3,7*
G04 #@! TO.N,Net-(U3-Pad7)*
X-20141200Y24828800D03*
G04 #@! TO.P,U3,6*
G04 #@! TO.N,Net-(U3-Pad6)*
X-20141200Y22828800D03*
G04 #@! TO.P,U3,5*
G04 #@! TO.N,/D5_RADIO_CS*
X-20141200Y20828800D03*
G04 #@! TO.P,U3,4*
G04 #@! TO.N,/SCK*
X-20141200Y18828800D03*
G04 #@! TO.P,U3,3*
G04 #@! TO.N,/MOSI*
X-20141200Y16828800D03*
G04 #@! TO.P,U3,2*
G04 #@! TO.N,/MISO*
X-20141200Y14828800D03*
G04 #@! TO.P,U3,1*
G04 #@! TO.N,GND*
X-20141200Y12828800D03*
G04 #@! TD*
D17*
G04 #@! TO.P,M10,~*
G04 #@! TO.N,Net-(M10-Pad~)*
X-65227200Y13144800D03*
G04 #@! TD*
G04 #@! TO.P,M9,~*
G04 #@! TO.N,Net-(M9-Pad~)*
X19862800Y47434800D03*
G04 #@! TD*
D16*
G04 #@! TO.P,R30,2*
G04 #@! TO.N,/USB_ID*
X-9982200Y44412200D03*
G04 #@! TO.P,R30,1*
G04 #@! TO.N,Net-(J16-Pad4)*
X-11682200Y44412200D03*
G04 #@! TD*
D15*
G04 #@! TO.P,J14,2*
G04 #@! TO.N,3V3*
X-35610800Y37071600D03*
G04 #@! TO.P,J14,1*
G04 #@! TO.N,/MODULE_3V3*
X-37134800Y37071600D03*
G04 #@! TD*
D14*
G04 #@! TO.P,M7,1*
G04 #@! TO.N,Net-(M7-Pad1)*
X-44254420Y57231280D03*
G04 #@! TO.P,M7,2*
G04 #@! TO.N,/D12_SD_CS*
X-43154600Y57630060D03*
G04 #@! TO.P,M7,3*
G04 #@! TO.N,/MOSI*
X-42054780Y57231280D03*
G04 #@! TO.P,M7,4*
G04 #@! TO.N,/PERIPH_3V3*
X-40954960Y56829960D03*
G04 #@! TO.P,M7,5*
G04 #@! TO.N,/SCK*
X-39855140Y57231280D03*
G04 #@! TO.P,M7,6*
G04 #@! TO.N,GND*
X-38752780Y56829960D03*
G04 #@! TO.P,M7,7*
G04 #@! TO.N,/MISO*
X-37652960Y57231280D03*
G04 #@! TO.P,M7,8*
G04 #@! TO.N,Net-(M7-Pad8)*
X-36553140Y57231280D03*
D13*
G04 #@! TO.P,M7,CD1*
G04 #@! TO.N,Net-(M7-PadCD1)*
X-37254180Y67429380D03*
G04 #@! TO.P,M7,CD2*
G04 #@! TO.N,Net-(M7-PadCD2)*
X-43253660Y67429380D03*
D12*
G04 #@! TO.P,M7,MT1*
G04 #@! TO.N,GND*
X-35653980Y54330600D03*
G04 #@! TO.P,M7,MT2*
X-48854360Y53428900D03*
G04 #@! TD*
D16*
G04 #@! TO.P,R31,1*
G04 #@! TO.N,Net-(C14-Pad1)*
X-22416476Y85528495D03*
G04 #@! TO.P,R31,2*
G04 #@! TO.N,GND*
X-24116476Y85528495D03*
G04 #@! TD*
D31*
G04 #@! TO.P,R27,2*
G04 #@! TO.N,/SCL1*
X-29845000Y85990800D03*
G04 #@! TO.P,R27,1*
G04 #@! TO.N,/SCL2*
X-29845000Y84290800D03*
G04 #@! TD*
G04 #@! TO.P,R26,2*
G04 #@! TO.N,/SDA1*
X-31369000Y85965400D03*
G04 #@! TO.P,R26,1*
G04 #@! TO.N,/SDA2*
X-31369000Y84265400D03*
G04 #@! TD*
D15*
G04 #@! TO.P,J1,1*
G04 #@! TO.N,/GPS_3V3*
X8178800Y72821800D03*
G04 #@! TO.P,J1,2*
G04 #@! TO.N,3V3*
X6654800Y72821800D03*
G04 #@! TD*
D16*
G04 #@! TO.P,C14,2*
G04 #@! TO.N,GND*
X-24116476Y83877495D03*
G04 #@! TO.P,C14,1*
G04 #@! TO.N,Net-(C14-Pad1)*
X-22416476Y83877495D03*
G04 #@! TD*
D19*
G04 #@! TO.P,U14,1*
G04 #@! TO.N,GND*
X-44122400Y80290800D03*
D20*
G04 #@! TO.P,U14,2*
G04 #@! TO.N,VBUS*
X-44622400Y78790800D03*
D19*
G04 #@! TO.P,U14,3*
G04 #@! TO.N,3V3*
X-44122400Y77290800D03*
D18*
G04 #@! TO.P,U14,2*
G04 #@! TO.N,VBUS*
X-46972400Y78790800D03*
G04 #@! TD*
D15*
G04 #@! TO.P,J14,1*
G04 #@! TO.N,/MODULE_3V3*
X-37134800Y77571600D03*
G04 #@! TO.P,J14,2*
G04 #@! TO.N,3V3*
X-35610800Y77571600D03*
G04 #@! TD*
G04 #@! TO.P,J2,1*
G04 #@! TO.N,3V3*
X-33858200Y69011800D03*
G04 #@! TO.P,J2,2*
G04 #@! TO.N,/PERIPH_3V3*
X-35382200Y69011800D03*
G04 #@! TD*
D21*
G04 #@! TO.P,U3,1*
G04 #@! TO.N,GND*
X-20141200Y53328800D03*
G04 #@! TO.P,U3,2*
G04 #@! TO.N,/MISO*
X-20141200Y55328800D03*
G04 #@! TO.P,U3,3*
G04 #@! TO.N,/MOSI*
X-20141200Y57328800D03*
G04 #@! TO.P,U3,4*
G04 #@! TO.N,/SCK*
X-20141200Y59328800D03*
G04 #@! TO.P,U3,5*
G04 #@! TO.N,/D5_RADIO_CS*
X-20141200Y61328800D03*
G04 #@! TO.P,U3,6*
G04 #@! TO.N,Net-(U3-Pad6)*
X-20141200Y63328800D03*
G04 #@! TO.P,U3,7*
G04 #@! TO.N,Net-(U3-Pad7)*
X-20141200Y65328800D03*
G04 #@! TO.P,U3,8*
G04 #@! TO.N,GND*
X-20141200Y67328800D03*
G04 #@! TO.P,U3,9*
G04 #@! TO.N,Net-(J15-Pad1)*
X-4141200Y67328800D03*
G04 #@! TO.P,U3,10*
G04 #@! TO.N,GND*
X-4141200Y65328800D03*
G04 #@! TO.P,U3,11*
G04 #@! TO.N,Net-(U3-Pad11)*
X-4141200Y63328800D03*
G04 #@! TO.P,U3,12*
G04 #@! TO.N,Net-(U3-Pad12)*
X-4141200Y61328800D03*
G04 #@! TO.P,U3,13*
G04 #@! TO.N,/PERIPH_3V3*
X-4141200Y59328800D03*
G04 #@! TO.P,U3,14*
G04 #@! TO.N,/LORA_D0*
X-4141200Y57328800D03*
G04 #@! TO.P,U3,15*
G04 #@! TO.N,/LORA_D1*
X-4141200Y55328800D03*
G04 #@! TO.P,U3,16*
G04 #@! TO.N,/LORA_D2*
X-4141200Y53328800D03*
G04 #@! TD*
D16*
G04 #@! TO.P,R30,1*
G04 #@! TO.N,Net-(J16-Pad4)*
X-11682200Y84912200D03*
G04 #@! TO.P,R30,2*
G04 #@! TO.N,/USB_ID*
X-9982200Y84912200D03*
G04 #@! TD*
G04 #@! TO.P,R23,1*
G04 #@! TO.N,Net-(J16-Pad4)*
X-11670400Y86436200D03*
G04 #@! TO.P,R23,2*
G04 #@! TO.N,3V3*
X-9970400Y86436200D03*
G04 #@! TD*
D17*
G04 #@! TO.P,M11,~*
G04 #@! TO.N,Net-(M11-Pad~)*
X16052800Y57454800D03*
G04 #@! TD*
G04 #@! TO.P,M10,~*
G04 #@! TO.N,Net-(M10-Pad~)*
X-65227200Y53644800D03*
G04 #@! TD*
G04 #@! TO.P,M9,~*
G04 #@! TO.N,Net-(M9-Pad~)*
X19862800Y87934800D03*
G04 #@! TD*
D28*
G04 #@! TO.P,BT1,1*
G04 #@! TO.N,/BAT_BACKUP*
X2946400Y78943200D03*
G04 #@! TO.P,BT1,2*
G04 #@! TO.N,GND*
X-13453600Y78943200D03*
G04 #@! TD*
D30*
G04 #@! TO.P,U10,1*
G04 #@! TO.N,/GPS_PWR_FILT*
X10642600Y66403220D03*
G04 #@! TO.P,U10,2*
G04 #@! TO.N,Net-(U10-Pad2)*
X10642600Y67901820D03*
G04 #@! TO.P,U10,3*
G04 #@! TO.N,GND*
X10642600Y69402960D03*
G04 #@! TO.P,U10,4*
G04 #@! TO.N,/BAT_BACKUP*
X10642600Y70901560D03*
G04 #@! TO.P,U10,5*
G04 #@! TO.N,/GPS_FIX*
X10642600Y72402700D03*
G04 #@! TO.P,U10,6*
G04 #@! TO.N,Net-(U10-Pad6)*
X10642600Y73901300D03*
G04 #@! TO.P,U10,7*
G04 #@! TO.N,Net-(U10-Pad7)*
X10642600Y75402440D03*
G04 #@! TO.P,U10,8*
G04 #@! TO.N,GND*
X10642600Y76901040D03*
G04 #@! TO.P,U10,9*
G04 #@! TO.N,/GPS_TX*
X10642600Y78402180D03*
G04 #@! TO.P,U10,10*
G04 #@! TO.N,/GPS_RX*
X10642600Y79900780D03*
G04 #@! TO.P,U10,11*
G04 #@! TO.N,Net-(J11-Pad1)*
X26644600Y79900780D03*
G04 #@! TO.P,U10,12*
G04 #@! TO.N,GND*
X26644600Y78402180D03*
G04 #@! TO.P,U10,13*
G04 #@! TO.N,Net-(U10-Pad13)*
X26644600Y76901040D03*
G04 #@! TO.P,U10,14*
G04 #@! TO.N,Net-(U10-Pad14)*
X26644600Y75402440D03*
G04 #@! TO.P,U10,15*
G04 #@! TO.N,Net-(U10-Pad15)*
X26644600Y73901300D03*
G04 #@! TO.P,U10,16*
G04 #@! TO.N,Net-(U10-Pad16)*
X26644600Y72402700D03*
G04 #@! TO.P,U10,17*
G04 #@! TO.N,Net-(U10-Pad17)*
X26644600Y70901560D03*
G04 #@! TO.P,U10,18*
G04 #@! TO.N,Net-(U10-Pad18)*
X26644600Y69402960D03*
G04 #@! TO.P,U10,19*
G04 #@! TO.N,GND*
X26644600Y67901820D03*
G04 #@! TO.P,U10,20*
G04 #@! TO.N,Net-(U10-Pad20)*
X26644600Y66403220D03*
G04 #@! TD*
D32*
G04 #@! TO.P,J4,1*
G04 #@! TO.N,Net-(J15-Pad1)*
X-5156200Y69519800D03*
G04 #@! TD*
D29*
G04 #@! TO.P,J12,1*
G04 #@! TO.N,3V3*
X26720800Y60375800D03*
G04 #@! TO.P,J12,2*
G04 #@! TO.N,/GPS_3V3*
X26720800Y61899800D03*
G04 #@! TD*
D27*
G04 #@! TO.P,U1,21*
G04 #@! TO.N,Net-(U1-Pad21)*
X-51572300Y65965070D03*
G04 #@! TO.P,U1,22*
G04 #@! TO.N,/D2_WIFI_EN*
X-51572300Y64949070D03*
G04 #@! TO.P,U1,23*
G04 #@! TO.N,/PERIPH_3V3*
X-51572300Y63933069D03*
G04 #@! TO.P,U1,24*
G04 #@! TO.N,Net-(U1-Pad24)*
X-51572300Y62917069D03*
G04 #@! TO.P,U1,25*
G04 #@! TO.N,N/C*
X-51572300Y61901070D03*
G04 #@! TO.P,U1,26*
G04 #@! TO.N,Net-(R4-Pad1)*
X-51572300Y60885070D03*
G04 #@! TO.P,U1,27*
G04 #@! TO.N,Net-(R5-Pad1)*
X-51572300Y59869070D03*
G04 #@! TO.P,U1,28*
G04 #@! TO.N,GND*
X-51572300Y58853070D03*
G04 #@! TO.P,U1,20*
G04 #@! TO.N,/PERIPH_3V3*
X-51572300Y69013070D03*
D26*
G04 #@! TO.P,U1,4*
G04 #@! TO.N,/A1_WIFI_RST*
X-57291750Y56182670D03*
G04 #@! TO.P,U1,3*
G04 #@! TO.N,Net-(U1-Pad3)*
X-56275750Y56182670D03*
G04 #@! TO.P,U1,2*
G04 #@! TO.N,Net-(U1-Pad2)*
X-55259750Y56182670D03*
G04 #@! TO.P,U1,1*
G04 #@! TO.N,Net-(U1-Pad1)*
X-54243750Y56182670D03*
G04 #@! TO.P,U1,5*
G04 #@! TO.N,N/C*
X-61355750Y56182670D03*
G04 #@! TO.P,U1,6*
X-63387753Y56182670D03*
G04 #@! TO.P,U1,7*
X-64403750Y56182670D03*
G04 #@! TO.P,U1,8*
X-65419750Y56182670D03*
G04 #@! TO.P,U1,9*
G04 #@! TO.N,GND*
X-66435750Y56182670D03*
G04 #@! TO.P,U1,19*
G04 #@! TO.N,Net-(U1-Pad19)*
X-55251530Y70912940D03*
G04 #@! TO.P,U1,18*
G04 #@! TO.N,/SCK*
X-56267530Y70912940D03*
G04 #@! TO.P,U1,17*
G04 #@! TO.N,/MISO*
X-57283530Y70912940D03*
G04 #@! TO.P,U1,16*
G04 #@! TO.N,/D7_WIFI_CS*
X-58299530Y70912940D03*
G04 #@! TO.P,U1,15*
G04 #@! TO.N,/MOSI*
X-59315530Y70912940D03*
G04 #@! TO.P,U1,14*
G04 #@! TO.N,Net-(U1-Pad14)*
X-60331530Y70912940D03*
G04 #@! TO.P,U1,13*
G04 #@! TO.N,/A2_WIFI_IRQ*
X-61347530Y70912940D03*
G04 #@! TO.P,U1,12*
G04 #@! TO.N,GND*
X-62363534Y70912940D03*
G04 #@! TO.P,U1,11*
G04 #@! TO.N,/D8_WIFI_WAKE*
X-63379534Y70912940D03*
G04 #@! TO.P,U1,10*
G04 #@! TO.N,/PERIPH_3V3*
X-64395530Y70912940D03*
G04 #@! TD*
D34*
G04 #@! TO.P,J16,6*
G04 #@! TO.N,Net-(J16-Pad6)*
X-13786200Y84251800D03*
G04 #@! TO.P,J16,7*
G04 #@! TO.N,Net-(C14-Pad1)*
X-19386200Y84251800D03*
D33*
G04 #@! TO.P,J16,8*
G04 #@! TO.N,Net-(J16-Pad8)*
X-16586200Y86401800D03*
G04 #@! TD*
D22*
G04 #@! TO.P,J9,7*
G04 #@! TO.N,Net-(J9-Pad7)*
X-13416200Y85933800D03*
D23*
G04 #@! TO.P,J9,3*
G04 #@! TO.N,/USB+*
X-16616200Y85013800D03*
D25*
G04 #@! TO.P,J9,9*
G04 #@! TO.N,Net-(J9-Pad9)*
X-15416200Y87933800D03*
D24*
G04 #@! TO.P,J9,*
G04 #@! TO.N,*
X-19916200Y87683800D03*
D25*
G04 #@! TO.P,J9,8*
G04 #@! TO.N,Net-(J9-Pad8)*
X-17816200Y87933800D03*
D24*
G04 #@! TO.P,J9,*
G04 #@! TO.N,*
X-13316200Y87683800D03*
D23*
G04 #@! TO.P,J9,2*
G04 #@! TO.N,/USB-*
X-17266200Y85013800D03*
G04 #@! TO.P,J9,1*
G04 #@! TO.N,VUSB*
X-17916200Y85013800D03*
G04 #@! TO.P,J9,4*
G04 #@! TO.N,Net-(J16-Pad4)*
X-15966200Y85013800D03*
G04 #@! TO.P,J9,5*
G04 #@! TO.N,GND*
X-15316200Y85013800D03*
D22*
G04 #@! TO.P,J9,6*
G04 #@! TO.N,Net-(C14-Pad1)*
X-19816200Y85933800D03*
G04 #@! TD*
D11*
G04 #@! TO.P,J18,1*
G04 #@! TO.N,/SWDIO*
X-19659600Y78181200D03*
G04 #@! TD*
G04 #@! TO.P,J19,1*
G04 #@! TO.N,/SWCLK*
X-23749000Y78232000D03*
G04 #@! TD*
D17*
G04 #@! TO.P,REF\002A\002A,~*
G04 #@! TO.N,N/C*
X-74900000Y-75500000D03*
G04 #@! TD*
G04 #@! TO.P,REF\002A\002A,~*
G04 #@! TO.N,N/C*
X30211400Y95200000D03*
G04 #@! TD*
G04 #@! TO.P,REF\002A\002A,~*
G04 #@! TO.N,N/C*
X-79900000Y90400000D03*
G04 #@! TD*
D35*
G04 #@! TO.N,*
X-33223200Y59254210D03*
X-33223200Y18754210D03*
X-33223200Y-21745790D03*
X-33223200Y-62245790D03*
G04 #@! TO.N,GND*
X-4775200Y64693800D03*
X-58867200Y81154800D03*
X-58187200Y81094800D03*
X-54777200Y87664800D03*
X-4657200Y78664800D03*
X-58936283Y80369933D03*
X-58186283Y80369933D03*
X-13197200Y53054800D03*
X-66497200Y54914800D03*
X-51638200Y58343800D03*
X-50012647Y54042201D03*
X-62306202Y69773800D03*
X-49860200Y58470800D03*
X-38430200Y63677800D03*
X-53797200Y71424800D03*
X-52527200Y71424800D03*
X-51257200Y71424800D03*
X-49987200Y71424800D03*
X-48717200Y71424800D03*
X-47447200Y71424800D03*
X-46177200Y71424800D03*
X-44907200Y71424800D03*
X-43637200Y71424800D03*
X-42367200Y71424800D03*
X-41097200Y71424800D03*
X-39827200Y71424800D03*
X-38557200Y71424800D03*
X-37287200Y71424800D03*
X-36017200Y71424800D03*
X-34747200Y71424800D03*
X-41380528Y53140790D03*
X-37037200Y53482248D03*
X-45059600Y80264000D03*
X-43180000Y80314800D03*
X-25146000Y53289200D03*
X-32203202Y53238400D03*
X-38811200Y57814390D03*
X-57759600Y78486000D03*
X-35387777Y53054460D03*
X-37541200Y80822800D03*
X-51257200Y77266800D03*
X-52019200Y83108800D03*
X12242800Y69646800D03*
X18592800Y84124800D03*
X21132800Y84124800D03*
X23672800Y84124800D03*
X26212800Y84124800D03*
X26212800Y82854800D03*
X23672800Y82854800D03*
X21132800Y82854800D03*
X18592800Y82854800D03*
X23672800Y81584800D03*
X26212800Y81584800D03*
X12682800Y87278390D03*
X24942800Y73964800D03*
X22402800Y73964800D03*
X17322800Y73964800D03*
X17322800Y76504800D03*
X22402800Y76504800D03*
X24942800Y76504800D03*
X12242800Y68376800D03*
X9194800Y69392800D03*
X9194800Y68122800D03*
X3860800Y85902800D03*
X-4775200Y70789800D03*
X-3378200Y70789800D03*
X-1854200Y70789800D03*
X-330200Y70789800D03*
X-330200Y68884800D03*
X-330200Y67487800D03*
X-330200Y66090800D03*
X-330200Y64820800D03*
X-1727200Y64693800D03*
X-2997200Y64693800D03*
X-6426200Y69011800D03*
X-6426200Y66090800D03*
X-6426200Y64693800D03*
X-10998200Y59867800D03*
X-7823200Y61264800D03*
X-19061200Y53328800D03*
X5257800Y68122800D03*
X-5918684Y52885505D03*
X-17384802Y70894116D03*
X-21654476Y66605495D03*
X6868800Y78087219D03*
X-22809200Y53898800D03*
X8052800Y53361421D03*
X-6299200Y70726300D03*
X25450800Y67868800D03*
X27863800Y67868800D03*
X27800300Y78346300D03*
X25387300Y77901800D03*
X21163566Y81733210D03*
X18623566Y81733210D03*
X-56845200Y62407800D03*
X-55575200Y62407800D03*
X-54305200Y62407800D03*
X-53162200Y62407800D03*
X-64592200Y76885800D03*
X-70561200Y76885800D03*
X-18619200Y82346800D03*
X-14308980Y83315203D03*
X9448800Y76885800D03*
X304800Y88061800D03*
X-6807200Y88315800D03*
X-12024166Y77650236D03*
X203200Y60502800D03*
X-24942800Y75793600D03*
X-32512000Y79959200D03*
X-30466400Y68656200D03*
X-30441000Y67081400D03*
X-27000200Y64846200D03*
X9448800Y62280800D03*
X9448800Y61264800D03*
X9448800Y60248800D03*
X10464800Y61264800D03*
X11480800Y61264800D03*
X12496800Y61264800D03*
X13512800Y61264800D03*
X14528800Y61264800D03*
X-54559200Y53644800D03*
X-9637783Y77530405D03*
X-20944945Y80496590D03*
X-24116476Y84709000D03*
X-23647400Y86182200D03*
X-28350390Y78611796D03*
X-25759672Y70610798D03*
X-20599400Y75158600D03*
X-11455400Y72016980D03*
X-6585077Y56824790D03*
X-68529200Y88188800D03*
X-14681200Y76454000D03*
X-34213800Y62153800D03*
X-34213800Y63220600D03*
X-34213794Y65049400D03*
X9240696Y75209400D03*
X-39801800Y86131400D03*
X-8991600Y87172800D03*
X-39801800Y45631400D03*
X-8991600Y46672800D03*
X-13197200Y12554800D03*
X-41097200Y30924800D03*
X18592800Y43624800D03*
X-51257200Y36766800D03*
X21132800Y42354800D03*
X-48717200Y30924800D03*
X18592800Y42354800D03*
X23672800Y41084800D03*
X-52527200Y30924800D03*
X26212800Y41084800D03*
X-45059600Y39764000D03*
X12682800Y46778390D03*
X24942800Y33464800D03*
X22402800Y33464800D03*
X-66497200Y14414800D03*
X-38811200Y17314390D03*
X-34747200Y30924800D03*
X17322800Y33464800D03*
X17322800Y36004800D03*
X-53797200Y30924800D03*
X22402800Y36004800D03*
X24942800Y36004800D03*
X-25146000Y12789200D03*
X-38430200Y23177800D03*
X-62306202Y29273800D03*
X-46177200Y30924800D03*
X-49987200Y30924800D03*
X-42367200Y30924800D03*
X-4775200Y24193800D03*
X-58867200Y40654800D03*
X-58187200Y40594800D03*
X-58936283Y39869933D03*
X-58186283Y39869933D03*
X-37287200Y30924800D03*
X-49860200Y17970800D03*
X-43637200Y30924800D03*
X-43180000Y39814800D03*
X-57759600Y37986000D03*
X-36017200Y30924800D03*
X-35387777Y12554460D03*
X-47447200Y30924800D03*
X21132800Y43624800D03*
X-39827200Y30924800D03*
X26212800Y42354800D03*
X-41380528Y12640790D03*
X-4657200Y38164800D03*
X-51257200Y30924800D03*
X-44907200Y30924800D03*
X-37037200Y12982248D03*
X-37541200Y40322800D03*
X-50012647Y13542201D03*
X-51638200Y17843800D03*
X-52019200Y42608800D03*
X-38557200Y30924800D03*
X23672800Y43624800D03*
X23672800Y42354800D03*
X-54777200Y47164800D03*
X-32203202Y12738400D03*
X12242800Y29146800D03*
X26212800Y43624800D03*
X-70561200Y36385800D03*
X-12024166Y37150236D03*
X10464800Y20764800D03*
X-6426200Y28511800D03*
X-17384802Y30394116D03*
X-21654476Y26105495D03*
X-64592200Y36385800D03*
X-54559200Y13144800D03*
X3860800Y45402800D03*
X-5918684Y12385505D03*
X9448800Y36385800D03*
X-6807200Y47815800D03*
X8052800Y12861421D03*
X-6426200Y25590800D03*
X-18619200Y41846800D03*
X5257800Y27622800D03*
X-54305200Y21907800D03*
X-4775200Y30289800D03*
X6868800Y37587219D03*
X-14308980Y42815203D03*
X-6299200Y30226300D03*
X203200Y20002800D03*
X-9637783Y37030405D03*
X-20944945Y39996590D03*
X-1854200Y30289800D03*
X304800Y47561800D03*
X-56845200Y21907800D03*
X9448800Y21780800D03*
X14528800Y20764800D03*
X-330200Y26987800D03*
X-330200Y25590800D03*
X-330200Y24320800D03*
X-19061200Y12828800D03*
X9194800Y27622800D03*
X27863800Y27368800D03*
X-330200Y30289800D03*
X-10998200Y19367800D03*
X25387300Y37401800D03*
X21163566Y41233210D03*
X-27000200Y24346200D03*
X-6426200Y24193800D03*
X-55575200Y21907800D03*
X27800300Y37846300D03*
X-24942800Y35293600D03*
X-32512000Y39459200D03*
X9448800Y19748800D03*
X-53162200Y21907800D03*
X12496800Y20764800D03*
X-30441000Y26581400D03*
X13512800Y20764800D03*
X-1727200Y24193800D03*
X-24116476Y44209000D03*
X9194800Y28892800D03*
X-330200Y28384800D03*
X25450800Y27368800D03*
X-30466400Y28156200D03*
X-22809200Y13398800D03*
X9448800Y20764800D03*
X11480800Y20764800D03*
X12242800Y27876800D03*
X-7823200Y20764800D03*
X18623566Y41233210D03*
X-2997200Y24193800D03*
X-3378200Y30289800D03*
X-34213794Y24549400D03*
X-6585077Y16324790D03*
X-11455400Y31516980D03*
X9240696Y34709400D03*
X-14681200Y35954000D03*
X-28350390Y38111796D03*
X-25759672Y30110798D03*
X-20599400Y34658600D03*
X-68529200Y47688800D03*
X-23647400Y45682200D03*
X-34213800Y21653800D03*
X-34213800Y22720600D03*
X-6299200Y-10273700D03*
X9448800Y-4114200D03*
X-21654476Y-14394505D03*
X-32203202Y-27761600D03*
X-54777200Y6664800D03*
X-70561200Y-4114200D03*
X12242800Y-11353200D03*
X5257800Y-12877200D03*
X203200Y-20497200D03*
X-9637783Y-3469595D03*
X-1854200Y-10210200D03*
X9448800Y-18719200D03*
X-6426200Y-11988200D03*
X-6807200Y7315800D03*
X-6426200Y-14909200D03*
X23672800Y1854800D03*
X-54305200Y-18592200D03*
X304800Y7061800D03*
X-38557200Y-9575200D03*
X-56845200Y-18592200D03*
X-64592200Y-4114200D03*
X3860800Y4902800D03*
X-54559200Y-27355200D03*
X-5918684Y-28114495D03*
X-14308980Y2315203D03*
X-20944945Y-503410D03*
X14528800Y-19735200D03*
X-330200Y-14909200D03*
X-19061200Y-27671200D03*
X26212800Y3124800D03*
X-17384802Y-10105884D03*
X-330200Y-16179200D03*
X23672800Y3124800D03*
X-12024166Y-3349764D03*
X8052800Y-27638579D03*
X27863800Y-13131200D03*
X-18619200Y1346800D03*
X-330200Y-10210200D03*
X-10998200Y-21132200D03*
X21163566Y733210D03*
X-4775200Y-10210200D03*
X10464800Y-19735200D03*
X-27000200Y-16153800D03*
X9194800Y-12877200D03*
X25387300Y-3098200D03*
X-52019200Y2108800D03*
X-330200Y-13512200D03*
X6868800Y-2912781D03*
X-6426200Y-16306200D03*
X21132800Y1854800D03*
X-45059600Y-736000D03*
X18592800Y1854800D03*
X24942800Y-7035200D03*
X22402800Y-7035200D03*
X-38811200Y-23185610D03*
X-66497200Y-26085200D03*
X26212800Y584800D03*
X-48717200Y-9575200D03*
X23672800Y584800D03*
X12682800Y6278390D03*
X-52527200Y-9575200D03*
X-58187200Y94800D03*
X-58186283Y-630067D03*
X-49860200Y-22529200D03*
X-57759600Y-2514000D03*
X-36017200Y-9575200D03*
X-35387777Y-27945540D03*
X-4775200Y-16306200D03*
X-37287200Y-9575200D03*
X-58936283Y-630067D03*
X-58867200Y154800D03*
X-43637200Y-9575200D03*
X-43180000Y-685200D03*
X-39801800Y5131400D03*
X-13197200Y-27945200D03*
X-8991600Y6172800D03*
X-41097200Y-9575200D03*
X18592800Y3124800D03*
X-51257200Y-3733200D03*
X-30441000Y-13918600D03*
X9194800Y-11607200D03*
X25450800Y-13131200D03*
X-6585077Y-24175210D03*
X-11455400Y-8983020D03*
X27800300Y-2653700D03*
X18623566Y733210D03*
X-24116476Y3709000D03*
X-34213800Y-17779400D03*
X13512800Y-19735200D03*
X-25759672Y-10389202D03*
X-28350390Y-2388204D03*
X-22809200Y-27101200D03*
X-330200Y-12115200D03*
X9240696Y-5790600D03*
X-7823200Y-19735200D03*
X-68529200Y7188800D03*
X12496800Y-19735200D03*
X-55575200Y-18592200D03*
X9448800Y-20751200D03*
X-1727200Y-16306200D03*
X9448800Y-19735200D03*
X-23647400Y5182200D03*
X11480800Y-19735200D03*
X-20599400Y-5841400D03*
X12242800Y-12623200D03*
X-3378200Y-10210200D03*
X-30466400Y-12343800D03*
X-53162200Y-18592200D03*
X-32512000Y-1040800D03*
X-2997200Y-16306200D03*
X-24942800Y-5206400D03*
X-34213794Y-15950600D03*
X-14681200Y-4546000D03*
X-34213800Y-18846200D03*
X-41380528Y-27859210D03*
X-51638200Y-22656200D03*
X-47447200Y-9575200D03*
X-44907200Y-9575200D03*
X-37037200Y-27517752D03*
X-37541200Y-177200D03*
X-50012647Y-26957799D03*
X-39827200Y-9575200D03*
X21132800Y3124800D03*
X-4657200Y-2335200D03*
X-51257200Y-9575200D03*
X26212800Y1854800D03*
X22402800Y-4495200D03*
X-46177200Y-9575200D03*
X-49987200Y-9575200D03*
X-42367200Y-9575200D03*
X24942800Y-4495200D03*
X17322800Y-7035200D03*
X-25146000Y-27710800D03*
X17322800Y-4495200D03*
X-53797200Y-9575200D03*
X-34747200Y-9575200D03*
X-38430200Y-17322200D03*
X-62306202Y-11226200D03*
X-54777200Y-33835200D03*
X12242800Y-51853200D03*
X5257800Y-53377200D03*
X-9637783Y-43969595D03*
X-1854200Y-50710200D03*
X203200Y-60997200D03*
X-6426200Y-52488200D03*
X9448800Y-44614200D03*
X-6807200Y-33184200D03*
X9448800Y-59219200D03*
X-70561200Y-44614200D03*
X-6426200Y-55409200D03*
X23672800Y-38645200D03*
X-54305200Y-59092200D03*
X304800Y-33438200D03*
X-38557200Y-50075200D03*
X-56845200Y-59092200D03*
X-32203202Y-68261600D03*
X-6299200Y-50773700D03*
X-21654476Y-54894505D03*
X-11455400Y-49483020D03*
X-28350390Y-42888204D03*
X-22809200Y-67601200D03*
X-1727200Y-56806200D03*
X11480800Y-60235200D03*
X27800300Y-43153700D03*
X25450800Y-53631200D03*
X-25759672Y-50889202D03*
X-30466400Y-52843800D03*
X-32512000Y-41540800D03*
X9240696Y-46290600D03*
X-20599400Y-46341400D03*
X-24116476Y-36791000D03*
X-68529200Y-33311200D03*
X9448800Y-60235200D03*
X-23647400Y-35317800D03*
X-34213794Y-56450600D03*
X-7823200Y-60235200D03*
X9448800Y-61251200D03*
X12242800Y-53123200D03*
X-24942800Y-45706400D03*
X-53162200Y-59092200D03*
X-14681200Y-45046000D03*
X18623566Y-39766790D03*
X13512800Y-60235200D03*
X-2997200Y-56806200D03*
X12496800Y-60235200D03*
X-34213800Y-59346200D03*
X-3378200Y-50710200D03*
X-330200Y-52615200D03*
X-55575200Y-59092200D03*
X9194800Y-52107200D03*
X-30441000Y-54418600D03*
X-34213800Y-58279400D03*
X-6585077Y-64675210D03*
X-41380528Y-68359210D03*
X-51638200Y-63156200D03*
X26212800Y-38645200D03*
X-51257200Y-50075200D03*
X-4657200Y-42835200D03*
X-44907200Y-50075200D03*
X-37037200Y-68017752D03*
X-50012647Y-67457799D03*
X-47447200Y-50075200D03*
X-37541200Y-40677200D03*
X-39827200Y-50075200D03*
X21132800Y-37375200D03*
X24942800Y-44995200D03*
X-25146000Y-68210800D03*
X17322800Y-44995200D03*
X-53797200Y-50075200D03*
X-34747200Y-50075200D03*
X-38430200Y-57822200D03*
X22402800Y-44995200D03*
X-46177200Y-50075200D03*
X-49987200Y-50075200D03*
X-42367200Y-50075200D03*
X17322800Y-47535200D03*
X-66497200Y-66585200D03*
X-17384802Y-50605884D03*
X26212800Y-39915200D03*
X-48717200Y-50075200D03*
X-19061200Y-68171200D03*
X23672800Y-39915200D03*
X12682800Y-34221610D03*
X-12024166Y-43849764D03*
X10464800Y-60235200D03*
X9194800Y-53377200D03*
X-52019200Y-38391200D03*
X23672800Y-37375200D03*
X-10998200Y-61632200D03*
X-5918684Y-68614495D03*
X-20944945Y-41003410D03*
X-330200Y-50710200D03*
X25387300Y-43598200D03*
X-6426200Y-56806200D03*
X-330200Y-55409200D03*
X-14308980Y-38184797D03*
X-18619200Y-39153200D03*
X21163566Y-39766790D03*
X8052800Y-68138579D03*
X-4775200Y-50710200D03*
X-27000200Y-56653800D03*
X-330200Y-54012200D03*
X21132800Y-38645200D03*
X-45059600Y-41236000D03*
X-64592200Y-44614200D03*
X3860800Y-35597200D03*
X-54559200Y-67855200D03*
X14528800Y-60235200D03*
X27863800Y-53631200D03*
X18592800Y-38645200D03*
X6868800Y-43412781D03*
X24942800Y-47535200D03*
X-330200Y-56679200D03*
X26212800Y-37375200D03*
X22402800Y-47535200D03*
X-38811200Y-63685610D03*
X-43637200Y-50075200D03*
X-35387777Y-68445540D03*
X-39801800Y-35368600D03*
X-36017200Y-50075200D03*
X-58187200Y-40405200D03*
X-8991600Y-34327200D03*
X-4775200Y-56806200D03*
X-58936283Y-41130067D03*
X-58867200Y-40345200D03*
X18592800Y-37375200D03*
X-52527200Y-50075200D03*
X-49860200Y-63029200D03*
X-13197200Y-68445200D03*
X-57759600Y-43014000D03*
X-51257200Y-44233200D03*
X-37287200Y-50075200D03*
X-58186283Y-41130067D03*
X-43180000Y-41185200D03*
X-41097200Y-50075200D03*
X-62306202Y-51726200D03*
G04 #@! TO.N,/SWCLK*
X-11633200Y62280800D03*
X-14811312Y70367487D03*
X-22936200Y75641200D03*
X-14811312Y29867487D03*
X-11633200Y21780800D03*
X-22936200Y35141200D03*
X-22936200Y-5358800D03*
X-11633200Y-18719200D03*
X-14811312Y-10632513D03*
X-14811312Y-51132513D03*
X-11633200Y-59219200D03*
X-22936200Y-45858800D03*
G04 #@! TO.N,/SWDIO*
X-12903200Y62403810D03*
X-14160844Y70417808D03*
X-22555200Y76301600D03*
X-12903200Y21903810D03*
X-14160844Y29917808D03*
X-22555200Y35801600D03*
X-12903200Y-18596190D03*
X-22555200Y-4698400D03*
X-14160844Y-10582192D03*
X-22555200Y-45198400D03*
X-14160844Y-51082192D03*
X-12903200Y-59096190D03*
G04 #@! TO.N,/MOSI*
X-46384390Y63296800D03*
X-48260000Y63652400D03*
X-18999200Y57200800D03*
X-24206200Y61391798D03*
X-24206200Y20891798D03*
X-18999200Y16700800D03*
X-46384390Y22796800D03*
X-48260000Y23152400D03*
X-18999200Y-23799200D03*
X-46384390Y-17703200D03*
X-24206200Y-19608202D03*
X-48260000Y-17347600D03*
X-18999200Y-64299200D03*
X-24206200Y-60108202D03*
X-46384390Y-58203200D03*
X-48260000Y-57847600D03*
G04 #@! TO.N,/MISO*
X-37642800Y58928000D03*
X-21543602Y57454800D03*
X-23345145Y62116445D03*
X-21543602Y16954800D03*
X-23345145Y21616445D03*
X-37642800Y18428000D03*
X-21543602Y-23545200D03*
X-23345145Y-18883555D03*
X-37642800Y-22072000D03*
X-23345145Y-59383555D03*
X-21543602Y-64045200D03*
X-37642800Y-62572000D03*
G04 #@! TO.N,/SCK*
X-46384390Y61976000D03*
X-47396400Y61874400D03*
X-19380200Y58597800D03*
X-23788895Y60890305D03*
X-46384390Y21476000D03*
X-23788895Y20390305D03*
X-19380200Y18097800D03*
X-47396400Y21374400D03*
X-23788895Y-20109695D03*
X-46384390Y-19024000D03*
X-47396400Y-19125600D03*
X-19380200Y-22402200D03*
X-46384390Y-59524000D03*
X-23788895Y-60609695D03*
X-47396400Y-59625600D03*
X-19380200Y-62902200D03*
G04 #@! TO.N,3V3*
X-1427200Y53524800D03*
X-33477200Y62534800D03*
X-44907200Y74599800D03*
X-46177200Y75869800D03*
X-46177200Y74599800D03*
X-47447200Y75869800D03*
X-47447200Y74599800D03*
X-48717200Y74599800D03*
X-44907200Y75869800D03*
X-34544000Y77825600D03*
X-56083200Y74726800D03*
X-2743200Y83108800D03*
X-25222200Y62153800D03*
X17449800Y54660800D03*
X26720800Y59486800D03*
X-52146200Y70242800D03*
X-33223208Y69519800D03*
X5638800Y72821800D03*
X-30937200Y78587600D03*
X-18491200Y76984400D03*
X-17844476Y72320495D03*
X-28766400Y68757800D03*
X-28766400Y67157600D03*
X13867500Y59423300D03*
X-6811168Y70174491D03*
X-9194800Y70358000D03*
X-10220181Y75459443D03*
X-66751200Y88188800D03*
X4876800Y82600800D03*
X-8849190Y85586069D03*
X-46177200Y34099800D03*
X-47447200Y34099800D03*
X-48717200Y34099800D03*
X-44907200Y35369800D03*
X-34544000Y37325600D03*
X-1427200Y13024800D03*
X-44907200Y34099800D03*
X-47447200Y35369800D03*
X-56083200Y34226800D03*
X-33477200Y22034800D03*
X-46177200Y35369800D03*
X-2743200Y42608800D03*
X-8849190Y45086069D03*
X-25222200Y21653800D03*
X4876800Y42100800D03*
X-66751200Y47688800D03*
X13867500Y18923300D03*
X-9194800Y29858000D03*
X-28766400Y28257800D03*
X5638800Y32321800D03*
X-52146200Y29742800D03*
X-6811168Y29674491D03*
X-10220181Y34959443D03*
X-28766400Y26657600D03*
X17449800Y14160800D03*
X26720800Y18986800D03*
X-30937200Y38087600D03*
X-18491200Y36484400D03*
X-33223208Y29019800D03*
X-17844476Y31820495D03*
X-17844476Y-8679505D03*
X-1427200Y-27475200D03*
X-44907200Y-6400200D03*
X-56083200Y-6273200D03*
X-47447200Y-5130200D03*
X-34544000Y-3174400D03*
X-2743200Y2108800D03*
X-25222200Y-18846200D03*
X-66751200Y7188800D03*
X13867500Y-21576700D03*
X-46177200Y-5130200D03*
X4876800Y1600800D03*
X-33477200Y-18465200D03*
X-8849190Y4586069D03*
X-47447200Y-6400200D03*
X-48717200Y-6400200D03*
X-46177200Y-6400200D03*
X-44907200Y-5130200D03*
X-28766400Y-13842400D03*
X-9194800Y-10642000D03*
X-28766400Y-12242200D03*
X-10220181Y-5540557D03*
X17449800Y-26339200D03*
X-6811168Y-10825509D03*
X26720800Y-21513200D03*
X-30937200Y-2412400D03*
X-33223208Y-11480200D03*
X-18491200Y-4015600D03*
X5638800Y-8178200D03*
X-52146200Y-10757200D03*
X-44907200Y-46900200D03*
X-47447200Y-45630200D03*
X-56083200Y-46773200D03*
X-1427200Y-67975200D03*
X-34544000Y-43674400D03*
X-2743200Y-38391200D03*
X-25222200Y-59346200D03*
X13867500Y-62076700D03*
X-46177200Y-45630200D03*
X4876800Y-38899200D03*
X-66751200Y-33311200D03*
X-17844476Y-49179505D03*
X-47447200Y-46900200D03*
X17449800Y-66839200D03*
X-9194800Y-51142000D03*
X-33477200Y-58965200D03*
X-46177200Y-46900200D03*
X26720800Y-62013200D03*
X-28766400Y-52742200D03*
X-8849190Y-35913931D03*
X-48717200Y-46900200D03*
X-44907200Y-45630200D03*
X-6811168Y-51325509D03*
X-10220181Y-46040557D03*
X-33223208Y-51980200D03*
X-18491200Y-44515600D03*
X-30937200Y-42912400D03*
X5638800Y-48678200D03*
X-52146200Y-51257200D03*
X-28766400Y-54342400D03*
G04 #@! TO.N,/RESET*
X-7061200Y66471800D03*
X-22289476Y73714790D03*
X-22289476Y33214790D03*
X-7061200Y25971800D03*
X-22289476Y-7285210D03*
X-7061200Y-14528200D03*
X-7061200Y-55028200D03*
X-22289476Y-47785210D03*
G04 #@! TO.N,/USB-*
X-16113563Y81936410D03*
X-16113563Y41436410D03*
X-16113563Y936410D03*
X-16113563Y-39563590D03*
G04 #@! TO.N,/USB+*
X-16534597Y83216160D03*
X-16534597Y42716160D03*
X-16534597Y2216160D03*
X-16534597Y-38283840D03*
G04 #@! TO.N,/D30*
X-17463476Y73336495D03*
X2856524Y68256495D03*
X-17463476Y32836495D03*
X2856524Y27756495D03*
X2856524Y-12743505D03*
X-17463476Y-7663505D03*
X2856524Y-53243505D03*
X-17463476Y-48163505D03*
G04 #@! TO.N,/D31*
X-16955476Y72447495D03*
X4126524Y68002495D03*
X-16955476Y31947495D03*
X4126524Y27502495D03*
X4126524Y-12997505D03*
X-16955476Y-8552505D03*
X4126524Y-53497505D03*
X-16955476Y-49052505D03*
G04 #@! TO.N,VUSB*
X-18491200Y86537800D03*
X-18491200Y46037800D03*
X-18491200Y5537800D03*
X-18491200Y-34962200D03*
G04 #@! TO.N,/SDA2*
X-31953200Y83566000D03*
X-31365010Y75096349D03*
X-31953200Y43066000D03*
X-31365010Y34596349D03*
X-31953200Y2566000D03*
X-31365010Y-5903651D03*
X-31365010Y-46403651D03*
X-31953200Y-37934000D03*
G04 #@! TO.N,/BAT_BACKUP*
X5740400Y54406800D03*
X2971800Y80314800D03*
X5740400Y13906800D03*
X2971800Y39814800D03*
X2971800Y-685200D03*
X5740400Y-26593200D03*
X5740400Y-67093200D03*
X2971800Y-41185200D03*
G04 #@! TO.N,VBAT*
X-60528200Y64566800D03*
X-60020200Y66725800D03*
X-60020200Y26225800D03*
X-60528200Y24066800D03*
X-60020200Y-14274200D03*
X-60528200Y-16433200D03*
X-60020200Y-54774200D03*
X-60528200Y-56933200D03*
G04 #@! TO.N,VBUS*
X-50007200Y79544800D03*
X-49147200Y79564800D03*
X-48447200Y79534800D03*
X-50077200Y78854800D03*
X-50037200Y78164800D03*
X-59307200Y78544800D03*
X-55447200Y78464800D03*
X-46177200Y87934800D03*
X-45415200Y87934800D03*
X-44653200Y87934800D03*
X-44653200Y87299800D03*
X-45415200Y87299800D03*
X13512800Y78155800D03*
X12052300Y78155800D03*
X12052300Y78917800D03*
X12750800Y78917798D03*
X12750800Y78155802D03*
X-50077200Y38354800D03*
X13512800Y37655800D03*
X-49147200Y39064800D03*
X12750800Y37655802D03*
X-44653200Y47434800D03*
X-55447200Y37964800D03*
X-44653200Y46799800D03*
X-45415200Y46799800D03*
X-59307200Y38044800D03*
X-46177200Y47434800D03*
X-50007200Y39044800D03*
X-48447200Y39034800D03*
X-50037200Y37664800D03*
X-45415200Y47434800D03*
X12052300Y37655800D03*
X12750800Y38417798D03*
X12052300Y38417800D03*
X12750800Y-2082202D03*
X-59307200Y-2455200D03*
X-50037200Y-2835200D03*
X-45415200Y6934800D03*
X-44653200Y6299800D03*
X-46177200Y6934800D03*
X-50007200Y-1455200D03*
X12052300Y-2844200D03*
X-45415200Y6299800D03*
X-48447200Y-1465200D03*
X-49147200Y-1435200D03*
X-44653200Y6934800D03*
X-50077200Y-2145200D03*
X13512800Y-2844200D03*
X12750800Y-2844198D03*
X-55447200Y-2535200D03*
X12052300Y-2082200D03*
X12052300Y-42582200D03*
X-48447200Y-41965200D03*
X-45415200Y-33565200D03*
X-50007200Y-41955200D03*
X-59307200Y-42955200D03*
X-46177200Y-33565200D03*
X-45415200Y-34200200D03*
X12052300Y-43344200D03*
X12750800Y-42582202D03*
X-50037200Y-43335200D03*
X-44653200Y-34200200D03*
X-44653200Y-33565200D03*
X-55447200Y-43035200D03*
X13512800Y-43344200D03*
X-50077200Y-42645200D03*
X12750800Y-43344198D03*
X-49147200Y-41935200D03*
G04 #@! TO.N,/GPS_FIX*
X7682524Y83257210D03*
X7682524Y42757210D03*
X7682524Y2257210D03*
X7682524Y-38242790D03*
G04 #@! TO.N,Net-(J11-Pad1)*
X25298400Y80264000D03*
X25298400Y79502000D03*
X25298400Y39002000D03*
X25298400Y39764000D03*
X25298400Y-1498000D03*
X25298400Y-736000D03*
X25298400Y-41236000D03*
X25298400Y-41998000D03*
G04 #@! TO.N,Net-(R4-Pad1)*
X-51003200Y55930800D03*
X-51003200Y15430800D03*
X-51003200Y-25069200D03*
X-51003200Y-65569200D03*
G04 #@! TO.N,Net-(R5-Pad1)*
X-47447200Y55930800D03*
X-47447200Y15430800D03*
X-47447200Y-25069200D03*
X-47447200Y-65569200D03*
G04 #@! TO.N,/SCL2*
X-31830343Y73284581D03*
X-30403800Y82423000D03*
X-31830343Y32784581D03*
X-30403800Y41923000D03*
X-30403800Y1423000D03*
X-31830343Y-7715419D03*
X-31830343Y-48215419D03*
X-30403800Y-39077000D03*
G04 #@! TO.N,/PG*
X-50499200Y86334600D03*
X-58510732Y77521136D03*
X-50499200Y45834600D03*
X-58510732Y37021136D03*
X-50499200Y5334600D03*
X-58510732Y-3478864D03*
X-58510732Y-43978864D03*
X-50499200Y-35165400D03*
G04 #@! TO.N,/CHG*
X-56157198Y79454800D03*
X-49225200Y82092800D03*
X-49225200Y41592800D03*
X-56157198Y38954800D03*
X-56157198Y-1545200D03*
X-49225200Y1092800D03*
X-49225200Y-39407200D03*
X-56157198Y-42045200D03*
G04 #@! TO.N,/GPS_TX*
X4888524Y80495602D03*
X4888524Y39995602D03*
X4888524Y-504398D03*
X4888524Y-41004398D03*
G04 #@! TO.N,/GPS_RX*
X3872524Y80826790D03*
X3872524Y40326790D03*
X3872524Y-173210D03*
X3872524Y-40673210D03*
G04 #@! TO.N,/PERIPH_3V3*
X-34239200Y55168800D03*
X-33223200Y55168800D03*
X-34239200Y53644800D03*
X-33223200Y53644800D03*
X-34747200Y59254210D03*
X-31699200Y59254210D03*
X-50241200Y63804800D03*
X-38303200Y62407800D03*
X-40809145Y55672810D03*
X-48814821Y60990915D03*
X-45567600Y55930800D03*
X-49123600Y55930800D03*
X-31835022Y52503103D03*
X-33199924Y57751609D03*
X-31698411Y57751609D03*
X-34743118Y57751609D03*
X-5537200Y59359800D03*
X-36398200Y69011800D03*
X-53057652Y63847790D03*
X-50206246Y69035120D03*
X-64338200Y72186800D03*
X-2616200Y59309000D03*
X-2768600Y58369200D03*
X-33223200Y13144800D03*
X-40809145Y15172810D03*
X-50206246Y28535120D03*
X-48814821Y20490915D03*
X-34747200Y18754210D03*
X-31835022Y12003103D03*
X-36398200Y28511800D03*
X-31698411Y17251609D03*
X-31699200Y18754210D03*
X-33199924Y17251609D03*
X-5537200Y18859800D03*
X-34743118Y17251609D03*
X-53057652Y23347790D03*
X-49123600Y15430800D03*
X-45567600Y15430800D03*
X-64338200Y31686800D03*
X-50241200Y23304800D03*
X-2616200Y18809000D03*
X-38303200Y21907800D03*
X-2768600Y17869200D03*
X-34239200Y14668800D03*
X-33223200Y14668800D03*
X-34239200Y13144800D03*
X-33223200Y-27355200D03*
X-50206246Y-11964880D03*
X-40809145Y-25327190D03*
X-31699200Y-21745790D03*
X-5537200Y-21640200D03*
X-53057652Y-17152210D03*
X-49123600Y-25069200D03*
X-34747200Y-21745790D03*
X-45567600Y-25069200D03*
X-31835022Y-28496897D03*
X-34743118Y-23248391D03*
X-36398200Y-11988200D03*
X-33199924Y-23248391D03*
X-31698411Y-23248391D03*
X-48814821Y-20009085D03*
X-38303200Y-18592200D03*
X-2768600Y-22630800D03*
X-2616200Y-21691000D03*
X-64338200Y-8813200D03*
X-50241200Y-17195200D03*
X-34239200Y-27355200D03*
X-33223200Y-25831200D03*
X-34239200Y-25831200D03*
X-50241200Y-57695200D03*
X-64338200Y-49313200D03*
X-34239200Y-66331200D03*
X-40809145Y-65827190D03*
X-2616200Y-62191000D03*
X-45567600Y-65569200D03*
X-49123600Y-65569200D03*
X-5537200Y-62140200D03*
X-53057652Y-57652210D03*
X-34743118Y-63748391D03*
X-33199924Y-63748391D03*
X-48814821Y-60509085D03*
X-31699200Y-62245790D03*
X-38303200Y-59092200D03*
X-31835022Y-68996897D03*
X-2768600Y-63130800D03*
X-50206246Y-52464880D03*
X-36398200Y-52488200D03*
X-31698411Y-63748391D03*
X-34747200Y-62245790D03*
X-33223200Y-67855200D03*
X-34239200Y-67855200D03*
X-33223200Y-66331200D03*
G04 #@! TO.N,/GPS_3V3*
X13512800Y75869800D03*
X16052800Y75869800D03*
X21894800Y65328800D03*
X23418800Y65328800D03*
X20116800Y65328800D03*
X20116800Y66852800D03*
X21894800Y66852800D03*
X23418800Y66852800D03*
X17703800Y69900800D03*
X9194800Y72059800D03*
X27482800Y62026800D03*
X13512800Y35369800D03*
X27482800Y21526800D03*
X23418800Y24828800D03*
X21894800Y26352800D03*
X16052800Y35369800D03*
X23418800Y26352800D03*
X17703800Y29400800D03*
X20116800Y24828800D03*
X20116800Y26352800D03*
X9194800Y31559800D03*
X21894800Y24828800D03*
X23418800Y-15671200D03*
X21894800Y-14147200D03*
X23418800Y-14147200D03*
X17703800Y-11099200D03*
X16052800Y-5130200D03*
X27482800Y-18973200D03*
X13512800Y-5130200D03*
X9194800Y-8940200D03*
X20116800Y-15671200D03*
X20116800Y-14147200D03*
X21894800Y-15671200D03*
X27482800Y-59473200D03*
X13512800Y-45630200D03*
X20116800Y-56171200D03*
X20116800Y-54647200D03*
X16052800Y-45630200D03*
X21894800Y-56171200D03*
X9194800Y-49440200D03*
X21894800Y-54647200D03*
X23418800Y-54647200D03*
X17703800Y-51599200D03*
X23418800Y-56171200D03*
G04 #@! TO.N,Net-(C29-Pad1)*
X-43027600Y79298800D03*
X-36032236Y79361542D03*
X-43027600Y38798800D03*
X-36032236Y38861542D03*
X-43027600Y-1701200D03*
X-36032236Y-1638458D03*
X-36032236Y-42138458D03*
X-43027600Y-42201200D03*
G04 #@! TO.N,/MODULE_3V3*
X-37236400Y76555600D03*
X-37236400Y36055600D03*
X-37236400Y-4444400D03*
X-37236400Y-44944400D03*
G04 #@! TO.N,/D12_SD_CS*
X-17602200Y65629621D03*
X-17602200Y25129621D03*
X-17602200Y-15370379D03*
X-17602200Y-55870379D03*
G04 #@! TO.N,/A1_WIFI_RST*
X-36017200Y52628800D03*
X-57607200Y53644800D03*
X-57607200Y13144800D03*
X-36017200Y12128800D03*
X-57607200Y-27355200D03*
X-36017200Y-28371200D03*
X-57607200Y-67855200D03*
X-36017200Y-68871200D03*
G04 #@! TO.N,/D2_WIFI_EN*
X-37033200Y55168800D03*
X-21553602Y58541205D03*
X-37033200Y14668800D03*
X-21553602Y18041205D03*
X-37033200Y-25831200D03*
X-21553602Y-22458795D03*
X-37033200Y-66331200D03*
X-21553602Y-62958795D03*
G04 #@! TO.N,/D7_WIFI_CS*
X-22019058Y70522143D03*
X-22019058Y30022143D03*
X-22019058Y-10477857D03*
X-22019058Y-50977857D03*
G04 #@! TO.N,/A2_WIFI_IRQ*
X-32538648Y72534185D03*
X-32538648Y32034185D03*
X-32538648Y-8465815D03*
X-32538648Y-48965815D03*
G04 #@! TO.N,/D8_WIFI_WAKE*
X-25247600Y73685400D03*
X-25247600Y33185400D03*
X-25247600Y-7314600D03*
X-25247600Y-47814600D03*
G04 #@! TO.N,/A4_GPS_EN*
X-28263093Y75352349D03*
X-6127735Y75103832D03*
X-28263093Y34852349D03*
X-6127735Y34603832D03*
X-28263093Y-5647651D03*
X-6127735Y-5896168D03*
X-28263093Y-46147651D03*
X-6127735Y-46396168D03*
G04 #@! TO.N,/D5_RADIO_CS*
X-23679703Y67339390D03*
X-23679703Y26839390D03*
X-23679703Y-13660610D03*
X-23679703Y-54160610D03*
G04 #@! TO.N,/D26_FLASH_CS*
X-35801488Y56997600D03*
X-22206881Y60486056D03*
X-35801488Y16497600D03*
X-22206881Y19986056D03*
X-35801488Y-24002400D03*
X-22206881Y-20513944D03*
X-22206881Y-61013944D03*
X-35801488Y-64502400D03*
G04 #@! TO.N,/D25_PERIPH_EN*
X-28655190Y75873790D03*
X-24434800Y76301600D03*
X-24434800Y35801600D03*
X-28655190Y35373790D03*
X-28655190Y-5126210D03*
X-24434800Y-4698400D03*
X-24434800Y-45198400D03*
X-28655190Y-45626210D03*
G04 #@! TO.N,/GPS_PWR_FILT*
X10591800Y66598800D03*
X17830800Y65328800D03*
X16306800Y65328800D03*
X14782800Y65328800D03*
X13258800Y65328800D03*
X11734800Y65328800D03*
X10210800Y65328800D03*
X13258800Y66598800D03*
X14782800Y66598800D03*
X16306800Y66598800D03*
X17830800Y66598800D03*
X16306800Y24828800D03*
X13258800Y26098800D03*
X17830800Y26098800D03*
X11734800Y24828800D03*
X14782800Y26098800D03*
X14782800Y24828800D03*
X13258800Y24828800D03*
X17830800Y24828800D03*
X10210800Y24828800D03*
X16306800Y26098800D03*
X10591800Y26098800D03*
X16306800Y-15671200D03*
X13258800Y-14401200D03*
X11734800Y-15671200D03*
X10210800Y-15671200D03*
X17830800Y-15671200D03*
X16306800Y-14401200D03*
X14782800Y-14401200D03*
X13258800Y-15671200D03*
X14782800Y-15671200D03*
X10591800Y-14401200D03*
X17830800Y-14401200D03*
X16306800Y-54901200D03*
X10591800Y-54901200D03*
X11734800Y-56171200D03*
X13258800Y-56171200D03*
X14782800Y-56171200D03*
X17830800Y-54901200D03*
X17830800Y-56171200D03*
X14782800Y-54901200D03*
X10210800Y-56171200D03*
X16306800Y-56171200D03*
X13258800Y-54901200D03*
G04 #@! TO.N,Net-(J15-Pad1)*
X-5806297Y67156855D03*
X-5537200Y67360800D03*
X-2743200Y67360800D03*
X-4140200Y67995800D03*
X-4140200Y66598800D03*
X-4140200Y27495800D03*
X-4140200Y26098800D03*
X-5806297Y26656855D03*
X-5537200Y26860800D03*
X-2743200Y26860800D03*
X-4140200Y-13004200D03*
X-4140200Y-14401200D03*
X-5537200Y-13639200D03*
X-2743200Y-13639200D03*
X-5806297Y-13843145D03*
X-5806297Y-54343145D03*
X-4140200Y-53504200D03*
X-4140200Y-54901200D03*
X-2743200Y-54139200D03*
X-5537200Y-54139200D03*
G04 #@! TO.N,/SDA1*
X-51892200Y68280800D03*
X-18112247Y68249800D03*
X-43637200Y85902800D03*
X-9876610Y71399400D03*
X-10185400Y80441800D03*
X-28295600Y85979000D03*
X-31292802Y85394800D03*
X2489200Y62788800D03*
X-51892200Y27780800D03*
X-9876610Y30899400D03*
X-18112247Y27749800D03*
X-31292802Y44894800D03*
X-10185400Y39941800D03*
X-28295600Y45479000D03*
X-43637200Y45402800D03*
X2489200Y22288800D03*
X-43637200Y4902800D03*
X-51892200Y-12719200D03*
X-28295600Y4979000D03*
X-18112247Y-12750200D03*
X-31292802Y4394800D03*
X-10185400Y-558200D03*
X2489200Y-18211200D03*
X-9876610Y-9600600D03*
X-28295600Y-35521000D03*
X-51892200Y-53219200D03*
X2489200Y-58711200D03*
X-31292802Y-36105200D03*
X-10185400Y-41058200D03*
X-43637200Y-35597200D03*
X-18112247Y-53250200D03*
X-9876610Y-50100600D03*
G04 #@! TO.N,/SCL1*
X-10261588Y79793852D03*
X-53744001Y69314531D03*
X-12065000Y72495570D03*
X3200400Y63195200D03*
X-17300727Y68592779D03*
X-42341800Y88163400D03*
X-29387800Y86893400D03*
X-12065000Y31995570D03*
X3200400Y22695200D03*
X-29387800Y46393400D03*
X-17300727Y28092779D03*
X-42341800Y47663400D03*
X-53744001Y28814531D03*
X-10261588Y39293852D03*
X-17300727Y-12407221D03*
X-10261588Y-1206148D03*
X-42341800Y7163400D03*
X-12065000Y-8504430D03*
X3200400Y-17804800D03*
X-29387800Y5893400D03*
X-53744001Y-11685469D03*
X-42341800Y-33336600D03*
X-29387800Y-34606600D03*
X-12065000Y-49004430D03*
X3200400Y-58304800D03*
X-10261588Y-41706148D03*
X-17300727Y-52907221D03*
X-53744001Y-52185469D03*
G04 #@! TO.N,Net-(C40-Pad1)*
X-58623200Y68630800D03*
X-59766200Y63931800D03*
X-59766200Y23431800D03*
X-58623200Y28130800D03*
X-58623200Y-12369200D03*
X-59766200Y-17068200D03*
X-58623200Y-52869200D03*
X-59766200Y-57568200D03*
G04 #@! TO.N,Net-(J16-Pad4)*
X-17348200Y82600800D03*
X-17348200Y42100800D03*
X-17348200Y1600800D03*
X-17348200Y-38899200D03*
G04 #@! TO.N,/A3_STATUS*
X-26212800Y74218800D03*
X10083800Y86664800D03*
X-177800Y81965800D03*
X10083800Y46164800D03*
X-26212800Y33718800D03*
X-177800Y41465800D03*
X-26212800Y-6781200D03*
X10083800Y5664800D03*
X-177800Y965800D03*
X10083800Y-34835200D03*
X-177800Y-39534200D03*
X-26212800Y-47281200D03*
G04 #@! TO.N,/D9_I2S_DATA*
X-29967027Y74517048D03*
X-29722202Y81835793D03*
X-29967027Y34017048D03*
X-29722202Y41335793D03*
X-29967027Y-6482952D03*
X-29722202Y835793D03*
X-29967027Y-46982952D03*
X-29722202Y-39664207D03*
G04 #@! TO.N,/D1_I2S_BCLK*
X-26517600Y72491600D03*
X-28134368Y82474176D03*
X-26517600Y31991600D03*
X-28134368Y41974176D03*
X-28134368Y1474176D03*
X-26517600Y-8508400D03*
X-28134368Y-39025824D03*
X-26517600Y-49008400D03*
G04 #@! TO.N,/D0_I2S_WS*
X-26316861Y71508034D03*
X-28786188Y82446394D03*
X-28786188Y41946394D03*
X-26316861Y31008034D03*
X-26316861Y-9491966D03*
X-28786188Y1446394D03*
X-26316861Y-49991966D03*
X-28786188Y-39053606D03*
G04 #@! TO.N,/LORA_D0*
X-23813476Y69033210D03*
X-23813476Y28533210D03*
X-23813476Y-11966790D03*
X-23813476Y-52466790D03*
G04 #@! TO.N,/LORA_D2*
X-16611600Y64135000D03*
X-16611600Y23635000D03*
X-16611600Y-16865000D03*
X-16611600Y-57365000D03*
G04 #@! TO.N,/LORA_D1*
X-14627780Y73714790D03*
X-14627780Y33214790D03*
X-14627780Y-7285210D03*
X-14627780Y-47785210D03*
G04 #@! TO.N,/A5_BATT_V*
X-57607200Y72948800D03*
X-33549576Y72948800D03*
X-57607200Y32448800D03*
X-33549576Y32448800D03*
X-57607200Y-8051200D03*
X-33549576Y-8051200D03*
X-57607200Y-48551200D03*
X-33549576Y-48551200D03*
G04 #@! TO.N,/A5_MODULE_EN*
X-35001200Y79679800D03*
X-39674800Y76758800D03*
X-39674800Y36258800D03*
X-35001200Y39179800D03*
X-35001200Y-1320200D03*
X-39674800Y-4241200D03*
X-35001200Y-41820200D03*
X-39674800Y-44741200D03*
G04 #@! TD*
D36*
G04 #@! TO.N,GND*
X-66435750Y56182670D02*
X-66435750Y54976250D01*
X-66435750Y54976250D02*
X-66497200Y54914800D01*
D37*
X-51572300Y58853070D02*
X-51572300Y58409700D01*
X-51572300Y58409700D02*
X-51638200Y58343800D01*
X-49757330Y53428900D02*
X-50012647Y53684217D01*
X-48854360Y53428900D02*
X-49757330Y53428900D01*
X-50012647Y53688648D02*
X-50012647Y54042201D01*
X-50012647Y53684217D02*
X-50012647Y53688648D01*
D36*
X-62363534Y70912940D02*
X-62306202Y70855608D01*
X-62306202Y70855608D02*
X-62306202Y70127353D01*
X-62306202Y70127353D02*
X-62306202Y69773800D01*
X-44122400Y80290800D02*
X-45032800Y80290800D01*
X-45032800Y80290800D02*
X-45059600Y80264000D01*
X-44122400Y80290800D02*
X-43204000Y80290800D01*
X-43204000Y80290800D02*
X-43180000Y80314800D01*
D37*
X-38752780Y56829960D02*
X-38752780Y57782460D01*
X-38784710Y57814390D02*
X-38811200Y57814390D01*
X-38752780Y57782460D02*
X-38784710Y57814390D01*
X-35653980Y54330600D02*
X-35653980Y53320663D01*
X-35637776Y53304459D02*
X-35387777Y53054460D01*
X-35653980Y53320663D02*
X-35637776Y53304459D01*
D36*
X10642600Y69402960D02*
X12029440Y69402960D01*
D38*
X-4141200Y65327800D02*
X-4775200Y64693800D01*
X-4141200Y65328800D02*
X-4141200Y65327800D01*
D39*
X-20141200Y53328800D02*
X-19061200Y53328800D01*
D37*
X-13919200Y79298800D02*
X-15443200Y79298800D01*
X-21654476Y67018724D02*
X-21654476Y66605495D01*
X-20141200Y67328800D02*
X-21344400Y67328800D01*
X-21344400Y67328800D02*
X-21654476Y67018724D01*
D36*
X26644600Y67901820D02*
X25483820Y67901820D01*
X25483820Y67901820D02*
X25450800Y67868800D01*
X26644600Y67901820D02*
X27830780Y67901820D01*
X27830780Y67901820D02*
X27863800Y67868800D01*
X26644600Y78402180D02*
X27744420Y78402180D01*
X27744420Y78402180D02*
X27800300Y78346300D01*
X26644600Y78402180D02*
X25887680Y78402180D01*
X25887680Y78402180D02*
X25387300Y77901800D01*
D40*
X-14546603Y83315203D02*
X-14308980Y83315203D01*
X-15316200Y85013800D02*
X-15316200Y84084800D01*
X-15316200Y84084800D02*
X-14546603Y83315203D01*
D36*
X10642600Y76901040D02*
X9464040Y76901040D01*
X9464040Y76901040D02*
X9448800Y76885800D01*
D37*
X-13453600Y78943200D02*
X-13317130Y78943200D01*
X-12274165Y77900235D02*
X-12024166Y77650236D01*
X-13317130Y78943200D02*
X-12274165Y77900235D01*
D39*
X-24116476Y85528495D02*
X-24116476Y84709000D01*
X-24116476Y84709000D02*
X-24116476Y83877495D01*
X-23647400Y85997571D02*
X-24116476Y85528495D01*
X-23647400Y86182200D02*
X-23647400Y85997571D01*
D37*
X-51572300Y18353070D02*
X-51572300Y17909700D01*
X-51572300Y17909700D02*
X-51638200Y17843800D01*
D36*
X-62363534Y30412940D02*
X-62306202Y30355608D01*
X-62306202Y30355608D02*
X-62306202Y29627353D01*
X-66435750Y15682670D02*
X-66435750Y14476250D01*
D37*
X-48854360Y12928900D02*
X-49757330Y12928900D01*
D36*
X-66435750Y14476250D02*
X-66497200Y14414800D01*
D37*
X-50012647Y13188648D02*
X-50012647Y13542201D01*
X-50012647Y13184217D02*
X-50012647Y13188648D01*
D36*
X-62306202Y29627353D02*
X-62306202Y29273800D01*
X-44122400Y39790800D02*
X-45032800Y39790800D01*
D37*
X-49757330Y12928900D02*
X-50012647Y13184217D01*
D39*
X-24116476Y44209000D02*
X-24116476Y43377495D01*
X-24116476Y45028495D02*
X-24116476Y44209000D01*
X-23647400Y45497571D02*
X-24116476Y45028495D01*
X-23647400Y45682200D02*
X-23647400Y45497571D01*
D40*
X-15316200Y43584800D02*
X-14546603Y42815203D01*
D36*
X9464040Y36401040D02*
X9448800Y36385800D01*
X25887680Y37902180D02*
X25387300Y37401800D01*
D37*
X-13453600Y38443200D02*
X-13317130Y38443200D01*
X-12274165Y37400235D02*
X-12024166Y37150236D01*
D36*
X10642600Y36401040D02*
X9464040Y36401040D01*
X27830780Y27401820D02*
X27863800Y27368800D01*
D40*
X-15316200Y44513800D02*
X-15316200Y43584800D01*
D37*
X-13317130Y38443200D02*
X-12274165Y37400235D01*
X-20141200Y26828800D02*
X-21344400Y26828800D01*
D36*
X26644600Y27401820D02*
X27830780Y27401820D01*
X26644600Y37902180D02*
X27744420Y37902180D01*
X25483820Y27401820D02*
X25450800Y27368800D01*
X26644600Y27401820D02*
X25483820Y27401820D01*
X27744420Y37902180D02*
X27800300Y37846300D01*
X26644600Y37902180D02*
X25887680Y37902180D01*
D37*
X-21344400Y26828800D02*
X-21654476Y26518724D01*
D40*
X-14546603Y42815203D02*
X-14308980Y42815203D01*
D37*
X-38784710Y17314390D02*
X-38811200Y17314390D01*
D36*
X10642600Y28902960D02*
X12029440Y28902960D01*
D37*
X-35653980Y12820663D02*
X-35637776Y12804459D01*
D38*
X-4141200Y24828800D02*
X-4141200Y24827800D01*
D36*
X-44122400Y39790800D02*
X-43204000Y39790800D01*
D39*
X-20141200Y12828800D02*
X-19061200Y12828800D01*
D38*
X-4141200Y24827800D02*
X-4775200Y24193800D01*
D37*
X-13919200Y38798800D02*
X-15443200Y38798800D01*
X-21654476Y26518724D02*
X-21654476Y26105495D01*
D36*
X-43204000Y39790800D02*
X-43180000Y39814800D01*
D37*
X-38752780Y16329960D02*
X-38752780Y17282460D01*
X-35653980Y13830600D02*
X-35653980Y12820663D01*
X-35637776Y12804459D02*
X-35387777Y12554460D01*
D36*
X-45032800Y39790800D02*
X-45059600Y39764000D01*
D37*
X-38752780Y17282460D02*
X-38784710Y17314390D01*
X-48854360Y-27571100D02*
X-49757330Y-27571100D01*
D36*
X-62363534Y-10087060D02*
X-62306202Y-10144392D01*
X-62306202Y-10144392D02*
X-62306202Y-10872647D01*
X-66435750Y-24817330D02*
X-66435750Y-26023750D01*
D37*
X-51572300Y-22146930D02*
X-51572300Y-22590300D01*
X-51572300Y-22590300D02*
X-51638200Y-22656200D01*
D39*
X-23647400Y4997571D02*
X-24116476Y4528495D01*
X-24116476Y4528495D02*
X-24116476Y3709000D01*
D37*
X-50012647Y-27311352D02*
X-50012647Y-26957799D01*
D36*
X-62306202Y-10872647D02*
X-62306202Y-11226200D01*
D37*
X-50012647Y-27315783D02*
X-50012647Y-27311352D01*
D36*
X-66435750Y-26023750D02*
X-66497200Y-26085200D01*
D39*
X-24116476Y3709000D02*
X-24116476Y2877495D01*
D38*
X-4141200Y-15672200D02*
X-4775200Y-16306200D01*
D37*
X-38752780Y-24170040D02*
X-38752780Y-23217540D01*
X-13919200Y-1701200D02*
X-15443200Y-1701200D01*
X-35653980Y-26669400D02*
X-35653980Y-27679337D01*
D36*
X10642600Y-11597040D02*
X12029440Y-11597040D01*
X-43204000Y-709200D02*
X-43180000Y-685200D01*
D38*
X-4141200Y-15671200D02*
X-4141200Y-15672200D01*
D37*
X-21654476Y-13981276D02*
X-21654476Y-14394505D01*
X-35637776Y-27695541D02*
X-35387777Y-27945540D01*
D36*
X-44122400Y-709200D02*
X-43204000Y-709200D01*
X-45032800Y-709200D02*
X-45059600Y-736000D01*
D39*
X-20141200Y-27671200D02*
X-19061200Y-27671200D01*
D37*
X-35653980Y-27679337D02*
X-35637776Y-27695541D01*
X-38752780Y-23217540D02*
X-38784710Y-23185610D01*
X-12274165Y-3099765D02*
X-12024166Y-3349764D01*
D36*
X10642600Y-4098960D02*
X9464040Y-4098960D01*
D40*
X-15316200Y4013800D02*
X-15316200Y3084800D01*
D36*
X25887680Y-2597820D02*
X25387300Y-3098200D01*
D40*
X-15316200Y3084800D02*
X-14546603Y2315203D01*
D37*
X-13453600Y-2056800D02*
X-13317130Y-2056800D01*
D36*
X27830780Y-13098180D02*
X27863800Y-13131200D01*
X9464040Y-4098960D02*
X9448800Y-4114200D01*
D37*
X-13317130Y-2056800D02*
X-12274165Y-3099765D01*
D36*
X25483820Y-13098180D02*
X25450800Y-13131200D01*
D37*
X-38784710Y-23185610D02*
X-38811200Y-23185610D01*
D36*
X27744420Y-2597820D02*
X27800300Y-2653700D01*
D40*
X-14546603Y2315203D02*
X-14308980Y2315203D01*
D36*
X26644600Y-2597820D02*
X25887680Y-2597820D01*
X26644600Y-2597820D02*
X27744420Y-2597820D01*
X26644600Y-13098180D02*
X27830780Y-13098180D01*
X26644600Y-13098180D02*
X25483820Y-13098180D01*
D37*
X-21344400Y-13671200D02*
X-21654476Y-13981276D01*
X-20141200Y-13671200D02*
X-21344400Y-13671200D01*
D36*
X-44122400Y-709200D02*
X-45032800Y-709200D01*
D37*
X-49757330Y-27571100D02*
X-50012647Y-27315783D01*
D39*
X-23647400Y5182200D02*
X-23647400Y4997571D01*
D37*
X-48854360Y-68071100D02*
X-49757330Y-68071100D01*
D36*
X-62363534Y-50587060D02*
X-62306202Y-50644392D01*
X-62306202Y-50644392D02*
X-62306202Y-51372647D01*
X-66435750Y-65317330D02*
X-66435750Y-66523750D01*
D37*
X-51572300Y-62646930D02*
X-51572300Y-63090300D01*
X-51572300Y-63090300D02*
X-51638200Y-63156200D01*
D39*
X-24116476Y-35971505D02*
X-24116476Y-36791000D01*
D36*
X-66435750Y-66523750D02*
X-66497200Y-66585200D01*
D37*
X-50012647Y-67811352D02*
X-50012647Y-67457799D01*
D39*
X-23647400Y-35502429D02*
X-24116476Y-35971505D01*
D36*
X-62306202Y-51372647D02*
X-62306202Y-51726200D01*
D37*
X-50012647Y-67815783D02*
X-50012647Y-67811352D01*
D38*
X-4141200Y-56172200D02*
X-4775200Y-56806200D01*
D37*
X-13919200Y-42201200D02*
X-15443200Y-42201200D01*
X-38752780Y-64670040D02*
X-38752780Y-63717540D01*
X-35653980Y-67169400D02*
X-35653980Y-68179337D01*
D36*
X-43204000Y-41209200D02*
X-43180000Y-41185200D01*
D38*
X-4141200Y-56171200D02*
X-4141200Y-56172200D01*
D36*
X10642600Y-52097040D02*
X12029440Y-52097040D01*
D37*
X-21654476Y-54481276D02*
X-21654476Y-54894505D01*
D36*
X-44122400Y-41209200D02*
X-43204000Y-41209200D01*
D37*
X-35637776Y-68195541D02*
X-35387777Y-68445540D01*
D36*
X-45032800Y-41209200D02*
X-45059600Y-41236000D01*
D37*
X-35653980Y-68179337D02*
X-35637776Y-68195541D01*
D39*
X-20141200Y-68171200D02*
X-19061200Y-68171200D01*
D37*
X-38752780Y-63717540D02*
X-38784710Y-63685610D01*
D39*
X-24116476Y-36791000D02*
X-24116476Y-37622505D01*
D37*
X-12274165Y-43599765D02*
X-12024166Y-43849764D01*
D36*
X27830780Y-53598180D02*
X27863800Y-53631200D01*
X9464040Y-44598960D02*
X9448800Y-44614200D01*
D40*
X-15316200Y-37415200D02*
X-14546603Y-38184797D01*
D37*
X-13453600Y-42556800D02*
X-13317130Y-42556800D01*
X-13317130Y-42556800D02*
X-12274165Y-43599765D01*
D36*
X10642600Y-44598960D02*
X9464040Y-44598960D01*
X25483820Y-53598180D02*
X25450800Y-53631200D01*
X25887680Y-43097820D02*
X25387300Y-43598200D01*
D37*
X-38784710Y-63685610D02*
X-38811200Y-63685610D01*
D40*
X-15316200Y-36486200D02*
X-15316200Y-37415200D01*
D37*
X-21344400Y-54171200D02*
X-21654476Y-54481276D01*
X-20141200Y-54171200D02*
X-21344400Y-54171200D01*
D40*
X-14546603Y-38184797D02*
X-14308980Y-38184797D01*
D36*
X27744420Y-43097820D02*
X27800300Y-43153700D01*
X26644600Y-53598180D02*
X27830780Y-53598180D01*
X26644600Y-53598180D02*
X25483820Y-53598180D01*
X26644600Y-43097820D02*
X27744420Y-43097820D01*
X26644600Y-43097820D02*
X25887680Y-43097820D01*
X-44122400Y-41209200D02*
X-45032800Y-41209200D01*
D37*
X-49757330Y-68071100D02*
X-50012647Y-67815783D01*
D39*
X-23647400Y-35317800D02*
X-23647400Y-35502429D01*
D37*
G04 #@! TO.N,/SWCLK*
X-12014200Y61899800D02*
X-14046200Y61899800D01*
X-11633200Y62280800D02*
X-12014200Y61899800D01*
X-14811312Y70013934D02*
X-14811312Y70367487D01*
X-14811312Y62664912D02*
X-14811312Y70013934D01*
X-14046200Y61899800D02*
X-14811312Y62664912D01*
X-23749000Y78232000D02*
X-23749000Y76454000D01*
X-23749000Y76454000D02*
X-22936200Y75641200D01*
X-12014200Y21399800D02*
X-14046200Y21399800D01*
X-14811312Y29513934D02*
X-14811312Y29867487D01*
X-14046200Y21399800D02*
X-14811312Y22164912D01*
X-14811312Y22164912D02*
X-14811312Y29513934D01*
X-11633200Y21780800D02*
X-12014200Y21399800D01*
X-23749000Y35954000D02*
X-22936200Y35141200D01*
X-23749000Y37732000D02*
X-23749000Y35954000D01*
X-14811312Y-18335088D02*
X-14811312Y-10986066D01*
X-11633200Y-18719200D02*
X-12014200Y-19100200D01*
X-23749000Y-4546000D02*
X-22936200Y-5358800D01*
X-23749000Y-2768000D02*
X-23749000Y-4546000D01*
X-14046200Y-19100200D02*
X-14811312Y-18335088D01*
X-12014200Y-19100200D02*
X-14046200Y-19100200D01*
X-14811312Y-10986066D02*
X-14811312Y-10632513D01*
X-11633200Y-59219200D02*
X-12014200Y-59600200D01*
X-14811312Y-58835088D02*
X-14811312Y-51486066D01*
X-23749000Y-45046000D02*
X-22936200Y-45858800D01*
X-23749000Y-43268000D02*
X-23749000Y-45046000D01*
X-14046200Y-59600200D02*
X-14811312Y-58835088D01*
X-14811312Y-51486066D02*
X-14811312Y-51132513D01*
X-12014200Y-59600200D02*
X-14046200Y-59600200D01*
G04 #@! TO.N,/SWDIO*
X-12903200Y69160164D02*
X-13910845Y70167809D01*
X-13910845Y70167809D02*
X-14160844Y70417808D01*
X-12903200Y62403810D02*
X-12903200Y69160164D01*
X-19659600Y78181200D02*
X-21539200Y76301600D01*
X-21539200Y76301600D02*
X-22555200Y76301600D01*
X-12903200Y21903810D02*
X-12903200Y28660164D01*
X-13910845Y29667809D02*
X-14160844Y29917808D01*
X-12903200Y28660164D02*
X-13910845Y29667809D01*
X-19659600Y37681200D02*
X-21539200Y35801600D01*
X-21539200Y35801600D02*
X-22555200Y35801600D01*
X-21539200Y-4698400D02*
X-22555200Y-4698400D01*
X-19659600Y-2818800D02*
X-21539200Y-4698400D01*
X-13910845Y-10832191D02*
X-14160844Y-10582192D01*
X-12903200Y-18596190D02*
X-12903200Y-11839836D01*
X-12903200Y-11839836D02*
X-13910845Y-10832191D01*
X-21539200Y-45198400D02*
X-22555200Y-45198400D01*
X-12903200Y-59096190D02*
X-12903200Y-52339836D01*
X-19659600Y-43318800D02*
X-21539200Y-45198400D01*
X-12903200Y-52339836D02*
X-13910845Y-51332191D01*
X-13910845Y-51332191D02*
X-14160844Y-51082192D01*
G04 #@! TO.N,/MOSI*
X-48209200Y63703200D02*
X-48260000Y63652400D01*
X-47955200Y63703200D02*
X-48209200Y63703200D01*
X-42544978Y58673978D02*
X-42054780Y58183780D01*
X-42054780Y58183780D02*
X-42054780Y57231280D01*
X-46075579Y58673978D02*
X-42544978Y58673978D01*
X-47955201Y60553600D02*
X-46075579Y58673978D01*
X-47955200Y63703200D02*
X-47955201Y60553600D01*
X-20013200Y57200800D02*
X-20141200Y57328800D01*
X-18999200Y57200800D02*
X-20013200Y57200800D01*
X-46384390Y63296800D02*
X-46134391Y63046801D01*
X-50723800Y66852800D02*
X-47955200Y64084200D01*
X-47955200Y64084200D02*
X-47955200Y63703200D01*
X-56005390Y66852800D02*
X-50723800Y66852800D01*
X-59315530Y70162940D02*
X-56005390Y66852800D01*
X-59315530Y70912940D02*
X-59315530Y70162940D01*
X-24559753Y61391798D02*
X-24839151Y61112400D01*
X-24206200Y61391798D02*
X-24559753Y61391798D01*
X-24839151Y61112400D02*
X-44754800Y61112400D01*
X-44754800Y61667210D02*
X-46384390Y63296800D01*
X-44754800Y61112400D02*
X-44754800Y61667210D01*
X-56005390Y26352800D02*
X-50723800Y26352800D01*
X-48209200Y23203200D02*
X-48260000Y23152400D01*
X-47955200Y23203200D02*
X-47955201Y20053600D01*
X-20013200Y16700800D02*
X-20141200Y16828800D01*
X-59315530Y30412940D02*
X-59315530Y29662940D01*
X-24559753Y20891798D02*
X-24839151Y20612400D01*
X-59315530Y29662940D02*
X-56005390Y26352800D01*
X-50723800Y26352800D02*
X-47955200Y23584200D01*
X-44754800Y21167210D02*
X-46384390Y22796800D01*
X-47955200Y23584200D02*
X-47955200Y23203200D01*
X-47955200Y23203200D02*
X-48209200Y23203200D01*
X-42544978Y18173978D02*
X-42054780Y17683780D01*
X-18999200Y16700800D02*
X-20013200Y16700800D01*
X-46384390Y22796800D02*
X-46134391Y22546801D01*
X-46075579Y18173978D02*
X-42544978Y18173978D01*
X-47955201Y20053600D02*
X-46075579Y18173978D01*
X-42054780Y17683780D02*
X-42054780Y16731280D01*
X-44754800Y20612400D02*
X-44754800Y21167210D01*
X-24839151Y20612400D02*
X-44754800Y20612400D01*
X-24206200Y20891798D02*
X-24559753Y20891798D01*
X-59315530Y-10087060D02*
X-59315530Y-10837060D01*
X-47955200Y-16915800D02*
X-47955200Y-17296800D01*
X-50723800Y-14147200D02*
X-47955200Y-16915800D01*
X-44754800Y-19332790D02*
X-46384390Y-17703200D01*
X-47955200Y-17296800D02*
X-48209200Y-17296800D01*
X-59315530Y-10837060D02*
X-56005390Y-14147200D01*
X-24559753Y-19608202D02*
X-24839151Y-19887600D01*
X-44754800Y-19887600D02*
X-44754800Y-19332790D01*
X-24206200Y-19608202D02*
X-24559753Y-19608202D01*
X-18999200Y-23799200D02*
X-20013200Y-23799200D01*
X-46075579Y-22326022D02*
X-42544978Y-22326022D01*
X-47955201Y-20446400D02*
X-46075579Y-22326022D01*
X-46384390Y-17703200D02*
X-46134391Y-17953199D01*
X-42054780Y-22816220D02*
X-42054780Y-23768720D01*
X-24839151Y-19887600D02*
X-44754800Y-19887600D01*
X-42544978Y-22326022D02*
X-42054780Y-22816220D01*
X-47955200Y-17296800D02*
X-47955201Y-20446400D01*
X-48209200Y-17296800D02*
X-48260000Y-17347600D01*
X-20013200Y-23799200D02*
X-20141200Y-23671200D01*
X-56005390Y-14147200D02*
X-50723800Y-14147200D01*
X-50723800Y-54647200D02*
X-47955200Y-57415800D01*
X-47955200Y-57415800D02*
X-47955200Y-57796800D01*
X-47955200Y-57796800D02*
X-48209200Y-57796800D01*
X-44754800Y-59832790D02*
X-46384390Y-58203200D01*
X-24559753Y-60108202D02*
X-24839151Y-60387600D01*
X-59315530Y-50587060D02*
X-59315530Y-51337060D01*
X-59315530Y-51337060D02*
X-56005390Y-54647200D01*
X-46075579Y-62826022D02*
X-42544978Y-62826022D01*
X-47955201Y-60946400D02*
X-46075579Y-62826022D01*
X-46384390Y-58203200D02*
X-46134391Y-58453199D01*
X-44754800Y-60387600D02*
X-44754800Y-59832790D01*
X-24206200Y-60108202D02*
X-24559753Y-60108202D01*
X-18999200Y-64299200D02*
X-20013200Y-64299200D01*
X-56005390Y-54647200D02*
X-50723800Y-54647200D01*
X-42544978Y-62826022D02*
X-42054780Y-63316220D01*
X-20013200Y-64299200D02*
X-20141200Y-64171200D01*
X-42054780Y-63316220D02*
X-42054780Y-64268720D01*
X-24839151Y-60387600D02*
X-44754800Y-60387600D01*
X-47955200Y-57796800D02*
X-47955201Y-60946400D01*
X-48209200Y-57796800D02*
X-48260000Y-57847600D01*
G04 #@! TO.N,/MISO*
X-45669200Y59842400D02*
X-45567600Y59842400D01*
X-37642800Y57241440D02*
X-37652960Y57231280D01*
X-37642800Y58928000D02*
X-37642800Y57241440D01*
X-45212000Y59385200D02*
X-38709600Y59385200D01*
X-37652960Y58328560D02*
X-37652960Y57231280D01*
X-38709600Y59385200D02*
X-37652960Y58328560D01*
X-45669200Y59842400D02*
X-45212000Y59385200D01*
X-20491200Y55328800D02*
X-20141200Y55328800D01*
X-21543602Y56381202D02*
X-20491200Y55328800D01*
X-21543602Y57454800D02*
X-21543602Y56381202D01*
X-23095146Y60838132D02*
X-23095146Y61866446D01*
X-37652960Y57231280D02*
X-37652960Y57631330D01*
X-23942479Y59990799D02*
X-23095146Y60838132D01*
X-23095146Y61866446D02*
X-23345145Y62116445D01*
X-37652960Y57631330D02*
X-35293491Y59990799D01*
X-35293491Y59990799D02*
X-23942479Y59990799D01*
X-56721532Y72066140D02*
X-56670731Y72116941D01*
X-53136811Y67589411D02*
X-50088811Y67589411D01*
X-46888400Y64389000D02*
X-46888400Y60756800D01*
X-45974000Y59842400D02*
X-45669200Y59842400D01*
X-54848329Y72116941D02*
X-54432200Y71700812D01*
X-46888400Y60756800D02*
X-45974000Y59842400D01*
X-57283530Y71662940D02*
X-56880330Y72066140D01*
X-56880330Y72066140D02*
X-56721532Y72066140D01*
X-56670731Y72116941D02*
X-54848329Y72116941D01*
X-54432200Y71700812D02*
X-54432200Y68884800D01*
X-50088811Y67589411D02*
X-46888400Y64389000D01*
X-54432200Y68884800D02*
X-53136811Y67589411D01*
X-57283530Y70912940D02*
X-57283530Y71662940D01*
X-37642800Y18428000D02*
X-37642800Y16741440D01*
X-56670731Y31616941D02*
X-54848329Y31616941D01*
X-54432200Y31200812D02*
X-54432200Y28384800D01*
X-38709600Y18885200D02*
X-37652960Y17828560D01*
X-23942479Y19490799D02*
X-23095146Y20338132D01*
X-50088811Y27089411D02*
X-46888400Y23889000D01*
X-54432200Y28384800D02*
X-53136811Y27089411D01*
X-21543602Y15881202D02*
X-20491200Y14828800D01*
X-23095146Y21366446D02*
X-23345145Y21616445D01*
X-56880330Y31566140D02*
X-56721532Y31566140D01*
X-45212000Y18885200D02*
X-38709600Y18885200D01*
X-37652960Y17828560D02*
X-37652960Y16731280D01*
X-23095146Y20338132D02*
X-23095146Y21366446D01*
X-56721532Y31566140D02*
X-56670731Y31616941D01*
X-45974000Y19342400D02*
X-45669200Y19342400D01*
X-45669200Y19342400D02*
X-45567600Y19342400D01*
X-57283530Y30412940D02*
X-57283530Y31162940D01*
X-20491200Y14828800D02*
X-20141200Y14828800D01*
X-21543602Y16954800D02*
X-21543602Y15881202D01*
X-37642800Y16741440D02*
X-37652960Y16731280D01*
X-37652960Y16731280D02*
X-37652960Y17131330D01*
X-37652960Y17131330D02*
X-35293491Y19490799D01*
X-35293491Y19490799D02*
X-23942479Y19490799D01*
X-45669200Y19342400D02*
X-45212000Y18885200D01*
X-53136811Y27089411D02*
X-50088811Y27089411D01*
X-46888400Y23889000D02*
X-46888400Y20256800D01*
X-54848329Y31616941D02*
X-54432200Y31200812D01*
X-46888400Y20256800D02*
X-45974000Y19342400D01*
X-57283530Y31162940D02*
X-56880330Y31566140D01*
X-46888400Y-20243200D02*
X-45974000Y-21157600D01*
X-53136811Y-13410589D02*
X-50088811Y-13410589D01*
X-35293491Y-21009201D02*
X-23942479Y-21009201D01*
X-54848329Y-8883059D02*
X-54432200Y-9299188D01*
X-37652960Y-23368670D02*
X-35293491Y-21009201D01*
X-45669200Y-21157600D02*
X-45212000Y-21614800D01*
X-37652960Y-23768720D02*
X-37652960Y-23368670D01*
X-57283530Y-9337060D02*
X-56880330Y-8933860D01*
X-46888400Y-16611000D02*
X-46888400Y-20243200D01*
X-50088811Y-13410589D02*
X-46888400Y-16611000D01*
X-21543602Y-24618798D02*
X-20491200Y-25671200D01*
X-45212000Y-21614800D02*
X-38709600Y-21614800D01*
X-54432200Y-9299188D02*
X-54432200Y-12115200D01*
X-37652960Y-22671440D02*
X-37652960Y-23768720D01*
X-23095146Y-20161868D02*
X-23095146Y-19133554D01*
X-45669200Y-21157600D02*
X-45567600Y-21157600D01*
X-23942479Y-21009201D02*
X-23095146Y-20161868D01*
X-56721532Y-8933860D02*
X-56670731Y-8883059D01*
X-57283530Y-10087060D02*
X-57283530Y-9337060D01*
X-21543602Y-23545200D02*
X-21543602Y-24618798D01*
X-38709600Y-21614800D02*
X-37652960Y-22671440D01*
X-54432200Y-12115200D02*
X-53136811Y-13410589D01*
X-23095146Y-19133554D02*
X-23345145Y-18883555D01*
X-56880330Y-8933860D02*
X-56721532Y-8933860D01*
X-20491200Y-25671200D02*
X-20141200Y-25671200D01*
X-37642800Y-22072000D02*
X-37642800Y-23758560D01*
X-45974000Y-21157600D02*
X-45669200Y-21157600D01*
X-37642800Y-23758560D02*
X-37652960Y-23768720D01*
X-56670731Y-8883059D02*
X-54848329Y-8883059D01*
X-54848329Y-49383059D02*
X-54432200Y-49799188D01*
X-45669200Y-61657600D02*
X-45212000Y-62114800D01*
X-53136811Y-53910589D02*
X-50088811Y-53910589D01*
X-46888400Y-60743200D02*
X-45974000Y-61657600D01*
X-57283530Y-49837060D02*
X-56880330Y-49433860D01*
X-35293491Y-61509201D02*
X-23942479Y-61509201D01*
X-46888400Y-57111000D02*
X-46888400Y-60743200D01*
X-37652960Y-63868670D02*
X-35293491Y-61509201D01*
X-37652960Y-64268720D02*
X-37652960Y-63868670D01*
X-50088811Y-53910589D02*
X-46888400Y-57111000D01*
X-54432200Y-52615200D02*
X-53136811Y-53910589D01*
X-57283530Y-50587060D02*
X-57283530Y-49837060D01*
X-21543602Y-65118798D02*
X-20491200Y-66171200D01*
X-23095146Y-60661868D02*
X-23095146Y-59633554D01*
X-37642800Y-62572000D02*
X-37642800Y-64258560D01*
X-45669200Y-61657600D02*
X-45567600Y-61657600D01*
X-37652960Y-63171440D02*
X-37652960Y-64268720D01*
X-45212000Y-62114800D02*
X-38709600Y-62114800D01*
X-45974000Y-61657600D02*
X-45669200Y-61657600D01*
X-56880330Y-49433860D02*
X-56721532Y-49433860D01*
X-23095146Y-59633554D02*
X-23345145Y-59383555D01*
X-20491200Y-66171200D02*
X-20141200Y-66171200D01*
X-56670731Y-49383059D02*
X-54848329Y-49383059D01*
X-21543602Y-64045200D02*
X-21543602Y-65118798D01*
X-56721532Y-49433860D02*
X-56670731Y-49383059D01*
X-54432200Y-49799188D02*
X-54432200Y-52615200D01*
X-23942479Y-61509201D02*
X-23095146Y-60661868D01*
X-37642800Y-64258560D02*
X-37652960Y-64268720D01*
X-38709600Y-62114800D02*
X-37652960Y-63171440D01*
G04 #@! TO.N,/SCK*
X-56267530Y69759740D02*
X-53741590Y67233800D01*
X-56267530Y70912940D02*
X-56267530Y69759740D01*
X-53741590Y67233800D02*
X-50241200Y67233800D01*
X-47625000Y64256908D02*
X-47599590Y64231498D01*
X-47625000Y64617600D02*
X-47625000Y64256908D01*
X-50241200Y67233800D02*
X-47625000Y64617600D01*
X-47599590Y64231498D02*
X-47599590Y62433200D01*
X-47447200Y61925200D02*
X-47396400Y61874400D01*
X-47599590Y61925200D02*
X-47447200Y61925200D01*
X-47599590Y62433200D02*
X-47599590Y61925200D01*
X-47599590Y61925200D02*
X-47599590Y60700898D01*
X-45928281Y59029589D02*
X-41253399Y59029589D01*
X-47599590Y60700898D02*
X-45928281Y59029589D01*
X-41253399Y59029589D02*
X-39855140Y57631330D01*
X-39855140Y57631330D02*
X-39855140Y57231280D01*
X-24038894Y60640306D02*
X-23788895Y60890305D01*
X-45048696Y60640306D02*
X-24038894Y60640306D01*
X-46384390Y61976000D02*
X-45048696Y60640306D01*
X-19410200Y58597800D02*
X-20141200Y59328800D01*
X-19380200Y58597800D02*
X-19410200Y58597800D01*
X-56267530Y30412940D02*
X-56267530Y29259740D01*
X-53741590Y26733800D02*
X-50241200Y26733800D01*
X-47625000Y23756908D02*
X-47599590Y23731498D01*
X-47447200Y21425200D02*
X-47396400Y21374400D01*
X-56267530Y29259740D02*
X-53741590Y26733800D01*
X-47599590Y21425200D02*
X-47447200Y21425200D01*
X-50241200Y26733800D02*
X-47625000Y24117600D01*
X-47625000Y24117600D02*
X-47625000Y23756908D01*
X-47599590Y23731498D02*
X-47599590Y21933200D01*
X-47599590Y21933200D02*
X-47599590Y21425200D01*
X-47599590Y20200898D02*
X-45928281Y18529589D01*
X-46384390Y21476000D02*
X-45048696Y20140306D01*
X-19380200Y18097800D02*
X-19410200Y18097800D01*
X-24038894Y20140306D02*
X-23788895Y20390305D01*
X-39855140Y17131330D02*
X-39855140Y16731280D01*
X-45048696Y20140306D02*
X-24038894Y20140306D01*
X-47599590Y21425200D02*
X-47599590Y20200898D01*
X-41253399Y18529589D02*
X-39855140Y17131330D01*
X-19410200Y18097800D02*
X-20141200Y18828800D01*
X-45928281Y18529589D02*
X-41253399Y18529589D01*
X-47599590Y-19074800D02*
X-47599590Y-20299102D01*
X-47599590Y-18566800D02*
X-47599590Y-19074800D01*
X-56267530Y-10087060D02*
X-56267530Y-11240260D01*
X-19380200Y-22402200D02*
X-19410200Y-22402200D01*
X-45048696Y-20359694D02*
X-24038894Y-20359694D01*
X-41253399Y-21970411D02*
X-39855140Y-23368670D01*
X-45928281Y-21970411D02*
X-41253399Y-21970411D01*
X-46384390Y-19024000D02*
X-45048696Y-20359694D01*
X-47599590Y-20299102D02*
X-45928281Y-21970411D01*
X-47625000Y-16743092D02*
X-47599590Y-16768502D01*
X-56267530Y-11240260D02*
X-53741590Y-13766200D01*
X-24038894Y-20359694D02*
X-23788895Y-20109695D01*
X-47599590Y-16768502D02*
X-47599590Y-18566800D01*
X-53741590Y-13766200D02*
X-50241200Y-13766200D01*
X-47599590Y-19074800D02*
X-47447200Y-19074800D01*
X-19410200Y-22402200D02*
X-20141200Y-21671200D01*
X-47625000Y-16382400D02*
X-47625000Y-16743092D01*
X-50241200Y-13766200D02*
X-47625000Y-16382400D01*
X-47447200Y-19074800D02*
X-47396400Y-19125600D01*
X-39855140Y-23368670D02*
X-39855140Y-23768720D01*
X-41253399Y-62470411D02*
X-39855140Y-63868670D01*
X-47599590Y-59574800D02*
X-47599590Y-60799102D01*
X-47599590Y-59066800D02*
X-47599590Y-59574800D01*
X-45928281Y-62470411D02*
X-41253399Y-62470411D01*
X-56267530Y-50587060D02*
X-56267530Y-51740260D01*
X-45048696Y-60859694D02*
X-24038894Y-60859694D01*
X-19380200Y-62902200D02*
X-19410200Y-62902200D01*
X-50241200Y-54266200D02*
X-47625000Y-56882400D01*
X-47625000Y-56882400D02*
X-47625000Y-57243092D01*
X-47599590Y-57268502D02*
X-47599590Y-59066800D01*
X-46384390Y-59524000D02*
X-45048696Y-60859694D01*
X-24038894Y-60859694D02*
X-23788895Y-60609695D01*
X-56267530Y-51740260D02*
X-53741590Y-54266200D01*
X-39855140Y-63868670D02*
X-39855140Y-64268720D01*
X-47599590Y-59574800D02*
X-47447200Y-59574800D01*
X-47447200Y-59574800D02*
X-47396400Y-59625600D01*
X-19410200Y-62902200D02*
X-20141200Y-62171200D01*
X-47599590Y-60799102D02*
X-45928281Y-62470411D01*
X-47625000Y-57243092D02*
X-47599590Y-57268502D01*
X-53741590Y-54266200D02*
X-50241200Y-54266200D01*
D36*
G04 #@! TO.N,3V3*
X-35610800Y77571600D02*
X-34798000Y77571600D01*
X-34798000Y77571600D02*
X-34544000Y77825600D01*
D38*
X26720800Y60375800D02*
X26720800Y59486800D01*
X-33731208Y69011800D02*
X-33473207Y69269801D01*
X-33473207Y69269801D02*
X-33223208Y69519800D01*
X-33858200Y69011800D02*
X-33731208Y69011800D01*
D36*
X6654800Y72821800D02*
X5638800Y72821800D01*
X-8849190Y85938190D02*
X-8849190Y85586069D01*
X-9970400Y86436200D02*
X-9347200Y86436200D01*
X-9347200Y86436200D02*
X-8849190Y85938190D01*
X-35610800Y37071600D02*
X-34798000Y37071600D01*
X6654800Y32321800D02*
X5638800Y32321800D01*
D38*
X-33858200Y28511800D02*
X-33731208Y28511800D01*
X26720800Y19875800D02*
X26720800Y18986800D01*
D36*
X-34798000Y37071600D02*
X-34544000Y37325600D01*
D38*
X-33731208Y28511800D02*
X-33473207Y28769801D01*
X-33473207Y28769801D02*
X-33223208Y29019800D01*
D36*
X-9347200Y45936200D02*
X-8849190Y45438190D01*
X-9970400Y45936200D02*
X-9347200Y45936200D01*
X-8849190Y45438190D02*
X-8849190Y45086069D01*
X-35610800Y-3428400D02*
X-34798000Y-3428400D01*
D38*
X26720800Y-20624200D02*
X26720800Y-21513200D01*
D36*
X6654800Y-8178200D02*
X5638800Y-8178200D01*
X-34798000Y-3428400D02*
X-34544000Y-3174400D01*
X-9970400Y5436200D02*
X-9347200Y5436200D01*
D38*
X-33858200Y-11988200D02*
X-33731208Y-11988200D01*
X-33731208Y-11988200D02*
X-33473207Y-11730199D01*
X-33473207Y-11730199D02*
X-33223208Y-11480200D01*
D36*
X-9347200Y5436200D02*
X-8849190Y4938190D01*
X-8849190Y4938190D02*
X-8849190Y4586069D01*
X-35610800Y-43928400D02*
X-34798000Y-43928400D01*
X-9347200Y-35063800D02*
X-8849190Y-35561810D01*
X6654800Y-48678200D02*
X5638800Y-48678200D01*
D38*
X26720800Y-61124200D02*
X26720800Y-62013200D01*
X-33473207Y-52230199D02*
X-33223208Y-51980200D01*
D36*
X-34798000Y-43928400D02*
X-34544000Y-43674400D01*
X-9970400Y-35063800D02*
X-9347200Y-35063800D01*
D38*
X-33858200Y-52488200D02*
X-33731208Y-52488200D01*
X-33731208Y-52488200D02*
X-33473207Y-52230199D01*
D36*
X-8849190Y-35561810D02*
X-8849190Y-35913931D01*
D37*
G04 #@! TO.N,/RESET*
X-22039477Y73464791D02*
X-22289476Y73714790D01*
X-19495476Y71431495D02*
X-20006181Y71431495D01*
X-11684000Y66471800D02*
X-12547600Y67335400D01*
X-19114476Y71812495D02*
X-19495476Y71431495D01*
X-7061200Y66471800D02*
X-11684000Y66471800D01*
X-14789495Y71812495D02*
X-19114476Y71812495D01*
X-12547600Y67335400D02*
X-12547600Y69570600D01*
X-12547600Y69570600D02*
X-14789495Y71812495D01*
X-20006181Y71431495D02*
X-22039477Y73464791D01*
X-14789495Y31312495D02*
X-19114476Y31312495D01*
X-11684000Y25971800D02*
X-12547600Y26835400D01*
X-19495476Y30931495D02*
X-20006181Y30931495D01*
X-12547600Y29070600D02*
X-14789495Y31312495D01*
X-19114476Y31312495D02*
X-19495476Y30931495D01*
X-12547600Y26835400D02*
X-12547600Y29070600D01*
X-20006181Y30931495D02*
X-22039477Y32964791D01*
X-7061200Y25971800D02*
X-11684000Y25971800D01*
X-22039477Y32964791D02*
X-22289476Y33214790D01*
X-14789495Y-9187505D02*
X-19114476Y-9187505D01*
X-12547600Y-13664600D02*
X-12547600Y-11429400D01*
X-19114476Y-9187505D02*
X-19495476Y-9568505D01*
X-20006181Y-9568505D02*
X-22039477Y-7535209D01*
X-7061200Y-14528200D02*
X-11684000Y-14528200D01*
X-19495476Y-9568505D02*
X-20006181Y-9568505D01*
X-11684000Y-14528200D02*
X-12547600Y-13664600D01*
X-12547600Y-11429400D02*
X-14789495Y-9187505D01*
X-22039477Y-7535209D02*
X-22289476Y-7285210D01*
X-12547600Y-54164600D02*
X-12547600Y-51929400D01*
X-20006181Y-50068505D02*
X-22039477Y-48035209D01*
X-19114476Y-49687505D02*
X-19495476Y-50068505D01*
X-19495476Y-50068505D02*
X-20006181Y-50068505D01*
X-7061200Y-55028200D02*
X-11684000Y-55028200D01*
X-14789495Y-49687505D02*
X-19114476Y-49687505D01*
X-22039477Y-48035209D02*
X-22289476Y-47785210D01*
X-12547600Y-51929400D02*
X-14789495Y-49687505D01*
X-11684000Y-55028200D02*
X-12547600Y-54164600D01*
D41*
G04 #@! TO.N,/USB-*
X-17266200Y85013800D02*
X-17266200Y83391130D01*
X-17826801Y82830529D02*
X-17826801Y82371071D01*
X-16467116Y81936410D02*
X-16113563Y81936410D01*
X-17826801Y82371071D02*
X-17392140Y81936410D01*
X-17266200Y83391130D02*
X-17826801Y82830529D01*
X-17392140Y81936410D02*
X-16467116Y81936410D01*
X-17826801Y41871071D02*
X-17392140Y41436410D01*
X-17826801Y42330529D02*
X-17826801Y41871071D01*
X-17266200Y44513800D02*
X-17266200Y42891130D01*
X-16467116Y41436410D02*
X-16113563Y41436410D01*
X-17392140Y41436410D02*
X-16467116Y41436410D01*
X-17266200Y42891130D02*
X-17826801Y42330529D01*
X-17392140Y936410D02*
X-16467116Y936410D01*
X-17826801Y1371071D02*
X-17392140Y936410D01*
X-17266200Y2391130D02*
X-17826801Y1830529D01*
X-17266200Y4013800D02*
X-17266200Y2391130D01*
X-16467116Y936410D02*
X-16113563Y936410D01*
X-17826801Y1830529D02*
X-17826801Y1371071D01*
X-17392140Y-39563590D02*
X-16467116Y-39563590D01*
X-17266200Y-38108870D02*
X-17826801Y-38669471D01*
X-17826801Y-38669471D02*
X-17826801Y-39128929D01*
X-17826801Y-39128929D02*
X-17392140Y-39563590D01*
X-17266200Y-36486200D02*
X-17266200Y-38108870D01*
X-16467116Y-39563590D02*
X-16113563Y-39563590D01*
G04 #@! TO.N,/USB+*
X-16616200Y83297763D02*
X-16534597Y83216160D01*
X-16616200Y85013800D02*
X-16616200Y83297763D01*
X-16616200Y42797763D02*
X-16534597Y42716160D01*
X-16616200Y44513800D02*
X-16616200Y42797763D01*
X-16616200Y2297763D02*
X-16534597Y2216160D01*
X-16616200Y4013800D02*
X-16616200Y2297763D01*
X-16616200Y-38202237D02*
X-16534597Y-38283840D01*
X-16616200Y-36486200D02*
X-16616200Y-38202237D01*
D37*
G04 #@! TO.N,/D30*
X-6075701Y73278991D02*
X-5999481Y73355211D01*
X279389Y73355211D02*
X2856524Y70778076D01*
X-5999481Y73355211D02*
X279389Y73355211D01*
X-6548099Y73355191D02*
X-6471899Y73278991D01*
X2856524Y70778076D02*
X2856524Y68610048D01*
X-14268556Y73355191D02*
X-6548099Y73355191D01*
X2856524Y68610048D02*
X2856524Y68256495D01*
X-14537251Y73086496D02*
X-14268556Y73355191D01*
X-17213477Y73086496D02*
X-14537251Y73086496D01*
X-17463476Y73336495D02*
X-17213477Y73086496D01*
X-6471899Y73278991D02*
X-6075701Y73278991D01*
X-6075701Y32778991D02*
X-5999481Y32855211D01*
X279389Y32855211D02*
X2856524Y30278076D01*
X-5999481Y32855211D02*
X279389Y32855211D01*
X2856524Y28110048D02*
X2856524Y27756495D01*
X-6471899Y32778991D02*
X-6075701Y32778991D01*
X-14268556Y32855191D02*
X-6548099Y32855191D01*
X-17463476Y32836495D02*
X-17213477Y32586496D01*
X-14537251Y32586496D02*
X-14268556Y32855191D01*
X2856524Y30278076D02*
X2856524Y28110048D01*
X-6548099Y32855191D02*
X-6471899Y32778991D01*
X-17213477Y32586496D02*
X-14537251Y32586496D01*
X279389Y-7644789D02*
X2856524Y-10221924D01*
X-6471899Y-7721009D02*
X-6075701Y-7721009D01*
X-14268556Y-7644809D02*
X-6548099Y-7644809D01*
X-14537251Y-7913504D02*
X-14268556Y-7644809D01*
X2856524Y-10221924D02*
X2856524Y-12389952D01*
X-17463476Y-7663505D02*
X-17213477Y-7913504D01*
X-6548099Y-7644809D02*
X-6471899Y-7721009D01*
X2856524Y-12389952D02*
X2856524Y-12743505D01*
X-5999481Y-7644789D02*
X279389Y-7644789D01*
X-6075701Y-7721009D02*
X-5999481Y-7644789D01*
X-17213477Y-7913504D02*
X-14537251Y-7913504D01*
X-6548099Y-48144809D02*
X-6471899Y-48221009D01*
X-6471899Y-48221009D02*
X-6075701Y-48221009D01*
X-14537251Y-48413504D02*
X-14268556Y-48144809D01*
X-14268556Y-48144809D02*
X-6548099Y-48144809D01*
X2856524Y-52889952D02*
X2856524Y-53243505D01*
X2856524Y-50721924D02*
X2856524Y-52889952D01*
X-17463476Y-48163505D02*
X-17213477Y-48413504D01*
X-6075701Y-48221009D02*
X-5999481Y-48144789D01*
X279389Y-48144789D02*
X2856524Y-50721924D01*
X-5999481Y-48144789D02*
X279389Y-48144789D01*
X-17213477Y-48413504D02*
X-14537251Y-48413504D01*
G04 #@! TO.N,/D31*
X2221524Y70651076D02*
X2221524Y68129495D01*
X3745524Y67621495D02*
X3876525Y67752496D01*
X-14673343Y72447495D02*
X-14121258Y72999580D01*
X-7025597Y72923380D02*
X-5928403Y72923380D01*
X-5852183Y72999600D02*
X-127000Y72999600D01*
X-7101797Y72999580D02*
X-7025597Y72923380D01*
X-14121258Y72999580D02*
X-7101797Y72999580D01*
X3876525Y67752496D02*
X4126524Y68002495D01*
X-127000Y72999600D02*
X2221524Y70651076D01*
X2221524Y68129495D02*
X2729524Y67621495D01*
X-5928403Y72923380D02*
X-5852183Y72999600D01*
X-16955476Y72447495D02*
X-14673343Y72447495D01*
X2729524Y67621495D02*
X3745524Y67621495D01*
X3745524Y27121495D02*
X3876525Y27252496D01*
X-14673343Y31947495D02*
X-14121258Y32499580D01*
X2221524Y30151076D02*
X2221524Y27629495D01*
X-7025597Y32423380D02*
X-5928403Y32423380D01*
X-5852183Y32499600D02*
X-127000Y32499600D01*
X2729524Y27121495D02*
X3745524Y27121495D01*
X-5928403Y32423380D02*
X-5852183Y32499600D01*
X3876525Y27252496D02*
X4126524Y27502495D01*
X2221524Y27629495D02*
X2729524Y27121495D01*
X-127000Y32499600D02*
X2221524Y30151076D01*
X-16955476Y31947495D02*
X-14673343Y31947495D01*
X-7101797Y32499580D02*
X-7025597Y32423380D01*
X-14121258Y32499580D02*
X-7101797Y32499580D01*
X-14673343Y-8552505D02*
X-14121258Y-8000420D01*
X2221524Y-10348924D02*
X2221524Y-12870505D01*
X-7025597Y-8076620D02*
X-5928403Y-8076620D01*
X3745524Y-13378505D02*
X3876525Y-13247504D01*
X-5928403Y-8076620D02*
X-5852183Y-8000400D01*
X2221524Y-12870505D02*
X2729524Y-13378505D01*
X-127000Y-8000400D02*
X2221524Y-10348924D01*
X-14121258Y-8000420D02*
X-7101797Y-8000420D01*
X3876525Y-13247504D02*
X4126524Y-12997505D01*
X-7101797Y-8000420D02*
X-7025597Y-8076620D01*
X2729524Y-13378505D02*
X3745524Y-13378505D01*
X-5852183Y-8000400D02*
X-127000Y-8000400D01*
X-16955476Y-8552505D02*
X-14673343Y-8552505D01*
X-14673343Y-49052505D02*
X-14121258Y-48500420D01*
X2221524Y-50848924D02*
X2221524Y-53370505D01*
X-7025597Y-48576620D02*
X-5928403Y-48576620D01*
X3745524Y-53878505D02*
X3876525Y-53747504D01*
X-14121258Y-48500420D02*
X-7101797Y-48500420D01*
X-5928403Y-48576620D02*
X-5852183Y-48500400D01*
X2221524Y-53370505D02*
X2729524Y-53878505D01*
X-127000Y-48500400D02*
X2221524Y-50848924D01*
X2729524Y-53878505D02*
X3745524Y-53878505D01*
X-5852183Y-48500400D02*
X-127000Y-48500400D01*
X3876525Y-53747504D02*
X4126524Y-53497505D01*
X-7101797Y-48500420D02*
X-7025597Y-48576620D01*
X-16955476Y-49052505D02*
X-14673343Y-49052505D01*
D36*
G04 #@! TO.N,VUSB*
X-17916200Y85013800D02*
X-18491200Y85588800D01*
X-18491200Y85588800D02*
X-18491200Y86537800D01*
X-18491200Y45088800D02*
X-18491200Y46037800D01*
X-17916200Y44513800D02*
X-18491200Y45088800D01*
X-17916200Y4013800D02*
X-18491200Y4588800D01*
X-18491200Y4588800D02*
X-18491200Y5537800D01*
X-17916200Y-36486200D02*
X-18491200Y-35911200D01*
X-18491200Y-35911200D02*
X-18491200Y-34962200D01*
D37*
G04 #@! TO.N,/SDA2*
X-31953200Y83566000D02*
X-31926000Y83566000D01*
X-31292802Y84785198D02*
X-31369000Y84709000D01*
X-31623000Y83235800D02*
X-31953200Y83566000D01*
X-31365010Y75096349D02*
X-31623000Y75354339D01*
X-31623000Y75354339D02*
X-31623000Y83235800D01*
X-31953200Y83681200D02*
X-31369000Y84265400D01*
X-31953200Y83566000D02*
X-31953200Y83681200D01*
X-31953200Y43181200D02*
X-31369000Y43765400D01*
X-31365010Y34596349D02*
X-31623000Y34854339D01*
X-31953200Y43066000D02*
X-31926000Y43066000D01*
X-31623000Y42735800D02*
X-31953200Y43066000D01*
X-31292802Y44285198D02*
X-31369000Y44209000D01*
X-31953200Y43066000D02*
X-31953200Y43181200D01*
X-31623000Y34854339D02*
X-31623000Y42735800D01*
X-31953200Y2566000D02*
X-31953200Y2681200D01*
X-31953200Y2681200D02*
X-31369000Y3265400D01*
X-31953200Y2566000D02*
X-31926000Y2566000D01*
X-31365010Y-5903651D02*
X-31623000Y-5645661D01*
X-31623000Y2235800D02*
X-31953200Y2566000D01*
X-31292802Y3785198D02*
X-31369000Y3709000D01*
X-31623000Y-5645661D02*
X-31623000Y2235800D01*
X-31953200Y-37818800D02*
X-31369000Y-37234600D01*
X-31365010Y-46403651D02*
X-31623000Y-46145661D01*
X-31953200Y-37934000D02*
X-31953200Y-37818800D01*
X-31953200Y-37934000D02*
X-31926000Y-37934000D01*
X-31623000Y-38264200D02*
X-31953200Y-37934000D01*
X-31292802Y-36714802D02*
X-31369000Y-36791000D01*
X-31623000Y-46145661D02*
X-31623000Y-38264200D01*
D36*
G04 #@! TO.N,/BAT_BACKUP*
X10642600Y70901560D02*
X4688840Y70901560D01*
X2946400Y72644000D02*
X2946400Y78943200D01*
X4688840Y70901560D02*
X2946400Y72644000D01*
X6995160Y70901560D02*
X10642600Y70901560D01*
X6756400Y70662800D02*
X6995160Y70901560D01*
X6756400Y62771600D02*
X6756400Y70662800D01*
X5689600Y61704800D02*
X6756400Y62771600D01*
X5740400Y54406800D02*
X5689600Y54457600D01*
X5689600Y54457600D02*
X5689600Y61704800D01*
D37*
X2946400Y78943200D02*
X2946400Y80296400D01*
X2946400Y80296400D02*
X2964800Y80314800D01*
X2964800Y80314800D02*
X2971800Y80314800D01*
X3221799Y80564799D02*
X3226828Y80564799D01*
X2971800Y80314800D02*
X3221799Y80564799D01*
D36*
X6756400Y30162800D02*
X6995160Y30401560D01*
X5740400Y13906800D02*
X5689600Y13957600D01*
D37*
X2946400Y39796400D02*
X2964800Y39814800D01*
X3221799Y40064799D02*
X3226828Y40064799D01*
D36*
X5689600Y21204800D02*
X6756400Y22271600D01*
D37*
X2971800Y39814800D02*
X3221799Y40064799D01*
X2946400Y38443200D02*
X2946400Y39796400D01*
X2964800Y39814800D02*
X2971800Y39814800D01*
D36*
X5689600Y13957600D02*
X5689600Y21204800D01*
X6756400Y22271600D02*
X6756400Y30162800D01*
X6995160Y30401560D02*
X10642600Y30401560D01*
X10642600Y30401560D02*
X4688840Y30401560D01*
X4688840Y30401560D02*
X2946400Y32144000D01*
X2946400Y32144000D02*
X2946400Y38443200D01*
X6756400Y-10337200D02*
X6995160Y-10098440D01*
D37*
X3221799Y-435201D02*
X3226828Y-435201D01*
D36*
X5689600Y-26542400D02*
X5689600Y-19295200D01*
X5740400Y-26593200D02*
X5689600Y-26542400D01*
X6756400Y-18228400D02*
X6756400Y-10337200D01*
X5689600Y-19295200D02*
X6756400Y-18228400D01*
D37*
X2971800Y-685200D02*
X3221799Y-435201D01*
X2964800Y-685200D02*
X2971800Y-685200D01*
X2946400Y-703600D02*
X2964800Y-685200D01*
X2946400Y-2056800D02*
X2946400Y-703600D01*
D36*
X10642600Y-10098440D02*
X4688840Y-10098440D01*
X4688840Y-10098440D02*
X2946400Y-8356000D01*
X2946400Y-8356000D02*
X2946400Y-2056800D01*
X6995160Y-10098440D02*
X10642600Y-10098440D01*
D37*
X2964800Y-41185200D02*
X2971800Y-41185200D01*
X3221799Y-40935201D02*
X3226828Y-40935201D01*
D36*
X6756400Y-58728400D02*
X6756400Y-50837200D01*
X5689600Y-67042400D02*
X5689600Y-59795200D01*
X6756400Y-50837200D02*
X6995160Y-50598440D01*
D37*
X2971800Y-41185200D02*
X3221799Y-40935201D01*
X2946400Y-41203600D02*
X2964800Y-41185200D01*
X2946400Y-42556800D02*
X2946400Y-41203600D01*
D36*
X5689600Y-59795200D02*
X6756400Y-58728400D01*
X5740400Y-67093200D02*
X5689600Y-67042400D01*
X10642600Y-50598440D02*
X4688840Y-50598440D01*
X4688840Y-50598440D02*
X2946400Y-48856000D01*
X2946400Y-48856000D02*
X2946400Y-42556800D01*
X6995160Y-50598440D02*
X10642600Y-50598440D01*
D37*
G04 #@! TO.N,Net-(C14-Pad1)*
X-22416476Y85528495D02*
X-22416476Y83877495D01*
D39*
X-22042171Y84251800D02*
X-22416476Y83877495D01*
X-19386200Y84251800D02*
X-22042171Y84251800D01*
D36*
X-19816200Y84681800D02*
X-19386200Y84251800D01*
X-19816200Y85933800D02*
X-19816200Y84681800D01*
D37*
X-22416476Y45028495D02*
X-22416476Y43377495D01*
D39*
X-19386200Y43751800D02*
X-22042171Y43751800D01*
D36*
X-19816200Y44181800D02*
X-19386200Y43751800D01*
D39*
X-22042171Y43751800D02*
X-22416476Y43377495D01*
D36*
X-19816200Y45433800D02*
X-19816200Y44181800D01*
D37*
X-22416476Y4528495D02*
X-22416476Y2877495D01*
D39*
X-22042171Y3251800D02*
X-22416476Y2877495D01*
D36*
X-19816200Y4933800D02*
X-19816200Y3681800D01*
D39*
X-19386200Y3251800D02*
X-22042171Y3251800D01*
D36*
X-19816200Y3681800D02*
X-19386200Y3251800D01*
X-19816200Y-36818200D02*
X-19386200Y-37248200D01*
D39*
X-22042171Y-37248200D02*
X-22416476Y-37622505D01*
X-19386200Y-37248200D02*
X-22042171Y-37248200D01*
D37*
X-22416476Y-35971505D02*
X-22416476Y-37622505D01*
D36*
X-19816200Y-35566200D02*
X-19816200Y-36818200D01*
D37*
G04 #@! TO.N,VBAT*
X-60528200Y66217800D02*
X-60270199Y66475801D01*
X-60270199Y66475801D02*
X-60020200Y66725800D01*
X-60528200Y64566800D02*
X-60528200Y66217800D01*
X-60528200Y24066800D02*
X-60528200Y25717800D01*
X-60270199Y25975801D02*
X-60020200Y26225800D01*
X-60528200Y25717800D02*
X-60270199Y25975801D01*
X-60270199Y-14524199D02*
X-60020200Y-14274200D01*
X-60528200Y-14782200D02*
X-60270199Y-14524199D01*
X-60528200Y-16433200D02*
X-60528200Y-14782200D01*
X-60270199Y-55024199D02*
X-60020200Y-54774200D01*
X-60528200Y-56933200D02*
X-60528200Y-55282200D01*
X-60528200Y-55282200D02*
X-60270199Y-55024199D01*
D39*
G04 #@! TO.N,VBUS*
X-58695894Y78544800D02*
X-58044193Y77893099D01*
X-55800753Y78464800D02*
X-55447200Y78464800D01*
X-56903306Y78464800D02*
X-55800753Y78464800D01*
X-58044193Y77893099D02*
X-57475007Y77893099D01*
X-57475007Y77893099D02*
X-56903306Y78464800D01*
X-59307200Y78544800D02*
X-58695894Y78544800D01*
X-56903306Y37964800D02*
X-55800753Y37964800D01*
X-58044193Y37393099D02*
X-57475007Y37393099D01*
X-59307200Y38044800D02*
X-58695894Y38044800D01*
X-55800753Y37964800D02*
X-55447200Y37964800D01*
X-57475007Y37393099D02*
X-56903306Y37964800D01*
X-58695894Y38044800D02*
X-58044193Y37393099D01*
X-57475007Y-3106901D02*
X-56903306Y-2535200D01*
X-55800753Y-2535200D02*
X-55447200Y-2535200D01*
X-56903306Y-2535200D02*
X-55800753Y-2535200D01*
X-58044193Y-3106901D02*
X-57475007Y-3106901D01*
X-58695894Y-2455200D02*
X-58044193Y-3106901D01*
X-59307200Y-2455200D02*
X-58695894Y-2455200D01*
X-55800753Y-43035200D02*
X-55447200Y-43035200D01*
X-58695894Y-42955200D02*
X-58044193Y-43606901D01*
X-57475007Y-43606901D02*
X-56903306Y-43035200D01*
X-56903306Y-43035200D02*
X-55800753Y-43035200D01*
X-59307200Y-42955200D02*
X-58695894Y-42955200D01*
X-58044193Y-43606901D02*
X-57475007Y-43606901D01*
D37*
G04 #@! TO.N,/GPS_FIX*
X10642600Y72402700D02*
X10143490Y72402700D01*
X11141710Y72402700D02*
X14274800Y75535790D01*
X10642600Y72402700D02*
X11141710Y72402700D01*
X14274800Y78225652D02*
X9243242Y83257210D01*
X14274800Y75535790D02*
X14274800Y78225652D01*
X8036077Y83257210D02*
X7682524Y83257210D01*
X9243242Y83257210D02*
X8036077Y83257210D01*
X14274800Y35035790D02*
X14274800Y37725652D01*
X10642600Y31902700D02*
X11141710Y31902700D01*
X14274800Y37725652D02*
X9243242Y42757210D01*
X8036077Y42757210D02*
X7682524Y42757210D01*
X11141710Y31902700D02*
X14274800Y35035790D01*
X9243242Y42757210D02*
X8036077Y42757210D01*
X10642600Y31902700D02*
X10143490Y31902700D01*
X14274800Y-5464210D02*
X14274800Y-2774348D01*
X9243242Y2257210D02*
X8036077Y2257210D01*
X10642600Y-8597300D02*
X11141710Y-8597300D01*
X11141710Y-8597300D02*
X14274800Y-5464210D01*
X10642600Y-8597300D02*
X10143490Y-8597300D01*
X8036077Y2257210D02*
X7682524Y2257210D01*
X14274800Y-2774348D02*
X9243242Y2257210D01*
X10642600Y-49097300D02*
X10143490Y-49097300D01*
X9243242Y-38242790D02*
X8036077Y-38242790D01*
X11141710Y-49097300D02*
X14274800Y-45964210D01*
X10642600Y-49097300D02*
X11141710Y-49097300D01*
X14274800Y-45964210D02*
X14274800Y-43274348D01*
X8036077Y-38242790D02*
X7682524Y-38242790D01*
X14274800Y-43274348D02*
X9243242Y-38242790D01*
D36*
G04 #@! TO.N,Net-(J11-Pad1)*
X26644600Y79900780D02*
X25712420Y79900780D01*
X25712420Y79900780D02*
X25349200Y80264000D01*
X25349200Y80264000D02*
X25298400Y80264000D01*
X26644600Y79900780D02*
X25697180Y79900780D01*
X25697180Y79900780D02*
X25298400Y79502000D01*
X25697180Y39400780D02*
X25298400Y39002000D01*
X26644600Y39400780D02*
X25697180Y39400780D01*
X25712420Y39400780D02*
X25349200Y39764000D01*
X26644600Y39400780D02*
X25712420Y39400780D01*
X25349200Y39764000D02*
X25298400Y39764000D01*
X26644600Y-1099220D02*
X25697180Y-1099220D01*
X25712420Y-1099220D02*
X25349200Y-736000D01*
X25697180Y-1099220D02*
X25298400Y-1498000D01*
X25349200Y-736000D02*
X25298400Y-736000D01*
X26644600Y-1099220D02*
X25712420Y-1099220D01*
X25697180Y-41599220D02*
X25298400Y-41998000D01*
X26644600Y-41599220D02*
X25697180Y-41599220D01*
X25712420Y-41599220D02*
X25349200Y-41236000D01*
X25349200Y-41236000D02*
X25298400Y-41236000D01*
X26644600Y-41599220D02*
X25712420Y-41599220D01*
D37*
G04 #@! TO.N,Net-(R4-Pad1)*
X-52322300Y60885070D02*
X-53162200Y60045170D01*
X-51572300Y60885070D02*
X-52322300Y60885070D01*
X-53162200Y60045170D02*
X-53162200Y58089800D01*
X-53162200Y58089800D02*
X-51003200Y55930800D01*
X-52322300Y20385070D02*
X-53162200Y19545170D01*
X-53162200Y19545170D02*
X-53162200Y17589800D01*
X-51572300Y20385070D02*
X-52322300Y20385070D01*
X-53162200Y17589800D02*
X-51003200Y15430800D01*
X-51572300Y-20114930D02*
X-52322300Y-20114930D01*
X-53162200Y-22910200D02*
X-51003200Y-25069200D01*
X-53162200Y-20954830D02*
X-53162200Y-22910200D01*
X-52322300Y-20114930D02*
X-53162200Y-20954830D01*
X-53162200Y-63410200D02*
X-51003200Y-65569200D01*
X-51572300Y-60614930D02*
X-52322300Y-60614930D01*
X-53162200Y-61454830D02*
X-53162200Y-63410200D01*
X-52322300Y-60614930D02*
X-53162200Y-61454830D01*
G04 #@! TO.N,Net-(R5-Pad1)*
X-51572300Y59869070D02*
X-50419100Y59869070D01*
X-50419100Y59869070D02*
X-47447200Y56897170D01*
X-47447200Y56284353D02*
X-47447200Y55930800D01*
X-47447200Y56897170D02*
X-47447200Y56284353D01*
X-51572300Y19369070D02*
X-50419100Y19369070D01*
X-50419100Y19369070D02*
X-47447200Y16397170D01*
X-47447200Y15784353D02*
X-47447200Y15430800D01*
X-47447200Y16397170D02*
X-47447200Y15784353D01*
X-51572300Y-21130930D02*
X-50419100Y-21130930D01*
X-50419100Y-21130930D02*
X-47447200Y-24102830D01*
X-47447200Y-24715647D02*
X-47447200Y-25069200D01*
X-47447200Y-24102830D02*
X-47447200Y-24715647D01*
X-47447200Y-65215647D02*
X-47447200Y-65569200D01*
X-47447200Y-64602830D02*
X-47447200Y-65215647D01*
X-51572300Y-61630930D02*
X-50419100Y-61630930D01*
X-50419100Y-61630930D02*
X-47447200Y-64602830D01*
G04 #@! TO.N,/SCL2*
X-31830343Y73638134D02*
X-30378400Y75090077D01*
X-30378400Y75090077D02*
X-30378400Y82044047D01*
X-31830343Y73284581D02*
X-31830343Y73638134D01*
X-30378400Y82044047D02*
X-30403800Y82069447D01*
X-30403800Y82069447D02*
X-30403800Y82423000D01*
X-30403800Y83732000D02*
X-29845000Y84290800D01*
X-30403800Y82423000D02*
X-30403800Y83732000D01*
X-30378400Y34590077D02*
X-30378400Y41544047D01*
X-30403800Y43232000D02*
X-29845000Y43790800D01*
X-31830343Y32784581D02*
X-31830343Y33138134D01*
X-30403800Y41569447D02*
X-30403800Y41923000D01*
X-31830343Y33138134D02*
X-30378400Y34590077D01*
X-30378400Y41544047D02*
X-30403800Y41569447D01*
X-30403800Y41923000D02*
X-30403800Y43232000D01*
X-30378400Y-5909923D02*
X-30378400Y1044047D01*
X-30378400Y1044047D02*
X-30403800Y1069447D01*
X-31830343Y-7361866D02*
X-30378400Y-5909923D01*
X-31830343Y-7715419D02*
X-31830343Y-7361866D01*
X-30403800Y1423000D02*
X-30403800Y2732000D01*
X-30403800Y2732000D02*
X-29845000Y3290800D01*
X-30403800Y1069447D02*
X-30403800Y1423000D01*
X-30403800Y-37768000D02*
X-29845000Y-37209200D01*
X-30378400Y-39455953D02*
X-30403800Y-39430553D01*
X-30403800Y-39077000D02*
X-30403800Y-37768000D01*
X-31830343Y-48215419D02*
X-31830343Y-47861866D01*
X-31830343Y-47861866D02*
X-30378400Y-46409923D01*
X-30378400Y-46409923D02*
X-30378400Y-39455953D01*
X-30403800Y-39430553D02*
X-30403800Y-39077000D01*
D40*
G04 #@! TO.N,/PG*
X-49479087Y81055399D02*
X-49528527Y81055399D01*
X-49528527Y81055399D02*
X-52692036Y77891890D01*
X-52692036Y77891890D02*
X-56811662Y77891890D01*
X-58260733Y77271137D02*
X-58510732Y77521136D01*
X-50499200Y86334600D02*
X-48695799Y84531199D01*
X-57432415Y77271137D02*
X-58260733Y77271137D01*
X-56811662Y77891890D02*
X-57432415Y77271137D01*
X-48695799Y81838687D02*
X-49479087Y81055399D01*
X-48695799Y84531199D02*
X-48695799Y81838687D01*
X-49528527Y40555399D02*
X-52692036Y37391890D01*
X-57432415Y36771137D02*
X-58260733Y36771137D01*
X-58260733Y36771137D02*
X-58510732Y37021136D01*
X-50499200Y45834600D02*
X-48695799Y44031199D01*
X-56811662Y37391890D02*
X-57432415Y36771137D01*
X-52692036Y37391890D02*
X-56811662Y37391890D01*
X-48695799Y41338687D02*
X-49479087Y40555399D01*
X-49479087Y40555399D02*
X-49528527Y40555399D01*
X-48695799Y44031199D02*
X-48695799Y41338687D01*
X-48695799Y838687D02*
X-49479087Y55399D01*
X-49528527Y55399D02*
X-52692036Y-3108110D01*
X-50499200Y5334600D02*
X-48695799Y3531199D01*
X-56811662Y-3108110D02*
X-57432415Y-3728863D01*
X-52692036Y-3108110D02*
X-56811662Y-3108110D01*
X-58260733Y-3728863D02*
X-58510732Y-3478864D01*
X-57432415Y-3728863D02*
X-58260733Y-3728863D01*
X-48695799Y3531199D02*
X-48695799Y838687D01*
X-49479087Y55399D02*
X-49528527Y55399D01*
X-49479087Y-40444601D02*
X-49528527Y-40444601D01*
X-57432415Y-44228863D02*
X-58260733Y-44228863D01*
X-56811662Y-43608110D02*
X-57432415Y-44228863D01*
X-48695799Y-36968801D02*
X-48695799Y-39661313D01*
X-50499200Y-35165400D02*
X-48695799Y-36968801D01*
X-52692036Y-43608110D02*
X-56811662Y-43608110D01*
X-48695799Y-39661313D02*
X-49479087Y-40444601D01*
X-49528527Y-40444601D02*
X-52692036Y-43608110D01*
X-58260733Y-44228863D02*
X-58510732Y-43978864D01*
G04 #@! TO.N,/CHG*
X-56157198Y79454800D02*
X-53519198Y82092800D01*
X-53519198Y82092800D02*
X-49578753Y82092800D01*
X-49578753Y82092800D02*
X-49225200Y82092800D01*
X-56157198Y38954800D02*
X-53519198Y41592800D01*
X-49578753Y41592800D02*
X-49225200Y41592800D01*
X-53519198Y41592800D02*
X-49578753Y41592800D01*
X-49578753Y1092800D02*
X-49225200Y1092800D01*
X-53519198Y1092800D02*
X-49578753Y1092800D01*
X-56157198Y-1545200D02*
X-53519198Y1092800D01*
X-53519198Y-39407200D02*
X-49578753Y-39407200D01*
X-49578753Y-39407200D02*
X-49225200Y-39407200D01*
X-56157198Y-42045200D02*
X-53519198Y-39407200D01*
D37*
G04 #@! TO.N,/GPS_TX*
X9439910Y78402180D02*
X10642600Y78402180D01*
X7315839Y78402180D02*
X9439910Y78402180D01*
X4888524Y80495602D02*
X5222417Y80495602D01*
X5222417Y80495602D02*
X7315839Y78402180D01*
X4888524Y39995602D02*
X5222417Y39995602D01*
X5222417Y39995602D02*
X7315839Y37902180D01*
X9439910Y37902180D02*
X10642600Y37902180D01*
X7315839Y37902180D02*
X9439910Y37902180D01*
X7315839Y-2597820D02*
X9439910Y-2597820D01*
X4888524Y-504398D02*
X5222417Y-504398D01*
X9439910Y-2597820D02*
X10642600Y-2597820D01*
X5222417Y-504398D02*
X7315839Y-2597820D01*
X7315839Y-43097820D02*
X9439910Y-43097820D01*
X5222417Y-41004398D02*
X7315839Y-43097820D01*
X9439910Y-43097820D02*
X10642600Y-43097820D01*
X4888524Y-41004398D02*
X5222417Y-41004398D01*
G04 #@! TO.N,/GPS_RX*
X5403230Y81076789D02*
X4122523Y81076789D01*
X4122523Y81076789D02*
X3872524Y80826790D01*
X6579239Y79900780D02*
X5403230Y81076789D01*
X10642600Y79900780D02*
X6579239Y79900780D01*
X10642600Y39400780D02*
X6579239Y39400780D01*
X4122523Y40576789D02*
X3872524Y40326790D01*
X5403230Y40576789D02*
X4122523Y40576789D01*
X6579239Y39400780D02*
X5403230Y40576789D01*
X4122523Y76789D02*
X3872524Y-173210D01*
X10642600Y-1099220D02*
X6579239Y-1099220D01*
X6579239Y-1099220D02*
X5403230Y76789D01*
X5403230Y76789D02*
X4122523Y76789D01*
X6579239Y-41599220D02*
X5403230Y-40423211D01*
X5403230Y-40423211D02*
X4122523Y-40423211D01*
X4122523Y-40423211D02*
X3872524Y-40673210D01*
X10642600Y-41599220D02*
X6579239Y-41599220D01*
D36*
G04 #@! TO.N,/PERIPH_3V3*
X-51572300Y63933069D02*
X-50369469Y63933069D01*
X-50369469Y63933069D02*
X-50241200Y63804800D01*
D37*
X-40954960Y55818625D02*
X-40809145Y55672810D01*
X-40954960Y56829960D02*
X-40954960Y55818625D01*
D39*
X-31000700Y53136800D02*
X-31201325Y53136800D01*
X-31201325Y53136800D02*
X-31835022Y52503103D01*
D38*
X-4141200Y59328800D02*
X-5506200Y59328800D01*
X-5506200Y59328800D02*
X-5537200Y59359800D01*
X-35382200Y69011800D02*
X-36398200Y69011800D01*
D36*
X-53057652Y63905717D02*
X-53057652Y63847790D01*
X-53035200Y63928169D02*
X-53057652Y63905717D01*
X-53030300Y63933069D02*
X-53057652Y63905717D01*
X-51572300Y63933069D02*
X-53030300Y63933069D01*
D37*
X-51572300Y69013070D02*
X-50228296Y69013070D01*
X-50228296Y69013070D02*
X-50206246Y69035120D01*
D36*
X-64395530Y70912940D02*
X-64338200Y70970270D01*
X-64338200Y71833247D02*
X-64338200Y72186800D01*
X-64338200Y70970270D02*
X-64338200Y71833247D01*
X-4141200Y59328800D02*
X-2636000Y59328800D01*
X-2636000Y59328800D02*
X-2616200Y59309000D01*
X-3728200Y59328800D02*
X-4141200Y59328800D01*
X-2768600Y58369200D02*
X-3728200Y59328800D01*
X-51572300Y23433069D02*
X-50369469Y23433069D01*
D39*
X-31000700Y12636800D02*
X-31201325Y12636800D01*
X-31201325Y12636800D02*
X-31835022Y12003103D01*
D38*
X-5506200Y18828800D02*
X-5537200Y18859800D01*
D37*
X-40954960Y16329960D02*
X-40954960Y15318625D01*
D38*
X-35382200Y28511800D02*
X-36398200Y28511800D01*
D36*
X-53057652Y23405717D02*
X-53057652Y23347790D01*
X-53030300Y23433069D02*
X-53057652Y23405717D01*
D37*
X-51572300Y28513070D02*
X-50228296Y28513070D01*
X-50228296Y28513070D02*
X-50206246Y28535120D01*
D36*
X-64395530Y30412940D02*
X-64338200Y30470270D01*
X-64338200Y31333247D02*
X-64338200Y31686800D01*
D38*
X-4141200Y18828800D02*
X-5506200Y18828800D01*
D36*
X-50369469Y23433069D02*
X-50241200Y23304800D01*
D37*
X-40954960Y15318625D02*
X-40809145Y15172810D01*
D36*
X-51572300Y23433069D02*
X-53030300Y23433069D01*
X-64338200Y30470270D02*
X-64338200Y31333247D01*
X-53035200Y23428169D02*
X-53057652Y23405717D01*
X-4141200Y18828800D02*
X-2636000Y18828800D01*
X-2636000Y18828800D02*
X-2616200Y18809000D01*
X-3728200Y18828800D02*
X-4141200Y18828800D01*
X-2768600Y17869200D02*
X-3728200Y18828800D01*
D37*
X-51572300Y-11986930D02*
X-50228296Y-11986930D01*
D36*
X-64338200Y-10029730D02*
X-64338200Y-9166753D01*
X-53035200Y-17071831D02*
X-53057652Y-17094283D01*
D37*
X-50228296Y-11986930D02*
X-50206246Y-11964880D01*
D36*
X-64338200Y-9166753D02*
X-64338200Y-8813200D01*
D38*
X-4141200Y-21671200D02*
X-5506200Y-21671200D01*
D39*
X-31000700Y-27863200D02*
X-31201325Y-27863200D01*
D36*
X-51572300Y-17066931D02*
X-50369469Y-17066931D01*
X-51572300Y-17066931D02*
X-53030300Y-17066931D01*
D38*
X-35382200Y-11988200D02*
X-36398200Y-11988200D01*
D36*
X-53057652Y-17094283D02*
X-53057652Y-17152210D01*
X-53030300Y-17066931D02*
X-53057652Y-17094283D01*
D39*
X-31201325Y-27863200D02*
X-31835022Y-28496897D01*
D38*
X-5506200Y-21671200D02*
X-5537200Y-21640200D01*
D36*
X-64395530Y-10087060D02*
X-64338200Y-10029730D01*
X-4141200Y-21671200D02*
X-2636000Y-21671200D01*
X-50369469Y-17066931D02*
X-50241200Y-17195200D01*
X-2636000Y-21671200D02*
X-2616200Y-21691000D01*
X-3728200Y-21671200D02*
X-4141200Y-21671200D01*
X-2768600Y-22630800D02*
X-3728200Y-21671200D01*
D37*
X-40954960Y-24170040D02*
X-40954960Y-25181375D01*
X-40954960Y-25181375D02*
X-40809145Y-25327190D01*
D36*
X-50369469Y-57566931D02*
X-50241200Y-57695200D01*
D38*
X-35382200Y-52488200D02*
X-36398200Y-52488200D01*
D36*
X-3728200Y-62171200D02*
X-4141200Y-62171200D01*
D37*
X-40954960Y-64670040D02*
X-40954960Y-65681375D01*
D39*
X-31000700Y-68363200D02*
X-31201325Y-68363200D01*
D36*
X-2636000Y-62171200D02*
X-2616200Y-62191000D01*
X-53030300Y-57566931D02*
X-53057652Y-57594283D01*
X-4141200Y-62171200D02*
X-2636000Y-62171200D01*
X-51572300Y-57566931D02*
X-50369469Y-57566931D01*
D39*
X-31201325Y-68363200D02*
X-31835022Y-68996897D01*
D38*
X-5506200Y-62171200D02*
X-5537200Y-62140200D01*
D36*
X-53035200Y-57571831D02*
X-53057652Y-57594283D01*
X-64338200Y-50529730D02*
X-64338200Y-49666753D01*
D37*
X-51572300Y-52486930D02*
X-50228296Y-52486930D01*
D38*
X-4141200Y-62171200D02*
X-5506200Y-62171200D01*
D36*
X-53057652Y-57594283D02*
X-53057652Y-57652210D01*
X-51572300Y-57566931D02*
X-53030300Y-57566931D01*
X-2768600Y-63130800D02*
X-3728200Y-62171200D01*
D37*
X-40954960Y-65681375D02*
X-40809145Y-65827190D01*
X-50228296Y-52486930D02*
X-50206246Y-52464880D01*
D36*
X-64338200Y-49666753D02*
X-64338200Y-49313200D01*
X-64395530Y-50587060D02*
X-64338200Y-50529730D01*
G04 #@! TO.N,/GPS_3V3*
X8178800Y72821800D02*
X8432800Y72821800D01*
X8432800Y72821800D02*
X9194800Y72059800D01*
D38*
X26720800Y61899800D02*
X26847800Y62026800D01*
X27129247Y62026800D02*
X27482800Y62026800D01*
X26847800Y62026800D02*
X27129247Y62026800D01*
D36*
X8178800Y32321800D02*
X8432800Y32321800D01*
D38*
X26847800Y21526800D02*
X27129247Y21526800D01*
X26720800Y21399800D02*
X26847800Y21526800D01*
X27129247Y21526800D02*
X27482800Y21526800D01*
D36*
X8432800Y32321800D02*
X9194800Y31559800D01*
X8432800Y-8178200D02*
X9194800Y-8940200D01*
D38*
X26847800Y-18973200D02*
X27129247Y-18973200D01*
X26720800Y-19100200D02*
X26847800Y-18973200D01*
X27129247Y-18973200D02*
X27482800Y-18973200D01*
D36*
X8178800Y-8178200D02*
X8432800Y-8178200D01*
D38*
X26847800Y-59473200D02*
X27129247Y-59473200D01*
D36*
X8178800Y-48678200D02*
X8432800Y-48678200D01*
D38*
X26720800Y-59600200D02*
X26847800Y-59473200D01*
X27129247Y-59473200D02*
X27482800Y-59473200D01*
D36*
X8432800Y-48678200D02*
X9194800Y-49440200D01*
D37*
G04 #@! TO.N,Net-(C29-Pad1)*
X-43027600Y79298800D02*
X-36094978Y79298800D01*
X-36094978Y79298800D02*
X-36032236Y79361542D01*
X-43027600Y38798800D02*
X-36094978Y38798800D01*
X-36094978Y38798800D02*
X-36032236Y38861542D01*
X-43027600Y-1701200D02*
X-36094978Y-1701200D01*
X-36094978Y-1701200D02*
X-36032236Y-1638458D01*
X-36094978Y-42201200D02*
X-36032236Y-42138458D01*
X-43027600Y-42201200D02*
X-36094978Y-42201200D01*
D36*
G04 #@! TO.N,/MODULE_3V3*
X-37134800Y77571600D02*
X-37134800Y76657200D01*
X-37134800Y76657200D02*
X-37236400Y76555600D01*
X-37134800Y37071600D02*
X-37134800Y36157200D01*
X-37134800Y36157200D02*
X-37236400Y36055600D01*
X-37134800Y-3428400D02*
X-37134800Y-4342800D01*
X-37134800Y-4342800D02*
X-37236400Y-4444400D01*
X-37134800Y-43928400D02*
X-37134800Y-44842800D01*
X-37134800Y-44842800D02*
X-37236400Y-44944400D01*
D37*
G04 #@! TO.N,/D12_SD_CS*
X-34903745Y56793821D02*
X-24740179Y56793821D01*
X-43154600Y57630060D02*
X-43154600Y56677560D01*
X-41645840Y55168800D02*
X-37779122Y55168800D01*
X-21285200Y60248800D02*
X-19113998Y60248800D01*
X-37779122Y55168800D02*
X-36809923Y56137999D01*
X-17602200Y61760598D02*
X-17602200Y65276068D01*
X-43154600Y56677560D02*
X-41645840Y55168800D01*
X-19113998Y60248800D02*
X-17602200Y61760598D01*
X-17602200Y65276068D02*
X-17602200Y65629621D01*
X-36809923Y56137999D02*
X-35559567Y56137999D01*
X-35559567Y56137999D02*
X-34903745Y56793821D01*
X-24740179Y56793821D02*
X-21285200Y60248800D01*
X-41645840Y14668800D02*
X-37779122Y14668800D01*
X-37779122Y14668800D02*
X-36809923Y15637999D01*
X-34903745Y16293821D02*
X-24740179Y16293821D01*
X-17602200Y21260598D02*
X-17602200Y24776068D01*
X-36809923Y15637999D02*
X-35559567Y15637999D01*
X-17602200Y24776068D02*
X-17602200Y25129621D01*
X-19113998Y19748800D02*
X-17602200Y21260598D01*
X-24740179Y16293821D02*
X-21285200Y19748800D01*
X-43154600Y17130060D02*
X-43154600Y16177560D01*
X-35559567Y15637999D02*
X-34903745Y16293821D01*
X-21285200Y19748800D02*
X-19113998Y19748800D01*
X-43154600Y16177560D02*
X-41645840Y14668800D01*
X-19113998Y-20751200D02*
X-17602200Y-19239402D01*
X-24740179Y-24206179D02*
X-21285200Y-20751200D01*
X-17602200Y-15723932D02*
X-17602200Y-15370379D01*
X-43154600Y-24322440D02*
X-41645840Y-25831200D01*
X-41645840Y-25831200D02*
X-37779122Y-25831200D01*
X-36809923Y-24862001D02*
X-35559567Y-24862001D01*
X-34903745Y-24206179D02*
X-24740179Y-24206179D01*
X-43154600Y-23369940D02*
X-43154600Y-24322440D01*
X-35559567Y-24862001D02*
X-34903745Y-24206179D01*
X-21285200Y-20751200D02*
X-19113998Y-20751200D01*
X-37779122Y-25831200D02*
X-36809923Y-24862001D01*
X-17602200Y-19239402D02*
X-17602200Y-15723932D01*
X-19113998Y-61251200D02*
X-17602200Y-59739402D01*
X-34903745Y-64706179D02*
X-24740179Y-64706179D01*
X-21285200Y-61251200D02*
X-19113998Y-61251200D01*
X-36809923Y-65362001D02*
X-35559567Y-65362001D01*
X-24740179Y-64706179D02*
X-21285200Y-61251200D01*
X-41645840Y-66331200D02*
X-37779122Y-66331200D01*
X-37779122Y-66331200D02*
X-36809923Y-65362001D01*
X-43154600Y-63869940D02*
X-43154600Y-64822440D01*
X-17602200Y-59739402D02*
X-17602200Y-56223932D01*
X-17602200Y-56223932D02*
X-17602200Y-55870379D01*
X-43154600Y-64822440D02*
X-41645840Y-66331200D01*
X-35559567Y-65362001D02*
X-34903745Y-64706179D01*
G04 #@! TO.N,/A1_WIFI_RST*
X-43891200Y52628800D02*
X-46177200Y54914800D01*
X-46177200Y54914800D02*
X-56337200Y54914800D01*
X-57357201Y53894799D02*
X-57607200Y53644800D01*
X-36017200Y52628800D02*
X-43891200Y52628800D01*
X-57291750Y56182670D02*
X-57291750Y53960250D01*
X-57291750Y53960250D02*
X-57357201Y53894799D01*
X-56337200Y54914800D02*
X-57357201Y53894799D01*
X-46177200Y14414800D02*
X-56337200Y14414800D01*
X-57357201Y13394799D02*
X-57607200Y13144800D01*
X-36017200Y12128800D02*
X-43891200Y12128800D01*
X-57291750Y15682670D02*
X-57291750Y13460250D01*
X-57291750Y13460250D02*
X-57357201Y13394799D01*
X-43891200Y12128800D02*
X-46177200Y14414800D01*
X-56337200Y14414800D02*
X-57357201Y13394799D01*
X-57357201Y-27105201D02*
X-57607200Y-27355200D01*
X-36017200Y-28371200D02*
X-43891200Y-28371200D01*
X-57291750Y-24817330D02*
X-57291750Y-27039750D01*
X-43891200Y-28371200D02*
X-46177200Y-26085200D01*
X-56337200Y-26085200D02*
X-57357201Y-27105201D01*
X-57291750Y-27039750D02*
X-57357201Y-27105201D01*
X-46177200Y-26085200D02*
X-56337200Y-26085200D01*
X-57357201Y-67605201D02*
X-57607200Y-67855200D01*
X-43891200Y-68871200D02*
X-46177200Y-66585200D01*
X-46177200Y-66585200D02*
X-56337200Y-66585200D01*
X-57291750Y-67539750D02*
X-57357201Y-67605201D01*
X-36017200Y-68871200D02*
X-43891200Y-68871200D01*
X-56337200Y-66585200D02*
X-57357201Y-67605201D01*
X-57291750Y-65317330D02*
X-57291750Y-67539750D01*
G04 #@! TO.N,/D2_WIFI_EN*
X-37283199Y54918801D02*
X-37033200Y55168800D01*
X-37537199Y54664801D02*
X-37283199Y54918801D01*
X-48310811Y59731919D02*
X-43243693Y54664801D01*
X-43243693Y54664801D02*
X-37537199Y54664801D01*
X-48310811Y62840781D02*
X-48310811Y59731919D01*
X-51572300Y64949070D02*
X-50419100Y64949070D01*
X-50419100Y64949070D02*
X-48310811Y62840781D01*
D40*
X-37033200Y55168800D02*
X-36445012Y55756988D01*
X-36445012Y55756988D02*
X-24337819Y55756988D01*
X-24337819Y55756988D02*
X-21803601Y58291206D01*
X-21803601Y58291206D02*
X-21553602Y58541205D01*
D37*
X-37537199Y14164801D02*
X-37283199Y14418801D01*
X-48310811Y19231919D02*
X-43243693Y14164801D01*
X-43243693Y14164801D02*
X-37537199Y14164801D01*
X-51572300Y24449070D02*
X-50419100Y24449070D01*
X-48310811Y22340781D02*
X-48310811Y19231919D01*
X-50419100Y24449070D02*
X-48310811Y22340781D01*
D40*
X-37033200Y14668800D02*
X-36445012Y15256988D01*
X-36445012Y15256988D02*
X-24337819Y15256988D01*
X-24337819Y15256988D02*
X-21803601Y17791206D01*
X-21803601Y17791206D02*
X-21553602Y18041205D01*
D37*
X-37283199Y14418801D02*
X-37033200Y14668800D01*
X-37537199Y-26335199D02*
X-37283199Y-26081199D01*
D40*
X-36445012Y-25243012D02*
X-24337819Y-25243012D01*
X-37033200Y-25831200D02*
X-36445012Y-25243012D01*
D37*
X-48310811Y-21268081D02*
X-43243693Y-26335199D01*
X-48310811Y-18159219D02*
X-48310811Y-21268081D01*
X-43243693Y-26335199D02*
X-37537199Y-26335199D01*
D40*
X-24337819Y-25243012D02*
X-21803601Y-22708794D01*
D37*
X-51572300Y-16050930D02*
X-50419100Y-16050930D01*
X-37283199Y-26081199D02*
X-37033200Y-25831200D01*
D40*
X-21803601Y-22708794D02*
X-21553602Y-22458795D01*
D37*
X-50419100Y-16050930D02*
X-48310811Y-18159219D01*
D40*
X-36445012Y-65743012D02*
X-24337819Y-65743012D01*
X-37033200Y-66331200D02*
X-36445012Y-65743012D01*
D37*
X-37537199Y-66835199D02*
X-37283199Y-66581199D01*
D40*
X-24337819Y-65743012D02*
X-21803601Y-63208794D01*
D37*
X-48310811Y-58659219D02*
X-48310811Y-61768081D01*
X-37283199Y-66581199D02*
X-37033200Y-66331200D01*
X-50419100Y-56550930D02*
X-48310811Y-58659219D01*
X-48310811Y-61768081D02*
X-43243693Y-66835199D01*
X-43243693Y-66835199D02*
X-37537199Y-66835199D01*
D40*
X-21803601Y-63208794D02*
X-21553602Y-62958795D01*
D37*
X-51572300Y-56550930D02*
X-50419100Y-56550930D01*
G04 #@! TO.N,/D7_WIFI_CS*
X-56824392Y72466189D02*
X-57343889Y72466189D01*
X-57743938Y72066140D02*
X-57896330Y72066140D01*
X-57343889Y72466189D02*
X-57743938Y72066140D01*
X-58299530Y71662940D02*
X-58299530Y70912940D01*
X-54701031Y72472552D02*
X-56818029Y72472552D01*
X-34798000Y72466189D02*
X-54694668Y72466189D01*
X-33604200Y71247000D02*
X-34798000Y72440800D01*
X-34798000Y72440800D02*
X-34798000Y72466189D01*
X-25699708Y69062600D02*
X-27884108Y71247000D01*
X-23352256Y70272144D02*
X-24561800Y69062600D01*
X-22269057Y70272144D02*
X-23352256Y70272144D01*
X-22019058Y70522143D02*
X-22269057Y70272144D01*
X-57896330Y72066140D02*
X-58299530Y71662940D01*
X-56818029Y72472552D02*
X-56824392Y72466189D01*
X-24561800Y69062600D02*
X-25699708Y69062600D01*
X-54694668Y72466189D02*
X-54701031Y72472552D01*
X-27884108Y71247000D02*
X-33604200Y71247000D01*
X-57343889Y31966189D02*
X-57743938Y31566140D01*
X-27884108Y30747000D02*
X-33604200Y30747000D01*
X-56824392Y31966189D02*
X-57343889Y31966189D01*
X-25699708Y28562600D02*
X-27884108Y30747000D01*
X-54701031Y31972552D02*
X-56818029Y31972552D01*
X-57743938Y31566140D02*
X-57896330Y31566140D01*
X-22269057Y29772144D02*
X-23352256Y29772144D01*
X-57896330Y31566140D02*
X-58299530Y31162940D01*
X-24561800Y28562600D02*
X-25699708Y28562600D01*
X-33604200Y30747000D02*
X-34798000Y31940800D01*
X-34798000Y31940800D02*
X-34798000Y31966189D01*
X-56818029Y31972552D02*
X-56824392Y31966189D01*
X-34798000Y31966189D02*
X-54694668Y31966189D01*
X-54694668Y31966189D02*
X-54701031Y31972552D01*
X-22019058Y30022143D02*
X-22269057Y29772144D01*
X-58299530Y31162940D02*
X-58299530Y30412940D01*
X-23352256Y29772144D02*
X-24561800Y28562600D01*
X-56824392Y-8533811D02*
X-57343889Y-8533811D01*
X-27884108Y-9753000D02*
X-33604200Y-9753000D01*
X-25699708Y-11937400D02*
X-27884108Y-9753000D01*
X-54701031Y-8527448D02*
X-56818029Y-8527448D01*
X-22269057Y-10727856D02*
X-23352256Y-10727856D01*
X-57343889Y-8533811D02*
X-57743938Y-8933860D01*
X-57896330Y-8933860D02*
X-58299530Y-9337060D01*
X-34798000Y-8533811D02*
X-54694668Y-8533811D01*
X-54694668Y-8533811D02*
X-54701031Y-8527448D01*
X-22019058Y-10477857D02*
X-22269057Y-10727856D01*
X-58299530Y-9337060D02*
X-58299530Y-10087060D01*
X-23352256Y-10727856D02*
X-24561800Y-11937400D01*
X-24561800Y-11937400D02*
X-25699708Y-11937400D01*
X-34798000Y-8559200D02*
X-34798000Y-8533811D01*
X-57743938Y-8933860D02*
X-57896330Y-8933860D01*
X-33604200Y-9753000D02*
X-34798000Y-8559200D01*
X-56818029Y-8527448D02*
X-56824392Y-8533811D01*
X-27884108Y-50253000D02*
X-33604200Y-50253000D01*
X-56824392Y-49033811D02*
X-57343889Y-49033811D01*
X-57896330Y-49433860D02*
X-58299530Y-49837060D01*
X-58299530Y-49837060D02*
X-58299530Y-50587060D01*
X-24561800Y-52437400D02*
X-25699708Y-52437400D01*
X-54701031Y-49027448D02*
X-56818029Y-49027448D01*
X-57743938Y-49433860D02*
X-57896330Y-49433860D01*
X-57343889Y-49033811D02*
X-57743938Y-49433860D01*
X-34798000Y-49033811D02*
X-54694668Y-49033811D01*
X-34798000Y-49059200D02*
X-34798000Y-49033811D01*
X-33604200Y-50253000D02*
X-34798000Y-49059200D01*
X-56818029Y-49027448D02*
X-56824392Y-49033811D01*
X-25699708Y-52437400D02*
X-27884108Y-50253000D01*
X-23352256Y-51227856D02*
X-24561800Y-52437400D01*
X-54694668Y-49033811D02*
X-54701031Y-49027448D01*
X-22269057Y-51227856D02*
X-23352256Y-51227856D01*
X-22019058Y-50977857D02*
X-22269057Y-51227856D01*
G04 #@! TO.N,/A2_WIFI_IRQ*
X-32788647Y72910900D02*
X-32788647Y72784184D01*
X-32788647Y72784184D02*
X-32538648Y72534185D01*
X-33358310Y73480563D02*
X-32788647Y72910900D01*
X-59529907Y73480563D02*
X-33358310Y73480563D01*
X-61347530Y71662940D02*
X-59529907Y73480563D01*
X-61347530Y70912940D02*
X-61347530Y71662940D01*
X-33358310Y32980563D02*
X-32788647Y32410900D01*
X-61347530Y30412940D02*
X-61347530Y31162940D01*
X-61347530Y31162940D02*
X-59529907Y32980563D01*
X-59529907Y32980563D02*
X-33358310Y32980563D01*
X-32788647Y32284184D02*
X-32538648Y32034185D01*
X-32788647Y32410900D02*
X-32788647Y32284184D01*
X-61347530Y-9337060D02*
X-59529907Y-7519437D01*
X-32788647Y-8215816D02*
X-32538648Y-8465815D01*
X-59529907Y-7519437D02*
X-33358310Y-7519437D01*
X-32788647Y-8089100D02*
X-32788647Y-8215816D01*
X-33358310Y-7519437D02*
X-32788647Y-8089100D01*
X-61347530Y-10087060D02*
X-61347530Y-9337060D01*
X-61347530Y-50587060D02*
X-61347530Y-49837060D01*
X-32788647Y-48715816D02*
X-32538648Y-48965815D01*
X-33358310Y-48019437D02*
X-32788647Y-48589100D01*
X-59529907Y-48019437D02*
X-33358310Y-48019437D01*
X-32788647Y-48589100D02*
X-32788647Y-48715816D01*
X-61347530Y-49837060D02*
X-59529907Y-48019437D01*
G04 #@! TO.N,/D8_WIFI_WAKE*
X-63379534Y71662940D02*
X-61206300Y73836174D01*
X-25247600Y73331847D02*
X-25247600Y73685400D01*
X-30919686Y71628000D02*
X-27762200Y71628000D01*
X-26074939Y71004032D02*
X-25247600Y71831371D01*
X-27762200Y71628000D02*
X-27138232Y71004032D01*
X-61206300Y73836174D02*
X-33127860Y73836174D01*
X-33127860Y73836174D02*
X-30919686Y71628000D01*
X-63379534Y70912940D02*
X-63379534Y71662940D01*
X-27138232Y71004032D02*
X-26074939Y71004032D01*
X-25247600Y71831371D02*
X-25247600Y73331847D01*
X-63379534Y31162940D02*
X-61206300Y33336174D01*
X-63379534Y30412940D02*
X-63379534Y31162940D01*
X-25247600Y31331371D02*
X-25247600Y32831847D01*
X-25247600Y32831847D02*
X-25247600Y33185400D01*
X-26074939Y30504032D02*
X-25247600Y31331371D01*
X-27138232Y30504032D02*
X-26074939Y30504032D01*
X-30919686Y31128000D02*
X-27762200Y31128000D01*
X-33127860Y33336174D02*
X-30919686Y31128000D01*
X-27762200Y31128000D02*
X-27138232Y30504032D01*
X-61206300Y33336174D02*
X-33127860Y33336174D01*
X-33127860Y-7163826D02*
X-30919686Y-9372000D01*
X-61206300Y-7163826D02*
X-33127860Y-7163826D01*
X-27762200Y-9372000D02*
X-27138232Y-9995968D01*
X-63379534Y-9337060D02*
X-61206300Y-7163826D01*
X-63379534Y-10087060D02*
X-63379534Y-9337060D01*
X-30919686Y-9372000D02*
X-27762200Y-9372000D01*
X-27138232Y-9995968D02*
X-26074939Y-9995968D01*
X-25247600Y-7668153D02*
X-25247600Y-7314600D01*
X-26074939Y-9995968D02*
X-25247600Y-9168629D01*
X-25247600Y-9168629D02*
X-25247600Y-7668153D01*
X-61206300Y-47663826D02*
X-33127860Y-47663826D01*
X-33127860Y-47663826D02*
X-30919686Y-49872000D01*
X-27762200Y-49872000D02*
X-27138232Y-50495968D01*
X-63379534Y-50587060D02*
X-63379534Y-49837060D01*
X-63379534Y-49837060D02*
X-61206300Y-47663826D01*
X-26074939Y-50495968D02*
X-25247600Y-49668629D01*
X-25247600Y-49668629D02*
X-25247600Y-48168153D01*
X-30919686Y-49872000D02*
X-27762200Y-49872000D01*
X-25247600Y-48168153D02*
X-25247600Y-47814600D01*
X-27138232Y-50495968D02*
X-26074939Y-50495968D01*
G04 #@! TO.N,/A4_GPS_EN*
X-27743132Y74832388D02*
X-21671534Y74832388D01*
X-20047227Y75352349D02*
X-11054823Y75352349D01*
X-20841321Y75662601D02*
X-20357479Y75662601D01*
X-11054823Y75352349D02*
X-10556307Y74853833D01*
X-10556307Y74853833D02*
X-6377734Y74853833D01*
X-20357479Y75662601D02*
X-20047227Y75352349D01*
X-21671534Y74832388D02*
X-20841321Y75662601D01*
X-6377734Y74853833D02*
X-6127735Y75103832D01*
X-28263093Y75352349D02*
X-27743132Y74832388D01*
X-27743132Y34332388D02*
X-21671534Y34332388D01*
X-20841321Y35162601D02*
X-20357479Y35162601D01*
X-20047227Y34852349D02*
X-11054823Y34852349D01*
X-20357479Y35162601D02*
X-20047227Y34852349D01*
X-10556307Y34353833D02*
X-6377734Y34353833D01*
X-6377734Y34353833D02*
X-6127735Y34603832D01*
X-11054823Y34852349D02*
X-10556307Y34353833D01*
X-21671534Y34332388D02*
X-20841321Y35162601D01*
X-28263093Y34852349D02*
X-27743132Y34332388D01*
X-11054823Y-5647651D02*
X-10556307Y-6146167D01*
X-20357479Y-5337399D02*
X-20047227Y-5647651D01*
X-10556307Y-6146167D02*
X-6377734Y-6146167D01*
X-6377734Y-6146167D02*
X-6127735Y-5896168D01*
X-27743132Y-6167612D02*
X-21671534Y-6167612D01*
X-28263093Y-5647651D02*
X-27743132Y-6167612D01*
X-21671534Y-6167612D02*
X-20841321Y-5337399D01*
X-20047227Y-5647651D02*
X-11054823Y-5647651D01*
X-20841321Y-5337399D02*
X-20357479Y-5337399D01*
X-10556307Y-46646167D02*
X-6377734Y-46646167D01*
X-20357479Y-45837399D02*
X-20047227Y-46147651D01*
X-6377734Y-46646167D02*
X-6127735Y-46396168D01*
X-11054823Y-46147651D02*
X-10556307Y-46646167D01*
X-27743132Y-46667612D02*
X-21671534Y-46667612D01*
X-28263093Y-46147651D02*
X-27743132Y-46667612D01*
X-21671534Y-46667612D02*
X-20841321Y-45837399D01*
X-20841321Y-45837399D02*
X-20357479Y-45837399D01*
X-20047227Y-46147651D02*
X-11054823Y-46147651D01*
G04 #@! TO.N,/D5_RADIO_CS*
X-20141200Y61328800D02*
X-20491200Y61328800D01*
X-20491200Y61328800D02*
X-23679703Y64517303D01*
X-23679703Y66985837D02*
X-23679703Y67339390D01*
X-23679703Y64517303D02*
X-23679703Y66985837D01*
X-20141200Y20828800D02*
X-20491200Y20828800D01*
X-23679703Y26485837D02*
X-23679703Y26839390D01*
X-23679703Y24017303D02*
X-23679703Y26485837D01*
X-20491200Y20828800D02*
X-23679703Y24017303D01*
X-20141200Y-19671200D02*
X-20491200Y-19671200D01*
X-23679703Y-14014163D02*
X-23679703Y-13660610D01*
X-23679703Y-16482697D02*
X-23679703Y-14014163D01*
X-20491200Y-19671200D02*
X-23679703Y-16482697D01*
X-23679703Y-54514163D02*
X-23679703Y-54160610D01*
X-23679703Y-56982697D02*
X-23679703Y-54514163D01*
X-20141200Y-60171200D02*
X-20491200Y-60171200D01*
X-20491200Y-60171200D02*
X-23679703Y-56982697D01*
G04 #@! TO.N,/D26_FLASH_CS*
X-25445338Y57247599D02*
X-22456880Y60236057D01*
X-22456880Y60236057D02*
X-22206881Y60486056D01*
X-35801488Y56997600D02*
X-35551489Y57247599D01*
X-35551489Y57247599D02*
X-25445338Y57247599D01*
X-22456880Y19736057D02*
X-22206881Y19986056D01*
X-25445338Y16747599D02*
X-22456880Y19736057D01*
X-35551489Y16747599D02*
X-25445338Y16747599D01*
X-35801488Y16497600D02*
X-35551489Y16747599D01*
X-25445338Y-23752401D02*
X-22456880Y-20763943D01*
X-35551489Y-23752401D02*
X-25445338Y-23752401D01*
X-35801488Y-24002400D02*
X-35551489Y-23752401D01*
X-22456880Y-20763943D02*
X-22206881Y-20513944D01*
X-25445338Y-64252401D02*
X-22456880Y-61263943D01*
X-35551489Y-64252401D02*
X-25445338Y-64252401D01*
X-22456880Y-61263943D02*
X-22206881Y-61013944D01*
X-35801488Y-64502400D02*
X-35551489Y-64252401D01*
G04 #@! TO.N,/D25_PERIPH_EN*
X-24788353Y76301600D02*
X-24434800Y76301600D01*
X-28227380Y76301600D02*
X-24788353Y76301600D01*
X-28655190Y75873790D02*
X-28227380Y76301600D01*
X-24788353Y35801600D02*
X-24434800Y35801600D01*
X-28655190Y35373790D02*
X-28227380Y35801600D01*
X-28227380Y35801600D02*
X-24788353Y35801600D01*
X-28655190Y-5126210D02*
X-28227380Y-4698400D01*
X-28227380Y-4698400D02*
X-24788353Y-4698400D01*
X-24788353Y-4698400D02*
X-24434800Y-4698400D01*
X-28655190Y-45626210D02*
X-28227380Y-45198400D01*
X-24788353Y-45198400D02*
X-24434800Y-45198400D01*
X-28227380Y-45198400D02*
X-24788353Y-45198400D01*
D39*
G04 #@! TO.N,/GPS_PWR_FILT*
X10642600Y66403220D02*
X10591800Y66454020D01*
X10591800Y66454020D02*
X10591800Y66598800D01*
X10591800Y25954020D02*
X10591800Y26098800D01*
X10642600Y25903220D02*
X10591800Y25954020D01*
X10642600Y-14596780D02*
X10591800Y-14545980D01*
X10591800Y-14545980D02*
X10591800Y-14401200D01*
X10642600Y-55096780D02*
X10591800Y-55045980D01*
X10591800Y-55045980D02*
X10591800Y-54901200D01*
D38*
G04 #@! TO.N,Net-(J15-Pad1)*
X-4141200Y67328800D02*
X-5505200Y67328800D01*
X-5505200Y67328800D02*
X-5537200Y67360800D01*
X-4109200Y67360800D02*
X-4141200Y67328800D01*
X-2743200Y67360800D02*
X-4109200Y67360800D01*
X-4141200Y67328800D02*
X-4141200Y67994800D01*
X-4141200Y67994800D02*
X-4140200Y67995800D01*
X-4140200Y67327800D02*
X-4141200Y67328800D01*
X-4140200Y66598800D02*
X-4140200Y67327800D01*
D36*
X-5156200Y69011800D02*
X-4140200Y67995800D01*
X-5156200Y69519800D02*
X-5156200Y69011800D01*
D38*
X-4141200Y26828800D02*
X-5505200Y26828800D01*
X-5505200Y26828800D02*
X-5537200Y26860800D01*
X-4109200Y26860800D02*
X-4141200Y26828800D01*
D36*
X-5156200Y29019800D02*
X-5156200Y28511800D01*
D38*
X-2743200Y26860800D02*
X-4109200Y26860800D01*
X-4140200Y26827800D02*
X-4141200Y26828800D01*
X-4141200Y26828800D02*
X-4141200Y27494800D01*
X-4141200Y27494800D02*
X-4140200Y27495800D01*
X-4140200Y26098800D02*
X-4140200Y26827800D01*
D36*
X-5156200Y28511800D02*
X-4140200Y27495800D01*
D38*
X-4109200Y-13639200D02*
X-4141200Y-13671200D01*
X-5505200Y-13671200D02*
X-5537200Y-13639200D01*
D36*
X-5156200Y-11480200D02*
X-5156200Y-11988200D01*
D38*
X-2743200Y-13639200D02*
X-4109200Y-13639200D01*
X-4141200Y-13671200D02*
X-5505200Y-13671200D01*
X-4140200Y-13672200D02*
X-4141200Y-13671200D01*
X-4141200Y-13005200D02*
X-4140200Y-13004200D01*
D36*
X-5156200Y-11988200D02*
X-4140200Y-13004200D01*
D38*
X-4140200Y-14401200D02*
X-4140200Y-13672200D01*
X-4141200Y-13671200D02*
X-4141200Y-13005200D01*
D36*
X-5156200Y-51980200D02*
X-5156200Y-52488200D01*
D38*
X-4109200Y-54139200D02*
X-4141200Y-54171200D01*
X-4141200Y-54171200D02*
X-5505200Y-54171200D01*
X-2743200Y-54139200D02*
X-4109200Y-54139200D01*
X-5505200Y-54171200D02*
X-5537200Y-54139200D01*
X-4141200Y-54171200D02*
X-4141200Y-53505200D01*
X-4141200Y-53505200D02*
X-4140200Y-53504200D01*
D36*
X-5156200Y-52488200D02*
X-4140200Y-53504200D01*
D38*
X-4140200Y-54172200D02*
X-4141200Y-54171200D01*
X-4140200Y-54901200D02*
X-4140200Y-54172200D01*
D37*
G04 #@! TO.N,/SDA1*
X-9523057Y71399400D02*
X-9876610Y71399400D01*
X1196801Y70405799D02*
X203200Y71399400D01*
X203200Y71399400D02*
X-9523057Y71399400D01*
X-10185400Y80441800D02*
X-11150600Y81407000D01*
X-11150600Y81407000D02*
X-24257000Y81407000D01*
X-24257000Y81407000D02*
X-28295600Y85445600D01*
X-28295600Y85445600D02*
X-28295600Y85979000D01*
D40*
X-50210200Y68280800D02*
X-48082200Y70408800D01*
X-21095450Y68499799D02*
X-18362246Y68499799D01*
X-21624860Y67970389D02*
X-21095450Y68499799D01*
X-25721078Y67970389D02*
X-21624860Y67970389D01*
X-18362246Y68499799D02*
X-18112247Y68249800D01*
X-28159489Y70408800D02*
X-25721078Y67970389D01*
X-48082200Y70408800D02*
X-28159489Y70408800D01*
X-51892200Y68280800D02*
X-50210200Y68280800D01*
D37*
X1196801Y64081199D02*
X1196801Y70405799D01*
X2489200Y62788800D02*
X1196801Y64081199D01*
X-31292802Y87020402D02*
X-31292802Y85394800D01*
X-32181800Y87909400D02*
X-31292802Y87020402D01*
X-43637200Y85902800D02*
X-41630600Y87909400D01*
X-41630600Y87909400D02*
X-32181800Y87909400D01*
X-31292802Y85889202D02*
X-31369000Y85965400D01*
X-31292802Y85394800D02*
X-31292802Y85889202D01*
D40*
X-25721078Y27470389D02*
X-21624860Y27470389D01*
D37*
X2489200Y22288800D02*
X1196801Y23581199D01*
D40*
X-21095450Y27999799D02*
X-18362246Y27999799D01*
D37*
X-31292802Y46520402D02*
X-31292802Y44894800D01*
X-10185400Y39941800D02*
X-11150600Y40907000D01*
X1196801Y29905799D02*
X203200Y30899400D01*
X-32181800Y47409400D02*
X-31292802Y46520402D01*
X-43637200Y45402800D02*
X-41630600Y47409400D01*
X-41630600Y47409400D02*
X-32181800Y47409400D01*
D40*
X-28159489Y29908800D02*
X-25721078Y27470389D01*
D37*
X-31292802Y45389202D02*
X-31369000Y45465400D01*
X-28295600Y44945600D02*
X-28295600Y45479000D01*
X203200Y30899400D02*
X-9523057Y30899400D01*
X-9523057Y30899400D02*
X-9876610Y30899400D01*
X-24257000Y40907000D02*
X-28295600Y44945600D01*
D40*
X-50210200Y27780800D02*
X-48082200Y29908800D01*
X-18362246Y27999799D02*
X-18112247Y27749800D01*
X-51892200Y27780800D02*
X-50210200Y27780800D01*
D37*
X-11150600Y40907000D02*
X-24257000Y40907000D01*
D40*
X-21624860Y27470389D02*
X-21095450Y27999799D01*
X-48082200Y29908800D02*
X-28159489Y29908800D01*
D37*
X1196801Y23581199D02*
X1196801Y29905799D01*
X-31292802Y44894800D02*
X-31292802Y45389202D01*
X-11150600Y407000D02*
X-24257000Y407000D01*
X-24257000Y407000D02*
X-28295600Y4445600D01*
X-31292802Y4394800D02*
X-31292802Y4889202D01*
D40*
X-50210200Y-12719200D02*
X-48082200Y-10591200D01*
X-18362246Y-12500201D02*
X-18112247Y-12750200D01*
X-51892200Y-12719200D02*
X-50210200Y-12719200D01*
X-21624860Y-13029611D02*
X-21095450Y-12500201D01*
X-48082200Y-10591200D02*
X-28159489Y-10591200D01*
D37*
X1196801Y-16918801D02*
X1196801Y-10594201D01*
X-31292802Y6020402D02*
X-31292802Y4394800D01*
X-9523057Y-9600600D02*
X-9876610Y-9600600D01*
X-43637200Y4902800D02*
X-41630600Y6909400D01*
D40*
X-28159489Y-10591200D02*
X-25721078Y-13029611D01*
D37*
X-31292802Y4889202D02*
X-31369000Y4965400D01*
D40*
X-25721078Y-13029611D02*
X-21624860Y-13029611D01*
D37*
X203200Y-9600600D02*
X-9523057Y-9600600D01*
X-41630600Y6909400D02*
X-32181800Y6909400D01*
X1196801Y-10594201D02*
X203200Y-9600600D01*
X-10185400Y-558200D02*
X-11150600Y407000D01*
X2489200Y-18211200D02*
X1196801Y-16918801D01*
X-32181800Y6909400D02*
X-31292802Y6020402D01*
D40*
X-21095450Y-12500201D02*
X-18362246Y-12500201D01*
D37*
X-28295600Y4445600D02*
X-28295600Y4979000D01*
X-24257000Y-40093000D02*
X-28295600Y-36054400D01*
D40*
X-50210200Y-53219200D02*
X-48082200Y-51091200D01*
D37*
X-11150600Y-40093000D02*
X-24257000Y-40093000D01*
X-31292802Y-36105200D02*
X-31292802Y-35610798D01*
D40*
X-48082200Y-51091200D02*
X-28159489Y-51091200D01*
D37*
X1196801Y-57418801D02*
X1196801Y-51094201D01*
D40*
X-18362246Y-53000201D02*
X-18112247Y-53250200D01*
X-51892200Y-53219200D02*
X-50210200Y-53219200D01*
X-21624860Y-53529611D02*
X-21095450Y-53000201D01*
D37*
X-31292802Y-34479598D02*
X-31292802Y-36105200D01*
X-9523057Y-50100600D02*
X-9876610Y-50100600D01*
X-43637200Y-35597200D02*
X-41630600Y-33590600D01*
D40*
X-28159489Y-51091200D02*
X-25721078Y-53529611D01*
D37*
X-31292802Y-35610798D02*
X-31369000Y-35534600D01*
D40*
X-21095450Y-53000201D02*
X-18362246Y-53000201D01*
D37*
X-28295600Y-36054400D02*
X-28295600Y-35521000D01*
X1196801Y-51094201D02*
X203200Y-50100600D01*
X-41630600Y-33590600D02*
X-32181800Y-33590600D01*
X203200Y-50100600D02*
X-9523057Y-50100600D01*
X-32181800Y-33590600D02*
X-31292802Y-34479598D01*
D40*
X-25721078Y-53529611D02*
X-21624860Y-53529611D01*
D37*
X-10185400Y-41058200D02*
X-11150600Y-40093000D01*
X2489200Y-58711200D02*
X1196801Y-57418801D01*
D40*
G04 #@! TO.N,/SCL1*
X-10283116Y79853714D02*
X-10261588Y79832186D01*
X-10261588Y79832186D02*
X-10261588Y79793852D01*
D37*
X304800Y71932800D02*
X1574800Y70662800D01*
D41*
X304800Y71932800D02*
X-257990Y72495590D01*
D37*
X-12014200Y69291200D02*
X-12065000Y69342000D01*
X-12065000Y69342000D02*
X-12065000Y72142017D01*
X-12065000Y72142017D02*
X-12065000Y72495570D01*
D41*
X-257990Y72495590D02*
X-11711427Y72495590D01*
X-11711447Y72495570D02*
X-12065000Y72495570D01*
X-11711427Y72495590D02*
X-11711447Y72495570D01*
D37*
X1574800Y64820800D02*
X1574800Y70662800D01*
X3200400Y63195200D02*
X1574800Y64820800D01*
D40*
X-25552738Y68376800D02*
X-21920200Y68376800D01*
X-52596874Y70815211D02*
X-27991149Y70815211D01*
X-17626926Y68918978D02*
X-17550726Y68842778D01*
X-53744001Y69668084D02*
X-52596874Y70815211D01*
X-17550726Y68842778D02*
X-17300727Y68592779D01*
X-21920200Y68376800D02*
X-21378022Y68918978D01*
X-27991149Y70815211D02*
X-25552738Y68376800D01*
X-21378022Y68918978D02*
X-17626926Y68918978D01*
X-53744001Y69314531D02*
X-53744001Y69668084D01*
D37*
X-42341800Y88163400D02*
X-42091801Y88413399D01*
X-10261588Y79793852D02*
X-11468336Y81000600D01*
X-29387800Y86539847D02*
X-29387800Y86893400D01*
X-11468336Y81000600D02*
X-24356553Y81000600D01*
X-24356553Y81000600D02*
X-29387800Y86031847D01*
X-29387800Y86031847D02*
X-29387800Y86539847D01*
X-30907799Y88413399D02*
X-29637799Y87143399D01*
X-42091801Y88413399D02*
X-30907799Y88413399D01*
X-29637799Y87143399D02*
X-29387800Y86893400D01*
X-29845000Y86436200D02*
X-29387800Y86893400D01*
X-29845000Y85990800D02*
X-29845000Y86436200D01*
X304800Y31432800D02*
X1574800Y30162800D01*
D41*
X304800Y31432800D02*
X-257990Y31995590D01*
D37*
X-12065000Y28842000D02*
X-12065000Y31642017D01*
D41*
X-11711427Y31995590D02*
X-11711447Y31995570D01*
D40*
X-25552738Y27876800D02*
X-21920200Y27876800D01*
X-52596874Y30315211D02*
X-27991149Y30315211D01*
X-53744001Y29168084D02*
X-52596874Y30315211D01*
X-21920200Y27876800D02*
X-21378022Y28418978D01*
X-27991149Y30315211D02*
X-25552738Y27876800D01*
X-21378022Y28418978D02*
X-17626926Y28418978D01*
D41*
X-257990Y31995590D02*
X-11711427Y31995590D01*
D37*
X1574800Y24320800D02*
X1574800Y30162800D01*
X3200400Y22695200D02*
X1574800Y24320800D01*
X-12014200Y28791200D02*
X-12065000Y28842000D01*
D40*
X-17550726Y28342778D02*
X-17300727Y28092779D01*
X-10283116Y39353714D02*
X-10261588Y39332186D01*
X-53744001Y28814531D02*
X-53744001Y29168084D01*
X-10261588Y39332186D02*
X-10261588Y39293852D01*
D37*
X-12065000Y31642017D02*
X-12065000Y31995570D01*
D41*
X-11711447Y31995570D02*
X-12065000Y31995570D01*
D40*
X-17626926Y28418978D02*
X-17550726Y28342778D01*
D37*
X-29845000Y45936200D02*
X-29387800Y46393400D01*
X-29845000Y45490800D02*
X-29845000Y45936200D01*
X-24356553Y40500600D02*
X-29387800Y45531847D01*
X-29387800Y45531847D02*
X-29387800Y46039847D01*
X-10261588Y39293852D02*
X-11468336Y40500600D01*
X-42091801Y47913399D02*
X-30907799Y47913399D01*
X-29387800Y46039847D02*
X-29387800Y46393400D01*
X-11468336Y40500600D02*
X-24356553Y40500600D01*
X-30907799Y47913399D02*
X-29637799Y46643399D01*
X-29637799Y46643399D02*
X-29387800Y46393400D01*
X-42341800Y47663400D02*
X-42091801Y47913399D01*
D40*
X-52596874Y-10184789D02*
X-27991149Y-10184789D01*
D37*
X-12065000Y-11658000D02*
X-12065000Y-8857983D01*
D41*
X-257990Y-8504410D02*
X-11711427Y-8504410D01*
X-11711427Y-8504410D02*
X-11711447Y-8504430D01*
D37*
X3200400Y-17804800D02*
X1574800Y-16179200D01*
D40*
X-10283116Y-1146286D02*
X-10261588Y-1167814D01*
D41*
X304800Y-9067200D02*
X-257990Y-8504410D01*
D40*
X-53744001Y-11331916D02*
X-52596874Y-10184789D01*
X-27991149Y-10184789D02*
X-25552738Y-12623200D01*
D37*
X-12014200Y-11708800D02*
X-12065000Y-11658000D01*
D40*
X-21920200Y-12623200D02*
X-21378022Y-12081022D01*
D37*
X1574800Y-16179200D02*
X1574800Y-10337200D01*
D40*
X-17550726Y-12157222D02*
X-17300727Y-12407221D01*
X-21378022Y-12081022D02*
X-17626926Y-12081022D01*
X-25552738Y-12623200D02*
X-21920200Y-12623200D01*
D37*
X304800Y-9067200D02*
X1574800Y-10337200D01*
X-10261588Y-1206148D02*
X-11468336Y600D01*
X-29637799Y6143399D02*
X-29387800Y5893400D01*
X-42091801Y7413399D02*
X-30907799Y7413399D01*
X-29387800Y5539847D02*
X-29387800Y5893400D01*
X-30907799Y7413399D02*
X-29637799Y6143399D01*
X-29845000Y5436200D02*
X-29387800Y5893400D01*
X-24356553Y600D02*
X-29387800Y5031847D01*
X-29387800Y5031847D02*
X-29387800Y5539847D01*
X-29845000Y4990800D02*
X-29845000Y5436200D01*
X-11468336Y600D02*
X-24356553Y600D01*
X-42341800Y7163400D02*
X-42091801Y7413399D01*
D40*
X-53744001Y-11685469D02*
X-53744001Y-11331916D01*
X-17626926Y-12081022D02*
X-17550726Y-12157222D01*
D37*
X-12065000Y-8857983D02*
X-12065000Y-8504430D01*
D41*
X-11711447Y-8504430D02*
X-12065000Y-8504430D01*
D40*
X-10261588Y-1167814D02*
X-10261588Y-1206148D01*
D41*
X-257990Y-49004410D02*
X-11711427Y-49004410D01*
D37*
X-12065000Y-52158000D02*
X-12065000Y-49357983D01*
X3200400Y-58304800D02*
X1574800Y-56679200D01*
D41*
X-11711427Y-49004410D02*
X-11711447Y-49004430D01*
D40*
X-52596874Y-50684789D02*
X-27991149Y-50684789D01*
D37*
X304800Y-49567200D02*
X1574800Y-50837200D01*
D40*
X-25552738Y-53123200D02*
X-21920200Y-53123200D01*
D41*
X304800Y-49567200D02*
X-257990Y-49004410D01*
D40*
X-21920200Y-53123200D02*
X-21378022Y-52581022D01*
X-17550726Y-52657222D02*
X-17300727Y-52907221D01*
X-27991149Y-50684789D02*
X-25552738Y-53123200D01*
D37*
X1574800Y-56679200D02*
X1574800Y-50837200D01*
D40*
X-21378022Y-52581022D02*
X-17626926Y-52581022D01*
D37*
X-12014200Y-52208800D02*
X-12065000Y-52158000D01*
D40*
X-10283116Y-41646286D02*
X-10261588Y-41667814D01*
X-53744001Y-51831916D02*
X-52596874Y-50684789D01*
D37*
X-29387800Y-35468153D02*
X-29387800Y-34960153D01*
X-11468336Y-40499400D02*
X-24356553Y-40499400D01*
X-42341800Y-33336600D02*
X-42091801Y-33086601D01*
X-29845000Y-35509200D02*
X-29845000Y-35063800D01*
X-24356553Y-40499400D02*
X-29387800Y-35468153D01*
X-42091801Y-33086601D02*
X-30907799Y-33086601D01*
X-29387800Y-34960153D02*
X-29387800Y-34606600D01*
X-10261588Y-41706148D02*
X-11468336Y-40499400D01*
X-29637799Y-34356601D02*
X-29387800Y-34606600D01*
X-30907799Y-33086601D02*
X-29637799Y-34356601D01*
X-29845000Y-35063800D02*
X-29387800Y-34606600D01*
D40*
X-53744001Y-52185469D02*
X-53744001Y-51831916D01*
X-17626926Y-52581022D02*
X-17550726Y-52657222D01*
D37*
X-12065000Y-49357983D02*
X-12065000Y-49004430D01*
D41*
X-11711447Y-49004430D02*
X-12065000Y-49004430D01*
D40*
X-10261588Y-41667814D02*
X-10261588Y-41706148D01*
D37*
G04 #@! TO.N,Net-(C40-Pad1)*
X-58623200Y68630800D02*
X-58623200Y65074800D01*
X-58623200Y65074800D02*
X-59766200Y63931800D01*
X-58623200Y28130800D02*
X-58623200Y24574800D01*
X-58623200Y24574800D02*
X-59766200Y23431800D01*
X-58623200Y-15925200D02*
X-59766200Y-17068200D01*
X-58623200Y-12369200D02*
X-58623200Y-15925200D01*
X-58623200Y-52869200D02*
X-58623200Y-56425200D01*
X-58623200Y-56425200D02*
X-59766200Y-57568200D01*
D41*
G04 #@! TO.N,Net-(J16-Pad4)*
X-15966200Y85013800D02*
X-15966200Y84186400D01*
X-17348200Y82600800D02*
X-16256000Y82600800D01*
X-16256000Y82600800D02*
X-15966200Y82890600D01*
X-15966200Y82890600D02*
X-15966200Y83032600D01*
X-15966200Y83032600D02*
X-15966200Y85013800D01*
D37*
X-11645000Y84875000D02*
X-11682200Y84912200D01*
X-11645000Y83548600D02*
X-11645000Y84875000D01*
X-12491200Y82702400D02*
X-11645000Y83548600D01*
X-15966200Y83032600D02*
X-15636000Y82702400D01*
X-15636000Y82702400D02*
X-12491200Y82702400D01*
X-11682200Y86424400D02*
X-11670400Y86436200D01*
X-11682200Y84912200D02*
X-11682200Y86424400D01*
D41*
X-15966200Y44513800D02*
X-15966200Y43686400D01*
X-17348200Y42100800D02*
X-16256000Y42100800D01*
X-16256000Y42100800D02*
X-15966200Y42390600D01*
X-15966200Y42390600D02*
X-15966200Y42532600D01*
X-15966200Y42532600D02*
X-15966200Y44513800D01*
D37*
X-11645000Y44375000D02*
X-11682200Y44412200D01*
X-11645000Y43048600D02*
X-11645000Y44375000D01*
X-12491200Y42202400D02*
X-11645000Y43048600D01*
X-15966200Y42532600D02*
X-15636000Y42202400D01*
X-11682200Y45924400D02*
X-11670400Y45936200D01*
X-15636000Y42202400D02*
X-12491200Y42202400D01*
X-11682200Y44412200D02*
X-11682200Y45924400D01*
X-15636000Y1702400D02*
X-12491200Y1702400D01*
X-11682200Y5424400D02*
X-11670400Y5436200D01*
X-11682200Y3912200D02*
X-11682200Y5424400D01*
D41*
X-16256000Y1600800D02*
X-15966200Y1890600D01*
X-15966200Y2032600D02*
X-15966200Y4013800D01*
X-17348200Y1600800D02*
X-16256000Y1600800D01*
D37*
X-11645000Y3875000D02*
X-11682200Y3912200D01*
D41*
X-15966200Y4013800D02*
X-15966200Y3186400D01*
D37*
X-11645000Y2548600D02*
X-11645000Y3875000D01*
X-15966200Y2032600D02*
X-15636000Y1702400D01*
D41*
X-15966200Y1890600D02*
X-15966200Y2032600D01*
D37*
X-12491200Y1702400D02*
X-11645000Y2548600D01*
X-15636000Y-38797600D02*
X-12491200Y-38797600D01*
X-11682200Y-36587800D02*
X-11682200Y-35075600D01*
X-11682200Y-35075600D02*
X-11670400Y-35063800D01*
D41*
X-15966200Y-38609400D02*
X-15966200Y-38467400D01*
D37*
X-12491200Y-38797600D02*
X-11645000Y-37951400D01*
D41*
X-16256000Y-38899200D02*
X-15966200Y-38609400D01*
X-17348200Y-38899200D02*
X-16256000Y-38899200D01*
D37*
X-11645000Y-36625000D02*
X-11682200Y-36587800D01*
D41*
X-15966200Y-36486200D02*
X-15966200Y-37313600D01*
D37*
X-11645000Y-37951400D02*
X-11645000Y-36625000D01*
D41*
X-15966200Y-38467400D02*
X-15966200Y-36486200D01*
D37*
X-15966200Y-38467400D02*
X-15636000Y-38797600D01*
G04 #@! TO.N,/A3_STATUS*
X-26212800Y74218800D02*
X-25859247Y74218800D01*
X-25859247Y74218800D02*
X-4724400Y74218800D01*
X-399599Y78543601D02*
X-399599Y80942999D01*
X-4724400Y74218800D02*
X-399599Y78543601D01*
X-399599Y80942999D02*
X-399599Y81744001D01*
X1905000Y84048600D02*
X7670800Y84048600D01*
X7670800Y84048600D02*
X10083800Y86461600D01*
X10083800Y86461600D02*
X10083800Y86664800D01*
X-399599Y81744001D02*
X-177800Y81965800D01*
X-177800Y81965800D02*
X1905000Y84048600D01*
X-26212800Y33718800D02*
X-25859247Y33718800D01*
X-25859247Y33718800D02*
X-4724400Y33718800D01*
X-399599Y40442999D02*
X-399599Y41244001D01*
X1905000Y43548600D02*
X7670800Y43548600D01*
X-4724400Y33718800D02*
X-399599Y38043601D01*
X10083800Y45961600D02*
X10083800Y46164800D01*
X-399599Y38043601D02*
X-399599Y40442999D01*
X7670800Y43548600D02*
X10083800Y45961600D01*
X-399599Y41244001D02*
X-177800Y41465800D01*
X-177800Y41465800D02*
X1905000Y43548600D01*
X-4724400Y-6781200D02*
X-399599Y-2456399D01*
X10083800Y5461600D02*
X10083800Y5664800D01*
X-399599Y-2456399D02*
X-399599Y-57001D01*
X-177800Y965800D02*
X1905000Y3048600D01*
X7670800Y3048600D02*
X10083800Y5461600D01*
X-399599Y-57001D02*
X-399599Y744001D01*
X-399599Y744001D02*
X-177800Y965800D01*
X1905000Y3048600D02*
X7670800Y3048600D01*
X-26212800Y-6781200D02*
X-25859247Y-6781200D01*
X-25859247Y-6781200D02*
X-4724400Y-6781200D01*
X10083800Y-35038400D02*
X10083800Y-34835200D01*
X-177800Y-39534200D02*
X1905000Y-37451400D01*
X-399599Y-42956399D02*
X-399599Y-40557001D01*
X-4724400Y-47281200D02*
X-399599Y-42956399D01*
X7670800Y-37451400D02*
X10083800Y-35038400D01*
X1905000Y-37451400D02*
X7670800Y-37451400D01*
X-399599Y-39755999D02*
X-177800Y-39534200D01*
X-399599Y-40557001D02*
X-399599Y-39755999D01*
X-25859247Y-47281200D02*
X-4724400Y-47281200D01*
X-26212800Y-47281200D02*
X-25859247Y-47281200D01*
G04 #@! TO.N,/D9_I2S_DATA*
X-29997422Y74547443D02*
X-29997422Y81560573D01*
X-29967027Y74517048D02*
X-29997422Y74547443D01*
X-29972201Y81585794D02*
X-29722202Y81835793D01*
X-29997422Y81560573D02*
X-29972201Y81585794D01*
X-29972201Y41085794D02*
X-29722202Y41335793D01*
X-29967027Y34017048D02*
X-29997422Y34047443D01*
X-29997422Y41060573D02*
X-29972201Y41085794D01*
X-29997422Y34047443D02*
X-29997422Y41060573D01*
X-29997422Y-6452557D02*
X-29997422Y560573D01*
X-29972201Y585794D02*
X-29722202Y835793D01*
X-29997422Y560573D02*
X-29972201Y585794D01*
X-29967027Y-6482952D02*
X-29997422Y-6452557D01*
X-29997422Y-46952557D02*
X-29997422Y-39939427D01*
X-29967027Y-46982952D02*
X-29997422Y-46952557D01*
X-29972201Y-39914206D02*
X-29722202Y-39664207D01*
X-29997422Y-39939427D02*
X-29972201Y-39914206D01*
G04 #@! TO.N,/D1_I2S_BCLK*
X-29286200Y75260200D02*
X-29286200Y80968791D01*
X-29286200Y80968791D02*
X-28134368Y82120623D01*
X-26517600Y72491600D02*
X-29286200Y75260200D01*
X-28134368Y82120623D02*
X-28134368Y82474176D01*
X-29286200Y34760200D02*
X-29286200Y40468791D01*
X-26517600Y31991600D02*
X-29286200Y34760200D01*
X-29286200Y40468791D02*
X-28134368Y41620623D01*
X-28134368Y41620623D02*
X-28134368Y41974176D01*
X-29286200Y-5739800D02*
X-29286200Y-31209D01*
X-26517600Y-8508400D02*
X-29286200Y-5739800D01*
X-29286200Y-31209D02*
X-28134368Y1120623D01*
X-28134368Y1120623D02*
X-28134368Y1474176D01*
X-29286200Y-46239800D02*
X-29286200Y-40531209D01*
X-26517600Y-49008400D02*
X-29286200Y-46239800D01*
X-28134368Y-39379377D02*
X-28134368Y-39025824D01*
X-29286200Y-40531209D02*
X-28134368Y-39379377D01*
G04 #@! TO.N,/D0_I2S_WS*
X-29641811Y74904611D02*
X-29641811Y81190695D01*
X-28786188Y82092841D02*
X-28786188Y82446394D01*
X-26316861Y71508034D02*
X-27021602Y72212775D01*
X-28786188Y82046318D02*
X-28786188Y82092841D01*
X-27021602Y72212775D02*
X-27021602Y72284402D01*
X-29641811Y81190695D02*
X-28786188Y82046318D01*
X-27021602Y72284402D02*
X-29641811Y74904611D01*
X-26316861Y31008034D02*
X-27021602Y31712775D01*
X-29641811Y34404611D02*
X-29641811Y40690695D01*
X-28786188Y41592841D02*
X-28786188Y41946394D01*
X-28786188Y41546318D02*
X-28786188Y41592841D01*
X-29641811Y40690695D02*
X-28786188Y41546318D01*
X-27021602Y31784402D02*
X-29641811Y34404611D01*
X-27021602Y31712775D02*
X-27021602Y31784402D01*
X-27021602Y-8715598D02*
X-29641811Y-6095389D01*
X-27021602Y-8787225D02*
X-27021602Y-8715598D01*
X-26316861Y-9491966D02*
X-27021602Y-8787225D01*
X-29641811Y-6095389D02*
X-29641811Y190695D01*
X-28786188Y1092841D02*
X-28786188Y1446394D01*
X-28786188Y1046318D02*
X-28786188Y1092841D01*
X-29641811Y190695D02*
X-28786188Y1046318D01*
X-27021602Y-49215598D02*
X-29641811Y-46595389D01*
X-27021602Y-49287225D02*
X-27021602Y-49215598D01*
X-26316861Y-49991966D02*
X-27021602Y-49287225D01*
X-28786188Y-39453682D02*
X-28786188Y-39407159D01*
X-28786188Y-39407159D02*
X-28786188Y-39053606D01*
X-29641811Y-40309305D02*
X-28786188Y-39453682D01*
X-29641811Y-46595389D02*
X-29641811Y-40309305D01*
G04 #@! TO.N,/LORA_D0*
X-4141200Y57328800D02*
X-13520781Y57328800D01*
X-16193476Y60001495D02*
X-16193476Y63807200D01*
X-16193476Y63807200D02*
X-16107598Y63893078D01*
X-16107598Y63893078D02*
X-16107598Y64376922D01*
X-17586113Y69392811D02*
X-23453875Y69392811D01*
X-16107598Y64376922D02*
X-16193476Y64462800D01*
X-23563477Y69283209D02*
X-23813476Y69033210D01*
X-13520781Y57328800D02*
X-16193476Y60001495D01*
X-23453875Y69392811D02*
X-23563477Y69283209D01*
X-17463122Y69515802D02*
X-17586113Y69392811D01*
X-16979278Y69515802D02*
X-17463122Y69515802D01*
X-16193476Y68730000D02*
X-16979278Y69515802D01*
X-16193476Y64462800D02*
X-16193476Y68730000D01*
X-17586113Y28892811D02*
X-23453875Y28892811D01*
X-16107598Y23876922D02*
X-16193476Y23962800D01*
X-13520781Y16828800D02*
X-16193476Y19501495D01*
X-16193476Y19501495D02*
X-16193476Y23307200D01*
X-16193476Y23307200D02*
X-16107598Y23393078D01*
X-16107598Y23393078D02*
X-16107598Y23876922D01*
X-23563477Y28783209D02*
X-23813476Y28533210D01*
X-4141200Y16828800D02*
X-13520781Y16828800D01*
X-17463122Y29015802D02*
X-17586113Y28892811D01*
X-16193476Y28230000D02*
X-16979278Y29015802D01*
X-23453875Y28892811D02*
X-23563477Y28783209D01*
X-16193476Y23962800D02*
X-16193476Y28230000D01*
X-16979278Y29015802D02*
X-17463122Y29015802D01*
X-23563477Y-11716791D02*
X-23813476Y-11966790D01*
X-16193476Y-12270000D02*
X-16979278Y-11484198D01*
X-16193476Y-16537200D02*
X-16193476Y-12270000D01*
X-4141200Y-23671200D02*
X-13520781Y-23671200D01*
X-23453875Y-11607189D02*
X-23563477Y-11716791D01*
X-16979278Y-11484198D02*
X-17463122Y-11484198D01*
X-16193476Y-20998505D02*
X-16193476Y-17192800D01*
X-17463122Y-11484198D02*
X-17586113Y-11607189D01*
X-16107598Y-17106922D02*
X-16107598Y-16623078D01*
X-16193476Y-17192800D02*
X-16107598Y-17106922D01*
X-16107598Y-16623078D02*
X-16193476Y-16537200D01*
X-13520781Y-23671200D02*
X-16193476Y-20998505D01*
X-17586113Y-11607189D02*
X-23453875Y-11607189D01*
X-23563477Y-52216791D02*
X-23813476Y-52466790D01*
X-16193476Y-52770000D02*
X-16979278Y-51984198D01*
X-17463122Y-51984198D02*
X-17586113Y-52107189D01*
X-16107598Y-57606922D02*
X-16107598Y-57123078D01*
X-4141200Y-64171200D02*
X-13520781Y-64171200D01*
X-23453875Y-52107189D02*
X-23563477Y-52216791D01*
X-16979278Y-51984198D02*
X-17463122Y-51984198D01*
X-16193476Y-57692800D02*
X-16107598Y-57606922D01*
X-16193476Y-61498505D02*
X-16193476Y-57692800D01*
X-16193476Y-57037200D02*
X-16193476Y-52770000D01*
X-13520781Y-64171200D02*
X-16193476Y-61498505D01*
X-16107598Y-57123078D02*
X-16193476Y-57037200D01*
X-17586113Y-52107189D02*
X-23453875Y-52107189D01*
G04 #@! TO.N,/LORA_D2*
X-5344400Y53328800D02*
X-8784600Y56769000D01*
X-4141200Y53328800D02*
X-5344400Y53328800D01*
X-8784600Y56769000D02*
X-13563600Y56769000D01*
X-13563600Y56769000D02*
X-16637000Y59842400D01*
X-16637000Y64109600D02*
X-16611600Y64135000D01*
X-16637000Y59842400D02*
X-16637000Y64109600D01*
X-8784600Y16269000D02*
X-13563600Y16269000D01*
X-4141200Y12828800D02*
X-5344400Y12828800D01*
X-13563600Y16269000D02*
X-16637000Y19342400D01*
X-16637000Y19342400D02*
X-16637000Y23609600D01*
X-16637000Y23609600D02*
X-16611600Y23635000D01*
X-5344400Y12828800D02*
X-8784600Y16269000D01*
X-13563600Y-24231000D02*
X-16637000Y-21157600D01*
X-16637000Y-21157600D02*
X-16637000Y-16890400D01*
X-5344400Y-27671200D02*
X-8784600Y-24231000D01*
X-16637000Y-16890400D02*
X-16611600Y-16865000D01*
X-8784600Y-24231000D02*
X-13563600Y-24231000D01*
X-4141200Y-27671200D02*
X-5344400Y-27671200D01*
X-4141200Y-68171200D02*
X-5344400Y-68171200D01*
X-13563600Y-64731000D02*
X-16637000Y-61657600D01*
X-5344400Y-68171200D02*
X-8784600Y-64731000D01*
X-16637000Y-57390400D02*
X-16611600Y-57365000D01*
X-8784600Y-64731000D02*
X-13563600Y-64731000D01*
X-16637000Y-61657600D02*
X-16637000Y-57390400D01*
G04 #@! TO.N,/LORA_D1*
X-4141200Y55328800D02*
X-3791200Y55328800D01*
X-3791200Y55328800D02*
X5892800Y65012800D01*
X605610Y73714790D02*
X-14274227Y73714790D01*
X-14274227Y73714790D02*
X-14627780Y73714790D01*
X5892800Y68427600D02*
X605610Y73714790D01*
X5892800Y65012800D02*
X5892800Y68427600D01*
X5892800Y27927600D02*
X605610Y33214790D01*
X-3791200Y14828800D02*
X5892800Y24512800D01*
X-14274227Y33214790D02*
X-14627780Y33214790D01*
X5892800Y24512800D02*
X5892800Y27927600D01*
X-4141200Y14828800D02*
X-3791200Y14828800D01*
X605610Y33214790D02*
X-14274227Y33214790D01*
X-14274227Y-7285210D02*
X-14627780Y-7285210D01*
X5892800Y-12572400D02*
X605610Y-7285210D01*
X-3791200Y-25671200D02*
X5892800Y-15987200D01*
X-4141200Y-25671200D02*
X-3791200Y-25671200D01*
X5892800Y-15987200D02*
X5892800Y-12572400D01*
X605610Y-7285210D02*
X-14274227Y-7285210D01*
X-3791200Y-66171200D02*
X5892800Y-56487200D01*
X5892800Y-53072400D02*
X605610Y-47785210D01*
X-14274227Y-47785210D02*
X-14627780Y-47785210D01*
X-4141200Y-66171200D02*
X-3791200Y-66171200D01*
X5892800Y-56487200D02*
X5892800Y-53072400D01*
X605610Y-47785210D02*
X-14274227Y-47785210D01*
G04 #@! TO.N,/A5_BATT_V*
X-57607200Y72948800D02*
X-33549576Y72948800D01*
X-57607200Y32448800D02*
X-33549576Y32448800D01*
X-57607200Y-8051200D02*
X-33549576Y-8051200D01*
X-57607200Y-48551200D02*
X-33549576Y-48551200D01*
G04 #@! TO.N,/A5_MODULE_EN*
X-36055299Y78625701D02*
X-39433501Y78625701D01*
X-35001200Y79679800D02*
X-36055299Y78625701D01*
X-39433501Y78625701D02*
X-39674800Y78384402D01*
X-39674800Y78384402D02*
X-39674800Y76758800D01*
X-39433501Y38125701D02*
X-39674800Y37884402D01*
X-39674800Y37884402D02*
X-39674800Y36258800D01*
X-35001200Y39179800D02*
X-36055299Y38125701D01*
X-36055299Y38125701D02*
X-39433501Y38125701D01*
X-39433501Y-2374299D02*
X-39674800Y-2615598D01*
X-35001200Y-1320200D02*
X-36055299Y-2374299D01*
X-36055299Y-2374299D02*
X-39433501Y-2374299D01*
X-39674800Y-2615598D02*
X-39674800Y-4241200D01*
X-39674800Y-43115598D02*
X-39674800Y-44741200D01*
X-39433501Y-42874299D02*
X-39674800Y-43115598D01*
X-36055299Y-42874299D02*
X-39433501Y-42874299D01*
X-35001200Y-41820200D02*
X-36055299Y-42874299D01*
G04 #@! TD*
G04 #@! TO.N,VBUS*
G36*
X-44938968Y79674232D02*
X-44892557Y79636142D01*
X-44839606Y79607840D01*
X-44782151Y79590411D01*
X-44722400Y79584526D01*
X-43611800Y79584526D01*
X-43611800Y78384400D01*
X-45669200Y78384400D01*
X-45689021Y78382448D01*
X-45708081Y78376666D01*
X-45725646Y78367277D01*
X-45741042Y78354642D01*
X-45753677Y78339246D01*
X-45763066Y78321681D01*
X-45768848Y78302621D01*
X-45770800Y78282800D01*
X-45770800Y77876400D01*
X-50265543Y77876400D01*
X-50246645Y79703229D01*
X-45082370Y79704740D01*
X-45059600Y79702497D01*
X-45036694Y79704753D01*
X-44964035Y79704774D01*
X-44938968Y79674232D01*
X-44938968Y79674232D01*
G37*
X-44938968Y79674232D02*
X-44892557Y79636142D01*
X-44839606Y79607840D01*
X-44782151Y79590411D01*
X-44722400Y79584526D01*
X-43611800Y79584526D01*
X-43611800Y78384400D01*
X-45669200Y78384400D01*
X-45689021Y78382448D01*
X-45708081Y78376666D01*
X-45725646Y78367277D01*
X-45741042Y78354642D01*
X-45753677Y78339246D01*
X-45763066Y78321681D01*
X-45768848Y78302621D01*
X-45770800Y78282800D01*
X-45770800Y77876400D01*
X-50265543Y77876400D01*
X-50246645Y79703229D01*
X-45082370Y79704740D01*
X-45059600Y79702497D01*
X-45036694Y79704753D01*
X-44964035Y79704774D01*
X-44938968Y79674232D01*
G04 #@! TO.N,3V3*
G36*
X-43484800Y74242574D02*
X-51409600Y74242574D01*
X-51409600Y75641200D01*
X-47955200Y75641200D01*
X-47935379Y75643152D01*
X-47916319Y75648934D01*
X-47898754Y75658323D01*
X-47883358Y75670958D01*
X-47870723Y75686354D01*
X-47861334Y75703919D01*
X-47855552Y75722979D01*
X-47853600Y75742800D01*
X-47853600Y77419200D01*
X-43484800Y77419200D01*
X-43484800Y74242574D01*
X-43484800Y74242574D01*
G37*
X-43484800Y74242574D02*
X-51409600Y74242574D01*
X-51409600Y75641200D01*
X-47955200Y75641200D01*
X-47935379Y75643152D01*
X-47916319Y75648934D01*
X-47898754Y75658323D01*
X-47883358Y75670958D01*
X-47870723Y75686354D01*
X-47861334Y75703919D01*
X-47855552Y75722979D01*
X-47853600Y75742800D01*
X-47853600Y77419200D01*
X-43484800Y77419200D01*
X-43484800Y74242574D01*
D40*
G04 #@! TO.N,/GPS_PWR_FILT*
G36*
X18719800Y63169800D02*
X9067800Y63169800D01*
X9067800Y66979800D01*
X18719800Y66979800D01*
X18719800Y63169800D01*
X18719800Y63169800D01*
G37*
X18719800Y63169800D02*
X9067800Y63169800D01*
X9067800Y66979800D01*
X18719800Y66979800D01*
X18719800Y63169800D01*
G04 #@! TO.N,GND*
G36*
X12623800Y67438705D02*
X11978759Y67447305D01*
X11978759Y68402200D01*
X11953132Y68531038D01*
X11880151Y68640261D01*
X11770928Y68713242D01*
X11642090Y68738869D01*
X9643110Y68738869D01*
X9514272Y68713242D01*
X9405049Y68640261D01*
X9332068Y68531038D01*
X9306441Y68402200D01*
X9306441Y67482936D01*
X9067800Y67486118D01*
X9067800Y69773800D01*
X12623800Y69773800D01*
X12623800Y67438705D01*
X12623800Y67438705D01*
G37*
X12623800Y67438705D02*
X11978759Y67447305D01*
X11978759Y68402200D01*
X11953132Y68531038D01*
X11880151Y68640261D01*
X11770928Y68713242D01*
X11642090Y68738869D01*
X9643110Y68738869D01*
X9514272Y68713242D01*
X9405049Y68640261D01*
X9332068Y68531038D01*
X9306441Y68402200D01*
X9306441Y67482936D01*
X9067800Y67486118D01*
X9067800Y69773800D01*
X12623800Y69773800D01*
X12623800Y67438705D01*
G04 #@! TO.N,/GPS_3V3*
G36*
X24053800Y63169800D02*
X19227800Y63169800D01*
X19227800Y66979800D01*
X24053800Y66979800D01*
X24053800Y63169800D01*
X24053800Y63169800D01*
G37*
X24053800Y63169800D02*
X19227800Y63169800D01*
X19227800Y66979800D01*
X24053800Y66979800D01*
X24053800Y63169800D01*
D37*
G04 #@! TO.N,VBUS*
G36*
X-44938968Y39174232D02*
X-44892557Y39136142D01*
X-44839606Y39107840D01*
X-44782151Y39090411D01*
X-44722400Y39084526D01*
X-43611800Y39084526D01*
X-43611800Y37884400D01*
X-45669200Y37884400D01*
X-45689021Y37882448D01*
X-45708081Y37876666D01*
X-45725646Y37867277D01*
X-45741042Y37854642D01*
X-45753677Y37839246D01*
X-45763066Y37821681D01*
X-45768848Y37802621D01*
X-45770800Y37782800D01*
X-45770800Y37376400D01*
X-50265543Y37376400D01*
X-50246645Y39203229D01*
X-45082370Y39204740D01*
X-45059600Y39202497D01*
X-45036694Y39204753D01*
X-44964035Y39204774D01*
X-44938968Y39174232D01*
X-44938968Y39174232D01*
G37*
X-44938968Y39174232D02*
X-44892557Y39136142D01*
X-44839606Y39107840D01*
X-44782151Y39090411D01*
X-44722400Y39084526D01*
X-43611800Y39084526D01*
X-43611800Y37884400D01*
X-45669200Y37884400D01*
X-45689021Y37882448D01*
X-45708081Y37876666D01*
X-45725646Y37867277D01*
X-45741042Y37854642D01*
X-45753677Y37839246D01*
X-45763066Y37821681D01*
X-45768848Y37802621D01*
X-45770800Y37782800D01*
X-45770800Y37376400D01*
X-50265543Y37376400D01*
X-50246645Y39203229D01*
X-45082370Y39204740D01*
X-45059600Y39202497D01*
X-45036694Y39204753D01*
X-44964035Y39204774D01*
X-44938968Y39174232D01*
D40*
G04 #@! TO.N,/GPS_3V3*
G36*
X24053800Y22669800D02*
X19227800Y22669800D01*
X19227800Y26479800D01*
X24053800Y26479800D01*
X24053800Y22669800D01*
X24053800Y22669800D01*
G37*
X24053800Y22669800D02*
X19227800Y22669800D01*
X19227800Y26479800D01*
X24053800Y26479800D01*
X24053800Y22669800D01*
D37*
G04 #@! TO.N,3V3*
G36*
X-43484800Y33742574D02*
X-51409600Y33742574D01*
X-51409600Y35141200D01*
X-47955200Y35141200D01*
X-47935379Y35143152D01*
X-47916319Y35148934D01*
X-47898754Y35158323D01*
X-47883358Y35170958D01*
X-47870723Y35186354D01*
X-47861334Y35203919D01*
X-47855552Y35222979D01*
X-47853600Y35242800D01*
X-47853600Y36919200D01*
X-43484800Y36919200D01*
X-43484800Y33742574D01*
X-43484800Y33742574D01*
G37*
X-43484800Y33742574D02*
X-51409600Y33742574D01*
X-51409600Y35141200D01*
X-47955200Y35141200D01*
X-47935379Y35143152D01*
X-47916319Y35148934D01*
X-47898754Y35158323D01*
X-47883358Y35170958D01*
X-47870723Y35186354D01*
X-47861334Y35203919D01*
X-47855552Y35222979D01*
X-47853600Y35242800D01*
X-47853600Y36919200D01*
X-43484800Y36919200D01*
X-43484800Y33742574D01*
D40*
G04 #@! TO.N,GND*
G36*
X12623800Y26938705D02*
X11978759Y26947305D01*
X11978759Y27902200D01*
X11953132Y28031038D01*
X11880151Y28140261D01*
X11770928Y28213242D01*
X11642090Y28238869D01*
X9643110Y28238869D01*
X9514272Y28213242D01*
X9405049Y28140261D01*
X9332068Y28031038D01*
X9306441Y27902200D01*
X9306441Y26982936D01*
X9067800Y26986118D01*
X9067800Y29273800D01*
X12623800Y29273800D01*
X12623800Y26938705D01*
X12623800Y26938705D01*
G37*
X12623800Y26938705D02*
X11978759Y26947305D01*
X11978759Y27902200D01*
X11953132Y28031038D01*
X11880151Y28140261D01*
X11770928Y28213242D01*
X11642090Y28238869D01*
X9643110Y28238869D01*
X9514272Y28213242D01*
X9405049Y28140261D01*
X9332068Y28031038D01*
X9306441Y27902200D01*
X9306441Y26982936D01*
X9067800Y26986118D01*
X9067800Y29273800D01*
X12623800Y29273800D01*
X12623800Y26938705D01*
G04 #@! TO.N,/GPS_PWR_FILT*
G36*
X18719800Y22669800D02*
X9067800Y22669800D01*
X9067800Y26479800D01*
X18719800Y26479800D01*
X18719800Y22669800D01*
X18719800Y22669800D01*
G37*
X18719800Y22669800D02*
X9067800Y22669800D01*
X9067800Y26479800D01*
X18719800Y26479800D01*
X18719800Y22669800D01*
D37*
G04 #@! TO.N,VBUS*
G36*
X-44938968Y-1325768D02*
X-44892557Y-1363858D01*
X-44839606Y-1392160D01*
X-44782151Y-1409589D01*
X-44722400Y-1415474D01*
X-43611800Y-1415474D01*
X-43611800Y-2615600D01*
X-45669200Y-2615600D01*
X-45689021Y-2617552D01*
X-45708081Y-2623334D01*
X-45725646Y-2632723D01*
X-45741042Y-2645358D01*
X-45753677Y-2660754D01*
X-45763066Y-2678319D01*
X-45768848Y-2697379D01*
X-45770800Y-2717200D01*
X-45770800Y-3123600D01*
X-50265543Y-3123600D01*
X-50246645Y-1296771D01*
X-45082370Y-1295260D01*
X-45059600Y-1297503D01*
X-45036694Y-1295247D01*
X-44964035Y-1295226D01*
X-44938968Y-1325768D01*
X-44938968Y-1325768D01*
G37*
X-44938968Y-1325768D02*
X-44892557Y-1363858D01*
X-44839606Y-1392160D01*
X-44782151Y-1409589D01*
X-44722400Y-1415474D01*
X-43611800Y-1415474D01*
X-43611800Y-2615600D01*
X-45669200Y-2615600D01*
X-45689021Y-2617552D01*
X-45708081Y-2623334D01*
X-45725646Y-2632723D01*
X-45741042Y-2645358D01*
X-45753677Y-2660754D01*
X-45763066Y-2678319D01*
X-45768848Y-2697379D01*
X-45770800Y-2717200D01*
X-45770800Y-3123600D01*
X-50265543Y-3123600D01*
X-50246645Y-1296771D01*
X-45082370Y-1295260D01*
X-45059600Y-1297503D01*
X-45036694Y-1295247D01*
X-44964035Y-1295226D01*
X-44938968Y-1325768D01*
D40*
G04 #@! TO.N,GND*
G36*
X12623800Y-13561295D02*
X11978759Y-13552695D01*
X11978759Y-12597800D01*
X11953132Y-12468962D01*
X11880151Y-12359739D01*
X11770928Y-12286758D01*
X11642090Y-12261131D01*
X9643110Y-12261131D01*
X9514272Y-12286758D01*
X9405049Y-12359739D01*
X9332068Y-12468962D01*
X9306441Y-12597800D01*
X9306441Y-13517064D01*
X9067800Y-13513882D01*
X9067800Y-11226200D01*
X12623800Y-11226200D01*
X12623800Y-13561295D01*
X12623800Y-13561295D01*
G37*
X12623800Y-13561295D02*
X11978759Y-13552695D01*
X11978759Y-12597800D01*
X11953132Y-12468962D01*
X11880151Y-12359739D01*
X11770928Y-12286758D01*
X11642090Y-12261131D01*
X9643110Y-12261131D01*
X9514272Y-12286758D01*
X9405049Y-12359739D01*
X9332068Y-12468962D01*
X9306441Y-12597800D01*
X9306441Y-13517064D01*
X9067800Y-13513882D01*
X9067800Y-11226200D01*
X12623800Y-11226200D01*
X12623800Y-13561295D01*
D37*
G04 #@! TO.N,3V3*
G36*
X-43484800Y-6757426D02*
X-51409600Y-6757426D01*
X-51409600Y-5358800D01*
X-47955200Y-5358800D01*
X-47935379Y-5356848D01*
X-47916319Y-5351066D01*
X-47898754Y-5341677D01*
X-47883358Y-5329042D01*
X-47870723Y-5313646D01*
X-47861334Y-5296081D01*
X-47855552Y-5277021D01*
X-47853600Y-5257200D01*
X-47853600Y-3580800D01*
X-43484800Y-3580800D01*
X-43484800Y-6757426D01*
X-43484800Y-6757426D01*
G37*
X-43484800Y-6757426D02*
X-51409600Y-6757426D01*
X-51409600Y-5358800D01*
X-47955200Y-5358800D01*
X-47935379Y-5356848D01*
X-47916319Y-5351066D01*
X-47898754Y-5341677D01*
X-47883358Y-5329042D01*
X-47870723Y-5313646D01*
X-47861334Y-5296081D01*
X-47855552Y-5277021D01*
X-47853600Y-5257200D01*
X-47853600Y-3580800D01*
X-43484800Y-3580800D01*
X-43484800Y-6757426D01*
D40*
G04 #@! TO.N,/GPS_3V3*
G36*
X24053800Y-17830200D02*
X19227800Y-17830200D01*
X19227800Y-14020200D01*
X24053800Y-14020200D01*
X24053800Y-17830200D01*
X24053800Y-17830200D01*
G37*
X24053800Y-17830200D02*
X19227800Y-17830200D01*
X19227800Y-14020200D01*
X24053800Y-14020200D01*
X24053800Y-17830200D01*
G04 #@! TO.N,/GPS_PWR_FILT*
G36*
X18719800Y-17830200D02*
X9067800Y-17830200D01*
X9067800Y-14020200D01*
X18719800Y-14020200D01*
X18719800Y-17830200D01*
X18719800Y-17830200D01*
G37*
X18719800Y-17830200D02*
X9067800Y-17830200D01*
X9067800Y-14020200D01*
X18719800Y-14020200D01*
X18719800Y-17830200D01*
G36*
X18719800Y-58330200D02*
X9067800Y-58330200D01*
X9067800Y-54520200D01*
X18719800Y-54520200D01*
X18719800Y-58330200D01*
X18719800Y-58330200D01*
G37*
X18719800Y-58330200D02*
X9067800Y-58330200D01*
X9067800Y-54520200D01*
X18719800Y-54520200D01*
X18719800Y-58330200D01*
D37*
G04 #@! TO.N,VBUS*
G36*
X-44938968Y-41825768D02*
X-44892557Y-41863858D01*
X-44839606Y-41892160D01*
X-44782151Y-41909589D01*
X-44722400Y-41915474D01*
X-43611800Y-41915474D01*
X-43611800Y-43115600D01*
X-45669200Y-43115600D01*
X-45689021Y-43117552D01*
X-45708081Y-43123334D01*
X-45725646Y-43132723D01*
X-45741042Y-43145358D01*
X-45753677Y-43160754D01*
X-45763066Y-43178319D01*
X-45768848Y-43197379D01*
X-45770800Y-43217200D01*
X-45770800Y-43623600D01*
X-50265543Y-43623600D01*
X-50246645Y-41796771D01*
X-45082370Y-41795260D01*
X-45059600Y-41797503D01*
X-45036694Y-41795247D01*
X-44964035Y-41795226D01*
X-44938968Y-41825768D01*
X-44938968Y-41825768D01*
G37*
X-44938968Y-41825768D02*
X-44892557Y-41863858D01*
X-44839606Y-41892160D01*
X-44782151Y-41909589D01*
X-44722400Y-41915474D01*
X-43611800Y-41915474D01*
X-43611800Y-43115600D01*
X-45669200Y-43115600D01*
X-45689021Y-43117552D01*
X-45708081Y-43123334D01*
X-45725646Y-43132723D01*
X-45741042Y-43145358D01*
X-45753677Y-43160754D01*
X-45763066Y-43178319D01*
X-45768848Y-43197379D01*
X-45770800Y-43217200D01*
X-45770800Y-43623600D01*
X-50265543Y-43623600D01*
X-50246645Y-41796771D01*
X-45082370Y-41795260D01*
X-45059600Y-41797503D01*
X-45036694Y-41795247D01*
X-44964035Y-41795226D01*
X-44938968Y-41825768D01*
D40*
G04 #@! TO.N,GND*
G36*
X12623800Y-54061295D02*
X11978759Y-54052695D01*
X11978759Y-53097800D01*
X11953132Y-52968962D01*
X11880151Y-52859739D01*
X11770928Y-52786758D01*
X11642090Y-52761131D01*
X9643110Y-52761131D01*
X9514272Y-52786758D01*
X9405049Y-52859739D01*
X9332068Y-52968962D01*
X9306441Y-53097800D01*
X9306441Y-54017064D01*
X9067800Y-54013882D01*
X9067800Y-51726200D01*
X12623800Y-51726200D01*
X12623800Y-54061295D01*
X12623800Y-54061295D01*
G37*
X12623800Y-54061295D02*
X11978759Y-54052695D01*
X11978759Y-53097800D01*
X11953132Y-52968962D01*
X11880151Y-52859739D01*
X11770928Y-52786758D01*
X11642090Y-52761131D01*
X9643110Y-52761131D01*
X9514272Y-52786758D01*
X9405049Y-52859739D01*
X9332068Y-52968962D01*
X9306441Y-53097800D01*
X9306441Y-54017064D01*
X9067800Y-54013882D01*
X9067800Y-51726200D01*
X12623800Y-51726200D01*
X12623800Y-54061295D01*
D37*
G04 #@! TO.N,3V3*
G36*
X-43484800Y-47257426D02*
X-51409600Y-47257426D01*
X-51409600Y-45858800D01*
X-47955200Y-45858800D01*
X-47935379Y-45856848D01*
X-47916319Y-45851066D01*
X-47898754Y-45841677D01*
X-47883358Y-45829042D01*
X-47870723Y-45813646D01*
X-47861334Y-45796081D01*
X-47855552Y-45777021D01*
X-47853600Y-45757200D01*
X-47853600Y-44080800D01*
X-43484800Y-44080800D01*
X-43484800Y-47257426D01*
X-43484800Y-47257426D01*
G37*
X-43484800Y-47257426D02*
X-51409600Y-47257426D01*
X-51409600Y-45858800D01*
X-47955200Y-45858800D01*
X-47935379Y-45856848D01*
X-47916319Y-45851066D01*
X-47898754Y-45841677D01*
X-47883358Y-45829042D01*
X-47870723Y-45813646D01*
X-47861334Y-45796081D01*
X-47855552Y-45777021D01*
X-47853600Y-45757200D01*
X-47853600Y-44080800D01*
X-43484800Y-44080800D01*
X-43484800Y-47257426D01*
D40*
G04 #@! TO.N,/GPS_3V3*
G36*
X24053800Y-58330200D02*
X19227800Y-58330200D01*
X19227800Y-54520200D01*
X24053800Y-54520200D01*
X24053800Y-58330200D01*
X24053800Y-58330200D01*
G37*
X24053800Y-58330200D02*
X19227800Y-58330200D01*
X19227800Y-54520200D01*
X24053800Y-54520200D01*
X24053800Y-58330200D01*
G04 #@! TD*
M02*
