G04 #@! TF.GenerationSoftware,KiCad,Pcbnew,(5.0.0)*
G04 #@! TF.CreationDate,2018-12-28T17:12:47-06:00*
G04 #@! TF.ProjectId,fk-core-v0.15-01x04,666B2D636F72652D76302E31352D3031,0.1*
G04 #@! TF.SameCoordinates,PX791ddc0PY791ddc0*
G04 #@! TF.FileFunction,Soldermask,Bot*
G04 #@! TF.FilePolarity,Negative*
%FSLAX46Y46*%
G04 Gerber Fmt 4.6, Leading zero omitted, Abs format (unit mm)*
G04 Created by KiCad (PCBNEW (5.0.0)) date 12/28/18 17:12:47*
%MOMM*%
%LPD*%
G01*
G04 APERTURE LIST*
%ADD10C,0.500000*%
%ADD11C,2.000000*%
%ADD12R,1.399540X1.899920*%
%ADD13R,1.798320X1.399540*%
%ADD14R,0.698500X1.498600*%
%ADD15R,1.168400X1.600200*%
%ADD16R,1.100000X1.000000*%
%ADD17R,2.500000X2.000000*%
%ADD18R,1.200000X0.800000*%
%ADD19R,2.200000X0.800000*%
%ADD20R,2.000000X1.300000*%
%ADD21R,1.600000X1.400000*%
%ADD22R,0.400000X1.350000*%
%ADD23O,1.651000X1.600000*%
%ADD24R,1.900000X1.400000*%
%ADD25R,0.600000X2.100000*%
%ADD26R,2.100000X0.600000*%
%ADD27C,1.300000*%
%ADD28C,1.050000*%
%ADD29R,4.500000X2.300000*%
%ADD30R,1.600200X1.168400*%
%ADD31R,1.998980X1.000760*%
%ADD32R,1.000000X1.100000*%
%ADD33C,2.540000*%
%ADD34R,1.700000X1.700000*%
%ADD35O,2.200000X1.100000*%
%ADD36O,1.800000X1.100000*%
%ADD37C,2.500000*%
G04 APERTURE END LIST*
D10*
G04 #@! TO.C,REF\002A\002A*
X4411400Y-32089400D03*
X3211400Y-32089400D03*
X2011400Y-32089400D03*
X2011400Y-29089400D03*
X3211400Y-29089400D03*
X4411400Y-29089400D03*
G04 #@! TD*
G04 #@! TO.C,REF\002A\002A*
X-63588600Y-29089400D03*
X-64788600Y-29089400D03*
X-65988600Y-29089400D03*
X-65988600Y-32089400D03*
X-64788600Y-32089400D03*
X-63588600Y-32089400D03*
G04 #@! TD*
G04 #@! TO.C,REF\002A\002A*
X-63588600Y8410600D03*
X-64788600Y8410600D03*
X-65988600Y8410600D03*
X-65988600Y11410600D03*
X-64788600Y11410600D03*
X-63588600Y11410600D03*
G04 #@! TD*
G04 #@! TO.C,REF\002A\002A*
X4411400Y11410600D03*
X3211400Y11410600D03*
X2011400Y11410600D03*
X2011400Y8410600D03*
X3211400Y8410600D03*
X4411400Y8410600D03*
G04 #@! TD*
D11*
G04 #@! TO.C,J18*
X-19659600Y-43318800D03*
G04 #@! TD*
G04 #@! TO.C,J19*
X-23749000Y-43268000D03*
G04 #@! TD*
D12*
G04 #@! TO.C,M7*
X-48854360Y-68071100D03*
X-35653980Y-67169400D03*
D13*
X-43253660Y-54070620D03*
X-37254180Y-54070620D03*
D14*
X-36553140Y-64268720D03*
X-37652960Y-64268720D03*
X-38752780Y-64670040D03*
X-39855140Y-64268720D03*
X-40954960Y-64670040D03*
X-42054780Y-64268720D03*
X-43154600Y-63869940D03*
X-44254420Y-64268720D03*
G04 #@! TD*
D15*
G04 #@! TO.C,J14*
X-35610800Y-43928400D03*
X-37134800Y-43928400D03*
G04 #@! TD*
D16*
G04 #@! TO.C,R30*
X-9982200Y-36587800D03*
X-11682200Y-36587800D03*
G04 #@! TD*
D11*
G04 #@! TO.C,M11*
X16052800Y-64045200D03*
G04 #@! TD*
D16*
G04 #@! TO.C,R23*
X-9970400Y-35063800D03*
X-11670400Y-35063800D03*
G04 #@! TD*
D11*
G04 #@! TO.C,M9*
X19862800Y-33565200D03*
G04 #@! TD*
D17*
G04 #@! TO.C,U14*
X-46972400Y-42709200D03*
D18*
X-44122400Y-44209200D03*
D19*
X-44622400Y-42709200D03*
D18*
X-44122400Y-41209200D03*
G04 #@! TD*
D15*
G04 #@! TO.C,J2*
X-35382200Y-52488200D03*
X-33858200Y-52488200D03*
G04 #@! TD*
D11*
G04 #@! TO.C,M10*
X-65227200Y-67855200D03*
G04 #@! TD*
D20*
G04 #@! TO.C,U3*
X-4141200Y-68171200D03*
X-4141200Y-66171200D03*
X-4141200Y-64171200D03*
X-4141200Y-62171200D03*
X-4141200Y-60171200D03*
X-4141200Y-58171200D03*
X-4141200Y-56171200D03*
X-4141200Y-54171200D03*
X-20141200Y-54171200D03*
X-20141200Y-56171200D03*
X-20141200Y-58171200D03*
X-20141200Y-60171200D03*
X-20141200Y-62171200D03*
X-20141200Y-64171200D03*
X-20141200Y-66171200D03*
X-20141200Y-68171200D03*
G04 #@! TD*
D21*
G04 #@! TO.C,J9*
X-19816200Y-35566200D03*
D22*
X-15316200Y-36486200D03*
X-15966200Y-36486200D03*
X-17916200Y-36486200D03*
X-17266200Y-36486200D03*
D23*
X-13316200Y-33816200D03*
D24*
X-17816200Y-33566200D03*
D23*
X-19916200Y-33816200D03*
D24*
X-15416200Y-33566200D03*
D22*
X-16616200Y-36486200D03*
D21*
X-13416200Y-35566200D03*
G04 #@! TD*
D25*
G04 #@! TO.C,U1*
X-64395530Y-50587060D03*
X-63379534Y-50587060D03*
X-62363534Y-50587060D03*
X-61347530Y-50587060D03*
X-60331530Y-50587060D03*
X-59315530Y-50587060D03*
X-58299530Y-50587060D03*
X-57283530Y-50587060D03*
X-56267530Y-50587060D03*
X-55251530Y-50587060D03*
X-66435750Y-65317330D03*
X-65419750Y-65317330D03*
X-64403750Y-65317330D03*
X-63387753Y-65317330D03*
X-61355750Y-65317330D03*
X-54243750Y-65317330D03*
X-55259750Y-65317330D03*
X-56275750Y-65317330D03*
X-57291750Y-65317330D03*
D26*
X-51572300Y-52486930D03*
X-51572300Y-62646930D03*
X-51572300Y-61630930D03*
X-51572300Y-60614930D03*
X-51572300Y-59598930D03*
X-51572300Y-58582931D03*
X-51572300Y-57566931D03*
X-51572300Y-56550930D03*
X-51572300Y-55534930D03*
G04 #@! TD*
D27*
G04 #@! TO.C,BT1*
X-1303600Y-42556800D03*
D28*
X-8753600Y-42556800D03*
D29*
X-13453600Y-42556800D03*
X2946400Y-42556800D03*
G04 #@! TD*
D30*
G04 #@! TO.C,J12*
X26720800Y-59600200D03*
X26720800Y-61124200D03*
G04 #@! TD*
D31*
G04 #@! TO.C,U10*
X26644600Y-55096780D03*
X26644600Y-53598180D03*
X26644600Y-52097040D03*
X26644600Y-50598440D03*
X26644600Y-49097300D03*
X26644600Y-47598700D03*
X26644600Y-46097560D03*
X26644600Y-44598960D03*
X26644600Y-43097820D03*
X26644600Y-41599220D03*
X10642600Y-41599220D03*
X10642600Y-43097820D03*
X10642600Y-44598960D03*
X10642600Y-46097560D03*
X10642600Y-47598700D03*
X10642600Y-49097300D03*
X10642600Y-50598440D03*
X10642600Y-52097040D03*
X10642600Y-53598180D03*
X10642600Y-55096780D03*
G04 #@! TD*
D16*
G04 #@! TO.C,R31*
X-24116476Y-35971505D03*
X-22416476Y-35971505D03*
G04 #@! TD*
D32*
G04 #@! TO.C,R26*
X-31369000Y-37234600D03*
X-31369000Y-35534600D03*
G04 #@! TD*
D33*
G04 #@! TO.C,M3*
X-71642200Y-67440200D03*
G04 #@! TD*
G04 #@! TO.C,M1*
X27087800Y-67440200D03*
G04 #@! TD*
D15*
G04 #@! TO.C,J1*
X6654800Y-48678200D03*
X8178800Y-48678200D03*
G04 #@! TD*
D32*
G04 #@! TO.C,R27*
X-29845000Y-37209200D03*
X-29845000Y-35509200D03*
G04 #@! TD*
D34*
G04 #@! TO.C,J4*
X-5156200Y-51980200D03*
G04 #@! TD*
D33*
G04 #@! TO.C,M6*
X-71642200Y-34210200D03*
G04 #@! TD*
D35*
G04 #@! TO.C,J16*
X-16586200Y-35098200D03*
D36*
X-19386200Y-37248200D03*
X-13786200Y-37248200D03*
G04 #@! TD*
D16*
G04 #@! TO.C,C14*
X-22416476Y-37622505D03*
X-24116476Y-37622505D03*
G04 #@! TD*
D33*
G04 #@! TO.C,M4*
X27087800Y-34210200D03*
G04 #@! TD*
D11*
G04 #@! TO.C,J19*
X-23749000Y-2768000D03*
G04 #@! TD*
D14*
G04 #@! TO.C,M7*
X-44254420Y-23768720D03*
X-43154600Y-23369940D03*
X-42054780Y-23768720D03*
X-40954960Y-24170040D03*
X-39855140Y-23768720D03*
X-38752780Y-24170040D03*
X-37652960Y-23768720D03*
X-36553140Y-23768720D03*
D13*
X-37254180Y-13570620D03*
X-43253660Y-13570620D03*
D12*
X-35653980Y-26669400D03*
X-48854360Y-27571100D03*
G04 #@! TD*
D11*
G04 #@! TO.C,J18*
X-19659600Y-2818800D03*
G04 #@! TD*
D21*
G04 #@! TO.C,J9*
X-13416200Y4933800D03*
D22*
X-16616200Y4013800D03*
D24*
X-15416200Y6933800D03*
D23*
X-19916200Y6683800D03*
D24*
X-17816200Y6933800D03*
D23*
X-13316200Y6683800D03*
D22*
X-17266200Y4013800D03*
X-17916200Y4013800D03*
X-15966200Y4013800D03*
X-15316200Y4013800D03*
D21*
X-19816200Y4933800D03*
G04 #@! TD*
D26*
G04 #@! TO.C,U1*
X-51572300Y-15034930D03*
X-51572300Y-16050930D03*
X-51572300Y-17066931D03*
X-51572300Y-18082931D03*
X-51572300Y-19098930D03*
X-51572300Y-20114930D03*
X-51572300Y-21130930D03*
X-51572300Y-22146930D03*
X-51572300Y-11986930D03*
D25*
X-57291750Y-24817330D03*
X-56275750Y-24817330D03*
X-55259750Y-24817330D03*
X-54243750Y-24817330D03*
X-61355750Y-24817330D03*
X-63387753Y-24817330D03*
X-64403750Y-24817330D03*
X-65419750Y-24817330D03*
X-66435750Y-24817330D03*
X-55251530Y-10087060D03*
X-56267530Y-10087060D03*
X-57283530Y-10087060D03*
X-58299530Y-10087060D03*
X-59315530Y-10087060D03*
X-60331530Y-10087060D03*
X-61347530Y-10087060D03*
X-62363534Y-10087060D03*
X-63379534Y-10087060D03*
X-64395530Y-10087060D03*
G04 #@! TD*
D30*
G04 #@! TO.C,J12*
X26720800Y-20624200D03*
X26720800Y-19100200D03*
G04 #@! TD*
D29*
G04 #@! TO.C,BT1*
X2946400Y-2056800D03*
X-13453600Y-2056800D03*
D28*
X-8753600Y-2056800D03*
D27*
X-1303600Y-2056800D03*
G04 #@! TD*
D34*
G04 #@! TO.C,J4*
X-5156200Y-11480200D03*
G04 #@! TD*
D31*
G04 #@! TO.C,U10*
X10642600Y-14596780D03*
X10642600Y-13098180D03*
X10642600Y-11597040D03*
X10642600Y-10098440D03*
X10642600Y-8597300D03*
X10642600Y-7098700D03*
X10642600Y-5597560D03*
X10642600Y-4098960D03*
X10642600Y-2597820D03*
X10642600Y-1099220D03*
X26644600Y-1099220D03*
X26644600Y-2597820D03*
X26644600Y-4098960D03*
X26644600Y-5597560D03*
X26644600Y-7098700D03*
X26644600Y-8597300D03*
X26644600Y-10098440D03*
X26644600Y-11597040D03*
X26644600Y-13098180D03*
X26644600Y-14596780D03*
G04 #@! TD*
D16*
G04 #@! TO.C,C14*
X-24116476Y2877495D03*
X-22416476Y2877495D03*
G04 #@! TD*
D15*
G04 #@! TO.C,J1*
X8178800Y-8178200D03*
X6654800Y-8178200D03*
G04 #@! TD*
D32*
G04 #@! TO.C,R27*
X-29845000Y4990800D03*
X-29845000Y3290800D03*
G04 #@! TD*
D33*
G04 #@! TO.C,M6*
X-71642200Y6289800D03*
G04 #@! TD*
D16*
G04 #@! TO.C,R31*
X-22416476Y4528495D03*
X-24116476Y4528495D03*
G04 #@! TD*
D33*
G04 #@! TO.C,M3*
X-71642200Y-26940200D03*
G04 #@! TD*
G04 #@! TO.C,M4*
X27087800Y6289800D03*
G04 #@! TD*
D36*
G04 #@! TO.C,J16*
X-13786200Y3251800D03*
X-19386200Y3251800D03*
D35*
X-16586200Y5401800D03*
G04 #@! TD*
D32*
G04 #@! TO.C,R26*
X-31369000Y4965400D03*
X-31369000Y3265400D03*
G04 #@! TD*
D33*
G04 #@! TO.C,M1*
X27087800Y-26940200D03*
G04 #@! TD*
D16*
G04 #@! TO.C,R30*
X-11682200Y3912200D03*
X-9982200Y3912200D03*
G04 #@! TD*
D15*
G04 #@! TO.C,J14*
X-37134800Y-3428400D03*
X-35610800Y-3428400D03*
G04 #@! TD*
D11*
G04 #@! TO.C,M11*
X16052800Y-23545200D03*
G04 #@! TD*
D20*
G04 #@! TO.C,U3*
X-20141200Y-27671200D03*
X-20141200Y-25671200D03*
X-20141200Y-23671200D03*
X-20141200Y-21671200D03*
X-20141200Y-19671200D03*
X-20141200Y-17671200D03*
X-20141200Y-15671200D03*
X-20141200Y-13671200D03*
X-4141200Y-13671200D03*
X-4141200Y-15671200D03*
X-4141200Y-17671200D03*
X-4141200Y-19671200D03*
X-4141200Y-21671200D03*
X-4141200Y-23671200D03*
X-4141200Y-25671200D03*
X-4141200Y-27671200D03*
G04 #@! TD*
D11*
G04 #@! TO.C,M9*
X19862800Y6934800D03*
G04 #@! TD*
D15*
G04 #@! TO.C,J2*
X-33858200Y-11988200D03*
X-35382200Y-11988200D03*
G04 #@! TD*
D16*
G04 #@! TO.C,R23*
X-11670400Y5436200D03*
X-9970400Y5436200D03*
G04 #@! TD*
D18*
G04 #@! TO.C,U14*
X-44122400Y-709200D03*
D19*
X-44622400Y-2209200D03*
D18*
X-44122400Y-3709200D03*
D17*
X-46972400Y-2209200D03*
G04 #@! TD*
D11*
G04 #@! TO.C,M10*
X-65227200Y-27355200D03*
G04 #@! TD*
D12*
G04 #@! TO.C,M7*
X-48854360Y12928900D03*
X-35653980Y13830600D03*
D13*
X-43253660Y26929380D03*
X-37254180Y26929380D03*
D14*
X-36553140Y16731280D03*
X-37652960Y16731280D03*
X-38752780Y16329960D03*
X-39855140Y16731280D03*
X-40954960Y16329960D03*
X-42054780Y16731280D03*
X-43154600Y17130060D03*
X-44254420Y16731280D03*
G04 #@! TD*
D11*
G04 #@! TO.C,J19*
X-23749000Y37732000D03*
G04 #@! TD*
G04 #@! TO.C,J18*
X-19659600Y37681200D03*
G04 #@! TD*
D21*
G04 #@! TO.C,J9*
X-19816200Y45433800D03*
D22*
X-15316200Y44513800D03*
X-15966200Y44513800D03*
X-17916200Y44513800D03*
X-17266200Y44513800D03*
D23*
X-13316200Y47183800D03*
D24*
X-17816200Y47433800D03*
D23*
X-19916200Y47183800D03*
D24*
X-15416200Y47433800D03*
D22*
X-16616200Y44513800D03*
D21*
X-13416200Y45433800D03*
G04 #@! TD*
D25*
G04 #@! TO.C,U1*
X-64395530Y30412940D03*
X-63379534Y30412940D03*
X-62363534Y30412940D03*
X-61347530Y30412940D03*
X-60331530Y30412940D03*
X-59315530Y30412940D03*
X-58299530Y30412940D03*
X-57283530Y30412940D03*
X-56267530Y30412940D03*
X-55251530Y30412940D03*
X-66435750Y15682670D03*
X-65419750Y15682670D03*
X-64403750Y15682670D03*
X-63387753Y15682670D03*
X-61355750Y15682670D03*
X-54243750Y15682670D03*
X-55259750Y15682670D03*
X-56275750Y15682670D03*
X-57291750Y15682670D03*
D26*
X-51572300Y28513070D03*
X-51572300Y18353070D03*
X-51572300Y19369070D03*
X-51572300Y20385070D03*
X-51572300Y21401070D03*
X-51572300Y22417069D03*
X-51572300Y23433069D03*
X-51572300Y24449070D03*
X-51572300Y25465070D03*
G04 #@! TD*
D30*
G04 #@! TO.C,J12*
X26720800Y21399800D03*
X26720800Y19875800D03*
G04 #@! TD*
D27*
G04 #@! TO.C,BT1*
X-1303600Y38443200D03*
D28*
X-8753600Y38443200D03*
D29*
X-13453600Y38443200D03*
X2946400Y38443200D03*
G04 #@! TD*
D34*
G04 #@! TO.C,J4*
X-5156200Y29019800D03*
G04 #@! TD*
D31*
G04 #@! TO.C,U10*
X26644600Y25903220D03*
X26644600Y27401820D03*
X26644600Y28902960D03*
X26644600Y30401560D03*
X26644600Y31902700D03*
X26644600Y33401300D03*
X26644600Y34902440D03*
X26644600Y36401040D03*
X26644600Y37902180D03*
X26644600Y39400780D03*
X10642600Y39400780D03*
X10642600Y37902180D03*
X10642600Y36401040D03*
X10642600Y34902440D03*
X10642600Y33401300D03*
X10642600Y31902700D03*
X10642600Y30401560D03*
X10642600Y28902960D03*
X10642600Y27401820D03*
X10642600Y25903220D03*
G04 #@! TD*
D35*
G04 #@! TO.C,J16*
X-16586200Y45901800D03*
D36*
X-19386200Y43751800D03*
X-13786200Y43751800D03*
G04 #@! TD*
D15*
G04 #@! TO.C,J1*
X6654800Y32321800D03*
X8178800Y32321800D03*
G04 #@! TD*
D33*
G04 #@! TO.C,M1*
X27087800Y13559800D03*
G04 #@! TD*
D16*
G04 #@! TO.C,C14*
X-22416476Y43377495D03*
X-24116476Y43377495D03*
G04 #@! TD*
D33*
G04 #@! TO.C,M3*
X-71642200Y13559800D03*
G04 #@! TD*
G04 #@! TO.C,M4*
X27087800Y46789800D03*
G04 #@! TD*
G04 #@! TO.C,M6*
X-71642200Y46789800D03*
G04 #@! TD*
D32*
G04 #@! TO.C,R26*
X-31369000Y43765400D03*
X-31369000Y45465400D03*
G04 #@! TD*
G04 #@! TO.C,R27*
X-29845000Y43790800D03*
X-29845000Y45490800D03*
G04 #@! TD*
D16*
G04 #@! TO.C,R31*
X-24116476Y45028495D03*
X-22416476Y45028495D03*
G04 #@! TD*
D11*
G04 #@! TO.C,M11*
X16052800Y16954800D03*
G04 #@! TD*
D16*
G04 #@! TO.C,R23*
X-9970400Y45936200D03*
X-11670400Y45936200D03*
G04 #@! TD*
D15*
G04 #@! TO.C,J2*
X-35382200Y28511800D03*
X-33858200Y28511800D03*
G04 #@! TD*
D17*
G04 #@! TO.C,U14*
X-46972400Y38290800D03*
D18*
X-44122400Y36790800D03*
D19*
X-44622400Y38290800D03*
D18*
X-44122400Y39790800D03*
G04 #@! TD*
D20*
G04 #@! TO.C,U3*
X-4141200Y12828800D03*
X-4141200Y14828800D03*
X-4141200Y16828800D03*
X-4141200Y18828800D03*
X-4141200Y20828800D03*
X-4141200Y22828800D03*
X-4141200Y24828800D03*
X-4141200Y26828800D03*
X-20141200Y26828800D03*
X-20141200Y24828800D03*
X-20141200Y22828800D03*
X-20141200Y20828800D03*
X-20141200Y18828800D03*
X-20141200Y16828800D03*
X-20141200Y14828800D03*
X-20141200Y12828800D03*
G04 #@! TD*
D11*
G04 #@! TO.C,M10*
X-65227200Y13144800D03*
G04 #@! TD*
G04 #@! TO.C,M9*
X19862800Y47434800D03*
G04 #@! TD*
D16*
G04 #@! TO.C,R30*
X-9982200Y44412200D03*
X-11682200Y44412200D03*
G04 #@! TD*
D15*
G04 #@! TO.C,J14*
X-35610800Y37071600D03*
X-37134800Y37071600D03*
G04 #@! TD*
D14*
G04 #@! TO.C,M7*
X-44254420Y57231280D03*
X-43154600Y57630060D03*
X-42054780Y57231280D03*
X-40954960Y56829960D03*
X-39855140Y57231280D03*
X-38752780Y56829960D03*
X-37652960Y57231280D03*
X-36553140Y57231280D03*
D13*
X-37254180Y67429380D03*
X-43253660Y67429380D03*
D12*
X-35653980Y54330600D03*
X-48854360Y53428900D03*
G04 #@! TD*
D10*
G04 #@! TO.C,REF\002A\002A*
X4411400Y-72589400D03*
X3211400Y-72589400D03*
X2011400Y-72589400D03*
X2011400Y-69589400D03*
X3211400Y-69589400D03*
X4411400Y-69589400D03*
G04 #@! TD*
G04 #@! TO.C,REF\002A\002A*
X-63588600Y-69589400D03*
X-64788600Y-69589400D03*
X-65988600Y-69589400D03*
X-65988600Y-72589400D03*
X-64788600Y-72589400D03*
X-63588600Y-72589400D03*
G04 #@! TD*
G04 #@! TO.C,REF\002A\002A*
X-76788600Y-45889400D03*
X-76788600Y-47089400D03*
X-76788600Y-48289400D03*
X-73788600Y-48289400D03*
X-73788600Y-47089400D03*
X-73788600Y-45889400D03*
G04 #@! TD*
G04 #@! TO.C,REF\002A\002A*
X29211400Y-62789400D03*
X29211400Y-61589400D03*
X29211400Y-60389400D03*
X32211400Y-60389400D03*
X32211400Y-61589400D03*
X32211400Y-62789400D03*
G04 #@! TD*
G04 #@! TO.C,REF\002A\002A*
X32211400Y-39289400D03*
X32211400Y-38089400D03*
X32211400Y-36889400D03*
X29211400Y-36889400D03*
X29211400Y-38089400D03*
X29211400Y-39289400D03*
G04 #@! TD*
G04 #@! TO.C,REF\002A\002A*
X-73788600Y-5389400D03*
X-73788600Y-6589400D03*
X-73788600Y-7789400D03*
X-76788600Y-7789400D03*
X-76788600Y-6589400D03*
X-76788600Y-5389400D03*
G04 #@! TD*
G04 #@! TO.C,REF\002A\002A*
X32211400Y-22289400D03*
X32211400Y-21089400D03*
X32211400Y-19889400D03*
X29211400Y-19889400D03*
X29211400Y-21089400D03*
X29211400Y-22289400D03*
G04 #@! TD*
G04 #@! TO.C,REF\002A\002A*
X29211400Y1210600D03*
X29211400Y2410600D03*
X29211400Y3610600D03*
X32211400Y3610600D03*
X32211400Y2410600D03*
X32211400Y1210600D03*
G04 #@! TD*
G04 #@! TO.C,REF\002A\002A*
X-76788600Y35110600D03*
X-76788600Y33910600D03*
X-76788600Y32710600D03*
X-73788600Y32710600D03*
X-73788600Y33910600D03*
X-73788600Y35110600D03*
G04 #@! TD*
G04 #@! TO.C,REF\002A\002A*
X-63588600Y48910600D03*
X-64788600Y48910600D03*
X-65988600Y48910600D03*
X-65988600Y51910600D03*
X-64788600Y51910600D03*
X-63588600Y51910600D03*
G04 #@! TD*
G04 #@! TO.C,REF\002A\002A*
X32211400Y41710600D03*
X32211400Y42910600D03*
X32211400Y44110600D03*
X29211400Y44110600D03*
X29211400Y42910600D03*
X29211400Y41710600D03*
G04 #@! TD*
G04 #@! TO.C,REF\002A\002A*
X29211400Y18210600D03*
X29211400Y19410600D03*
X29211400Y20610600D03*
X32211400Y20610600D03*
X32211400Y19410600D03*
X32211400Y18210600D03*
G04 #@! TD*
G04 #@! TO.C,REF\002A\002A*
X4411400Y51910600D03*
X3211400Y51910600D03*
X2011400Y51910600D03*
X2011400Y48910600D03*
X3211400Y48910600D03*
X4411400Y48910600D03*
G04 #@! TD*
G04 #@! TO.C,REF\002A\002A*
X29211400Y82210600D03*
X29211400Y83410600D03*
X29211400Y84610600D03*
X32211400Y84610600D03*
X32211400Y83410600D03*
X32211400Y82210600D03*
G04 #@! TD*
G04 #@! TO.C,REF\002A\002A*
X32211400Y58710600D03*
X32211400Y59910600D03*
X32211400Y61110600D03*
X29211400Y61110600D03*
X29211400Y59910600D03*
X29211400Y58710600D03*
G04 #@! TD*
G04 #@! TO.C,REF\002A\002A*
X-73788600Y75610600D03*
X-73788600Y74410600D03*
X-73788600Y73210600D03*
X-76788600Y73210600D03*
X-76788600Y74410600D03*
X-76788600Y75610600D03*
G04 #@! TD*
G04 #@! TO.C,REF\002A\002A*
X-63588600Y92410600D03*
X-64788600Y92410600D03*
X-65988600Y92410600D03*
X-65988600Y89410600D03*
X-64788600Y89410600D03*
X-63588600Y89410600D03*
G04 #@! TD*
D16*
G04 #@! TO.C,R31*
X-22416476Y85528495D03*
X-24116476Y85528495D03*
G04 #@! TD*
D32*
G04 #@! TO.C,R27*
X-29845000Y85990800D03*
X-29845000Y84290800D03*
G04 #@! TD*
G04 #@! TO.C,R26*
X-31369000Y85965400D03*
X-31369000Y84265400D03*
G04 #@! TD*
D33*
G04 #@! TO.C,M6*
X-71642200Y87289800D03*
G04 #@! TD*
G04 #@! TO.C,M4*
X27087800Y87289800D03*
G04 #@! TD*
G04 #@! TO.C,M3*
X-71642200Y54059800D03*
G04 #@! TD*
G04 #@! TO.C,M1*
X27087800Y54059800D03*
G04 #@! TD*
D15*
G04 #@! TO.C,J1*
X8178800Y72821800D03*
X6654800Y72821800D03*
G04 #@! TD*
D16*
G04 #@! TO.C,C14*
X-24116476Y83877495D03*
X-22416476Y83877495D03*
G04 #@! TD*
D18*
G04 #@! TO.C,U14*
X-44122400Y80290800D03*
D19*
X-44622400Y78790800D03*
D18*
X-44122400Y77290800D03*
D17*
X-46972400Y78790800D03*
G04 #@! TD*
D15*
G04 #@! TO.C,J14*
X-37134800Y77571600D03*
X-35610800Y77571600D03*
G04 #@! TD*
G04 #@! TO.C,J2*
X-33858200Y69011800D03*
X-35382200Y69011800D03*
G04 #@! TD*
D20*
G04 #@! TO.C,U3*
X-20141200Y53328800D03*
X-20141200Y55328800D03*
X-20141200Y57328800D03*
X-20141200Y59328800D03*
X-20141200Y61328800D03*
X-20141200Y63328800D03*
X-20141200Y65328800D03*
X-20141200Y67328800D03*
X-4141200Y67328800D03*
X-4141200Y65328800D03*
X-4141200Y63328800D03*
X-4141200Y61328800D03*
X-4141200Y59328800D03*
X-4141200Y57328800D03*
X-4141200Y55328800D03*
X-4141200Y53328800D03*
G04 #@! TD*
D16*
G04 #@! TO.C,R30*
X-11682200Y84912200D03*
X-9982200Y84912200D03*
G04 #@! TD*
G04 #@! TO.C,R23*
X-11670400Y86436200D03*
X-9970400Y86436200D03*
G04 #@! TD*
D11*
G04 #@! TO.C,M11*
X16052800Y57454800D03*
G04 #@! TD*
G04 #@! TO.C,M10*
X-65227200Y53644800D03*
G04 #@! TD*
G04 #@! TO.C,M9*
X19862800Y87934800D03*
G04 #@! TD*
D29*
G04 #@! TO.C,BT1*
X2946400Y78943200D03*
X-13453600Y78943200D03*
D28*
X-8753600Y78943200D03*
D27*
X-1303600Y78943200D03*
G04 #@! TD*
D31*
G04 #@! TO.C,U10*
X10642600Y66403220D03*
X10642600Y67901820D03*
X10642600Y69402960D03*
X10642600Y70901560D03*
X10642600Y72402700D03*
X10642600Y73901300D03*
X10642600Y75402440D03*
X10642600Y76901040D03*
X10642600Y78402180D03*
X10642600Y79900780D03*
X26644600Y79900780D03*
X26644600Y78402180D03*
X26644600Y76901040D03*
X26644600Y75402440D03*
X26644600Y73901300D03*
X26644600Y72402700D03*
X26644600Y70901560D03*
X26644600Y69402960D03*
X26644600Y67901820D03*
X26644600Y66403220D03*
G04 #@! TD*
D34*
G04 #@! TO.C,J4*
X-5156200Y69519800D03*
G04 #@! TD*
D30*
G04 #@! TO.C,J12*
X26720800Y60375800D03*
X26720800Y61899800D03*
G04 #@! TD*
D26*
G04 #@! TO.C,U1*
X-51572300Y65965070D03*
X-51572300Y64949070D03*
X-51572300Y63933069D03*
X-51572300Y62917069D03*
X-51572300Y61901070D03*
X-51572300Y60885070D03*
X-51572300Y59869070D03*
X-51572300Y58853070D03*
X-51572300Y69013070D03*
D25*
X-57291750Y56182670D03*
X-56275750Y56182670D03*
X-55259750Y56182670D03*
X-54243750Y56182670D03*
X-61355750Y56182670D03*
X-63387753Y56182670D03*
X-64403750Y56182670D03*
X-65419750Y56182670D03*
X-66435750Y56182670D03*
X-55251530Y70912940D03*
X-56267530Y70912940D03*
X-57283530Y70912940D03*
X-58299530Y70912940D03*
X-59315530Y70912940D03*
X-60331530Y70912940D03*
X-61347530Y70912940D03*
X-62363534Y70912940D03*
X-63379534Y70912940D03*
X-64395530Y70912940D03*
G04 #@! TD*
D36*
G04 #@! TO.C,J16*
X-13786200Y84251800D03*
X-19386200Y84251800D03*
D35*
X-16586200Y86401800D03*
G04 #@! TD*
D21*
G04 #@! TO.C,J9*
X-13416200Y85933800D03*
D22*
X-16616200Y85013800D03*
D24*
X-15416200Y87933800D03*
D23*
X-19916200Y87683800D03*
D24*
X-17816200Y87933800D03*
D23*
X-13316200Y87683800D03*
D22*
X-17266200Y85013800D03*
X-17916200Y85013800D03*
X-15966200Y85013800D03*
X-15316200Y85013800D03*
D21*
X-19816200Y85933800D03*
G04 #@! TD*
D11*
G04 #@! TO.C,J18*
X-19659600Y78181200D03*
G04 #@! TD*
G04 #@! TO.C,J19*
X-23749000Y78232000D03*
G04 #@! TD*
D33*
G04 #@! TO.C,REF\002A\002A*
X-74900000Y-75500000D03*
G04 #@! TD*
D37*
G04 #@! TO.C,REF\002A\002A*
X-79900000Y-75500000D03*
G04 #@! TD*
D10*
G04 #@! TO.C,REF\002A\002A*
X4411400Y89410600D03*
X3211400Y89410600D03*
X2011400Y89410600D03*
X2011400Y92410600D03*
X3211400Y92410600D03*
X4411400Y92410600D03*
G04 #@! TD*
D33*
G04 #@! TO.C,REF\002A\002A*
X30211400Y95200000D03*
G04 #@! TD*
D37*
G04 #@! TO.C,REF\002A\002A*
X35211400Y95200000D03*
G04 #@! TD*
D33*
G04 #@! TO.C,REF\002A\002A*
X-79900000Y90400000D03*
G04 #@! TD*
D37*
G04 #@! TO.C,REF\002A\002A*
X-79900000Y95400000D03*
G04 #@! TD*
M02*
