G04 #@! TF.GenerationSoftware,KiCad,Pcbnew,(5.0.0)*
G04 #@! TF.CreationDate,2018-12-28T17:12:47-06:00*
G04 #@! TF.ProjectId,fk-core-v0.15-01x04,666B2D636F72652D76302E31352D3031,0.1*
G04 #@! TF.SameCoordinates,PX791ddc0PY791ddc0*
G04 #@! TF.FileFunction,Soldermask,Top*
G04 #@! TF.FilePolarity,Negative*
%FSLAX46Y46*%
G04 Gerber Fmt 4.6, Leading zero omitted, Abs format (unit mm)*
G04 Created by KiCad (PCBNEW (5.0.0)) date 12/28/18 17:12:47*
%MOMM*%
%LPD*%
G01*
G04 APERTURE LIST*
%ADD10C,0.300000*%
%ADD11C,0.500000*%
%ADD12R,1.000000X1.100000*%
%ADD13R,1.000000X2.800000*%
%ADD14R,0.600000X1.700000*%
%ADD15R,3.000000X1.600000*%
%ADD16R,5.500000X1.000000*%
%ADD17R,0.600000X2.000000*%
%ADD18R,0.950000X2.700000*%
%ADD19R,1.100000X1.900000*%
%ADD20R,0.440000X0.990000*%
%ADD21R,0.420000X0.990000*%
%ADD22R,0.990000X0.420000*%
%ADD23R,0.890000X0.890000*%
%ADD24R,2.000000X0.600000*%
%ADD25R,1.100000X1.000000*%
%ADD26R,0.650000X1.050000*%
%ADD27C,2.000000*%
%ADD28C,1.000000*%
%ADD29C,0.100000*%
%ADD30R,0.700000X0.600000*%
%ADD31R,0.700000X1.000000*%
%ADD32R,0.600000X0.450000*%
%ADD33R,1.800000X1.300000*%
%ADD34R,0.600000X0.700000*%
%ADD35R,1.200000X1.800000*%
%ADD36R,0.600000X1.550000*%
%ADD37R,1.900000X1.100000*%
%ADD38R,1.660000X2.380000*%
%ADD39R,0.700000X0.250000*%
%ADD40C,0.250000*%
%ADD41O,1.651000X1.600000*%
%ADD42R,1.450000X0.700000*%
%ADD43R,0.650000X1.560000*%
%ADD44C,1.300000*%
%ADD45C,1.050000*%
%ADD46R,1.500000X1.000000*%
%ADD47R,1.050000X1.000000*%
%ADD48R,2.200000X1.050000*%
%ADD49R,3.000000X0.600000*%
%ADD50C,2.540000*%
%ADD51R,1.700000X1.700000*%
%ADD52O,2.200000X1.100000*%
%ADD53R,0.450000X1.500000*%
%ADD54O,1.800000X1.100000*%
%ADD55R,0.900000X1.500000*%
%ADD56C,2.500000*%
G04 APERTURE END LIST*
D10*
X-79610029Y2017743D02*
X-79610029Y2589172D01*
X-78610029Y2232029D02*
X-79895743Y2232029D01*
X-80038600Y2303458D01*
X-80110029Y2446315D01*
X-80110029Y2589172D01*
X-78610029Y3089172D02*
X-80110029Y3089172D01*
X-79181458Y3232029D02*
X-78610029Y3660600D01*
X-79610029Y3660600D02*
X-79038600Y3089172D01*
X-79181458Y4303458D02*
X-79181458Y5446315D01*
X-78681458Y6803458D02*
X-78610029Y6660600D01*
X-78610029Y6374886D01*
X-78681458Y6232029D01*
X-78752886Y6160600D01*
X-78895743Y6089172D01*
X-79324315Y6089172D01*
X-79467172Y6160600D01*
X-79538600Y6232029D01*
X-79610029Y6374886D01*
X-79610029Y6660600D01*
X-79538600Y6803458D01*
X-78610029Y7660600D02*
X-78681458Y7517743D01*
X-78752886Y7446315D01*
X-78895743Y7374886D01*
X-79324315Y7374886D01*
X-79467172Y7446315D01*
X-79538600Y7517743D01*
X-79610029Y7660600D01*
X-79610029Y7874886D01*
X-79538600Y8017743D01*
X-79467172Y8089172D01*
X-79324315Y8160600D01*
X-78895743Y8160600D01*
X-78752886Y8089172D01*
X-78681458Y8017743D01*
X-78610029Y7874886D01*
X-78610029Y7660600D01*
X-78610029Y8803458D02*
X-79610029Y8803458D01*
X-79324315Y8803458D02*
X-79467172Y8874886D01*
X-79538600Y8946315D01*
X-79610029Y9089172D01*
X-79610029Y9232029D01*
X-78681458Y10303458D02*
X-78610029Y10160600D01*
X-78610029Y9874886D01*
X-78681458Y9732029D01*
X-78824315Y9660600D01*
X-79395743Y9660600D01*
X-79538600Y9732029D01*
X-79610029Y9874886D01*
X-79610029Y10160600D01*
X-79538600Y10303458D01*
X-79395743Y10374886D01*
X-79252886Y10374886D01*
X-79110029Y9660600D01*
X-79610029Y12017743D02*
X-78610029Y12374886D01*
X-79610029Y12732029D01*
X-80110029Y13589172D02*
X-80110029Y13732029D01*
X-80038600Y13874886D01*
X-79967172Y13946315D01*
X-79824315Y14017743D01*
X-79538600Y14089172D01*
X-79181458Y14089172D01*
X-78895743Y14017743D01*
X-78752886Y13946315D01*
X-78681458Y13874886D01*
X-78610029Y13732029D01*
X-78610029Y13589172D01*
X-78681458Y13446315D01*
X-78752886Y13374886D01*
X-78895743Y13303458D01*
X-79181458Y13232029D01*
X-79538600Y13232029D01*
X-79824315Y13303458D01*
X-79967172Y13374886D01*
X-80038600Y13446315D01*
X-80110029Y13589172D01*
X-78752886Y14732029D02*
X-78681458Y14803458D01*
X-78610029Y14732029D01*
X-78681458Y14660600D01*
X-78752886Y14732029D01*
X-78610029Y14732029D01*
X-78610029Y16232029D02*
X-78610029Y15374886D01*
X-78610029Y15803458D02*
X-80110029Y15803458D01*
X-79895743Y15660600D01*
X-79752886Y15517743D01*
X-79681458Y15374886D01*
X-80110029Y17589172D02*
X-80110029Y16874886D01*
X-79395743Y16803458D01*
X-79467172Y16874886D01*
X-79538600Y17017743D01*
X-79538600Y17374886D01*
X-79467172Y17517743D01*
X-79395743Y17589172D01*
X-79252886Y17660600D01*
X-78895743Y17660600D01*
X-78752886Y17589172D01*
X-78681458Y17517743D01*
X-78610029Y17374886D01*
X-78610029Y17017743D01*
X-78681458Y16874886D01*
X-78752886Y16803458D01*
X35318542Y24482029D02*
X35247114Y24267743D01*
X35175685Y24196315D01*
X35032828Y24124886D01*
X34818542Y24124886D01*
X34675685Y24196315D01*
X34604257Y24267743D01*
X34532828Y24410600D01*
X34532828Y24982029D01*
X36032828Y24982029D01*
X36032828Y24482029D01*
X35961400Y24339172D01*
X35889971Y24267743D01*
X35747114Y24196315D01*
X35604257Y24196315D01*
X35461400Y24267743D01*
X35389971Y24339172D01*
X35318542Y24482029D01*
X35318542Y24982029D01*
X34532828Y22839172D02*
X35318542Y22839172D01*
X35461400Y22910600D01*
X35532828Y23053458D01*
X35532828Y23339172D01*
X35461400Y23482029D01*
X34604257Y22839172D02*
X34532828Y22982029D01*
X34532828Y23339172D01*
X34604257Y23482029D01*
X34747114Y23553458D01*
X34889971Y23553458D01*
X35032828Y23482029D01*
X35104257Y23339172D01*
X35104257Y22982029D01*
X35175685Y22839172D01*
X35532828Y22339172D02*
X35532828Y21767743D01*
X36032828Y22124886D02*
X34747114Y22124886D01*
X34604257Y22053458D01*
X34532828Y21910600D01*
X34532828Y21767743D01*
X34604257Y20624886D02*
X34532828Y20767743D01*
X34532828Y21053458D01*
X34604257Y21196315D01*
X34675685Y21267743D01*
X34818542Y21339172D01*
X35247114Y21339172D01*
X35389971Y21267743D01*
X35461400Y21196315D01*
X35532828Y21053458D01*
X35532828Y20767743D01*
X35461400Y20624886D01*
X34532828Y19982029D02*
X36032828Y19982029D01*
X34532828Y19339172D02*
X35318542Y19339172D01*
X35461400Y19410600D01*
X35532828Y19553458D01*
X35532828Y19767743D01*
X35461400Y19910600D01*
X35389971Y19982029D01*
X34532828Y16696315D02*
X34532828Y17553458D01*
X34532828Y17124886D02*
X36032828Y17124886D01*
X35818542Y17267743D01*
X35675685Y17410600D01*
X35604257Y17553458D01*
X35104257Y14910600D02*
X35104257Y13767743D01*
X34532828Y11910600D02*
X36032828Y11910600D01*
X36032828Y11553458D01*
X35961400Y11339172D01*
X35818542Y11196315D01*
X35675685Y11124886D01*
X35389971Y11053458D01*
X35175685Y11053458D01*
X34889971Y11124886D01*
X34747114Y11196315D01*
X34604257Y11339172D01*
X34532828Y11553458D01*
X34532828Y11910600D01*
X34604257Y9839172D02*
X34532828Y9982029D01*
X34532828Y10267743D01*
X34604257Y10410600D01*
X34747114Y10482029D01*
X35318542Y10482029D01*
X35461400Y10410600D01*
X35532828Y10267743D01*
X35532828Y9982029D01*
X35461400Y9839172D01*
X35318542Y9767743D01*
X35175685Y9767743D01*
X35032828Y10482029D01*
X34604257Y8482029D02*
X34532828Y8624886D01*
X34532828Y8910600D01*
X34604257Y9053458D01*
X34675685Y9124886D01*
X34818542Y9196315D01*
X35247114Y9196315D01*
X35389971Y9124886D01*
X35461400Y9053458D01*
X35532828Y8910600D01*
X35532828Y8624886D01*
X35461400Y8482029D01*
X34604257Y7267743D02*
X34532828Y7410600D01*
X34532828Y7696315D01*
X34604257Y7839172D01*
X34747114Y7910600D01*
X35318542Y7910600D01*
X35461400Y7839172D01*
X35532828Y7696315D01*
X35532828Y7410600D01*
X35461400Y7267743D01*
X35318542Y7196315D01*
X35175685Y7196315D01*
X35032828Y7910600D01*
X34532828Y6553458D02*
X35532828Y6553458D01*
X35389971Y6553458D02*
X35461400Y6482029D01*
X35532828Y6339172D01*
X35532828Y6124886D01*
X35461400Y5982029D01*
X35318542Y5910600D01*
X34532828Y5910600D01*
X35318542Y5910600D02*
X35461400Y5839172D01*
X35532828Y5696315D01*
X35532828Y5482029D01*
X35461400Y5339172D01*
X35318542Y5267743D01*
X34532828Y5267743D01*
X34532828Y4553458D02*
X36032828Y4553458D01*
X35461400Y4553458D02*
X35532828Y4410600D01*
X35532828Y4124886D01*
X35461400Y3982029D01*
X35389971Y3910600D01*
X35247114Y3839172D01*
X34818542Y3839172D01*
X34675685Y3910600D01*
X34604257Y3982029D01*
X34532828Y4124886D01*
X34532828Y4410600D01*
X34604257Y4553458D01*
X34604257Y2624886D02*
X34532828Y2767743D01*
X34532828Y3053458D01*
X34604257Y3196315D01*
X34747114Y3267743D01*
X35318542Y3267743D01*
X35461400Y3196315D01*
X35532828Y3053458D01*
X35532828Y2767743D01*
X35461400Y2624886D01*
X35318542Y2553458D01*
X35175685Y2553458D01*
X35032828Y3267743D01*
X34532828Y1910600D02*
X35532828Y1910600D01*
X35247114Y1910600D02*
X35389971Y1839172D01*
X35461400Y1767743D01*
X35532828Y1624886D01*
X35532828Y1482029D01*
X35889971Y-89400D02*
X35961400Y-160828D01*
X36032828Y-303685D01*
X36032828Y-660828D01*
X35961400Y-803685D01*
X35889971Y-875114D01*
X35747114Y-946542D01*
X35604257Y-946542D01*
X35389971Y-875114D01*
X34532828Y-17971D01*
X34532828Y-946542D01*
X36032828Y-1875114D02*
X36032828Y-2017971D01*
X35961400Y-2160828D01*
X35889971Y-2232257D01*
X35747114Y-2303685D01*
X35461400Y-2375114D01*
X35104257Y-2375114D01*
X34818542Y-2303685D01*
X34675685Y-2232257D01*
X34604257Y-2160828D01*
X34532828Y-2017971D01*
X34532828Y-1875114D01*
X34604257Y-1732257D01*
X34675685Y-1660828D01*
X34818542Y-1589400D01*
X35104257Y-1517971D01*
X35461400Y-1517971D01*
X35747114Y-1589400D01*
X35889971Y-1660828D01*
X35961400Y-1732257D01*
X36032828Y-1875114D01*
X34532828Y-3803685D02*
X34532828Y-2946542D01*
X34532828Y-3375114D02*
X36032828Y-3375114D01*
X35818542Y-3232257D01*
X35675685Y-3089400D01*
X35604257Y-2946542D01*
X35389971Y-4660828D02*
X35461400Y-4517971D01*
X35532828Y-4446542D01*
X35675685Y-4375114D01*
X35747114Y-4375114D01*
X35889971Y-4446542D01*
X35961400Y-4517971D01*
X36032828Y-4660828D01*
X36032828Y-4946542D01*
X35961400Y-5089400D01*
X35889971Y-5160828D01*
X35747114Y-5232257D01*
X35675685Y-5232257D01*
X35532828Y-5160828D01*
X35461400Y-5089400D01*
X35389971Y-4946542D01*
X35389971Y-4660828D01*
X35318542Y-4517971D01*
X35247114Y-4446542D01*
X35104257Y-4375114D01*
X34818542Y-4375114D01*
X34675685Y-4446542D01*
X34604257Y-4517971D01*
X34532828Y-4660828D01*
X34532828Y-4946542D01*
X34604257Y-5089400D01*
X34675685Y-5160828D01*
X34818542Y-5232257D01*
X35104257Y-5232257D01*
X35247114Y-5160828D01*
X35318542Y-5089400D01*
X35389971Y-4946542D01*
D11*
G04 #@! TO.C,REF\002A\002A*
X4411400Y-32089400D03*
X3211400Y-32089400D03*
X2011400Y-32089400D03*
X2011400Y-29089400D03*
X3211400Y-29089400D03*
X4411400Y-29089400D03*
G04 #@! TD*
G04 #@! TO.C,REF\002A\002A*
X-63588600Y-29089400D03*
X-64788600Y-29089400D03*
X-65988600Y-29089400D03*
X-65988600Y-32089400D03*
X-64788600Y-32089400D03*
X-63588600Y-32089400D03*
G04 #@! TD*
G04 #@! TO.C,REF\002A\002A*
X-63588600Y8410600D03*
X-64788600Y8410600D03*
X-65988600Y8410600D03*
X-65988600Y11410600D03*
X-64788600Y11410600D03*
X-63588600Y11410600D03*
G04 #@! TD*
G04 #@! TO.C,REF\002A\002A*
X4411400Y11410600D03*
X3211400Y11410600D03*
X2011400Y11410600D03*
X2011400Y8410600D03*
X3211400Y8410600D03*
X4411400Y8410600D03*
G04 #@! TD*
D12*
G04 #@! TO.C,R47*
X-68529200Y-33985200D03*
X-68529200Y-35685200D03*
G04 #@! TD*
D13*
G04 #@! TO.C,J17*
X-35120200Y-37530600D03*
X-21420200Y-37530600D03*
D14*
X-33270200Y-34180600D03*
X-32020200Y-34180600D03*
X-30770200Y-34180600D03*
X-29520200Y-34180600D03*
X-28270200Y-34180600D03*
X-27020200Y-34180600D03*
X-25770200Y-34180600D03*
X-24520200Y-34180600D03*
X-23270200Y-34180600D03*
G04 #@! TD*
D15*
G04 #@! TO.C,J10*
X-65009200Y-58571200D03*
X-65009200Y-51771200D03*
D16*
X-67259200Y-56171200D03*
X-67259200Y-54171200D03*
G04 #@! TD*
D17*
G04 #@! TO.C,U8*
X-45034200Y-43565200D03*
X-46304200Y-43565200D03*
X-47574200Y-43565200D03*
X-48844200Y-43565200D03*
X-48844200Y-48965200D03*
X-47574200Y-48965200D03*
X-46304200Y-48965200D03*
X-45034200Y-48965200D03*
G04 #@! TD*
D12*
G04 #@! TO.C,R24*
X-57532953Y-35507259D03*
X-57532953Y-33807259D03*
G04 #@! TD*
D18*
G04 #@! TO.C,J7*
X-12903200Y-61727200D03*
X-12903200Y-57727200D03*
X-11633200Y-61727200D03*
X-11633200Y-57727200D03*
X-10363200Y-61727200D03*
X-10363200Y-57727200D03*
X-9093200Y-61727200D03*
X-9093200Y-57727200D03*
X-7823200Y-61727200D03*
X-7823200Y-57727200D03*
G04 #@! TD*
D19*
G04 #@! TO.C,Y1*
X-25216801Y-41032800D03*
X-27716799Y-41032800D03*
G04 #@! TD*
D20*
G04 #@! TO.C,U6*
X-59311283Y-39280067D03*
D21*
X-58811283Y-39280067D03*
X-58311283Y-39280067D03*
X-57811283Y-39280067D03*
D22*
X-57086283Y-40005067D03*
X-57086283Y-40505067D03*
X-57086283Y-41005067D03*
X-57086283Y-41505067D03*
D21*
X-57811283Y-42230067D03*
D20*
X-58311283Y-42230067D03*
D21*
X-58811283Y-42230067D03*
X-59311283Y-42230067D03*
D22*
X-60036283Y-41505067D03*
X-60036283Y-41005067D03*
X-60036283Y-40505067D03*
X-60036283Y-40005067D03*
D23*
X-58936283Y-41130067D03*
X-58936283Y-40380067D03*
X-58186283Y-40380067D03*
X-58186283Y-41130067D03*
G04 #@! TD*
D12*
G04 #@! TO.C,R45*
X-52908200Y-51257200D03*
X-52908200Y-52957200D03*
G04 #@! TD*
G04 #@! TO.C,C23*
X-54432200Y-47369200D03*
X-54432200Y-45669200D03*
G04 #@! TD*
G04 #@! TO.C,C16*
X-27704002Y-68215222D03*
X-27704002Y-66515222D03*
G04 #@! TD*
D24*
G04 #@! TO.C,U11*
X15003800Y-43115600D03*
X15003800Y-44385600D03*
X15003800Y-45655600D03*
X15003800Y-46925600D03*
X20403800Y-46925600D03*
X20403800Y-45655600D03*
X20403800Y-44385600D03*
X20403800Y-43115600D03*
G04 #@! TD*
D25*
G04 #@! TO.C,R9*
X-3974200Y-66153400D03*
X-2274200Y-66153400D03*
G04 #@! TD*
D12*
G04 #@! TO.C,C31*
X10972800Y-59307200D03*
X10972800Y-57607200D03*
G04 #@! TD*
D25*
G04 #@! TO.C,R41*
X14782800Y-66839200D03*
X16482800Y-66839200D03*
G04 #@! TD*
D12*
G04 #@! TO.C,R19*
X-42240200Y-66624200D03*
X-42240200Y-68324200D03*
G04 #@! TD*
D25*
G04 #@! TO.C,R20*
X-58465530Y-48551200D03*
X-60165530Y-48551200D03*
G04 #@! TD*
G04 #@! TO.C,C38*
X-4179200Y-64553200D03*
X-5879200Y-64553200D03*
G04 #@! TD*
D12*
G04 #@! TO.C,C29*
X-35636200Y-44907200D03*
X-35636200Y-46607200D03*
G04 #@! TD*
D25*
G04 #@! TO.C,R40*
X16521800Y-68363200D03*
X14821800Y-68363200D03*
G04 #@! TD*
D12*
G04 #@! TO.C,C34*
X-29355002Y-68215222D03*
X-29355002Y-66515222D03*
G04 #@! TD*
D25*
G04 #@! TO.C,R16*
X-32285200Y-55434600D03*
X-33985200Y-55434600D03*
G04 #@! TD*
G04 #@! TO.C,C6*
X-15914000Y-44639600D03*
X-17614000Y-44639600D03*
G04 #@! TD*
D12*
G04 #@! TO.C,R4*
X-51003200Y-68225800D03*
X-51003200Y-66525800D03*
G04 #@! TD*
D26*
G04 #@! TO.C,Q1*
X16586200Y-37448200D03*
X17536200Y-39748200D03*
X15636200Y-39748200D03*
G04 #@! TD*
D25*
G04 #@! TO.C,R18*
X-22721200Y-66585200D03*
X-24421200Y-66585200D03*
G04 #@! TD*
G04 #@! TO.C,C8*
X-30466400Y-53580400D03*
X-28766400Y-53580400D03*
G04 #@! TD*
D12*
G04 #@! TO.C,D11*
X1595600Y-33985200D03*
X1595600Y-35685200D03*
G04 #@! TD*
G04 #@! TO.C,C37*
X-711200Y-33477200D03*
X-711200Y-35177200D03*
G04 #@! TD*
D27*
G04 #@! TO.C,M8*
X-65227200Y-67855200D03*
G04 #@! TD*
D12*
G04 #@! TO.C,R28*
X-56845200Y-49313200D03*
X-56845200Y-51013200D03*
G04 #@! TD*
D25*
G04 #@! TO.C,R1*
X-55487200Y-67855200D03*
X-57187200Y-67855200D03*
G04 #@! TD*
D28*
G04 #@! TO.C,C9*
X-15451759Y-49550359D03*
D29*
G36*
X-15416404Y-48807897D02*
X-14709297Y-49515004D01*
X-15487114Y-50292821D01*
X-16194221Y-49585714D01*
X-15416404Y-48807897D01*
X-15416404Y-48807897D01*
G37*
D28*
X-16653841Y-50752441D03*
D29*
G36*
X-16618486Y-50009979D02*
X-15911379Y-50717086D01*
X-16689196Y-51494903D01*
X-17396303Y-50787796D01*
X-16618486Y-50009979D01*
X-16618486Y-50009979D01*
G37*
G04 #@! TD*
D12*
G04 #@! TO.C,D3*
X-45508730Y-68245630D03*
X-45508730Y-66545630D03*
G04 #@! TD*
G04 #@! TO.C,C32*
X14020800Y-57607200D03*
X14020800Y-59307200D03*
G04 #@! TD*
G04 #@! TO.C,C35*
X12496800Y-57607200D03*
X12496800Y-59307200D03*
G04 #@! TD*
G04 #@! TO.C,D1*
X15570200Y-33956600D03*
X15570200Y-35656600D03*
G04 #@! TD*
D25*
G04 #@! TO.C,C24*
X12167500Y-61365500D03*
X13867500Y-61365500D03*
G04 #@! TD*
G04 #@! TO.C,D9*
X-47689400Y-33739800D03*
X-49389400Y-33739800D03*
G04 #@! TD*
G04 #@! TO.C,R15*
X-32715200Y-57238000D03*
X-34415200Y-57238000D03*
G04 #@! TD*
D12*
G04 #@! TO.C,L2*
X-11379200Y-35050200D03*
X-11379200Y-33350200D03*
G04 #@! TD*
G04 #@! TO.C,D2*
X-49174400Y-68225800D03*
X-49174400Y-66525800D03*
G04 #@! TD*
D27*
G04 #@! TO.C,M5*
X19862800Y-33565200D03*
G04 #@! TD*
D30*
G04 #@! TO.C,D8*
X-15517200Y-40925200D03*
X-15517200Y-42825200D03*
X-17517200Y-42825200D03*
D31*
X-17517200Y-41125200D03*
G04 #@! TD*
D12*
G04 #@! TO.C,R2*
X-37871400Y-68225800D03*
X-37871400Y-66525800D03*
G04 #@! TD*
D25*
G04 #@! TO.C,R37*
X12180200Y-62991100D03*
X13880200Y-62991100D03*
G04 #@! TD*
D12*
G04 #@! TO.C,C25*
X-50495200Y-46939200D03*
X-50495200Y-48639200D03*
G04 #@! TD*
D25*
G04 #@! TO.C,R8*
X-3974200Y-67931400D03*
X-2274200Y-67931400D03*
G04 #@! TD*
D32*
G04 #@! TO.C,D7*
X-52908200Y-35992800D03*
D33*
X-52908200Y-35317800D03*
D34*
X-53558200Y-34267800D03*
X-52258200Y-34267800D03*
G04 #@! TD*
D12*
G04 #@! TO.C,R34*
X-61038153Y-33807259D03*
X-61038153Y-35507259D03*
G04 #@! TD*
D25*
G04 #@! TO.C,R21*
X-54674553Y-39991259D03*
X-52974553Y-39991259D03*
G04 #@! TD*
G04 #@! TO.C,R10*
X-7455800Y-38391200D03*
X-9155800Y-38391200D03*
G04 #@! TD*
D12*
G04 #@! TO.C,C30*
X-37795200Y-48258200D03*
X-37795200Y-46558200D03*
G04 #@! TD*
D25*
G04 #@! TO.C,R35*
X-12178400Y-53605800D03*
X-10478400Y-53605800D03*
G04 #@! TD*
D12*
G04 #@! TO.C,R39*
X3322800Y-33985200D03*
X3322800Y-35685200D03*
G04 #@! TD*
G04 #@! TO.C,R3*
X17602200Y-35656600D03*
X17602200Y-33956600D03*
G04 #@! TD*
D25*
G04 #@! TO.C,R13*
X-37338000Y-43268000D03*
X-35638000Y-43268000D03*
G04 #@! TD*
G04 #@! TO.C,R17*
X-5295000Y-38391200D03*
X-3595000Y-38391200D03*
G04 #@! TD*
D12*
G04 #@! TO.C,C26*
X-51257200Y-44829200D03*
X-51257200Y-43129200D03*
G04 #@! TD*
G04 #@! TO.C,R14*
X-34239200Y-46646200D03*
X-34239200Y-44946200D03*
G04 #@! TD*
D35*
G04 #@! TO.C,J13*
X568800Y-44925200D03*
X8168800Y-44925200D03*
D36*
X1868800Y-42400200D03*
X2868800Y-42400200D03*
X3868800Y-42400200D03*
X4868800Y-42400200D03*
X5868800Y-42400200D03*
X6868800Y-42400200D03*
G04 #@! TD*
D17*
G04 #@! TO.C,U12*
X-26936700Y-57822200D03*
X-28206700Y-57822200D03*
X-29476700Y-57822200D03*
X-30746700Y-57822200D03*
X-30746700Y-63222200D03*
X-29476700Y-63222200D03*
X-28206700Y-63222200D03*
X-26936700Y-63222200D03*
G04 #@! TD*
D25*
G04 #@! TO.C,R36*
X-12153000Y-52056400D03*
X-10453000Y-52056400D03*
G04 #@! TD*
D12*
G04 #@! TO.C,R11*
X-56083200Y-47369200D03*
X-56083200Y-45669200D03*
G04 #@! TD*
D37*
G04 #@! TO.C,Y2*
X4038600Y-63887400D03*
X4038600Y-66387400D03*
G04 #@! TD*
D12*
G04 #@! TO.C,R6*
X-25222200Y-60147200D03*
X-25222200Y-61847200D03*
G04 #@! TD*
G04 #@! TO.C,C17*
X-26053002Y-68215222D03*
X-26053002Y-66515222D03*
G04 #@! TD*
D25*
G04 #@! TO.C,D10*
X-47689400Y-36991000D03*
X-49389400Y-36991000D03*
G04 #@! TD*
D12*
G04 #@! TO.C,L1*
X-30937200Y-42214800D03*
X-30937200Y-43914800D03*
G04 #@! TD*
G04 #@! TO.C,R25*
X-59260153Y-35507259D03*
X-59260153Y-33807259D03*
G04 #@! TD*
D24*
G04 #@! TO.C,U7*
X6926600Y-64553200D03*
X6926600Y-65823200D03*
X6926600Y-67093200D03*
X6926600Y-68363200D03*
X12326600Y-68363200D03*
X12326600Y-67093200D03*
X12326600Y-65823200D03*
X12326600Y-64553200D03*
G04 #@! TD*
D25*
G04 #@! TO.C,R32*
X-47689400Y-35365400D03*
X-49389400Y-35365400D03*
G04 #@! TD*
D12*
G04 #@! TO.C,R5*
X-47345600Y-68276600D03*
X-47345600Y-66576600D03*
G04 #@! TD*
D27*
G04 #@! TO.C,M2*
X16052800Y-64045200D03*
G04 #@! TD*
D25*
G04 #@! TO.C,R33*
X-47689400Y-38616600D03*
X-49389400Y-38616600D03*
G04 #@! TD*
D12*
G04 #@! TO.C,R22*
X-55754953Y-35507259D03*
X-55754953Y-33807259D03*
G04 #@! TD*
G04 #@! TO.C,R12*
X-52908200Y-47369200D03*
X-52908200Y-45669200D03*
G04 #@! TD*
D25*
G04 #@! TO.C,L3*
X18098400Y-57695200D03*
X19798400Y-57695200D03*
G04 #@! TD*
G04 #@! TO.C,C40*
X-56630200Y-53631200D03*
X-58330200Y-53631200D03*
G04 #@! TD*
D38*
G04 #@! TO.C,U15*
X-58369200Y-56298200D03*
D39*
X-59769200Y-57048200D03*
X-59769200Y-56548200D03*
X-59769200Y-56048200D03*
X-59769200Y-55548200D03*
X-56969200Y-55548200D03*
X-56969200Y-56048200D03*
X-56969200Y-56548200D03*
X-56969200Y-57048200D03*
G04 #@! TD*
D12*
G04 #@! TO.C,D4*
X-66751200Y-35685200D03*
X-66751200Y-33985200D03*
G04 #@! TD*
D25*
G04 #@! TO.C,R48*
X978800Y-38899200D03*
X2678800Y-38899200D03*
G04 #@! TD*
D12*
G04 #@! TO.C,C10*
X-9601200Y-35050200D03*
X-9601200Y-33350200D03*
G04 #@! TD*
D15*
G04 #@! TO.C,J3*
X-65390200Y-46998200D03*
X-65390200Y-40198200D03*
D16*
X-67640200Y-44598200D03*
X-67640200Y-42598200D03*
G04 #@! TD*
D40*
G04 #@! TO.C,U2*
X-22008029Y-43556142D03*
D29*
G36*
X-22379260Y-44104150D02*
X-22556037Y-43927373D01*
X-21636798Y-43008134D01*
X-21460021Y-43184911D01*
X-22379260Y-44104150D01*
X-22379260Y-44104150D01*
G37*
D40*
X-21654476Y-43909695D03*
D29*
G36*
X-22025707Y-44457703D02*
X-22202484Y-44280926D01*
X-21283245Y-43361687D01*
X-21106468Y-43538464D01*
X-22025707Y-44457703D01*
X-22025707Y-44457703D01*
G37*
D40*
X-21300922Y-44263249D03*
D29*
G36*
X-21672153Y-44811257D02*
X-21848930Y-44634480D01*
X-20929691Y-43715241D01*
X-20752914Y-43892018D01*
X-21672153Y-44811257D01*
X-21672153Y-44811257D01*
G37*
D40*
X-20947369Y-44616802D03*
D29*
G36*
X-21318600Y-45164810D02*
X-21495377Y-44988033D01*
X-20576138Y-44068794D01*
X-20399361Y-44245571D01*
X-21318600Y-45164810D01*
X-21318600Y-45164810D01*
G37*
D40*
X-20593816Y-44970355D03*
D29*
G36*
X-20965047Y-45518363D02*
X-21141824Y-45341586D01*
X-20222585Y-44422347D01*
X-20045808Y-44599124D01*
X-20965047Y-45518363D01*
X-20965047Y-45518363D01*
G37*
D40*
X-20240262Y-45323909D03*
D29*
G36*
X-20611493Y-45871917D02*
X-20788270Y-45695140D01*
X-19869031Y-44775901D01*
X-19692254Y-44952678D01*
X-20611493Y-45871917D01*
X-20611493Y-45871917D01*
G37*
D40*
X-19886709Y-45677462D03*
D29*
G36*
X-20257940Y-46225470D02*
X-20434717Y-46048693D01*
X-19515478Y-45129454D01*
X-19338701Y-45306231D01*
X-20257940Y-46225470D01*
X-20257940Y-46225470D01*
G37*
D40*
X-19533155Y-46031016D03*
D29*
G36*
X-19904386Y-46579024D02*
X-20081163Y-46402247D01*
X-19161924Y-45483008D01*
X-18985147Y-45659785D01*
X-19904386Y-46579024D01*
X-19904386Y-46579024D01*
G37*
D40*
X-19179602Y-46384569D03*
D29*
G36*
X-19550833Y-46932577D02*
X-19727610Y-46755800D01*
X-18808371Y-45836561D01*
X-18631594Y-46013338D01*
X-19550833Y-46932577D01*
X-19550833Y-46932577D01*
G37*
D40*
X-18826049Y-46738122D03*
D29*
G36*
X-19197280Y-47286130D02*
X-19374057Y-47109353D01*
X-18454818Y-46190114D01*
X-18278041Y-46366891D01*
X-19197280Y-47286130D01*
X-19197280Y-47286130D01*
G37*
D40*
X-18472495Y-47091676D03*
D29*
G36*
X-18843726Y-47639684D02*
X-19020503Y-47462907D01*
X-18101264Y-46543668D01*
X-17924487Y-46720445D01*
X-18843726Y-47639684D01*
X-18843726Y-47639684D01*
G37*
D40*
X-18118942Y-47445229D03*
D29*
G36*
X-18490173Y-47993237D02*
X-18666950Y-47816460D01*
X-17747711Y-46897221D01*
X-17570934Y-47073998D01*
X-18490173Y-47993237D01*
X-18490173Y-47993237D01*
G37*
D40*
X-18118942Y-49707971D03*
D29*
G36*
X-18666950Y-49336740D02*
X-18490173Y-49159963D01*
X-17570934Y-50079202D01*
X-17747711Y-50255979D01*
X-18666950Y-49336740D01*
X-18666950Y-49336740D01*
G37*
D40*
X-18472495Y-50061524D03*
D29*
G36*
X-19020503Y-49690293D02*
X-18843726Y-49513516D01*
X-17924487Y-50432755D01*
X-18101264Y-50609532D01*
X-19020503Y-49690293D01*
X-19020503Y-49690293D01*
G37*
D40*
X-18826049Y-50415078D03*
D29*
G36*
X-19374057Y-50043847D02*
X-19197280Y-49867070D01*
X-18278041Y-50786309D01*
X-18454818Y-50963086D01*
X-19374057Y-50043847D01*
X-19374057Y-50043847D01*
G37*
D40*
X-19179602Y-50768631D03*
D29*
G36*
X-19727610Y-50397400D02*
X-19550833Y-50220623D01*
X-18631594Y-51139862D01*
X-18808371Y-51316639D01*
X-19727610Y-50397400D01*
X-19727610Y-50397400D01*
G37*
D40*
X-19533155Y-51122184D03*
D29*
G36*
X-20081163Y-50750953D02*
X-19904386Y-50574176D01*
X-18985147Y-51493415D01*
X-19161924Y-51670192D01*
X-20081163Y-50750953D01*
X-20081163Y-50750953D01*
G37*
D40*
X-19886709Y-51475738D03*
D29*
G36*
X-20434717Y-51104507D02*
X-20257940Y-50927730D01*
X-19338701Y-51846969D01*
X-19515478Y-52023746D01*
X-20434717Y-51104507D01*
X-20434717Y-51104507D01*
G37*
D40*
X-20240262Y-51829291D03*
D29*
G36*
X-20788270Y-51458060D02*
X-20611493Y-51281283D01*
X-19692254Y-52200522D01*
X-19869031Y-52377299D01*
X-20788270Y-51458060D01*
X-20788270Y-51458060D01*
G37*
D40*
X-20593816Y-52182845D03*
D29*
G36*
X-21141824Y-51811614D02*
X-20965047Y-51634837D01*
X-20045808Y-52554076D01*
X-20222585Y-52730853D01*
X-21141824Y-51811614D01*
X-21141824Y-51811614D01*
G37*
D40*
X-20947369Y-52536398D03*
D29*
G36*
X-21495377Y-52165167D02*
X-21318600Y-51988390D01*
X-20399361Y-52907629D01*
X-20576138Y-53084406D01*
X-21495377Y-52165167D01*
X-21495377Y-52165167D01*
G37*
D40*
X-21300922Y-52889951D03*
D29*
G36*
X-21848930Y-52518720D02*
X-21672153Y-52341943D01*
X-20752914Y-53261182D01*
X-20929691Y-53437959D01*
X-21848930Y-52518720D01*
X-21848930Y-52518720D01*
G37*
D40*
X-21654476Y-53243505D03*
D29*
G36*
X-22202484Y-52872274D02*
X-22025707Y-52695497D01*
X-21106468Y-53614736D01*
X-21283245Y-53791513D01*
X-22202484Y-52872274D01*
X-22202484Y-52872274D01*
G37*
D40*
X-22008029Y-53597058D03*
D29*
G36*
X-22556037Y-53225827D02*
X-22379260Y-53049050D01*
X-21460021Y-53968289D01*
X-21636798Y-54145066D01*
X-22556037Y-53225827D01*
X-22556037Y-53225827D01*
G37*
D40*
X-24270771Y-53597058D03*
D29*
G36*
X-24642002Y-54145066D02*
X-24818779Y-53968289D01*
X-23899540Y-53049050D01*
X-23722763Y-53225827D01*
X-24642002Y-54145066D01*
X-24642002Y-54145066D01*
G37*
D40*
X-24624324Y-53243505D03*
D29*
G36*
X-24995555Y-53791513D02*
X-25172332Y-53614736D01*
X-24253093Y-52695497D01*
X-24076316Y-52872274D01*
X-24995555Y-53791513D01*
X-24995555Y-53791513D01*
G37*
D40*
X-24977878Y-52889951D03*
D29*
G36*
X-25349109Y-53437959D02*
X-25525886Y-53261182D01*
X-24606647Y-52341943D01*
X-24429870Y-52518720D01*
X-25349109Y-53437959D01*
X-25349109Y-53437959D01*
G37*
D40*
X-25331431Y-52536398D03*
D29*
G36*
X-25702662Y-53084406D02*
X-25879439Y-52907629D01*
X-24960200Y-51988390D01*
X-24783423Y-52165167D01*
X-25702662Y-53084406D01*
X-25702662Y-53084406D01*
G37*
D40*
X-25684984Y-52182845D03*
D29*
G36*
X-26056215Y-52730853D02*
X-26232992Y-52554076D01*
X-25313753Y-51634837D01*
X-25136976Y-51811614D01*
X-26056215Y-52730853D01*
X-26056215Y-52730853D01*
G37*
D40*
X-26038538Y-51829291D03*
D29*
G36*
X-26409769Y-52377299D02*
X-26586546Y-52200522D01*
X-25667307Y-51281283D01*
X-25490530Y-51458060D01*
X-26409769Y-52377299D01*
X-26409769Y-52377299D01*
G37*
D40*
X-26392091Y-51475738D03*
D29*
G36*
X-26763322Y-52023746D02*
X-26940099Y-51846969D01*
X-26020860Y-50927730D01*
X-25844083Y-51104507D01*
X-26763322Y-52023746D01*
X-26763322Y-52023746D01*
G37*
D40*
X-26745645Y-51122184D03*
D29*
G36*
X-27116876Y-51670192D02*
X-27293653Y-51493415D01*
X-26374414Y-50574176D01*
X-26197637Y-50750953D01*
X-27116876Y-51670192D01*
X-27116876Y-51670192D01*
G37*
D40*
X-27099198Y-50768631D03*
D29*
G36*
X-27470429Y-51316639D02*
X-27647206Y-51139862D01*
X-26727967Y-50220623D01*
X-26551190Y-50397400D01*
X-27470429Y-51316639D01*
X-27470429Y-51316639D01*
G37*
D40*
X-27452751Y-50415078D03*
D29*
G36*
X-27823982Y-50963086D02*
X-28000759Y-50786309D01*
X-27081520Y-49867070D01*
X-26904743Y-50043847D01*
X-27823982Y-50963086D01*
X-27823982Y-50963086D01*
G37*
D40*
X-27806305Y-50061524D03*
D29*
G36*
X-28177536Y-50609532D02*
X-28354313Y-50432755D01*
X-27435074Y-49513516D01*
X-27258297Y-49690293D01*
X-28177536Y-50609532D01*
X-28177536Y-50609532D01*
G37*
D40*
X-28159858Y-49707971D03*
D29*
G36*
X-28531089Y-50255979D02*
X-28707866Y-50079202D01*
X-27788627Y-49159963D01*
X-27611850Y-49336740D01*
X-28531089Y-50255979D01*
X-28531089Y-50255979D01*
G37*
D40*
X-28159858Y-47445229D03*
D29*
G36*
X-28707866Y-47073998D02*
X-28531089Y-46897221D01*
X-27611850Y-47816460D01*
X-27788627Y-47993237D01*
X-28707866Y-47073998D01*
X-28707866Y-47073998D01*
G37*
D40*
X-27806305Y-47091676D03*
D29*
G36*
X-28354313Y-46720445D02*
X-28177536Y-46543668D01*
X-27258297Y-47462907D01*
X-27435074Y-47639684D01*
X-28354313Y-46720445D01*
X-28354313Y-46720445D01*
G37*
D40*
X-27452751Y-46738122D03*
D29*
G36*
X-28000759Y-46366891D02*
X-27823982Y-46190114D01*
X-26904743Y-47109353D01*
X-27081520Y-47286130D01*
X-28000759Y-46366891D01*
X-28000759Y-46366891D01*
G37*
D40*
X-27099198Y-46384569D03*
D29*
G36*
X-27647206Y-46013338D02*
X-27470429Y-45836561D01*
X-26551190Y-46755800D01*
X-26727967Y-46932577D01*
X-27647206Y-46013338D01*
X-27647206Y-46013338D01*
G37*
D40*
X-26745645Y-46031016D03*
D29*
G36*
X-27293653Y-45659785D02*
X-27116876Y-45483008D01*
X-26197637Y-46402247D01*
X-26374414Y-46579024D01*
X-27293653Y-45659785D01*
X-27293653Y-45659785D01*
G37*
D40*
X-26392091Y-45677462D03*
D29*
G36*
X-26940099Y-45306231D02*
X-26763322Y-45129454D01*
X-25844083Y-46048693D01*
X-26020860Y-46225470D01*
X-26940099Y-45306231D01*
X-26940099Y-45306231D01*
G37*
D40*
X-26038538Y-45323909D03*
D29*
G36*
X-26586546Y-44952678D02*
X-26409769Y-44775901D01*
X-25490530Y-45695140D01*
X-25667307Y-45871917D01*
X-26586546Y-44952678D01*
X-26586546Y-44952678D01*
G37*
D40*
X-25684984Y-44970355D03*
D29*
G36*
X-26232992Y-44599124D02*
X-26056215Y-44422347D01*
X-25136976Y-45341586D01*
X-25313753Y-45518363D01*
X-26232992Y-44599124D01*
X-26232992Y-44599124D01*
G37*
D40*
X-25331431Y-44616802D03*
D29*
G36*
X-25879439Y-44245571D02*
X-25702662Y-44068794D01*
X-24783423Y-44988033D01*
X-24960200Y-45164810D01*
X-25879439Y-44245571D01*
X-25879439Y-44245571D01*
G37*
D40*
X-24977878Y-44263249D03*
D29*
G36*
X-25525886Y-43892018D02*
X-25349109Y-43715241D01*
X-24429870Y-44634480D01*
X-24606647Y-44811257D01*
X-25525886Y-43892018D01*
X-25525886Y-43892018D01*
G37*
D40*
X-24624324Y-43909695D03*
D29*
G36*
X-25172332Y-43538464D02*
X-24995555Y-43361687D01*
X-24076316Y-44280926D01*
X-24253093Y-44457703D01*
X-25172332Y-43538464D01*
X-25172332Y-43538464D01*
G37*
D40*
X-24270771Y-43556142D03*
D29*
G36*
X-24818779Y-43184911D02*
X-24642002Y-43008134D01*
X-23722763Y-43927373D01*
X-23899540Y-44104150D01*
X-24818779Y-43184911D01*
X-24818779Y-43184911D01*
G37*
G04 #@! TD*
D41*
G04 #@! TO.C,J9*
X-13316200Y-33816200D03*
X-19916200Y-33816200D03*
G04 #@! TD*
D12*
G04 #@! TO.C,R46*
X-54432200Y-52957200D03*
X-54432200Y-51257200D03*
G04 #@! TD*
D25*
G04 #@! TO.C,R44*
X-58408200Y-58965200D03*
X-60108200Y-58965200D03*
G04 #@! TD*
D42*
G04 #@! TO.C,SW1*
X-12232000Y-66474200D03*
X-7072000Y-66474200D03*
X-7072000Y-68474200D03*
X-12232000Y-68474200D03*
G04 #@! TD*
D25*
G04 #@! TO.C,R43*
X-54266200Y-56552200D03*
X-52566200Y-56552200D03*
G04 #@! TD*
D43*
G04 #@! TO.C,U4*
X-12380000Y-47480600D03*
X-10480000Y-47480600D03*
X-10480000Y-50180600D03*
X-11430000Y-50180600D03*
X-12380000Y-50180600D03*
G04 #@! TD*
D44*
G04 #@! TO.C,BT1*
X-1303600Y-42556800D03*
D45*
X-8753600Y-42556800D03*
G04 #@! TD*
D46*
G04 #@! TO.C,F1*
X-11379200Y-38856200D03*
X-11379200Y-36656200D03*
G04 #@! TD*
D12*
G04 #@! TO.C,R7*
X-32715200Y-58877200D03*
X-32715200Y-60577200D03*
G04 #@! TD*
D25*
G04 #@! TO.C,C2*
X291200Y-63537200D03*
X-1408800Y-63537200D03*
G04 #@! TD*
D17*
G04 #@! TO.C,U9*
X-39700200Y-43565200D03*
X-40970200Y-43565200D03*
X-42240200Y-43565200D03*
X-43510200Y-43565200D03*
X-43510200Y-48965200D03*
X-42240200Y-48965200D03*
X-40970200Y-48965200D03*
X-39700200Y-48965200D03*
G04 #@! TD*
D12*
G04 #@! TO.C,C33*
X-31006002Y-68215222D03*
X-31006002Y-66515222D03*
G04 #@! TD*
D25*
G04 #@! TO.C,C21*
X-38215200Y-41439200D03*
X-39915200Y-41439200D03*
G04 #@! TD*
D47*
G04 #@! TO.C,J11*
X24229600Y-41591600D03*
D48*
X25754600Y-43066600D03*
D47*
X27279600Y-41591600D03*
D48*
X25754600Y-40116600D03*
G04 #@! TD*
D49*
G04 #@! TO.C,U5*
X-40183200Y-61632200D03*
X-40183200Y-60362200D03*
X-40183200Y-59092200D03*
X-40183200Y-57822200D03*
X-46583200Y-57822200D03*
X-46583200Y-59092200D03*
X-46583200Y-60362200D03*
X-46583200Y-61632200D03*
G04 #@! TD*
D42*
G04 #@! TO.C,SW2*
X-2741300Y-35200200D03*
X-7901300Y-35200200D03*
X-7901300Y-33200200D03*
X-2741300Y-33200200D03*
G04 #@! TD*
D25*
G04 #@! TO.C,C19*
X-58535200Y-47027200D03*
X-60235200Y-47027200D03*
G04 #@! TD*
G04 #@! TO.C,C39*
X-58496200Y-50456200D03*
X-60196200Y-50456200D03*
G04 #@! TD*
G04 #@! TO.C,C5*
X-30466400Y-52081800D03*
X-28766400Y-52081800D03*
G04 #@! TD*
D13*
G04 #@! TO.C,J5*
X1014800Y-57825200D03*
X7214800Y-57825200D03*
D14*
X2864800Y-54475200D03*
X4114800Y-54475200D03*
X5364800Y-54475200D03*
G04 #@! TD*
D12*
G04 #@! TO.C,C7*
X-32512000Y-42265600D03*
X-32512000Y-43965600D03*
G04 #@! TD*
D50*
G04 #@! TO.C,M3*
X-71642200Y-67440200D03*
G04 #@! TD*
D25*
G04 #@! TO.C,R29*
X16902800Y-51599200D03*
X15202800Y-51599200D03*
G04 #@! TD*
G04 #@! TO.C,C36*
X15202800Y-48551200D03*
X16902800Y-48551200D03*
G04 #@! TD*
G04 #@! TO.C,C3*
X-27394800Y-43115600D03*
X-29094800Y-43115600D03*
G04 #@! TD*
G04 #@! TO.C,R38*
X16902800Y-50075200D03*
X15202800Y-50075200D03*
G04 #@! TD*
G04 #@! TO.C,C28*
X10642600Y-44598960D03*
X12342600Y-44598960D03*
G04 #@! TD*
D50*
G04 #@! TO.C,M1*
X27087800Y-67440200D03*
G04 #@! TD*
D25*
G04 #@! TO.C,C27*
X10630800Y-46265200D03*
X12330800Y-46265200D03*
G04 #@! TD*
G04 #@! TO.C,C1*
X-32549200Y-40778800D03*
X-30849200Y-40778800D03*
G04 #@! TD*
D51*
G04 #@! TO.C,J4*
X-5156200Y-51980200D03*
G04 #@! TD*
D25*
G04 #@! TO.C,C12*
X-54674553Y-38314859D03*
X-52974553Y-38314859D03*
G04 #@! TD*
D48*
G04 #@! TO.C,J15*
X-2489200Y-52664200D03*
D47*
X-964200Y-54139200D03*
D48*
X-2489200Y-55614200D03*
D47*
X-4014200Y-54139200D03*
G04 #@! TD*
D25*
G04 #@! TO.C,C13*
X240400Y-61987800D03*
X-1459600Y-61987800D03*
G04 #@! TD*
G04 #@! TO.C,R42*
X-58408200Y-51980200D03*
X-60108200Y-51980200D03*
G04 #@! TD*
D12*
G04 #@! TO.C,C18*
X-49860200Y-62101200D03*
X-49860200Y-60401200D03*
G04 #@! TD*
D50*
G04 #@! TO.C,M6*
X-71642200Y-34210200D03*
G04 #@! TD*
D52*
G04 #@! TO.C,J16*
X-16586200Y-35098200D03*
D53*
X-17886200Y-36998200D03*
X-17236200Y-36998200D03*
X-15936200Y-36998200D03*
X-16586200Y-36998200D03*
D54*
X-19386200Y-37248200D03*
X-13786200Y-37248200D03*
D53*
X-15286200Y-36998200D03*
G04 #@! TD*
D25*
G04 #@! TO.C,C4*
X-23557600Y-40880400D03*
X-21857600Y-40880400D03*
G04 #@! TD*
G04 #@! TO.C,C20*
X-56933200Y-43979200D03*
X-55233200Y-43979200D03*
G04 #@! TD*
D13*
G04 #@! TO.C,J8*
X-7745500Y-44947400D03*
X-2795500Y-44947400D03*
D14*
X-5895500Y-41597400D03*
X-4645500Y-41597400D03*
G04 #@! TD*
D12*
G04 #@! TO.C,C11*
X-10109200Y-43916600D03*
X-10109200Y-45616600D03*
G04 #@! TD*
D50*
G04 #@! TO.C,M4*
X27087800Y-34210200D03*
G04 #@! TD*
D12*
G04 #@! TO.C,C22*
X10541000Y-61341000D03*
X10541000Y-63041000D03*
G04 #@! TD*
D55*
G04 #@! TO.C,U13*
X10135600Y-33744100D03*
X13435600Y-33744100D03*
X13435600Y-38644100D03*
X10135600Y-38644100D03*
G04 #@! TD*
D25*
G04 #@! TO.C,C15*
X-30441000Y-55282200D03*
X-28741000Y-55282200D03*
G04 #@! TD*
D13*
G04 #@! TO.C,J6*
X-45491400Y-37502200D03*
X-36791400Y-37502200D03*
D14*
X-43641400Y-34152200D03*
X-42391400Y-34152200D03*
X-41141400Y-34152200D03*
X-39891400Y-34152200D03*
X-38641400Y-34152200D03*
G04 #@! TD*
D16*
G04 #@! TO.C,J10*
X-67259200Y-13671200D03*
X-67259200Y-15671200D03*
D15*
X-65009200Y-11271200D03*
X-65009200Y-18071200D03*
G04 #@! TD*
D12*
G04 #@! TO.C,R47*
X-68529200Y4814800D03*
X-68529200Y6514800D03*
G04 #@! TD*
D14*
G04 #@! TO.C,J17*
X-23270200Y6319400D03*
X-24520200Y6319400D03*
X-25770200Y6319400D03*
X-27020200Y6319400D03*
X-28270200Y6319400D03*
X-29520200Y6319400D03*
X-30770200Y6319400D03*
X-32020200Y6319400D03*
X-33270200Y6319400D03*
D13*
X-21420200Y2969400D03*
X-35120200Y2969400D03*
G04 #@! TD*
D12*
G04 #@! TO.C,D4*
X-66751200Y6514800D03*
X-66751200Y4814800D03*
G04 #@! TD*
D25*
G04 #@! TO.C,R48*
X2678800Y1600800D03*
X978800Y1600800D03*
G04 #@! TD*
D16*
G04 #@! TO.C,J3*
X-67640200Y-2098200D03*
X-67640200Y-4098200D03*
D15*
X-65390200Y301800D03*
X-65390200Y-6498200D03*
G04 #@! TD*
D40*
G04 #@! TO.C,U2*
X-24270771Y-3056142D03*
D29*
G36*
X-24818779Y-2684911D02*
X-24642002Y-2508134D01*
X-23722763Y-3427373D01*
X-23899540Y-3604150D01*
X-24818779Y-2684911D01*
X-24818779Y-2684911D01*
G37*
D40*
X-24624324Y-3409695D03*
D29*
G36*
X-25172332Y-3038464D02*
X-24995555Y-2861687D01*
X-24076316Y-3780926D01*
X-24253093Y-3957703D01*
X-25172332Y-3038464D01*
X-25172332Y-3038464D01*
G37*
D40*
X-24977878Y-3763249D03*
D29*
G36*
X-25525886Y-3392018D02*
X-25349109Y-3215241D01*
X-24429870Y-4134480D01*
X-24606647Y-4311257D01*
X-25525886Y-3392018D01*
X-25525886Y-3392018D01*
G37*
D40*
X-25331431Y-4116802D03*
D29*
G36*
X-25879439Y-3745571D02*
X-25702662Y-3568794D01*
X-24783423Y-4488033D01*
X-24960200Y-4664810D01*
X-25879439Y-3745571D01*
X-25879439Y-3745571D01*
G37*
D40*
X-25684984Y-4470355D03*
D29*
G36*
X-26232992Y-4099124D02*
X-26056215Y-3922347D01*
X-25136976Y-4841586D01*
X-25313753Y-5018363D01*
X-26232992Y-4099124D01*
X-26232992Y-4099124D01*
G37*
D40*
X-26038538Y-4823909D03*
D29*
G36*
X-26586546Y-4452678D02*
X-26409769Y-4275901D01*
X-25490530Y-5195140D01*
X-25667307Y-5371917D01*
X-26586546Y-4452678D01*
X-26586546Y-4452678D01*
G37*
D40*
X-26392091Y-5177462D03*
D29*
G36*
X-26940099Y-4806231D02*
X-26763322Y-4629454D01*
X-25844083Y-5548693D01*
X-26020860Y-5725470D01*
X-26940099Y-4806231D01*
X-26940099Y-4806231D01*
G37*
D40*
X-26745645Y-5531016D03*
D29*
G36*
X-27293653Y-5159785D02*
X-27116876Y-4983008D01*
X-26197637Y-5902247D01*
X-26374414Y-6079024D01*
X-27293653Y-5159785D01*
X-27293653Y-5159785D01*
G37*
D40*
X-27099198Y-5884569D03*
D29*
G36*
X-27647206Y-5513338D02*
X-27470429Y-5336561D01*
X-26551190Y-6255800D01*
X-26727967Y-6432577D01*
X-27647206Y-5513338D01*
X-27647206Y-5513338D01*
G37*
D40*
X-27452751Y-6238122D03*
D29*
G36*
X-28000759Y-5866891D02*
X-27823982Y-5690114D01*
X-26904743Y-6609353D01*
X-27081520Y-6786130D01*
X-28000759Y-5866891D01*
X-28000759Y-5866891D01*
G37*
D40*
X-27806305Y-6591676D03*
D29*
G36*
X-28354313Y-6220445D02*
X-28177536Y-6043668D01*
X-27258297Y-6962907D01*
X-27435074Y-7139684D01*
X-28354313Y-6220445D01*
X-28354313Y-6220445D01*
G37*
D40*
X-28159858Y-6945229D03*
D29*
G36*
X-28707866Y-6573998D02*
X-28531089Y-6397221D01*
X-27611850Y-7316460D01*
X-27788627Y-7493237D01*
X-28707866Y-6573998D01*
X-28707866Y-6573998D01*
G37*
D40*
X-28159858Y-9207971D03*
D29*
G36*
X-28531089Y-9755979D02*
X-28707866Y-9579202D01*
X-27788627Y-8659963D01*
X-27611850Y-8836740D01*
X-28531089Y-9755979D01*
X-28531089Y-9755979D01*
G37*
D40*
X-27806305Y-9561524D03*
D29*
G36*
X-28177536Y-10109532D02*
X-28354313Y-9932755D01*
X-27435074Y-9013516D01*
X-27258297Y-9190293D01*
X-28177536Y-10109532D01*
X-28177536Y-10109532D01*
G37*
D40*
X-27452751Y-9915078D03*
D29*
G36*
X-27823982Y-10463086D02*
X-28000759Y-10286309D01*
X-27081520Y-9367070D01*
X-26904743Y-9543847D01*
X-27823982Y-10463086D01*
X-27823982Y-10463086D01*
G37*
D40*
X-27099198Y-10268631D03*
D29*
G36*
X-27470429Y-10816639D02*
X-27647206Y-10639862D01*
X-26727967Y-9720623D01*
X-26551190Y-9897400D01*
X-27470429Y-10816639D01*
X-27470429Y-10816639D01*
G37*
D40*
X-26745645Y-10622184D03*
D29*
G36*
X-27116876Y-11170192D02*
X-27293653Y-10993415D01*
X-26374414Y-10074176D01*
X-26197637Y-10250953D01*
X-27116876Y-11170192D01*
X-27116876Y-11170192D01*
G37*
D40*
X-26392091Y-10975738D03*
D29*
G36*
X-26763322Y-11523746D02*
X-26940099Y-11346969D01*
X-26020860Y-10427730D01*
X-25844083Y-10604507D01*
X-26763322Y-11523746D01*
X-26763322Y-11523746D01*
G37*
D40*
X-26038538Y-11329291D03*
D29*
G36*
X-26409769Y-11877299D02*
X-26586546Y-11700522D01*
X-25667307Y-10781283D01*
X-25490530Y-10958060D01*
X-26409769Y-11877299D01*
X-26409769Y-11877299D01*
G37*
D40*
X-25684984Y-11682845D03*
D29*
G36*
X-26056215Y-12230853D02*
X-26232992Y-12054076D01*
X-25313753Y-11134837D01*
X-25136976Y-11311614D01*
X-26056215Y-12230853D01*
X-26056215Y-12230853D01*
G37*
D40*
X-25331431Y-12036398D03*
D29*
G36*
X-25702662Y-12584406D02*
X-25879439Y-12407629D01*
X-24960200Y-11488390D01*
X-24783423Y-11665167D01*
X-25702662Y-12584406D01*
X-25702662Y-12584406D01*
G37*
D40*
X-24977878Y-12389951D03*
D29*
G36*
X-25349109Y-12937959D02*
X-25525886Y-12761182D01*
X-24606647Y-11841943D01*
X-24429870Y-12018720D01*
X-25349109Y-12937959D01*
X-25349109Y-12937959D01*
G37*
D40*
X-24624324Y-12743505D03*
D29*
G36*
X-24995555Y-13291513D02*
X-25172332Y-13114736D01*
X-24253093Y-12195497D01*
X-24076316Y-12372274D01*
X-24995555Y-13291513D01*
X-24995555Y-13291513D01*
G37*
D40*
X-24270771Y-13097058D03*
D29*
G36*
X-24642002Y-13645066D02*
X-24818779Y-13468289D01*
X-23899540Y-12549050D01*
X-23722763Y-12725827D01*
X-24642002Y-13645066D01*
X-24642002Y-13645066D01*
G37*
D40*
X-22008029Y-13097058D03*
D29*
G36*
X-22556037Y-12725827D02*
X-22379260Y-12549050D01*
X-21460021Y-13468289D01*
X-21636798Y-13645066D01*
X-22556037Y-12725827D01*
X-22556037Y-12725827D01*
G37*
D40*
X-21654476Y-12743505D03*
D29*
G36*
X-22202484Y-12372274D02*
X-22025707Y-12195497D01*
X-21106468Y-13114736D01*
X-21283245Y-13291513D01*
X-22202484Y-12372274D01*
X-22202484Y-12372274D01*
G37*
D40*
X-21300922Y-12389951D03*
D29*
G36*
X-21848930Y-12018720D02*
X-21672153Y-11841943D01*
X-20752914Y-12761182D01*
X-20929691Y-12937959D01*
X-21848930Y-12018720D01*
X-21848930Y-12018720D01*
G37*
D40*
X-20947369Y-12036398D03*
D29*
G36*
X-21495377Y-11665167D02*
X-21318600Y-11488390D01*
X-20399361Y-12407629D01*
X-20576138Y-12584406D01*
X-21495377Y-11665167D01*
X-21495377Y-11665167D01*
G37*
D40*
X-20593816Y-11682845D03*
D29*
G36*
X-21141824Y-11311614D02*
X-20965047Y-11134837D01*
X-20045808Y-12054076D01*
X-20222585Y-12230853D01*
X-21141824Y-11311614D01*
X-21141824Y-11311614D01*
G37*
D40*
X-20240262Y-11329291D03*
D29*
G36*
X-20788270Y-10958060D02*
X-20611493Y-10781283D01*
X-19692254Y-11700522D01*
X-19869031Y-11877299D01*
X-20788270Y-10958060D01*
X-20788270Y-10958060D01*
G37*
D40*
X-19886709Y-10975738D03*
D29*
G36*
X-20434717Y-10604507D02*
X-20257940Y-10427730D01*
X-19338701Y-11346969D01*
X-19515478Y-11523746D01*
X-20434717Y-10604507D01*
X-20434717Y-10604507D01*
G37*
D40*
X-19533155Y-10622184D03*
D29*
G36*
X-20081163Y-10250953D02*
X-19904386Y-10074176D01*
X-18985147Y-10993415D01*
X-19161924Y-11170192D01*
X-20081163Y-10250953D01*
X-20081163Y-10250953D01*
G37*
D40*
X-19179602Y-10268631D03*
D29*
G36*
X-19727610Y-9897400D02*
X-19550833Y-9720623D01*
X-18631594Y-10639862D01*
X-18808371Y-10816639D01*
X-19727610Y-9897400D01*
X-19727610Y-9897400D01*
G37*
D40*
X-18826049Y-9915078D03*
D29*
G36*
X-19374057Y-9543847D02*
X-19197280Y-9367070D01*
X-18278041Y-10286309D01*
X-18454818Y-10463086D01*
X-19374057Y-9543847D01*
X-19374057Y-9543847D01*
G37*
D40*
X-18472495Y-9561524D03*
D29*
G36*
X-19020503Y-9190293D02*
X-18843726Y-9013516D01*
X-17924487Y-9932755D01*
X-18101264Y-10109532D01*
X-19020503Y-9190293D01*
X-19020503Y-9190293D01*
G37*
D40*
X-18118942Y-9207971D03*
D29*
G36*
X-18666950Y-8836740D02*
X-18490173Y-8659963D01*
X-17570934Y-9579202D01*
X-17747711Y-9755979D01*
X-18666950Y-8836740D01*
X-18666950Y-8836740D01*
G37*
D40*
X-18118942Y-6945229D03*
D29*
G36*
X-18490173Y-7493237D02*
X-18666950Y-7316460D01*
X-17747711Y-6397221D01*
X-17570934Y-6573998D01*
X-18490173Y-7493237D01*
X-18490173Y-7493237D01*
G37*
D40*
X-18472495Y-6591676D03*
D29*
G36*
X-18843726Y-7139684D02*
X-19020503Y-6962907D01*
X-18101264Y-6043668D01*
X-17924487Y-6220445D01*
X-18843726Y-7139684D01*
X-18843726Y-7139684D01*
G37*
D40*
X-18826049Y-6238122D03*
D29*
G36*
X-19197280Y-6786130D02*
X-19374057Y-6609353D01*
X-18454818Y-5690114D01*
X-18278041Y-5866891D01*
X-19197280Y-6786130D01*
X-19197280Y-6786130D01*
G37*
D40*
X-19179602Y-5884569D03*
D29*
G36*
X-19550833Y-6432577D02*
X-19727610Y-6255800D01*
X-18808371Y-5336561D01*
X-18631594Y-5513338D01*
X-19550833Y-6432577D01*
X-19550833Y-6432577D01*
G37*
D40*
X-19533155Y-5531016D03*
D29*
G36*
X-19904386Y-6079024D02*
X-20081163Y-5902247D01*
X-19161924Y-4983008D01*
X-18985147Y-5159785D01*
X-19904386Y-6079024D01*
X-19904386Y-6079024D01*
G37*
D40*
X-19886709Y-5177462D03*
D29*
G36*
X-20257940Y-5725470D02*
X-20434717Y-5548693D01*
X-19515478Y-4629454D01*
X-19338701Y-4806231D01*
X-20257940Y-5725470D01*
X-20257940Y-5725470D01*
G37*
D40*
X-20240262Y-4823909D03*
D29*
G36*
X-20611493Y-5371917D02*
X-20788270Y-5195140D01*
X-19869031Y-4275901D01*
X-19692254Y-4452678D01*
X-20611493Y-5371917D01*
X-20611493Y-5371917D01*
G37*
D40*
X-20593816Y-4470355D03*
D29*
G36*
X-20965047Y-5018363D02*
X-21141824Y-4841586D01*
X-20222585Y-3922347D01*
X-20045808Y-4099124D01*
X-20965047Y-5018363D01*
X-20965047Y-5018363D01*
G37*
D40*
X-20947369Y-4116802D03*
D29*
G36*
X-21318600Y-4664810D02*
X-21495377Y-4488033D01*
X-20576138Y-3568794D01*
X-20399361Y-3745571D01*
X-21318600Y-4664810D01*
X-21318600Y-4664810D01*
G37*
D40*
X-21300922Y-3763249D03*
D29*
G36*
X-21672153Y-4311257D02*
X-21848930Y-4134480D01*
X-20929691Y-3215241D01*
X-20752914Y-3392018D01*
X-21672153Y-4311257D01*
X-21672153Y-4311257D01*
G37*
D40*
X-21654476Y-3409695D03*
D29*
G36*
X-22025707Y-3957703D02*
X-22202484Y-3780926D01*
X-21283245Y-2861687D01*
X-21106468Y-3038464D01*
X-22025707Y-3957703D01*
X-22025707Y-3957703D01*
G37*
D40*
X-22008029Y-3056142D03*
D29*
G36*
X-22379260Y-3604150D02*
X-22556037Y-3427373D01*
X-21636798Y-2508134D01*
X-21460021Y-2684911D01*
X-22379260Y-3604150D01*
X-22379260Y-3604150D01*
G37*
G04 #@! TD*
D41*
G04 #@! TO.C,J9*
X-19916200Y6683800D03*
X-13316200Y6683800D03*
G04 #@! TD*
D39*
G04 #@! TO.C,U15*
X-56969200Y-16548200D03*
X-56969200Y-16048200D03*
X-56969200Y-15548200D03*
X-56969200Y-15048200D03*
X-59769200Y-15048200D03*
X-59769200Y-15548200D03*
X-59769200Y-16048200D03*
X-59769200Y-16548200D03*
D38*
X-58369200Y-15798200D03*
G04 #@! TD*
D25*
G04 #@! TO.C,C40*
X-58330200Y-13131200D03*
X-56630200Y-13131200D03*
G04 #@! TD*
D12*
G04 #@! TO.C,R46*
X-54432200Y-10757200D03*
X-54432200Y-12457200D03*
G04 #@! TD*
D25*
G04 #@! TO.C,R44*
X-60108200Y-18465200D03*
X-58408200Y-18465200D03*
G04 #@! TD*
G04 #@! TO.C,R43*
X-52566200Y-16052200D03*
X-54266200Y-16052200D03*
G04 #@! TD*
D43*
G04 #@! TO.C,U4*
X-12380000Y-9680600D03*
X-11430000Y-9680600D03*
X-10480000Y-9680600D03*
X-10480000Y-6980600D03*
X-12380000Y-6980600D03*
G04 #@! TD*
D25*
G04 #@! TO.C,L3*
X19798400Y-17195200D03*
X18098400Y-17195200D03*
G04 #@! TD*
D46*
G04 #@! TO.C,F1*
X-11379200Y3843800D03*
X-11379200Y1643800D03*
G04 #@! TD*
D12*
G04 #@! TO.C,R7*
X-32715200Y-20077200D03*
X-32715200Y-18377200D03*
G04 #@! TD*
D45*
G04 #@! TO.C,BT1*
X-8753600Y-2056800D03*
D44*
X-1303600Y-2056800D03*
G04 #@! TD*
D42*
G04 #@! TO.C,SW1*
X-12232000Y-27974200D03*
X-7072000Y-27974200D03*
X-7072000Y-25974200D03*
X-12232000Y-25974200D03*
G04 #@! TD*
D25*
G04 #@! TO.C,C2*
X-1408800Y-23037200D03*
X291200Y-23037200D03*
G04 #@! TD*
D12*
G04 #@! TO.C,C10*
X-9601200Y7149800D03*
X-9601200Y5449800D03*
G04 #@! TD*
D25*
G04 #@! TO.C,C4*
X-21857600Y-380400D03*
X-23557600Y-380400D03*
G04 #@! TD*
G04 #@! TO.C,C3*
X-29094800Y-2615600D03*
X-27394800Y-2615600D03*
G04 #@! TD*
D17*
G04 #@! TO.C,U9*
X-39700200Y-8465200D03*
X-40970200Y-8465200D03*
X-42240200Y-8465200D03*
X-43510200Y-8465200D03*
X-43510200Y-3065200D03*
X-42240200Y-3065200D03*
X-40970200Y-3065200D03*
X-39700200Y-3065200D03*
G04 #@! TD*
D25*
G04 #@! TO.C,C20*
X-55233200Y-3479200D03*
X-56933200Y-3479200D03*
G04 #@! TD*
D12*
G04 #@! TO.C,C33*
X-31006002Y-26015222D03*
X-31006002Y-27715222D03*
G04 #@! TD*
D49*
G04 #@! TO.C,U5*
X-46583200Y-21132200D03*
X-46583200Y-19862200D03*
X-46583200Y-18592200D03*
X-46583200Y-17322200D03*
X-40183200Y-17322200D03*
X-40183200Y-18592200D03*
X-40183200Y-19862200D03*
X-40183200Y-21132200D03*
G04 #@! TD*
D25*
G04 #@! TO.C,C21*
X-39915200Y-939200D03*
X-38215200Y-939200D03*
G04 #@! TD*
D51*
G04 #@! TO.C,J4*
X-5156200Y-11480200D03*
G04 #@! TD*
D14*
G04 #@! TO.C,J8*
X-4645500Y-1097400D03*
X-5895500Y-1097400D03*
D13*
X-2795500Y-4447400D03*
X-7745500Y-4447400D03*
G04 #@! TD*
D42*
G04 #@! TO.C,SW2*
X-2741300Y7299800D03*
X-7901300Y7299800D03*
X-7901300Y5299800D03*
X-2741300Y5299800D03*
G04 #@! TD*
D25*
G04 #@! TO.C,C12*
X-52974553Y2185141D03*
X-54674553Y2185141D03*
G04 #@! TD*
G04 #@! TO.C,C19*
X-60235200Y-6527200D03*
X-58535200Y-6527200D03*
G04 #@! TD*
G04 #@! TO.C,C1*
X-30849200Y-278800D03*
X-32549200Y-278800D03*
G04 #@! TD*
G04 #@! TO.C,C39*
X-60196200Y-9956200D03*
X-58496200Y-9956200D03*
G04 #@! TD*
D47*
G04 #@! TO.C,J15*
X-4014200Y-13639200D03*
D48*
X-2489200Y-15114200D03*
D47*
X-964200Y-13639200D03*
D48*
X-2489200Y-12164200D03*
G04 #@! TD*
D25*
G04 #@! TO.C,C13*
X-1459600Y-21487800D03*
X240400Y-21487800D03*
G04 #@! TD*
G04 #@! TO.C,C36*
X16902800Y-8051200D03*
X15202800Y-8051200D03*
G04 #@! TD*
D48*
G04 #@! TO.C,J11*
X25754600Y383400D03*
D47*
X27279600Y-1091600D03*
D48*
X25754600Y-2566600D03*
D47*
X24229600Y-1091600D03*
G04 #@! TD*
D55*
G04 #@! TO.C,U13*
X10135600Y1855900D03*
X13435600Y1855900D03*
X13435600Y6755900D03*
X10135600Y6755900D03*
G04 #@! TD*
D12*
G04 #@! TO.C,C11*
X-10109200Y-5116600D03*
X-10109200Y-3416600D03*
G04 #@! TD*
D25*
G04 #@! TO.C,R38*
X15202800Y-9575200D03*
X16902800Y-9575200D03*
G04 #@! TD*
D14*
G04 #@! TO.C,J5*
X5364800Y-13975200D03*
X4114800Y-13975200D03*
X2864800Y-13975200D03*
D13*
X7214800Y-17325200D03*
X1014800Y-17325200D03*
G04 #@! TD*
D25*
G04 #@! TO.C,C5*
X-28766400Y-11581800D03*
X-30466400Y-11581800D03*
G04 #@! TD*
D50*
G04 #@! TO.C,M6*
X-71642200Y6289800D03*
G04 #@! TD*
D25*
G04 #@! TO.C,R42*
X-60108200Y-11480200D03*
X-58408200Y-11480200D03*
G04 #@! TD*
D14*
G04 #@! TO.C,J6*
X-38641400Y6347800D03*
X-39891400Y6347800D03*
X-41141400Y6347800D03*
X-42391400Y6347800D03*
X-43641400Y6347800D03*
D13*
X-36791400Y2997800D03*
X-45491400Y2997800D03*
G04 #@! TD*
D12*
G04 #@! TO.C,C7*
X-32512000Y-3465600D03*
X-32512000Y-1765600D03*
G04 #@! TD*
D25*
G04 #@! TO.C,C28*
X12342600Y-4098960D03*
X10642600Y-4098960D03*
G04 #@! TD*
D12*
G04 #@! TO.C,C18*
X-49860200Y-19901200D03*
X-49860200Y-21601200D03*
G04 #@! TD*
G04 #@! TO.C,C22*
X10541000Y-22541000D03*
X10541000Y-20841000D03*
G04 #@! TD*
D25*
G04 #@! TO.C,C15*
X-28741000Y-14782200D03*
X-30441000Y-14782200D03*
G04 #@! TD*
D50*
G04 #@! TO.C,M3*
X-71642200Y-26940200D03*
G04 #@! TD*
G04 #@! TO.C,M4*
X27087800Y6289800D03*
G04 #@! TD*
D25*
G04 #@! TO.C,R29*
X15202800Y-11099200D03*
X16902800Y-11099200D03*
G04 #@! TD*
D53*
G04 #@! TO.C,J16*
X-15286200Y3501800D03*
D54*
X-13786200Y3251800D03*
X-19386200Y3251800D03*
D53*
X-16586200Y3501800D03*
X-15936200Y3501800D03*
X-17236200Y3501800D03*
X-17886200Y3501800D03*
D52*
X-16586200Y5401800D03*
G04 #@! TD*
D50*
G04 #@! TO.C,M1*
X27087800Y-26940200D03*
G04 #@! TD*
D25*
G04 #@! TO.C,C27*
X12330800Y-5765200D03*
X10630800Y-5765200D03*
G04 #@! TD*
D12*
G04 #@! TO.C,R45*
X-52908200Y-12457200D03*
X-52908200Y-10757200D03*
G04 #@! TD*
G04 #@! TO.C,C16*
X-27704002Y-26015222D03*
X-27704002Y-27715222D03*
G04 #@! TD*
G04 #@! TO.C,C34*
X-29355002Y-26015222D03*
X-29355002Y-27715222D03*
G04 #@! TD*
D24*
G04 #@! TO.C,U11*
X20403800Y-2615600D03*
X20403800Y-3885600D03*
X20403800Y-5155600D03*
X20403800Y-6425600D03*
X15003800Y-6425600D03*
X15003800Y-5155600D03*
X15003800Y-3885600D03*
X15003800Y-2615600D03*
G04 #@! TD*
D12*
G04 #@! TO.C,C31*
X10972800Y-17107200D03*
X10972800Y-18807200D03*
G04 #@! TD*
D19*
G04 #@! TO.C,Y1*
X-27716799Y-532800D03*
X-25216801Y-532800D03*
G04 #@! TD*
D25*
G04 #@! TO.C,R9*
X-2274200Y-25653400D03*
X-3974200Y-25653400D03*
G04 #@! TD*
D23*
G04 #@! TO.C,U6*
X-58186283Y-630067D03*
X-58186283Y119933D03*
X-58936283Y119933D03*
X-58936283Y-630067D03*
D22*
X-60036283Y494933D03*
X-60036283Y-5067D03*
X-60036283Y-505067D03*
X-60036283Y-1005067D03*
D21*
X-59311283Y-1730067D03*
X-58811283Y-1730067D03*
D20*
X-58311283Y-1730067D03*
D21*
X-57811283Y-1730067D03*
D22*
X-57086283Y-1005067D03*
X-57086283Y-505067D03*
X-57086283Y-5067D03*
X-57086283Y494933D03*
D21*
X-57811283Y1219933D03*
X-58311283Y1219933D03*
X-58811283Y1219933D03*
D20*
X-59311283Y1219933D03*
G04 #@! TD*
D12*
G04 #@! TO.C,C29*
X-35636200Y-6107200D03*
X-35636200Y-4407200D03*
G04 #@! TD*
G04 #@! TO.C,C23*
X-54432200Y-5169200D03*
X-54432200Y-6869200D03*
G04 #@! TD*
D25*
G04 #@! TO.C,R20*
X-60165530Y-8051200D03*
X-58465530Y-8051200D03*
G04 #@! TD*
G04 #@! TO.C,R41*
X16482800Y-26339200D03*
X14782800Y-26339200D03*
G04 #@! TD*
G04 #@! TO.C,R40*
X14821800Y-27863200D03*
X16521800Y-27863200D03*
G04 #@! TD*
G04 #@! TO.C,C38*
X-5879200Y-24053200D03*
X-4179200Y-24053200D03*
G04 #@! TD*
D12*
G04 #@! TO.C,R19*
X-42240200Y-27824200D03*
X-42240200Y-26124200D03*
G04 #@! TD*
G04 #@! TO.C,C37*
X-711200Y5322800D03*
X-711200Y7022800D03*
G04 #@! TD*
G04 #@! TO.C,R28*
X-56845200Y-10513200D03*
X-56845200Y-8813200D03*
G04 #@! TD*
D28*
G04 #@! TO.C,C9*
X-16653841Y-10252441D03*
D29*
G36*
X-16618486Y-9509979D02*
X-15911379Y-10217086D01*
X-16689196Y-10994903D01*
X-17396303Y-10287796D01*
X-16618486Y-9509979D01*
X-16618486Y-9509979D01*
G37*
D28*
X-15451759Y-9050359D03*
D29*
G36*
X-15416404Y-8307897D02*
X-14709297Y-9015004D01*
X-15487114Y-9792821D01*
X-16194221Y-9085714D01*
X-15416404Y-8307897D01*
X-15416404Y-8307897D01*
G37*
G04 #@! TD*
D12*
G04 #@! TO.C,C32*
X14020800Y-18807200D03*
X14020800Y-17107200D03*
G04 #@! TD*
G04 #@! TO.C,C35*
X12496800Y-18807200D03*
X12496800Y-17107200D03*
G04 #@! TD*
D25*
G04 #@! TO.C,C24*
X13867500Y-20865500D03*
X12167500Y-20865500D03*
G04 #@! TD*
G04 #@! TO.C,R15*
X-34415200Y-16738000D03*
X-32715200Y-16738000D03*
G04 #@! TD*
G04 #@! TO.C,R16*
X-33985200Y-14934600D03*
X-32285200Y-14934600D03*
G04 #@! TD*
G04 #@! TO.C,C8*
X-28766400Y-13080400D03*
X-30466400Y-13080400D03*
G04 #@! TD*
G04 #@! TO.C,R18*
X-24421200Y-26085200D03*
X-22721200Y-26085200D03*
G04 #@! TD*
G04 #@! TO.C,C6*
X-17614000Y-4139600D03*
X-15914000Y-4139600D03*
G04 #@! TD*
D12*
G04 #@! TO.C,D3*
X-45508730Y-26045630D03*
X-45508730Y-27745630D03*
G04 #@! TD*
G04 #@! TO.C,L2*
X-11379200Y7149800D03*
X-11379200Y5449800D03*
G04 #@! TD*
G04 #@! TO.C,D1*
X15570200Y4843400D03*
X15570200Y6543400D03*
G04 #@! TD*
G04 #@! TO.C,D2*
X-49174400Y-26025800D03*
X-49174400Y-27725800D03*
G04 #@! TD*
D27*
G04 #@! TO.C,M8*
X-65227200Y-27355200D03*
G04 #@! TD*
D31*
G04 #@! TO.C,D8*
X-17517200Y-625200D03*
D30*
X-17517200Y-2325200D03*
X-15517200Y-2325200D03*
X-15517200Y-425200D03*
G04 #@! TD*
D25*
G04 #@! TO.C,D9*
X-49389400Y6760200D03*
X-47689400Y6760200D03*
G04 #@! TD*
D12*
G04 #@! TO.C,D11*
X1595600Y4814800D03*
X1595600Y6514800D03*
G04 #@! TD*
D26*
G04 #@! TO.C,Q1*
X15636200Y751800D03*
X17536200Y751800D03*
X16586200Y3051800D03*
G04 #@! TD*
D27*
G04 #@! TO.C,M5*
X19862800Y6934800D03*
G04 #@! TD*
D25*
G04 #@! TO.C,R1*
X-57187200Y-27355200D03*
X-55487200Y-27355200D03*
G04 #@! TD*
D12*
G04 #@! TO.C,R2*
X-37871400Y-26025800D03*
X-37871400Y-27725800D03*
G04 #@! TD*
G04 #@! TO.C,R4*
X-51003200Y-26025800D03*
X-51003200Y-27725800D03*
G04 #@! TD*
D25*
G04 #@! TO.C,R33*
X-49389400Y1883400D03*
X-47689400Y1883400D03*
G04 #@! TD*
G04 #@! TO.C,R37*
X13880200Y-22491100D03*
X12180200Y-22491100D03*
G04 #@! TD*
D12*
G04 #@! TO.C,R5*
X-47345600Y-26076600D03*
X-47345600Y-27776600D03*
G04 #@! TD*
G04 #@! TO.C,C25*
X-50495200Y-8139200D03*
X-50495200Y-6439200D03*
G04 #@! TD*
D25*
G04 #@! TO.C,R21*
X-52974553Y508741D03*
X-54674553Y508741D03*
G04 #@! TD*
G04 #@! TO.C,R10*
X-9155800Y2108800D03*
X-7455800Y2108800D03*
G04 #@! TD*
D12*
G04 #@! TO.C,C30*
X-37795200Y-6058200D03*
X-37795200Y-7758200D03*
G04 #@! TD*
D25*
G04 #@! TO.C,R35*
X-10478400Y-13105800D03*
X-12178400Y-13105800D03*
G04 #@! TD*
D12*
G04 #@! TO.C,R39*
X3322800Y4814800D03*
X3322800Y6514800D03*
G04 #@! TD*
G04 #@! TO.C,R22*
X-55754953Y6692741D03*
X-55754953Y4992741D03*
G04 #@! TD*
G04 #@! TO.C,R3*
X17602200Y6543400D03*
X17602200Y4843400D03*
G04 #@! TD*
D25*
G04 #@! TO.C,R32*
X-49389400Y5134600D03*
X-47689400Y5134600D03*
G04 #@! TD*
D12*
G04 #@! TO.C,R12*
X-52908200Y-5169200D03*
X-52908200Y-6869200D03*
G04 #@! TD*
D25*
G04 #@! TO.C,R8*
X-2274200Y-27431400D03*
X-3974200Y-27431400D03*
G04 #@! TD*
G04 #@! TO.C,R13*
X-35638000Y-2768000D03*
X-37338000Y-2768000D03*
G04 #@! TD*
D17*
G04 #@! TO.C,U12*
X-26936700Y-22722200D03*
X-28206700Y-22722200D03*
X-29476700Y-22722200D03*
X-30746700Y-22722200D03*
X-30746700Y-17322200D03*
X-29476700Y-17322200D03*
X-28206700Y-17322200D03*
X-26936700Y-17322200D03*
G04 #@! TD*
D25*
G04 #@! TO.C,R36*
X-10453000Y-11556400D03*
X-12153000Y-11556400D03*
G04 #@! TD*
G04 #@! TO.C,R17*
X-3595000Y2108800D03*
X-5295000Y2108800D03*
G04 #@! TD*
D12*
G04 #@! TO.C,C26*
X-51257200Y-2629200D03*
X-51257200Y-4329200D03*
G04 #@! TD*
G04 #@! TO.C,R11*
X-56083200Y-5169200D03*
X-56083200Y-6869200D03*
G04 #@! TD*
G04 #@! TO.C,C17*
X-26053002Y-26015222D03*
X-26053002Y-27715222D03*
G04 #@! TD*
D34*
G04 #@! TO.C,D7*
X-52258200Y6232200D03*
X-53558200Y6232200D03*
D33*
X-52908200Y5182200D03*
D32*
X-52908200Y4507200D03*
G04 #@! TD*
D27*
G04 #@! TO.C,M2*
X16052800Y-23545200D03*
G04 #@! TD*
D37*
G04 #@! TO.C,Y2*
X4038600Y-25887400D03*
X4038600Y-23387400D03*
G04 #@! TD*
D25*
G04 #@! TO.C,D10*
X-49389400Y3509000D03*
X-47689400Y3509000D03*
G04 #@! TD*
D12*
G04 #@! TO.C,R34*
X-61038153Y4992741D03*
X-61038153Y6692741D03*
G04 #@! TD*
G04 #@! TO.C,L1*
X-30937200Y-3414800D03*
X-30937200Y-1714800D03*
G04 #@! TD*
G04 #@! TO.C,R25*
X-59260153Y6692741D03*
X-59260153Y4992741D03*
G04 #@! TD*
G04 #@! TO.C,R14*
X-34239200Y-4446200D03*
X-34239200Y-6146200D03*
G04 #@! TD*
G04 #@! TO.C,R6*
X-25222200Y-21347200D03*
X-25222200Y-19647200D03*
G04 #@! TD*
D24*
G04 #@! TO.C,U7*
X12326600Y-24053200D03*
X12326600Y-25323200D03*
X12326600Y-26593200D03*
X12326600Y-27863200D03*
X6926600Y-27863200D03*
X6926600Y-26593200D03*
X6926600Y-25323200D03*
X6926600Y-24053200D03*
G04 #@! TD*
D36*
G04 #@! TO.C,J13*
X6868800Y-1900200D03*
X5868800Y-1900200D03*
X4868800Y-1900200D03*
X3868800Y-1900200D03*
X2868800Y-1900200D03*
X1868800Y-1900200D03*
D35*
X8168800Y-4425200D03*
X568800Y-4425200D03*
G04 #@! TD*
D18*
G04 #@! TO.C,J7*
X-7823200Y-17227200D03*
X-7823200Y-21227200D03*
X-9093200Y-17227200D03*
X-9093200Y-21227200D03*
X-10363200Y-17227200D03*
X-10363200Y-21227200D03*
X-11633200Y-17227200D03*
X-11633200Y-21227200D03*
X-12903200Y-17227200D03*
X-12903200Y-21227200D03*
G04 #@! TD*
D17*
G04 #@! TO.C,U8*
X-45034200Y-8465200D03*
X-46304200Y-8465200D03*
X-47574200Y-8465200D03*
X-48844200Y-8465200D03*
X-48844200Y-3065200D03*
X-47574200Y-3065200D03*
X-46304200Y-3065200D03*
X-45034200Y-3065200D03*
G04 #@! TD*
D12*
G04 #@! TO.C,R24*
X-57532953Y6692741D03*
X-57532953Y4992741D03*
G04 #@! TD*
G04 #@! TO.C,R47*
X-68529200Y47014800D03*
X-68529200Y45314800D03*
G04 #@! TD*
D40*
G04 #@! TO.C,U2*
X-22008029Y37443858D03*
D29*
G36*
X-22379260Y36895850D02*
X-22556037Y37072627D01*
X-21636798Y37991866D01*
X-21460021Y37815089D01*
X-22379260Y36895850D01*
X-22379260Y36895850D01*
G37*
D40*
X-21654476Y37090305D03*
D29*
G36*
X-22025707Y36542297D02*
X-22202484Y36719074D01*
X-21283245Y37638313D01*
X-21106468Y37461536D01*
X-22025707Y36542297D01*
X-22025707Y36542297D01*
G37*
D40*
X-21300922Y36736751D03*
D29*
G36*
X-21672153Y36188743D02*
X-21848930Y36365520D01*
X-20929691Y37284759D01*
X-20752914Y37107982D01*
X-21672153Y36188743D01*
X-21672153Y36188743D01*
G37*
D40*
X-20947369Y36383198D03*
D29*
G36*
X-21318600Y35835190D02*
X-21495377Y36011967D01*
X-20576138Y36931206D01*
X-20399361Y36754429D01*
X-21318600Y35835190D01*
X-21318600Y35835190D01*
G37*
D40*
X-20593816Y36029645D03*
D29*
G36*
X-20965047Y35481637D02*
X-21141824Y35658414D01*
X-20222585Y36577653D01*
X-20045808Y36400876D01*
X-20965047Y35481637D01*
X-20965047Y35481637D01*
G37*
D40*
X-20240262Y35676091D03*
D29*
G36*
X-20611493Y35128083D02*
X-20788270Y35304860D01*
X-19869031Y36224099D01*
X-19692254Y36047322D01*
X-20611493Y35128083D01*
X-20611493Y35128083D01*
G37*
D40*
X-19886709Y35322538D03*
D29*
G36*
X-20257940Y34774530D02*
X-20434717Y34951307D01*
X-19515478Y35870546D01*
X-19338701Y35693769D01*
X-20257940Y34774530D01*
X-20257940Y34774530D01*
G37*
D40*
X-19533155Y34968984D03*
D29*
G36*
X-19904386Y34420976D02*
X-20081163Y34597753D01*
X-19161924Y35516992D01*
X-18985147Y35340215D01*
X-19904386Y34420976D01*
X-19904386Y34420976D01*
G37*
D40*
X-19179602Y34615431D03*
D29*
G36*
X-19550833Y34067423D02*
X-19727610Y34244200D01*
X-18808371Y35163439D01*
X-18631594Y34986662D01*
X-19550833Y34067423D01*
X-19550833Y34067423D01*
G37*
D40*
X-18826049Y34261878D03*
D29*
G36*
X-19197280Y33713870D02*
X-19374057Y33890647D01*
X-18454818Y34809886D01*
X-18278041Y34633109D01*
X-19197280Y33713870D01*
X-19197280Y33713870D01*
G37*
D40*
X-18472495Y33908324D03*
D29*
G36*
X-18843726Y33360316D02*
X-19020503Y33537093D01*
X-18101264Y34456332D01*
X-17924487Y34279555D01*
X-18843726Y33360316D01*
X-18843726Y33360316D01*
G37*
D40*
X-18118942Y33554771D03*
D29*
G36*
X-18490173Y33006763D02*
X-18666950Y33183540D01*
X-17747711Y34102779D01*
X-17570934Y33926002D01*
X-18490173Y33006763D01*
X-18490173Y33006763D01*
G37*
D40*
X-18118942Y31292029D03*
D29*
G36*
X-18666950Y31663260D02*
X-18490173Y31840037D01*
X-17570934Y30920798D01*
X-17747711Y30744021D01*
X-18666950Y31663260D01*
X-18666950Y31663260D01*
G37*
D40*
X-18472495Y30938476D03*
D29*
G36*
X-19020503Y31309707D02*
X-18843726Y31486484D01*
X-17924487Y30567245D01*
X-18101264Y30390468D01*
X-19020503Y31309707D01*
X-19020503Y31309707D01*
G37*
D40*
X-18826049Y30584922D03*
D29*
G36*
X-19374057Y30956153D02*
X-19197280Y31132930D01*
X-18278041Y30213691D01*
X-18454818Y30036914D01*
X-19374057Y30956153D01*
X-19374057Y30956153D01*
G37*
D40*
X-19179602Y30231369D03*
D29*
G36*
X-19727610Y30602600D02*
X-19550833Y30779377D01*
X-18631594Y29860138D01*
X-18808371Y29683361D01*
X-19727610Y30602600D01*
X-19727610Y30602600D01*
G37*
D40*
X-19533155Y29877816D03*
D29*
G36*
X-20081163Y30249047D02*
X-19904386Y30425824D01*
X-18985147Y29506585D01*
X-19161924Y29329808D01*
X-20081163Y30249047D01*
X-20081163Y30249047D01*
G37*
D40*
X-19886709Y29524262D03*
D29*
G36*
X-20434717Y29895493D02*
X-20257940Y30072270D01*
X-19338701Y29153031D01*
X-19515478Y28976254D01*
X-20434717Y29895493D01*
X-20434717Y29895493D01*
G37*
D40*
X-20240262Y29170709D03*
D29*
G36*
X-20788270Y29541940D02*
X-20611493Y29718717D01*
X-19692254Y28799478D01*
X-19869031Y28622701D01*
X-20788270Y29541940D01*
X-20788270Y29541940D01*
G37*
D40*
X-20593816Y28817155D03*
D29*
G36*
X-21141824Y29188386D02*
X-20965047Y29365163D01*
X-20045808Y28445924D01*
X-20222585Y28269147D01*
X-21141824Y29188386D01*
X-21141824Y29188386D01*
G37*
D40*
X-20947369Y28463602D03*
D29*
G36*
X-21495377Y28834833D02*
X-21318600Y29011610D01*
X-20399361Y28092371D01*
X-20576138Y27915594D01*
X-21495377Y28834833D01*
X-21495377Y28834833D01*
G37*
D40*
X-21300922Y28110049D03*
D29*
G36*
X-21848930Y28481280D02*
X-21672153Y28658057D01*
X-20752914Y27738818D01*
X-20929691Y27562041D01*
X-21848930Y28481280D01*
X-21848930Y28481280D01*
G37*
D40*
X-21654476Y27756495D03*
D29*
G36*
X-22202484Y28127726D02*
X-22025707Y28304503D01*
X-21106468Y27385264D01*
X-21283245Y27208487D01*
X-22202484Y28127726D01*
X-22202484Y28127726D01*
G37*
D40*
X-22008029Y27402942D03*
D29*
G36*
X-22556037Y27774173D02*
X-22379260Y27950950D01*
X-21460021Y27031711D01*
X-21636798Y26854934D01*
X-22556037Y27774173D01*
X-22556037Y27774173D01*
G37*
D40*
X-24270771Y27402942D03*
D29*
G36*
X-24642002Y26854934D02*
X-24818779Y27031711D01*
X-23899540Y27950950D01*
X-23722763Y27774173D01*
X-24642002Y26854934D01*
X-24642002Y26854934D01*
G37*
D40*
X-24624324Y27756495D03*
D29*
G36*
X-24995555Y27208487D02*
X-25172332Y27385264D01*
X-24253093Y28304503D01*
X-24076316Y28127726D01*
X-24995555Y27208487D01*
X-24995555Y27208487D01*
G37*
D40*
X-24977878Y28110049D03*
D29*
G36*
X-25349109Y27562041D02*
X-25525886Y27738818D01*
X-24606647Y28658057D01*
X-24429870Y28481280D01*
X-25349109Y27562041D01*
X-25349109Y27562041D01*
G37*
D40*
X-25331431Y28463602D03*
D29*
G36*
X-25702662Y27915594D02*
X-25879439Y28092371D01*
X-24960200Y29011610D01*
X-24783423Y28834833D01*
X-25702662Y27915594D01*
X-25702662Y27915594D01*
G37*
D40*
X-25684984Y28817155D03*
D29*
G36*
X-26056215Y28269147D02*
X-26232992Y28445924D01*
X-25313753Y29365163D01*
X-25136976Y29188386D01*
X-26056215Y28269147D01*
X-26056215Y28269147D01*
G37*
D40*
X-26038538Y29170709D03*
D29*
G36*
X-26409769Y28622701D02*
X-26586546Y28799478D01*
X-25667307Y29718717D01*
X-25490530Y29541940D01*
X-26409769Y28622701D01*
X-26409769Y28622701D01*
G37*
D40*
X-26392091Y29524262D03*
D29*
G36*
X-26763322Y28976254D02*
X-26940099Y29153031D01*
X-26020860Y30072270D01*
X-25844083Y29895493D01*
X-26763322Y28976254D01*
X-26763322Y28976254D01*
G37*
D40*
X-26745645Y29877816D03*
D29*
G36*
X-27116876Y29329808D02*
X-27293653Y29506585D01*
X-26374414Y30425824D01*
X-26197637Y30249047D01*
X-27116876Y29329808D01*
X-27116876Y29329808D01*
G37*
D40*
X-27099198Y30231369D03*
D29*
G36*
X-27470429Y29683361D02*
X-27647206Y29860138D01*
X-26727967Y30779377D01*
X-26551190Y30602600D01*
X-27470429Y29683361D01*
X-27470429Y29683361D01*
G37*
D40*
X-27452751Y30584922D03*
D29*
G36*
X-27823982Y30036914D02*
X-28000759Y30213691D01*
X-27081520Y31132930D01*
X-26904743Y30956153D01*
X-27823982Y30036914D01*
X-27823982Y30036914D01*
G37*
D40*
X-27806305Y30938476D03*
D29*
G36*
X-28177536Y30390468D02*
X-28354313Y30567245D01*
X-27435074Y31486484D01*
X-27258297Y31309707D01*
X-28177536Y30390468D01*
X-28177536Y30390468D01*
G37*
D40*
X-28159858Y31292029D03*
D29*
G36*
X-28531089Y30744021D02*
X-28707866Y30920798D01*
X-27788627Y31840037D01*
X-27611850Y31663260D01*
X-28531089Y30744021D01*
X-28531089Y30744021D01*
G37*
D40*
X-28159858Y33554771D03*
D29*
G36*
X-28707866Y33926002D02*
X-28531089Y34102779D01*
X-27611850Y33183540D01*
X-27788627Y33006763D01*
X-28707866Y33926002D01*
X-28707866Y33926002D01*
G37*
D40*
X-27806305Y33908324D03*
D29*
G36*
X-28354313Y34279555D02*
X-28177536Y34456332D01*
X-27258297Y33537093D01*
X-27435074Y33360316D01*
X-28354313Y34279555D01*
X-28354313Y34279555D01*
G37*
D40*
X-27452751Y34261878D03*
D29*
G36*
X-28000759Y34633109D02*
X-27823982Y34809886D01*
X-26904743Y33890647D01*
X-27081520Y33713870D01*
X-28000759Y34633109D01*
X-28000759Y34633109D01*
G37*
D40*
X-27099198Y34615431D03*
D29*
G36*
X-27647206Y34986662D02*
X-27470429Y35163439D01*
X-26551190Y34244200D01*
X-26727967Y34067423D01*
X-27647206Y34986662D01*
X-27647206Y34986662D01*
G37*
D40*
X-26745645Y34968984D03*
D29*
G36*
X-27293653Y35340215D02*
X-27116876Y35516992D01*
X-26197637Y34597753D01*
X-26374414Y34420976D01*
X-27293653Y35340215D01*
X-27293653Y35340215D01*
G37*
D40*
X-26392091Y35322538D03*
D29*
G36*
X-26940099Y35693769D02*
X-26763322Y35870546D01*
X-25844083Y34951307D01*
X-26020860Y34774530D01*
X-26940099Y35693769D01*
X-26940099Y35693769D01*
G37*
D40*
X-26038538Y35676091D03*
D29*
G36*
X-26586546Y36047322D02*
X-26409769Y36224099D01*
X-25490530Y35304860D01*
X-25667307Y35128083D01*
X-26586546Y36047322D01*
X-26586546Y36047322D01*
G37*
D40*
X-25684984Y36029645D03*
D29*
G36*
X-26232992Y36400876D02*
X-26056215Y36577653D01*
X-25136976Y35658414D01*
X-25313753Y35481637D01*
X-26232992Y36400876D01*
X-26232992Y36400876D01*
G37*
D40*
X-25331431Y36383198D03*
D29*
G36*
X-25879439Y36754429D02*
X-25702662Y36931206D01*
X-24783423Y36011967D01*
X-24960200Y35835190D01*
X-25879439Y36754429D01*
X-25879439Y36754429D01*
G37*
D40*
X-24977878Y36736751D03*
D29*
G36*
X-25525886Y37107982D02*
X-25349109Y37284759D01*
X-24429870Y36365520D01*
X-24606647Y36188743D01*
X-25525886Y37107982D01*
X-25525886Y37107982D01*
G37*
D40*
X-24624324Y37090305D03*
D29*
G36*
X-25172332Y37461536D02*
X-24995555Y37638313D01*
X-24076316Y36719074D01*
X-24253093Y36542297D01*
X-25172332Y37461536D01*
X-25172332Y37461536D01*
G37*
D40*
X-24270771Y37443858D03*
D29*
G36*
X-24818779Y37815089D02*
X-24642002Y37991866D01*
X-23722763Y37072627D01*
X-23899540Y36895850D01*
X-24818779Y37815089D01*
X-24818779Y37815089D01*
G37*
G04 #@! TD*
D12*
G04 #@! TO.C,D4*
X-66751200Y45314800D03*
X-66751200Y47014800D03*
G04 #@! TD*
D25*
G04 #@! TO.C,R48*
X978800Y42100800D03*
X2678800Y42100800D03*
G04 #@! TD*
D13*
G04 #@! TO.C,J17*
X-35120200Y43469400D03*
X-21420200Y43469400D03*
D14*
X-33270200Y46819400D03*
X-32020200Y46819400D03*
X-30770200Y46819400D03*
X-29520200Y46819400D03*
X-28270200Y46819400D03*
X-27020200Y46819400D03*
X-25770200Y46819400D03*
X-24520200Y46819400D03*
X-23270200Y46819400D03*
G04 #@! TD*
D15*
G04 #@! TO.C,J3*
X-65390200Y34001800D03*
X-65390200Y40801800D03*
D16*
X-67640200Y36401800D03*
X-67640200Y38401800D03*
G04 #@! TD*
D15*
G04 #@! TO.C,J10*
X-65009200Y22428800D03*
X-65009200Y29228800D03*
D16*
X-67259200Y24828800D03*
X-67259200Y26828800D03*
G04 #@! TD*
D41*
G04 #@! TO.C,J9*
X-13316200Y47183800D03*
X-19916200Y47183800D03*
G04 #@! TD*
D38*
G04 #@! TO.C,U15*
X-58369200Y24701800D03*
D39*
X-59769200Y23951800D03*
X-59769200Y24451800D03*
X-59769200Y24951800D03*
X-59769200Y25451800D03*
X-56969200Y25451800D03*
X-56969200Y24951800D03*
X-56969200Y24451800D03*
X-56969200Y23951800D03*
G04 #@! TD*
D25*
G04 #@! TO.C,C40*
X-56630200Y27368800D03*
X-58330200Y27368800D03*
G04 #@! TD*
D12*
G04 #@! TO.C,R46*
X-54432200Y28042800D03*
X-54432200Y29742800D03*
G04 #@! TD*
D25*
G04 #@! TO.C,R44*
X-58408200Y22034800D03*
X-60108200Y22034800D03*
G04 #@! TD*
G04 #@! TO.C,R43*
X-54266200Y24447800D03*
X-52566200Y24447800D03*
G04 #@! TD*
D43*
G04 #@! TO.C,U4*
X-12380000Y33519400D03*
X-10480000Y33519400D03*
X-10480000Y30819400D03*
X-11430000Y30819400D03*
X-12380000Y30819400D03*
G04 #@! TD*
D25*
G04 #@! TO.C,L3*
X18098400Y23304800D03*
X19798400Y23304800D03*
G04 #@! TD*
D46*
G04 #@! TO.C,F1*
X-11379200Y42143800D03*
X-11379200Y44343800D03*
G04 #@! TD*
D12*
G04 #@! TO.C,R7*
X-32715200Y22122800D03*
X-32715200Y20422800D03*
G04 #@! TD*
D42*
G04 #@! TO.C,SW1*
X-12232000Y14525800D03*
X-7072000Y14525800D03*
X-7072000Y12525800D03*
X-12232000Y12525800D03*
G04 #@! TD*
D44*
G04 #@! TO.C,BT1*
X-1303600Y38443200D03*
D45*
X-8753600Y38443200D03*
G04 #@! TD*
D25*
G04 #@! TO.C,C2*
X291200Y17462800D03*
X-1408800Y17462800D03*
G04 #@! TD*
D12*
G04 #@! TO.C,C10*
X-9601200Y45949800D03*
X-9601200Y47649800D03*
G04 #@! TD*
G04 #@! TO.C,C22*
X10541000Y19659000D03*
X10541000Y17959000D03*
G04 #@! TD*
D55*
G04 #@! TO.C,U13*
X10135600Y47255900D03*
X13435600Y47255900D03*
X13435600Y42355900D03*
X10135600Y42355900D03*
G04 #@! TD*
D25*
G04 #@! TO.C,C4*
X-23557600Y40119600D03*
X-21857600Y40119600D03*
G04 #@! TD*
G04 #@! TO.C,C21*
X-38215200Y39560800D03*
X-39915200Y39560800D03*
G04 #@! TD*
D12*
G04 #@! TO.C,C33*
X-31006002Y12784778D03*
X-31006002Y14484778D03*
G04 #@! TD*
D25*
G04 #@! TO.C,C20*
X-56933200Y37020800D03*
X-55233200Y37020800D03*
G04 #@! TD*
D13*
G04 #@! TO.C,J8*
X-7745500Y36052600D03*
X-2795500Y36052600D03*
D14*
X-5895500Y39402600D03*
X-4645500Y39402600D03*
G04 #@! TD*
D42*
G04 #@! TO.C,SW2*
X-2741300Y45799800D03*
X-7901300Y45799800D03*
X-7901300Y47799800D03*
X-2741300Y47799800D03*
G04 #@! TD*
D51*
G04 #@! TO.C,J4*
X-5156200Y29019800D03*
G04 #@! TD*
D49*
G04 #@! TO.C,U5*
X-40183200Y19367800D03*
X-40183200Y20637800D03*
X-40183200Y21907800D03*
X-40183200Y23177800D03*
X-46583200Y23177800D03*
X-46583200Y21907800D03*
X-46583200Y20637800D03*
X-46583200Y19367800D03*
G04 #@! TD*
D17*
G04 #@! TO.C,U9*
X-39700200Y37434800D03*
X-40970200Y37434800D03*
X-42240200Y37434800D03*
X-43510200Y37434800D03*
X-43510200Y32034800D03*
X-42240200Y32034800D03*
X-40970200Y32034800D03*
X-39700200Y32034800D03*
G04 #@! TD*
D12*
G04 #@! TO.C,C18*
X-49860200Y18898800D03*
X-49860200Y20598800D03*
G04 #@! TD*
D13*
G04 #@! TO.C,J5*
X1014800Y23174800D03*
X7214800Y23174800D03*
D14*
X2864800Y26524800D03*
X4114800Y26524800D03*
X5364800Y26524800D03*
G04 #@! TD*
D25*
G04 #@! TO.C,C3*
X-27394800Y37884400D03*
X-29094800Y37884400D03*
G04 #@! TD*
D12*
G04 #@! TO.C,C34*
X-29355002Y12784778D03*
X-29355002Y14484778D03*
G04 #@! TD*
D25*
G04 #@! TO.C,C15*
X-30441000Y25717800D03*
X-28741000Y25717800D03*
G04 #@! TD*
D12*
G04 #@! TO.C,C7*
X-32512000Y38734400D03*
X-32512000Y37034400D03*
G04 #@! TD*
D25*
G04 #@! TO.C,C12*
X-54674553Y42685141D03*
X-52974553Y42685141D03*
G04 #@! TD*
G04 #@! TO.C,C19*
X-58535200Y33972800D03*
X-60235200Y33972800D03*
G04 #@! TD*
D52*
G04 #@! TO.C,J16*
X-16586200Y45901800D03*
D53*
X-17886200Y44001800D03*
X-17236200Y44001800D03*
X-15936200Y44001800D03*
X-16586200Y44001800D03*
D54*
X-19386200Y43751800D03*
X-13786200Y43751800D03*
D53*
X-15286200Y44001800D03*
G04 #@! TD*
D25*
G04 #@! TO.C,C1*
X-32549200Y40221200D03*
X-30849200Y40221200D03*
G04 #@! TD*
G04 #@! TO.C,C39*
X-58496200Y30543800D03*
X-60196200Y30543800D03*
G04 #@! TD*
G04 #@! TO.C,C5*
X-30466400Y28918200D03*
X-28766400Y28918200D03*
G04 #@! TD*
D12*
G04 #@! TO.C,R45*
X-52908200Y29742800D03*
X-52908200Y28042800D03*
G04 #@! TD*
G04 #@! TO.C,C11*
X-10109200Y37083400D03*
X-10109200Y35383400D03*
G04 #@! TD*
D25*
G04 #@! TO.C,R42*
X-58408200Y29019800D03*
X-60108200Y29019800D03*
G04 #@! TD*
D13*
G04 #@! TO.C,J6*
X-45491400Y43497800D03*
X-36791400Y43497800D03*
D14*
X-43641400Y46847800D03*
X-42391400Y46847800D03*
X-41141400Y46847800D03*
X-39891400Y46847800D03*
X-38641400Y46847800D03*
G04 #@! TD*
D12*
G04 #@! TO.C,C16*
X-27704002Y12784778D03*
X-27704002Y14484778D03*
G04 #@! TD*
D25*
G04 #@! TO.C,C27*
X10630800Y34734800D03*
X12330800Y34734800D03*
G04 #@! TD*
G04 #@! TO.C,C28*
X10642600Y36401040D03*
X12342600Y36401040D03*
G04 #@! TD*
G04 #@! TO.C,C36*
X15202800Y32448800D03*
X16902800Y32448800D03*
G04 #@! TD*
D47*
G04 #@! TO.C,J11*
X24229600Y39408400D03*
D48*
X25754600Y37933400D03*
D47*
X27279600Y39408400D03*
D48*
X25754600Y40883400D03*
G04 #@! TD*
D50*
G04 #@! TO.C,M1*
X27087800Y13559800D03*
G04 #@! TD*
D25*
G04 #@! TO.C,C13*
X240400Y19012200D03*
X-1459600Y19012200D03*
G04 #@! TD*
D48*
G04 #@! TO.C,J15*
X-2489200Y28335800D03*
D47*
X-964200Y26860800D03*
D48*
X-2489200Y25385800D03*
D47*
X-4014200Y26860800D03*
G04 #@! TD*
D50*
G04 #@! TO.C,M3*
X-71642200Y13559800D03*
G04 #@! TD*
G04 #@! TO.C,M4*
X27087800Y46789800D03*
G04 #@! TD*
G04 #@! TO.C,M6*
X-71642200Y46789800D03*
G04 #@! TD*
D25*
G04 #@! TO.C,R29*
X16902800Y29400800D03*
X15202800Y29400800D03*
G04 #@! TD*
G04 #@! TO.C,R38*
X16902800Y30924800D03*
X15202800Y30924800D03*
G04 #@! TD*
D24*
G04 #@! TO.C,U11*
X15003800Y37884400D03*
X15003800Y36614400D03*
X15003800Y35344400D03*
X15003800Y34074400D03*
X20403800Y34074400D03*
X20403800Y35344400D03*
X20403800Y36614400D03*
X20403800Y37884400D03*
G04 #@! TD*
D25*
G04 #@! TO.C,R20*
X-58465530Y32448800D03*
X-60165530Y32448800D03*
G04 #@! TD*
D12*
G04 #@! TO.C,R28*
X-56845200Y31686800D03*
X-56845200Y29986800D03*
G04 #@! TD*
D25*
G04 #@! TO.C,R40*
X16521800Y12636800D03*
X14821800Y12636800D03*
G04 #@! TD*
G04 #@! TO.C,R41*
X14782800Y14160800D03*
X16482800Y14160800D03*
G04 #@! TD*
D12*
G04 #@! TO.C,C37*
X-711200Y47522800D03*
X-711200Y45822800D03*
G04 #@! TD*
D25*
G04 #@! TO.C,C38*
X-4179200Y16446800D03*
X-5879200Y16446800D03*
G04 #@! TD*
D12*
G04 #@! TO.C,R19*
X-42240200Y14375800D03*
X-42240200Y12675800D03*
G04 #@! TD*
D28*
G04 #@! TO.C,C9*
X-15451759Y31449641D03*
D29*
G36*
X-15416404Y32192103D02*
X-14709297Y31484996D01*
X-15487114Y30707179D01*
X-16194221Y31414286D01*
X-15416404Y32192103D01*
X-15416404Y32192103D01*
G37*
D28*
X-16653841Y30247559D03*
D29*
G36*
X-16618486Y30990021D02*
X-15911379Y30282914D01*
X-16689196Y29505097D01*
X-17396303Y30212204D01*
X-16618486Y30990021D01*
X-16618486Y30990021D01*
G37*
G04 #@! TD*
D12*
G04 #@! TO.C,C32*
X14020800Y23392800D03*
X14020800Y21692800D03*
G04 #@! TD*
G04 #@! TO.C,C35*
X12496800Y23392800D03*
X12496800Y21692800D03*
G04 #@! TD*
D25*
G04 #@! TO.C,R15*
X-32715200Y23762000D03*
X-34415200Y23762000D03*
G04 #@! TD*
G04 #@! TO.C,R16*
X-32285200Y25565400D03*
X-33985200Y25565400D03*
G04 #@! TD*
G04 #@! TO.C,C8*
X-30466400Y27419600D03*
X-28766400Y27419600D03*
G04 #@! TD*
G04 #@! TO.C,R18*
X-22721200Y14414800D03*
X-24421200Y14414800D03*
G04 #@! TD*
G04 #@! TO.C,C6*
X-15914000Y36360400D03*
X-17614000Y36360400D03*
G04 #@! TD*
D12*
G04 #@! TO.C,D3*
X-45508730Y12754370D03*
X-45508730Y14454370D03*
G04 #@! TD*
G04 #@! TO.C,L2*
X-11379200Y45949800D03*
X-11379200Y47649800D03*
G04 #@! TD*
D25*
G04 #@! TO.C,C24*
X12167500Y19634500D03*
X13867500Y19634500D03*
G04 #@! TD*
D12*
G04 #@! TO.C,D1*
X15570200Y47043400D03*
X15570200Y45343400D03*
G04 #@! TD*
G04 #@! TO.C,D2*
X-49174400Y12774200D03*
X-49174400Y14474200D03*
G04 #@! TD*
D32*
G04 #@! TO.C,D7*
X-52908200Y45007200D03*
D33*
X-52908200Y45682200D03*
D34*
X-53558200Y46732200D03*
X-52258200Y46732200D03*
G04 #@! TD*
D27*
G04 #@! TO.C,M8*
X-65227200Y13144800D03*
G04 #@! TD*
G04 #@! TO.C,M2*
X16052800Y16954800D03*
G04 #@! TD*
D30*
G04 #@! TO.C,D8*
X-15517200Y40074800D03*
X-15517200Y38174800D03*
X-17517200Y38174800D03*
D31*
X-17517200Y39874800D03*
G04 #@! TD*
D25*
G04 #@! TO.C,D9*
X-47689400Y47260200D03*
X-49389400Y47260200D03*
G04 #@! TD*
G04 #@! TO.C,D10*
X-47689400Y44009000D03*
X-49389400Y44009000D03*
G04 #@! TD*
D12*
G04 #@! TO.C,D11*
X1595600Y47014800D03*
X1595600Y45314800D03*
G04 #@! TD*
G04 #@! TO.C,L1*
X-30937200Y38785200D03*
X-30937200Y37085200D03*
G04 #@! TD*
D26*
G04 #@! TO.C,Q1*
X16586200Y43551800D03*
X17536200Y41251800D03*
X15636200Y41251800D03*
G04 #@! TD*
D27*
G04 #@! TO.C,M5*
X19862800Y47434800D03*
G04 #@! TD*
D25*
G04 #@! TO.C,R1*
X-55487200Y13144800D03*
X-57187200Y13144800D03*
G04 #@! TD*
D12*
G04 #@! TO.C,R2*
X-37871400Y12774200D03*
X-37871400Y14474200D03*
G04 #@! TD*
G04 #@! TO.C,R3*
X17602200Y45343400D03*
X17602200Y47043400D03*
G04 #@! TD*
G04 #@! TO.C,R4*
X-51003200Y12774200D03*
X-51003200Y14474200D03*
G04 #@! TD*
D25*
G04 #@! TO.C,R8*
X-3974200Y13068600D03*
X-2274200Y13068600D03*
G04 #@! TD*
D12*
G04 #@! TO.C,R6*
X-25222200Y20852800D03*
X-25222200Y19152800D03*
G04 #@! TD*
D25*
G04 #@! TO.C,R17*
X-5295000Y42608800D03*
X-3595000Y42608800D03*
G04 #@! TD*
D12*
G04 #@! TO.C,R25*
X-59260153Y45492741D03*
X-59260153Y47192741D03*
G04 #@! TD*
D25*
G04 #@! TO.C,R33*
X-47689400Y42383400D03*
X-49389400Y42383400D03*
G04 #@! TD*
G04 #@! TO.C,R32*
X-47689400Y45634600D03*
X-49389400Y45634600D03*
G04 #@! TD*
D12*
G04 #@! TO.C,R34*
X-61038153Y47192741D03*
X-61038153Y45492741D03*
G04 #@! TD*
G04 #@! TO.C,C30*
X-37795200Y32741800D03*
X-37795200Y34441800D03*
G04 #@! TD*
D25*
G04 #@! TO.C,R37*
X12180200Y18008900D03*
X13880200Y18008900D03*
G04 #@! TD*
D35*
G04 #@! TO.C,J13*
X568800Y36074800D03*
X8168800Y36074800D03*
D36*
X1868800Y38599800D03*
X2868800Y38599800D03*
X3868800Y38599800D03*
X4868800Y38599800D03*
X5868800Y38599800D03*
X6868800Y38599800D03*
G04 #@! TD*
D12*
G04 #@! TO.C,R11*
X-56083200Y33630800D03*
X-56083200Y35330800D03*
G04 #@! TD*
G04 #@! TO.C,R14*
X-34239200Y34353800D03*
X-34239200Y36053800D03*
G04 #@! TD*
G04 #@! TO.C,C17*
X-26053002Y12784778D03*
X-26053002Y14484778D03*
G04 #@! TD*
G04 #@! TO.C,R5*
X-47345600Y12723400D03*
X-47345600Y14423400D03*
G04 #@! TD*
G04 #@! TO.C,R22*
X-55754953Y45492741D03*
X-55754953Y47192741D03*
G04 #@! TD*
D25*
G04 #@! TO.C,R36*
X-12153000Y28943600D03*
X-10453000Y28943600D03*
G04 #@! TD*
D12*
G04 #@! TO.C,C25*
X-50495200Y34060800D03*
X-50495200Y32360800D03*
G04 #@! TD*
D25*
G04 #@! TO.C,R35*
X-12178400Y27394200D03*
X-10478400Y27394200D03*
G04 #@! TD*
D12*
G04 #@! TO.C,C26*
X-51257200Y36170800D03*
X-51257200Y37870800D03*
G04 #@! TD*
D37*
G04 #@! TO.C,Y2*
X4038600Y17112600D03*
X4038600Y14612600D03*
G04 #@! TD*
D24*
G04 #@! TO.C,U7*
X6926600Y16446800D03*
X6926600Y15176800D03*
X6926600Y13906800D03*
X6926600Y12636800D03*
X12326600Y12636800D03*
X12326600Y13906800D03*
X12326600Y15176800D03*
X12326600Y16446800D03*
G04 #@! TD*
D12*
G04 #@! TO.C,R24*
X-57532953Y45492741D03*
X-57532953Y47192741D03*
G04 #@! TD*
D25*
G04 #@! TO.C,R10*
X-7455800Y42608800D03*
X-9155800Y42608800D03*
G04 #@! TD*
G04 #@! TO.C,R13*
X-37338000Y37732000D03*
X-35638000Y37732000D03*
G04 #@! TD*
D18*
G04 #@! TO.C,J7*
X-12903200Y19272800D03*
X-12903200Y23272800D03*
X-11633200Y19272800D03*
X-11633200Y23272800D03*
X-10363200Y19272800D03*
X-10363200Y23272800D03*
X-9093200Y19272800D03*
X-9093200Y23272800D03*
X-7823200Y19272800D03*
X-7823200Y23272800D03*
G04 #@! TD*
D25*
G04 #@! TO.C,R21*
X-54674553Y41008741D03*
X-52974553Y41008741D03*
G04 #@! TD*
D12*
G04 #@! TO.C,R39*
X3322800Y47014800D03*
X3322800Y45314800D03*
G04 #@! TD*
D17*
G04 #@! TO.C,U8*
X-45034200Y37434800D03*
X-46304200Y37434800D03*
X-47574200Y37434800D03*
X-48844200Y37434800D03*
X-48844200Y32034800D03*
X-47574200Y32034800D03*
X-46304200Y32034800D03*
X-45034200Y32034800D03*
G04 #@! TD*
D12*
G04 #@! TO.C,R12*
X-52908200Y33630800D03*
X-52908200Y35330800D03*
G04 #@! TD*
D17*
G04 #@! TO.C,U12*
X-26936700Y23177800D03*
X-28206700Y23177800D03*
X-29476700Y23177800D03*
X-30746700Y23177800D03*
X-30746700Y17777800D03*
X-29476700Y17777800D03*
X-28206700Y17777800D03*
X-26936700Y17777800D03*
G04 #@! TD*
D12*
G04 #@! TO.C,C23*
X-54432200Y33630800D03*
X-54432200Y35330800D03*
G04 #@! TD*
D25*
G04 #@! TO.C,R9*
X-3974200Y14846600D03*
X-2274200Y14846600D03*
G04 #@! TD*
D20*
G04 #@! TO.C,U6*
X-59311283Y41719933D03*
D21*
X-58811283Y41719933D03*
X-58311283Y41719933D03*
X-57811283Y41719933D03*
D22*
X-57086283Y40994933D03*
X-57086283Y40494933D03*
X-57086283Y39994933D03*
X-57086283Y39494933D03*
D21*
X-57811283Y38769933D03*
D20*
X-58311283Y38769933D03*
D21*
X-58811283Y38769933D03*
X-59311283Y38769933D03*
D22*
X-60036283Y39494933D03*
X-60036283Y39994933D03*
X-60036283Y40494933D03*
X-60036283Y40994933D03*
D23*
X-58936283Y39869933D03*
X-58936283Y40619933D03*
X-58186283Y40619933D03*
X-58186283Y39869933D03*
G04 #@! TD*
D12*
G04 #@! TO.C,C29*
X-35636200Y36092800D03*
X-35636200Y34392800D03*
G04 #@! TD*
G04 #@! TO.C,C31*
X10972800Y21692800D03*
X10972800Y23392800D03*
G04 #@! TD*
D19*
G04 #@! TO.C,Y1*
X-25216801Y39967200D03*
X-27716799Y39967200D03*
G04 #@! TD*
D11*
G04 #@! TO.C,REF\002A\002A*
X4411400Y-72589400D03*
X3211400Y-72589400D03*
X2011400Y-72589400D03*
X2011400Y-69589400D03*
X3211400Y-69589400D03*
X4411400Y-69589400D03*
G04 #@! TD*
G04 #@! TO.C,REF\002A\002A*
X-63588600Y-69589400D03*
X-64788600Y-69589400D03*
X-65988600Y-69589400D03*
X-65988600Y-72589400D03*
X-64788600Y-72589400D03*
X-63588600Y-72589400D03*
G04 #@! TD*
G04 #@! TO.C,REF\002A\002A*
X-76788600Y-45889400D03*
X-76788600Y-47089400D03*
X-76788600Y-48289400D03*
X-73788600Y-48289400D03*
X-73788600Y-47089400D03*
X-73788600Y-45889400D03*
G04 #@! TD*
G04 #@! TO.C,REF\002A\002A*
X29211400Y-62789400D03*
X29211400Y-61589400D03*
X29211400Y-60389400D03*
X32211400Y-60389400D03*
X32211400Y-61589400D03*
X32211400Y-62789400D03*
G04 #@! TD*
G04 #@! TO.C,REF\002A\002A*
X32211400Y-39289400D03*
X32211400Y-38089400D03*
X32211400Y-36889400D03*
X29211400Y-36889400D03*
X29211400Y-38089400D03*
X29211400Y-39289400D03*
G04 #@! TD*
G04 #@! TO.C,REF\002A\002A*
X-73788600Y-5389400D03*
X-73788600Y-6589400D03*
X-73788600Y-7789400D03*
X-76788600Y-7789400D03*
X-76788600Y-6589400D03*
X-76788600Y-5389400D03*
G04 #@! TD*
G04 #@! TO.C,REF\002A\002A*
X32211400Y-22289400D03*
X32211400Y-21089400D03*
X32211400Y-19889400D03*
X29211400Y-19889400D03*
X29211400Y-21089400D03*
X29211400Y-22289400D03*
G04 #@! TD*
G04 #@! TO.C,REF\002A\002A*
X29211400Y1210600D03*
X29211400Y2410600D03*
X29211400Y3610600D03*
X32211400Y3610600D03*
X32211400Y2410600D03*
X32211400Y1210600D03*
G04 #@! TD*
G04 #@! TO.C,REF\002A\002A*
X-76788600Y35110600D03*
X-76788600Y33910600D03*
X-76788600Y32710600D03*
X-73788600Y32710600D03*
X-73788600Y33910600D03*
X-73788600Y35110600D03*
G04 #@! TD*
G04 #@! TO.C,REF\002A\002A*
X-63588600Y48910600D03*
X-64788600Y48910600D03*
X-65988600Y48910600D03*
X-65988600Y51910600D03*
X-64788600Y51910600D03*
X-63588600Y51910600D03*
G04 #@! TD*
G04 #@! TO.C,REF\002A\002A*
X32211400Y41710600D03*
X32211400Y42910600D03*
X32211400Y44110600D03*
X29211400Y44110600D03*
X29211400Y42910600D03*
X29211400Y41710600D03*
G04 #@! TD*
G04 #@! TO.C,REF\002A\002A*
X29211400Y18210600D03*
X29211400Y19410600D03*
X29211400Y20610600D03*
X32211400Y20610600D03*
X32211400Y19410600D03*
X32211400Y18210600D03*
G04 #@! TD*
G04 #@! TO.C,REF\002A\002A*
X4411400Y51910600D03*
X3211400Y51910600D03*
X2011400Y51910600D03*
X2011400Y48910600D03*
X3211400Y48910600D03*
X4411400Y48910600D03*
G04 #@! TD*
D50*
G04 #@! TO.C,REF\002A\002A*
X35211400Y90410600D03*
G04 #@! TD*
D11*
G04 #@! TO.C,REF\002A\002A*
X29211400Y82210600D03*
X29211400Y83410600D03*
X29211400Y84610600D03*
X32211400Y84610600D03*
X32211400Y83410600D03*
X32211400Y82210600D03*
G04 #@! TD*
G04 #@! TO.C,REF\002A\002A*
X32211400Y58710600D03*
X32211400Y59910600D03*
X32211400Y61110600D03*
X29211400Y61110600D03*
X29211400Y59910600D03*
X29211400Y58710600D03*
G04 #@! TD*
G04 #@! TO.C,REF\002A\002A*
X-73788600Y75610600D03*
X-73788600Y74410600D03*
X-73788600Y73210600D03*
X-76788600Y73210600D03*
X-76788600Y74410600D03*
X-76788600Y75610600D03*
G04 #@! TD*
G04 #@! TO.C,REF\002A\002A*
X-63588600Y92410600D03*
X-64788600Y92410600D03*
X-65988600Y92410600D03*
X-65988600Y89410600D03*
X-64788600Y89410600D03*
X-63588600Y89410600D03*
G04 #@! TD*
D25*
G04 #@! TO.C,C38*
X-5879200Y56946800D03*
X-4179200Y56946800D03*
G04 #@! TD*
D12*
G04 #@! TO.C,C37*
X-711200Y86322800D03*
X-711200Y88022800D03*
G04 #@! TD*
D25*
G04 #@! TO.C,R41*
X16482800Y54660800D03*
X14782800Y54660800D03*
G04 #@! TD*
G04 #@! TO.C,R40*
X14821800Y53136800D03*
X16521800Y53136800D03*
G04 #@! TD*
D12*
G04 #@! TO.C,R28*
X-56845200Y70486800D03*
X-56845200Y72186800D03*
G04 #@! TD*
D25*
G04 #@! TO.C,R20*
X-60165530Y72948800D03*
X-58465530Y72948800D03*
G04 #@! TD*
D24*
G04 #@! TO.C,U11*
X20403800Y78384400D03*
X20403800Y77114400D03*
X20403800Y75844400D03*
X20403800Y74574400D03*
X15003800Y74574400D03*
X15003800Y75844400D03*
X15003800Y77114400D03*
X15003800Y78384400D03*
G04 #@! TD*
D25*
G04 #@! TO.C,R38*
X15202800Y71424800D03*
X16902800Y71424800D03*
G04 #@! TD*
G04 #@! TO.C,R29*
X15202800Y69900800D03*
X16902800Y69900800D03*
G04 #@! TD*
D50*
G04 #@! TO.C,M6*
X-71642200Y87289800D03*
G04 #@! TD*
G04 #@! TO.C,M4*
X27087800Y87289800D03*
G04 #@! TD*
G04 #@! TO.C,M3*
X-71642200Y54059800D03*
G04 #@! TD*
G04 #@! TO.C,M1*
X27087800Y54059800D03*
G04 #@! TD*
D47*
G04 #@! TO.C,J15*
X-4014200Y67360800D03*
D48*
X-2489200Y65885800D03*
D47*
X-964200Y67360800D03*
D48*
X-2489200Y68835800D03*
G04 #@! TD*
G04 #@! TO.C,J11*
X25754600Y81383400D03*
D47*
X27279600Y79908400D03*
D48*
X25754600Y78433400D03*
D47*
X24229600Y79908400D03*
G04 #@! TD*
D25*
G04 #@! TO.C,C36*
X16902800Y72948800D03*
X15202800Y72948800D03*
G04 #@! TD*
G04 #@! TO.C,C28*
X12342600Y76901040D03*
X10642600Y76901040D03*
G04 #@! TD*
G04 #@! TO.C,C27*
X12330800Y75234800D03*
X10630800Y75234800D03*
G04 #@! TD*
G04 #@! TO.C,C13*
X-1459600Y59512200D03*
X240400Y59512200D03*
G04 #@! TD*
D28*
G04 #@! TO.C,C9*
X-16653841Y70747559D03*
D29*
G36*
X-16618486Y71490021D02*
X-15911379Y70782914D01*
X-16689196Y70005097D01*
X-17396303Y70712204D01*
X-16618486Y71490021D01*
X-16618486Y71490021D01*
G37*
D28*
X-15451759Y71949641D03*
D29*
G36*
X-15416404Y72692103D02*
X-14709297Y71984996D01*
X-15487114Y71207179D01*
X-16194221Y71914286D01*
X-15416404Y72692103D01*
X-15416404Y72692103D01*
G37*
G04 #@! TD*
D25*
G04 #@! TO.C,C8*
X-28766400Y67919600D03*
X-30466400Y67919600D03*
G04 #@! TD*
G04 #@! TO.C,C6*
X-17614000Y76860400D03*
X-15914000Y76860400D03*
G04 #@! TD*
D12*
G04 #@! TO.C,R19*
X-42240200Y53175800D03*
X-42240200Y54875800D03*
G04 #@! TD*
D25*
G04 #@! TO.C,R18*
X-24421200Y54914800D03*
X-22721200Y54914800D03*
G04 #@! TD*
G04 #@! TO.C,R16*
X-33985200Y66065400D03*
X-32285200Y66065400D03*
G04 #@! TD*
G04 #@! TO.C,R15*
X-34415200Y64262000D03*
X-32715200Y64262000D03*
G04 #@! TD*
D12*
G04 #@! TO.C,C35*
X12496800Y62192800D03*
X12496800Y63892800D03*
G04 #@! TD*
G04 #@! TO.C,C32*
X14020800Y62192800D03*
X14020800Y63892800D03*
G04 #@! TD*
G04 #@! TO.C,C31*
X10972800Y63892800D03*
X10972800Y62192800D03*
G04 #@! TD*
D18*
G04 #@! TO.C,J7*
X-7823200Y63772800D03*
X-7823200Y59772800D03*
X-9093200Y63772800D03*
X-9093200Y59772800D03*
X-10363200Y63772800D03*
X-10363200Y59772800D03*
X-11633200Y63772800D03*
X-11633200Y59772800D03*
X-12903200Y63772800D03*
X-12903200Y59772800D03*
G04 #@! TD*
D12*
G04 #@! TO.C,R14*
X-34239200Y76553800D03*
X-34239200Y74853800D03*
G04 #@! TD*
D25*
G04 #@! TO.C,R13*
X-35638000Y78232000D03*
X-37338000Y78232000D03*
G04 #@! TD*
D12*
G04 #@! TO.C,C30*
X-37795200Y74941800D03*
X-37795200Y73241800D03*
G04 #@! TD*
G04 #@! TO.C,C29*
X-35636200Y74892800D03*
X-35636200Y76592800D03*
G04 #@! TD*
G04 #@! TO.C,C26*
X-51257200Y78370800D03*
X-51257200Y76670800D03*
G04 #@! TD*
D17*
G04 #@! TO.C,U8*
X-45034200Y72534800D03*
X-46304200Y72534800D03*
X-47574200Y72534800D03*
X-48844200Y72534800D03*
X-48844200Y77934800D03*
X-47574200Y77934800D03*
X-46304200Y77934800D03*
X-45034200Y77934800D03*
G04 #@! TD*
D12*
G04 #@! TO.C,R12*
X-52908200Y75830800D03*
X-52908200Y74130800D03*
G04 #@! TD*
G04 #@! TO.C,R11*
X-56083200Y75830800D03*
X-56083200Y74130800D03*
G04 #@! TD*
G04 #@! TO.C,C25*
X-50495200Y72860800D03*
X-50495200Y74560800D03*
G04 #@! TD*
G04 #@! TO.C,C23*
X-54432200Y75830800D03*
X-54432200Y74130800D03*
G04 #@! TD*
D36*
G04 #@! TO.C,J13*
X6868800Y79099800D03*
X5868800Y79099800D03*
X4868800Y79099800D03*
X3868800Y79099800D03*
X2868800Y79099800D03*
X1868800Y79099800D03*
D35*
X8168800Y76574800D03*
X568800Y76574800D03*
G04 #@! TD*
D12*
G04 #@! TO.C,C17*
X-26053002Y54984778D03*
X-26053002Y53284778D03*
G04 #@! TD*
D37*
G04 #@! TO.C,Y2*
X4038600Y55112600D03*
X4038600Y57612600D03*
G04 #@! TD*
D19*
G04 #@! TO.C,Y1*
X-27716799Y80467200D03*
X-25216801Y80467200D03*
G04 #@! TD*
D17*
G04 #@! TO.C,U12*
X-26936700Y58277800D03*
X-28206700Y58277800D03*
X-29476700Y58277800D03*
X-30746700Y58277800D03*
X-30746700Y63677800D03*
X-29476700Y63677800D03*
X-28206700Y63677800D03*
X-26936700Y63677800D03*
G04 #@! TD*
D24*
G04 #@! TO.C,U7*
X12326600Y56946800D03*
X12326600Y55676800D03*
X12326600Y54406800D03*
X12326600Y53136800D03*
X6926600Y53136800D03*
X6926600Y54406800D03*
X6926600Y55676800D03*
X6926600Y56946800D03*
G04 #@! TD*
D23*
G04 #@! TO.C,U6*
X-58186283Y80369933D03*
X-58186283Y81119933D03*
X-58936283Y81119933D03*
X-58936283Y80369933D03*
D22*
X-60036283Y81494933D03*
X-60036283Y80994933D03*
X-60036283Y80494933D03*
X-60036283Y79994933D03*
D21*
X-59311283Y79269933D03*
X-58811283Y79269933D03*
D20*
X-58311283Y79269933D03*
D21*
X-57811283Y79269933D03*
D22*
X-57086283Y79994933D03*
X-57086283Y80494933D03*
X-57086283Y80994933D03*
X-57086283Y81494933D03*
D21*
X-57811283Y82219933D03*
X-58311283Y82219933D03*
X-58811283Y82219933D03*
D20*
X-59311283Y82219933D03*
G04 #@! TD*
D12*
G04 #@! TO.C,R39*
X3322800Y85814800D03*
X3322800Y87514800D03*
G04 #@! TD*
D25*
G04 #@! TO.C,R37*
X13880200Y58508900D03*
X12180200Y58508900D03*
G04 #@! TD*
G04 #@! TO.C,R36*
X-10453000Y69443600D03*
X-12153000Y69443600D03*
G04 #@! TD*
G04 #@! TO.C,R35*
X-10478400Y67894200D03*
X-12178400Y67894200D03*
G04 #@! TD*
D12*
G04 #@! TO.C,R34*
X-61038153Y85992741D03*
X-61038153Y87692741D03*
G04 #@! TD*
D25*
G04 #@! TO.C,R33*
X-49389400Y82883400D03*
X-47689400Y82883400D03*
G04 #@! TD*
G04 #@! TO.C,R32*
X-49389400Y86134600D03*
X-47689400Y86134600D03*
G04 #@! TD*
D12*
G04 #@! TO.C,R25*
X-59260153Y87692741D03*
X-59260153Y85992741D03*
G04 #@! TD*
G04 #@! TO.C,R24*
X-57532953Y87692741D03*
X-57532953Y85992741D03*
G04 #@! TD*
G04 #@! TO.C,R22*
X-55754953Y87692741D03*
X-55754953Y85992741D03*
G04 #@! TD*
D25*
G04 #@! TO.C,R21*
X-52974553Y81508741D03*
X-54674553Y81508741D03*
G04 #@! TD*
G04 #@! TO.C,R17*
X-3595000Y83108800D03*
X-5295000Y83108800D03*
G04 #@! TD*
G04 #@! TO.C,R10*
X-9155800Y83108800D03*
X-7455800Y83108800D03*
G04 #@! TD*
G04 #@! TO.C,R9*
X-2274200Y55346600D03*
X-3974200Y55346600D03*
G04 #@! TD*
G04 #@! TO.C,R8*
X-2274200Y53568600D03*
X-3974200Y53568600D03*
G04 #@! TD*
D12*
G04 #@! TO.C,R6*
X-25222200Y59652800D03*
X-25222200Y61352800D03*
G04 #@! TD*
G04 #@! TO.C,R5*
X-47345600Y54923400D03*
X-47345600Y53223400D03*
G04 #@! TD*
G04 #@! TO.C,R4*
X-51003200Y54974200D03*
X-51003200Y53274200D03*
G04 #@! TD*
G04 #@! TO.C,R3*
X17602200Y87543400D03*
X17602200Y85843400D03*
G04 #@! TD*
G04 #@! TO.C,R2*
X-37871400Y54974200D03*
X-37871400Y53274200D03*
G04 #@! TD*
D25*
G04 #@! TO.C,R1*
X-57187200Y53644800D03*
X-55487200Y53644800D03*
G04 #@! TD*
D26*
G04 #@! TO.C,Q1*
X15636200Y81751800D03*
X17536200Y81751800D03*
X16586200Y84051800D03*
G04 #@! TD*
D27*
G04 #@! TO.C,M8*
X-65227200Y53644800D03*
G04 #@! TD*
G04 #@! TO.C,M5*
X19862800Y87934800D03*
G04 #@! TD*
G04 #@! TO.C,M2*
X16052800Y57454800D03*
G04 #@! TD*
D12*
G04 #@! TO.C,L2*
X-11379200Y88149800D03*
X-11379200Y86449800D03*
G04 #@! TD*
G04 #@! TO.C,L1*
X-30937200Y77585200D03*
X-30937200Y79285200D03*
G04 #@! TD*
G04 #@! TO.C,D11*
X1595600Y85814800D03*
X1595600Y87514800D03*
G04 #@! TD*
D25*
G04 #@! TO.C,D10*
X-49389400Y84509000D03*
X-47689400Y84509000D03*
G04 #@! TD*
G04 #@! TO.C,D9*
X-49389400Y87760200D03*
X-47689400Y87760200D03*
G04 #@! TD*
D31*
G04 #@! TO.C,D8*
X-17517200Y80374800D03*
D30*
X-17517200Y78674800D03*
X-15517200Y78674800D03*
X-15517200Y80574800D03*
G04 #@! TD*
D34*
G04 #@! TO.C,D7*
X-52258200Y87232200D03*
X-53558200Y87232200D03*
D33*
X-52908200Y86182200D03*
D32*
X-52908200Y85507200D03*
G04 #@! TD*
D12*
G04 #@! TO.C,D3*
X-45508730Y54954370D03*
X-45508730Y53254370D03*
G04 #@! TD*
G04 #@! TO.C,D2*
X-49174400Y54974200D03*
X-49174400Y53274200D03*
G04 #@! TD*
G04 #@! TO.C,D1*
X15570200Y85843400D03*
X15570200Y87543400D03*
G04 #@! TD*
D25*
G04 #@! TO.C,C24*
X13867500Y60134500D03*
X12167500Y60134500D03*
G04 #@! TD*
D12*
G04 #@! TO.C,C22*
X10541000Y58459000D03*
X10541000Y60159000D03*
G04 #@! TD*
D25*
G04 #@! TO.C,C21*
X-39915200Y80060800D03*
X-38215200Y80060800D03*
G04 #@! TD*
G04 #@! TO.C,C20*
X-55233200Y77520800D03*
X-56933200Y77520800D03*
G04 #@! TD*
G04 #@! TO.C,C19*
X-60235200Y74472800D03*
X-58535200Y74472800D03*
G04 #@! TD*
D12*
G04 #@! TO.C,C18*
X-49860200Y61098800D03*
X-49860200Y59398800D03*
G04 #@! TD*
D25*
G04 #@! TO.C,C15*
X-28741000Y66217800D03*
X-30441000Y66217800D03*
G04 #@! TD*
G04 #@! TO.C,C12*
X-52974553Y83185141D03*
X-54674553Y83185141D03*
G04 #@! TD*
D12*
G04 #@! TO.C,C11*
X-10109200Y75883400D03*
X-10109200Y77583400D03*
G04 #@! TD*
G04 #@! TO.C,C10*
X-9601200Y88149800D03*
X-9601200Y86449800D03*
G04 #@! TD*
G04 #@! TO.C,C7*
X-32512000Y77534400D03*
X-32512000Y79234400D03*
G04 #@! TD*
D25*
G04 #@! TO.C,C5*
X-28766400Y69418200D03*
X-30466400Y69418200D03*
G04 #@! TD*
G04 #@! TO.C,C4*
X-21857600Y80619600D03*
X-23557600Y80619600D03*
G04 #@! TD*
G04 #@! TO.C,C3*
X-29094800Y78384400D03*
X-27394800Y78384400D03*
G04 #@! TD*
G04 #@! TO.C,C2*
X-1408800Y57962800D03*
X291200Y57962800D03*
G04 #@! TD*
G04 #@! TO.C,C1*
X-30849200Y80721200D03*
X-32549200Y80721200D03*
G04 #@! TD*
D12*
G04 #@! TO.C,R7*
X-32715200Y60922800D03*
X-32715200Y62622800D03*
G04 #@! TD*
G04 #@! TO.C,C34*
X-29355002Y54984778D03*
X-29355002Y53284778D03*
G04 #@! TD*
G04 #@! TO.C,C33*
X-31006002Y54984778D03*
X-31006002Y53284778D03*
G04 #@! TD*
D55*
G04 #@! TO.C,U13*
X10135600Y82855900D03*
X13435600Y82855900D03*
X13435600Y87755900D03*
X10135600Y87755900D03*
G04 #@! TD*
D45*
G04 #@! TO.C,BT1*
X-8753600Y78943200D03*
D44*
X-1303600Y78943200D03*
G04 #@! TD*
D42*
G04 #@! TO.C,SW1*
X-12232000Y53025800D03*
X-7072000Y53025800D03*
X-7072000Y55025800D03*
X-12232000Y55025800D03*
G04 #@! TD*
G04 #@! TO.C,SW2*
X-2741300Y88299800D03*
X-7901300Y88299800D03*
X-7901300Y86299800D03*
X-2741300Y86299800D03*
G04 #@! TD*
D14*
G04 #@! TO.C,J5*
X5364800Y67024800D03*
X4114800Y67024800D03*
X2864800Y67024800D03*
D13*
X7214800Y63674800D03*
X1014800Y63674800D03*
G04 #@! TD*
D12*
G04 #@! TO.C,C16*
X-27704002Y54984778D03*
X-27704002Y53284778D03*
G04 #@! TD*
D46*
G04 #@! TO.C,F1*
X-11379200Y84843800D03*
X-11379200Y82643800D03*
G04 #@! TD*
D17*
G04 #@! TO.C,U9*
X-39700200Y72534800D03*
X-40970200Y72534800D03*
X-42240200Y72534800D03*
X-43510200Y72534800D03*
X-43510200Y77934800D03*
X-42240200Y77934800D03*
X-40970200Y77934800D03*
X-39700200Y77934800D03*
G04 #@! TD*
D49*
G04 #@! TO.C,U5*
X-46583200Y59867800D03*
X-46583200Y61137800D03*
X-46583200Y62407800D03*
X-46583200Y63677800D03*
X-40183200Y63677800D03*
X-40183200Y62407800D03*
X-40183200Y61137800D03*
X-40183200Y59867800D03*
G04 #@! TD*
D51*
G04 #@! TO.C,J4*
X-5156200Y69519800D03*
G04 #@! TD*
D25*
G04 #@! TO.C,L3*
X19798400Y63804800D03*
X18098400Y63804800D03*
G04 #@! TD*
D14*
G04 #@! TO.C,J8*
X-4645500Y79902600D03*
X-5895500Y79902600D03*
D13*
X-2795500Y76552600D03*
X-7745500Y76552600D03*
G04 #@! TD*
D14*
G04 #@! TO.C,J6*
X-38641400Y87347800D03*
X-39891400Y87347800D03*
X-41141400Y87347800D03*
X-42391400Y87347800D03*
X-43641400Y87347800D03*
D13*
X-36791400Y83997800D03*
X-45491400Y83997800D03*
G04 #@! TD*
D43*
G04 #@! TO.C,U4*
X-12380000Y71319400D03*
X-11430000Y71319400D03*
X-10480000Y71319400D03*
X-10480000Y74019400D03*
X-12380000Y74019400D03*
G04 #@! TD*
D25*
G04 #@! TO.C,R42*
X-60108200Y69519800D03*
X-58408200Y69519800D03*
G04 #@! TD*
G04 #@! TO.C,R43*
X-52566200Y64947800D03*
X-54266200Y64947800D03*
G04 #@! TD*
G04 #@! TO.C,R44*
X-60108200Y62534800D03*
X-58408200Y62534800D03*
G04 #@! TD*
D12*
G04 #@! TO.C,R45*
X-52908200Y68542800D03*
X-52908200Y70242800D03*
G04 #@! TD*
G04 #@! TO.C,R46*
X-54432200Y70242800D03*
X-54432200Y68542800D03*
G04 #@! TD*
D25*
G04 #@! TO.C,C40*
X-58330200Y67868800D03*
X-56630200Y67868800D03*
G04 #@! TD*
G04 #@! TO.C,C39*
X-60196200Y71043800D03*
X-58496200Y71043800D03*
G04 #@! TD*
D39*
G04 #@! TO.C,U15*
X-56969200Y64451800D03*
X-56969200Y64951800D03*
X-56969200Y65451800D03*
X-56969200Y65951800D03*
X-59769200Y65951800D03*
X-59769200Y65451800D03*
X-59769200Y64951800D03*
X-59769200Y64451800D03*
D38*
X-58369200Y65201800D03*
G04 #@! TD*
D53*
G04 #@! TO.C,J16*
X-15286200Y84501800D03*
D54*
X-13786200Y84251800D03*
X-19386200Y84251800D03*
D53*
X-16586200Y84501800D03*
X-15936200Y84501800D03*
X-17236200Y84501800D03*
X-17886200Y84501800D03*
D52*
X-16586200Y86401800D03*
G04 #@! TD*
D41*
G04 #@! TO.C,J9*
X-19916200Y87683800D03*
X-13316200Y87683800D03*
G04 #@! TD*
D16*
G04 #@! TO.C,J10*
X-67259200Y67328800D03*
X-67259200Y65328800D03*
D15*
X-65009200Y69728800D03*
X-65009200Y62928800D03*
G04 #@! TD*
D16*
G04 #@! TO.C,J3*
X-67640200Y78901800D03*
X-67640200Y76901800D03*
D15*
X-65390200Y81301800D03*
X-65390200Y74501800D03*
G04 #@! TD*
D14*
G04 #@! TO.C,J17*
X-23270200Y87319400D03*
X-24520200Y87319400D03*
X-25770200Y87319400D03*
X-27020200Y87319400D03*
X-28270200Y87319400D03*
X-29520200Y87319400D03*
X-30770200Y87319400D03*
X-32020200Y87319400D03*
X-33270200Y87319400D03*
D13*
X-21420200Y83969400D03*
X-35120200Y83969400D03*
G04 #@! TD*
D12*
G04 #@! TO.C,R47*
X-68529200Y85814800D03*
X-68529200Y87514800D03*
G04 #@! TD*
D25*
G04 #@! TO.C,R48*
X2678800Y82600800D03*
X978800Y82600800D03*
G04 #@! TD*
D12*
G04 #@! TO.C,D4*
X-66751200Y87514800D03*
X-66751200Y85814800D03*
G04 #@! TD*
D40*
G04 #@! TO.C,U2*
X-24270771Y77943858D03*
D29*
G36*
X-24818779Y78315089D02*
X-24642002Y78491866D01*
X-23722763Y77572627D01*
X-23899540Y77395850D01*
X-24818779Y78315089D01*
X-24818779Y78315089D01*
G37*
D40*
X-24624324Y77590305D03*
D29*
G36*
X-25172332Y77961536D02*
X-24995555Y78138313D01*
X-24076316Y77219074D01*
X-24253093Y77042297D01*
X-25172332Y77961536D01*
X-25172332Y77961536D01*
G37*
D40*
X-24977878Y77236751D03*
D29*
G36*
X-25525886Y77607982D02*
X-25349109Y77784759D01*
X-24429870Y76865520D01*
X-24606647Y76688743D01*
X-25525886Y77607982D01*
X-25525886Y77607982D01*
G37*
D40*
X-25331431Y76883198D03*
D29*
G36*
X-25879439Y77254429D02*
X-25702662Y77431206D01*
X-24783423Y76511967D01*
X-24960200Y76335190D01*
X-25879439Y77254429D01*
X-25879439Y77254429D01*
G37*
D40*
X-25684984Y76529645D03*
D29*
G36*
X-26232992Y76900876D02*
X-26056215Y77077653D01*
X-25136976Y76158414D01*
X-25313753Y75981637D01*
X-26232992Y76900876D01*
X-26232992Y76900876D01*
G37*
D40*
X-26038538Y76176091D03*
D29*
G36*
X-26586546Y76547322D02*
X-26409769Y76724099D01*
X-25490530Y75804860D01*
X-25667307Y75628083D01*
X-26586546Y76547322D01*
X-26586546Y76547322D01*
G37*
D40*
X-26392091Y75822538D03*
D29*
G36*
X-26940099Y76193769D02*
X-26763322Y76370546D01*
X-25844083Y75451307D01*
X-26020860Y75274530D01*
X-26940099Y76193769D01*
X-26940099Y76193769D01*
G37*
D40*
X-26745645Y75468984D03*
D29*
G36*
X-27293653Y75840215D02*
X-27116876Y76016992D01*
X-26197637Y75097753D01*
X-26374414Y74920976D01*
X-27293653Y75840215D01*
X-27293653Y75840215D01*
G37*
D40*
X-27099198Y75115431D03*
D29*
G36*
X-27647206Y75486662D02*
X-27470429Y75663439D01*
X-26551190Y74744200D01*
X-26727967Y74567423D01*
X-27647206Y75486662D01*
X-27647206Y75486662D01*
G37*
D40*
X-27452751Y74761878D03*
D29*
G36*
X-28000759Y75133109D02*
X-27823982Y75309886D01*
X-26904743Y74390647D01*
X-27081520Y74213870D01*
X-28000759Y75133109D01*
X-28000759Y75133109D01*
G37*
D40*
X-27806305Y74408324D03*
D29*
G36*
X-28354313Y74779555D02*
X-28177536Y74956332D01*
X-27258297Y74037093D01*
X-27435074Y73860316D01*
X-28354313Y74779555D01*
X-28354313Y74779555D01*
G37*
D40*
X-28159858Y74054771D03*
D29*
G36*
X-28707866Y74426002D02*
X-28531089Y74602779D01*
X-27611850Y73683540D01*
X-27788627Y73506763D01*
X-28707866Y74426002D01*
X-28707866Y74426002D01*
G37*
D40*
X-28159858Y71792029D03*
D29*
G36*
X-28531089Y71244021D02*
X-28707866Y71420798D01*
X-27788627Y72340037D01*
X-27611850Y72163260D01*
X-28531089Y71244021D01*
X-28531089Y71244021D01*
G37*
D40*
X-27806305Y71438476D03*
D29*
G36*
X-28177536Y70890468D02*
X-28354313Y71067245D01*
X-27435074Y71986484D01*
X-27258297Y71809707D01*
X-28177536Y70890468D01*
X-28177536Y70890468D01*
G37*
D40*
X-27452751Y71084922D03*
D29*
G36*
X-27823982Y70536914D02*
X-28000759Y70713691D01*
X-27081520Y71632930D01*
X-26904743Y71456153D01*
X-27823982Y70536914D01*
X-27823982Y70536914D01*
G37*
D40*
X-27099198Y70731369D03*
D29*
G36*
X-27470429Y70183361D02*
X-27647206Y70360138D01*
X-26727967Y71279377D01*
X-26551190Y71102600D01*
X-27470429Y70183361D01*
X-27470429Y70183361D01*
G37*
D40*
X-26745645Y70377816D03*
D29*
G36*
X-27116876Y69829808D02*
X-27293653Y70006585D01*
X-26374414Y70925824D01*
X-26197637Y70749047D01*
X-27116876Y69829808D01*
X-27116876Y69829808D01*
G37*
D40*
X-26392091Y70024262D03*
D29*
G36*
X-26763322Y69476254D02*
X-26940099Y69653031D01*
X-26020860Y70572270D01*
X-25844083Y70395493D01*
X-26763322Y69476254D01*
X-26763322Y69476254D01*
G37*
D40*
X-26038538Y69670709D03*
D29*
G36*
X-26409769Y69122701D02*
X-26586546Y69299478D01*
X-25667307Y70218717D01*
X-25490530Y70041940D01*
X-26409769Y69122701D01*
X-26409769Y69122701D01*
G37*
D40*
X-25684984Y69317155D03*
D29*
G36*
X-26056215Y68769147D02*
X-26232992Y68945924D01*
X-25313753Y69865163D01*
X-25136976Y69688386D01*
X-26056215Y68769147D01*
X-26056215Y68769147D01*
G37*
D40*
X-25331431Y68963602D03*
D29*
G36*
X-25702662Y68415594D02*
X-25879439Y68592371D01*
X-24960200Y69511610D01*
X-24783423Y69334833D01*
X-25702662Y68415594D01*
X-25702662Y68415594D01*
G37*
D40*
X-24977878Y68610049D03*
D29*
G36*
X-25349109Y68062041D02*
X-25525886Y68238818D01*
X-24606647Y69158057D01*
X-24429870Y68981280D01*
X-25349109Y68062041D01*
X-25349109Y68062041D01*
G37*
D40*
X-24624324Y68256495D03*
D29*
G36*
X-24995555Y67708487D02*
X-25172332Y67885264D01*
X-24253093Y68804503D01*
X-24076316Y68627726D01*
X-24995555Y67708487D01*
X-24995555Y67708487D01*
G37*
D40*
X-24270771Y67902942D03*
D29*
G36*
X-24642002Y67354934D02*
X-24818779Y67531711D01*
X-23899540Y68450950D01*
X-23722763Y68274173D01*
X-24642002Y67354934D01*
X-24642002Y67354934D01*
G37*
D40*
X-22008029Y67902942D03*
D29*
G36*
X-22556037Y68274173D02*
X-22379260Y68450950D01*
X-21460021Y67531711D01*
X-21636798Y67354934D01*
X-22556037Y68274173D01*
X-22556037Y68274173D01*
G37*
D40*
X-21654476Y68256495D03*
D29*
G36*
X-22202484Y68627726D02*
X-22025707Y68804503D01*
X-21106468Y67885264D01*
X-21283245Y67708487D01*
X-22202484Y68627726D01*
X-22202484Y68627726D01*
G37*
D40*
X-21300922Y68610049D03*
D29*
G36*
X-21848930Y68981280D02*
X-21672153Y69158057D01*
X-20752914Y68238818D01*
X-20929691Y68062041D01*
X-21848930Y68981280D01*
X-21848930Y68981280D01*
G37*
D40*
X-20947369Y68963602D03*
D29*
G36*
X-21495377Y69334833D02*
X-21318600Y69511610D01*
X-20399361Y68592371D01*
X-20576138Y68415594D01*
X-21495377Y69334833D01*
X-21495377Y69334833D01*
G37*
D40*
X-20593816Y69317155D03*
D29*
G36*
X-21141824Y69688386D02*
X-20965047Y69865163D01*
X-20045808Y68945924D01*
X-20222585Y68769147D01*
X-21141824Y69688386D01*
X-21141824Y69688386D01*
G37*
D40*
X-20240262Y69670709D03*
D29*
G36*
X-20788270Y70041940D02*
X-20611493Y70218717D01*
X-19692254Y69299478D01*
X-19869031Y69122701D01*
X-20788270Y70041940D01*
X-20788270Y70041940D01*
G37*
D40*
X-19886709Y70024262D03*
D29*
G36*
X-20434717Y70395493D02*
X-20257940Y70572270D01*
X-19338701Y69653031D01*
X-19515478Y69476254D01*
X-20434717Y70395493D01*
X-20434717Y70395493D01*
G37*
D40*
X-19533155Y70377816D03*
D29*
G36*
X-20081163Y70749047D02*
X-19904386Y70925824D01*
X-18985147Y70006585D01*
X-19161924Y69829808D01*
X-20081163Y70749047D01*
X-20081163Y70749047D01*
G37*
D40*
X-19179602Y70731369D03*
D29*
G36*
X-19727610Y71102600D02*
X-19550833Y71279377D01*
X-18631594Y70360138D01*
X-18808371Y70183361D01*
X-19727610Y71102600D01*
X-19727610Y71102600D01*
G37*
D40*
X-18826049Y71084922D03*
D29*
G36*
X-19374057Y71456153D02*
X-19197280Y71632930D01*
X-18278041Y70713691D01*
X-18454818Y70536914D01*
X-19374057Y71456153D01*
X-19374057Y71456153D01*
G37*
D40*
X-18472495Y71438476D03*
D29*
G36*
X-19020503Y71809707D02*
X-18843726Y71986484D01*
X-17924487Y71067245D01*
X-18101264Y70890468D01*
X-19020503Y71809707D01*
X-19020503Y71809707D01*
G37*
D40*
X-18118942Y71792029D03*
D29*
G36*
X-18666950Y72163260D02*
X-18490173Y72340037D01*
X-17570934Y71420798D01*
X-17747711Y71244021D01*
X-18666950Y72163260D01*
X-18666950Y72163260D01*
G37*
D40*
X-18118942Y74054771D03*
D29*
G36*
X-18490173Y73506763D02*
X-18666950Y73683540D01*
X-17747711Y74602779D01*
X-17570934Y74426002D01*
X-18490173Y73506763D01*
X-18490173Y73506763D01*
G37*
D40*
X-18472495Y74408324D03*
D29*
G36*
X-18843726Y73860316D02*
X-19020503Y74037093D01*
X-18101264Y74956332D01*
X-17924487Y74779555D01*
X-18843726Y73860316D01*
X-18843726Y73860316D01*
G37*
D40*
X-18826049Y74761878D03*
D29*
G36*
X-19197280Y74213870D02*
X-19374057Y74390647D01*
X-18454818Y75309886D01*
X-18278041Y75133109D01*
X-19197280Y74213870D01*
X-19197280Y74213870D01*
G37*
D40*
X-19179602Y75115431D03*
D29*
G36*
X-19550833Y74567423D02*
X-19727610Y74744200D01*
X-18808371Y75663439D01*
X-18631594Y75486662D01*
X-19550833Y74567423D01*
X-19550833Y74567423D01*
G37*
D40*
X-19533155Y75468984D03*
D29*
G36*
X-19904386Y74920976D02*
X-20081163Y75097753D01*
X-19161924Y76016992D01*
X-18985147Y75840215D01*
X-19904386Y74920976D01*
X-19904386Y74920976D01*
G37*
D40*
X-19886709Y75822538D03*
D29*
G36*
X-20257940Y75274530D02*
X-20434717Y75451307D01*
X-19515478Y76370546D01*
X-19338701Y76193769D01*
X-20257940Y75274530D01*
X-20257940Y75274530D01*
G37*
D40*
X-20240262Y76176091D03*
D29*
G36*
X-20611493Y75628083D02*
X-20788270Y75804860D01*
X-19869031Y76724099D01*
X-19692254Y76547322D01*
X-20611493Y75628083D01*
X-20611493Y75628083D01*
G37*
D40*
X-20593816Y76529645D03*
D29*
G36*
X-20965047Y75981637D02*
X-21141824Y76158414D01*
X-20222585Y77077653D01*
X-20045808Y76900876D01*
X-20965047Y75981637D01*
X-20965047Y75981637D01*
G37*
D40*
X-20947369Y76883198D03*
D29*
G36*
X-21318600Y76335190D02*
X-21495377Y76511967D01*
X-20576138Y77431206D01*
X-20399361Y77254429D01*
X-21318600Y76335190D01*
X-21318600Y76335190D01*
G37*
D40*
X-21300922Y77236751D03*
D29*
G36*
X-21672153Y76688743D02*
X-21848930Y76865520D01*
X-20929691Y77784759D01*
X-20752914Y77607982D01*
X-21672153Y76688743D01*
X-21672153Y76688743D01*
G37*
D40*
X-21654476Y77590305D03*
D29*
G36*
X-22025707Y77042297D02*
X-22202484Y77219074D01*
X-21283245Y78138313D01*
X-21106468Y77961536D01*
X-22025707Y77042297D01*
X-22025707Y77042297D01*
G37*
D40*
X-22008029Y77943858D03*
D29*
G36*
X-22379260Y77395850D02*
X-22556037Y77572627D01*
X-21636798Y78491866D01*
X-21460021Y78315089D01*
X-22379260Y77395850D01*
X-22379260Y77395850D01*
G37*
G04 #@! TD*
D50*
G04 #@! TO.C,REF\002A\002A*
X-79900000Y-70500000D03*
G04 #@! TD*
D56*
G04 #@! TO.C,REF\002A\002A*
X-79900000Y-75500000D03*
G04 #@! TD*
D11*
G04 #@! TO.C,REF\002A\002A*
X4411400Y89410600D03*
X3211400Y89410600D03*
X2011400Y89410600D03*
X2011400Y92410600D03*
X3211400Y92410600D03*
X4411400Y92410600D03*
G04 #@! TD*
D56*
G04 #@! TO.C,REF\002A\002A*
X35211400Y95200000D03*
G04 #@! TD*
D50*
G04 #@! TO.C,REF\002A\002A*
X-74900000Y95400000D03*
G04 #@! TD*
D56*
G04 #@! TO.C,REF\002A\002A*
X-79900000Y95400000D03*
G04 #@! TD*
M02*
