G04 #@! TF.GenerationSoftware,KiCad,Pcbnew,(5.0.0)*
G04 #@! TF.CreationDate,2018-12-28T17:12:47-06:00*
G04 #@! TF.ProjectId,fk-core-v0.15-01x04,666B2D636F72652D76302E31352D3031,0.1*
G04 #@! TF.SameCoordinates,PX791ddc0PY791ddc0*
G04 #@! TF.FileFunction,Legend,Bot*
G04 #@! TF.FilePolarity,Positive*
%FSLAX46Y46*%
G04 Gerber Fmt 4.6, Leading zero omitted, Abs format (unit mm)*
G04 Created by KiCad (PCBNEW (5.0.0)) date 12/28/18 17:12:47*
%MOMM*%
%LPD*%
G01*
G04 APERTURE LIST*
%ADD10C,0.180000*%
%ADD11C,0.100000*%
%ADD12C,0.120000*%
%ADD13C,0.127000*%
%ADD14C,0.152400*%
%ADD15C,0.150000*%
%ADD16C,0.300000*%
%ADD17C,0.381000*%
G04 APERTURE END LIST*
D10*
X-10972943Y-52711980D02*
X-10496753Y-52711980D01*
X-10496753Y-51711980D01*
X-11496753Y-51711980D02*
X-11687229Y-51711980D01*
X-11782467Y-51759600D01*
X-11877705Y-51854838D01*
X-11925324Y-52045314D01*
X-11925324Y-52378647D01*
X-11877705Y-52569123D01*
X-11782467Y-52664361D01*
X-11687229Y-52711980D01*
X-11496753Y-52711980D01*
X-11401515Y-52664361D01*
X-11306277Y-52569123D01*
X-11258658Y-52378647D01*
X-11258658Y-52045314D01*
X-11306277Y-51854838D01*
X-11401515Y-51759600D01*
X-11496753Y-51711980D01*
X-12925324Y-52711980D02*
X-12591991Y-52235790D01*
X-12353896Y-52711980D02*
X-12353896Y-51711980D01*
X-12734848Y-51711980D01*
X-12830086Y-51759600D01*
X-12877705Y-51807219D01*
X-12925324Y-51902457D01*
X-12925324Y-52045314D01*
X-12877705Y-52140552D01*
X-12830086Y-52188171D01*
X-12734848Y-52235790D01*
X-12353896Y-52235790D01*
X-13306277Y-52426266D02*
X-13782467Y-52426266D01*
X-13211039Y-52711980D02*
X-13544372Y-51711980D01*
X-13877705Y-52711980D01*
X-2529200Y-34050771D02*
X-2672058Y-34098390D01*
X-2719677Y-34146009D01*
X-2767296Y-34241247D01*
X-2767296Y-34384104D01*
X-2719677Y-34479342D01*
X-2672058Y-34526961D01*
X-2576820Y-34574580D01*
X-2195867Y-34574580D01*
X-2195867Y-33574580D01*
X-2529200Y-33574580D01*
X-2624439Y-33622200D01*
X-2672058Y-33669819D01*
X-2719677Y-33765057D01*
X-2719677Y-33860295D01*
X-2672058Y-33955533D01*
X-2624439Y-34003152D01*
X-2529200Y-34050771D01*
X-2195867Y-34050771D01*
X-3148248Y-34288866D02*
X-3624439Y-34288866D01*
X-3053010Y-34574580D02*
X-3386343Y-33574580D01*
X-3719677Y-34574580D01*
X-3910153Y-33574580D02*
X-4481581Y-33574580D01*
X-4195867Y-34574580D02*
X-4195867Y-33574580D01*
X-4672058Y-33574580D02*
X-5243486Y-33574580D01*
X-4957772Y-34574580D02*
X-4957772Y-33574580D01*
X-5576820Y-34050771D02*
X-5910153Y-34050771D01*
X-6053010Y-34574580D02*
X-5576820Y-34574580D01*
X-5576820Y-33574580D01*
X-6053010Y-33574580D01*
X-7053010Y-34574580D02*
X-6719677Y-34098390D01*
X-6481581Y-34574580D02*
X-6481581Y-33574580D01*
X-6862534Y-33574580D01*
X-6957772Y-33622200D01*
X-7005391Y-33669819D01*
X-7053010Y-33765057D01*
X-7053010Y-33907914D01*
X-7005391Y-34003152D01*
X-6957772Y-34050771D01*
X-6862534Y-34098390D01*
X-6481581Y-34098390D01*
X-7672058Y-34098390D02*
X-7672058Y-34574580D01*
X-7338724Y-33574580D02*
X-7672058Y-34098390D01*
X-8005391Y-33574580D01*
X-2648248Y-35730771D02*
X-2791105Y-35778390D01*
X-2838724Y-35826009D01*
X-2886343Y-35921247D01*
X-2886343Y-36064104D01*
X-2838724Y-36159342D01*
X-2791105Y-36206961D01*
X-2695867Y-36254580D01*
X-2314915Y-36254580D01*
X-2314915Y-35254580D01*
X-2648248Y-35254580D01*
X-2743486Y-35302200D01*
X-2791105Y-35349819D01*
X-2838724Y-35445057D01*
X-2838724Y-35540295D01*
X-2791105Y-35635533D01*
X-2743486Y-35683152D01*
X-2648248Y-35730771D01*
X-2314915Y-35730771D01*
X-3267296Y-35968866D02*
X-3743486Y-35968866D01*
X-3172058Y-36254580D02*
X-3505391Y-35254580D01*
X-3838724Y-36254580D01*
X-4743486Y-36159342D02*
X-4695867Y-36206961D01*
X-4553010Y-36254580D01*
X-4457772Y-36254580D01*
X-4314915Y-36206961D01*
X-4219677Y-36111723D01*
X-4172058Y-36016485D01*
X-4124439Y-35826009D01*
X-4124439Y-35683152D01*
X-4172058Y-35492676D01*
X-4219677Y-35397438D01*
X-4314915Y-35302200D01*
X-4457772Y-35254580D01*
X-4553010Y-35254580D01*
X-4695867Y-35302200D01*
X-4743486Y-35349819D01*
X-5172058Y-36254580D02*
X-5172058Y-35254580D01*
X-5743486Y-36254580D02*
X-5314915Y-35683152D01*
X-5743486Y-35254580D02*
X-5172058Y-35826009D01*
X-6172058Y-35254580D02*
X-6172058Y-36064104D01*
X-6219677Y-36159342D01*
X-6267296Y-36206961D01*
X-6362534Y-36254580D01*
X-6553010Y-36254580D01*
X-6648248Y-36206961D01*
X-6695867Y-36159342D01*
X-6743486Y-36064104D01*
X-6743486Y-35254580D01*
X-7219677Y-36254580D02*
X-7219677Y-35254580D01*
X-7600629Y-35254580D01*
X-7695867Y-35302200D01*
X-7743486Y-35349819D01*
X-7791105Y-35445057D01*
X-7791105Y-35587914D01*
X-7743486Y-35683152D01*
X-7695867Y-35730771D01*
X-7600629Y-35778390D01*
X-7219677Y-35778390D01*
X-39144962Y-52638961D02*
X-39287820Y-52686580D01*
X-39525915Y-52686580D01*
X-39621153Y-52638961D01*
X-39668772Y-52591342D01*
X-39716391Y-52496104D01*
X-39716391Y-52400866D01*
X-39668772Y-52305628D01*
X-39621153Y-52258009D01*
X-39525915Y-52210390D01*
X-39335439Y-52162771D01*
X-39240200Y-52115152D01*
X-39192581Y-52067533D01*
X-39144962Y-51972295D01*
X-39144962Y-51877057D01*
X-39192581Y-51781819D01*
X-39240200Y-51734200D01*
X-39335439Y-51686580D01*
X-39573534Y-51686580D01*
X-39716391Y-51734200D01*
X-40144962Y-52686580D02*
X-40144962Y-51686580D01*
X-40383058Y-51686580D01*
X-40525915Y-51734200D01*
X-40621153Y-51829438D01*
X-40668772Y-51924676D01*
X-40716391Y-52115152D01*
X-40716391Y-52258009D01*
X-40668772Y-52448485D01*
X-40621153Y-52543723D01*
X-40525915Y-52638961D01*
X-40383058Y-52686580D01*
X-40144962Y-52686580D01*
X-42478296Y-52591342D02*
X-42430677Y-52638961D01*
X-42287820Y-52686580D01*
X-42192581Y-52686580D01*
X-42049724Y-52638961D01*
X-41954486Y-52543723D01*
X-41906867Y-52448485D01*
X-41859248Y-52258009D01*
X-41859248Y-52115152D01*
X-41906867Y-51924676D01*
X-41954486Y-51829438D01*
X-42049724Y-51734200D01*
X-42192581Y-51686580D01*
X-42287820Y-51686580D01*
X-42430677Y-51734200D01*
X-42478296Y-51781819D01*
X-42859248Y-52400866D02*
X-43335439Y-52400866D01*
X-42764010Y-52686580D02*
X-43097343Y-51686580D01*
X-43430677Y-52686580D01*
X-44335439Y-52686580D02*
X-44002105Y-52210390D01*
X-43764010Y-52686580D02*
X-43764010Y-51686580D01*
X-44144962Y-51686580D01*
X-44240200Y-51734200D01*
X-44287820Y-51781819D01*
X-44335439Y-51877057D01*
X-44335439Y-52019914D01*
X-44287820Y-52115152D01*
X-44240200Y-52162771D01*
X-44144962Y-52210390D01*
X-43764010Y-52210390D01*
X-44764010Y-52686580D02*
X-44764010Y-51686580D01*
X-45002105Y-51686580D01*
X-45144962Y-51734200D01*
X-45240200Y-51829438D01*
X-45287820Y-51924676D01*
X-45335439Y-52115152D01*
X-45335439Y-52258009D01*
X-45287820Y-52448485D01*
X-45240200Y-52543723D01*
X-45144962Y-52638961D01*
X-45002105Y-52686580D01*
X-44764010Y-52686580D01*
X-68211867Y-49019580D02*
X-68449962Y-50019580D01*
X-68640439Y-49305295D01*
X-68830915Y-50019580D01*
X-69069010Y-49019580D01*
X-69449962Y-50019580D02*
X-69449962Y-49019580D01*
X-70259486Y-49495771D02*
X-69926153Y-49495771D01*
X-69926153Y-50019580D02*
X-69926153Y-49019580D01*
X-70402343Y-49019580D01*
X-70783296Y-50019580D02*
X-70783296Y-49019580D01*
X19180085Y-38653200D02*
X19275323Y-38605580D01*
X19418180Y-38605580D01*
X19561038Y-38653200D01*
X19656276Y-38748438D01*
X19703895Y-38843676D01*
X19751514Y-39034152D01*
X19751514Y-39177009D01*
X19703895Y-39367485D01*
X19656276Y-39462723D01*
X19561038Y-39557961D01*
X19418180Y-39605580D01*
X19322942Y-39605580D01*
X19180085Y-39557961D01*
X19132466Y-39510342D01*
X19132466Y-39177009D01*
X19322942Y-39177009D01*
X18703895Y-39605580D02*
X18703895Y-38605580D01*
X18322942Y-38605580D01*
X18227704Y-38653200D01*
X18180085Y-38700819D01*
X18132466Y-38796057D01*
X18132466Y-38938914D01*
X18180085Y-39034152D01*
X18227704Y-39081771D01*
X18322942Y-39129390D01*
X18703895Y-39129390D01*
X17751514Y-39557961D02*
X17608657Y-39605580D01*
X17370561Y-39605580D01*
X17275323Y-39557961D01*
X17227704Y-39510342D01*
X17180085Y-39415104D01*
X17180085Y-39319866D01*
X17227704Y-39224628D01*
X17275323Y-39177009D01*
X17370561Y-39129390D01*
X17561038Y-39081771D01*
X17656276Y-39034152D01*
X17703895Y-38986533D01*
X17751514Y-38891295D01*
X17751514Y-38796057D01*
X17703895Y-38700819D01*
X17656276Y-38653200D01*
X17561038Y-38605580D01*
X17322942Y-38605580D01*
X17180085Y-38653200D01*
D11*
X-34275200Y-45729390D02*
X-34275200Y-45229390D01*
X-34441867Y-45586533D01*
X-34608534Y-45229390D01*
X-34608534Y-45729390D01*
X-34941867Y-45229390D02*
X-35037105Y-45229390D01*
X-35084724Y-45253200D01*
X-35132343Y-45300819D01*
X-35156153Y-45396057D01*
X-35156153Y-45562723D01*
X-35132343Y-45657961D01*
X-35084724Y-45705580D01*
X-35037105Y-45729390D01*
X-34941867Y-45729390D01*
X-34894248Y-45705580D01*
X-34846629Y-45657961D01*
X-34822820Y-45562723D01*
X-34822820Y-45396057D01*
X-34846629Y-45300819D01*
X-34894248Y-45253200D01*
X-34941867Y-45229390D01*
X-35370439Y-45729390D02*
X-35370439Y-45229390D01*
X-35489486Y-45229390D01*
X-35560915Y-45253200D01*
X-35608534Y-45300819D01*
X-35632343Y-45348438D01*
X-35656153Y-45443676D01*
X-35656153Y-45515104D01*
X-35632343Y-45610342D01*
X-35608534Y-45657961D01*
X-35560915Y-45705580D01*
X-35489486Y-45729390D01*
X-35370439Y-45729390D01*
X-35870439Y-45229390D02*
X-35870439Y-45634152D01*
X-35894248Y-45681771D01*
X-35918058Y-45705580D01*
X-35965677Y-45729390D01*
X-36060915Y-45729390D01*
X-36108534Y-45705580D01*
X-36132343Y-45681771D01*
X-36156153Y-45634152D01*
X-36156153Y-45229390D01*
X-36632343Y-45729390D02*
X-36394248Y-45729390D01*
X-36394248Y-45229390D01*
X-36799010Y-45467485D02*
X-36965677Y-45467485D01*
X-37037105Y-45729390D02*
X-36799010Y-45729390D01*
X-36799010Y-45229390D01*
X-37037105Y-45229390D01*
X-37132343Y-45777009D02*
X-37513296Y-45777009D01*
X-37584724Y-45229390D02*
X-37894248Y-45229390D01*
X-37727581Y-45419866D01*
X-37799010Y-45419866D01*
X-37846629Y-45443676D01*
X-37870439Y-45467485D01*
X-37894248Y-45515104D01*
X-37894248Y-45634152D01*
X-37870439Y-45681771D01*
X-37846629Y-45705580D01*
X-37799010Y-45729390D01*
X-37656153Y-45729390D01*
X-37608534Y-45705580D01*
X-37584724Y-45681771D01*
X-38037105Y-45229390D02*
X-38203772Y-45729390D01*
X-38370439Y-45229390D01*
X-38489486Y-45229390D02*
X-38799010Y-45229390D01*
X-38632343Y-45419866D01*
X-38703772Y-45419866D01*
X-38751391Y-45443676D01*
X-38775200Y-45467485D01*
X-38799010Y-45515104D01*
X-38799010Y-45634152D01*
X-38775200Y-45681771D01*
X-38751391Y-45705580D01*
X-38703772Y-45729390D01*
X-38560915Y-45729390D01*
X-38513296Y-45705580D01*
X-38489486Y-45681771D01*
X-32628153Y-51190390D02*
X-32628153Y-50690390D01*
X-32818629Y-50690390D01*
X-32866248Y-50714200D01*
X-32890058Y-50738009D01*
X-32913867Y-50785628D01*
X-32913867Y-50857057D01*
X-32890058Y-50904676D01*
X-32866248Y-50928485D01*
X-32818629Y-50952295D01*
X-32628153Y-50952295D01*
X-33128153Y-50928485D02*
X-33294820Y-50928485D01*
X-33366248Y-51190390D02*
X-33128153Y-51190390D01*
X-33128153Y-50690390D01*
X-33366248Y-50690390D01*
X-33866248Y-51190390D02*
X-33699581Y-50952295D01*
X-33580534Y-51190390D02*
X-33580534Y-50690390D01*
X-33771010Y-50690390D01*
X-33818629Y-50714200D01*
X-33842439Y-50738009D01*
X-33866248Y-50785628D01*
X-33866248Y-50857057D01*
X-33842439Y-50904676D01*
X-33818629Y-50928485D01*
X-33771010Y-50952295D01*
X-33580534Y-50952295D01*
X-34080534Y-51190390D02*
X-34080534Y-50690390D01*
X-34318629Y-51190390D02*
X-34318629Y-50690390D01*
X-34509105Y-50690390D01*
X-34556724Y-50714200D01*
X-34580534Y-50738009D01*
X-34604343Y-50785628D01*
X-34604343Y-50857057D01*
X-34580534Y-50904676D01*
X-34556724Y-50928485D01*
X-34509105Y-50952295D01*
X-34318629Y-50952295D01*
X-34818629Y-51190390D02*
X-34818629Y-50690390D01*
X-34818629Y-50928485D02*
X-35104343Y-50928485D01*
X-35104343Y-51190390D02*
X-35104343Y-50690390D01*
X-35223391Y-51238009D02*
X-35604343Y-51238009D01*
X-35675772Y-50690390D02*
X-35985296Y-50690390D01*
X-35818629Y-50880866D01*
X-35890058Y-50880866D01*
X-35937677Y-50904676D01*
X-35961486Y-50928485D01*
X-35985296Y-50976104D01*
X-35985296Y-51095152D01*
X-35961486Y-51142771D01*
X-35937677Y-51166580D01*
X-35890058Y-51190390D01*
X-35747200Y-51190390D01*
X-35699581Y-51166580D01*
X-35675772Y-51142771D01*
X-36128153Y-50690390D02*
X-36294820Y-51190390D01*
X-36461486Y-50690390D01*
X-36580534Y-50690390D02*
X-36890058Y-50690390D01*
X-36723391Y-50880866D01*
X-36794820Y-50880866D01*
X-36842439Y-50904676D01*
X-36866248Y-50928485D01*
X-36890058Y-50976104D01*
X-36890058Y-51095152D01*
X-36866248Y-51142771D01*
X-36842439Y-51166580D01*
X-36794820Y-51190390D01*
X-36651962Y-51190390D01*
X-36604343Y-51166580D01*
X-36580534Y-51142771D01*
X8654895Y-46904200D02*
X8702514Y-46880390D01*
X8773942Y-46880390D01*
X8845371Y-46904200D01*
X8892990Y-46951819D01*
X8916800Y-46999438D01*
X8940609Y-47094676D01*
X8940609Y-47166104D01*
X8916800Y-47261342D01*
X8892990Y-47308961D01*
X8845371Y-47356580D01*
X8773942Y-47380390D01*
X8726323Y-47380390D01*
X8654895Y-47356580D01*
X8631085Y-47332771D01*
X8631085Y-47166104D01*
X8726323Y-47166104D01*
X8416800Y-47380390D02*
X8416800Y-46880390D01*
X8226323Y-46880390D01*
X8178704Y-46904200D01*
X8154895Y-46928009D01*
X8131085Y-46975628D01*
X8131085Y-47047057D01*
X8154895Y-47094676D01*
X8178704Y-47118485D01*
X8226323Y-47142295D01*
X8416800Y-47142295D01*
X7940609Y-47356580D02*
X7869180Y-47380390D01*
X7750133Y-47380390D01*
X7702514Y-47356580D01*
X7678704Y-47332771D01*
X7654895Y-47285152D01*
X7654895Y-47237533D01*
X7678704Y-47189914D01*
X7702514Y-47166104D01*
X7750133Y-47142295D01*
X7845371Y-47118485D01*
X7892990Y-47094676D01*
X7916800Y-47070866D01*
X7940609Y-47023247D01*
X7940609Y-46975628D01*
X7916800Y-46928009D01*
X7892990Y-46904200D01*
X7845371Y-46880390D01*
X7726323Y-46880390D01*
X7654895Y-46904200D01*
X7559657Y-47428009D02*
X7178704Y-47428009D01*
X7107276Y-46880390D02*
X6797752Y-46880390D01*
X6964419Y-47070866D01*
X6892990Y-47070866D01*
X6845371Y-47094676D01*
X6821561Y-47118485D01*
X6797752Y-47166104D01*
X6797752Y-47285152D01*
X6821561Y-47332771D01*
X6845371Y-47356580D01*
X6892990Y-47380390D01*
X7035847Y-47380390D01*
X7083466Y-47356580D01*
X7107276Y-47332771D01*
X6654895Y-46880390D02*
X6488228Y-47380390D01*
X6321561Y-46880390D01*
X6202514Y-46880390D02*
X5892990Y-46880390D01*
X6059657Y-47070866D01*
X5988228Y-47070866D01*
X5940609Y-47094676D01*
X5916800Y-47118485D01*
X5892990Y-47166104D01*
X5892990Y-47285152D01*
X5916800Y-47332771D01*
X5940609Y-47356580D01*
X5988228Y-47380390D01*
X6131085Y-47380390D01*
X6178704Y-47356580D01*
X6202514Y-47332771D01*
X8654895Y-6404200D02*
X8702514Y-6380390D01*
X8773942Y-6380390D01*
X8845371Y-6404200D01*
X8892990Y-6451819D01*
X8916800Y-6499438D01*
X8940609Y-6594676D01*
X8940609Y-6666104D01*
X8916800Y-6761342D01*
X8892990Y-6808961D01*
X8845371Y-6856580D01*
X8773942Y-6880390D01*
X8726323Y-6880390D01*
X8654895Y-6856580D01*
X8631085Y-6832771D01*
X8631085Y-6666104D01*
X8726323Y-6666104D01*
X8416800Y-6880390D02*
X8416800Y-6380390D01*
X8226323Y-6380390D01*
X8178704Y-6404200D01*
X8154895Y-6428009D01*
X8131085Y-6475628D01*
X8131085Y-6547057D01*
X8154895Y-6594676D01*
X8178704Y-6618485D01*
X8226323Y-6642295D01*
X8416800Y-6642295D01*
X7940609Y-6856580D02*
X7869180Y-6880390D01*
X7750133Y-6880390D01*
X7702514Y-6856580D01*
X7678704Y-6832771D01*
X7654895Y-6785152D01*
X7654895Y-6737533D01*
X7678704Y-6689914D01*
X7702514Y-6666104D01*
X7750133Y-6642295D01*
X7845371Y-6618485D01*
X7892990Y-6594676D01*
X7916800Y-6570866D01*
X7940609Y-6523247D01*
X7940609Y-6475628D01*
X7916800Y-6428009D01*
X7892990Y-6404200D01*
X7845371Y-6380390D01*
X7726323Y-6380390D01*
X7654895Y-6404200D01*
X7559657Y-6928009D02*
X7178704Y-6928009D01*
X7107276Y-6380390D02*
X6797752Y-6380390D01*
X6964419Y-6570866D01*
X6892990Y-6570866D01*
X6845371Y-6594676D01*
X6821561Y-6618485D01*
X6797752Y-6666104D01*
X6797752Y-6785152D01*
X6821561Y-6832771D01*
X6845371Y-6856580D01*
X6892990Y-6880390D01*
X7035847Y-6880390D01*
X7083466Y-6856580D01*
X7107276Y-6832771D01*
X6654895Y-6380390D02*
X6488228Y-6880390D01*
X6321561Y-6380390D01*
X6202514Y-6380390D02*
X5892990Y-6380390D01*
X6059657Y-6570866D01*
X5988228Y-6570866D01*
X5940609Y-6594676D01*
X5916800Y-6618485D01*
X5892990Y-6666104D01*
X5892990Y-6785152D01*
X5916800Y-6832771D01*
X5940609Y-6856580D01*
X5988228Y-6880390D01*
X6131085Y-6880390D01*
X6178704Y-6856580D01*
X6202514Y-6832771D01*
D10*
X19180085Y1846800D02*
X19275323Y1894420D01*
X19418180Y1894420D01*
X19561038Y1846800D01*
X19656276Y1751562D01*
X19703895Y1656324D01*
X19751514Y1465848D01*
X19751514Y1322991D01*
X19703895Y1132515D01*
X19656276Y1037277D01*
X19561038Y942039D01*
X19418180Y894420D01*
X19322942Y894420D01*
X19180085Y942039D01*
X19132466Y989658D01*
X19132466Y1322991D01*
X19322942Y1322991D01*
X18703895Y894420D02*
X18703895Y1894420D01*
X18322942Y1894420D01*
X18227704Y1846800D01*
X18180085Y1799181D01*
X18132466Y1703943D01*
X18132466Y1561086D01*
X18180085Y1465848D01*
X18227704Y1418229D01*
X18322942Y1370610D01*
X18703895Y1370610D01*
X17751514Y942039D02*
X17608657Y894420D01*
X17370561Y894420D01*
X17275323Y942039D01*
X17227704Y989658D01*
X17180085Y1084896D01*
X17180085Y1180134D01*
X17227704Y1275372D01*
X17275323Y1322991D01*
X17370561Y1370610D01*
X17561038Y1418229D01*
X17656276Y1465848D01*
X17703895Y1513467D01*
X17751514Y1608705D01*
X17751514Y1703943D01*
X17703895Y1799181D01*
X17656276Y1846800D01*
X17561038Y1894420D01*
X17322942Y1894420D01*
X17180085Y1846800D01*
X-10972943Y-12211980D02*
X-10496753Y-12211980D01*
X-10496753Y-11211980D01*
X-11496753Y-11211980D02*
X-11687229Y-11211980D01*
X-11782467Y-11259600D01*
X-11877705Y-11354838D01*
X-11925324Y-11545314D01*
X-11925324Y-11878647D01*
X-11877705Y-12069123D01*
X-11782467Y-12164361D01*
X-11687229Y-12211980D01*
X-11496753Y-12211980D01*
X-11401515Y-12164361D01*
X-11306277Y-12069123D01*
X-11258658Y-11878647D01*
X-11258658Y-11545314D01*
X-11306277Y-11354838D01*
X-11401515Y-11259600D01*
X-11496753Y-11211980D01*
X-12925324Y-12211980D02*
X-12591991Y-11735790D01*
X-12353896Y-12211980D02*
X-12353896Y-11211980D01*
X-12734848Y-11211980D01*
X-12830086Y-11259600D01*
X-12877705Y-11307219D01*
X-12925324Y-11402457D01*
X-12925324Y-11545314D01*
X-12877705Y-11640552D01*
X-12830086Y-11688171D01*
X-12734848Y-11735790D01*
X-12353896Y-11735790D01*
X-13306277Y-11926266D02*
X-13782467Y-11926266D01*
X-13211039Y-12211980D02*
X-13544372Y-11211980D01*
X-13877705Y-12211980D01*
X-39144962Y-12138961D02*
X-39287820Y-12186580D01*
X-39525915Y-12186580D01*
X-39621153Y-12138961D01*
X-39668772Y-12091342D01*
X-39716391Y-11996104D01*
X-39716391Y-11900866D01*
X-39668772Y-11805628D01*
X-39621153Y-11758009D01*
X-39525915Y-11710390D01*
X-39335439Y-11662771D01*
X-39240200Y-11615152D01*
X-39192581Y-11567533D01*
X-39144962Y-11472295D01*
X-39144962Y-11377057D01*
X-39192581Y-11281819D01*
X-39240200Y-11234200D01*
X-39335439Y-11186580D01*
X-39573534Y-11186580D01*
X-39716391Y-11234200D01*
X-40144962Y-12186580D02*
X-40144962Y-11186580D01*
X-40383058Y-11186580D01*
X-40525915Y-11234200D01*
X-40621153Y-11329438D01*
X-40668772Y-11424676D01*
X-40716391Y-11615152D01*
X-40716391Y-11758009D01*
X-40668772Y-11948485D01*
X-40621153Y-12043723D01*
X-40525915Y-12138961D01*
X-40383058Y-12186580D01*
X-40144962Y-12186580D01*
X-42478296Y-12091342D02*
X-42430677Y-12138961D01*
X-42287820Y-12186580D01*
X-42192581Y-12186580D01*
X-42049724Y-12138961D01*
X-41954486Y-12043723D01*
X-41906867Y-11948485D01*
X-41859248Y-11758009D01*
X-41859248Y-11615152D01*
X-41906867Y-11424676D01*
X-41954486Y-11329438D01*
X-42049724Y-11234200D01*
X-42192581Y-11186580D01*
X-42287820Y-11186580D01*
X-42430677Y-11234200D01*
X-42478296Y-11281819D01*
X-42859248Y-11900866D02*
X-43335439Y-11900866D01*
X-42764010Y-12186580D02*
X-43097343Y-11186580D01*
X-43430677Y-12186580D01*
X-44335439Y-12186580D02*
X-44002105Y-11710390D01*
X-43764010Y-12186580D02*
X-43764010Y-11186580D01*
X-44144962Y-11186580D01*
X-44240200Y-11234200D01*
X-44287820Y-11281819D01*
X-44335439Y-11377057D01*
X-44335439Y-11519914D01*
X-44287820Y-11615152D01*
X-44240200Y-11662771D01*
X-44144962Y-11710390D01*
X-43764010Y-11710390D01*
X-44764010Y-12186580D02*
X-44764010Y-11186580D01*
X-45002105Y-11186580D01*
X-45144962Y-11234200D01*
X-45240200Y-11329438D01*
X-45287820Y-11424676D01*
X-45335439Y-11615152D01*
X-45335439Y-11758009D01*
X-45287820Y-11948485D01*
X-45240200Y-12043723D01*
X-45144962Y-12138961D01*
X-45002105Y-12186580D01*
X-44764010Y-12186580D01*
D11*
X-34275200Y-5229390D02*
X-34275200Y-4729390D01*
X-34441867Y-5086533D01*
X-34608534Y-4729390D01*
X-34608534Y-5229390D01*
X-34941867Y-4729390D02*
X-35037105Y-4729390D01*
X-35084724Y-4753200D01*
X-35132343Y-4800819D01*
X-35156153Y-4896057D01*
X-35156153Y-5062723D01*
X-35132343Y-5157961D01*
X-35084724Y-5205580D01*
X-35037105Y-5229390D01*
X-34941867Y-5229390D01*
X-34894248Y-5205580D01*
X-34846629Y-5157961D01*
X-34822820Y-5062723D01*
X-34822820Y-4896057D01*
X-34846629Y-4800819D01*
X-34894248Y-4753200D01*
X-34941867Y-4729390D01*
X-35370439Y-5229390D02*
X-35370439Y-4729390D01*
X-35489486Y-4729390D01*
X-35560915Y-4753200D01*
X-35608534Y-4800819D01*
X-35632343Y-4848438D01*
X-35656153Y-4943676D01*
X-35656153Y-5015104D01*
X-35632343Y-5110342D01*
X-35608534Y-5157961D01*
X-35560915Y-5205580D01*
X-35489486Y-5229390D01*
X-35370439Y-5229390D01*
X-35870439Y-4729390D02*
X-35870439Y-5134152D01*
X-35894248Y-5181771D01*
X-35918058Y-5205580D01*
X-35965677Y-5229390D01*
X-36060915Y-5229390D01*
X-36108534Y-5205580D01*
X-36132343Y-5181771D01*
X-36156153Y-5134152D01*
X-36156153Y-4729390D01*
X-36632343Y-5229390D02*
X-36394248Y-5229390D01*
X-36394248Y-4729390D01*
X-36799010Y-4967485D02*
X-36965677Y-4967485D01*
X-37037105Y-5229390D02*
X-36799010Y-5229390D01*
X-36799010Y-4729390D01*
X-37037105Y-4729390D01*
X-37132343Y-5277009D02*
X-37513296Y-5277009D01*
X-37584724Y-4729390D02*
X-37894248Y-4729390D01*
X-37727581Y-4919866D01*
X-37799010Y-4919866D01*
X-37846629Y-4943676D01*
X-37870439Y-4967485D01*
X-37894248Y-5015104D01*
X-37894248Y-5134152D01*
X-37870439Y-5181771D01*
X-37846629Y-5205580D01*
X-37799010Y-5229390D01*
X-37656153Y-5229390D01*
X-37608534Y-5205580D01*
X-37584724Y-5181771D01*
X-38037105Y-4729390D02*
X-38203772Y-5229390D01*
X-38370439Y-4729390D01*
X-38489486Y-4729390D02*
X-38799010Y-4729390D01*
X-38632343Y-4919866D01*
X-38703772Y-4919866D01*
X-38751391Y-4943676D01*
X-38775200Y-4967485D01*
X-38799010Y-5015104D01*
X-38799010Y-5134152D01*
X-38775200Y-5181771D01*
X-38751391Y-5205580D01*
X-38703772Y-5229390D01*
X-38560915Y-5229390D01*
X-38513296Y-5205580D01*
X-38489486Y-5181771D01*
D10*
X-2529200Y6449229D02*
X-2672058Y6401610D01*
X-2719677Y6353991D01*
X-2767296Y6258753D01*
X-2767296Y6115896D01*
X-2719677Y6020658D01*
X-2672058Y5973039D01*
X-2576820Y5925420D01*
X-2195867Y5925420D01*
X-2195867Y6925420D01*
X-2529200Y6925420D01*
X-2624439Y6877800D01*
X-2672058Y6830181D01*
X-2719677Y6734943D01*
X-2719677Y6639705D01*
X-2672058Y6544467D01*
X-2624439Y6496848D01*
X-2529200Y6449229D01*
X-2195867Y6449229D01*
X-3148248Y6211134D02*
X-3624439Y6211134D01*
X-3053010Y5925420D02*
X-3386343Y6925420D01*
X-3719677Y5925420D01*
X-3910153Y6925420D02*
X-4481581Y6925420D01*
X-4195867Y5925420D02*
X-4195867Y6925420D01*
X-4672058Y6925420D02*
X-5243486Y6925420D01*
X-4957772Y5925420D02*
X-4957772Y6925420D01*
X-5576820Y6449229D02*
X-5910153Y6449229D01*
X-6053010Y5925420D02*
X-5576820Y5925420D01*
X-5576820Y6925420D01*
X-6053010Y6925420D01*
X-7053010Y5925420D02*
X-6719677Y6401610D01*
X-6481581Y5925420D02*
X-6481581Y6925420D01*
X-6862534Y6925420D01*
X-6957772Y6877800D01*
X-7005391Y6830181D01*
X-7053010Y6734943D01*
X-7053010Y6592086D01*
X-7005391Y6496848D01*
X-6957772Y6449229D01*
X-6862534Y6401610D01*
X-6481581Y6401610D01*
X-7672058Y6401610D02*
X-7672058Y5925420D01*
X-7338724Y6925420D02*
X-7672058Y6401610D01*
X-8005391Y6925420D01*
X-2648248Y4769229D02*
X-2791105Y4721610D01*
X-2838724Y4673991D01*
X-2886343Y4578753D01*
X-2886343Y4435896D01*
X-2838724Y4340658D01*
X-2791105Y4293039D01*
X-2695867Y4245420D01*
X-2314915Y4245420D01*
X-2314915Y5245420D01*
X-2648248Y5245420D01*
X-2743486Y5197800D01*
X-2791105Y5150181D01*
X-2838724Y5054943D01*
X-2838724Y4959705D01*
X-2791105Y4864467D01*
X-2743486Y4816848D01*
X-2648248Y4769229D01*
X-2314915Y4769229D01*
X-3267296Y4531134D02*
X-3743486Y4531134D01*
X-3172058Y4245420D02*
X-3505391Y5245420D01*
X-3838724Y4245420D01*
X-4743486Y4340658D02*
X-4695867Y4293039D01*
X-4553010Y4245420D01*
X-4457772Y4245420D01*
X-4314915Y4293039D01*
X-4219677Y4388277D01*
X-4172058Y4483515D01*
X-4124439Y4673991D01*
X-4124439Y4816848D01*
X-4172058Y5007324D01*
X-4219677Y5102562D01*
X-4314915Y5197800D01*
X-4457772Y5245420D01*
X-4553010Y5245420D01*
X-4695867Y5197800D01*
X-4743486Y5150181D01*
X-5172058Y4245420D02*
X-5172058Y5245420D01*
X-5743486Y4245420D02*
X-5314915Y4816848D01*
X-5743486Y5245420D02*
X-5172058Y4673991D01*
X-6172058Y5245420D02*
X-6172058Y4435896D01*
X-6219677Y4340658D01*
X-6267296Y4293039D01*
X-6362534Y4245420D01*
X-6553010Y4245420D01*
X-6648248Y4293039D01*
X-6695867Y4340658D01*
X-6743486Y4435896D01*
X-6743486Y5245420D01*
X-7219677Y4245420D02*
X-7219677Y5245420D01*
X-7600629Y5245420D01*
X-7695867Y5197800D01*
X-7743486Y5150181D01*
X-7791105Y5054943D01*
X-7791105Y4912086D01*
X-7743486Y4816848D01*
X-7695867Y4769229D01*
X-7600629Y4721610D01*
X-7219677Y4721610D01*
X-68211867Y-8519580D02*
X-68449962Y-9519580D01*
X-68640439Y-8805295D01*
X-68830915Y-9519580D01*
X-69069010Y-8519580D01*
X-69449962Y-9519580D02*
X-69449962Y-8519580D01*
X-70259486Y-8995771D02*
X-69926153Y-8995771D01*
X-69926153Y-9519580D02*
X-69926153Y-8519580D01*
X-70402343Y-8519580D01*
X-70783296Y-9519580D02*
X-70783296Y-8519580D01*
D11*
X-32628153Y-10690390D02*
X-32628153Y-10190390D01*
X-32818629Y-10190390D01*
X-32866248Y-10214200D01*
X-32890058Y-10238009D01*
X-32913867Y-10285628D01*
X-32913867Y-10357057D01*
X-32890058Y-10404676D01*
X-32866248Y-10428485D01*
X-32818629Y-10452295D01*
X-32628153Y-10452295D01*
X-33128153Y-10428485D02*
X-33294820Y-10428485D01*
X-33366248Y-10690390D02*
X-33128153Y-10690390D01*
X-33128153Y-10190390D01*
X-33366248Y-10190390D01*
X-33866248Y-10690390D02*
X-33699581Y-10452295D01*
X-33580534Y-10690390D02*
X-33580534Y-10190390D01*
X-33771010Y-10190390D01*
X-33818629Y-10214200D01*
X-33842439Y-10238009D01*
X-33866248Y-10285628D01*
X-33866248Y-10357057D01*
X-33842439Y-10404676D01*
X-33818629Y-10428485D01*
X-33771010Y-10452295D01*
X-33580534Y-10452295D01*
X-34080534Y-10690390D02*
X-34080534Y-10190390D01*
X-34318629Y-10690390D02*
X-34318629Y-10190390D01*
X-34509105Y-10190390D01*
X-34556724Y-10214200D01*
X-34580534Y-10238009D01*
X-34604343Y-10285628D01*
X-34604343Y-10357057D01*
X-34580534Y-10404676D01*
X-34556724Y-10428485D01*
X-34509105Y-10452295D01*
X-34318629Y-10452295D01*
X-34818629Y-10690390D02*
X-34818629Y-10190390D01*
X-34818629Y-10428485D02*
X-35104343Y-10428485D01*
X-35104343Y-10690390D02*
X-35104343Y-10190390D01*
X-35223391Y-10738009D02*
X-35604343Y-10738009D01*
X-35675772Y-10190390D02*
X-35985296Y-10190390D01*
X-35818629Y-10380866D01*
X-35890058Y-10380866D01*
X-35937677Y-10404676D01*
X-35961486Y-10428485D01*
X-35985296Y-10476104D01*
X-35985296Y-10595152D01*
X-35961486Y-10642771D01*
X-35937677Y-10666580D01*
X-35890058Y-10690390D01*
X-35747200Y-10690390D01*
X-35699581Y-10666580D01*
X-35675772Y-10642771D01*
X-36128153Y-10190390D02*
X-36294820Y-10690390D01*
X-36461486Y-10190390D01*
X-36580534Y-10190390D02*
X-36890058Y-10190390D01*
X-36723391Y-10380866D01*
X-36794820Y-10380866D01*
X-36842439Y-10404676D01*
X-36866248Y-10428485D01*
X-36890058Y-10476104D01*
X-36890058Y-10595152D01*
X-36866248Y-10642771D01*
X-36842439Y-10666580D01*
X-36794820Y-10690390D01*
X-36651962Y-10690390D01*
X-36604343Y-10666580D01*
X-36580534Y-10642771D01*
D10*
X-68211867Y31980420D02*
X-68449962Y30980420D01*
X-68640439Y31694705D01*
X-68830915Y30980420D01*
X-69069010Y31980420D01*
X-69449962Y30980420D02*
X-69449962Y31980420D01*
X-70259486Y31504229D02*
X-69926153Y31504229D01*
X-69926153Y30980420D02*
X-69926153Y31980420D01*
X-70402343Y31980420D01*
X-70783296Y30980420D02*
X-70783296Y31980420D01*
X-2529200Y46949229D02*
X-2672058Y46901610D01*
X-2719677Y46853991D01*
X-2767296Y46758753D01*
X-2767296Y46615896D01*
X-2719677Y46520658D01*
X-2672058Y46473039D01*
X-2576820Y46425420D01*
X-2195867Y46425420D01*
X-2195867Y47425420D01*
X-2529200Y47425420D01*
X-2624439Y47377800D01*
X-2672058Y47330181D01*
X-2719677Y47234943D01*
X-2719677Y47139705D01*
X-2672058Y47044467D01*
X-2624439Y46996848D01*
X-2529200Y46949229D01*
X-2195867Y46949229D01*
X-3148248Y46711134D02*
X-3624439Y46711134D01*
X-3053010Y46425420D02*
X-3386343Y47425420D01*
X-3719677Y46425420D01*
X-3910153Y47425420D02*
X-4481581Y47425420D01*
X-4195867Y46425420D02*
X-4195867Y47425420D01*
X-4672058Y47425420D02*
X-5243486Y47425420D01*
X-4957772Y46425420D02*
X-4957772Y47425420D01*
X-5576820Y46949229D02*
X-5910153Y46949229D01*
X-6053010Y46425420D02*
X-5576820Y46425420D01*
X-5576820Y47425420D01*
X-6053010Y47425420D01*
X-7053010Y46425420D02*
X-6719677Y46901610D01*
X-6481581Y46425420D02*
X-6481581Y47425420D01*
X-6862534Y47425420D01*
X-6957772Y47377800D01*
X-7005391Y47330181D01*
X-7053010Y47234943D01*
X-7053010Y47092086D01*
X-7005391Y46996848D01*
X-6957772Y46949229D01*
X-6862534Y46901610D01*
X-6481581Y46901610D01*
X-7672058Y46901610D02*
X-7672058Y46425420D01*
X-7338724Y47425420D02*
X-7672058Y46901610D01*
X-8005391Y47425420D01*
X-2648248Y45269229D02*
X-2791105Y45221610D01*
X-2838724Y45173991D01*
X-2886343Y45078753D01*
X-2886343Y44935896D01*
X-2838724Y44840658D01*
X-2791105Y44793039D01*
X-2695867Y44745420D01*
X-2314915Y44745420D01*
X-2314915Y45745420D01*
X-2648248Y45745420D01*
X-2743486Y45697800D01*
X-2791105Y45650181D01*
X-2838724Y45554943D01*
X-2838724Y45459705D01*
X-2791105Y45364467D01*
X-2743486Y45316848D01*
X-2648248Y45269229D01*
X-2314915Y45269229D01*
X-3267296Y45031134D02*
X-3743486Y45031134D01*
X-3172058Y44745420D02*
X-3505391Y45745420D01*
X-3838724Y44745420D01*
X-4743486Y44840658D02*
X-4695867Y44793039D01*
X-4553010Y44745420D01*
X-4457772Y44745420D01*
X-4314915Y44793039D01*
X-4219677Y44888277D01*
X-4172058Y44983515D01*
X-4124439Y45173991D01*
X-4124439Y45316848D01*
X-4172058Y45507324D01*
X-4219677Y45602562D01*
X-4314915Y45697800D01*
X-4457772Y45745420D01*
X-4553010Y45745420D01*
X-4695867Y45697800D01*
X-4743486Y45650181D01*
X-5172058Y44745420D02*
X-5172058Y45745420D01*
X-5743486Y44745420D02*
X-5314915Y45316848D01*
X-5743486Y45745420D02*
X-5172058Y45173991D01*
X-6172058Y45745420D02*
X-6172058Y44935896D01*
X-6219677Y44840658D01*
X-6267296Y44793039D01*
X-6362534Y44745420D01*
X-6553010Y44745420D01*
X-6648248Y44793039D01*
X-6695867Y44840658D01*
X-6743486Y44935896D01*
X-6743486Y45745420D01*
X-7219677Y44745420D02*
X-7219677Y45745420D01*
X-7600629Y45745420D01*
X-7695867Y45697800D01*
X-7743486Y45650181D01*
X-7791105Y45554943D01*
X-7791105Y45412086D01*
X-7743486Y45316848D01*
X-7695867Y45269229D01*
X-7600629Y45221610D01*
X-7219677Y45221610D01*
D11*
X-32628153Y29809610D02*
X-32628153Y30309610D01*
X-32818629Y30309610D01*
X-32866248Y30285800D01*
X-32890058Y30261991D01*
X-32913867Y30214372D01*
X-32913867Y30142943D01*
X-32890058Y30095324D01*
X-32866248Y30071515D01*
X-32818629Y30047705D01*
X-32628153Y30047705D01*
X-33128153Y30071515D02*
X-33294820Y30071515D01*
X-33366248Y29809610D02*
X-33128153Y29809610D01*
X-33128153Y30309610D01*
X-33366248Y30309610D01*
X-33866248Y29809610D02*
X-33699581Y30047705D01*
X-33580534Y29809610D02*
X-33580534Y30309610D01*
X-33771010Y30309610D01*
X-33818629Y30285800D01*
X-33842439Y30261991D01*
X-33866248Y30214372D01*
X-33866248Y30142943D01*
X-33842439Y30095324D01*
X-33818629Y30071515D01*
X-33771010Y30047705D01*
X-33580534Y30047705D01*
X-34080534Y29809610D02*
X-34080534Y30309610D01*
X-34318629Y29809610D02*
X-34318629Y30309610D01*
X-34509105Y30309610D01*
X-34556724Y30285800D01*
X-34580534Y30261991D01*
X-34604343Y30214372D01*
X-34604343Y30142943D01*
X-34580534Y30095324D01*
X-34556724Y30071515D01*
X-34509105Y30047705D01*
X-34318629Y30047705D01*
X-34818629Y29809610D02*
X-34818629Y30309610D01*
X-34818629Y30071515D02*
X-35104343Y30071515D01*
X-35104343Y29809610D02*
X-35104343Y30309610D01*
X-35223391Y29761991D02*
X-35604343Y29761991D01*
X-35675772Y30309610D02*
X-35985296Y30309610D01*
X-35818629Y30119134D01*
X-35890058Y30119134D01*
X-35937677Y30095324D01*
X-35961486Y30071515D01*
X-35985296Y30023896D01*
X-35985296Y29904848D01*
X-35961486Y29857229D01*
X-35937677Y29833420D01*
X-35890058Y29809610D01*
X-35747200Y29809610D01*
X-35699581Y29833420D01*
X-35675772Y29857229D01*
X-36128153Y30309610D02*
X-36294820Y29809610D01*
X-36461486Y30309610D01*
X-36580534Y30309610D02*
X-36890058Y30309610D01*
X-36723391Y30119134D01*
X-36794820Y30119134D01*
X-36842439Y30095324D01*
X-36866248Y30071515D01*
X-36890058Y30023896D01*
X-36890058Y29904848D01*
X-36866248Y29857229D01*
X-36842439Y29833420D01*
X-36794820Y29809610D01*
X-36651962Y29809610D01*
X-36604343Y29833420D01*
X-36580534Y29857229D01*
X-34275200Y35270610D02*
X-34275200Y35770610D01*
X-34441867Y35413467D01*
X-34608534Y35770610D01*
X-34608534Y35270610D01*
X-34941867Y35770610D02*
X-35037105Y35770610D01*
X-35084724Y35746800D01*
X-35132343Y35699181D01*
X-35156153Y35603943D01*
X-35156153Y35437277D01*
X-35132343Y35342039D01*
X-35084724Y35294420D01*
X-35037105Y35270610D01*
X-34941867Y35270610D01*
X-34894248Y35294420D01*
X-34846629Y35342039D01*
X-34822820Y35437277D01*
X-34822820Y35603943D01*
X-34846629Y35699181D01*
X-34894248Y35746800D01*
X-34941867Y35770610D01*
X-35370439Y35270610D02*
X-35370439Y35770610D01*
X-35489486Y35770610D01*
X-35560915Y35746800D01*
X-35608534Y35699181D01*
X-35632343Y35651562D01*
X-35656153Y35556324D01*
X-35656153Y35484896D01*
X-35632343Y35389658D01*
X-35608534Y35342039D01*
X-35560915Y35294420D01*
X-35489486Y35270610D01*
X-35370439Y35270610D01*
X-35870439Y35770610D02*
X-35870439Y35365848D01*
X-35894248Y35318229D01*
X-35918058Y35294420D01*
X-35965677Y35270610D01*
X-36060915Y35270610D01*
X-36108534Y35294420D01*
X-36132343Y35318229D01*
X-36156153Y35365848D01*
X-36156153Y35770610D01*
X-36632343Y35270610D02*
X-36394248Y35270610D01*
X-36394248Y35770610D01*
X-36799010Y35532515D02*
X-36965677Y35532515D01*
X-37037105Y35270610D02*
X-36799010Y35270610D01*
X-36799010Y35770610D01*
X-37037105Y35770610D01*
X-37132343Y35222991D02*
X-37513296Y35222991D01*
X-37584724Y35770610D02*
X-37894248Y35770610D01*
X-37727581Y35580134D01*
X-37799010Y35580134D01*
X-37846629Y35556324D01*
X-37870439Y35532515D01*
X-37894248Y35484896D01*
X-37894248Y35365848D01*
X-37870439Y35318229D01*
X-37846629Y35294420D01*
X-37799010Y35270610D01*
X-37656153Y35270610D01*
X-37608534Y35294420D01*
X-37584724Y35318229D01*
X-38037105Y35770610D02*
X-38203772Y35270610D01*
X-38370439Y35770610D01*
X-38489486Y35770610D02*
X-38799010Y35770610D01*
X-38632343Y35580134D01*
X-38703772Y35580134D01*
X-38751391Y35556324D01*
X-38775200Y35532515D01*
X-38799010Y35484896D01*
X-38799010Y35365848D01*
X-38775200Y35318229D01*
X-38751391Y35294420D01*
X-38703772Y35270610D01*
X-38560915Y35270610D01*
X-38513296Y35294420D01*
X-38489486Y35318229D01*
D10*
X-39144962Y28361039D02*
X-39287820Y28313420D01*
X-39525915Y28313420D01*
X-39621153Y28361039D01*
X-39668772Y28408658D01*
X-39716391Y28503896D01*
X-39716391Y28599134D01*
X-39668772Y28694372D01*
X-39621153Y28741991D01*
X-39525915Y28789610D01*
X-39335439Y28837229D01*
X-39240200Y28884848D01*
X-39192581Y28932467D01*
X-39144962Y29027705D01*
X-39144962Y29122943D01*
X-39192581Y29218181D01*
X-39240200Y29265800D01*
X-39335439Y29313420D01*
X-39573534Y29313420D01*
X-39716391Y29265800D01*
X-40144962Y28313420D02*
X-40144962Y29313420D01*
X-40383058Y29313420D01*
X-40525915Y29265800D01*
X-40621153Y29170562D01*
X-40668772Y29075324D01*
X-40716391Y28884848D01*
X-40716391Y28741991D01*
X-40668772Y28551515D01*
X-40621153Y28456277D01*
X-40525915Y28361039D01*
X-40383058Y28313420D01*
X-40144962Y28313420D01*
X-42478296Y28408658D02*
X-42430677Y28361039D01*
X-42287820Y28313420D01*
X-42192581Y28313420D01*
X-42049724Y28361039D01*
X-41954486Y28456277D01*
X-41906867Y28551515D01*
X-41859248Y28741991D01*
X-41859248Y28884848D01*
X-41906867Y29075324D01*
X-41954486Y29170562D01*
X-42049724Y29265800D01*
X-42192581Y29313420D01*
X-42287820Y29313420D01*
X-42430677Y29265800D01*
X-42478296Y29218181D01*
X-42859248Y28599134D02*
X-43335439Y28599134D01*
X-42764010Y28313420D02*
X-43097343Y29313420D01*
X-43430677Y28313420D01*
X-44335439Y28313420D02*
X-44002105Y28789610D01*
X-43764010Y28313420D02*
X-43764010Y29313420D01*
X-44144962Y29313420D01*
X-44240200Y29265800D01*
X-44287820Y29218181D01*
X-44335439Y29122943D01*
X-44335439Y28980086D01*
X-44287820Y28884848D01*
X-44240200Y28837229D01*
X-44144962Y28789610D01*
X-43764010Y28789610D01*
X-44764010Y28313420D02*
X-44764010Y29313420D01*
X-45002105Y29313420D01*
X-45144962Y29265800D01*
X-45240200Y29170562D01*
X-45287820Y29075324D01*
X-45335439Y28884848D01*
X-45335439Y28741991D01*
X-45287820Y28551515D01*
X-45240200Y28456277D01*
X-45144962Y28361039D01*
X-45002105Y28313420D01*
X-44764010Y28313420D01*
X-10972943Y28288020D02*
X-10496753Y28288020D01*
X-10496753Y29288020D01*
X-11496753Y29288020D02*
X-11687229Y29288020D01*
X-11782467Y29240400D01*
X-11877705Y29145162D01*
X-11925324Y28954686D01*
X-11925324Y28621353D01*
X-11877705Y28430877D01*
X-11782467Y28335639D01*
X-11687229Y28288020D01*
X-11496753Y28288020D01*
X-11401515Y28335639D01*
X-11306277Y28430877D01*
X-11258658Y28621353D01*
X-11258658Y28954686D01*
X-11306277Y29145162D01*
X-11401515Y29240400D01*
X-11496753Y29288020D01*
X-12925324Y28288020D02*
X-12591991Y28764210D01*
X-12353896Y28288020D02*
X-12353896Y29288020D01*
X-12734848Y29288020D01*
X-12830086Y29240400D01*
X-12877705Y29192781D01*
X-12925324Y29097543D01*
X-12925324Y28954686D01*
X-12877705Y28859448D01*
X-12830086Y28811829D01*
X-12734848Y28764210D01*
X-12353896Y28764210D01*
X-13306277Y28573734D02*
X-13782467Y28573734D01*
X-13211039Y28288020D02*
X-13544372Y29288020D01*
X-13877705Y28288020D01*
X19180085Y42346800D02*
X19275323Y42394420D01*
X19418180Y42394420D01*
X19561038Y42346800D01*
X19656276Y42251562D01*
X19703895Y42156324D01*
X19751514Y41965848D01*
X19751514Y41822991D01*
X19703895Y41632515D01*
X19656276Y41537277D01*
X19561038Y41442039D01*
X19418180Y41394420D01*
X19322942Y41394420D01*
X19180085Y41442039D01*
X19132466Y41489658D01*
X19132466Y41822991D01*
X19322942Y41822991D01*
X18703895Y41394420D02*
X18703895Y42394420D01*
X18322942Y42394420D01*
X18227704Y42346800D01*
X18180085Y42299181D01*
X18132466Y42203943D01*
X18132466Y42061086D01*
X18180085Y41965848D01*
X18227704Y41918229D01*
X18322942Y41870610D01*
X18703895Y41870610D01*
X17751514Y41442039D02*
X17608657Y41394420D01*
X17370561Y41394420D01*
X17275323Y41442039D01*
X17227704Y41489658D01*
X17180085Y41584896D01*
X17180085Y41680134D01*
X17227704Y41775372D01*
X17275323Y41822991D01*
X17370561Y41870610D01*
X17561038Y41918229D01*
X17656276Y41965848D01*
X17703895Y42013467D01*
X17751514Y42108705D01*
X17751514Y42203943D01*
X17703895Y42299181D01*
X17656276Y42346800D01*
X17561038Y42394420D01*
X17322942Y42394420D01*
X17180085Y42346800D01*
D11*
X8654895Y34095800D02*
X8702514Y34119610D01*
X8773942Y34119610D01*
X8845371Y34095800D01*
X8892990Y34048181D01*
X8916800Y34000562D01*
X8940609Y33905324D01*
X8940609Y33833896D01*
X8916800Y33738658D01*
X8892990Y33691039D01*
X8845371Y33643420D01*
X8773942Y33619610D01*
X8726323Y33619610D01*
X8654895Y33643420D01*
X8631085Y33667229D01*
X8631085Y33833896D01*
X8726323Y33833896D01*
X8416800Y33619610D02*
X8416800Y34119610D01*
X8226323Y34119610D01*
X8178704Y34095800D01*
X8154895Y34071991D01*
X8131085Y34024372D01*
X8131085Y33952943D01*
X8154895Y33905324D01*
X8178704Y33881515D01*
X8226323Y33857705D01*
X8416800Y33857705D01*
X7940609Y33643420D02*
X7869180Y33619610D01*
X7750133Y33619610D01*
X7702514Y33643420D01*
X7678704Y33667229D01*
X7654895Y33714848D01*
X7654895Y33762467D01*
X7678704Y33810086D01*
X7702514Y33833896D01*
X7750133Y33857705D01*
X7845371Y33881515D01*
X7892990Y33905324D01*
X7916800Y33929134D01*
X7940609Y33976753D01*
X7940609Y34024372D01*
X7916800Y34071991D01*
X7892990Y34095800D01*
X7845371Y34119610D01*
X7726323Y34119610D01*
X7654895Y34095800D01*
X7559657Y33571991D02*
X7178704Y33571991D01*
X7107276Y34119610D02*
X6797752Y34119610D01*
X6964419Y33929134D01*
X6892990Y33929134D01*
X6845371Y33905324D01*
X6821561Y33881515D01*
X6797752Y33833896D01*
X6797752Y33714848D01*
X6821561Y33667229D01*
X6845371Y33643420D01*
X6892990Y33619610D01*
X7035847Y33619610D01*
X7083466Y33643420D01*
X7107276Y33667229D01*
X6654895Y34119610D02*
X6488228Y33619610D01*
X6321561Y34119610D01*
X6202514Y34119610D02*
X5892990Y34119610D01*
X6059657Y33929134D01*
X5988228Y33929134D01*
X5940609Y33905324D01*
X5916800Y33881515D01*
X5892990Y33833896D01*
X5892990Y33714848D01*
X5916800Y33667229D01*
X5940609Y33643420D01*
X5988228Y33619610D01*
X6131085Y33619610D01*
X6178704Y33643420D01*
X6202514Y33667229D01*
X-34275200Y75770610D02*
X-34275200Y76270610D01*
X-34441867Y75913467D01*
X-34608534Y76270610D01*
X-34608534Y75770610D01*
X-34941867Y76270610D02*
X-35037105Y76270610D01*
X-35084724Y76246800D01*
X-35132343Y76199181D01*
X-35156153Y76103943D01*
X-35156153Y75937277D01*
X-35132343Y75842039D01*
X-35084724Y75794420D01*
X-35037105Y75770610D01*
X-34941867Y75770610D01*
X-34894248Y75794420D01*
X-34846629Y75842039D01*
X-34822820Y75937277D01*
X-34822820Y76103943D01*
X-34846629Y76199181D01*
X-34894248Y76246800D01*
X-34941867Y76270610D01*
X-35370439Y75770610D02*
X-35370439Y76270610D01*
X-35489486Y76270610D01*
X-35560915Y76246800D01*
X-35608534Y76199181D01*
X-35632343Y76151562D01*
X-35656153Y76056324D01*
X-35656153Y75984896D01*
X-35632343Y75889658D01*
X-35608534Y75842039D01*
X-35560915Y75794420D01*
X-35489486Y75770610D01*
X-35370439Y75770610D01*
X-35870439Y76270610D02*
X-35870439Y75865848D01*
X-35894248Y75818229D01*
X-35918058Y75794420D01*
X-35965677Y75770610D01*
X-36060915Y75770610D01*
X-36108534Y75794420D01*
X-36132343Y75818229D01*
X-36156153Y75865848D01*
X-36156153Y76270610D01*
X-36632343Y75770610D02*
X-36394248Y75770610D01*
X-36394248Y76270610D01*
X-36799010Y76032515D02*
X-36965677Y76032515D01*
X-37037105Y75770610D02*
X-36799010Y75770610D01*
X-36799010Y76270610D01*
X-37037105Y76270610D01*
X-37132343Y75722991D02*
X-37513296Y75722991D01*
X-37584724Y76270610D02*
X-37894248Y76270610D01*
X-37727581Y76080134D01*
X-37799010Y76080134D01*
X-37846629Y76056324D01*
X-37870439Y76032515D01*
X-37894248Y75984896D01*
X-37894248Y75865848D01*
X-37870439Y75818229D01*
X-37846629Y75794420D01*
X-37799010Y75770610D01*
X-37656153Y75770610D01*
X-37608534Y75794420D01*
X-37584724Y75818229D01*
X-38037105Y76270610D02*
X-38203772Y75770610D01*
X-38370439Y76270610D01*
X-38489486Y76270610D02*
X-38799010Y76270610D01*
X-38632343Y76080134D01*
X-38703772Y76080134D01*
X-38751391Y76056324D01*
X-38775200Y76032515D01*
X-38799010Y75984896D01*
X-38799010Y75865848D01*
X-38775200Y75818229D01*
X-38751391Y75794420D01*
X-38703772Y75770610D01*
X-38560915Y75770610D01*
X-38513296Y75794420D01*
X-38489486Y75818229D01*
X-32628153Y70309610D02*
X-32628153Y70809610D01*
X-32818629Y70809610D01*
X-32866248Y70785800D01*
X-32890058Y70761991D01*
X-32913867Y70714372D01*
X-32913867Y70642943D01*
X-32890058Y70595324D01*
X-32866248Y70571515D01*
X-32818629Y70547705D01*
X-32628153Y70547705D01*
X-33128153Y70571515D02*
X-33294820Y70571515D01*
X-33366248Y70309610D02*
X-33128153Y70309610D01*
X-33128153Y70809610D01*
X-33366248Y70809610D01*
X-33866248Y70309610D02*
X-33699581Y70547705D01*
X-33580534Y70309610D02*
X-33580534Y70809610D01*
X-33771010Y70809610D01*
X-33818629Y70785800D01*
X-33842439Y70761991D01*
X-33866248Y70714372D01*
X-33866248Y70642943D01*
X-33842439Y70595324D01*
X-33818629Y70571515D01*
X-33771010Y70547705D01*
X-33580534Y70547705D01*
X-34080534Y70309610D02*
X-34080534Y70809610D01*
X-34318629Y70309610D02*
X-34318629Y70809610D01*
X-34509105Y70809610D01*
X-34556724Y70785800D01*
X-34580534Y70761991D01*
X-34604343Y70714372D01*
X-34604343Y70642943D01*
X-34580534Y70595324D01*
X-34556724Y70571515D01*
X-34509105Y70547705D01*
X-34318629Y70547705D01*
X-34818629Y70309610D02*
X-34818629Y70809610D01*
X-34818629Y70571515D02*
X-35104343Y70571515D01*
X-35104343Y70309610D02*
X-35104343Y70809610D01*
X-35223391Y70261991D02*
X-35604343Y70261991D01*
X-35675772Y70809610D02*
X-35985296Y70809610D01*
X-35818629Y70619134D01*
X-35890058Y70619134D01*
X-35937677Y70595324D01*
X-35961486Y70571515D01*
X-35985296Y70523896D01*
X-35985296Y70404848D01*
X-35961486Y70357229D01*
X-35937677Y70333420D01*
X-35890058Y70309610D01*
X-35747200Y70309610D01*
X-35699581Y70333420D01*
X-35675772Y70357229D01*
X-36128153Y70809610D02*
X-36294820Y70309610D01*
X-36461486Y70809610D01*
X-36580534Y70809610D02*
X-36890058Y70809610D01*
X-36723391Y70619134D01*
X-36794820Y70619134D01*
X-36842439Y70595324D01*
X-36866248Y70571515D01*
X-36890058Y70523896D01*
X-36890058Y70404848D01*
X-36866248Y70357229D01*
X-36842439Y70333420D01*
X-36794820Y70309610D01*
X-36651962Y70309610D01*
X-36604343Y70333420D01*
X-36580534Y70357229D01*
X8654895Y74595800D02*
X8702514Y74619610D01*
X8773942Y74619610D01*
X8845371Y74595800D01*
X8892990Y74548181D01*
X8916800Y74500562D01*
X8940609Y74405324D01*
X8940609Y74333896D01*
X8916800Y74238658D01*
X8892990Y74191039D01*
X8845371Y74143420D01*
X8773942Y74119610D01*
X8726323Y74119610D01*
X8654895Y74143420D01*
X8631085Y74167229D01*
X8631085Y74333896D01*
X8726323Y74333896D01*
X8416800Y74119610D02*
X8416800Y74619610D01*
X8226323Y74619610D01*
X8178704Y74595800D01*
X8154895Y74571991D01*
X8131085Y74524372D01*
X8131085Y74452943D01*
X8154895Y74405324D01*
X8178704Y74381515D01*
X8226323Y74357705D01*
X8416800Y74357705D01*
X7940609Y74143420D02*
X7869180Y74119610D01*
X7750133Y74119610D01*
X7702514Y74143420D01*
X7678704Y74167229D01*
X7654895Y74214848D01*
X7654895Y74262467D01*
X7678704Y74310086D01*
X7702514Y74333896D01*
X7750133Y74357705D01*
X7845371Y74381515D01*
X7892990Y74405324D01*
X7916800Y74429134D01*
X7940609Y74476753D01*
X7940609Y74524372D01*
X7916800Y74571991D01*
X7892990Y74595800D01*
X7845371Y74619610D01*
X7726323Y74619610D01*
X7654895Y74595800D01*
X7559657Y74071991D02*
X7178704Y74071991D01*
X7107276Y74619610D02*
X6797752Y74619610D01*
X6964419Y74429134D01*
X6892990Y74429134D01*
X6845371Y74405324D01*
X6821561Y74381515D01*
X6797752Y74333896D01*
X6797752Y74214848D01*
X6821561Y74167229D01*
X6845371Y74143420D01*
X6892990Y74119610D01*
X7035847Y74119610D01*
X7083466Y74143420D01*
X7107276Y74167229D01*
X6654895Y74619610D02*
X6488228Y74119610D01*
X6321561Y74619610D01*
X6202514Y74619610D02*
X5892990Y74619610D01*
X6059657Y74429134D01*
X5988228Y74429134D01*
X5940609Y74405324D01*
X5916800Y74381515D01*
X5892990Y74333896D01*
X5892990Y74214848D01*
X5916800Y74167229D01*
X5940609Y74143420D01*
X5988228Y74119610D01*
X6131085Y74119610D01*
X6178704Y74143420D01*
X6202514Y74167229D01*
D10*
X-39144962Y68861039D02*
X-39287820Y68813420D01*
X-39525915Y68813420D01*
X-39621153Y68861039D01*
X-39668772Y68908658D01*
X-39716391Y69003896D01*
X-39716391Y69099134D01*
X-39668772Y69194372D01*
X-39621153Y69241991D01*
X-39525915Y69289610D01*
X-39335439Y69337229D01*
X-39240200Y69384848D01*
X-39192581Y69432467D01*
X-39144962Y69527705D01*
X-39144962Y69622943D01*
X-39192581Y69718181D01*
X-39240200Y69765800D01*
X-39335439Y69813420D01*
X-39573534Y69813420D01*
X-39716391Y69765800D01*
X-40144962Y68813420D02*
X-40144962Y69813420D01*
X-40383058Y69813420D01*
X-40525915Y69765800D01*
X-40621153Y69670562D01*
X-40668772Y69575324D01*
X-40716391Y69384848D01*
X-40716391Y69241991D01*
X-40668772Y69051515D01*
X-40621153Y68956277D01*
X-40525915Y68861039D01*
X-40383058Y68813420D01*
X-40144962Y68813420D01*
X-42478296Y68908658D02*
X-42430677Y68861039D01*
X-42287820Y68813420D01*
X-42192581Y68813420D01*
X-42049724Y68861039D01*
X-41954486Y68956277D01*
X-41906867Y69051515D01*
X-41859248Y69241991D01*
X-41859248Y69384848D01*
X-41906867Y69575324D01*
X-41954486Y69670562D01*
X-42049724Y69765800D01*
X-42192581Y69813420D01*
X-42287820Y69813420D01*
X-42430677Y69765800D01*
X-42478296Y69718181D01*
X-42859248Y69099134D02*
X-43335439Y69099134D01*
X-42764010Y68813420D02*
X-43097343Y69813420D01*
X-43430677Y68813420D01*
X-44335439Y68813420D02*
X-44002105Y69289610D01*
X-43764010Y68813420D02*
X-43764010Y69813420D01*
X-44144962Y69813420D01*
X-44240200Y69765800D01*
X-44287820Y69718181D01*
X-44335439Y69622943D01*
X-44335439Y69480086D01*
X-44287820Y69384848D01*
X-44240200Y69337229D01*
X-44144962Y69289610D01*
X-43764010Y69289610D01*
X-44764010Y68813420D02*
X-44764010Y69813420D01*
X-45002105Y69813420D01*
X-45144962Y69765800D01*
X-45240200Y69670562D01*
X-45287820Y69575324D01*
X-45335439Y69384848D01*
X-45335439Y69241991D01*
X-45287820Y69051515D01*
X-45240200Y68956277D01*
X-45144962Y68861039D01*
X-45002105Y68813420D01*
X-44764010Y68813420D01*
X-68211867Y72480420D02*
X-68449962Y71480420D01*
X-68640439Y72194705D01*
X-68830915Y71480420D01*
X-69069010Y72480420D01*
X-69449962Y71480420D02*
X-69449962Y72480420D01*
X-70259486Y72004229D02*
X-69926153Y72004229D01*
X-69926153Y71480420D02*
X-69926153Y72480420D01*
X-70402343Y72480420D01*
X-70783296Y71480420D02*
X-70783296Y72480420D01*
X-10972943Y68788020D02*
X-10496753Y68788020D01*
X-10496753Y69788020D01*
X-11496753Y69788020D02*
X-11687229Y69788020D01*
X-11782467Y69740400D01*
X-11877705Y69645162D01*
X-11925324Y69454686D01*
X-11925324Y69121353D01*
X-11877705Y68930877D01*
X-11782467Y68835639D01*
X-11687229Y68788020D01*
X-11496753Y68788020D01*
X-11401515Y68835639D01*
X-11306277Y68930877D01*
X-11258658Y69121353D01*
X-11258658Y69454686D01*
X-11306277Y69645162D01*
X-11401515Y69740400D01*
X-11496753Y69788020D01*
X-12925324Y68788020D02*
X-12591991Y69264210D01*
X-12353896Y68788020D02*
X-12353896Y69788020D01*
X-12734848Y69788020D01*
X-12830086Y69740400D01*
X-12877705Y69692781D01*
X-12925324Y69597543D01*
X-12925324Y69454686D01*
X-12877705Y69359448D01*
X-12830086Y69311829D01*
X-12734848Y69264210D01*
X-12353896Y69264210D01*
X-13306277Y69073734D02*
X-13782467Y69073734D01*
X-13211039Y68788020D02*
X-13544372Y69788020D01*
X-13877705Y68788020D01*
X19180085Y82846800D02*
X19275323Y82894420D01*
X19418180Y82894420D01*
X19561038Y82846800D01*
X19656276Y82751562D01*
X19703895Y82656324D01*
X19751514Y82465848D01*
X19751514Y82322991D01*
X19703895Y82132515D01*
X19656276Y82037277D01*
X19561038Y81942039D01*
X19418180Y81894420D01*
X19322942Y81894420D01*
X19180085Y81942039D01*
X19132466Y81989658D01*
X19132466Y82322991D01*
X19322942Y82322991D01*
X18703895Y81894420D02*
X18703895Y82894420D01*
X18322942Y82894420D01*
X18227704Y82846800D01*
X18180085Y82799181D01*
X18132466Y82703943D01*
X18132466Y82561086D01*
X18180085Y82465848D01*
X18227704Y82418229D01*
X18322942Y82370610D01*
X18703895Y82370610D01*
X17751514Y81942039D02*
X17608657Y81894420D01*
X17370561Y81894420D01*
X17275323Y81942039D01*
X17227704Y81989658D01*
X17180085Y82084896D01*
X17180085Y82180134D01*
X17227704Y82275372D01*
X17275323Y82322991D01*
X17370561Y82370610D01*
X17561038Y82418229D01*
X17656276Y82465848D01*
X17703895Y82513467D01*
X17751514Y82608705D01*
X17751514Y82703943D01*
X17703895Y82799181D01*
X17656276Y82846800D01*
X17561038Y82894420D01*
X17322942Y82894420D01*
X17180085Y82846800D01*
X-2529200Y87449229D02*
X-2672058Y87401610D01*
X-2719677Y87353991D01*
X-2767296Y87258753D01*
X-2767296Y87115896D01*
X-2719677Y87020658D01*
X-2672058Y86973039D01*
X-2576820Y86925420D01*
X-2195867Y86925420D01*
X-2195867Y87925420D01*
X-2529200Y87925420D01*
X-2624439Y87877800D01*
X-2672058Y87830181D01*
X-2719677Y87734943D01*
X-2719677Y87639705D01*
X-2672058Y87544467D01*
X-2624439Y87496848D01*
X-2529200Y87449229D01*
X-2195867Y87449229D01*
X-3148248Y87211134D02*
X-3624439Y87211134D01*
X-3053010Y86925420D02*
X-3386343Y87925420D01*
X-3719677Y86925420D01*
X-3910153Y87925420D02*
X-4481581Y87925420D01*
X-4195867Y86925420D02*
X-4195867Y87925420D01*
X-4672058Y87925420D02*
X-5243486Y87925420D01*
X-4957772Y86925420D02*
X-4957772Y87925420D01*
X-5576820Y87449229D02*
X-5910153Y87449229D01*
X-6053010Y86925420D02*
X-5576820Y86925420D01*
X-5576820Y87925420D01*
X-6053010Y87925420D01*
X-7053010Y86925420D02*
X-6719677Y87401610D01*
X-6481581Y86925420D02*
X-6481581Y87925420D01*
X-6862534Y87925420D01*
X-6957772Y87877800D01*
X-7005391Y87830181D01*
X-7053010Y87734943D01*
X-7053010Y87592086D01*
X-7005391Y87496848D01*
X-6957772Y87449229D01*
X-6862534Y87401610D01*
X-6481581Y87401610D01*
X-7672058Y87401610D02*
X-7672058Y86925420D01*
X-7338724Y87925420D02*
X-7672058Y87401610D01*
X-8005391Y87925420D01*
X-2648248Y85769229D02*
X-2791105Y85721610D01*
X-2838724Y85673991D01*
X-2886343Y85578753D01*
X-2886343Y85435896D01*
X-2838724Y85340658D01*
X-2791105Y85293039D01*
X-2695867Y85245420D01*
X-2314915Y85245420D01*
X-2314915Y86245420D01*
X-2648248Y86245420D01*
X-2743486Y86197800D01*
X-2791105Y86150181D01*
X-2838724Y86054943D01*
X-2838724Y85959705D01*
X-2791105Y85864467D01*
X-2743486Y85816848D01*
X-2648248Y85769229D01*
X-2314915Y85769229D01*
X-3267296Y85531134D02*
X-3743486Y85531134D01*
X-3172058Y85245420D02*
X-3505391Y86245420D01*
X-3838724Y85245420D01*
X-4743486Y85340658D02*
X-4695867Y85293039D01*
X-4553010Y85245420D01*
X-4457772Y85245420D01*
X-4314915Y85293039D01*
X-4219677Y85388277D01*
X-4172058Y85483515D01*
X-4124439Y85673991D01*
X-4124439Y85816848D01*
X-4172058Y86007324D01*
X-4219677Y86102562D01*
X-4314915Y86197800D01*
X-4457772Y86245420D01*
X-4553010Y86245420D01*
X-4695867Y86197800D01*
X-4743486Y86150181D01*
X-5172058Y85245420D02*
X-5172058Y86245420D01*
X-5743486Y85245420D02*
X-5314915Y85816848D01*
X-5743486Y86245420D02*
X-5172058Y85673991D01*
X-6172058Y86245420D02*
X-6172058Y85435896D01*
X-6219677Y85340658D01*
X-6267296Y85293039D01*
X-6362534Y85245420D01*
X-6553010Y85245420D01*
X-6648248Y85293039D01*
X-6695867Y85340658D01*
X-6743486Y85435896D01*
X-6743486Y86245420D01*
X-7219677Y85245420D02*
X-7219677Y86245420D01*
X-7600629Y86245420D01*
X-7695867Y86197800D01*
X-7743486Y86150181D01*
X-7791105Y86054943D01*
X-7791105Y85912086D01*
X-7743486Y85816848D01*
X-7695867Y85769229D01*
X-7600629Y85721610D01*
X-7219677Y85721610D01*
D12*
G04 #@! TO.C,J18*
X-18459600Y-43318800D02*
G75*
G03X-18459600Y-43318800I-1200000J0D01*
G01*
G04 #@! TO.C,J19*
X-22549000Y-43268000D02*
G75*
G03X-22549000Y-43268000I-1200000J0D01*
G01*
D13*
G04 #@! TO.C,M7*
X-46055280Y-69529060D02*
G75*
G02X-47353220Y-68429240I-99060J1198880D01*
G01*
X-35653980Y-68330180D02*
G75*
G02X-36852860Y-69529060I-1198880J0D01*
G01*
X-48254920Y-68769600D02*
G75*
G02X-46654720Y-67169400I1600200J0D01*
G01*
X-36951920Y-67169400D02*
G75*
G02X-36253420Y-68071100I-101600J-800100D01*
G01*
X-36852860Y-69529060D02*
X-46052740Y-69529060D01*
X-36954460Y-67169400D02*
X-46654720Y-67169400D01*
X-35255200Y-53669300D02*
X-35255200Y-68071100D01*
X-49253140Y-53669300D02*
X-35255200Y-53669300D01*
X-49253140Y-68769600D02*
X-49253140Y-53669300D01*
D14*
G04 #@! TO.C,J14*
X-37769800Y-44944400D02*
X-34975800Y-44944400D01*
X-38023800Y-43166400D02*
X-38023800Y-44690400D01*
X-34721800Y-43166400D02*
X-34721800Y-44690400D01*
X-34721800Y-43166400D02*
G75*
G03X-34975800Y-42912400I-254000J0D01*
G01*
X-37769800Y-42912400D02*
G75*
G03X-38023800Y-43166400I0J-254000D01*
G01*
X-37769800Y-44944400D02*
G75*
G02X-38023800Y-44690400I0J254000D01*
G01*
X-34721800Y-44690400D02*
G75*
G02X-34975800Y-44944400I-254000J0D01*
G01*
X-34975800Y-42912400D02*
X-37769800Y-42912400D01*
D15*
G04 #@! TO.C,R30*
X-9232200Y-35887800D02*
X-12432200Y-35887800D01*
X-12432200Y-37287800D02*
X-9232200Y-37287800D01*
X-9232200Y-37287800D02*
X-9232200Y-35887800D01*
X-12432200Y-37287800D02*
X-12432200Y-35887800D01*
G04 #@! TO.C,R23*
X-9220400Y-34363800D02*
X-12420400Y-34363800D01*
X-12420400Y-35763800D02*
X-9220400Y-35763800D01*
X-9220400Y-35763800D02*
X-9220400Y-34363800D01*
X-12420400Y-35763800D02*
X-12420400Y-34363800D01*
G04 #@! TO.C,U14*
X-42872400Y-45209200D02*
X-42872400Y-40209200D01*
X-48872400Y-45209200D02*
X-42872400Y-45209200D01*
X-48872400Y-40209200D02*
X-48872400Y-45209200D01*
X-48872400Y-40209200D02*
X-42872400Y-40209200D01*
D14*
G04 #@! TO.C,J2*
X-33223200Y-51472200D02*
X-36017200Y-51472200D01*
X-32969200Y-53250200D02*
X-32969200Y-51726200D01*
X-36271200Y-53250200D02*
X-36271200Y-51726200D01*
X-36271200Y-53250200D02*
G75*
G03X-36017200Y-53504200I254000J0D01*
G01*
X-33223200Y-53504200D02*
G75*
G03X-32969200Y-53250200I0J254000D01*
G01*
X-33223200Y-51472200D02*
G75*
G02X-32969200Y-51726200I0J-254000D01*
G01*
X-36271200Y-51726200D02*
G75*
G02X-36017200Y-51472200I254000J0D01*
G01*
X-36017200Y-53504200D02*
X-33223200Y-53504200D01*
D15*
G04 #@! TO.C,U3*
X-20141200Y-53171200D02*
X-4141200Y-53171200D01*
X-20141200Y-69171200D02*
X-4141200Y-69171200D01*
D16*
X-20670489Y-69271200D02*
G75*
G03X-20670489Y-69271200I-70711J0D01*
G01*
D15*
G04 #@! TO.C,J9*
X-14006200Y-32286200D02*
X-15606200Y-32286200D01*
X-17626200Y-32286200D02*
X-19226200Y-32286200D01*
X-15616200Y-32286200D02*
X-17616200Y-32286200D01*
D11*
G04 #@! TO.C,U1*
X-73293300Y-65314460D02*
X-73293300Y-50584460D01*
X-51573300Y-65314460D02*
X-73293300Y-65314460D01*
X-51573300Y-50584460D02*
X-51573300Y-65314460D01*
X-73293300Y-50584460D02*
X-51573300Y-50584460D01*
G04 #@! TO.C,BT1*
X857921Y-49051596D02*
X1899604Y-49051596D01*
X1899604Y-49051596D02*
X1899604Y-44139293D01*
X1899604Y-36064927D02*
X857921Y-36064927D01*
X857921Y-44065265D02*
X857921Y-49051596D01*
X1899604Y-40971942D02*
X1899604Y-36064927D01*
X857921Y-36064927D02*
X857921Y-41051258D01*
X1899604Y-44139293D02*
X1899604Y-44134005D01*
D14*
G04 #@! TO.C,J12*
X27736800Y-61759200D02*
X27736800Y-58965200D01*
X25958800Y-62013200D02*
X27482800Y-62013200D01*
X25958800Y-58711200D02*
X27482800Y-58711200D01*
X25958800Y-58711200D02*
G75*
G03X25704800Y-58965200I0J-254000D01*
G01*
X25704800Y-61759200D02*
G75*
G03X25958800Y-62013200I254000J0D01*
G01*
X27736800Y-61759200D02*
G75*
G02X27482800Y-62013200I-254000J0D01*
G01*
X27482800Y-58711200D02*
G75*
G02X27736800Y-58965200I0J-254000D01*
G01*
X25704800Y-58965200D02*
X25704800Y-61759200D01*
D17*
G04 #@! TO.C,U10*
X10642600Y-40347000D02*
X10642600Y-48348000D01*
X26644600Y-40347000D02*
X10642600Y-40347000D01*
X26644600Y-42348520D02*
X26644600Y-40347000D01*
X26644600Y-56349000D02*
X26644600Y-42348520D01*
X10642600Y-56349000D02*
X26644600Y-56349000D01*
X10642600Y-48348000D02*
X10642600Y-56349000D01*
D15*
X10261600Y-55968000D02*
G75*
G03X10261600Y-55968000I-254000J0D01*
G01*
G04 #@! TO.C,R31*
X-24866476Y-36671505D02*
X-21666476Y-36671505D01*
X-21666476Y-35271505D02*
X-24866476Y-35271505D01*
X-24866476Y-35271505D02*
X-24866476Y-36671505D01*
X-21666476Y-35271505D02*
X-21666476Y-36671505D01*
G04 #@! TO.C,R26*
X-30669000Y-37984600D02*
X-32069000Y-37984600D01*
X-30669000Y-34784600D02*
X-32069000Y-34784600D01*
X-30669000Y-37984600D02*
X-30669000Y-34784600D01*
X-32069000Y-34784600D02*
X-32069000Y-37984600D01*
D14*
G04 #@! TO.C,J1*
X8813800Y-47662200D02*
X6019800Y-47662200D01*
X9067800Y-49440200D02*
X9067800Y-47916200D01*
X5765800Y-49440200D02*
X5765800Y-47916200D01*
X5765800Y-49440200D02*
G75*
G03X6019800Y-49694200I254000J0D01*
G01*
X8813800Y-49694200D02*
G75*
G03X9067800Y-49440200I0J254000D01*
G01*
X8813800Y-47662200D02*
G75*
G02X9067800Y-47916200I0J-254000D01*
G01*
X5765800Y-47916200D02*
G75*
G02X6019800Y-47662200I254000J0D01*
G01*
X6019800Y-49694200D02*
X8813800Y-49694200D01*
D15*
G04 #@! TO.C,R27*
X-29145000Y-37959200D02*
X-30545000Y-37959200D01*
X-29145000Y-34759200D02*
X-30545000Y-34759200D01*
X-29145000Y-37959200D02*
X-29145000Y-34759200D01*
X-30545000Y-34759200D02*
X-30545000Y-37959200D01*
G04 #@! TO.C,C14*
X-21666476Y-36922505D02*
X-21666476Y-38322505D01*
X-24866476Y-36922505D02*
X-24866476Y-38322505D01*
X-21666476Y-36922505D02*
X-24866476Y-36922505D01*
X-24866476Y-38322505D02*
X-21666476Y-38322505D01*
D12*
G04 #@! TO.C,J19*
X-22549000Y-2768000D02*
G75*
G03X-22549000Y-2768000I-1200000J0D01*
G01*
D13*
G04 #@! TO.C,M7*
X-49253140Y-28269600D02*
X-49253140Y-13169300D01*
X-49253140Y-13169300D02*
X-35255200Y-13169300D01*
X-35255200Y-13169300D02*
X-35255200Y-27571100D01*
X-36954460Y-26669400D02*
X-46654720Y-26669400D01*
X-36852860Y-29029060D02*
X-46052740Y-29029060D01*
X-36951920Y-26669400D02*
G75*
G02X-36253420Y-27571100I-101600J-800100D01*
G01*
X-48254920Y-28269600D02*
G75*
G02X-46654720Y-26669400I1600200J0D01*
G01*
X-35653980Y-27830180D02*
G75*
G02X-36852860Y-29029060I-1198880J0D01*
G01*
X-46055280Y-29029060D02*
G75*
G02X-47353220Y-27929240I-99060J1198880D01*
G01*
D12*
G04 #@! TO.C,J18*
X-18459600Y-2818800D02*
G75*
G03X-18459600Y-2818800I-1200000J0D01*
G01*
D15*
G04 #@! TO.C,J9*
X-15616200Y8213800D02*
X-17616200Y8213800D01*
X-17626200Y8213800D02*
X-19226200Y8213800D01*
X-14006200Y8213800D02*
X-15606200Y8213800D01*
D11*
G04 #@! TO.C,U1*
X-73293300Y-10084460D02*
X-51573300Y-10084460D01*
X-51573300Y-10084460D02*
X-51573300Y-24814460D01*
X-51573300Y-24814460D02*
X-73293300Y-24814460D01*
X-73293300Y-24814460D02*
X-73293300Y-10084460D01*
D14*
G04 #@! TO.C,J12*
X25704800Y-18465200D02*
X25704800Y-21259200D01*
X27482800Y-18211200D02*
G75*
G02X27736800Y-18465200I0J-254000D01*
G01*
X27736800Y-21259200D02*
G75*
G02X27482800Y-21513200I-254000J0D01*
G01*
X25704800Y-21259200D02*
G75*
G03X25958800Y-21513200I254000J0D01*
G01*
X25958800Y-18211200D02*
G75*
G03X25704800Y-18465200I0J-254000D01*
G01*
X25958800Y-18211200D02*
X27482800Y-18211200D01*
X25958800Y-21513200D02*
X27482800Y-21513200D01*
X27736800Y-21259200D02*
X27736800Y-18465200D01*
D11*
G04 #@! TO.C,BT1*
X1899604Y-3639293D02*
X1899604Y-3634005D01*
X857921Y4435073D02*
X857921Y-551258D01*
X1899604Y-471942D02*
X1899604Y4435073D01*
X857921Y-3565265D02*
X857921Y-8551596D01*
X1899604Y4435073D02*
X857921Y4435073D01*
X1899604Y-8551596D02*
X1899604Y-3639293D01*
X857921Y-8551596D02*
X1899604Y-8551596D01*
D15*
G04 #@! TO.C,U10*
X10261600Y-15468000D02*
G75*
G03X10261600Y-15468000I-254000J0D01*
G01*
D17*
X10642600Y-7848000D02*
X10642600Y-15849000D01*
X10642600Y-15849000D02*
X26644600Y-15849000D01*
X26644600Y-15849000D02*
X26644600Y-1848520D01*
X26644600Y-1848520D02*
X26644600Y153000D01*
X26644600Y153000D02*
X10642600Y153000D01*
X10642600Y153000D02*
X10642600Y-7848000D01*
D15*
G04 #@! TO.C,C14*
X-24866476Y2177495D02*
X-21666476Y2177495D01*
X-21666476Y3577495D02*
X-24866476Y3577495D01*
X-24866476Y3577495D02*
X-24866476Y2177495D01*
X-21666476Y3577495D02*
X-21666476Y2177495D01*
D14*
G04 #@! TO.C,J1*
X6019800Y-9194200D02*
X8813800Y-9194200D01*
X5765800Y-7416200D02*
G75*
G02X6019800Y-7162200I254000J0D01*
G01*
X8813800Y-7162200D02*
G75*
G02X9067800Y-7416200I0J-254000D01*
G01*
X8813800Y-9194200D02*
G75*
G03X9067800Y-8940200I0J254000D01*
G01*
X5765800Y-8940200D02*
G75*
G03X6019800Y-9194200I254000J0D01*
G01*
X5765800Y-8940200D02*
X5765800Y-7416200D01*
X9067800Y-8940200D02*
X9067800Y-7416200D01*
X8813800Y-7162200D02*
X6019800Y-7162200D01*
D15*
G04 #@! TO.C,R27*
X-30545000Y5740800D02*
X-30545000Y2540800D01*
X-29145000Y2540800D02*
X-29145000Y5740800D01*
X-29145000Y5740800D02*
X-30545000Y5740800D01*
X-29145000Y2540800D02*
X-30545000Y2540800D01*
G04 #@! TO.C,R31*
X-21666476Y5228495D02*
X-21666476Y3828495D01*
X-24866476Y5228495D02*
X-24866476Y3828495D01*
X-21666476Y5228495D02*
X-24866476Y5228495D01*
X-24866476Y3828495D02*
X-21666476Y3828495D01*
G04 #@! TO.C,R26*
X-32069000Y5715400D02*
X-32069000Y2515400D01*
X-30669000Y2515400D02*
X-30669000Y5715400D01*
X-30669000Y5715400D02*
X-32069000Y5715400D01*
X-30669000Y2515400D02*
X-32069000Y2515400D01*
G04 #@! TO.C,R30*
X-12432200Y3212200D02*
X-12432200Y4612200D01*
X-9232200Y3212200D02*
X-9232200Y4612200D01*
X-12432200Y3212200D02*
X-9232200Y3212200D01*
X-9232200Y4612200D02*
X-12432200Y4612200D01*
D14*
G04 #@! TO.C,J14*
X-34975800Y-2412400D02*
X-37769800Y-2412400D01*
X-34721800Y-4190400D02*
G75*
G02X-34975800Y-4444400I-254000J0D01*
G01*
X-37769800Y-4444400D02*
G75*
G02X-38023800Y-4190400I0J254000D01*
G01*
X-37769800Y-2412400D02*
G75*
G03X-38023800Y-2666400I0J-254000D01*
G01*
X-34721800Y-2666400D02*
G75*
G03X-34975800Y-2412400I-254000J0D01*
G01*
X-34721800Y-2666400D02*
X-34721800Y-4190400D01*
X-38023800Y-2666400D02*
X-38023800Y-4190400D01*
X-37769800Y-4444400D02*
X-34975800Y-4444400D01*
D16*
G04 #@! TO.C,U3*
X-20670489Y-28771200D02*
G75*
G03X-20670489Y-28771200I-70711J0D01*
G01*
D15*
X-20141200Y-28671200D02*
X-4141200Y-28671200D01*
X-20141200Y-12671200D02*
X-4141200Y-12671200D01*
D14*
G04 #@! TO.C,J2*
X-36017200Y-13004200D02*
X-33223200Y-13004200D01*
X-36271200Y-11226200D02*
G75*
G02X-36017200Y-10972200I254000J0D01*
G01*
X-33223200Y-10972200D02*
G75*
G02X-32969200Y-11226200I0J-254000D01*
G01*
X-33223200Y-13004200D02*
G75*
G03X-32969200Y-12750200I0J254000D01*
G01*
X-36271200Y-12750200D02*
G75*
G03X-36017200Y-13004200I254000J0D01*
G01*
X-36271200Y-12750200D02*
X-36271200Y-11226200D01*
X-32969200Y-12750200D02*
X-32969200Y-11226200D01*
X-33223200Y-10972200D02*
X-36017200Y-10972200D01*
D15*
G04 #@! TO.C,R23*
X-12420400Y4736200D02*
X-12420400Y6136200D01*
X-9220400Y4736200D02*
X-9220400Y6136200D01*
X-12420400Y4736200D02*
X-9220400Y4736200D01*
X-9220400Y6136200D02*
X-12420400Y6136200D01*
G04 #@! TO.C,U14*
X-48872400Y290800D02*
X-42872400Y290800D01*
X-48872400Y290800D02*
X-48872400Y-4709200D01*
X-48872400Y-4709200D02*
X-42872400Y-4709200D01*
X-42872400Y-4709200D02*
X-42872400Y290800D01*
D13*
G04 #@! TO.C,M7*
X-46055280Y11470940D02*
G75*
G02X-47353220Y12570760I-99060J1198880D01*
G01*
X-35653980Y12669820D02*
G75*
G02X-36852860Y11470940I-1198880J0D01*
G01*
X-48254920Y12230400D02*
G75*
G02X-46654720Y13830600I1600200J0D01*
G01*
X-36951920Y13830600D02*
G75*
G02X-36253420Y12928900I-101600J-800100D01*
G01*
X-36852860Y11470940D02*
X-46052740Y11470940D01*
X-36954460Y13830600D02*
X-46654720Y13830600D01*
X-35255200Y27330700D02*
X-35255200Y12928900D01*
X-49253140Y27330700D02*
X-35255200Y27330700D01*
X-49253140Y12230400D02*
X-49253140Y27330700D01*
D12*
G04 #@! TO.C,J19*
X-22549000Y37732000D02*
G75*
G03X-22549000Y37732000I-1200000J0D01*
G01*
G04 #@! TO.C,J18*
X-18459600Y37681200D02*
G75*
G03X-18459600Y37681200I-1200000J0D01*
G01*
D15*
G04 #@! TO.C,J9*
X-14006200Y48713800D02*
X-15606200Y48713800D01*
X-17626200Y48713800D02*
X-19226200Y48713800D01*
X-15616200Y48713800D02*
X-17616200Y48713800D01*
D11*
G04 #@! TO.C,U1*
X-73293300Y15685540D02*
X-73293300Y30415540D01*
X-51573300Y15685540D02*
X-73293300Y15685540D01*
X-51573300Y30415540D02*
X-51573300Y15685540D01*
X-73293300Y30415540D02*
X-51573300Y30415540D01*
D14*
G04 #@! TO.C,J12*
X27736800Y19240800D02*
X27736800Y22034800D01*
X25958800Y18986800D02*
X27482800Y18986800D01*
X25958800Y22288800D02*
X27482800Y22288800D01*
X25958800Y22288800D02*
G75*
G03X25704800Y22034800I0J-254000D01*
G01*
X25704800Y19240800D02*
G75*
G03X25958800Y18986800I254000J0D01*
G01*
X27736800Y19240800D02*
G75*
G02X27482800Y18986800I-254000J0D01*
G01*
X27482800Y22288800D02*
G75*
G02X27736800Y22034800I0J-254000D01*
G01*
X25704800Y22034800D02*
X25704800Y19240800D01*
D11*
G04 #@! TO.C,BT1*
X857921Y31948404D02*
X1899604Y31948404D01*
X1899604Y31948404D02*
X1899604Y36860707D01*
X1899604Y44935073D02*
X857921Y44935073D01*
X857921Y36934735D02*
X857921Y31948404D01*
X1899604Y40028058D02*
X1899604Y44935073D01*
X857921Y44935073D02*
X857921Y39948742D01*
X1899604Y36860707D02*
X1899604Y36865995D01*
D17*
G04 #@! TO.C,U10*
X10642600Y40653000D02*
X10642600Y32652000D01*
X26644600Y40653000D02*
X10642600Y40653000D01*
X26644600Y38651480D02*
X26644600Y40653000D01*
X26644600Y24651000D02*
X26644600Y38651480D01*
X10642600Y24651000D02*
X26644600Y24651000D01*
X10642600Y32652000D02*
X10642600Y24651000D01*
D15*
X10261600Y25032000D02*
G75*
G03X10261600Y25032000I-254000J0D01*
G01*
D14*
G04 #@! TO.C,J1*
X8813800Y33337800D02*
X6019800Y33337800D01*
X9067800Y31559800D02*
X9067800Y33083800D01*
X5765800Y31559800D02*
X5765800Y33083800D01*
X5765800Y31559800D02*
G75*
G03X6019800Y31305800I254000J0D01*
G01*
X8813800Y31305800D02*
G75*
G03X9067800Y31559800I0J254000D01*
G01*
X8813800Y33337800D02*
G75*
G02X9067800Y33083800I0J-254000D01*
G01*
X5765800Y33083800D02*
G75*
G02X6019800Y33337800I254000J0D01*
G01*
X6019800Y31305800D02*
X8813800Y31305800D01*
D15*
G04 #@! TO.C,C14*
X-21666476Y44077495D02*
X-21666476Y42677495D01*
X-24866476Y44077495D02*
X-24866476Y42677495D01*
X-21666476Y44077495D02*
X-24866476Y44077495D01*
X-24866476Y42677495D02*
X-21666476Y42677495D01*
G04 #@! TO.C,R26*
X-30669000Y43015400D02*
X-32069000Y43015400D01*
X-30669000Y46215400D02*
X-32069000Y46215400D01*
X-30669000Y43015400D02*
X-30669000Y46215400D01*
X-32069000Y46215400D02*
X-32069000Y43015400D01*
G04 #@! TO.C,R27*
X-29145000Y43040800D02*
X-30545000Y43040800D01*
X-29145000Y46240800D02*
X-30545000Y46240800D01*
X-29145000Y43040800D02*
X-29145000Y46240800D01*
X-30545000Y46240800D02*
X-30545000Y43040800D01*
G04 #@! TO.C,R31*
X-24866476Y44328495D02*
X-21666476Y44328495D01*
X-21666476Y45728495D02*
X-24866476Y45728495D01*
X-24866476Y45728495D02*
X-24866476Y44328495D01*
X-21666476Y45728495D02*
X-21666476Y44328495D01*
G04 #@! TO.C,R23*
X-9220400Y46636200D02*
X-12420400Y46636200D01*
X-12420400Y45236200D02*
X-9220400Y45236200D01*
X-9220400Y45236200D02*
X-9220400Y46636200D01*
X-12420400Y45236200D02*
X-12420400Y46636200D01*
D14*
G04 #@! TO.C,J2*
X-33223200Y29527800D02*
X-36017200Y29527800D01*
X-32969200Y27749800D02*
X-32969200Y29273800D01*
X-36271200Y27749800D02*
X-36271200Y29273800D01*
X-36271200Y27749800D02*
G75*
G03X-36017200Y27495800I254000J0D01*
G01*
X-33223200Y27495800D02*
G75*
G03X-32969200Y27749800I0J254000D01*
G01*
X-33223200Y29527800D02*
G75*
G02X-32969200Y29273800I0J-254000D01*
G01*
X-36271200Y29273800D02*
G75*
G02X-36017200Y29527800I254000J0D01*
G01*
X-36017200Y27495800D02*
X-33223200Y27495800D01*
D15*
G04 #@! TO.C,U14*
X-42872400Y35790800D02*
X-42872400Y40790800D01*
X-48872400Y35790800D02*
X-42872400Y35790800D01*
X-48872400Y40790800D02*
X-48872400Y35790800D01*
X-48872400Y40790800D02*
X-42872400Y40790800D01*
G04 #@! TO.C,U3*
X-20141200Y27828800D02*
X-4141200Y27828800D01*
X-20141200Y11828800D02*
X-4141200Y11828800D01*
D16*
X-20670489Y11728800D02*
G75*
G03X-20670489Y11728800I-70711J0D01*
G01*
D15*
G04 #@! TO.C,R30*
X-9232200Y45112200D02*
X-12432200Y45112200D01*
X-12432200Y43712200D02*
X-9232200Y43712200D01*
X-9232200Y43712200D02*
X-9232200Y45112200D01*
X-12432200Y43712200D02*
X-12432200Y45112200D01*
D14*
G04 #@! TO.C,J14*
X-37769800Y36055600D02*
X-34975800Y36055600D01*
X-38023800Y37833600D02*
X-38023800Y36309600D01*
X-34721800Y37833600D02*
X-34721800Y36309600D01*
X-34721800Y37833600D02*
G75*
G03X-34975800Y38087600I-254000J0D01*
G01*
X-37769800Y38087600D02*
G75*
G03X-38023800Y37833600I0J-254000D01*
G01*
X-37769800Y36055600D02*
G75*
G02X-38023800Y36309600I0J254000D01*
G01*
X-34721800Y36309600D02*
G75*
G02X-34975800Y36055600I-254000J0D01*
G01*
X-34975800Y38087600D02*
X-37769800Y38087600D01*
D13*
G04 #@! TO.C,M7*
X-49253140Y52730400D02*
X-49253140Y67830700D01*
X-49253140Y67830700D02*
X-35255200Y67830700D01*
X-35255200Y67830700D02*
X-35255200Y53428900D01*
X-36954460Y54330600D02*
X-46654720Y54330600D01*
X-36852860Y51970940D02*
X-46052740Y51970940D01*
X-36951920Y54330600D02*
G75*
G02X-36253420Y53428900I-101600J-800100D01*
G01*
X-48254920Y52730400D02*
G75*
G02X-46654720Y54330600I1600200J0D01*
G01*
X-35653980Y53169820D02*
G75*
G02X-36852860Y51970940I-1198880J0D01*
G01*
X-46055280Y51970940D02*
G75*
G02X-47353220Y53070760I-99060J1198880D01*
G01*
D15*
G04 #@! TO.C,R31*
X-21666476Y86228495D02*
X-21666476Y84828495D01*
X-24866476Y86228495D02*
X-24866476Y84828495D01*
X-21666476Y86228495D02*
X-24866476Y86228495D01*
X-24866476Y84828495D02*
X-21666476Y84828495D01*
G04 #@! TO.C,R27*
X-30545000Y86740800D02*
X-30545000Y83540800D01*
X-29145000Y83540800D02*
X-29145000Y86740800D01*
X-29145000Y86740800D02*
X-30545000Y86740800D01*
X-29145000Y83540800D02*
X-30545000Y83540800D01*
G04 #@! TO.C,R26*
X-32069000Y86715400D02*
X-32069000Y83515400D01*
X-30669000Y83515400D02*
X-30669000Y86715400D01*
X-30669000Y86715400D02*
X-32069000Y86715400D01*
X-30669000Y83515400D02*
X-32069000Y83515400D01*
D14*
G04 #@! TO.C,J1*
X6019800Y71805800D02*
X8813800Y71805800D01*
X5765800Y73583800D02*
G75*
G02X6019800Y73837800I254000J0D01*
G01*
X8813800Y73837800D02*
G75*
G02X9067800Y73583800I0J-254000D01*
G01*
X8813800Y71805800D02*
G75*
G03X9067800Y72059800I0J254000D01*
G01*
X5765800Y72059800D02*
G75*
G03X6019800Y71805800I254000J0D01*
G01*
X5765800Y72059800D02*
X5765800Y73583800D01*
X9067800Y72059800D02*
X9067800Y73583800D01*
X8813800Y73837800D02*
X6019800Y73837800D01*
D15*
G04 #@! TO.C,C14*
X-24866476Y83177495D02*
X-21666476Y83177495D01*
X-21666476Y84577495D02*
X-24866476Y84577495D01*
X-24866476Y84577495D02*
X-24866476Y83177495D01*
X-21666476Y84577495D02*
X-21666476Y83177495D01*
G04 #@! TO.C,U14*
X-48872400Y81290800D02*
X-42872400Y81290800D01*
X-48872400Y81290800D02*
X-48872400Y76290800D01*
X-48872400Y76290800D02*
X-42872400Y76290800D01*
X-42872400Y76290800D02*
X-42872400Y81290800D01*
D14*
G04 #@! TO.C,J14*
X-34975800Y78587600D02*
X-37769800Y78587600D01*
X-34721800Y76809600D02*
G75*
G02X-34975800Y76555600I-254000J0D01*
G01*
X-37769800Y76555600D02*
G75*
G02X-38023800Y76809600I0J254000D01*
G01*
X-37769800Y78587600D02*
G75*
G03X-38023800Y78333600I0J-254000D01*
G01*
X-34721800Y78333600D02*
G75*
G03X-34975800Y78587600I-254000J0D01*
G01*
X-34721800Y78333600D02*
X-34721800Y76809600D01*
X-38023800Y78333600D02*
X-38023800Y76809600D01*
X-37769800Y76555600D02*
X-34975800Y76555600D01*
G04 #@! TO.C,J2*
X-36017200Y67995800D02*
X-33223200Y67995800D01*
X-36271200Y69773800D02*
G75*
G02X-36017200Y70027800I254000J0D01*
G01*
X-33223200Y70027800D02*
G75*
G02X-32969200Y69773800I0J-254000D01*
G01*
X-33223200Y67995800D02*
G75*
G03X-32969200Y68249800I0J254000D01*
G01*
X-36271200Y68249800D02*
G75*
G03X-36017200Y67995800I254000J0D01*
G01*
X-36271200Y68249800D02*
X-36271200Y69773800D01*
X-32969200Y68249800D02*
X-32969200Y69773800D01*
X-33223200Y70027800D02*
X-36017200Y70027800D01*
D16*
G04 #@! TO.C,U3*
X-20670489Y52228800D02*
G75*
G03X-20670489Y52228800I-70711J0D01*
G01*
D15*
X-20141200Y52328800D02*
X-4141200Y52328800D01*
X-20141200Y68328800D02*
X-4141200Y68328800D01*
G04 #@! TO.C,R30*
X-12432200Y84212200D02*
X-12432200Y85612200D01*
X-9232200Y84212200D02*
X-9232200Y85612200D01*
X-12432200Y84212200D02*
X-9232200Y84212200D01*
X-9232200Y85612200D02*
X-12432200Y85612200D01*
G04 #@! TO.C,R23*
X-12420400Y85736200D02*
X-12420400Y87136200D01*
X-9220400Y85736200D02*
X-9220400Y87136200D01*
X-12420400Y85736200D02*
X-9220400Y85736200D01*
X-9220400Y87136200D02*
X-12420400Y87136200D01*
D11*
G04 #@! TO.C,BT1*
X1899604Y77360707D02*
X1899604Y77365995D01*
X857921Y85435073D02*
X857921Y80448742D01*
X1899604Y80528058D02*
X1899604Y85435073D01*
X857921Y77434735D02*
X857921Y72448404D01*
X1899604Y85435073D02*
X857921Y85435073D01*
X1899604Y72448404D02*
X1899604Y77360707D01*
X857921Y72448404D02*
X1899604Y72448404D01*
D15*
G04 #@! TO.C,U10*
X10261600Y65532000D02*
G75*
G03X10261600Y65532000I-254000J0D01*
G01*
D17*
X10642600Y73152000D02*
X10642600Y65151000D01*
X10642600Y65151000D02*
X26644600Y65151000D01*
X26644600Y65151000D02*
X26644600Y79151480D01*
X26644600Y79151480D02*
X26644600Y81153000D01*
X26644600Y81153000D02*
X10642600Y81153000D01*
X10642600Y81153000D02*
X10642600Y73152000D01*
D14*
G04 #@! TO.C,J12*
X25704800Y62534800D02*
X25704800Y59740800D01*
X27482800Y62788800D02*
G75*
G02X27736800Y62534800I0J-254000D01*
G01*
X27736800Y59740800D02*
G75*
G02X27482800Y59486800I-254000J0D01*
G01*
X25704800Y59740800D02*
G75*
G03X25958800Y59486800I254000J0D01*
G01*
X25958800Y62788800D02*
G75*
G03X25704800Y62534800I0J-254000D01*
G01*
X25958800Y62788800D02*
X27482800Y62788800D01*
X25958800Y59486800D02*
X27482800Y59486800D01*
X27736800Y59740800D02*
X27736800Y62534800D01*
D11*
G04 #@! TO.C,U1*
X-73293300Y70915540D02*
X-51573300Y70915540D01*
X-51573300Y70915540D02*
X-51573300Y56185540D01*
X-51573300Y56185540D02*
X-73293300Y56185540D01*
X-73293300Y56185540D02*
X-73293300Y70915540D01*
D15*
G04 #@! TO.C,J9*
X-15616200Y89213800D02*
X-17616200Y89213800D01*
X-17626200Y89213800D02*
X-19226200Y89213800D01*
X-14006200Y89213800D02*
X-15606200Y89213800D01*
D12*
G04 #@! TO.C,J18*
X-18459600Y78181200D02*
G75*
G03X-18459600Y78181200I-1200000J0D01*
G01*
G04 #@! TO.C,J19*
X-22549000Y78232000D02*
G75*
G03X-22549000Y78232000I-1200000J0D01*
G01*
G04 #@! TD*
M02*
