M48
;DRILL file {KiCad (5.0.0)} date 12/28/18 17:12:52
;FORMAT={-:-/ absolute / inch / decimal}
FMAT,2
INCH,TZ
T1C0.0118
T2C0.0197
T3C0.0394
T4C0.0472
T5C0.0197
T6C0.0413
T7C0.0512
T8C0.0984
T9C0.1000
%
G90
G05
M72
T1
X-2.778Y3.027
X-2.778Y1.4325
X-2.778Y-0.162
X-2.778Y-1.7565
X-2.698Y3.472
X-2.698Y1.8775
X-2.698Y0.283
X-2.698Y-1.3115
X-2.628Y3.472
X-2.628Y1.8775
X-2.628Y0.283
X-2.628Y-1.3115
X-2.618Y2.162
X-2.618Y0.5675
X-2.618Y-1.027
X-2.618Y-2.6215
X-2.543Y3.027
X-2.543Y1.4325
X-2.543Y-0.162
X-2.543Y-1.7565
X-2.533Y2.842
X-2.533Y1.2475
X-2.533Y-0.347
X-2.533Y-1.9415
X-2.453Y2.747
X-2.453Y1.1525
X-2.453Y-0.442
X-2.453Y-2.0365
X-2.383Y2.542
X-2.383Y0.9475
X-2.383Y-0.647
X-2.383Y-2.2415
X-2.363Y2.627
X-2.363Y1.0325
X-2.363Y-0.562
X-2.363Y-2.1565
X-2.353Y2.517
X-2.353Y0.9225
X-2.353Y-0.672
X-2.353Y-2.2665
X-2.3349Y3.0923
X-2.3349Y1.4978
X-2.3349Y-0.0967
X-2.3349Y-1.6911
X-2.3203Y3.1642
X-2.3203Y1.5697
X-2.3203Y-0.0248
X-2.3203Y-1.6193
X-2.3176Y3.1951
X-2.3176Y1.6006
X-2.3176Y0.0061
X-2.3176Y-1.5884
X-2.308Y2.702
X-2.308Y1.1075
X-2.308Y-0.487
X-2.308Y-2.0815
X-2.3036Y3.052
X-2.3036Y1.4575
X-2.3036Y-0.137
X-2.3036Y-1.7315
X-2.2908Y3.1927
X-2.2908Y1.5982
X-2.2908Y0.0037
X-2.2908Y-1.5908
X-2.2908Y3.1642
X-2.2908Y1.5697
X-2.2908Y-0.0248
X-2.2908Y-1.6193
X-2.274Y3.09
X-2.274Y1.4955
X-2.274Y-0.099
X-2.274Y-1.6935
X-2.268Y2.872
X-2.268Y2.112
X-2.268Y1.2775
X-2.268Y0.5175
X-2.268Y-0.317
X-2.268Y-1.077
X-2.268Y-1.9115
X-2.268Y-2.6715
X-2.238Y2.457
X-2.238Y0.8625
X-2.238Y-0.732
X-2.238Y-2.3265
X-2.2109Y3.1281
X-2.2109Y1.5337
X-2.2109Y-0.0608
X-2.2109Y-1.6553
X-2.208Y2.942
X-2.208Y1.3475
X-2.208Y-0.247
X-2.208Y-1.8415
X-2.188Y2.457
X-2.188Y0.8625
X-2.188Y-0.732
X-2.188Y-2.3265
X-2.183Y3.0892
X-2.183Y1.4947
X-2.183Y-0.0998
X-2.183Y-1.6943
X-2.1566Y3.4514
X-2.1566Y1.8569
X-2.1566Y0.2624
X-2.1566Y-1.3321
X-2.148Y2.112
X-2.148Y0.5175
X-2.148Y-1.077
X-2.148Y-2.6715
X-2.138Y2.457
X-2.138Y0.8625
X-2.138Y-0.732
X-2.138Y-2.3265
X-2.118Y2.812
X-2.118Y1.2175
X-2.118Y-0.377
X-2.118Y-1.9715
X-2.1159Y2.7289
X-2.1159Y1.1344
X-2.1159Y-0.4601
X-2.1159Y-2.0545
X-2.093Y2.457
X-2.093Y0.8625
X-2.093Y-0.732
X-2.093Y-2.3265
X-2.0889Y2.5137
X-2.0889Y0.9192
X-2.0889Y-0.6753
X-2.0889Y-2.2698
X-2.068Y2.812
X-2.068Y1.2175
X-2.068Y-0.377
X-2.068Y-1.9715
X-2.053Y2.7655
X-2.053Y1.171
X-2.053Y-0.4235
X-2.053Y-2.018
X-2.048Y3.272
X-2.048Y1.6775
X-2.048Y0.083
X-2.048Y-1.5115
X-2.043Y2.6882
X-2.043Y1.0937
X-2.043Y-0.5008
X-2.043Y-2.0952
X-2.033Y2.297
X-2.033Y0.7025
X-2.033Y-0.892
X-2.033Y-2.4865
X-2.018Y3.042
X-2.018Y2.812
X-2.018Y1.4475
X-2.018Y1.2175
X-2.018Y-0.147
X-2.018Y-0.377
X-2.018Y-1.7415
X-2.018Y-1.9715
X-2.008Y2.202
X-2.008Y0.6075
X-2.008Y-0.987
X-2.008Y-2.5815
X-1.9882Y3.399
X-1.9882Y1.8045
X-1.9882Y0.21
X-1.9882Y-1.3845
X-1.978Y2.512
X-1.978Y0.9175
X-1.978Y-0.677
X-1.978Y-2.2715
X-1.9766Y2.7179
X-1.9766Y1.1234
X-1.9766Y-0.4711
X-1.9766Y-2.0655
X-1.9715Y3.1045
X-1.9715Y1.51
X-1.9715Y-0.0845
X-1.9715Y-1.6789
X-1.97Y3.0774
X-1.97Y1.4829
X-1.97Y-0.1116
X-1.97Y-1.7061
X-1.969Y2.1276
X-1.969Y0.5332
X-1.969Y-1.0613
X-1.969Y-2.6558
X-1.9688Y3.1317
X-1.9688Y1.5372
X-1.9688Y-0.0573
X-1.9688Y-1.6518
X-1.968Y2.812
X-1.968Y1.2175
X-1.968Y-0.377
X-1.968Y-1.9715
X-1.963Y2.302
X-1.963Y0.7075
X-1.963Y-0.887
X-1.963Y-2.4815
X-1.938Y3.232
X-1.938Y1.6375
X-1.938Y0.043
X-1.938Y-1.5515
X-1.9349Y3.1325
X-1.9349Y1.538
X-1.9349Y-0.0565
X-1.9349Y-1.651
X-1.934Y2.202
X-1.934Y0.6075
X-1.934Y-0.987
X-1.934Y-2.5815
X-1.9218Y2.4012
X-1.9218Y0.8067
X-1.9218Y-0.7878
X-1.9218Y-2.3822
X-1.918Y2.937
X-1.918Y2.812
X-1.918Y1.3425
X-1.918Y1.2175
X-1.918Y-0.252
X-1.918Y-0.377
X-1.918Y-1.8465
X-1.918Y-1.9715
X-1.9074Y3.1313
X-1.9074Y1.5368
X-1.9074Y-0.0577
X-1.9074Y-1.6522
X-1.9Y2.506
X-1.9Y0.9115
X-1.9Y-0.683
X-1.9Y-2.2775
X-1.868Y2.987
X-1.868Y2.937
X-1.868Y2.812
X-1.868Y2.202
X-1.868Y1.3925
X-1.868Y1.3425
X-1.868Y1.2175
X-1.868Y0.6075
X-1.868Y-0.202
X-1.868Y-0.252
X-1.868Y-0.377
X-1.868Y-0.987
X-1.868Y-1.7965
X-1.868Y-1.8465
X-1.868Y-1.9715
X-1.868Y-2.5815
X-1.866Y2.436
X-1.866Y0.8415
X-1.866Y-0.753
X-1.866Y-2.3475
X-1.8262Y2.492
X-1.8262Y2.44
X-1.8262Y0.8975
X-1.8262Y0.8455
X-1.8262Y-0.697
X-1.8262Y-0.749
X-1.8262Y-2.2915
X-1.8262Y-2.3435
X-1.818Y3.462
X-1.818Y2.987
X-1.818Y2.937
X-1.818Y2.812
X-1.818Y1.8675
X-1.818Y1.3925
X-1.818Y1.3425
X-1.818Y1.2175
X-1.818Y0.273
X-1.818Y-0.202
X-1.818Y-0.252
X-1.818Y-0.377
X-1.818Y-1.3215
X-1.818Y-1.7965
X-1.818Y-1.8465
X-1.818Y-1.9715
X-1.794Y2.202
X-1.794Y0.6075
X-1.794Y-0.987
X-1.794Y-2.5815
X-1.788Y3.462
X-1.788Y3.437
X-1.788Y1.8675
X-1.788Y1.8425
X-1.788Y0.273
X-1.788Y0.248
X-1.788Y-1.3215
X-1.788Y-1.3465
X-1.774Y3.16
X-1.774Y1.5655
X-1.774Y-0.029
X-1.774Y-1.6235
X-1.768Y2.987
X-1.768Y2.937
X-1.768Y2.812
X-1.768Y1.3925
X-1.768Y1.3425
X-1.768Y1.2175
X-1.768Y-0.202
X-1.768Y-0.252
X-1.768Y-0.377
X-1.768Y-1.7965
X-1.768Y-1.8465
X-1.768Y-1.9715
X-1.758Y3.462
X-1.758Y3.437
X-1.758Y1.8675
X-1.758Y1.8425
X-1.758Y0.273
X-1.758Y0.248
X-1.758Y-1.3215
X-1.758Y-1.3465
X-1.718Y3.382
X-1.718Y2.812
X-1.718Y1.7875
X-1.718Y1.2175
X-1.718Y0.193
X-1.718Y-0.377
X-1.718Y-1.4015
X-1.718Y-1.9715
X-1.7Y3.162
X-1.7Y1.5675
X-1.7Y-0.027
X-1.7Y-1.6215
X-1.694Y3.122
X-1.694Y1.5275
X-1.694Y-0.067
X-1.694Y-1.6615
X-1.668Y2.812
X-1.668Y1.2175
X-1.668Y-0.377
X-1.668Y-1.9715
X-1.667Y3.471
X-1.667Y1.8765
X-1.667Y0.282
X-1.667Y-1.3125
X-1.6292Y2.0922
X-1.6292Y0.4977
X-1.6292Y-1.0968
X-1.6292Y-2.6913
X-1.618Y2.812
X-1.618Y1.2175
X-1.618Y-0.377
X-1.618Y-1.9715
X-1.6067Y2.1918
X-1.6067Y0.5974
X-1.6067Y-0.9971
X-1.6067Y-2.5916
X-1.568Y2.812
X-1.568Y1.2175
X-1.568Y-0.377
X-1.568Y-1.9715
X-1.567Y3.391
X-1.567Y1.7965
X-1.567Y0.202
X-1.567Y-1.3925
X-1.562Y3.022
X-1.562Y1.4275
X-1.562Y-0.167
X-1.562Y-1.7615
X-1.528Y2.2762
X-1.528Y0.6817
X-1.528Y-0.9128
X-1.528Y-2.5073
X-1.518Y2.812
X-1.518Y1.2175
X-1.518Y-0.377
X-1.518Y-1.9715
X-1.513Y2.507
X-1.513Y0.9125
X-1.513Y-0.682
X-1.513Y-2.2765
X-1.508Y2.457
X-1.508Y0.8625
X-1.508Y-0.732
X-1.508Y-2.3265
X-1.482Y2.32
X-1.482Y0.7255
X-1.482Y-0.869
X-1.482Y-2.4635
X-1.478Y3.182
X-1.478Y1.5875
X-1.478Y-0.007
X-1.478Y-1.6015
X-1.468Y2.812
X-1.468Y1.2175
X-1.468Y-0.377
X-1.468Y-1.9715
X-1.466Y3.014
X-1.466Y1.4195
X-1.466Y-0.175
X-1.466Y-1.7695
X-1.4582Y2.1056
X-1.4582Y0.5111
X-1.4582Y-1.0834
X-1.4582Y-2.6779
X-1.458Y2.172
X-1.458Y0.5775
X-1.458Y-1.017
X-1.458Y-2.6115
X-1.433Y2.717
X-1.433Y1.1225
X-1.433Y-0.472
X-1.433Y-2.0665
X-1.4186Y3.1245
X-1.4186Y1.53
X-1.4186Y-0.0645
X-1.4186Y-1.659
X-1.418Y2.812
X-1.418Y2.072
X-1.418Y1.2175
X-1.418Y0.4775
X-1.418Y-0.377
X-1.418Y-1.117
X-1.418Y-1.9715
X-1.418Y-2.7115
X-1.4095Y2.244
X-1.4095Y0.6495
X-1.4095Y-0.945
X-1.4095Y-2.5395
X-1.3932Y2.0888
X-1.3932Y0.4943
X-1.3932Y-1.1002
X-1.3932Y-2.6947
X-1.378Y3.137
X-1.378Y1.5425
X-1.378Y-0.052
X-1.378Y-1.6465
X-1.368Y2.812
X-1.368Y2.3328
X-1.368Y1.2175
X-1.368Y0.7384
X-1.368Y-0.377
X-1.368Y-0.8561
X-1.368Y-1.9715
X-1.368Y-2.4506
X-1.3678Y2.2737
X-1.3678Y0.6792
X-1.3678Y-0.9153
X-1.3678Y-2.5098
X-1.36Y3.064
X-1.36Y1.4695
X-1.36Y-0.125
X-1.36Y-1.7195
X-1.348Y2.172
X-1.348Y2.112
X-1.348Y0.5775
X-1.348Y0.5175
X-1.348Y-1.017
X-1.348Y-1.077
X-1.348Y-2.6115
X-1.348Y-2.6715
X-1.347Y2.489
X-1.347Y2.447
X-1.347Y0.8945
X-1.347Y0.8525
X-1.347Y-0.7
X-1.347Y-0.742
X-1.347Y-2.2945
X-1.347Y-2.3365
X-1.347Y2.561
X-1.347Y0.9665
X-1.347Y-0.628
X-1.347Y-2.2225
X-1.3208Y2.872
X-1.3208Y1.2775
X-1.3208Y-0.317
X-1.3208Y-1.9115
X-1.318Y2.462
X-1.318Y0.8675
X-1.318Y-0.727
X-1.318Y-2.3215
X-1.308Y2.737
X-1.308Y1.1425
X-1.308Y-0.452
X-1.308Y-2.0465
X-1.308Y2.3328
X-1.308Y2.172
X-1.308Y2.112
X-1.308Y0.7384
X-1.308Y0.5775
X-1.308Y0.5175
X-1.308Y-0.8561
X-1.308Y-1.017
X-1.308Y-1.077
X-1.308Y-2.4506
X-1.308Y-2.6115
X-1.308Y-2.6715
X-1.3071Y2.2737
X-1.3071Y0.6792
X-1.3071Y-0.9153
X-1.3071Y-2.5098
X-1.281Y2.8557
X-1.281Y1.2612
X-1.281Y-0.3333
X-1.281Y-1.9278
X-1.28Y3.148
X-1.28Y1.5535
X-1.28Y-0.041
X-1.28Y-1.6355
X-1.2678Y2.096
X-1.2678Y0.5015
X-1.2678Y-1.093
X-1.2678Y-2.6875
X-1.258Y3.29
X-1.258Y1.6955
X-1.258Y0.101
X-1.258Y-1.4935
X-1.2533Y2.0671
X-1.2533Y0.4726
X-1.2533Y-1.1219
X-1.2533Y-2.7164
X-1.2532Y2.8852
X-1.2532Y1.2907
X-1.2532Y-0.3038
X-1.2532Y-1.8982
X-1.248Y2.3328
X-1.248Y0.7384
X-1.248Y-0.8561
X-1.248Y-2.4506
X-1.248Y2.2737
X-1.248Y0.6792
X-1.248Y-0.9153
X-1.248Y-2.5098
X-1.2348Y2.9565
X-1.2348Y1.3621
X-1.2348Y-0.2324
X-1.2348Y-1.8269
X-1.232Y3.362
X-1.232Y1.7675
X-1.232Y0.173
X-1.232Y-1.4215
X-1.218Y3.094
X-1.218Y1.4995
X-1.218Y-0.095
X-1.218Y-1.6895
X-1.1995Y2.703
X-1.1995Y1.1085
X-1.1995Y-0.486
X-1.1995Y-2.0805
X-1.1985Y2.641
X-1.1985Y1.0465
X-1.1985Y-0.548
X-1.1985Y-2.1425
X-1.197Y3.245
X-1.197Y1.6505
X-1.197Y0.056
X-1.197Y-1.5385
X-1.1798Y2.9337
X-1.1798Y1.3393
X-1.1798Y-0.2552
X-1.1798Y-1.8497
X-1.1702Y3.2219
X-1.1702Y1.6274
X-1.1702Y0.0329
X-1.1702Y-1.5616
X-1.157Y3.421
X-1.157Y1.8265
X-1.157Y0.232
X-1.157Y-1.3625
X-1.1333Y3.2459
X-1.1333Y1.6514
X-1.1333Y0.0569
X-1.1333Y-1.5375
X-1.1325Y2.707
X-1.1325Y2.644
X-1.1325Y1.1125
X-1.1325Y1.0495
X-1.1325Y-0.482
X-1.1325Y-0.545
X-1.1325Y-2.0765
X-1.1325Y-2.1395
X-1.1282Y2.9872
X-1.1282Y1.3927
X-1.1282Y-0.2018
X-1.1282Y-1.7963
X-1.1162Y3.095
X-1.1162Y1.5005
X-1.1162Y-0.094
X-1.1162Y-1.6885
X-1.114Y3.385
X-1.114Y1.7905
X-1.114Y0.196
X-1.114Y-1.3985
X-1.1127Y2.9666
X-1.1127Y1.3721
X-1.1127Y-0.2223
X-1.1127Y-1.8168
X-1.1077Y3.247
X-1.1077Y1.6525
X-1.1077Y0.058
X-1.1077Y-1.5364
X-1.063Y2.553
X-1.063Y0.9585
X-1.063Y-0.636
X-1.063Y-2.2305
X-1.044Y2.854
X-1.044Y1.2595
X-1.044Y-0.335
X-1.044Y-1.9295
X-1.0361Y2.8153
X-1.0361Y1.2208
X-1.0361Y-0.3737
X-1.0361Y-1.9682
X-1.032Y2.922
X-1.032Y1.3275
X-1.032Y-0.267
X-1.032Y-1.8615
X-1.0142Y2.78
X-1.0142Y1.1855
X-1.0142Y-0.409
X-1.0142Y-2.0035
X-0.994Y2.901
X-0.994Y1.3065
X-0.994Y-0.288
X-0.994Y-1.8825
X-0.993Y2.447
X-0.993Y0.8525
X-0.993Y-0.742
X-0.993Y-2.3365
X-0.99Y2.098
X-0.99Y0.5035
X-0.99Y-1.091
X-0.99Y-2.6855
X-0.982Y2.984
X-0.982Y1.3895
X-0.982Y-0.205
X-0.982Y-1.7995
X-0.962Y3.004
X-0.962Y1.4095
X-0.962Y-0.185
X-0.962Y-1.7795
X-0.953Y2.417
X-0.953Y0.8225
X-0.953Y-0.772
X-0.953Y-2.3665
X-0.9495Y3.335
X-0.9495Y1.7405
X-0.9495Y0.146
X-0.9495Y-1.4485
X-0.9375Y2.7178
X-0.9375Y1.1234
X-0.9375Y-0.4711
X-0.9375Y-2.0656
X-0.9366Y2.3973
X-0.9366Y0.8028
X-0.9366Y-0.7917
X-0.9366Y-2.3862
X-0.9323Y2.6512
X-0.9323Y1.0567
X-0.9323Y-0.5378
X-0.9323Y-2.1323
X-0.931Y3.393
X-0.931Y1.7985
X-0.931Y0.204
X-0.931Y-1.3905
X-0.9191Y2.4455
X-0.9191Y0.851
X-0.9191Y-0.7434
X-0.9191Y-2.3379
X-0.903Y2.978
X-0.903Y1.3835
X-0.903Y-0.211
X-0.903Y-1.8055
X-0.898Y2.122
X-0.898Y0.5275
X-0.898Y-1.067
X-0.898Y-2.6615
X-0.888Y3.004
X-0.888Y1.4095
X-0.888Y-0.185
X-0.888Y-1.7795
X-0.8775Y2.9022
X-0.8775Y1.3077
X-0.8775Y-0.2868
X-0.8775Y-1.8813
X-0.8743Y2.3813
X-0.8743Y0.7869
X-0.8743Y-0.8076
X-0.8743Y-2.4021
X-0.8669Y2.7765
X-0.8669Y1.182
X-0.8669Y-0.4125
X-0.8669Y-2.007
X-0.8525Y2.6223
X-0.8525Y1.0278
X-0.8525Y-0.5667
X-0.8525Y-2.1612
X-0.8486Y2.3048
X-0.8486Y0.7103
X-0.8486Y-0.8842
X-0.8486Y-2.4787
X-0.8482Y2.262
X-0.8482Y0.6675
X-0.8482Y-0.927
X-0.8482Y-2.5215
X-0.8246Y3.1692
X-0.8246Y1.5747
X-0.8246Y-0.0198
X-0.8246Y-1.6143
X-0.811Y2.959
X-0.811Y1.3645
X-0.811Y-0.23
X-0.811Y-1.8245
X-0.763Y2.307
X-0.763Y0.7125
X-0.763Y-0.882
X-0.763Y-2.4765
X-0.7504Y2.0996
X-0.7504Y0.5051
X-0.7504Y-1.0894
X-0.7504Y-2.6839
X-0.748Y2.252
X-0.748Y0.6575
X-0.748Y-0.937
X-0.748Y-2.5315
X-0.733Y3.242
X-0.733Y1.6475
X-0.733Y0.053
X-0.733Y-1.5415
X-0.728Y3.407
X-0.728Y3.0309
X-0.728Y1.8125
X-0.728Y1.4364
X-0.728Y0.218
X-0.728Y-0.1581
X-0.728Y-1.3765
X-0.728Y-1.7526
X-0.7131Y2.687
X-0.7131Y1.0925
X-0.7131Y-0.502
X-0.7131Y-2.0965
X-0.7025Y2.8473
X-0.7025Y1.2528
X-0.7025Y-0.3417
X-0.7025Y-1.9362
X-0.693Y2.5838
X-0.693Y0.9894
X-0.693Y-0.6051
X-0.693Y-2.1996
X-0.6875Y2.8873
X-0.6875Y1.2928
X-0.6875Y-0.3017
X-0.6875Y-1.8962
X-0.6844Y2.7911
X-0.6844Y1.1966
X-0.6844Y-0.3979
X-0.6844Y-1.9924
X-0.683Y3.252
X-0.683Y1.6575
X-0.683Y0.063
X-0.683Y-1.5315
X-0.6811Y2.7005
X-0.6811Y1.106
X-0.6811Y-0.4885
X-0.6811Y-2.083
X-0.6675Y2.8523
X-0.6675Y1.2578
X-0.6675Y-0.3367
X-0.6675Y-1.9312
X-0.654Y2.525
X-0.654Y0.9305
X-0.654Y-0.664
X-0.654Y-2.2585
X-0.651Y3.2762
X-0.651Y1.6817
X-0.651Y0.0873
X-0.651Y-1.5072
X-0.6344Y3.2258
X-0.6344Y1.6314
X-0.6344Y0.0369
X-0.6344Y-1.5576
X-0.5831Y2.7704
X-0.5831Y1.1759
X-0.5831Y-0.4186
X-0.5831Y-2.0131
X-0.578Y3.01
X-0.578Y1.4155
X-0.578Y-0.179
X-0.578Y-1.7735
X-0.5759Y2.9022
X-0.5759Y1.3077
X-0.5759Y-0.2868
X-0.5759Y-1.8813
X-0.5633Y3.2801
X-0.5633Y1.6856
X-0.5633Y0.0911
X-0.5633Y-1.5033
X-0.5575Y2.7724
X-0.5575Y1.1779
X-0.5575Y-0.4166
X-0.5575Y-2.0111
X-0.5196Y2.0888
X-0.5196Y0.4943
X-0.5196Y-1.1002
X-0.5196Y-2.6947
X-0.508Y2.4568
X-0.508Y0.8624
X-0.508Y-0.7321
X-0.508Y-2.3266
X-0.475Y2.8542
X-0.475Y1.2597
X-0.475Y-0.3348
X-0.475Y-1.9293
X-0.4734Y3.0571
X-0.4734Y1.4626
X-0.4734Y-0.1319
X-0.4734Y-1.7264
X-0.458Y2.452
X-0.458Y0.8575
X-0.458Y-0.737
X-0.458Y-2.3315
X-0.451Y2.8353
X-0.451Y1.2408
X-0.451Y-0.3537
X-0.451Y-1.9482
X-0.433Y2.357
X-0.433Y0.7625
X-0.433Y-0.832
X-0.433Y-2.4265
X-0.404Y3.1415
X-0.404Y1.547
X-0.404Y-0.0475
X-0.404Y-1.642
X-0.4024Y2.9708
X-0.4024Y1.3764
X-0.4024Y-0.2181
X-0.4024Y-1.8126
X-0.401Y3.167
X-0.401Y1.5725
X-0.401Y-0.022
X-0.401Y-1.6165
X-0.3888Y2.811
X-0.3888Y1.2165
X-0.3888Y-0.378
X-0.3888Y-1.9725
X-0.3794Y3.0524
X-0.3794Y1.4579
X-0.3794Y-0.1366
X-0.3794Y-1.7311
X-0.362Y2.77
X-0.362Y1.1755
X-0.362Y-0.419
X-0.362Y-2.0135
X-0.354Y3.432
X-0.354Y1.8375
X-0.354Y0.243
X-0.354Y-1.3515
X-0.3484Y3.3695
X-0.3484Y1.775
X-0.3484Y0.1806
X-0.3484Y-1.4139
X-0.308Y2.412
X-0.308Y0.8175
X-0.308Y-0.777
X-0.308Y-2.3715
X-0.278Y2.617
X-0.278Y1.0225
X-0.278Y-0.572
X-0.278Y-2.1665
X-0.2682Y2.7628
X-0.2682Y1.1683
X-0.2682Y-0.4262
X-0.2682Y-2.0207
X-0.268Y3.477
X-0.268Y1.8825
X-0.268Y0.288
X-0.268Y-1.3065
X-0.2593Y2.2372
X-0.2593Y0.6427
X-0.2593Y-0.9518
X-0.2593Y-2.5463
X-0.253Y2.717
X-0.253Y2.602
X-0.253Y2.547
X-0.253Y1.1225
X-0.253Y1.0075
X-0.253Y0.9525
X-0.253Y-0.472
X-0.253Y-0.587
X-0.253Y-0.642
X-0.253Y-2.0665
X-0.253Y-2.1815
X-0.253Y-2.2365
X-0.248Y2.7845
X-0.248Y1.19
X-0.248Y-0.4045
X-0.248Y-1.999
X-0.2412Y2.9568
X-0.2412Y1.3624
X-0.2412Y-0.2321
X-0.2412Y-1.8266
X-0.233Y2.0821
X-0.233Y0.4876
X-0.233Y-1.1069
X-0.233Y-2.7014
X-0.2286Y2.644
X-0.2286Y1.0495
X-0.2286Y-0.545
X-0.2286Y-2.1395
X-0.218Y2.652
X-0.218Y2.337
X-0.218Y1.0575
X-0.218Y0.7425
X-0.218Y-0.537
X-0.218Y-0.852
X-0.218Y-2.1315
X-0.218Y-2.4465
X-0.188Y2.787
X-0.188Y2.547
X-0.188Y1.1925
X-0.188Y0.9525
X-0.188Y-0.402
X-0.188Y-0.642
X-0.188Y-1.9965
X-0.188Y-2.2365
X-0.1834Y3.097
X-0.1834Y1.5026
X-0.1834Y-0.0919
X-0.1834Y-1.6864
X-0.163Y2.677
X-0.163Y2.622
X-0.163Y1.0825
X-0.163Y1.0275
X-0.163Y-0.512
X-0.163Y-0.567
X-0.163Y-2.1065
X-0.163Y-2.1615
X-0.133Y2.787
X-0.133Y1.1925
X-0.133Y-0.402
X-0.133Y-1.9965
X-0.118Y2.547
X-0.118Y0.9525
X-0.118Y-0.642
X-0.118Y-2.2365
X-0.109Y2.298
X-0.109Y0.7035
X-0.109Y-0.891
X-0.109Y-2.4855
X-0.108Y3.272
X-0.108Y2.652
X-0.108Y1.6775
X-0.108Y1.0575
X-0.108Y0.083
X-0.108Y-0.537
X-0.108Y-1.5115
X-0.108Y-2.1315
X-0.103Y2.335
X-0.103Y0.7405
X-0.103Y-0.854
X-0.103Y-2.4485
X-0.073Y2.787
X-0.073Y1.1925
X-0.073Y-0.402
X-0.073Y-1.9965
X-0.068Y2.547
X-0.068Y0.9525
X-0.068Y-0.642
X-0.068Y-2.2365
X-0.0562Y2.1073
X-0.0562Y0.5128
X-0.0562Y-1.0817
X-0.0562Y-2.6762
X-0.013Y2.787
X-0.013Y2.712
X-0.013Y2.657
X-0.013Y2.602
X-0.013Y2.552
X-0.013Y1.1925
X-0.013Y1.1175
X-0.013Y1.0625
X-0.013Y1.0075
X-0.013Y0.9575
X-0.013Y-0.402
X-0.013Y-0.477
X-0.013Y-0.532
X-0.013Y-0.587
X-0.013Y-0.637
X-0.013Y-1.9965
X-0.013Y-2.0715
X-0.013Y-2.1265
X-0.013Y-2.1815
X-0.013Y-2.2315
X-0.007Y3.227
X-0.007Y1.6325
X-0.007Y0.038
X-0.007Y-1.5565
X0.008Y2.382
X0.008Y0.7875
X0.008Y-0.807
X0.008Y-2.4015
X0.012Y3.467
X0.012Y1.8725
X0.012Y0.278
X0.012Y-1.3165
X0.098Y2.472
X0.098Y0.8775
X0.098Y-0.717
X0.098Y-2.3115
X0.1125Y2.6873
X0.1125Y1.0928
X0.1125Y-0.5017
X0.1125Y-2.0962
X0.117Y3.162
X0.117Y1.5675
X0.117Y-0.027
X0.117Y-1.6215
X0.126Y2.488
X0.126Y0.8935
X0.126Y-0.701
X0.126Y-2.2955
X0.152Y3.382
X0.152Y1.7875
X0.152Y0.193
X0.152Y-1.4015
X0.1525Y3.1822
X0.1525Y1.5877
X0.1525Y-0.0068
X0.1525Y-1.6013
X0.1625Y2.6773
X0.1625Y1.0828
X0.1625Y-0.5117
X0.1625Y-2.1062
X0.192Y3.252
X0.192Y1.6575
X0.192Y0.063
X0.192Y-1.5315
X0.1925Y3.1691
X0.1925Y1.5746
X0.1925Y-0.0199
X0.1925Y-1.6143
X0.207Y2.682
X0.207Y1.0875
X0.207Y-0.507
X0.207Y-2.1015
X0.222Y2.867
X0.222Y1.2725
X0.222Y-0.322
X0.222Y-1.9165
X0.226Y2.142
X0.226Y0.5475
X0.226Y-1.047
X0.226Y-2.6415
X0.2704Y3.0743
X0.2704Y1.4798
X0.2704Y-0.1147
X0.2704Y-1.7092
X0.3025Y3.2778
X0.3025Y1.6834
X0.3025Y0.0889
X0.3025Y-1.5056
X0.317Y2.1008
X0.317Y0.5064
X0.317Y-1.0881
X0.317Y-2.6826
X0.362Y2.837
X0.362Y2.732
X0.362Y2.682
X0.362Y1.2425
X0.362Y1.1375
X0.362Y1.0875
X0.362Y-0.352
X0.362Y-0.457
X0.362Y-0.507
X0.362Y-1.9465
X0.362Y-2.0515
X0.362Y-2.1015
X0.3638Y2.961
X0.3638Y1.3665
X0.3638Y-0.228
X0.3638Y-1.8225
X0.372Y3.027
X0.372Y2.452
X0.372Y2.412
X0.372Y2.372
X0.372Y1.4325
X0.372Y0.8575
X0.372Y0.8175
X0.372Y0.7775
X0.372Y-0.162
X0.372Y-0.737
X0.372Y-0.777
X0.372Y-0.817
X0.372Y-1.7565
X0.372Y-2.3315
X0.372Y-2.3715
X0.372Y-2.4115
X0.397Y3.412
X0.397Y1.8175
X0.397Y0.223
X0.397Y-1.3715
X0.402Y2.572
X0.402Y0.9775
X0.402Y-0.617
X0.402Y-2.2115
X0.412Y2.412
X0.412Y0.8175
X0.412Y-0.777
X0.412Y-2.3715
X0.417Y2.622
X0.417Y1.0275
X0.417Y-0.567
X0.417Y-2.1615
X0.452Y2.412
X0.452Y0.8175
X0.452Y-0.777
X0.452Y-2.3715
X0.462Y2.572
X0.462Y0.9775
X0.462Y-0.617
X0.462Y-2.2115
X0.4745Y3.107
X0.4745Y3.077
X0.4745Y1.5125
X0.4745Y1.4825
X0.4745Y-0.082
X0.4745Y-0.112
X0.4745Y-1.6765
X0.4745Y-1.7065
X0.482Y2.742
X0.482Y2.692
X0.482Y1.1475
X0.482Y1.0975
X0.482Y-0.447
X0.482Y-0.497
X0.482Y-2.0415
X0.482Y-2.0915
X0.492Y2.412
X0.492Y0.8175
X0.492Y-0.777
X0.492Y-2.3715
X0.4993Y3.4362
X0.4993Y1.8417
X0.4993Y0.2472
X0.4993Y-1.3473
X0.502Y3.107
X0.502Y3.077
X0.502Y1.5125
X0.502Y1.4825
X0.502Y-0.082
X0.502Y-0.112
X0.502Y-1.6765
X0.502Y-1.7065
X0.522Y2.622
X0.522Y2.572
X0.522Y1.0275
X0.522Y0.9775
X0.522Y-0.567
X0.522Y-0.617
X0.522Y-2.1615
X0.522Y-2.2115
X0.532Y3.077
X0.532Y2.987
X0.532Y2.412
X0.532Y1.4825
X0.532Y1.3925
X0.532Y0.8175
X0.532Y-0.112
X0.532Y-0.202
X0.532Y-0.777
X0.532Y-1.7065
X0.532Y-1.7965
X0.532Y-2.3715
X0.546Y2.3395
X0.546Y0.745
X0.546Y-0.8495
X0.546Y-2.444
X0.572Y2.412
X0.572Y0.8175
X0.572Y-0.777
X0.572Y-2.3715
X0.582Y2.622
X0.582Y2.572
X0.582Y1.0275
X0.582Y0.9775
X0.582Y-0.567
X0.582Y-0.617
X0.582Y-2.1615
X0.582Y-2.2115
X0.632Y2.987
X0.632Y1.3925
X0.632Y-0.202
X0.632Y-1.7965
X0.642Y2.622
X0.642Y2.572
X0.642Y1.0275
X0.642Y0.9775
X0.642Y-0.567
X0.642Y-0.617
X0.642Y-2.1615
X0.642Y-2.2115
X0.682Y3.012
X0.682Y2.912
X0.682Y1.4175
X0.682Y1.3175
X0.682Y-0.177
X0.682Y-0.277
X0.682Y-1.7715
X0.682Y-1.8715
X0.687Y2.152
X0.687Y0.5575
X0.687Y-1.037
X0.687Y-2.6315
X0.697Y2.752
X0.697Y1.1575
X0.697Y-0.437
X0.697Y-2.0315
X0.702Y2.622
X0.702Y2.572
X0.702Y1.0275
X0.702Y0.9775
X0.702Y-0.567
X0.702Y-0.617
X0.702Y-2.1615
X0.702Y-2.2115
X0.732Y3.312
X0.732Y3.262
X0.732Y1.7175
X0.732Y1.6675
X0.732Y0.123
X0.732Y0.073
X0.732Y-1.4715
X0.732Y-1.5215
X0.7332Y3.2178
X0.7332Y1.6234
X0.7332Y0.0289
X0.7332Y-1.5656
X0.792Y2.632
X0.792Y2.572
X0.792Y1.0375
X0.792Y0.9775
X0.792Y-0.557
X0.792Y-0.617
X0.792Y-2.1515
X0.792Y-2.2115
X0.832Y3.312
X0.832Y3.262
X0.832Y1.7175
X0.832Y1.6675
X0.832Y0.123
X0.832Y0.073
X0.832Y-1.4715
X0.832Y-1.5215
X0.8332Y3.2178
X0.8332Y1.6234
X0.8332Y0.0289
X0.8332Y-1.5656
X0.862Y2.632
X0.862Y2.572
X0.862Y1.0375
X0.862Y0.9775
X0.862Y-0.557
X0.862Y-0.617
X0.862Y-2.1515
X0.862Y-2.2115
X0.882Y3.012
X0.882Y2.912
X0.882Y1.4175
X0.882Y1.3175
X0.882Y-0.177
X0.882Y-0.277
X0.882Y-1.7715
X0.882Y-1.8715
X0.922Y2.632
X0.922Y2.572
X0.922Y1.0375
X0.922Y0.9775
X0.922Y-0.557
X0.922Y-0.617
X0.922Y-2.1515
X0.922Y-2.2115
X0.932Y3.312
X0.932Y3.262
X0.932Y3.212
X0.932Y1.7175
X0.932Y1.6675
X0.932Y1.6175
X0.932Y0.123
X0.932Y0.073
X0.932Y0.023
X0.932Y-1.4715
X0.932Y-1.5215
X0.932Y-1.5715
X0.982Y3.012
X0.982Y2.912
X0.982Y1.4175
X0.982Y1.3175
X0.982Y-0.177
X0.982Y-0.277
X0.982Y-1.7715
X0.982Y-1.8715
X0.996Y3.16
X0.996Y3.13
X0.996Y1.5655
X0.996Y1.5355
X0.996Y-0.029
X0.996Y-0.059
X0.996Y-1.6235
X0.996Y-1.6535
X0.9995Y3.067
X0.9995Y1.4725
X0.9995Y-0.122
X0.9995Y-1.7165
X1.002Y2.672
X1.002Y1.0775
X1.002Y-0.517
X1.002Y-2.1115
X1.032Y3.312
X1.032Y3.262
X1.032Y3.212
X1.032Y1.7175
X1.032Y1.6675
X1.032Y1.6175
X1.032Y0.123
X1.032Y0.073
X1.032Y0.023
X1.032Y-1.4715
X1.032Y-1.5215
X1.032Y-1.5715
X1.052Y2.342
X1.052Y0.7475
X1.052Y-0.847
X1.052Y-2.4415
X1.082Y2.442
X1.082Y0.8475
X1.082Y-0.747
X1.082Y-2.3415
X1.0945Y3.0845
X1.0945Y1.49
X1.0945Y-0.1045
X1.0945Y-1.699
X1.097Y2.672
X1.097Y1.0775
X1.097Y-0.517
X1.097Y-2.1115
T3
X-0.203Y-0.452
X-0.203Y-2.0465
X-0.203Y1.1425
X-0.203Y2.737
T5
X-2.598Y2.0437
X-2.598Y1.9256
X-2.5507Y2.0437
X-2.5507Y1.9256
X-2.5035Y2.0437
X-2.5035Y1.9256
X1.1501Y-2.3775
X1.1501Y-2.4248
X1.1501Y-2.472
X1.2682Y-2.3775
X1.2682Y-2.4248
X1.2682Y-2.472
X-2.598Y0.4492
X-2.598Y0.3311
X-2.5507Y0.4492
X-2.5507Y0.3311
X-2.5035Y0.4492
X-2.5035Y0.3311
X1.1501Y0.8114
X1.1501Y0.7642
X1.1501Y0.717
X1.2682Y0.8114
X1.2682Y0.7642
X1.2682Y0.717
X-3.0232Y-0.2122
X-3.0232Y-0.2594
X-3.0232Y-0.3067
X-2.9051Y-0.2122
X-2.9051Y-0.2594
X-2.9051Y-0.3067
X1.1501Y1.7366
X1.1501Y1.6894
X1.1501Y1.6421
X1.2682Y1.7366
X1.2682Y1.6894
X1.2682Y1.6421
X1.1501Y0.1421
X1.1501Y0.0949
X1.1501Y0.0477
X1.2682Y0.1421
X1.2682Y0.0949
X1.2682Y0.0477
X0.0792Y3.6382
X0.0792Y3.5201
X0.1264Y3.6382
X0.1264Y3.5201
X0.1737Y3.6382
X0.1737Y3.5201
X-3.0232Y-1.8067
X-3.0232Y-1.8539
X-3.0232Y-1.9012
X-2.9051Y-1.8067
X-2.9051Y-1.8539
X-2.9051Y-1.9012
X1.1501Y-0.783
X1.1501Y-0.8303
X1.1501Y-0.8775
X1.2682Y-0.783
X1.2682Y-0.8303
X1.2682Y-0.8775
X0.0792Y-2.7397
X0.0792Y-2.8579
X0.1264Y-2.7397
X0.1264Y-2.8579
X0.1737Y-2.7397
X0.1737Y-2.8579
X0.0792Y2.0437
X0.0792Y1.9256
X0.1264Y2.0437
X0.1264Y1.9256
X0.1737Y2.0437
X0.1737Y1.9256
X-3.0232Y1.3823
X-3.0232Y1.3351
X-3.0232Y1.2878
X-2.9051Y1.3823
X-2.9051Y1.3351
X-2.9051Y1.2878
X-2.598Y-1.1453
X-2.598Y-1.2634
X-2.5507Y-1.1453
X-2.5507Y-1.2634
X-2.5035Y-1.1453
X-2.5035Y-1.2634
X-2.598Y-2.7397
X-2.598Y-2.8579
X-2.5507Y-2.7397
X-2.5507Y-2.8579
X-2.5035Y-2.7397
X-2.5035Y-2.8579
X0.0792Y0.4492
X0.0792Y0.3311
X0.1264Y0.4492
X0.1264Y0.3311
X0.1737Y0.4492
X0.1737Y0.3311
X-2.598Y3.6382
X-2.598Y3.5201
X-2.5507Y3.6382
X-2.5507Y3.5201
X-2.5035Y3.6382
X-2.5035Y3.5201
X1.1501Y2.4059
X1.1501Y2.3587
X1.1501Y2.3114
X1.2682Y2.4059
X1.2682Y2.3587
X1.2682Y2.3114
X0.0792Y-1.1453
X0.0792Y-1.2634
X0.1264Y-1.1453
X0.1264Y-1.2634
X0.1737Y-1.1453
X0.1737Y-1.2634
X1.1501Y3.3311
X1.1501Y3.2839
X1.1501Y3.2366
X1.2682Y3.3311
X1.2682Y3.2839
X1.2682Y3.2366
X1.1501Y-1.4523
X1.1501Y-1.4996
X1.1501Y-1.5468
X1.2682Y-1.4523
X1.2682Y-1.4996
X1.2682Y-1.5468
X-3.0232Y2.9768
X-3.0232Y2.9296
X-3.0232Y2.8823
X-2.9051Y2.9768
X-2.9051Y2.9296
X-2.9051Y2.8823
T6
X-0.3446Y-1.6755
X-0.3446Y3.108
X-0.3446Y-0.081
X-0.3446Y1.5135
T7
X-0.0513Y-1.6755
X-0.0513Y3.108
X-0.0513Y-0.081
X-0.0513Y1.5135
T8
X-3.1457Y-2.9724
X-3.1457Y3.7559
X1.3863Y3.748
T9
X1.0664Y-1.3469
X1.0664Y1.8421
X1.0664Y2.1283
X1.0664Y0.5339
X-2.8206Y2.1283
X-2.8206Y-1.0606
X-2.8206Y1.8421
X1.0664Y3.4366
X-2.8206Y0.5339
X-2.8206Y0.2476
X-2.8206Y-2.6551
X-2.8206Y3.4366
X1.0664Y-2.6551
X-2.8206Y-1.3469
X1.0664Y-1.0606
X1.0664Y0.2476
T2
X-0.7495Y1.7225G85X-0.777Y1.7225
G05
X-0.6313Y1.8072G85X-0.6747Y1.8072
G05
X-0.529Y1.7225G85X-0.5565Y1.7225
G05
X-0.7495Y3.317G85X-0.777Y3.317
G05
X-0.6313Y3.4016G85X-0.6747Y3.4016
G05
X-0.529Y3.317G85X-0.5565Y3.317
G05
X-0.7495Y-1.4665G85X-0.777Y-1.4665
G05
X-0.6313Y-1.3818G85X-0.6747Y-1.3818
G05
X-0.529Y-1.4665G85X-0.5565Y-1.4665
G05
X-0.7495Y0.128G85X-0.777Y0.128
G05
X-0.6313Y0.2127G85X-0.6747Y0.2127
G05
X-0.529Y0.128G85X-0.5565Y0.128
G05
T4
X-0.7855Y-1.3313G85X-0.7827Y-1.3313
G05
X-0.5256Y-1.3313G85X-0.5229Y-1.3313
G05
X-0.7855Y1.8576G85X-0.7827Y1.8576
G05
X-0.5256Y1.8576G85X-0.5229Y1.8576
G05
X-0.7855Y3.4521G85X-0.7827Y3.4521
G05
X-0.5256Y3.4521G85X-0.5229Y3.4521
G05
X-0.7855Y0.2631G85X-0.7827Y0.2631
G05
X-0.5256Y0.2631G85X-0.5229Y0.2631
G05
T0
M30
