G04 #@! TF.GenerationSoftware,KiCad,Pcbnew,(5.0.0)*
G04 #@! TF.CreationDate,2018-12-27T15:43:29-06:00*
G04 #@! TF.ProjectId,fk-core,666B2D636F72652E6B696361645F7063,0.1*
G04 #@! TF.SameCoordinates,PX791ddc0PY791ddc0*
G04 #@! TF.FileFunction,Soldermask,Bot*
G04 #@! TF.FilePolarity,Negative*
%FSLAX46Y46*%
G04 Gerber Fmt 4.6, Leading zero omitted, Abs format (unit mm)*
G04 Created by KiCad (PCBNEW (5.0.0)) date 12/27/18 15:43:29*
%MOMM*%
%LPD*%
G01*
G04 APERTURE LIST*
%ADD10C,2.000000*%
%ADD11R,1.600000X1.400000*%
%ADD12R,0.400000X1.350000*%
%ADD13R,1.900000X1.400000*%
%ADD14O,1.651000X1.600000*%
%ADD15O,1.800000X1.100000*%
%ADD16O,2.200000X1.100000*%
%ADD17R,2.100000X0.600000*%
%ADD18R,0.600000X2.100000*%
%ADD19R,0.698500X1.498600*%
%ADD20R,1.798320X1.399540*%
%ADD21R,1.399540X1.899920*%
%ADD22R,1.600200X1.168400*%
%ADD23R,1.700000X1.700000*%
%ADD24R,1.998980X1.000760*%
%ADD25R,4.500000X2.300000*%
%ADD26C,1.050000*%
%ADD27C,1.300000*%
%ADD28R,1.100000X1.000000*%
%ADD29R,2.000000X1.300000*%
%ADD30R,1.168400X1.600200*%
%ADD31R,1.200000X0.800000*%
%ADD32R,2.200000X0.800000*%
%ADD33R,2.500000X2.000000*%
%ADD34C,2.540000*%
%ADD35R,1.000000X1.100000*%
G04 APERTURE END LIST*
D10*
G04 #@! TO.C,J19*
X-2971800Y6807200D03*
G04 #@! TD*
G04 #@! TO.C,J18*
X1117600Y6756400D03*
G04 #@! TD*
D11*
G04 #@! TO.C,J9*
X7361000Y14509000D03*
D12*
X4161000Y13589000D03*
D13*
X5361000Y16509000D03*
D14*
X861000Y16259000D03*
D13*
X2961000Y16509000D03*
D14*
X7461000Y16259000D03*
D12*
X3511000Y13589000D03*
X2861000Y13589000D03*
X4811000Y13589000D03*
X5461000Y13589000D03*
D11*
X961000Y14509000D03*
G04 #@! TD*
D15*
G04 #@! TO.C,J16*
X6991000Y12827000D03*
X1391000Y12827000D03*
D16*
X4191000Y14977000D03*
G04 #@! TD*
D17*
G04 #@! TO.C,U1*
X-30795100Y-5459730D03*
X-30795100Y-6475730D03*
X-30795100Y-7491731D03*
X-30795100Y-8507731D03*
X-30795100Y-9523730D03*
X-30795100Y-10539730D03*
X-30795100Y-11555730D03*
X-30795100Y-12571730D03*
X-30795100Y-2411730D03*
D18*
X-36514550Y-15242130D03*
X-35498550Y-15242130D03*
X-34482550Y-15242130D03*
X-33466550Y-15242130D03*
X-40578550Y-15242130D03*
X-42610553Y-15242130D03*
X-43626550Y-15242130D03*
X-44642550Y-15242130D03*
X-45658550Y-15242130D03*
X-34474330Y-511860D03*
X-35490330Y-511860D03*
X-36506330Y-511860D03*
X-37522330Y-511860D03*
X-38538330Y-511860D03*
X-39554330Y-511860D03*
X-40570330Y-511860D03*
X-41586334Y-511860D03*
X-42602334Y-511860D03*
X-43618330Y-511860D03*
G04 #@! TD*
D19*
G04 #@! TO.C,M7*
X-23477220Y-14193520D03*
X-22377400Y-13794740D03*
X-21277580Y-14193520D03*
X-20177760Y-14594840D03*
X-19077940Y-14193520D03*
X-17975580Y-14594840D03*
X-16875760Y-14193520D03*
X-15775940Y-14193520D03*
D20*
X-16476980Y-3995420D03*
X-22476460Y-3995420D03*
D21*
X-14876780Y-17094200D03*
X-28077160Y-17995900D03*
G04 #@! TD*
D22*
G04 #@! TO.C,J12*
X47498000Y-11049000D03*
X47498000Y-9525000D03*
G04 #@! TD*
D23*
G04 #@! TO.C,J4*
X15621000Y-1905000D03*
G04 #@! TD*
D24*
G04 #@! TO.C,U10*
X31419800Y-5021580D03*
X31419800Y-3522980D03*
X31419800Y-2021840D03*
X31419800Y-523240D03*
X31419800Y977900D03*
X31419800Y2476500D03*
X31419800Y3977640D03*
X31419800Y5476240D03*
X31419800Y6977380D03*
X31419800Y8475980D03*
X47421800Y8475980D03*
X47421800Y6977380D03*
X47421800Y5476240D03*
X47421800Y3977640D03*
X47421800Y2476500D03*
X47421800Y977900D03*
X47421800Y-523240D03*
X47421800Y-2021840D03*
X47421800Y-3522980D03*
X47421800Y-5021580D03*
G04 #@! TD*
D25*
G04 #@! TO.C,BT1*
X23723600Y7518400D03*
X7323600Y7518400D03*
D26*
X12023600Y7518400D03*
D27*
X19473600Y7518400D03*
G04 #@! TD*
D10*
G04 #@! TO.C,M9*
X40640000Y16510000D03*
G04 #@! TD*
G04 #@! TO.C,M10*
X-44450000Y-17780000D03*
G04 #@! TD*
G04 #@! TO.C,M11*
X36830000Y-13970000D03*
G04 #@! TD*
D28*
G04 #@! TO.C,R23*
X9106800Y15011400D03*
X10806800Y15011400D03*
G04 #@! TD*
G04 #@! TO.C,R30*
X9095000Y13487400D03*
X10795000Y13487400D03*
G04 #@! TD*
D29*
G04 #@! TO.C,U3*
X636000Y-18096000D03*
X636000Y-16096000D03*
X636000Y-14096000D03*
X636000Y-12096000D03*
X636000Y-10096000D03*
X636000Y-8096000D03*
X636000Y-6096000D03*
X636000Y-4096000D03*
X16636000Y-4096000D03*
X16636000Y-6096000D03*
X16636000Y-8096000D03*
X16636000Y-10096000D03*
X16636000Y-12096000D03*
X16636000Y-14096000D03*
X16636000Y-16096000D03*
X16636000Y-18096000D03*
G04 #@! TD*
D30*
G04 #@! TO.C,J2*
X-13081000Y-2413000D03*
X-14605000Y-2413000D03*
G04 #@! TD*
G04 #@! TO.C,J14*
X-16357600Y6146800D03*
X-14833600Y6146800D03*
G04 #@! TD*
D31*
G04 #@! TO.C,U14*
X-23345200Y8866000D03*
D32*
X-23845200Y7366000D03*
D31*
X-23345200Y5866000D03*
D33*
X-26195200Y7366000D03*
G04 #@! TD*
D28*
G04 #@! TO.C,C14*
X-3339276Y12452695D03*
X-1639276Y12452695D03*
G04 #@! TD*
D30*
G04 #@! TO.C,J1*
X28956000Y1397000D03*
X27432000Y1397000D03*
G04 #@! TD*
D34*
G04 #@! TO.C,M1*
X47865000Y-17365000D03*
G04 #@! TD*
G04 #@! TO.C,M3*
X-50865000Y-17365000D03*
G04 #@! TD*
G04 #@! TO.C,M4*
X47865000Y15865000D03*
G04 #@! TD*
G04 #@! TO.C,M6*
X-50865000Y15865000D03*
G04 #@! TD*
D35*
G04 #@! TO.C,R26*
X-10591800Y14540600D03*
X-10591800Y12840600D03*
G04 #@! TD*
G04 #@! TO.C,R27*
X-9067800Y14566000D03*
X-9067800Y12866000D03*
G04 #@! TD*
D28*
G04 #@! TO.C,R31*
X-1639276Y14103695D03*
X-3339276Y14103695D03*
G04 #@! TD*
M02*
