G04 #@! TF.GenerationSoftware,KiCad,Pcbnew,(5.0.0)*
G04 #@! TF.CreationDate,2018-12-27T15:43:29-06:00*
G04 #@! TF.ProjectId,fk-core,666B2D636F72652E6B696361645F7063,0.1*
G04 #@! TF.SameCoordinates,PX791ddc0PY791ddc0*
G04 #@! TF.FileFunction,Paste,Top*
G04 #@! TF.FilePolarity,Positive*
%FSLAX46Y46*%
G04 Gerber Fmt 4.6, Leading zero omitted, Abs format (unit mm)*
G04 Created by KiCad (PCBNEW (5.0.0)) date 12/27/18 15:43:29*
%MOMM*%
%LPD*%
G01*
G04 APERTURE LIST*
%ADD10C,0.225000*%
%ADD11C,0.100000*%
%ADD12R,0.900000X0.990000*%
%ADD13R,0.990000X0.900000*%
%ADD14R,0.540000X1.530000*%
%ADD15R,0.900000X2.520000*%
%ADD16R,4.950000X0.900000*%
%ADD17R,2.600000X1.340000*%
%ADD18R,0.405000X1.350000*%
%ADD19R,0.630000X0.225000*%
%ADD20R,0.640000X1.000000*%
%ADD21R,0.585000X1.404000*%
%ADD22R,2.700000X0.540000*%
%ADD23R,0.540000X1.800000*%
%ADD24R,1.350000X0.900000*%
%ADD25R,1.305000X0.630000*%
%ADD26R,0.810000X1.350000*%
%ADD27R,0.360000X0.450000*%
%ADD28R,1.440000X0.990000*%
%ADD29R,0.360000X0.225000*%
%ADD30R,0.630000X0.900000*%
%ADD31R,0.630000X0.540000*%
%ADD32R,0.585000X0.945000*%
%ADD33R,0.435000X0.435000*%
%ADD34R,0.715000X0.202000*%
%ADD35R,0.202000X0.715000*%
%ADD36R,0.220000X0.715000*%
%ADD37R,1.800000X0.540000*%
%ADD38R,0.990000X1.710000*%
%ADD39R,1.710000X0.990000*%
%ADD40R,0.540000X1.395000*%
%ADD41R,1.080000X1.620000*%
%ADD42R,0.675000X2.250000*%
%ADD43C,0.900000*%
%ADD44R,1.980000X0.945000*%
%ADD45R,0.945000X0.900000*%
G04 APERTURE END LIST*
D10*
G04 #@! TO.C,U2*
X-3493571Y6519058D03*
D11*
G36*
X-3986778Y6853166D02*
X-3827679Y7012265D01*
X-3000364Y6184950D01*
X-3159463Y6025851D01*
X-3986778Y6853166D01*
X-3986778Y6853166D01*
G37*
D10*
X-3847124Y6165505D03*
D11*
G36*
X-4340331Y6499613D02*
X-4181232Y6658712D01*
X-3353917Y5831397D01*
X-3513016Y5672298D01*
X-4340331Y6499613D01*
X-4340331Y6499613D01*
G37*
D10*
X-4200678Y5811951D03*
D11*
G36*
X-4693885Y6146059D02*
X-4534786Y6305158D01*
X-3707471Y5477843D01*
X-3866570Y5318744D01*
X-4693885Y6146059D01*
X-4693885Y6146059D01*
G37*
D10*
X-4554231Y5458398D03*
D11*
G36*
X-5047438Y5792506D02*
X-4888339Y5951605D01*
X-4061024Y5124290D01*
X-4220123Y4965191D01*
X-5047438Y5792506D01*
X-5047438Y5792506D01*
G37*
D10*
X-4907784Y5104845D03*
D11*
G36*
X-5400991Y5438953D02*
X-5241892Y5598052D01*
X-4414577Y4770737D01*
X-4573676Y4611638D01*
X-5400991Y5438953D01*
X-5400991Y5438953D01*
G37*
D10*
X-5261338Y4751291D03*
D11*
G36*
X-5754545Y5085399D02*
X-5595446Y5244498D01*
X-4768131Y4417183D01*
X-4927230Y4258084D01*
X-5754545Y5085399D01*
X-5754545Y5085399D01*
G37*
D10*
X-5614891Y4397738D03*
D11*
G36*
X-6108098Y4731846D02*
X-5948999Y4890945D01*
X-5121684Y4063630D01*
X-5280783Y3904531D01*
X-6108098Y4731846D01*
X-6108098Y4731846D01*
G37*
D10*
X-5968445Y4044184D03*
D11*
G36*
X-6461652Y4378292D02*
X-6302553Y4537391D01*
X-5475238Y3710076D01*
X-5634337Y3550977D01*
X-6461652Y4378292D01*
X-6461652Y4378292D01*
G37*
D10*
X-6321998Y3690631D03*
D11*
G36*
X-6815205Y4024739D02*
X-6656106Y4183838D01*
X-5828791Y3356523D01*
X-5987890Y3197424D01*
X-6815205Y4024739D01*
X-6815205Y4024739D01*
G37*
D10*
X-6675551Y3337078D03*
D11*
G36*
X-7168758Y3671186D02*
X-7009659Y3830285D01*
X-6182344Y3002970D01*
X-6341443Y2843871D01*
X-7168758Y3671186D01*
X-7168758Y3671186D01*
G37*
D10*
X-7029105Y2983524D03*
D11*
G36*
X-7522312Y3317632D02*
X-7363213Y3476731D01*
X-6535898Y2649416D01*
X-6694997Y2490317D01*
X-7522312Y3317632D01*
X-7522312Y3317632D01*
G37*
D10*
X-7382658Y2629971D03*
D11*
G36*
X-7875865Y2964079D02*
X-7716766Y3123178D01*
X-6889451Y2295863D01*
X-7048550Y2136764D01*
X-7875865Y2964079D01*
X-7875865Y2964079D01*
G37*
D10*
X-7382658Y367229D03*
D11*
G36*
X-7716766Y-125978D02*
X-7875865Y33121D01*
X-7048550Y860436D01*
X-6889451Y701337D01*
X-7716766Y-125978D01*
X-7716766Y-125978D01*
G37*
D10*
X-7029105Y13676D03*
D11*
G36*
X-7363213Y-479531D02*
X-7522312Y-320432D01*
X-6694997Y506883D01*
X-6535898Y347784D01*
X-7363213Y-479531D01*
X-7363213Y-479531D01*
G37*
D10*
X-6675551Y-339878D03*
D11*
G36*
X-7009659Y-833085D02*
X-7168758Y-673986D01*
X-6341443Y153329D01*
X-6182344Y-5770D01*
X-7009659Y-833085D01*
X-7009659Y-833085D01*
G37*
D10*
X-6321998Y-693431D03*
D11*
G36*
X-6656106Y-1186638D02*
X-6815205Y-1027539D01*
X-5987890Y-200224D01*
X-5828791Y-359323D01*
X-6656106Y-1186638D01*
X-6656106Y-1186638D01*
G37*
D10*
X-5968445Y-1046984D03*
D11*
G36*
X-6302553Y-1540191D02*
X-6461652Y-1381092D01*
X-5634337Y-553777D01*
X-5475238Y-712876D01*
X-6302553Y-1540191D01*
X-6302553Y-1540191D01*
G37*
D10*
X-5614891Y-1400538D03*
D11*
G36*
X-5948999Y-1893745D02*
X-6108098Y-1734646D01*
X-5280783Y-907331D01*
X-5121684Y-1066430D01*
X-5948999Y-1893745D01*
X-5948999Y-1893745D01*
G37*
D10*
X-5261338Y-1754091D03*
D11*
G36*
X-5595446Y-2247298D02*
X-5754545Y-2088199D01*
X-4927230Y-1260884D01*
X-4768131Y-1419983D01*
X-5595446Y-2247298D01*
X-5595446Y-2247298D01*
G37*
D10*
X-4907784Y-2107645D03*
D11*
G36*
X-5241892Y-2600852D02*
X-5400991Y-2441753D01*
X-4573676Y-1614438D01*
X-4414577Y-1773537D01*
X-5241892Y-2600852D01*
X-5241892Y-2600852D01*
G37*
D10*
X-4554231Y-2461198D03*
D11*
G36*
X-4888339Y-2954405D02*
X-5047438Y-2795306D01*
X-4220123Y-1967991D01*
X-4061024Y-2127090D01*
X-4888339Y-2954405D01*
X-4888339Y-2954405D01*
G37*
D10*
X-4200678Y-2814751D03*
D11*
G36*
X-4534786Y-3307958D02*
X-4693885Y-3148859D01*
X-3866570Y-2321544D01*
X-3707471Y-2480643D01*
X-4534786Y-3307958D01*
X-4534786Y-3307958D01*
G37*
D10*
X-3847124Y-3168305D03*
D11*
G36*
X-4181232Y-3661512D02*
X-4340331Y-3502413D01*
X-3513016Y-2675098D01*
X-3353917Y-2834197D01*
X-4181232Y-3661512D01*
X-4181232Y-3661512D01*
G37*
D10*
X-3493571Y-3521858D03*
D11*
G36*
X-3827679Y-4015065D02*
X-3986778Y-3855966D01*
X-3159463Y-3028651D01*
X-3000364Y-3187750D01*
X-3827679Y-4015065D01*
X-3827679Y-4015065D01*
G37*
D10*
X-1230829Y-3521858D03*
D11*
G36*
X-1724036Y-3187750D02*
X-1564937Y-3028651D01*
X-737622Y-3855966D01*
X-896721Y-4015065D01*
X-1724036Y-3187750D01*
X-1724036Y-3187750D01*
G37*
D10*
X-877276Y-3168305D03*
D11*
G36*
X-1370483Y-2834197D02*
X-1211384Y-2675098D01*
X-384069Y-3502413D01*
X-543168Y-3661512D01*
X-1370483Y-2834197D01*
X-1370483Y-2834197D01*
G37*
D10*
X-523722Y-2814751D03*
D11*
G36*
X-1016929Y-2480643D02*
X-857830Y-2321544D01*
X-30515Y-3148859D01*
X-189614Y-3307958D01*
X-1016929Y-2480643D01*
X-1016929Y-2480643D01*
G37*
D10*
X-170169Y-2461198D03*
D11*
G36*
X-663376Y-2127090D02*
X-504277Y-1967991D01*
X323038Y-2795306D01*
X163939Y-2954405D01*
X-663376Y-2127090D01*
X-663376Y-2127090D01*
G37*
D10*
X183384Y-2107645D03*
D11*
G36*
X-309823Y-1773537D02*
X-150724Y-1614438D01*
X676591Y-2441753D01*
X517492Y-2600852D01*
X-309823Y-1773537D01*
X-309823Y-1773537D01*
G37*
D10*
X536938Y-1754091D03*
D11*
G36*
X43731Y-1419983D02*
X202830Y-1260884D01*
X1030145Y-2088199D01*
X871046Y-2247298D01*
X43731Y-1419983D01*
X43731Y-1419983D01*
G37*
D10*
X890491Y-1400538D03*
D11*
G36*
X397284Y-1066430D02*
X556383Y-907331D01*
X1383698Y-1734646D01*
X1224599Y-1893745D01*
X397284Y-1066430D01*
X397284Y-1066430D01*
G37*
D10*
X1244045Y-1046984D03*
D11*
G36*
X750838Y-712876D02*
X909937Y-553777D01*
X1737252Y-1381092D01*
X1578153Y-1540191D01*
X750838Y-712876D01*
X750838Y-712876D01*
G37*
D10*
X1597598Y-693431D03*
D11*
G36*
X1104391Y-359323D02*
X1263490Y-200224D01*
X2090805Y-1027539D01*
X1931706Y-1186638D01*
X1104391Y-359323D01*
X1104391Y-359323D01*
G37*
D10*
X1951151Y-339878D03*
D11*
G36*
X1457944Y-5770D02*
X1617043Y153329D01*
X2444358Y-673986D01*
X2285259Y-833085D01*
X1457944Y-5770D01*
X1457944Y-5770D01*
G37*
D10*
X2304705Y13676D03*
D11*
G36*
X1811498Y347784D02*
X1970597Y506883D01*
X2797912Y-320432D01*
X2638813Y-479531D01*
X1811498Y347784D01*
X1811498Y347784D01*
G37*
D10*
X2658258Y367229D03*
D11*
G36*
X2165051Y701337D02*
X2324150Y860436D01*
X3151465Y33121D01*
X2992366Y-125978D01*
X2165051Y701337D01*
X2165051Y701337D01*
G37*
D10*
X2658258Y2629971D03*
D11*
G36*
X2324150Y2136764D02*
X2165051Y2295863D01*
X2992366Y3123178D01*
X3151465Y2964079D01*
X2324150Y2136764D01*
X2324150Y2136764D01*
G37*
D10*
X2304705Y2983524D03*
D11*
G36*
X1970597Y2490317D02*
X1811498Y2649416D01*
X2638813Y3476731D01*
X2797912Y3317632D01*
X1970597Y2490317D01*
X1970597Y2490317D01*
G37*
D10*
X1951151Y3337078D03*
D11*
G36*
X1617043Y2843871D02*
X1457944Y3002970D01*
X2285259Y3830285D01*
X2444358Y3671186D01*
X1617043Y2843871D01*
X1617043Y2843871D01*
G37*
D10*
X1597598Y3690631D03*
D11*
G36*
X1263490Y3197424D02*
X1104391Y3356523D01*
X1931706Y4183838D01*
X2090805Y4024739D01*
X1263490Y3197424D01*
X1263490Y3197424D01*
G37*
D10*
X1244045Y4044184D03*
D11*
G36*
X909937Y3550977D02*
X750838Y3710076D01*
X1578153Y4537391D01*
X1737252Y4378292D01*
X909937Y3550977D01*
X909937Y3550977D01*
G37*
D10*
X890491Y4397738D03*
D11*
G36*
X556383Y3904531D02*
X397284Y4063630D01*
X1224599Y4890945D01*
X1383698Y4731846D01*
X556383Y3904531D01*
X556383Y3904531D01*
G37*
D10*
X536938Y4751291D03*
D11*
G36*
X202830Y4258084D02*
X43731Y4417183D01*
X871046Y5244498D01*
X1030145Y5085399D01*
X202830Y4258084D01*
X202830Y4258084D01*
G37*
D10*
X183384Y5104845D03*
D11*
G36*
X-150724Y4611638D02*
X-309823Y4770737D01*
X517492Y5598052D01*
X676591Y5438953D01*
X-150724Y4611638D01*
X-150724Y4611638D01*
G37*
D10*
X-170169Y5458398D03*
D11*
G36*
X-504277Y4965191D02*
X-663376Y5124290D01*
X163939Y5951605D01*
X323038Y5792506D01*
X-504277Y4965191D01*
X-504277Y4965191D01*
G37*
D10*
X-523722Y5811951D03*
D11*
G36*
X-857830Y5318744D02*
X-1016929Y5477843D01*
X-189614Y6305158D01*
X-30515Y6146059D01*
X-857830Y5318744D01*
X-857830Y5318744D01*
G37*
D10*
X-877276Y6165505D03*
D11*
G36*
X-1211384Y5672298D02*
X-1370483Y5831397D01*
X-543168Y6658712D01*
X-384069Y6499613D01*
X-1211384Y5672298D01*
X-1211384Y5672298D01*
G37*
D10*
X-1230829Y6519058D03*
D11*
G36*
X-1564937Y6025851D02*
X-1724036Y6184950D01*
X-896721Y7012265D01*
X-737622Y6853166D01*
X-1564937Y6025851D01*
X-1564937Y6025851D01*
G37*
G04 #@! TD*
D12*
G04 #@! TO.C,D4*
X-45974000Y16090000D03*
X-45974000Y14390000D03*
G04 #@! TD*
D13*
G04 #@! TO.C,R48*
X23456000Y11176000D03*
X21756000Y11176000D03*
G04 #@! TD*
D12*
G04 #@! TO.C,R47*
X-47752000Y14390000D03*
X-47752000Y16090000D03*
G04 #@! TD*
D14*
G04 #@! TO.C,J17*
X-2493000Y15894600D03*
X-3743000Y15894600D03*
X-4993000Y15894600D03*
X-6243000Y15894600D03*
X-7493000Y15894600D03*
X-8743000Y15894600D03*
X-9993000Y15894600D03*
X-11243000Y15894600D03*
X-12493000Y15894600D03*
D15*
X-643000Y12544600D03*
X-14343000Y12544600D03*
G04 #@! TD*
D16*
G04 #@! TO.C,J3*
X-46863000Y7477000D03*
X-46863000Y5477000D03*
D17*
X-44613000Y9877000D03*
X-44613000Y3077000D03*
G04 #@! TD*
D16*
G04 #@! TO.C,J10*
X-46482000Y-4096000D03*
X-46482000Y-6096000D03*
D17*
X-44232000Y-1696000D03*
X-44232000Y-8496000D03*
G04 #@! TD*
D18*
G04 #@! TO.C,J16*
X5491000Y13077000D03*
X4191000Y13077000D03*
X4841000Y13077000D03*
X3541000Y13077000D03*
X2891000Y13077000D03*
G04 #@! TD*
D19*
G04 #@! TO.C,U15*
X-36192000Y-6973000D03*
X-36192000Y-6473000D03*
X-36192000Y-5973000D03*
X-36192000Y-5473000D03*
X-38992000Y-5473000D03*
X-38992000Y-5973000D03*
X-38992000Y-6473000D03*
X-38992000Y-6973000D03*
D20*
X-38007000Y-5628000D03*
X-37177000Y-5628000D03*
X-38007000Y-6818000D03*
X-37177000Y-6818000D03*
G04 #@! TD*
D13*
G04 #@! TO.C,C39*
X-39419000Y-381000D03*
X-37719000Y-381000D03*
G04 #@! TD*
G04 #@! TO.C,C40*
X-37553000Y-3556000D03*
X-35853000Y-3556000D03*
G04 #@! TD*
D12*
G04 #@! TO.C,R46*
X-33655000Y-1182000D03*
X-33655000Y-2882000D03*
G04 #@! TD*
G04 #@! TO.C,R45*
X-32131000Y-2882000D03*
X-32131000Y-1182000D03*
G04 #@! TD*
D13*
G04 #@! TO.C,R44*
X-39331000Y-8890000D03*
X-37631000Y-8890000D03*
G04 #@! TD*
G04 #@! TO.C,R43*
X-31789000Y-6477000D03*
X-33489000Y-6477000D03*
G04 #@! TD*
G04 #@! TO.C,R42*
X-39331000Y-1905000D03*
X-37631000Y-1905000D03*
G04 #@! TD*
D21*
G04 #@! TO.C,U4*
X8397200Y-105400D03*
X9347200Y-105400D03*
X10297200Y-105400D03*
X10297200Y2594600D03*
X8397200Y2594600D03*
G04 #@! TD*
D14*
G04 #@! TO.C,J6*
X-17864200Y15923000D03*
X-19114200Y15923000D03*
X-20364200Y15923000D03*
X-21614200Y15923000D03*
X-22864200Y15923000D03*
D15*
X-16014200Y12573000D03*
X-24714200Y12573000D03*
G04 #@! TD*
D14*
G04 #@! TO.C,J8*
X16131700Y8477800D03*
X14881700Y8477800D03*
D15*
X17981700Y5127800D03*
X13031700Y5127800D03*
G04 #@! TD*
D13*
G04 #@! TO.C,L3*
X40575600Y-7620000D03*
X38875600Y-7620000D03*
G04 #@! TD*
D22*
G04 #@! TO.C,U5*
X-25806000Y-11557000D03*
X-25806000Y-10287000D03*
X-25806000Y-9017000D03*
X-25806000Y-7747000D03*
X-19406000Y-7747000D03*
X-19406000Y-9017000D03*
X-19406000Y-10287000D03*
X-19406000Y-11557000D03*
G04 #@! TD*
D23*
G04 #@! TO.C,U9*
X-18923000Y1110000D03*
X-20193000Y1110000D03*
X-21463000Y1110000D03*
X-22733000Y1110000D03*
X-22733000Y6510000D03*
X-21463000Y6510000D03*
X-20193000Y6510000D03*
X-18923000Y6510000D03*
G04 #@! TD*
D24*
G04 #@! TO.C,F1*
X9398000Y13419000D03*
X9398000Y11219000D03*
G04 #@! TD*
D12*
G04 #@! TO.C,C16*
X-6926802Y-16440022D03*
X-6926802Y-18140022D03*
G04 #@! TD*
D14*
G04 #@! TO.C,J5*
X26142000Y-4400000D03*
X24892000Y-4400000D03*
X23642000Y-4400000D03*
D15*
X27992000Y-7750000D03*
X21792000Y-7750000D03*
G04 #@! TD*
D25*
G04 #@! TO.C,SW2*
X18035900Y16875000D03*
X12875900Y16875000D03*
X12875900Y14875000D03*
X18035900Y14875000D03*
G04 #@! TD*
G04 #@! TO.C,SW1*
X8545200Y-18399000D03*
X13705200Y-18399000D03*
X13705200Y-16399000D03*
X8545200Y-16399000D03*
G04 #@! TD*
D26*
G04 #@! TO.C,U13*
X30912800Y11431100D03*
X34212800Y11431100D03*
X34212800Y16331100D03*
X30912800Y16331100D03*
G04 #@! TD*
D12*
G04 #@! TO.C,C33*
X-10228802Y-16440022D03*
X-10228802Y-18140022D03*
G04 #@! TD*
G04 #@! TO.C,C34*
X-8577802Y-16440022D03*
X-8577802Y-18140022D03*
G04 #@! TD*
G04 #@! TO.C,R7*
X-11938000Y-10502000D03*
X-11938000Y-8802000D03*
G04 #@! TD*
D13*
G04 #@! TO.C,C1*
X-10072000Y9296400D03*
X-11772000Y9296400D03*
G04 #@! TD*
G04 #@! TO.C,C2*
X19368400Y-13462000D03*
X21068400Y-13462000D03*
G04 #@! TD*
G04 #@! TO.C,C3*
X-8317600Y6959600D03*
X-6617600Y6959600D03*
G04 #@! TD*
G04 #@! TO.C,C4*
X-1080400Y9194800D03*
X-2780400Y9194800D03*
G04 #@! TD*
G04 #@! TO.C,C5*
X-7989200Y-2006600D03*
X-9689200Y-2006600D03*
G04 #@! TD*
D12*
G04 #@! TO.C,C7*
X-11734800Y6109600D03*
X-11734800Y7809600D03*
G04 #@! TD*
G04 #@! TO.C,C10*
X11176000Y16725000D03*
X11176000Y15025000D03*
G04 #@! TD*
G04 #@! TO.C,C11*
X10668000Y4458600D03*
X10668000Y6158600D03*
G04 #@! TD*
D13*
G04 #@! TO.C,C12*
X-32197353Y11760341D03*
X-33897353Y11760341D03*
G04 #@! TD*
G04 #@! TO.C,C15*
X-7963800Y-5207000D03*
X-9663800Y-5207000D03*
G04 #@! TD*
D12*
G04 #@! TO.C,C18*
X-29083000Y-10326000D03*
X-29083000Y-12026000D03*
G04 #@! TD*
D13*
G04 #@! TO.C,C19*
X-39458000Y3048000D03*
X-37758000Y3048000D03*
G04 #@! TD*
G04 #@! TO.C,C20*
X-34456000Y6096000D03*
X-36156000Y6096000D03*
G04 #@! TD*
G04 #@! TO.C,C21*
X-19138000Y8636000D03*
X-17438000Y8636000D03*
G04 #@! TD*
D12*
G04 #@! TO.C,C22*
X31318200Y-12965800D03*
X31318200Y-11265800D03*
G04 #@! TD*
D13*
G04 #@! TO.C,C24*
X34644700Y-11290300D03*
X32944700Y-11290300D03*
G04 #@! TD*
D12*
G04 #@! TO.C,D1*
X36347400Y14418600D03*
X36347400Y16118600D03*
G04 #@! TD*
G04 #@! TO.C,D2*
X-28397200Y-16450600D03*
X-28397200Y-18150600D03*
G04 #@! TD*
G04 #@! TO.C,D3*
X-24731530Y-16470430D03*
X-24731530Y-18170430D03*
G04 #@! TD*
D27*
G04 #@! TO.C,D7*
X-31481000Y15807400D03*
X-32781000Y15807400D03*
D28*
X-32131000Y14757400D03*
D29*
X-32131000Y14082400D03*
G04 #@! TD*
D30*
G04 #@! TO.C,D8*
X3260000Y8950000D03*
D31*
X3260000Y7250000D03*
X5260000Y7250000D03*
X5260000Y9150000D03*
G04 #@! TD*
D13*
G04 #@! TO.C,D9*
X-28612200Y16335400D03*
X-26912200Y16335400D03*
G04 #@! TD*
G04 #@! TO.C,D10*
X-28612200Y13084200D03*
X-26912200Y13084200D03*
G04 #@! TD*
D12*
G04 #@! TO.C,D11*
X22372800Y14390000D03*
X22372800Y16090000D03*
G04 #@! TD*
G04 #@! TO.C,L1*
X-10160000Y6160400D03*
X-10160000Y7860400D03*
G04 #@! TD*
G04 #@! TO.C,L2*
X9398000Y16725000D03*
X9398000Y15025000D03*
G04 #@! TD*
D32*
G04 #@! TO.C,Q1*
X36413400Y10327000D03*
X38313400Y10327000D03*
X37363400Y12627000D03*
G04 #@! TD*
D13*
G04 #@! TO.C,R1*
X-36410000Y-17780000D03*
X-34710000Y-17780000D03*
G04 #@! TD*
D12*
G04 #@! TO.C,R2*
X-17094200Y-16450600D03*
X-17094200Y-18150600D03*
G04 #@! TD*
G04 #@! TO.C,R3*
X38379400Y16118600D03*
X38379400Y14418600D03*
G04 #@! TD*
G04 #@! TO.C,R4*
X-30226000Y-16450600D03*
X-30226000Y-18150600D03*
G04 #@! TD*
G04 #@! TO.C,R5*
X-26568400Y-16501400D03*
X-26568400Y-18201400D03*
G04 #@! TD*
G04 #@! TO.C,R6*
X-4445000Y-11772000D03*
X-4445000Y-10072000D03*
G04 #@! TD*
D13*
G04 #@! TO.C,R8*
X18503000Y-17856200D03*
X16803000Y-17856200D03*
G04 #@! TD*
G04 #@! TO.C,R9*
X18503000Y-16078200D03*
X16803000Y-16078200D03*
G04 #@! TD*
G04 #@! TO.C,R10*
X11621400Y11684000D03*
X13321400Y11684000D03*
G04 #@! TD*
G04 #@! TO.C,R17*
X17182200Y11684000D03*
X15482200Y11684000D03*
G04 #@! TD*
G04 #@! TO.C,R21*
X-32197353Y10083941D03*
X-33897353Y10083941D03*
G04 #@! TD*
D12*
G04 #@! TO.C,R22*
X-34977753Y16267941D03*
X-34977753Y14567941D03*
G04 #@! TD*
G04 #@! TO.C,R24*
X-36755753Y16267941D03*
X-36755753Y14567941D03*
G04 #@! TD*
G04 #@! TO.C,R25*
X-38482953Y16267941D03*
X-38482953Y14567941D03*
G04 #@! TD*
D13*
G04 #@! TO.C,R32*
X-28612200Y14709800D03*
X-26912200Y14709800D03*
G04 #@! TD*
G04 #@! TO.C,R33*
X-28612200Y11458600D03*
X-26912200Y11458600D03*
G04 #@! TD*
D12*
G04 #@! TO.C,R34*
X-40260953Y14567941D03*
X-40260953Y16267941D03*
G04 #@! TD*
D13*
G04 #@! TO.C,R35*
X10298800Y-3530600D03*
X8598800Y-3530600D03*
G04 #@! TD*
G04 #@! TO.C,R36*
X10324200Y-1981200D03*
X8624200Y-1981200D03*
G04 #@! TD*
G04 #@! TO.C,R37*
X34657400Y-12915900D03*
X32957400Y-12915900D03*
G04 #@! TD*
D12*
G04 #@! TO.C,R39*
X24100000Y14390000D03*
X24100000Y16090000D03*
G04 #@! TD*
D33*
G04 #@! TO.C,U6*
X-37409083Y8945133D03*
X-37409083Y9695133D03*
X-38159083Y9695133D03*
X-38159083Y8945133D03*
D34*
X-39259083Y10070133D03*
X-39259083Y9570133D03*
X-39259083Y9070133D03*
X-39259083Y8570133D03*
D35*
X-38534083Y7845133D03*
X-38034083Y7845133D03*
D36*
X-37534083Y7845133D03*
D35*
X-37034083Y7845133D03*
D34*
X-36309083Y8570133D03*
X-36309083Y9070133D03*
X-36309083Y9570133D03*
X-36309083Y10070133D03*
D35*
X-37034083Y10795133D03*
X-37534083Y10795133D03*
X-38034083Y10795133D03*
D36*
X-38534083Y10795133D03*
G04 #@! TD*
D37*
G04 #@! TO.C,U7*
X33103800Y-14478000D03*
X33103800Y-15748000D03*
X33103800Y-17018000D03*
X33103800Y-18288000D03*
X27703800Y-18288000D03*
X27703800Y-17018000D03*
X27703800Y-15748000D03*
X27703800Y-14478000D03*
G04 #@! TD*
D23*
G04 #@! TO.C,U12*
X-6159500Y-13147000D03*
X-7429500Y-13147000D03*
X-8699500Y-13147000D03*
X-9969500Y-13147000D03*
X-9969500Y-7747000D03*
X-8699500Y-7747000D03*
X-7429500Y-7747000D03*
X-6159500Y-7747000D03*
G04 #@! TD*
D38*
G04 #@! TO.C,Y1*
X-6939599Y9042400D03*
X-4439601Y9042400D03*
G04 #@! TD*
D39*
G04 #@! TO.C,Y2*
X24815800Y-16312200D03*
X24815800Y-13812200D03*
G04 #@! TD*
D12*
G04 #@! TO.C,C17*
X-5275802Y-16440022D03*
X-5275802Y-18140022D03*
G04 #@! TD*
D40*
G04 #@! TO.C,J13*
X27646000Y7675000D03*
X26646000Y7675000D03*
X25646000Y7675000D03*
X24646000Y7675000D03*
X23646000Y7675000D03*
X22646000Y7675000D03*
D41*
X28946000Y5150000D03*
X21346000Y5150000D03*
G04 #@! TD*
D12*
G04 #@! TO.C,C23*
X-33655000Y4406000D03*
X-33655000Y2706000D03*
G04 #@! TD*
G04 #@! TO.C,C25*
X-29718000Y1436000D03*
X-29718000Y3136000D03*
G04 #@! TD*
G04 #@! TO.C,R11*
X-35306000Y4406000D03*
X-35306000Y2706000D03*
G04 #@! TD*
G04 #@! TO.C,R12*
X-32131000Y4406000D03*
X-32131000Y2706000D03*
G04 #@! TD*
D23*
G04 #@! TO.C,U8*
X-24257000Y1110000D03*
X-25527000Y1110000D03*
X-26797000Y1110000D03*
X-28067000Y1110000D03*
X-28067000Y6510000D03*
X-26797000Y6510000D03*
X-25527000Y6510000D03*
X-24257000Y6510000D03*
G04 #@! TD*
D12*
G04 #@! TO.C,C26*
X-30480000Y6946000D03*
X-30480000Y5246000D03*
G04 #@! TD*
G04 #@! TO.C,C29*
X-14859000Y3468000D03*
X-14859000Y5168000D03*
G04 #@! TD*
G04 #@! TO.C,C30*
X-17018000Y3517000D03*
X-17018000Y1817000D03*
G04 #@! TD*
D13*
G04 #@! TO.C,R13*
X-14860800Y6807200D03*
X-16560800Y6807200D03*
G04 #@! TD*
D12*
G04 #@! TO.C,R14*
X-13462000Y5129000D03*
X-13462000Y3429000D03*
G04 #@! TD*
D42*
G04 #@! TO.C,J7*
X12954000Y-7652000D03*
X12954000Y-11652000D03*
X11684000Y-7652000D03*
X11684000Y-11652000D03*
X10414000Y-7652000D03*
X10414000Y-11652000D03*
X9144000Y-7652000D03*
X9144000Y-11652000D03*
X7874000Y-7652000D03*
X7874000Y-11652000D03*
G04 #@! TD*
D12*
G04 #@! TO.C,C31*
X31750000Y-7532000D03*
X31750000Y-9232000D03*
G04 #@! TD*
G04 #@! TO.C,C32*
X34798000Y-9232000D03*
X34798000Y-7532000D03*
G04 #@! TD*
G04 #@! TO.C,C35*
X33274000Y-9232000D03*
X33274000Y-7532000D03*
G04 #@! TD*
D13*
G04 #@! TO.C,R15*
X-13638000Y-7162800D03*
X-11938000Y-7162800D03*
G04 #@! TD*
G04 #@! TO.C,R16*
X-13208000Y-5359400D03*
X-11508000Y-5359400D03*
G04 #@! TD*
G04 #@! TO.C,R18*
X-3644000Y-16510000D03*
X-1944000Y-16510000D03*
G04 #@! TD*
D12*
G04 #@! TO.C,R19*
X-21463000Y-18249000D03*
X-21463000Y-16549000D03*
G04 #@! TD*
D13*
G04 #@! TO.C,C6*
X3163200Y5435600D03*
X4863200Y5435600D03*
G04 #@! TD*
G04 #@! TO.C,C8*
X-7989200Y-3505200D03*
X-9689200Y-3505200D03*
G04 #@! TD*
D43*
G04 #@! TO.C,C9*
X4123359Y-677241D03*
D11*
G36*
X4155179Y-9025D02*
X4791575Y-645421D01*
X4091539Y-1345457D01*
X3455143Y-709061D01*
X4155179Y-9025D01*
X4155179Y-9025D01*
G37*
D43*
X5325441Y524841D03*
D11*
G36*
X5357261Y1193057D02*
X5993657Y556661D01*
X5293621Y-143375D01*
X4657225Y493021D01*
X5357261Y1193057D01*
X5357261Y1193057D01*
G37*
G04 #@! TD*
D13*
G04 #@! TO.C,C13*
X19317600Y-11912600D03*
X21017600Y-11912600D03*
G04 #@! TD*
G04 #@! TO.C,C27*
X33108000Y3810000D03*
X31408000Y3810000D03*
G04 #@! TD*
G04 #@! TO.C,C28*
X33119800Y5476240D03*
X31419800Y5476240D03*
G04 #@! TD*
G04 #@! TO.C,C36*
X37680000Y1524000D03*
X35980000Y1524000D03*
G04 #@! TD*
D44*
G04 #@! TO.C,J11*
X46531800Y9958600D03*
D45*
X48056800Y8483600D03*
D44*
X46531800Y7008600D03*
D45*
X45006800Y8483600D03*
G04 #@! TD*
G04 #@! TO.C,J15*
X16763000Y-4064000D03*
D44*
X18288000Y-5539000D03*
D45*
X19813000Y-4064000D03*
D44*
X18288000Y-2589000D03*
G04 #@! TD*
D13*
G04 #@! TO.C,R29*
X35980000Y-1524000D03*
X37680000Y-1524000D03*
G04 #@! TD*
G04 #@! TO.C,R38*
X35980000Y0D03*
X37680000Y0D03*
G04 #@! TD*
D37*
G04 #@! TO.C,U11*
X41181000Y6959600D03*
X41181000Y5689600D03*
X41181000Y4419600D03*
X41181000Y3149600D03*
X35781000Y3149600D03*
X35781000Y4419600D03*
X35781000Y5689600D03*
X35781000Y6959600D03*
G04 #@! TD*
D13*
G04 #@! TO.C,R20*
X-39388330Y1524000D03*
X-37688330Y1524000D03*
G04 #@! TD*
D12*
G04 #@! TO.C,R28*
X-36068000Y-938000D03*
X-36068000Y762000D03*
G04 #@! TD*
D13*
G04 #@! TO.C,R40*
X35599000Y-18288000D03*
X37299000Y-18288000D03*
G04 #@! TD*
G04 #@! TO.C,R41*
X37260000Y-16764000D03*
X35560000Y-16764000D03*
G04 #@! TD*
D12*
G04 #@! TO.C,C37*
X20066000Y14898000D03*
X20066000Y16598000D03*
G04 #@! TD*
D13*
G04 #@! TO.C,C38*
X14898000Y-14478000D03*
X16598000Y-14478000D03*
G04 #@! TD*
M02*
