G04 #@! TF.GenerationSoftware,KiCad,Pcbnew,(5.0.0)*
G04 #@! TF.CreationDate,2018-12-27T15:31:04-06:00*
G04 #@! TF.ProjectId,fk-core,666B2D636F72652E6B696361645F7063,0.1*
G04 #@! TF.SameCoordinates,PX791ddc0PY791ddc0*
G04 #@! TF.FileFunction,Soldermask,Top*
G04 #@! TF.FilePolarity,Negative*
%FSLAX46Y46*%
G04 Gerber Fmt 4.6, Leading zero omitted, Abs format (unit mm)*
G04 Created by KiCad (PCBNEW (5.0.0)) date 12/27/18 15:31:04*
%MOMM*%
%LPD*%
G01*
G04 APERTURE LIST*
%ADD10C,0.250000*%
%ADD11C,0.100000*%
%ADD12R,1.000000X1.100000*%
%ADD13R,1.100000X1.000000*%
%ADD14R,0.600000X1.700000*%
%ADD15R,1.000000X2.800000*%
%ADD16R,5.500000X1.000000*%
%ADD17R,3.000000X1.600000*%
%ADD18O,1.651000X1.600000*%
%ADD19R,0.450000X1.500000*%
%ADD20O,1.800000X1.100000*%
%ADD21O,2.200000X1.100000*%
%ADD22R,0.700000X0.250000*%
%ADD23R,1.660000X2.380000*%
%ADD24R,0.650000X1.560000*%
%ADD25R,1.700000X1.700000*%
%ADD26R,3.000000X0.600000*%
%ADD27R,0.600000X2.000000*%
%ADD28R,1.500000X1.000000*%
%ADD29R,1.450000X0.700000*%
%ADD30C,1.050000*%
%ADD31C,1.300000*%
%ADD32R,0.900000X1.500000*%
%ADD33R,0.600000X0.700000*%
%ADD34R,1.800000X1.300000*%
%ADD35R,0.600000X0.450000*%
%ADD36R,0.700000X1.000000*%
%ADD37R,0.700000X0.600000*%
%ADD38C,2.000000*%
%ADD39R,0.650000X1.050000*%
%ADD40R,0.890000X0.890000*%
%ADD41R,0.990000X0.420000*%
%ADD42R,0.420000X0.990000*%
%ADD43R,0.440000X0.990000*%
%ADD44R,2.000000X0.600000*%
%ADD45R,1.100000X1.900000*%
%ADD46R,1.900000X1.100000*%
%ADD47R,0.600000X1.550000*%
%ADD48R,1.200000X1.800000*%
%ADD49R,0.950000X2.700000*%
%ADD50C,1.000000*%
%ADD51R,2.200000X1.050000*%
%ADD52R,1.050000X1.000000*%
%ADD53C,2.540000*%
G04 APERTURE END LIST*
D10*
G04 #@! TO.C,U2*
X-3493571Y6519058D03*
D11*
G36*
X-4041579Y6890289D02*
X-3864802Y7067066D01*
X-2945563Y6147827D01*
X-3122340Y5971050D01*
X-4041579Y6890289D01*
X-4041579Y6890289D01*
G37*
D10*
X-3847124Y6165505D03*
D11*
G36*
X-4395132Y6536736D02*
X-4218355Y6713513D01*
X-3299116Y5794274D01*
X-3475893Y5617497D01*
X-4395132Y6536736D01*
X-4395132Y6536736D01*
G37*
D10*
X-4200678Y5811951D03*
D11*
G36*
X-4748686Y6183182D02*
X-4571909Y6359959D01*
X-3652670Y5440720D01*
X-3829447Y5263943D01*
X-4748686Y6183182D01*
X-4748686Y6183182D01*
G37*
D10*
X-4554231Y5458398D03*
D11*
G36*
X-5102239Y5829629D02*
X-4925462Y6006406D01*
X-4006223Y5087167D01*
X-4183000Y4910390D01*
X-5102239Y5829629D01*
X-5102239Y5829629D01*
G37*
D10*
X-4907784Y5104845D03*
D11*
G36*
X-5455792Y5476076D02*
X-5279015Y5652853D01*
X-4359776Y4733614D01*
X-4536553Y4556837D01*
X-5455792Y5476076D01*
X-5455792Y5476076D01*
G37*
D10*
X-5261338Y4751291D03*
D11*
G36*
X-5809346Y5122522D02*
X-5632569Y5299299D01*
X-4713330Y4380060D01*
X-4890107Y4203283D01*
X-5809346Y5122522D01*
X-5809346Y5122522D01*
G37*
D10*
X-5614891Y4397738D03*
D11*
G36*
X-6162899Y4768969D02*
X-5986122Y4945746D01*
X-5066883Y4026507D01*
X-5243660Y3849730D01*
X-6162899Y4768969D01*
X-6162899Y4768969D01*
G37*
D10*
X-5968445Y4044184D03*
D11*
G36*
X-6516453Y4415415D02*
X-6339676Y4592192D01*
X-5420437Y3672953D01*
X-5597214Y3496176D01*
X-6516453Y4415415D01*
X-6516453Y4415415D01*
G37*
D10*
X-6321998Y3690631D03*
D11*
G36*
X-6870006Y4061862D02*
X-6693229Y4238639D01*
X-5773990Y3319400D01*
X-5950767Y3142623D01*
X-6870006Y4061862D01*
X-6870006Y4061862D01*
G37*
D10*
X-6675551Y3337078D03*
D11*
G36*
X-7223559Y3708309D02*
X-7046782Y3885086D01*
X-6127543Y2965847D01*
X-6304320Y2789070D01*
X-7223559Y3708309D01*
X-7223559Y3708309D01*
G37*
D10*
X-7029105Y2983524D03*
D11*
G36*
X-7577113Y3354755D02*
X-7400336Y3531532D01*
X-6481097Y2612293D01*
X-6657874Y2435516D01*
X-7577113Y3354755D01*
X-7577113Y3354755D01*
G37*
D10*
X-7382658Y2629971D03*
D11*
G36*
X-7930666Y3001202D02*
X-7753889Y3177979D01*
X-6834650Y2258740D01*
X-7011427Y2081963D01*
X-7930666Y3001202D01*
X-7930666Y3001202D01*
G37*
D10*
X-7382658Y367229D03*
D11*
G36*
X-7753889Y-180779D02*
X-7930666Y-4002D01*
X-7011427Y915237D01*
X-6834650Y738460D01*
X-7753889Y-180779D01*
X-7753889Y-180779D01*
G37*
D10*
X-7029105Y13676D03*
D11*
G36*
X-7400336Y-534332D02*
X-7577113Y-357555D01*
X-6657874Y561684D01*
X-6481097Y384907D01*
X-7400336Y-534332D01*
X-7400336Y-534332D01*
G37*
D10*
X-6675551Y-339878D03*
D11*
G36*
X-7046782Y-887886D02*
X-7223559Y-711109D01*
X-6304320Y208130D01*
X-6127543Y31353D01*
X-7046782Y-887886D01*
X-7046782Y-887886D01*
G37*
D10*
X-6321998Y-693431D03*
D11*
G36*
X-6693229Y-1241439D02*
X-6870006Y-1064662D01*
X-5950767Y-145423D01*
X-5773990Y-322200D01*
X-6693229Y-1241439D01*
X-6693229Y-1241439D01*
G37*
D10*
X-5968445Y-1046984D03*
D11*
G36*
X-6339676Y-1594992D02*
X-6516453Y-1418215D01*
X-5597214Y-498976D01*
X-5420437Y-675753D01*
X-6339676Y-1594992D01*
X-6339676Y-1594992D01*
G37*
D10*
X-5614891Y-1400538D03*
D11*
G36*
X-5986122Y-1948546D02*
X-6162899Y-1771769D01*
X-5243660Y-852530D01*
X-5066883Y-1029307D01*
X-5986122Y-1948546D01*
X-5986122Y-1948546D01*
G37*
D10*
X-5261338Y-1754091D03*
D11*
G36*
X-5632569Y-2302099D02*
X-5809346Y-2125322D01*
X-4890107Y-1206083D01*
X-4713330Y-1382860D01*
X-5632569Y-2302099D01*
X-5632569Y-2302099D01*
G37*
D10*
X-4907784Y-2107645D03*
D11*
G36*
X-5279015Y-2655653D02*
X-5455792Y-2478876D01*
X-4536553Y-1559637D01*
X-4359776Y-1736414D01*
X-5279015Y-2655653D01*
X-5279015Y-2655653D01*
G37*
D10*
X-4554231Y-2461198D03*
D11*
G36*
X-4925462Y-3009206D02*
X-5102239Y-2832429D01*
X-4183000Y-1913190D01*
X-4006223Y-2089967D01*
X-4925462Y-3009206D01*
X-4925462Y-3009206D01*
G37*
D10*
X-4200678Y-2814751D03*
D11*
G36*
X-4571909Y-3362759D02*
X-4748686Y-3185982D01*
X-3829447Y-2266743D01*
X-3652670Y-2443520D01*
X-4571909Y-3362759D01*
X-4571909Y-3362759D01*
G37*
D10*
X-3847124Y-3168305D03*
D11*
G36*
X-4218355Y-3716313D02*
X-4395132Y-3539536D01*
X-3475893Y-2620297D01*
X-3299116Y-2797074D01*
X-4218355Y-3716313D01*
X-4218355Y-3716313D01*
G37*
D10*
X-3493571Y-3521858D03*
D11*
G36*
X-3864802Y-4069866D02*
X-4041579Y-3893089D01*
X-3122340Y-2973850D01*
X-2945563Y-3150627D01*
X-3864802Y-4069866D01*
X-3864802Y-4069866D01*
G37*
D10*
X-1230829Y-3521858D03*
D11*
G36*
X-1778837Y-3150627D02*
X-1602060Y-2973850D01*
X-682821Y-3893089D01*
X-859598Y-4069866D01*
X-1778837Y-3150627D01*
X-1778837Y-3150627D01*
G37*
D10*
X-877276Y-3168305D03*
D11*
G36*
X-1425284Y-2797074D02*
X-1248507Y-2620297D01*
X-329268Y-3539536D01*
X-506045Y-3716313D01*
X-1425284Y-2797074D01*
X-1425284Y-2797074D01*
G37*
D10*
X-523722Y-2814751D03*
D11*
G36*
X-1071730Y-2443520D02*
X-894953Y-2266743D01*
X24286Y-3185982D01*
X-152491Y-3362759D01*
X-1071730Y-2443520D01*
X-1071730Y-2443520D01*
G37*
D10*
X-170169Y-2461198D03*
D11*
G36*
X-718177Y-2089967D02*
X-541400Y-1913190D01*
X377839Y-2832429D01*
X201062Y-3009206D01*
X-718177Y-2089967D01*
X-718177Y-2089967D01*
G37*
D10*
X183384Y-2107645D03*
D11*
G36*
X-364624Y-1736414D02*
X-187847Y-1559637D01*
X731392Y-2478876D01*
X554615Y-2655653D01*
X-364624Y-1736414D01*
X-364624Y-1736414D01*
G37*
D10*
X536938Y-1754091D03*
D11*
G36*
X-11070Y-1382860D02*
X165707Y-1206083D01*
X1084946Y-2125322D01*
X908169Y-2302099D01*
X-11070Y-1382860D01*
X-11070Y-1382860D01*
G37*
D10*
X890491Y-1400538D03*
D11*
G36*
X342483Y-1029307D02*
X519260Y-852530D01*
X1438499Y-1771769D01*
X1261722Y-1948546D01*
X342483Y-1029307D01*
X342483Y-1029307D01*
G37*
D10*
X1244045Y-1046984D03*
D11*
G36*
X696037Y-675753D02*
X872814Y-498976D01*
X1792053Y-1418215D01*
X1615276Y-1594992D01*
X696037Y-675753D01*
X696037Y-675753D01*
G37*
D10*
X1597598Y-693431D03*
D11*
G36*
X1049590Y-322200D02*
X1226367Y-145423D01*
X2145606Y-1064662D01*
X1968829Y-1241439D01*
X1049590Y-322200D01*
X1049590Y-322200D01*
G37*
D10*
X1951151Y-339878D03*
D11*
G36*
X1403143Y31353D02*
X1579920Y208130D01*
X2499159Y-711109D01*
X2322382Y-887886D01*
X1403143Y31353D01*
X1403143Y31353D01*
G37*
D10*
X2304705Y13676D03*
D11*
G36*
X1756697Y384907D02*
X1933474Y561684D01*
X2852713Y-357555D01*
X2675936Y-534332D01*
X1756697Y384907D01*
X1756697Y384907D01*
G37*
D10*
X2658258Y367229D03*
D11*
G36*
X2110250Y738460D02*
X2287027Y915237D01*
X3206266Y-4002D01*
X3029489Y-180779D01*
X2110250Y738460D01*
X2110250Y738460D01*
G37*
D10*
X2658258Y2629971D03*
D11*
G36*
X2287027Y2081963D02*
X2110250Y2258740D01*
X3029489Y3177979D01*
X3206266Y3001202D01*
X2287027Y2081963D01*
X2287027Y2081963D01*
G37*
D10*
X2304705Y2983524D03*
D11*
G36*
X1933474Y2435516D02*
X1756697Y2612293D01*
X2675936Y3531532D01*
X2852713Y3354755D01*
X1933474Y2435516D01*
X1933474Y2435516D01*
G37*
D10*
X1951151Y3337078D03*
D11*
G36*
X1579920Y2789070D02*
X1403143Y2965847D01*
X2322382Y3885086D01*
X2499159Y3708309D01*
X1579920Y2789070D01*
X1579920Y2789070D01*
G37*
D10*
X1597598Y3690631D03*
D11*
G36*
X1226367Y3142623D02*
X1049590Y3319400D01*
X1968829Y4238639D01*
X2145606Y4061862D01*
X1226367Y3142623D01*
X1226367Y3142623D01*
G37*
D10*
X1244045Y4044184D03*
D11*
G36*
X872814Y3496176D02*
X696037Y3672953D01*
X1615276Y4592192D01*
X1792053Y4415415D01*
X872814Y3496176D01*
X872814Y3496176D01*
G37*
D10*
X890491Y4397738D03*
D11*
G36*
X519260Y3849730D02*
X342483Y4026507D01*
X1261722Y4945746D01*
X1438499Y4768969D01*
X519260Y3849730D01*
X519260Y3849730D01*
G37*
D10*
X536938Y4751291D03*
D11*
G36*
X165707Y4203283D02*
X-11070Y4380060D01*
X908169Y5299299D01*
X1084946Y5122522D01*
X165707Y4203283D01*
X165707Y4203283D01*
G37*
D10*
X183384Y5104845D03*
D11*
G36*
X-187847Y4556837D02*
X-364624Y4733614D01*
X554615Y5652853D01*
X731392Y5476076D01*
X-187847Y4556837D01*
X-187847Y4556837D01*
G37*
D10*
X-170169Y5458398D03*
D11*
G36*
X-541400Y4910390D02*
X-718177Y5087167D01*
X201062Y6006406D01*
X377839Y5829629D01*
X-541400Y4910390D01*
X-541400Y4910390D01*
G37*
D10*
X-523722Y5811951D03*
D11*
G36*
X-894953Y5263943D02*
X-1071730Y5440720D01*
X-152491Y6359959D01*
X24286Y6183182D01*
X-894953Y5263943D01*
X-894953Y5263943D01*
G37*
D10*
X-877276Y6165505D03*
D11*
G36*
X-1248507Y5617497D02*
X-1425284Y5794274D01*
X-506045Y6713513D01*
X-329268Y6536736D01*
X-1248507Y5617497D01*
X-1248507Y5617497D01*
G37*
D10*
X-1230829Y6519058D03*
D11*
G36*
X-1602060Y5971050D02*
X-1778837Y6147827D01*
X-859598Y7067066D01*
X-682821Y6890289D01*
X-1602060Y5971050D01*
X-1602060Y5971050D01*
G37*
G04 #@! TD*
D12*
G04 #@! TO.C,D4*
X-45974000Y16090000D03*
X-45974000Y14390000D03*
G04 #@! TD*
D13*
G04 #@! TO.C,R48*
X23456000Y11176000D03*
X21756000Y11176000D03*
G04 #@! TD*
D12*
G04 #@! TO.C,R47*
X-47752000Y14390000D03*
X-47752000Y16090000D03*
G04 #@! TD*
D14*
G04 #@! TO.C,J17*
X-2493000Y15894600D03*
X-3743000Y15894600D03*
X-4993000Y15894600D03*
X-6243000Y15894600D03*
X-7493000Y15894600D03*
X-8743000Y15894600D03*
X-9993000Y15894600D03*
X-11243000Y15894600D03*
X-12493000Y15894600D03*
D15*
X-643000Y12544600D03*
X-14343000Y12544600D03*
G04 #@! TD*
D16*
G04 #@! TO.C,J3*
X-46863000Y7477000D03*
X-46863000Y5477000D03*
D17*
X-44613000Y9877000D03*
X-44613000Y3077000D03*
G04 #@! TD*
D16*
G04 #@! TO.C,J10*
X-46482000Y-4096000D03*
X-46482000Y-6096000D03*
D17*
X-44232000Y-1696000D03*
X-44232000Y-8496000D03*
G04 #@! TD*
D18*
G04 #@! TO.C,J9*
X861000Y16259000D03*
X7461000Y16259000D03*
G04 #@! TD*
D19*
G04 #@! TO.C,J16*
X5491000Y13077000D03*
D20*
X6991000Y12827000D03*
X1391000Y12827000D03*
D19*
X4191000Y13077000D03*
X4841000Y13077000D03*
X3541000Y13077000D03*
X2891000Y13077000D03*
D21*
X4191000Y14977000D03*
G04 #@! TD*
D22*
G04 #@! TO.C,U15*
X-36192000Y-6973000D03*
X-36192000Y-6473000D03*
X-36192000Y-5973000D03*
X-36192000Y-5473000D03*
X-38992000Y-5473000D03*
X-38992000Y-5973000D03*
X-38992000Y-6473000D03*
X-38992000Y-6973000D03*
D23*
X-37592000Y-6223000D03*
G04 #@! TD*
D13*
G04 #@! TO.C,C39*
X-39419000Y-381000D03*
X-37719000Y-381000D03*
G04 #@! TD*
G04 #@! TO.C,C40*
X-37553000Y-3556000D03*
X-35853000Y-3556000D03*
G04 #@! TD*
D12*
G04 #@! TO.C,R46*
X-33655000Y-1182000D03*
X-33655000Y-2882000D03*
G04 #@! TD*
G04 #@! TO.C,R45*
X-32131000Y-2882000D03*
X-32131000Y-1182000D03*
G04 #@! TD*
D13*
G04 #@! TO.C,R44*
X-39331000Y-8890000D03*
X-37631000Y-8890000D03*
G04 #@! TD*
G04 #@! TO.C,R43*
X-31789000Y-6477000D03*
X-33489000Y-6477000D03*
G04 #@! TD*
G04 #@! TO.C,R42*
X-39331000Y-1905000D03*
X-37631000Y-1905000D03*
G04 #@! TD*
D24*
G04 #@! TO.C,U4*
X8397200Y-105400D03*
X9347200Y-105400D03*
X10297200Y-105400D03*
X10297200Y2594600D03*
X8397200Y2594600D03*
G04 #@! TD*
D14*
G04 #@! TO.C,J6*
X-17864200Y15923000D03*
X-19114200Y15923000D03*
X-20364200Y15923000D03*
X-21614200Y15923000D03*
X-22864200Y15923000D03*
D15*
X-16014200Y12573000D03*
X-24714200Y12573000D03*
G04 #@! TD*
D14*
G04 #@! TO.C,J8*
X16131700Y8477800D03*
X14881700Y8477800D03*
D15*
X17981700Y5127800D03*
X13031700Y5127800D03*
G04 #@! TD*
D13*
G04 #@! TO.C,L3*
X40575600Y-7620000D03*
X38875600Y-7620000D03*
G04 #@! TD*
D25*
G04 #@! TO.C,J4*
X15621000Y-1905000D03*
G04 #@! TD*
D26*
G04 #@! TO.C,U5*
X-25806000Y-11557000D03*
X-25806000Y-10287000D03*
X-25806000Y-9017000D03*
X-25806000Y-7747000D03*
X-19406000Y-7747000D03*
X-19406000Y-9017000D03*
X-19406000Y-10287000D03*
X-19406000Y-11557000D03*
G04 #@! TD*
D27*
G04 #@! TO.C,U9*
X-18923000Y1110000D03*
X-20193000Y1110000D03*
X-21463000Y1110000D03*
X-22733000Y1110000D03*
X-22733000Y6510000D03*
X-21463000Y6510000D03*
X-20193000Y6510000D03*
X-18923000Y6510000D03*
G04 #@! TD*
D28*
G04 #@! TO.C,F1*
X9398000Y13419000D03*
X9398000Y11219000D03*
G04 #@! TD*
D12*
G04 #@! TO.C,C16*
X-6926802Y-16440022D03*
X-6926802Y-18140022D03*
G04 #@! TD*
D14*
G04 #@! TO.C,J5*
X26142000Y-4400000D03*
X24892000Y-4400000D03*
X23642000Y-4400000D03*
D15*
X27992000Y-7750000D03*
X21792000Y-7750000D03*
G04 #@! TD*
D29*
G04 #@! TO.C,SW2*
X18035900Y16875000D03*
X12875900Y16875000D03*
X12875900Y14875000D03*
X18035900Y14875000D03*
G04 #@! TD*
G04 #@! TO.C,SW1*
X8545200Y-18399000D03*
X13705200Y-18399000D03*
X13705200Y-16399000D03*
X8545200Y-16399000D03*
G04 #@! TD*
D30*
G04 #@! TO.C,BT1*
X12023600Y7518400D03*
D31*
X19473600Y7518400D03*
G04 #@! TD*
D32*
G04 #@! TO.C,U13*
X30912800Y11431100D03*
X34212800Y11431100D03*
X34212800Y16331100D03*
X30912800Y16331100D03*
G04 #@! TD*
D12*
G04 #@! TO.C,C33*
X-10228802Y-16440022D03*
X-10228802Y-18140022D03*
G04 #@! TD*
G04 #@! TO.C,C34*
X-8577802Y-16440022D03*
X-8577802Y-18140022D03*
G04 #@! TD*
G04 #@! TO.C,R7*
X-11938000Y-10502000D03*
X-11938000Y-8802000D03*
G04 #@! TD*
D13*
G04 #@! TO.C,C1*
X-10072000Y9296400D03*
X-11772000Y9296400D03*
G04 #@! TD*
G04 #@! TO.C,C2*
X19368400Y-13462000D03*
X21068400Y-13462000D03*
G04 #@! TD*
G04 #@! TO.C,C3*
X-8317600Y6959600D03*
X-6617600Y6959600D03*
G04 #@! TD*
G04 #@! TO.C,C4*
X-1080400Y9194800D03*
X-2780400Y9194800D03*
G04 #@! TD*
G04 #@! TO.C,C5*
X-7989200Y-2006600D03*
X-9689200Y-2006600D03*
G04 #@! TD*
D12*
G04 #@! TO.C,C7*
X-11734800Y6109600D03*
X-11734800Y7809600D03*
G04 #@! TD*
G04 #@! TO.C,C10*
X11176000Y16725000D03*
X11176000Y15025000D03*
G04 #@! TD*
G04 #@! TO.C,C11*
X10668000Y4458600D03*
X10668000Y6158600D03*
G04 #@! TD*
D13*
G04 #@! TO.C,C12*
X-32197353Y11760341D03*
X-33897353Y11760341D03*
G04 #@! TD*
G04 #@! TO.C,C15*
X-7963800Y-5207000D03*
X-9663800Y-5207000D03*
G04 #@! TD*
D12*
G04 #@! TO.C,C18*
X-29083000Y-10326000D03*
X-29083000Y-12026000D03*
G04 #@! TD*
D13*
G04 #@! TO.C,C19*
X-39458000Y3048000D03*
X-37758000Y3048000D03*
G04 #@! TD*
G04 #@! TO.C,C20*
X-34456000Y6096000D03*
X-36156000Y6096000D03*
G04 #@! TD*
G04 #@! TO.C,C21*
X-19138000Y8636000D03*
X-17438000Y8636000D03*
G04 #@! TD*
D12*
G04 #@! TO.C,C22*
X31318200Y-12965800D03*
X31318200Y-11265800D03*
G04 #@! TD*
D13*
G04 #@! TO.C,C24*
X34644700Y-11290300D03*
X32944700Y-11290300D03*
G04 #@! TD*
D12*
G04 #@! TO.C,D1*
X36347400Y14418600D03*
X36347400Y16118600D03*
G04 #@! TD*
G04 #@! TO.C,D2*
X-28397200Y-16450600D03*
X-28397200Y-18150600D03*
G04 #@! TD*
G04 #@! TO.C,D3*
X-24731530Y-16470430D03*
X-24731530Y-18170430D03*
G04 #@! TD*
D33*
G04 #@! TO.C,D7*
X-31481000Y15807400D03*
X-32781000Y15807400D03*
D34*
X-32131000Y14757400D03*
D35*
X-32131000Y14082400D03*
G04 #@! TD*
D36*
G04 #@! TO.C,D8*
X3260000Y8950000D03*
D37*
X3260000Y7250000D03*
X5260000Y7250000D03*
X5260000Y9150000D03*
G04 #@! TD*
D13*
G04 #@! TO.C,D9*
X-28612200Y16335400D03*
X-26912200Y16335400D03*
G04 #@! TD*
G04 #@! TO.C,D10*
X-28612200Y13084200D03*
X-26912200Y13084200D03*
G04 #@! TD*
D12*
G04 #@! TO.C,D11*
X22372800Y14390000D03*
X22372800Y16090000D03*
G04 #@! TD*
G04 #@! TO.C,L1*
X-10160000Y6160400D03*
X-10160000Y7860400D03*
G04 #@! TD*
G04 #@! TO.C,L2*
X9398000Y16725000D03*
X9398000Y15025000D03*
G04 #@! TD*
D38*
G04 #@! TO.C,M2*
X36830000Y-13970000D03*
G04 #@! TD*
G04 #@! TO.C,M5*
X40640000Y16510000D03*
G04 #@! TD*
G04 #@! TO.C,M8*
X-44450000Y-17780000D03*
G04 #@! TD*
D39*
G04 #@! TO.C,Q1*
X36413400Y10327000D03*
X38313400Y10327000D03*
X37363400Y12627000D03*
G04 #@! TD*
D13*
G04 #@! TO.C,R1*
X-36410000Y-17780000D03*
X-34710000Y-17780000D03*
G04 #@! TD*
D12*
G04 #@! TO.C,R2*
X-17094200Y-16450600D03*
X-17094200Y-18150600D03*
G04 #@! TD*
G04 #@! TO.C,R3*
X38379400Y16118600D03*
X38379400Y14418600D03*
G04 #@! TD*
G04 #@! TO.C,R4*
X-30226000Y-16450600D03*
X-30226000Y-18150600D03*
G04 #@! TD*
G04 #@! TO.C,R5*
X-26568400Y-16501400D03*
X-26568400Y-18201400D03*
G04 #@! TD*
G04 #@! TO.C,R6*
X-4445000Y-11772000D03*
X-4445000Y-10072000D03*
G04 #@! TD*
D13*
G04 #@! TO.C,R8*
X18503000Y-17856200D03*
X16803000Y-17856200D03*
G04 #@! TD*
G04 #@! TO.C,R9*
X18503000Y-16078200D03*
X16803000Y-16078200D03*
G04 #@! TD*
G04 #@! TO.C,R10*
X11621400Y11684000D03*
X13321400Y11684000D03*
G04 #@! TD*
G04 #@! TO.C,R17*
X17182200Y11684000D03*
X15482200Y11684000D03*
G04 #@! TD*
G04 #@! TO.C,R21*
X-32197353Y10083941D03*
X-33897353Y10083941D03*
G04 #@! TD*
D12*
G04 #@! TO.C,R22*
X-34977753Y16267941D03*
X-34977753Y14567941D03*
G04 #@! TD*
G04 #@! TO.C,R24*
X-36755753Y16267941D03*
X-36755753Y14567941D03*
G04 #@! TD*
G04 #@! TO.C,R25*
X-38482953Y16267941D03*
X-38482953Y14567941D03*
G04 #@! TD*
D13*
G04 #@! TO.C,R32*
X-28612200Y14709800D03*
X-26912200Y14709800D03*
G04 #@! TD*
G04 #@! TO.C,R33*
X-28612200Y11458600D03*
X-26912200Y11458600D03*
G04 #@! TD*
D12*
G04 #@! TO.C,R34*
X-40260953Y14567941D03*
X-40260953Y16267941D03*
G04 #@! TD*
D13*
G04 #@! TO.C,R35*
X10298800Y-3530600D03*
X8598800Y-3530600D03*
G04 #@! TD*
G04 #@! TO.C,R36*
X10324200Y-1981200D03*
X8624200Y-1981200D03*
G04 #@! TD*
G04 #@! TO.C,R37*
X34657400Y-12915900D03*
X32957400Y-12915900D03*
G04 #@! TD*
D12*
G04 #@! TO.C,R39*
X24100000Y14390000D03*
X24100000Y16090000D03*
G04 #@! TD*
D40*
G04 #@! TO.C,U6*
X-37409083Y8945133D03*
X-37409083Y9695133D03*
X-38159083Y9695133D03*
X-38159083Y8945133D03*
D41*
X-39259083Y10070133D03*
X-39259083Y9570133D03*
X-39259083Y9070133D03*
X-39259083Y8570133D03*
D42*
X-38534083Y7845133D03*
X-38034083Y7845133D03*
D43*
X-37534083Y7845133D03*
D42*
X-37034083Y7845133D03*
D41*
X-36309083Y8570133D03*
X-36309083Y9070133D03*
X-36309083Y9570133D03*
X-36309083Y10070133D03*
D42*
X-37034083Y10795133D03*
X-37534083Y10795133D03*
X-38034083Y10795133D03*
D43*
X-38534083Y10795133D03*
G04 #@! TD*
D44*
G04 #@! TO.C,U7*
X33103800Y-14478000D03*
X33103800Y-15748000D03*
X33103800Y-17018000D03*
X33103800Y-18288000D03*
X27703800Y-18288000D03*
X27703800Y-17018000D03*
X27703800Y-15748000D03*
X27703800Y-14478000D03*
G04 #@! TD*
D27*
G04 #@! TO.C,U12*
X-6159500Y-13147000D03*
X-7429500Y-13147000D03*
X-8699500Y-13147000D03*
X-9969500Y-13147000D03*
X-9969500Y-7747000D03*
X-8699500Y-7747000D03*
X-7429500Y-7747000D03*
X-6159500Y-7747000D03*
G04 #@! TD*
D45*
G04 #@! TO.C,Y1*
X-6939599Y9042400D03*
X-4439601Y9042400D03*
G04 #@! TD*
D46*
G04 #@! TO.C,Y2*
X24815800Y-16312200D03*
X24815800Y-13812200D03*
G04 #@! TD*
D12*
G04 #@! TO.C,C17*
X-5275802Y-16440022D03*
X-5275802Y-18140022D03*
G04 #@! TD*
D47*
G04 #@! TO.C,J13*
X27646000Y7675000D03*
X26646000Y7675000D03*
X25646000Y7675000D03*
X24646000Y7675000D03*
X23646000Y7675000D03*
X22646000Y7675000D03*
D48*
X28946000Y5150000D03*
X21346000Y5150000D03*
G04 #@! TD*
D12*
G04 #@! TO.C,C23*
X-33655000Y4406000D03*
X-33655000Y2706000D03*
G04 #@! TD*
G04 #@! TO.C,C25*
X-29718000Y1436000D03*
X-29718000Y3136000D03*
G04 #@! TD*
G04 #@! TO.C,R11*
X-35306000Y4406000D03*
X-35306000Y2706000D03*
G04 #@! TD*
G04 #@! TO.C,R12*
X-32131000Y4406000D03*
X-32131000Y2706000D03*
G04 #@! TD*
D27*
G04 #@! TO.C,U8*
X-24257000Y1110000D03*
X-25527000Y1110000D03*
X-26797000Y1110000D03*
X-28067000Y1110000D03*
X-28067000Y6510000D03*
X-26797000Y6510000D03*
X-25527000Y6510000D03*
X-24257000Y6510000D03*
G04 #@! TD*
D12*
G04 #@! TO.C,C26*
X-30480000Y6946000D03*
X-30480000Y5246000D03*
G04 #@! TD*
G04 #@! TO.C,C29*
X-14859000Y3468000D03*
X-14859000Y5168000D03*
G04 #@! TD*
G04 #@! TO.C,C30*
X-17018000Y3517000D03*
X-17018000Y1817000D03*
G04 #@! TD*
D13*
G04 #@! TO.C,R13*
X-14860800Y6807200D03*
X-16560800Y6807200D03*
G04 #@! TD*
D12*
G04 #@! TO.C,R14*
X-13462000Y5129000D03*
X-13462000Y3429000D03*
G04 #@! TD*
D49*
G04 #@! TO.C,J7*
X12954000Y-7652000D03*
X12954000Y-11652000D03*
X11684000Y-7652000D03*
X11684000Y-11652000D03*
X10414000Y-7652000D03*
X10414000Y-11652000D03*
X9144000Y-7652000D03*
X9144000Y-11652000D03*
X7874000Y-7652000D03*
X7874000Y-11652000D03*
G04 #@! TD*
D12*
G04 #@! TO.C,C31*
X31750000Y-7532000D03*
X31750000Y-9232000D03*
G04 #@! TD*
G04 #@! TO.C,C32*
X34798000Y-9232000D03*
X34798000Y-7532000D03*
G04 #@! TD*
G04 #@! TO.C,C35*
X33274000Y-9232000D03*
X33274000Y-7532000D03*
G04 #@! TD*
D13*
G04 #@! TO.C,R15*
X-13638000Y-7162800D03*
X-11938000Y-7162800D03*
G04 #@! TD*
G04 #@! TO.C,R16*
X-13208000Y-5359400D03*
X-11508000Y-5359400D03*
G04 #@! TD*
G04 #@! TO.C,R18*
X-3644000Y-16510000D03*
X-1944000Y-16510000D03*
G04 #@! TD*
D12*
G04 #@! TO.C,R19*
X-21463000Y-18249000D03*
X-21463000Y-16549000D03*
G04 #@! TD*
D13*
G04 #@! TO.C,C6*
X3163200Y5435600D03*
X4863200Y5435600D03*
G04 #@! TD*
G04 #@! TO.C,C8*
X-7989200Y-3505200D03*
X-9689200Y-3505200D03*
G04 #@! TD*
D50*
G04 #@! TO.C,C9*
X4123359Y-677241D03*
D11*
G36*
X4158714Y65221D02*
X4865821Y-641886D01*
X4088004Y-1419703D01*
X3380897Y-712596D01*
X4158714Y65221D01*
X4158714Y65221D01*
G37*
D50*
X5325441Y524841D03*
D11*
G36*
X5360796Y1267303D02*
X6067903Y560196D01*
X5290086Y-217621D01*
X4582979Y489486D01*
X5360796Y1267303D01*
X5360796Y1267303D01*
G37*
G04 #@! TD*
D13*
G04 #@! TO.C,C13*
X19317600Y-11912600D03*
X21017600Y-11912600D03*
G04 #@! TD*
G04 #@! TO.C,C27*
X33108000Y3810000D03*
X31408000Y3810000D03*
G04 #@! TD*
G04 #@! TO.C,C28*
X33119800Y5476240D03*
X31419800Y5476240D03*
G04 #@! TD*
G04 #@! TO.C,C36*
X37680000Y1524000D03*
X35980000Y1524000D03*
G04 #@! TD*
D51*
G04 #@! TO.C,J11*
X46531800Y9958600D03*
D52*
X48056800Y8483600D03*
D51*
X46531800Y7008600D03*
D52*
X45006800Y8483600D03*
G04 #@! TD*
G04 #@! TO.C,J15*
X16763000Y-4064000D03*
D51*
X18288000Y-5539000D03*
D52*
X19813000Y-4064000D03*
D51*
X18288000Y-2589000D03*
G04 #@! TD*
D53*
G04 #@! TO.C,M1*
X47865000Y-17365000D03*
G04 #@! TD*
G04 #@! TO.C,M3*
X-50865000Y-17365000D03*
G04 #@! TD*
G04 #@! TO.C,M4*
X47865000Y15865000D03*
G04 #@! TD*
G04 #@! TO.C,M6*
X-50865000Y15865000D03*
G04 #@! TD*
D13*
G04 #@! TO.C,R29*
X35980000Y-1524000D03*
X37680000Y-1524000D03*
G04 #@! TD*
G04 #@! TO.C,R38*
X35980000Y0D03*
X37680000Y0D03*
G04 #@! TD*
D44*
G04 #@! TO.C,U11*
X41181000Y6959600D03*
X41181000Y5689600D03*
X41181000Y4419600D03*
X41181000Y3149600D03*
X35781000Y3149600D03*
X35781000Y4419600D03*
X35781000Y5689600D03*
X35781000Y6959600D03*
G04 #@! TD*
D13*
G04 #@! TO.C,R20*
X-39388330Y1524000D03*
X-37688330Y1524000D03*
G04 #@! TD*
D12*
G04 #@! TO.C,R28*
X-36068000Y-938000D03*
X-36068000Y762000D03*
G04 #@! TD*
D13*
G04 #@! TO.C,R40*
X35599000Y-18288000D03*
X37299000Y-18288000D03*
G04 #@! TD*
G04 #@! TO.C,R41*
X37260000Y-16764000D03*
X35560000Y-16764000D03*
G04 #@! TD*
D12*
G04 #@! TO.C,C37*
X20066000Y14898000D03*
X20066000Y16598000D03*
G04 #@! TD*
D13*
G04 #@! TO.C,C38*
X14898000Y-14478000D03*
X16598000Y-14478000D03*
G04 #@! TD*
M02*
