M48
;DRILL file {KiCad (5.0.0)} date 12/27/18 15:43:31
;FORMAT={-:-/ absolute / inch / decimal}
FMAT,2
INCH,TZ
T1C0.0118
T2C0.0197
T3C0.0394
T4C0.0472
T5C0.0413
T6C0.0512
T7C0.1000
%
G90
G05
M72
T1
X-1.96Y0.215
X-1.88Y0.66
X-1.81Y0.66
X-1.8Y-0.65
X-1.725Y0.215
X-1.715Y0.03
X-1.635Y-0.065
X-1.565Y-0.27
X-1.545Y-0.185
X-1.535Y-0.295
X-1.5169Y0.2803
X-1.5023Y0.3522
X-1.4996Y0.3831
X-1.49Y-0.11
X-1.4856Y0.24
X-1.4728Y0.3807
X-1.4728Y0.3522
X-1.456Y0.278
X-1.45Y0.06
X-1.45Y-0.7
X-1.42Y-0.355
X-1.3929Y0.3161
X-1.39Y0.13
X-1.37Y-0.355
X-1.365Y0.2772
X-1.3386Y0.6394
X-1.33Y-0.7
X-1.32Y-0.355
X-1.3Y0.
X-1.2979Y-0.0831
X-1.275Y-0.355
X-1.2709Y-0.2983
X-1.25Y0.
X-1.235Y-0.0465
X-1.23Y0.46
X-1.225Y-0.1238
X-1.215Y-0.515
X-1.2Y0.23
X-1.2Y0.
X-1.19Y-0.61
X-1.1702Y0.587
X-1.16Y-0.3
X-1.1586Y-0.0941
X-1.1535Y0.2925
X-1.152Y0.2654
X-1.151Y-0.6844
X-1.1508Y0.3197
X-1.15Y0.
X-1.145Y-0.51
X-1.12Y0.42
X-1.1169Y0.3205
X-1.116Y-0.61
X-1.1038Y-0.4108
X-1.1Y0.125
X-1.1Y0.
X-1.0894Y0.3193
X-1.082Y-0.306
X-1.05Y0.175
X-1.05Y0.125
X-1.05Y0.
X-1.05Y-0.61
X-1.048Y-0.376
X-1.0082Y-0.32
X-1.0082Y-0.372
X-1.Y0.65
X-1.Y0.175
X-1.Y0.125
X-1.Y0.
X-0.976Y-0.61
X-0.97Y0.65
X-0.97Y0.625
X-0.956Y0.348
X-0.95Y0.175
X-0.95Y0.125
X-0.95Y0.
X-0.94Y0.65
X-0.94Y0.625
X-0.9Y0.57
X-0.9Y0.
X-0.882Y0.35
X-0.876Y0.31
X-0.85Y0.
X-0.849Y0.659
X-0.8112Y-0.7198
X-0.8Y0.
X-0.7887Y-0.6202
X-0.75Y0.
X-0.749Y0.579
X-0.744Y0.21
X-0.71Y-0.5358
X-0.7Y0.
X-0.695Y-0.305
X-0.69Y-0.355
X-0.664Y-0.492
X-0.66Y0.37
X-0.65Y0.
X-0.648Y0.202
X-0.6402Y-0.7064
X-0.64Y-0.64
X-0.615Y-0.095
X-0.6006Y0.3125
X-0.6Y0.
X-0.6Y-0.74
X-0.5915Y-0.568
X-0.5752Y-0.7232
X-0.56Y0.325
X-0.55Y0.
X-0.55Y-0.4792
X-0.5498Y-0.5383
X-0.542Y0.252
X-0.53Y-0.64
X-0.53Y-0.7
X-0.529Y-0.323
X-0.529Y-0.365
X-0.529Y-0.251
X-0.5028Y0.06
X-0.5Y-0.35
X-0.49Y-0.075
X-0.49Y-0.4792
X-0.49Y-0.64
X-0.49Y-0.7
X-0.4891Y-0.5383
X-0.463Y0.0437
X-0.462Y0.336
X-0.4498Y-0.716
X-0.44Y0.478
X-0.4353Y-0.7449
X-0.4352Y0.0732
X-0.43Y-0.4792
X-0.43Y-0.5383
X-0.4168Y0.1445
X-0.414Y0.55
X-0.4Y0.282
X-0.3815Y-0.109
X-0.3805Y-0.171
X-0.379Y0.433
X-0.3618Y0.1217
X-0.3522Y0.4099
X-0.339Y0.609
X-0.3153Y0.4339
X-0.3145Y-0.105
X-0.3145Y-0.168
X-0.3102Y0.1752
X-0.2982Y0.283
X-0.296Y0.573
X-0.2947Y0.1546
X-0.2897Y0.435
X-0.245Y-0.259
X-0.226Y0.042
X-0.2181Y0.0033
X-0.214Y0.11
X-0.1962Y-0.032
X-0.176Y0.089
X-0.175Y-0.365
X-0.172Y-0.714
X-0.164Y0.172
X-0.144Y0.192
X-0.135Y-0.395
X-0.1315Y0.523
X-0.1195Y-0.0942
X-0.1186Y-0.4147
X-0.1143Y-0.1608
X-0.113Y0.581
X-0.1011Y-0.3665
X-0.085Y0.166
X-0.08Y-0.69
X-0.07Y0.192
X-0.0595Y0.0902
X-0.0563Y-0.4307
X-0.0489Y-0.0355
X-0.0345Y-0.1897
X-0.0306Y-0.5072
X-0.0302Y-0.55
X-0.0066Y0.3572
X0.007Y0.147
X0.055Y-0.505
X0.0676Y-0.7124
X0.07Y-0.56
X0.085Y0.43
X0.09Y0.595
X0.09Y0.2189
X0.1049Y-0.125
X0.1155Y0.0353
X0.125Y-0.2282
X0.1305Y0.0753
X0.1336Y-0.0209
X0.135Y0.44
X0.1369Y-0.1115
X0.1505Y0.0403
X0.164Y-0.287
X0.167Y0.4642
X0.1836Y0.4138
X0.2349Y-0.0416
X0.24Y0.198
X0.2421Y0.0902
X0.2547Y0.4681
X0.2605Y-0.0396
X0.2984Y-0.7232
X0.31Y-0.3552
X0.343Y0.0422
X0.3446Y0.2451
X0.36Y-0.36
X0.367Y0.0233
X0.385Y-0.455
X0.414Y0.3295
X0.4156Y0.1588
X0.417Y0.355
X0.4292Y-0.001
X0.4386Y0.2404
X0.456Y-0.042
X0.464Y0.62
X0.4696Y0.5575
X0.51Y-0.4
X0.54Y-0.195
X0.5498Y-0.0492
X0.55Y0.665
X0.5587Y-0.5748
X0.565Y-0.095
X0.565Y-0.21
X0.565Y-0.265
X0.57Y-0.0275
X0.5768Y0.1448
X0.585Y-0.7299
X0.5894Y-0.168
X0.6Y-0.16
X0.6Y-0.475
X0.63Y-0.025
X0.63Y-0.265
X0.6346Y0.285
X0.655Y-0.135
X0.655Y-0.19
X0.685Y-0.025
X0.7Y-0.265
X0.709Y-0.514
X0.71Y0.46
X0.71Y-0.16
X0.715Y-0.477
X0.745Y-0.025
X0.75Y-0.265
X0.7618Y-0.7047
X0.805Y-0.025
X0.805Y-0.1
X0.805Y-0.155
X0.805Y-0.21
X0.805Y-0.26
X0.811Y0.415
X0.826Y-0.43
X0.83Y0.655
X0.916Y-0.34
X0.9305Y-0.1247
X0.935Y0.35
X0.944Y-0.324
X0.97Y0.57
X0.9705Y0.3702
X0.9805Y-0.1347
X1.01Y0.44
X1.0105Y0.3571
X1.025Y-0.13
X1.04Y0.055
X1.044Y-0.67
X1.0884Y0.2623
X1.1205Y0.4658
X1.135Y-0.7112
X1.18Y0.025
X1.18Y-0.08
X1.18Y-0.13
X1.1818Y0.149
X1.19Y0.215
X1.19Y-0.36
X1.19Y-0.4
X1.19Y-0.44
X1.215Y0.6
X1.22Y-0.24
X1.23Y-0.4
X1.235Y-0.19
X1.27Y-0.4
X1.28Y-0.24
X1.2925Y0.295
X1.2925Y0.265
X1.3Y-0.07
X1.3Y-0.12
X1.31Y-0.4
X1.3173Y0.6242
X1.32Y0.295
X1.32Y0.265
X1.34Y-0.19
X1.34Y-0.24
X1.35Y0.265
X1.35Y0.175
X1.35Y-0.4
X1.364Y-0.4725
X1.39Y-0.4
X1.4Y-0.19
X1.4Y-0.24
X1.45Y0.175
X1.46Y-0.19
X1.46Y-0.24
X1.5Y0.2
X1.5Y0.1
X1.505Y-0.66
X1.515Y-0.06
X1.52Y-0.19
X1.52Y-0.24
X1.55Y0.5
X1.55Y0.45
X1.5512Y0.4058
X1.61Y-0.18
X1.61Y-0.24
X1.65Y0.5
X1.65Y0.45
X1.6512Y0.4058
X1.68Y-0.18
X1.68Y-0.24
X1.7Y0.2
X1.7Y0.1
X1.74Y-0.18
X1.74Y-0.24
X1.75Y0.5
X1.75Y0.45
X1.75Y0.4
X1.8Y0.2
X1.8Y0.1
X1.814Y0.348
X1.814Y0.318
X1.8175Y0.255
X1.82Y-0.14
X1.85Y0.5
X1.85Y0.45
X1.85Y0.4
X1.87Y-0.47
X1.9Y-0.37
X1.9125Y0.2725
X1.915Y-0.14
T3
X0.615Y-0.075
T5
X0.4734Y0.296
T6
X0.7667Y0.296
T7
X1.8844Y-0.6837
X-2.0026Y-0.6837
X-2.0026Y0.6246
X1.8844Y0.6246
T2
X0.0685Y0.505G85X0.041Y0.505
G05
X0.1867Y0.5896G85X0.1433Y0.5896
G05
X0.289Y0.505G85X0.2615Y0.505
G05
T4
X0.0325Y0.6401G85X0.0353Y0.6401
G05
X0.2924Y0.6401G85X0.2951Y0.6401
G05
T0
M30
