G04 #@! TF.GenerationSoftware,KiCad,Pcbnew,(5.0.0)*
G04 #@! TF.CreationDate,2018-12-27T15:31:04-06:00*
G04 #@! TF.ProjectId,fk-core,666B2D636F72652E6B696361645F7063,0.1*
G04 #@! TF.SameCoordinates,PX791ddc0PY791ddc0*
G04 #@! TF.FileFunction,Copper,L4,Bot,Signal*
G04 #@! TF.FilePolarity,Positive*
%FSLAX46Y46*%
G04 Gerber Fmt 4.6, Leading zero omitted, Abs format (unit mm)*
G04 Created by KiCad (PCBNEW (5.0.0)) date 12/27/18 15:31:04*
%MOMM*%
%LPD*%
G01*
G04 APERTURE LIST*
G04 #@! TA.AperFunction,SMDPad,CuDef*
%ADD10R,1.600000X1.400000*%
G04 #@! TD*
G04 #@! TA.AperFunction,SMDPad,CuDef*
%ADD11R,0.400000X1.350000*%
G04 #@! TD*
G04 #@! TA.AperFunction,SMDPad,CuDef*
%ADD12R,1.900000X1.400000*%
G04 #@! TD*
G04 #@! TA.AperFunction,ComponentPad*
%ADD13O,1.651000X1.600000*%
G04 #@! TD*
G04 #@! TA.AperFunction,ComponentPad*
%ADD14O,1.800000X1.100000*%
G04 #@! TD*
G04 #@! TA.AperFunction,ComponentPad*
%ADD15O,2.200000X1.100000*%
G04 #@! TD*
G04 #@! TA.AperFunction,SMDPad,CuDef*
%ADD16R,1.900000X0.400000*%
G04 #@! TD*
G04 #@! TA.AperFunction,SMDPad,CuDef*
%ADD17R,0.400000X1.900000*%
G04 #@! TD*
G04 #@! TA.AperFunction,SMDPad,CuDef*
%ADD18R,0.698500X1.498600*%
G04 #@! TD*
G04 #@! TA.AperFunction,SMDPad,CuDef*
%ADD19R,1.798320X1.399540*%
G04 #@! TD*
G04 #@! TA.AperFunction,SMDPad,CuDef*
%ADD20R,1.399540X1.899920*%
G04 #@! TD*
G04 #@! TA.AperFunction,SMDPad,CuDef*
%ADD21R,1.600200X1.168400*%
G04 #@! TD*
G04 #@! TA.AperFunction,ComponentPad*
%ADD22R,1.700000X1.700000*%
G04 #@! TD*
G04 #@! TA.AperFunction,SMDPad,CuDef*
%ADD23R,1.998980X1.000760*%
G04 #@! TD*
G04 #@! TA.AperFunction,SMDPad,CuDef*
%ADD24R,4.500000X2.300000*%
G04 #@! TD*
G04 #@! TA.AperFunction,BGAPad,CuDef*
%ADD25C,1.000000*%
G04 #@! TD*
G04 #@! TA.AperFunction,SMDPad,CuDef*
%ADD26R,1.100000X1.000000*%
G04 #@! TD*
G04 #@! TA.AperFunction,SMDPad,CuDef*
%ADD27R,2.000000X1.300000*%
G04 #@! TD*
G04 #@! TA.AperFunction,SMDPad,CuDef*
%ADD28R,1.168400X1.600200*%
G04 #@! TD*
G04 #@! TA.AperFunction,SMDPad,CuDef*
%ADD29R,1.200000X0.800000*%
G04 #@! TD*
G04 #@! TA.AperFunction,SMDPad,CuDef*
%ADD30R,2.200000X0.800000*%
G04 #@! TD*
G04 #@! TA.AperFunction,SMDPad,CuDef*
%ADD31R,2.500000X2.000000*%
G04 #@! TD*
G04 #@! TA.AperFunction,SMDPad,CuDef*
%ADD32R,1.000000X1.100000*%
G04 #@! TD*
G04 #@! TA.AperFunction,ViaPad*
%ADD33C,0.500000*%
G04 #@! TD*
G04 #@! TA.AperFunction,Conductor*
%ADD34C,0.508000*%
G04 #@! TD*
G04 #@! TA.AperFunction,Conductor*
%ADD35C,0.203200*%
G04 #@! TD*
G04 #@! TA.AperFunction,Conductor*
%ADD36C,0.762000*%
G04 #@! TD*
G04 #@! TA.AperFunction,Conductor*
%ADD37C,0.381000*%
G04 #@! TD*
G04 #@! TA.AperFunction,Conductor*
%ADD38C,0.254000*%
G04 #@! TD*
G04 #@! TA.AperFunction,Conductor*
%ADD39C,0.152400*%
G04 #@! TD*
G04 APERTURE END LIST*
D10*
G04 #@! TO.P,J9,7*
G04 #@! TO.N,Net-(J9-Pad7)*
X7361000Y14509000D03*
D11*
G04 #@! TO.P,J9,3*
G04 #@! TO.N,/USB+*
X4161000Y13589000D03*
D12*
G04 #@! TO.P,J9,9*
G04 #@! TO.N,Net-(J9-Pad9)*
X5361000Y16509000D03*
D13*
G04 #@! TO.P,J9,*
G04 #@! TO.N,*
X861000Y16259000D03*
D12*
G04 #@! TO.P,J9,8*
G04 #@! TO.N,Net-(J9-Pad8)*
X2961000Y16509000D03*
D13*
G04 #@! TO.P,J9,*
G04 #@! TO.N,*
X7461000Y16259000D03*
D11*
G04 #@! TO.P,J9,2*
G04 #@! TO.N,/USB-*
X3511000Y13589000D03*
G04 #@! TO.P,J9,1*
G04 #@! TO.N,VUSB*
X2861000Y13589000D03*
G04 #@! TO.P,J9,4*
G04 #@! TO.N,Net-(J16-Pad4)*
X4811000Y13589000D03*
G04 #@! TO.P,J9,5*
G04 #@! TO.N,GND*
X5461000Y13589000D03*
D10*
G04 #@! TO.P,J9,6*
G04 #@! TO.N,Net-(C14-Pad1)*
X961000Y14509000D03*
G04 #@! TD*
D14*
G04 #@! TO.P,J16,6*
G04 #@! TO.N,Net-(J16-Pad6)*
X6991000Y12827000D03*
G04 #@! TO.P,J16,7*
G04 #@! TO.N,Net-(C14-Pad1)*
X1391000Y12827000D03*
D15*
G04 #@! TO.P,J16,8*
G04 #@! TO.N,Net-(J16-Pad8)*
X4191000Y14977000D03*
G04 #@! TD*
D16*
G04 #@! TO.P,U1,21*
G04 #@! TO.N,Net-(U1-Pad21)*
X-30795100Y-5459730D03*
G04 #@! TO.P,U1,22*
G04 #@! TO.N,/D2_WIFI_EN*
X-30795100Y-6475730D03*
G04 #@! TO.P,U1,23*
G04 #@! TO.N,/PERIPH_3V3*
X-30795100Y-7491731D03*
G04 #@! TO.P,U1,24*
G04 #@! TO.N,Net-(U1-Pad24)*
X-30795100Y-8507731D03*
G04 #@! TO.P,U1,25*
G04 #@! TO.N,N/C*
X-30795100Y-9523730D03*
G04 #@! TO.P,U1,26*
G04 #@! TO.N,Net-(R4-Pad1)*
X-30795100Y-10539730D03*
G04 #@! TO.P,U1,27*
G04 #@! TO.N,Net-(R5-Pad1)*
X-30795100Y-11555730D03*
G04 #@! TO.P,U1,28*
G04 #@! TO.N,GND*
X-30795100Y-12571730D03*
G04 #@! TO.P,U1,20*
G04 #@! TO.N,/PERIPH_3V3*
X-30795100Y-2411730D03*
D17*
G04 #@! TO.P,U1,4*
G04 #@! TO.N,/A1_WIFI_RST*
X-36514550Y-15242130D03*
G04 #@! TO.P,U1,3*
G04 #@! TO.N,Net-(U1-Pad3)*
X-35498550Y-15242130D03*
G04 #@! TO.P,U1,2*
G04 #@! TO.N,Net-(U1-Pad2)*
X-34482550Y-15242130D03*
G04 #@! TO.P,U1,1*
G04 #@! TO.N,Net-(U1-Pad1)*
X-33466550Y-15242130D03*
G04 #@! TO.P,U1,5*
G04 #@! TO.N,N/C*
X-40578550Y-15242130D03*
G04 #@! TO.P,U1,6*
X-42610553Y-15242130D03*
G04 #@! TO.P,U1,7*
X-43626550Y-15242130D03*
G04 #@! TO.P,U1,8*
X-44642550Y-15242130D03*
G04 #@! TO.P,U1,9*
G04 #@! TO.N,GND*
X-45658550Y-15242130D03*
G04 #@! TO.P,U1,19*
G04 #@! TO.N,Net-(U1-Pad19)*
X-34474330Y-511860D03*
G04 #@! TO.P,U1,18*
G04 #@! TO.N,/SCK*
X-35490330Y-511860D03*
G04 #@! TO.P,U1,17*
G04 #@! TO.N,/MISO*
X-36506330Y-511860D03*
G04 #@! TO.P,U1,16*
G04 #@! TO.N,/D7_WIFI_CS*
X-37522330Y-511860D03*
G04 #@! TO.P,U1,15*
G04 #@! TO.N,/MOSI*
X-38538330Y-511860D03*
G04 #@! TO.P,U1,14*
G04 #@! TO.N,Net-(U1-Pad14)*
X-39554330Y-511860D03*
G04 #@! TO.P,U1,13*
G04 #@! TO.N,/A2_WIFI_IRQ*
X-40570330Y-511860D03*
G04 #@! TO.P,U1,12*
G04 #@! TO.N,GND*
X-41586334Y-511860D03*
G04 #@! TO.P,U1,11*
G04 #@! TO.N,/D8_WIFI_WAKE*
X-42602334Y-511860D03*
G04 #@! TO.P,U1,10*
G04 #@! TO.N,/PERIPH_3V3*
X-43618330Y-511860D03*
G04 #@! TD*
D18*
G04 #@! TO.P,M7,1*
G04 #@! TO.N,Net-(M7-Pad1)*
X-23477220Y-14193520D03*
G04 #@! TO.P,M7,2*
G04 #@! TO.N,/D12_SD_CS*
X-22377400Y-13794740D03*
G04 #@! TO.P,M7,3*
G04 #@! TO.N,/MOSI*
X-21277580Y-14193520D03*
G04 #@! TO.P,M7,4*
G04 #@! TO.N,/PERIPH_3V3*
X-20177760Y-14594840D03*
G04 #@! TO.P,M7,5*
G04 #@! TO.N,/SCK*
X-19077940Y-14193520D03*
G04 #@! TO.P,M7,6*
G04 #@! TO.N,GND*
X-17975580Y-14594840D03*
G04 #@! TO.P,M7,7*
G04 #@! TO.N,/MISO*
X-16875760Y-14193520D03*
G04 #@! TO.P,M7,8*
G04 #@! TO.N,Net-(M7-Pad8)*
X-15775940Y-14193520D03*
D19*
G04 #@! TO.P,M7,CD1*
G04 #@! TO.N,Net-(M7-PadCD1)*
X-16476980Y-3995420D03*
G04 #@! TO.P,M7,CD2*
G04 #@! TO.N,Net-(M7-PadCD2)*
X-22476460Y-3995420D03*
D20*
G04 #@! TO.P,M7,MT1*
G04 #@! TO.N,GND*
X-14876780Y-17094200D03*
G04 #@! TO.P,M7,MT2*
X-28077160Y-17995900D03*
G04 #@! TD*
D21*
G04 #@! TO.P,J12,1*
G04 #@! TO.N,3V3*
X47498000Y-11049000D03*
G04 #@! TO.P,J12,2*
G04 #@! TO.N,/GPS_3V3*
X47498000Y-9525000D03*
G04 #@! TD*
D22*
G04 #@! TO.P,J4,1*
G04 #@! TO.N,Net-(J15-Pad1)*
X15621000Y-1905000D03*
G04 #@! TD*
D23*
G04 #@! TO.P,U10,1*
G04 #@! TO.N,/GPS_PWR_FILT*
X31419800Y-5021580D03*
G04 #@! TO.P,U10,2*
G04 #@! TO.N,Net-(U10-Pad2)*
X31419800Y-3522980D03*
G04 #@! TO.P,U10,3*
G04 #@! TO.N,GND*
X31419800Y-2021840D03*
G04 #@! TO.P,U10,4*
G04 #@! TO.N,/BAT_BACKUP*
X31419800Y-523240D03*
G04 #@! TO.P,U10,5*
G04 #@! TO.N,/GPS_FIX*
X31419800Y977900D03*
G04 #@! TO.P,U10,6*
G04 #@! TO.N,Net-(U10-Pad6)*
X31419800Y2476500D03*
G04 #@! TO.P,U10,7*
G04 #@! TO.N,Net-(U10-Pad7)*
X31419800Y3977640D03*
G04 #@! TO.P,U10,8*
G04 #@! TO.N,GND*
X31419800Y5476240D03*
G04 #@! TO.P,U10,9*
G04 #@! TO.N,/GPS_TX*
X31419800Y6977380D03*
G04 #@! TO.P,U10,10*
G04 #@! TO.N,/GPS_RX*
X31419800Y8475980D03*
G04 #@! TO.P,U10,11*
G04 #@! TO.N,Net-(J11-Pad1)*
X47421800Y8475980D03*
G04 #@! TO.P,U10,12*
G04 #@! TO.N,GND*
X47421800Y6977380D03*
G04 #@! TO.P,U10,13*
G04 #@! TO.N,Net-(U10-Pad13)*
X47421800Y5476240D03*
G04 #@! TO.P,U10,14*
G04 #@! TO.N,Net-(U10-Pad14)*
X47421800Y3977640D03*
G04 #@! TO.P,U10,15*
G04 #@! TO.N,Net-(U10-Pad15)*
X47421800Y2476500D03*
G04 #@! TO.P,U10,16*
G04 #@! TO.N,Net-(U10-Pad16)*
X47421800Y977900D03*
G04 #@! TO.P,U10,17*
G04 #@! TO.N,Net-(U10-Pad17)*
X47421800Y-523240D03*
G04 #@! TO.P,U10,18*
G04 #@! TO.N,Net-(U10-Pad18)*
X47421800Y-2021840D03*
G04 #@! TO.P,U10,19*
G04 #@! TO.N,GND*
X47421800Y-3522980D03*
G04 #@! TO.P,U10,20*
G04 #@! TO.N,Net-(U10-Pad20)*
X47421800Y-5021580D03*
G04 #@! TD*
D24*
G04 #@! TO.P,BT1,1*
G04 #@! TO.N,/BAT_BACKUP*
X23723600Y7518400D03*
G04 #@! TO.P,BT1,2*
G04 #@! TO.N,GND*
X7323600Y7518400D03*
G04 #@! TD*
D25*
G04 #@! TO.P,M9,~*
G04 #@! TO.N,Net-(M9-Pad~)*
X40640000Y16510000D03*
G04 #@! TD*
G04 #@! TO.P,M10,~*
G04 #@! TO.N,Net-(M10-Pad~)*
X-44450000Y-17780000D03*
G04 #@! TD*
G04 #@! TO.P,M11,~*
G04 #@! TO.N,Net-(M11-Pad~)*
X36830000Y-13970000D03*
G04 #@! TD*
D26*
G04 #@! TO.P,R23,1*
G04 #@! TO.N,Net-(J16-Pad4)*
X9106800Y15011400D03*
G04 #@! TO.P,R23,2*
G04 #@! TO.N,3V3*
X10806800Y15011400D03*
G04 #@! TD*
G04 #@! TO.P,R30,1*
G04 #@! TO.N,Net-(J16-Pad4)*
X9095000Y13487400D03*
G04 #@! TO.P,R30,2*
G04 #@! TO.N,/USB_ID*
X10795000Y13487400D03*
G04 #@! TD*
D27*
G04 #@! TO.P,U3,1*
G04 #@! TO.N,GND*
X636000Y-18096000D03*
G04 #@! TO.P,U3,2*
G04 #@! TO.N,/MISO*
X636000Y-16096000D03*
G04 #@! TO.P,U3,3*
G04 #@! TO.N,/MOSI*
X636000Y-14096000D03*
G04 #@! TO.P,U3,4*
G04 #@! TO.N,/SCK*
X636000Y-12096000D03*
G04 #@! TO.P,U3,5*
G04 #@! TO.N,/D5_RADIO_CS*
X636000Y-10096000D03*
G04 #@! TO.P,U3,6*
G04 #@! TO.N,Net-(U3-Pad6)*
X636000Y-8096000D03*
G04 #@! TO.P,U3,7*
G04 #@! TO.N,Net-(U3-Pad7)*
X636000Y-6096000D03*
G04 #@! TO.P,U3,8*
G04 #@! TO.N,GND*
X636000Y-4096000D03*
G04 #@! TO.P,U3,9*
G04 #@! TO.N,Net-(J15-Pad1)*
X16636000Y-4096000D03*
G04 #@! TO.P,U3,10*
G04 #@! TO.N,GND*
X16636000Y-6096000D03*
G04 #@! TO.P,U3,11*
G04 #@! TO.N,Net-(U3-Pad11)*
X16636000Y-8096000D03*
G04 #@! TO.P,U3,12*
G04 #@! TO.N,Net-(U3-Pad12)*
X16636000Y-10096000D03*
G04 #@! TO.P,U3,13*
G04 #@! TO.N,/PERIPH_3V3*
X16636000Y-12096000D03*
G04 #@! TO.P,U3,14*
G04 #@! TO.N,/LORA_D0*
X16636000Y-14096000D03*
G04 #@! TO.P,U3,15*
G04 #@! TO.N,/LORA_D1*
X16636000Y-16096000D03*
G04 #@! TO.P,U3,16*
G04 #@! TO.N,/LORA_D2*
X16636000Y-18096000D03*
G04 #@! TD*
D28*
G04 #@! TO.P,J2,1*
G04 #@! TO.N,3V3*
X-13081000Y-2413000D03*
G04 #@! TO.P,J2,2*
G04 #@! TO.N,/PERIPH_3V3*
X-14605000Y-2413000D03*
G04 #@! TD*
G04 #@! TO.P,J14,1*
G04 #@! TO.N,/MODULE_3V3*
X-16357600Y6146800D03*
G04 #@! TO.P,J14,2*
G04 #@! TO.N,3V3*
X-14833600Y6146800D03*
G04 #@! TD*
D29*
G04 #@! TO.P,U14,1*
G04 #@! TO.N,GND*
X-23345200Y8866000D03*
D30*
G04 #@! TO.P,U14,2*
G04 #@! TO.N,VBUS*
X-23845200Y7366000D03*
D29*
G04 #@! TO.P,U14,3*
G04 #@! TO.N,3V3*
X-23345200Y5866000D03*
D31*
G04 #@! TO.P,U14,2*
G04 #@! TO.N,VBUS*
X-26195200Y7366000D03*
G04 #@! TD*
D26*
G04 #@! TO.P,C14,2*
G04 #@! TO.N,GND*
X-3339276Y12452695D03*
G04 #@! TO.P,C14,1*
G04 #@! TO.N,Net-(C14-Pad1)*
X-1639276Y12452695D03*
G04 #@! TD*
D28*
G04 #@! TO.P,J1,1*
G04 #@! TO.N,/GPS_3V3*
X28956000Y1397000D03*
G04 #@! TO.P,J1,2*
G04 #@! TO.N,3V3*
X27432000Y1397000D03*
G04 #@! TD*
D32*
G04 #@! TO.P,R26,2*
G04 #@! TO.N,/SDA1*
X-10591800Y14540600D03*
G04 #@! TO.P,R26,1*
G04 #@! TO.N,/SDA2*
X-10591800Y12840600D03*
G04 #@! TD*
G04 #@! TO.P,R27,2*
G04 #@! TO.N,/SCL1*
X-9067800Y14566000D03*
G04 #@! TO.P,R27,1*
G04 #@! TO.N,/SCL2*
X-9067800Y12866000D03*
G04 #@! TD*
D26*
G04 #@! TO.P,R31,1*
G04 #@! TO.N,Net-(C14-Pad1)*
X-1639276Y14103695D03*
G04 #@! TO.P,R31,2*
G04 #@! TO.N,GND*
X-3339276Y14103695D03*
G04 #@! TD*
D33*
G04 #@! TO.N,*
X-12446000Y-12170590D03*
G04 #@! TO.N,GND*
X16002000Y-6731000D03*
X-38090000Y9730000D03*
X-37410000Y9670000D03*
X-34000000Y16240000D03*
X16120000Y7240000D03*
X-38159083Y8945133D03*
X-37409083Y8945133D03*
X7580000Y-18370000D03*
X-45720000Y-16510000D03*
X-30861000Y-13081000D03*
X-29235447Y-17382599D03*
X-41529002Y-1651000D03*
X-29083000Y-12954000D03*
X-17653000Y-7747000D03*
X-33020000Y0D03*
X-31750000Y0D03*
X-30480000Y0D03*
X-29210000Y0D03*
X-27940000Y0D03*
X-26670000Y0D03*
X-25400000Y0D03*
X-24130000Y0D03*
X-22860000Y0D03*
X-21590000Y0D03*
X-20320000Y0D03*
X-19050000Y0D03*
X-17780000Y0D03*
X-16510000Y0D03*
X-15240000Y0D03*
X-13970000Y0D03*
X-20603328Y-18284010D03*
X-16260000Y-17942552D03*
X-24282400Y8839200D03*
X-22402800Y8890000D03*
X-4368800Y-18135600D03*
X-11426002Y-18186400D03*
X-18034000Y-13610410D03*
X-36982400Y7061200D03*
X-14610577Y-18370340D03*
X-16764000Y9398000D03*
X-30480000Y5842000D03*
X-31242000Y11684000D03*
X33020000Y-1778000D03*
X39370000Y12700000D03*
X41910000Y12700000D03*
X44450000Y12700000D03*
X46990000Y12700000D03*
X46990000Y11430000D03*
X44450000Y11430000D03*
X41910000Y11430000D03*
X39370000Y11430000D03*
X44450000Y10160000D03*
X46990000Y10160000D03*
X33460000Y15853590D03*
X45720000Y2540000D03*
X43180000Y2540000D03*
X38100000Y2540000D03*
X38100000Y5080000D03*
X43180000Y5080000D03*
X45720000Y5080000D03*
X33020000Y-3048000D03*
X29972000Y-2032000D03*
X29972000Y-3302000D03*
X24638000Y14478000D03*
X16002000Y-635000D03*
X17399000Y-635000D03*
X18923000Y-635000D03*
X20447000Y-635000D03*
X20447000Y-2540000D03*
X20447000Y-3937000D03*
X20447000Y-5334000D03*
X20447000Y-6604000D03*
X19050000Y-6731000D03*
X17780000Y-6731000D03*
X14351000Y-2413000D03*
X14351000Y-5334000D03*
X14351000Y-6731000D03*
X9779000Y-11557000D03*
X12954000Y-10160000D03*
X1716000Y-18096000D03*
X26035000Y-3302000D03*
X14858516Y-18539295D03*
X3392398Y-530684D03*
X-877276Y-4819305D03*
X27646000Y6662419D03*
X-2032000Y-17526000D03*
X28830000Y-18063379D03*
X14478000Y-698500D03*
X46228000Y-3556000D03*
X48641000Y-3556000D03*
X48577500Y6921500D03*
X46164500Y6477000D03*
X41940766Y10308410D03*
X39400766Y10308410D03*
X-36068000Y-9017000D03*
X-34798000Y-9017000D03*
X-33528000Y-9017000D03*
X-32385000Y-9017000D03*
X-43815000Y5461000D03*
X-49784000Y5461000D03*
X2158000Y10922000D03*
X6468220Y11890403D03*
X30226000Y5461000D03*
X21082000Y16637000D03*
X13970000Y16891000D03*
X8753034Y6225436D03*
X20980400Y-10922000D03*
X-4165600Y4368800D03*
X-11734800Y8534400D03*
X-9689200Y-2768600D03*
X-9663800Y-4343400D03*
X-6223000Y-6578600D03*
X30226000Y-9144000D03*
X30226000Y-10160000D03*
X30226000Y-11176000D03*
X31242000Y-10160000D03*
X32258000Y-10160000D03*
X33274000Y-10160000D03*
X34290000Y-10160000D03*
X35306000Y-10160000D03*
X-33782000Y-17780000D03*
X11139417Y6105605D03*
X-167745Y9071790D03*
X-3339276Y13284200D03*
X-2870200Y14757400D03*
X-7573190Y7186996D03*
X-4982472Y-814002D03*
X177800Y3733800D03*
X9321800Y592180D03*
X14192123Y-14600010D03*
X-47752000Y16764000D03*
X6096000Y5029200D03*
X-13436600Y-9271000D03*
X-13436600Y-8204200D03*
X-13436594Y-6375400D03*
X30017896Y3784600D03*
X-19024600Y14706600D03*
X11785600Y15748000D03*
G04 #@! TO.N,Net-(J15-Pad1)*
X14970903Y-4267945D03*
G04 #@! TO.N,3V3*
X19350000Y-17900000D03*
X-12700000Y-8890000D03*
X-24130000Y3175000D03*
X-25400000Y4445000D03*
X-25400000Y3175000D03*
X-26670000Y4445000D03*
X-26670000Y3175000D03*
X-27940000Y3175000D03*
X-24130000Y4445000D03*
X-13766800Y6400800D03*
X-35306000Y3302000D03*
X18034000Y11684000D03*
X-4445000Y-9271000D03*
X38227000Y-16764000D03*
X47498000Y-11938000D03*
X-31369000Y-1182000D03*
X-12446008Y-1905000D03*
X26416000Y1397000D03*
X-10160000Y7162800D03*
X2286000Y5559600D03*
X2932724Y895695D03*
X-7989200Y-2667000D03*
X-7989200Y-4267200D03*
X34644700Y-12001500D03*
X13966032Y-1250309D03*
X11582400Y-1066800D03*
X10557019Y4034643D03*
X-45974000Y16764000D03*
X25654000Y11176000D03*
X11928010Y14161269D03*
G04 #@! TO.N,/SWDIO*
X7874000Y-9020990D03*
X6616356Y-1006992D03*
G04 #@! TO.N,/SWCLK*
X9144000Y-9144000D03*
X5965888Y-1057313D03*
G04 #@! TO.N,/RESET*
X13716000Y-4953000D03*
X-1512276Y2289990D03*
G04 #@! TO.N,/MOSI*
X-25607190Y-8128000D03*
X-27482800Y-7772400D03*
X1778000Y-14224000D03*
X-3429000Y-10033002D03*
G04 #@! TO.N,/SCK*
X-25607190Y-9448800D03*
X-26619200Y-9550400D03*
X1397000Y-12827000D03*
X-3011695Y-10534495D03*
G04 #@! TO.N,/MISO*
X-16865600Y-12496800D03*
X-766402Y-13970000D03*
X-2567945Y-9308355D03*
G04 #@! TO.N,/USB-*
X4663637Y10511610D03*
G04 #@! TO.N,/USB+*
X4242603Y11791360D03*
G04 #@! TO.N,/D30*
X3313724Y1911695D03*
X23633724Y-3168305D03*
G04 #@! TO.N,/D31*
X3821724Y1022695D03*
X24903724Y-3422305D03*
G04 #@! TO.N,/A5_BATT_V*
X-36830000Y1524000D03*
G04 #@! TO.N,VUSB*
X2286000Y15113000D03*
G04 #@! TO.N,/SDA2*
X-11176000Y12141200D03*
X-10587810Y3671549D03*
G04 #@! TO.N,/BAT_BACKUP*
X26517600Y-17018000D03*
X23749000Y8890000D03*
G04 #@! TO.N,VBAT*
X-39751000Y-6858000D03*
X-39243000Y-4699000D03*
G04 #@! TO.N,VBUS*
X-29230000Y8120000D03*
X-28370000Y8140000D03*
X-27670000Y8110000D03*
X-29300000Y7430000D03*
X-29260000Y6740000D03*
X-38530000Y7120000D03*
X-34670000Y7040000D03*
X-25400000Y16510000D03*
X-24638000Y16510000D03*
X-23876000Y16510000D03*
X-23876000Y15875000D03*
X-24638000Y15875000D03*
X34290000Y6731000D03*
X32829500Y6731000D03*
X32829500Y7493000D03*
X33528000Y7492998D03*
X33528000Y6731002D03*
G04 #@! TO.N,/GPS_FIX*
X28459724Y11832410D03*
G04 #@! TO.N,Net-(J11-Pad1)*
X46075600Y8839200D03*
X46075600Y8077200D03*
G04 #@! TO.N,Net-(R4-Pad1)*
X-30226000Y-15494000D03*
G04 #@! TO.N,Net-(R5-Pad1)*
X-26670000Y-15494000D03*
G04 #@! TO.N,/SCL2*
X-11053143Y1859781D03*
G04 #@! TO.N,/PG*
X-29722000Y14909800D03*
X-37733532Y6096336D03*
G04 #@! TO.N,/CHG*
X-35379998Y8030000D03*
X-28448000Y10668000D03*
G04 #@! TO.N,/GPS_TX*
X25665724Y9070802D03*
G04 #@! TO.N,/GPS_RX*
X24649724Y9401990D03*
G04 #@! TO.N,/PERIPH_3V3*
X-13462000Y-16256000D03*
X-12446000Y-16256000D03*
X-13462000Y-17780000D03*
X-12446000Y-17780000D03*
X-13970000Y-12170590D03*
X-10922000Y-12170590D03*
X-29464000Y-7620000D03*
X-17526000Y-9017000D03*
X-20031945Y-15751990D03*
X-28037621Y-10433885D03*
X-24790400Y-15494000D03*
X-28346400Y-15494000D03*
X-11057822Y-18921697D03*
X-12422724Y-13673191D03*
X-10921211Y-13673191D03*
X-13965918Y-13673191D03*
X15240000Y-12065000D03*
X-15621000Y-2413000D03*
X-32280452Y-7577010D03*
X-29429046Y-2389680D03*
X-43561000Y762000D03*
X18161000Y-12115800D03*
X18008600Y-13055600D03*
G04 #@! TO.N,/GPS_3V3*
X34290000Y4445000D03*
X36830000Y4445000D03*
X42672000Y-6096000D03*
X44196000Y-6096000D03*
X40894000Y-6096000D03*
X40894000Y-4572000D03*
X42672000Y-4572000D03*
X44196000Y-4572000D03*
X38481000Y-1524000D03*
X29972000Y635000D03*
X48260000Y-9398000D03*
G04 #@! TO.N,Net-(C29-Pad1)*
X-22250400Y7874000D03*
X-15255036Y7936742D03*
G04 #@! TO.N,/MODULE_3V3*
X-16459200Y5130800D03*
G04 #@! TO.N,/D12_SD_CS*
X3175000Y-5795179D03*
G04 #@! TO.N,/A1_WIFI_RST*
X-15240000Y-18796000D03*
G04 #@! TO.N,/D2_WIFI_EN*
X-16256000Y-16256000D03*
X-776402Y-12883595D03*
G04 #@! TO.N,/D7_WIFI_CS*
X-1241858Y-902657D03*
G04 #@! TO.N,/A4_GPS_EN*
X-7485893Y3927549D03*
G04 #@! TO.N,/LORA_D0*
X-3036276Y-2391590D03*
G04 #@! TO.N,/D5_RADIO_CS*
X-2902503Y-4085410D03*
G04 #@! TO.N,/D26_FLASH_CS*
X-15024288Y-14427200D03*
X-1429681Y-10938744D03*
G04 #@! TO.N,/D25_PERIPH_EN*
X-1270000Y4445000D03*
X-7877990Y4448990D03*
G04 #@! TO.N,/A1_WIFI_RST*
X-36830000Y-17780000D03*
G04 #@! TO.N,/A2_WIFI_IRQ*
X-11761448Y1109385D03*
G04 #@! TO.N,/D8_WIFI_WAKE*
X-4470400Y2260600D03*
G04 #@! TO.N,/A4_GPS_EN*
X14649465Y3679032D03*
G04 #@! TO.N,/GPS_PWR_FILT*
X31369000Y-4826000D03*
X38608000Y-6096000D03*
X37084000Y-6096000D03*
X35560000Y-6096000D03*
X34036000Y-6096000D03*
X32512000Y-6096000D03*
X30988000Y-6096000D03*
X34036000Y-4826000D03*
X35560000Y-4826000D03*
X37084000Y-4826000D03*
X38608000Y-4826000D03*
G04 #@! TO.N,Net-(J15-Pad1)*
X15240000Y-4064000D03*
X18034000Y-4064000D03*
X16637000Y-3429000D03*
X16637000Y-4826000D03*
G04 #@! TO.N,/SDA1*
X-31115000Y-3144000D03*
X2664953Y-3175000D03*
X-22860000Y14478000D03*
X10900590Y-25400D03*
X10591800Y9017000D03*
X-7518400Y14554200D03*
X-10515602Y13970000D03*
G04 #@! TO.N,/SCL2*
X-9626600Y10998200D03*
G04 #@! TO.N,/SDA1*
X23266400Y-8636000D03*
G04 #@! TO.N,/SCL1*
X10515612Y8369052D03*
X-32966801Y-2110269D03*
X8712200Y1070770D03*
X23977600Y-8229600D03*
X3476473Y-2832021D03*
X-21564600Y16738600D03*
X-8610600Y15468600D03*
G04 #@! TO.N,Net-(C40-Pad1)*
X-37846000Y-2794000D03*
X-38989000Y-7493000D03*
G04 #@! TO.N,Net-(J16-Pad4)*
X3429000Y11176000D03*
G04 #@! TO.N,/A3_STATUS*
X-5435600Y2794000D03*
X30861000Y15240000D03*
X20599400Y10541000D03*
G04 #@! TO.N,/D9_I2S_DATA*
X-9189827Y3092248D03*
X-8945002Y10410993D03*
G04 #@! TO.N,/D1_I2S_BCLK*
X-5740400Y1066800D03*
X-7357168Y11049376D03*
G04 #@! TO.N,/D0_I2S_WS*
X-5539661Y83234D03*
X-8008988Y11021594D03*
G04 #@! TO.N,/LORA_D2*
X4165600Y-7289800D03*
G04 #@! TO.N,/LORA_D1*
X6149420Y2289990D03*
G04 #@! TO.N,/A5_BATT_V*
X-12772376Y1524000D03*
G04 #@! TO.N,/A5_MODULE_EN*
X-14224000Y8255000D03*
X-18897600Y5334000D03*
G04 #@! TD*
D34*
G04 #@! TO.N,GND*
X-45658550Y-15242130D02*
X-45658550Y-16448550D01*
X-45658550Y-16448550D02*
X-45720000Y-16510000D01*
D35*
X-30795100Y-12571730D02*
X-30795100Y-13015100D01*
X-30795100Y-13015100D02*
X-30861000Y-13081000D01*
X-28980130Y-17995900D02*
X-29235447Y-17740583D01*
X-28077160Y-17995900D02*
X-28980130Y-17995900D01*
X-29235447Y-17736152D02*
X-29235447Y-17382599D01*
X-29235447Y-17740583D02*
X-29235447Y-17736152D01*
D34*
X-41586334Y-511860D02*
X-41529002Y-569192D01*
X-41529002Y-569192D02*
X-41529002Y-1297447D01*
X-41529002Y-1297447D02*
X-41529002Y-1651000D01*
X-23345200Y8866000D02*
X-24255600Y8866000D01*
X-24255600Y8866000D02*
X-24282400Y8839200D01*
X-23345200Y8866000D02*
X-22426800Y8866000D01*
X-22426800Y8866000D02*
X-22402800Y8890000D01*
D35*
X-17975580Y-14594840D02*
X-17975580Y-13642340D01*
X-18007510Y-13610410D02*
X-18034000Y-13610410D01*
X-17975580Y-13642340D02*
X-18007510Y-13610410D01*
X-14876780Y-17094200D02*
X-14876780Y-18104137D01*
X-14860576Y-18120341D02*
X-14610577Y-18370340D01*
X-14876780Y-18104137D02*
X-14860576Y-18120341D01*
D34*
X31419800Y-2021840D02*
X32806640Y-2021840D01*
D36*
X16636000Y-6097000D02*
X16002000Y-6731000D01*
X16636000Y-6096000D02*
X16636000Y-6097000D01*
D37*
X636000Y-18096000D02*
X1716000Y-18096000D01*
D35*
X6858000Y7874000D02*
X5334000Y7874000D01*
X-877276Y-4406076D02*
X-877276Y-4819305D01*
X636000Y-4096000D02*
X-567200Y-4096000D01*
X-567200Y-4096000D02*
X-877276Y-4406076D01*
D34*
X47421800Y-3522980D02*
X46261020Y-3522980D01*
X46261020Y-3522980D02*
X46228000Y-3556000D01*
X47421800Y-3522980D02*
X48607980Y-3522980D01*
X48607980Y-3522980D02*
X48641000Y-3556000D01*
X47421800Y6977380D02*
X48521620Y6977380D01*
X48521620Y6977380D02*
X48577500Y6921500D01*
X47421800Y6977380D02*
X46664880Y6977380D01*
X46664880Y6977380D02*
X46164500Y6477000D01*
D38*
X6230597Y11890403D02*
X6468220Y11890403D01*
X5461000Y13589000D02*
X5461000Y12660000D01*
X5461000Y12660000D02*
X6230597Y11890403D01*
D34*
X31419800Y5476240D02*
X30241240Y5476240D01*
X30241240Y5476240D02*
X30226000Y5461000D01*
D35*
X7323600Y7518400D02*
X7460070Y7518400D01*
X8503035Y6475435D02*
X8753034Y6225436D01*
X7460070Y7518400D02*
X8503035Y6475435D01*
D37*
X-3339276Y14103695D02*
X-3339276Y13284200D01*
X-3339276Y13284200D02*
X-3339276Y12452695D01*
X-2870200Y14572771D02*
X-3339276Y14103695D01*
X-2870200Y14757400D02*
X-2870200Y14572771D01*
D34*
G04 #@! TO.N,3V3*
X-14833600Y6146800D02*
X-14020800Y6146800D01*
X-14020800Y6146800D02*
X-13766800Y6400800D01*
D36*
X47498000Y-11049000D02*
X47498000Y-11938000D01*
X-12954008Y-2413000D02*
X-12696007Y-2154999D01*
X-12696007Y-2154999D02*
X-12446008Y-1905000D01*
X-13081000Y-2413000D02*
X-12954008Y-2413000D01*
D34*
X27432000Y1397000D02*
X26416000Y1397000D01*
X11928010Y14513390D02*
X11928010Y14161269D01*
X10806800Y15011400D02*
X11430000Y15011400D01*
X11430000Y15011400D02*
X11928010Y14513390D01*
D35*
G04 #@! TO.N,/SWDIO*
X7874000Y-2264636D02*
X6866355Y-1256991D01*
X6866355Y-1256991D02*
X6616356Y-1006992D01*
X7874000Y-9020990D02*
X7874000Y-2264636D01*
G04 #@! TO.N,/SWCLK*
X8763000Y-9525000D02*
X6731000Y-9525000D01*
X9144000Y-9144000D02*
X8763000Y-9525000D01*
X5965888Y-1410866D02*
X5965888Y-1057313D01*
X5965888Y-8759888D02*
X5965888Y-1410866D01*
X6731000Y-9525000D02*
X5965888Y-8759888D01*
G04 #@! TO.N,/RESET*
X-1262277Y2039991D02*
X-1512276Y2289990D01*
X1281724Y6695D02*
X771019Y6695D01*
X9093200Y-4953000D02*
X8229600Y-4089400D01*
X1662724Y387695D02*
X1281724Y6695D01*
X13716000Y-4953000D02*
X9093200Y-4953000D01*
X5987705Y387695D02*
X1662724Y387695D01*
X8229600Y-4089400D02*
X8229600Y-1854200D01*
X8229600Y-1854200D02*
X5987705Y387695D01*
X771019Y6695D02*
X-1262277Y2039991D01*
G04 #@! TO.N,/MOSI*
X-27432000Y-7721600D02*
X-27482800Y-7772400D01*
X-27178000Y-7721600D02*
X-27432000Y-7721600D01*
X-21767778Y-12750822D02*
X-21277580Y-13241020D01*
X-21277580Y-13241020D02*
X-21277580Y-14193520D01*
X-25298379Y-12750822D02*
X-21767778Y-12750822D01*
X-27178001Y-10871200D02*
X-25298379Y-12750822D01*
X-27178000Y-7721600D02*
X-27178001Y-10871200D01*
X764000Y-14224000D02*
X636000Y-14096000D01*
X1778000Y-14224000D02*
X764000Y-14224000D01*
X-25607190Y-8128000D02*
X-25357191Y-8377999D01*
X-29946600Y-4572000D02*
X-27178000Y-7340600D01*
X-27178000Y-7340600D02*
X-27178000Y-7721600D01*
X-35228190Y-4572000D02*
X-29946600Y-4572000D01*
X-38538330Y-1261860D02*
X-35228190Y-4572000D01*
X-38538330Y-511860D02*
X-38538330Y-1261860D01*
X-3782553Y-10033002D02*
X-4061951Y-10312400D01*
X-3429000Y-10033002D02*
X-3782553Y-10033002D01*
X-4061951Y-10312400D02*
X-23977600Y-10312400D01*
X-23977600Y-9757590D02*
X-25607190Y-8128000D01*
X-23977600Y-10312400D02*
X-23977600Y-9757590D01*
G04 #@! TO.N,/SCK*
X-35490330Y-1665060D02*
X-32964390Y-4191000D01*
X-35490330Y-511860D02*
X-35490330Y-1665060D01*
X-32964390Y-4191000D02*
X-29464000Y-4191000D01*
X-26847800Y-7167892D02*
X-26822390Y-7193302D01*
X-26847800Y-6807200D02*
X-26847800Y-7167892D01*
X-29464000Y-4191000D02*
X-26847800Y-6807200D01*
X-26822390Y-7193302D02*
X-26822390Y-8991600D01*
X-26670000Y-9499600D02*
X-26619200Y-9550400D01*
X-26822390Y-9499600D02*
X-26670000Y-9499600D01*
X-26822390Y-8991600D02*
X-26822390Y-9499600D01*
X-26822390Y-9499600D02*
X-26822390Y-10723902D01*
X-25151081Y-12395211D02*
X-20476199Y-12395211D01*
X-26822390Y-10723902D02*
X-25151081Y-12395211D01*
X-20476199Y-12395211D02*
X-19077940Y-13793470D01*
X-19077940Y-13793470D02*
X-19077940Y-14193520D01*
X-3261694Y-10784494D02*
X-3011695Y-10534495D01*
X-24271496Y-10784494D02*
X-3261694Y-10784494D01*
X-25607190Y-9448800D02*
X-24271496Y-10784494D01*
X1367000Y-12827000D02*
X636000Y-12096000D01*
X1397000Y-12827000D02*
X1367000Y-12827000D01*
G04 #@! TO.N,/MISO*
X-24892000Y-11582400D02*
X-24790400Y-11582400D01*
X-16865600Y-14183360D02*
X-16875760Y-14193520D01*
X-16865600Y-12496800D02*
X-16865600Y-14183360D01*
X-24434800Y-12039600D02*
X-17932400Y-12039600D01*
X-16875760Y-13096240D02*
X-16875760Y-14193520D01*
X-17932400Y-12039600D02*
X-16875760Y-13096240D01*
X-24892000Y-11582400D02*
X-24434800Y-12039600D01*
X286000Y-16096000D02*
X636000Y-16096000D01*
X-766402Y-15043598D02*
X286000Y-16096000D01*
X-766402Y-13970000D02*
X-766402Y-15043598D01*
X-2317946Y-10586668D02*
X-2317946Y-9558354D01*
X-16875760Y-14193520D02*
X-16875760Y-13793470D01*
X-3165279Y-11434001D02*
X-2317946Y-10586668D01*
X-2317946Y-9558354D02*
X-2567945Y-9308355D01*
X-16875760Y-13793470D02*
X-14516291Y-11434001D01*
X-14516291Y-11434001D02*
X-3165279Y-11434001D01*
X-35944332Y641340D02*
X-35893531Y692141D01*
X-32359611Y-3835389D02*
X-29311611Y-3835389D01*
X-26111200Y-7035800D02*
X-26111200Y-10668000D01*
X-25196800Y-11582400D02*
X-24892000Y-11582400D01*
X-34071129Y692141D02*
X-33655000Y276012D01*
X-26111200Y-10668000D02*
X-25196800Y-11582400D01*
X-36506330Y238140D02*
X-36103130Y641340D01*
X-36103130Y641340D02*
X-35944332Y641340D01*
X-35893531Y692141D02*
X-34071129Y692141D01*
X-33655000Y276012D02*
X-33655000Y-2540000D01*
X-29311611Y-3835389D02*
X-26111200Y-7035800D01*
X-33655000Y-2540000D02*
X-32359611Y-3835389D01*
X-36506330Y-511860D02*
X-36506330Y238140D01*
D39*
G04 #@! TO.N,/USB-*
X3511000Y13589000D02*
X3511000Y11966330D01*
X2950399Y11405729D02*
X2950399Y10946271D01*
X4310084Y10511610D02*
X4663637Y10511610D01*
X2950399Y10946271D02*
X3385060Y10511610D01*
X3511000Y11966330D02*
X2950399Y11405729D01*
X3385060Y10511610D02*
X4310084Y10511610D01*
G04 #@! TO.N,/USB+*
X4161000Y11872963D02*
X4242603Y11791360D01*
X4161000Y13589000D02*
X4161000Y11872963D01*
D35*
G04 #@! TO.N,/D30*
X14701499Y1854191D02*
X14777719Y1930411D01*
X21056589Y1930411D02*
X23633724Y-646724D01*
X14777719Y1930411D02*
X21056589Y1930411D01*
X14229101Y1930391D02*
X14305301Y1854191D01*
X23633724Y-646724D02*
X23633724Y-2814752D01*
X6508644Y1930391D02*
X14229101Y1930391D01*
X23633724Y-2814752D02*
X23633724Y-3168305D01*
X6239949Y1661696D02*
X6508644Y1930391D01*
X3563723Y1661696D02*
X6239949Y1661696D01*
X3313724Y1911695D02*
X3563723Y1661696D01*
X14305301Y1854191D02*
X14701499Y1854191D01*
G04 #@! TO.N,/D31*
X22998724Y-773724D02*
X22998724Y-3295305D01*
X24522724Y-3803305D02*
X24653725Y-3672304D01*
X6103857Y1022695D02*
X6655942Y1574780D01*
X13751603Y1498580D02*
X14848797Y1498580D01*
X14925017Y1574800D02*
X20650200Y1574800D01*
X13675403Y1574780D02*
X13751603Y1498580D01*
X6655942Y1574780D02*
X13675403Y1574780D01*
X24653725Y-3672304D02*
X24903724Y-3422305D01*
X20650200Y1574800D02*
X22998724Y-773724D01*
X22998724Y-3295305D02*
X23506724Y-3803305D01*
X14848797Y1498580D02*
X14925017Y1574800D01*
X3821724Y1022695D02*
X6103857Y1022695D01*
X23506724Y-3803305D02*
X24522724Y-3803305D01*
D34*
G04 #@! TO.N,VUSB*
X2861000Y13589000D02*
X2286000Y14164000D01*
X2286000Y14164000D02*
X2286000Y15113000D01*
D35*
G04 #@! TO.N,/SDA2*
X-11176000Y12141200D02*
X-11148800Y12141200D01*
D34*
G04 #@! TO.N,/BAT_BACKUP*
X31419800Y-523240D02*
X25466040Y-523240D01*
X23723600Y1219200D02*
X23723600Y7518400D01*
X25466040Y-523240D02*
X23723600Y1219200D01*
X27772360Y-523240D02*
X31419800Y-523240D01*
X27533600Y-762000D02*
X27772360Y-523240D01*
X27533600Y-8653200D02*
X27533600Y-762000D01*
X26466800Y-9720000D02*
X27533600Y-8653200D01*
X26517600Y-17018000D02*
X26466800Y-16967200D01*
X26466800Y-16967200D02*
X26466800Y-9720000D01*
D35*
X23723600Y7518400D02*
X23723600Y8871600D01*
X23723600Y8871600D02*
X23742000Y8890000D01*
X23742000Y8890000D02*
X23749000Y8890000D01*
X23998999Y9139999D02*
X24004028Y9139999D01*
X23749000Y8890000D02*
X23998999Y9139999D01*
G04 #@! TO.N,Net-(C14-Pad1)*
X-1639276Y14103695D02*
X-1639276Y12452695D01*
D37*
X-1264971Y12827000D02*
X-1639276Y12452695D01*
X1391000Y12827000D02*
X-1264971Y12827000D01*
D34*
X961000Y13257000D02*
X1391000Y12827000D01*
X961000Y14509000D02*
X961000Y13257000D01*
D35*
G04 #@! TO.N,VBAT*
X-39751000Y-5207000D02*
X-39492999Y-4948999D01*
X-39492999Y-4948999D02*
X-39243000Y-4699000D01*
X-39751000Y-6858000D02*
X-39751000Y-5207000D01*
D37*
G04 #@! TO.N,VBUS*
X-37918694Y7120000D02*
X-37266993Y6468299D01*
X-35023553Y7040000D02*
X-34670000Y7040000D01*
X-36126106Y7040000D02*
X-35023553Y7040000D01*
X-37266993Y6468299D02*
X-36697807Y6468299D01*
X-36697807Y6468299D02*
X-36126106Y7040000D01*
X-38530000Y7120000D02*
X-37918694Y7120000D01*
D35*
G04 #@! TO.N,/GPS_FIX*
X31419800Y977900D02*
X30920690Y977900D01*
X31918910Y977900D02*
X35052000Y4110990D01*
X31419800Y977900D02*
X31918910Y977900D01*
X35052000Y6800852D02*
X30020442Y11832410D01*
X35052000Y4110990D02*
X35052000Y6800852D01*
X28813277Y11832410D02*
X28459724Y11832410D01*
X30020442Y11832410D02*
X28813277Y11832410D01*
D34*
G04 #@! TO.N,Net-(J11-Pad1)*
X47421800Y8475980D02*
X46489620Y8475980D01*
X46489620Y8475980D02*
X46126400Y8839200D01*
X46126400Y8839200D02*
X46075600Y8839200D01*
X47421800Y8475980D02*
X46474380Y8475980D01*
X46474380Y8475980D02*
X46075600Y8077200D01*
D35*
G04 #@! TO.N,Net-(R4-Pad1)*
X-31545100Y-10539730D02*
X-32385000Y-11379630D01*
X-30795100Y-10539730D02*
X-31545100Y-10539730D01*
X-32385000Y-11379630D02*
X-32385000Y-13335000D01*
X-32385000Y-13335000D02*
X-30226000Y-15494000D01*
G04 #@! TO.N,Net-(R5-Pad1)*
X-30795100Y-11555730D02*
X-29641900Y-11555730D01*
X-29641900Y-11555730D02*
X-26670000Y-14527630D01*
X-26670000Y-15140447D02*
X-26670000Y-15494000D01*
X-26670000Y-14527630D02*
X-26670000Y-15140447D01*
D38*
G04 #@! TO.N,/PG*
X-28701887Y9630599D02*
X-28751327Y9630599D01*
X-28751327Y9630599D02*
X-31914836Y6467090D01*
X-31914836Y6467090D02*
X-36034462Y6467090D01*
X-37483533Y5846337D02*
X-37733532Y6096336D01*
X-29722000Y14909800D02*
X-27918599Y13106399D01*
X-36655215Y5846337D02*
X-37483533Y5846337D01*
X-36034462Y6467090D02*
X-36655215Y5846337D01*
X-27918599Y10413887D02*
X-28701887Y9630599D01*
X-27918599Y13106399D02*
X-27918599Y10413887D01*
G04 #@! TO.N,/CHG*
X-35379998Y8030000D02*
X-32741998Y10668000D01*
X-32741998Y10668000D02*
X-28801553Y10668000D01*
X-28801553Y10668000D02*
X-28448000Y10668000D01*
D35*
G04 #@! TO.N,/GPS_TX*
X30217110Y6977380D02*
X31419800Y6977380D01*
X28093039Y6977380D02*
X30217110Y6977380D01*
X25665724Y9070802D02*
X25999617Y9070802D01*
X25999617Y9070802D02*
X28093039Y6977380D01*
G04 #@! TO.N,/GPS_RX*
X26180430Y9651989D02*
X24899723Y9651989D01*
X24899723Y9651989D02*
X24649724Y9401990D01*
X27356439Y8475980D02*
X26180430Y9651989D01*
X31419800Y8475980D02*
X27356439Y8475980D01*
D34*
G04 #@! TO.N,/PERIPH_3V3*
X-30795100Y-7491731D02*
X-29592269Y-7491731D01*
X-29592269Y-7491731D02*
X-29464000Y-7620000D01*
D35*
X-20177760Y-15606175D02*
X-20031945Y-15751990D01*
X-20177760Y-14594840D02*
X-20177760Y-15606175D01*
D37*
X-10223500Y-18288000D02*
X-10424125Y-18288000D01*
X-10424125Y-18288000D02*
X-11057822Y-18921697D01*
D36*
X16636000Y-12096000D02*
X15271000Y-12096000D01*
X15271000Y-12096000D02*
X15240000Y-12065000D01*
X-14605000Y-2413000D02*
X-15621000Y-2413000D01*
D34*
X-32280452Y-7519083D02*
X-32280452Y-7577010D01*
X-32258000Y-7496631D02*
X-32280452Y-7519083D01*
X-32253100Y-7491731D02*
X-32280452Y-7519083D01*
X-30795100Y-7491731D02*
X-32253100Y-7491731D01*
D35*
X-30795100Y-2411730D02*
X-29451096Y-2411730D01*
X-29451096Y-2411730D02*
X-29429046Y-2389680D01*
D34*
X-43618330Y-511860D02*
X-43561000Y-454530D01*
X-43561000Y408447D02*
X-43561000Y762000D01*
X-43561000Y-454530D02*
X-43561000Y408447D01*
X16636000Y-12096000D02*
X18141200Y-12096000D01*
X18141200Y-12096000D02*
X18161000Y-12115800D01*
X17049000Y-12096000D02*
X16636000Y-12096000D01*
X18008600Y-13055600D02*
X17049000Y-12096000D01*
G04 #@! TO.N,/GPS_3V3*
X28956000Y1397000D02*
X29210000Y1397000D01*
X29210000Y1397000D02*
X29972000Y635000D01*
D36*
X47498000Y-9525000D02*
X47625000Y-9398000D01*
X47906447Y-9398000D02*
X48260000Y-9398000D01*
X47625000Y-9398000D02*
X47906447Y-9398000D01*
D35*
G04 #@! TO.N,Net-(C29-Pad1)*
X-22250400Y7874000D02*
X-15317778Y7874000D01*
X-15317778Y7874000D02*
X-15255036Y7936742D01*
D34*
G04 #@! TO.N,/MODULE_3V3*
X-16357600Y6146800D02*
X-16357600Y5232400D01*
X-16357600Y5232400D02*
X-16459200Y5130800D01*
D35*
G04 #@! TO.N,/D12_SD_CS*
X-14126545Y-14630979D02*
X-3962979Y-14630979D01*
X-22377400Y-13794740D02*
X-22377400Y-14747240D01*
X-20868640Y-16256000D02*
X-17001922Y-16256000D01*
X-508000Y-11176000D02*
X1663202Y-11176000D01*
X-17001922Y-16256000D02*
X-16032723Y-15286801D01*
X3175000Y-9664202D02*
X3175000Y-6148732D01*
X-22377400Y-14747240D02*
X-20868640Y-16256000D01*
X1663202Y-11176000D02*
X3175000Y-9664202D01*
X3175000Y-6148732D02*
X3175000Y-5795179D01*
X-16032723Y-15286801D02*
X-14782367Y-15286801D01*
X-14782367Y-15286801D02*
X-14126545Y-14630979D01*
X-3962979Y-14630979D02*
X-508000Y-11176000D01*
G04 #@! TO.N,/D2_WIFI_EN*
X-16505999Y-16505999D02*
X-16256000Y-16256000D01*
X-16759999Y-16759999D02*
X-16505999Y-16505999D01*
X-27533611Y-11692881D02*
X-22466493Y-16759999D01*
X-22466493Y-16759999D02*
X-16759999Y-16759999D01*
X-27533611Y-8584019D02*
X-27533611Y-11692881D01*
X-30795100Y-6475730D02*
X-29641900Y-6475730D01*
X-29641900Y-6475730D02*
X-27533611Y-8584019D01*
D38*
X-16256000Y-16256000D02*
X-15667812Y-15667812D01*
X-15667812Y-15667812D02*
X-3560619Y-15667812D01*
X-3560619Y-15667812D02*
X-1026401Y-13133594D01*
X-1026401Y-13133594D02*
X-776402Y-12883595D01*
D35*
G04 #@! TO.N,/D5_RADIO_CS*
X636000Y-10096000D02*
X286000Y-10096000D01*
X286000Y-10096000D02*
X-2902503Y-6907497D01*
X-2902503Y-4438963D02*
X-2902503Y-4085410D01*
X-2902503Y-6907497D02*
X-2902503Y-4438963D01*
G04 #@! TO.N,/D26_FLASH_CS*
X-4668138Y-14177201D02*
X-1679680Y-11188743D01*
X-1679680Y-11188743D02*
X-1429681Y-10938744D01*
X-15024288Y-14427200D02*
X-14774289Y-14177201D01*
X-14774289Y-14177201D02*
X-4668138Y-14177201D01*
G04 #@! TO.N,/D25_PERIPH_EN*
X-4991712Y4448990D02*
X-7524437Y4448990D01*
X-3241878Y4445000D02*
X-3822079Y3864799D01*
X-1270000Y4445000D02*
X-3241878Y4445000D01*
X-3822079Y3864799D02*
X-4407521Y3864799D01*
X-4407521Y3864799D02*
X-4991712Y4448990D01*
X-7524437Y4448990D02*
X-7877990Y4448990D01*
G04 #@! TO.N,/A1_WIFI_RST*
X-23114000Y-18796000D02*
X-25400000Y-16510000D01*
X-25400000Y-16510000D02*
X-35560000Y-16510000D01*
X-36580001Y-17530001D02*
X-36830000Y-17780000D01*
X-15240000Y-18796000D02*
X-23114000Y-18796000D01*
X-36514550Y-15242130D02*
X-36514550Y-17464550D01*
X-36514550Y-17464550D02*
X-36580001Y-17530001D01*
X-35560000Y-16510000D02*
X-36580001Y-17530001D01*
G04 #@! TO.N,/D7_WIFI_CS*
X-36047192Y1041389D02*
X-36566689Y1041389D01*
X-36966738Y641340D02*
X-37119130Y641340D01*
X-36566689Y1041389D02*
X-36966738Y641340D01*
X-37522330Y238140D02*
X-37522330Y-511860D01*
X-33923831Y1047752D02*
X-36040829Y1047752D01*
X-14020800Y1041389D02*
X-33917468Y1041389D01*
X-12827000Y-177800D02*
X-14020800Y1016000D01*
X-14020800Y1016000D02*
X-14020800Y1041389D01*
X-4922508Y-2362200D02*
X-7106908Y-177800D01*
X-2575056Y-1152656D02*
X-3784600Y-2362200D01*
X-1491857Y-1152656D02*
X-2575056Y-1152656D01*
X-1241858Y-902657D02*
X-1491857Y-1152656D01*
X-37119130Y641340D02*
X-37522330Y238140D01*
X-36040829Y1047752D02*
X-36047192Y1041389D01*
X-3784600Y-2362200D02*
X-4922508Y-2362200D01*
X-33917468Y1041389D02*
X-33923831Y1047752D01*
X-7106908Y-177800D02*
X-12827000Y-177800D01*
G04 #@! TO.N,/A2_WIFI_IRQ*
X-12011447Y1486100D02*
X-12011447Y1359384D01*
X-12011447Y1359384D02*
X-11761448Y1109385D01*
X-12581110Y2055763D02*
X-12011447Y1486100D01*
X-38752707Y2055763D02*
X-12581110Y2055763D01*
X-40570330Y238140D02*
X-38752707Y2055763D01*
X-40570330Y-511860D02*
X-40570330Y238140D01*
G04 #@! TO.N,/D8_WIFI_WAKE*
X-42602334Y238140D02*
X-40429100Y2411374D01*
X-4470400Y1907047D02*
X-4470400Y2260600D01*
X-10142486Y203200D02*
X-6985000Y203200D01*
X-5297739Y-420768D02*
X-4470400Y406571D01*
X-6985000Y203200D02*
X-6361032Y-420768D01*
X-40429100Y2411374D02*
X-12350660Y2411374D01*
X-12350660Y2411374D02*
X-10142486Y203200D01*
X-42602334Y-511860D02*
X-42602334Y238140D01*
X-6361032Y-420768D02*
X-5297739Y-420768D01*
X-4470400Y406571D02*
X-4470400Y1907047D01*
G04 #@! TO.N,/A4_GPS_EN*
X9722377Y3927549D02*
X10119293Y3530633D01*
X729973Y3927549D02*
X9722377Y3927549D01*
X10119293Y3530633D02*
X14147513Y3530633D01*
X419721Y4237801D02*
X729973Y3927549D01*
X14295912Y3679032D02*
X14649465Y3679032D01*
X-64121Y4237801D02*
X419721Y4237801D01*
X14147513Y3530633D02*
X14295912Y3679032D01*
X-7280349Y3927549D02*
X-6760388Y3407588D01*
X-7485893Y3927549D02*
X-7280349Y3927549D01*
X-6760388Y3407588D02*
X-3420781Y3407588D01*
X-3420781Y3407588D02*
X-2900820Y3927549D01*
X-2900820Y3927549D02*
X-374373Y3927549D01*
X-374373Y3927549D02*
X-64121Y4237801D01*
D37*
G04 #@! TO.N,/GPS_PWR_FILT*
X31419800Y-5021580D02*
X31369000Y-4970780D01*
X31369000Y-4970780D02*
X31369000Y-4826000D01*
D36*
G04 #@! TO.N,Net-(J15-Pad1)*
X16636000Y-4096000D02*
X15272000Y-4096000D01*
X15272000Y-4096000D02*
X15240000Y-4064000D01*
X16668000Y-4064000D02*
X16636000Y-4096000D01*
X18034000Y-4064000D02*
X16668000Y-4064000D01*
X16636000Y-4096000D02*
X16636000Y-3430000D01*
X16636000Y-3430000D02*
X16637000Y-3429000D01*
X16637000Y-4097000D02*
X16636000Y-4096000D01*
X16637000Y-4826000D02*
X16637000Y-4097000D01*
D34*
X15621000Y-2413000D02*
X16637000Y-3429000D01*
X15621000Y-1905000D02*
X15621000Y-2413000D01*
D35*
G04 #@! TO.N,/SDA1*
X11254143Y-25400D02*
X10900590Y-25400D01*
X21974001Y-1019001D02*
X20980400Y-25400D01*
X20980400Y-25400D02*
X11254143Y-25400D01*
X10591800Y9017000D02*
X9626600Y9982200D01*
X9626600Y9982200D02*
X-3479800Y9982200D01*
X-3479800Y9982200D02*
X-7518400Y14020800D01*
X-7518400Y14020800D02*
X-7518400Y14554200D01*
D38*
X-29433000Y-3144000D02*
X-27305000Y-1016000D01*
X-318250Y-2925001D02*
X2414954Y-2925001D01*
X-847660Y-3454411D02*
X-318250Y-2925001D01*
X-4943878Y-3454411D02*
X-847660Y-3454411D01*
X2414954Y-2925001D02*
X2664953Y-3175000D01*
X-7382289Y-1016000D02*
X-4943878Y-3454411D01*
X-27305000Y-1016000D02*
X-7382289Y-1016000D01*
X-31115000Y-3144000D02*
X-29433000Y-3144000D01*
D35*
G04 #@! TO.N,/SDA2*
X-10515602Y13360398D02*
X-10591800Y13284200D01*
X-10845800Y11811000D02*
X-11176000Y12141200D01*
X-10587810Y3671549D02*
X-10845800Y3929539D01*
X-10845800Y3929539D02*
X-10845800Y11811000D01*
X-11176000Y12256400D02*
X-10591800Y12840600D01*
X-11176000Y12141200D02*
X-11176000Y12256400D01*
G04 #@! TO.N,/SCL2*
X-11053143Y2213334D02*
X-9601200Y3665277D01*
X-9601200Y3665277D02*
X-9601200Y10619247D01*
X-11053143Y1859781D02*
X-11053143Y2213334D01*
X-9601200Y10619247D02*
X-9626600Y10644647D01*
X-9626600Y10644647D02*
X-9626600Y10998200D01*
X-9626600Y12307200D02*
X-9067800Y12866000D01*
X-9626600Y10998200D02*
X-9626600Y12307200D01*
G04 #@! TO.N,/SDA1*
X21974001Y-7343601D02*
X21974001Y-1019001D01*
X23266400Y-8636000D02*
X21974001Y-7343601D01*
X-10515602Y15595602D02*
X-10515602Y13970000D01*
X-11404600Y16484600D02*
X-10515602Y15595602D01*
X-22860000Y14478000D02*
X-20853400Y16484600D01*
X-20853400Y16484600D02*
X-11404600Y16484600D01*
X-10515602Y14464402D02*
X-10591800Y14540600D01*
X-10515602Y13970000D02*
X-10515602Y14464402D01*
D38*
G04 #@! TO.N,/SCL1*
X10494084Y8428914D02*
X10515612Y8407386D01*
X10515612Y8407386D02*
X10515612Y8369052D01*
D35*
X21082000Y508000D02*
X22352000Y-762000D01*
D39*
X21082000Y508000D02*
X20519210Y1070790D01*
D35*
X8763000Y-2133600D02*
X8712200Y-2082800D01*
X8712200Y-2082800D02*
X8712200Y717217D01*
X8712200Y717217D02*
X8712200Y1070770D01*
D39*
X20519210Y1070790D02*
X9065773Y1070790D01*
X9065753Y1070770D02*
X8712200Y1070770D01*
X9065773Y1070790D02*
X9065753Y1070770D01*
D35*
X22352000Y-6604000D02*
X22352000Y-762000D01*
X23977600Y-8229600D02*
X22352000Y-6604000D01*
D38*
X-4775538Y-3048000D02*
X-1143000Y-3048000D01*
X-31819674Y-609589D02*
X-7213949Y-609589D01*
X3150274Y-2505822D02*
X3226474Y-2582022D01*
X-32966801Y-1756716D02*
X-31819674Y-609589D01*
X3226474Y-2582022D02*
X3476473Y-2832021D01*
X-1143000Y-3048000D02*
X-600822Y-2505822D01*
X-7213949Y-609589D02*
X-4775538Y-3048000D01*
X-600822Y-2505822D02*
X3150274Y-2505822D01*
X-32966801Y-2110269D02*
X-32966801Y-1756716D01*
D35*
X-21564600Y16738600D02*
X-21314601Y16988599D01*
X10515612Y8369052D02*
X9308864Y9575800D01*
X-8610600Y15115047D02*
X-8610600Y15468600D01*
X9308864Y9575800D02*
X-3579353Y9575800D01*
X-3579353Y9575800D02*
X-8610600Y14607047D01*
X-8610600Y14607047D02*
X-8610600Y15115047D01*
X-10130599Y16988599D02*
X-8860599Y15718599D01*
X-21314601Y16988599D02*
X-10130599Y16988599D01*
X-8860599Y15718599D02*
X-8610600Y15468600D01*
X-9067800Y15011400D02*
X-8610600Y15468600D01*
X-9067800Y14566000D02*
X-9067800Y15011400D01*
G04 #@! TO.N,Net-(C40-Pad1)*
X-37846000Y-2794000D02*
X-37846000Y-6350000D01*
X-37846000Y-6350000D02*
X-38989000Y-7493000D01*
D39*
G04 #@! TO.N,Net-(J16-Pad4)*
X4811000Y13589000D02*
X4811000Y12761600D01*
X3429000Y11176000D02*
X4521200Y11176000D01*
X4521200Y11176000D02*
X4811000Y11465800D01*
X4811000Y11465800D02*
X4811000Y11607800D01*
X4811000Y11607800D02*
X4811000Y13589000D01*
D35*
X9132200Y13450200D02*
X9095000Y13487400D01*
X9132200Y12123800D02*
X9132200Y13450200D01*
X8286000Y11277600D02*
X9132200Y12123800D01*
X4811000Y11607800D02*
X5141200Y11277600D01*
X5141200Y11277600D02*
X8286000Y11277600D01*
X9095000Y14999600D02*
X9106800Y15011400D01*
X9095000Y13487400D02*
X9095000Y14999600D01*
G04 #@! TO.N,/A3_STATUS*
X-5435600Y2794000D02*
X-5082047Y2794000D01*
X-5082047Y2794000D02*
X16052800Y2794000D01*
X20377601Y7118801D02*
X20377601Y9518199D01*
X16052800Y2794000D02*
X20377601Y7118801D01*
X20377601Y9518199D02*
X20377601Y10319201D01*
X22682200Y12623800D02*
X28448000Y12623800D01*
X28448000Y12623800D02*
X30861000Y15036800D01*
X30861000Y15036800D02*
X30861000Y15240000D01*
X20377601Y10319201D02*
X20599400Y10541000D01*
X20599400Y10541000D02*
X22682200Y12623800D01*
G04 #@! TO.N,/D9_I2S_DATA*
X-9220222Y3122643D02*
X-9220222Y10135773D01*
X-9189827Y3092248D02*
X-9220222Y3122643D01*
X-9195001Y10160994D02*
X-8945002Y10410993D01*
X-9220222Y10135773D02*
X-9195001Y10160994D01*
G04 #@! TO.N,/D1_I2S_BCLK*
X-8509000Y3835400D02*
X-8509000Y9543991D01*
X-8509000Y9543991D02*
X-7357168Y10695823D01*
X-5740400Y1066800D02*
X-8509000Y3835400D01*
X-7357168Y10695823D02*
X-7357168Y11049376D01*
G04 #@! TO.N,/D0_I2S_WS*
X-8864611Y3479811D02*
X-8864611Y9765895D01*
X-8008988Y10668041D02*
X-8008988Y11021594D01*
X-5539661Y83234D02*
X-6244402Y787975D01*
X-8008988Y10621518D02*
X-8008988Y10668041D01*
X-6244402Y787975D02*
X-6244402Y859602D01*
X-8864611Y9765895D02*
X-8008988Y10621518D01*
X-6244402Y859602D02*
X-8864611Y3479811D01*
G04 #@! TO.N,/LORA_D0*
X16636000Y-14096000D02*
X7256419Y-14096000D01*
X4583724Y-11423305D02*
X4583724Y-7617600D01*
X4583724Y-7617600D02*
X4669602Y-7531722D01*
X4669602Y-7531722D02*
X4669602Y-7047878D01*
X3191087Y-2031989D02*
X-2676675Y-2031989D01*
X4669602Y-7047878D02*
X4583724Y-6962000D01*
X-2786277Y-2141591D02*
X-3036276Y-2391590D01*
X7256419Y-14096000D02*
X4583724Y-11423305D01*
X-2676675Y-2031989D02*
X-2786277Y-2141591D01*
X3314078Y-1908998D02*
X3191087Y-2031989D01*
X3797922Y-1908998D02*
X3314078Y-1908998D01*
X4583724Y-2694800D02*
X3797922Y-1908998D01*
X4583724Y-6962000D02*
X4583724Y-2694800D01*
G04 #@! TO.N,/LORA_D2*
X15432800Y-18096000D02*
X11992600Y-14655800D01*
X16636000Y-18096000D02*
X15432800Y-18096000D01*
X11992600Y-14655800D02*
X7213600Y-14655800D01*
X7213600Y-14655800D02*
X4140200Y-11582400D01*
X4140200Y-7315200D02*
X4165600Y-7289800D01*
X4140200Y-11582400D02*
X4140200Y-7315200D01*
G04 #@! TO.N,/LORA_D1*
X16636000Y-16096000D02*
X16986000Y-16096000D01*
X16986000Y-16096000D02*
X26670000Y-6412000D01*
X21382810Y2289990D02*
X6502973Y2289990D01*
X6502973Y2289990D02*
X6149420Y2289990D01*
X26670000Y-2997200D02*
X21382810Y2289990D01*
X26670000Y-6412000D02*
X26670000Y-2997200D01*
G04 #@! TO.N,/A5_BATT_V*
X-36830000Y1524000D02*
X-12772376Y1524000D01*
G04 #@! TO.N,/A5_MODULE_EN*
X-15278099Y7200901D02*
X-18656301Y7200901D01*
X-14224000Y8255000D02*
X-15278099Y7200901D01*
X-18656301Y7200901D02*
X-18897600Y6959602D01*
X-18897600Y6959602D02*
X-18897600Y5334000D01*
G04 #@! TD*
G04 #@! TO.N,VBUS*
G36*
X-24161768Y8249432D02*
X-24115357Y8211342D01*
X-24062406Y8183040D01*
X-24004951Y8165611D01*
X-23945200Y8159726D01*
X-22834600Y8159726D01*
X-22834600Y6959600D01*
X-24892000Y6959600D01*
X-24911821Y6957648D01*
X-24930881Y6951866D01*
X-24948446Y6942477D01*
X-24963842Y6929842D01*
X-24976477Y6914446D01*
X-24985866Y6896881D01*
X-24991648Y6877821D01*
X-24993600Y6858000D01*
X-24993600Y6451600D01*
X-29488343Y6451600D01*
X-29469445Y8278429D01*
X-24305170Y8279940D01*
X-24282400Y8277697D01*
X-24259494Y8279953D01*
X-24186835Y8279974D01*
X-24161768Y8249432D01*
X-24161768Y8249432D01*
G37*
X-24161768Y8249432D02*
X-24115357Y8211342D01*
X-24062406Y8183040D01*
X-24004951Y8165611D01*
X-23945200Y8159726D01*
X-22834600Y8159726D01*
X-22834600Y6959600D01*
X-24892000Y6959600D01*
X-24911821Y6957648D01*
X-24930881Y6951866D01*
X-24948446Y6942477D01*
X-24963842Y6929842D01*
X-24976477Y6914446D01*
X-24985866Y6896881D01*
X-24991648Y6877821D01*
X-24993600Y6858000D01*
X-24993600Y6451600D01*
X-29488343Y6451600D01*
X-29469445Y8278429D01*
X-24305170Y8279940D01*
X-24282400Y8277697D01*
X-24259494Y8279953D01*
X-24186835Y8279974D01*
X-24161768Y8249432D01*
G04 #@! TO.N,3V3*
G36*
X-22707600Y2817774D02*
X-30632400Y2817774D01*
X-30632400Y4216400D01*
X-27178000Y4216400D01*
X-27158179Y4218352D01*
X-27139119Y4224134D01*
X-27121554Y4233523D01*
X-27106158Y4246158D01*
X-27093523Y4261554D01*
X-27084134Y4279119D01*
X-27078352Y4298179D01*
X-27076400Y4318000D01*
X-27076400Y5994400D01*
X-22707600Y5994400D01*
X-22707600Y2817774D01*
X-22707600Y2817774D01*
G37*
X-22707600Y2817774D02*
X-30632400Y2817774D01*
X-30632400Y4216400D01*
X-27178000Y4216400D01*
X-27158179Y4218352D01*
X-27139119Y4224134D01*
X-27121554Y4233523D01*
X-27106158Y4246158D01*
X-27093523Y4261554D01*
X-27084134Y4279119D01*
X-27078352Y4298179D01*
X-27076400Y4318000D01*
X-27076400Y5994400D01*
X-22707600Y5994400D01*
X-22707600Y2817774D01*
D38*
G04 #@! TO.N,/GPS_PWR_FILT*
G36*
X39497000Y-8255000D02*
X29845000Y-8255000D01*
X29845000Y-4445000D01*
X39497000Y-4445000D01*
X39497000Y-8255000D01*
X39497000Y-8255000D01*
G37*
X39497000Y-8255000D02*
X29845000Y-8255000D01*
X29845000Y-4445000D01*
X39497000Y-4445000D01*
X39497000Y-8255000D01*
G04 #@! TO.N,GND*
G36*
X33401000Y-3986095D02*
X32755959Y-3977495D01*
X32755959Y-3022600D01*
X32730332Y-2893762D01*
X32657351Y-2784539D01*
X32548128Y-2711558D01*
X32419290Y-2685931D01*
X30420310Y-2685931D01*
X30291472Y-2711558D01*
X30182249Y-2784539D01*
X30109268Y-2893762D01*
X30083641Y-3022600D01*
X30083641Y-3941864D01*
X29845000Y-3938682D01*
X29845000Y-1651000D01*
X33401000Y-1651000D01*
X33401000Y-3986095D01*
X33401000Y-3986095D01*
G37*
X33401000Y-3986095D02*
X32755959Y-3977495D01*
X32755959Y-3022600D01*
X32730332Y-2893762D01*
X32657351Y-2784539D01*
X32548128Y-2711558D01*
X32419290Y-2685931D01*
X30420310Y-2685931D01*
X30291472Y-2711558D01*
X30182249Y-2784539D01*
X30109268Y-2893762D01*
X30083641Y-3022600D01*
X30083641Y-3941864D01*
X29845000Y-3938682D01*
X29845000Y-1651000D01*
X33401000Y-1651000D01*
X33401000Y-3986095D01*
G04 #@! TO.N,/GPS_3V3*
G36*
X44831000Y-8255000D02*
X40005000Y-8255000D01*
X40005000Y-4445000D01*
X44831000Y-4445000D01*
X44831000Y-8255000D01*
X44831000Y-8255000D01*
G37*
X44831000Y-8255000D02*
X40005000Y-8255000D01*
X40005000Y-4445000D01*
X44831000Y-4445000D01*
X44831000Y-8255000D01*
G04 #@! TD*
M02*
