G04 #@! TF.FileFunction,Legend,Bot*
%FSLAX46Y46*%
G04 Gerber Fmt 4.6, Leading zero omitted, Abs format (unit mm)*
G04 Created by KiCad (PCBNEW 4.0.7-e2-6376~58~ubuntu16.04.1) date Mon Jun 18 12:46:04 2018*
%MOMM*%
%LPD*%
G01*
G04 APERTURE LIST*
%ADD10C,0.100000*%
%ADD11C,0.381000*%
%ADD12C,0.127000*%
%ADD13C,0.300000*%
%ADD14C,0.150000*%
%ADD15C,0.152400*%
%ADD16C,0.304800*%
G04 APERTURE END LIST*
D10*
D11*
X18176240Y-3175000D02*
X26177240Y-3175000D01*
X26177240Y-3175000D02*
X26177240Y12827000D01*
X26177240Y12827000D02*
X12176760Y12827000D01*
X12176760Y12827000D02*
X10175240Y12827000D01*
X10175240Y12827000D02*
X10175240Y-3175000D01*
X10175240Y-3175000D02*
X18176240Y-3175000D01*
D12*
X-48747680Y-1691640D02*
X-33647380Y-1691640D01*
X-33647380Y-1691640D02*
X-33647380Y-15689580D01*
X-33647380Y-15689580D02*
X-48049180Y-15689580D01*
X-47147480Y-13990320D02*
X-47147480Y-4290060D01*
X-49507140Y-14091920D02*
X-49507140Y-4892040D01*
X-50408840Y-14091920D02*
X-50408840Y-4892040D01*
X-54208680Y-14091920D02*
X-54208680Y-4892040D01*
X-47147480Y-13992860D02*
G75*
G02X-48049180Y-14691360I-800100J101600D01*
G01*
X-48747680Y-2689860D02*
G75*
G02X-47147480Y-4290060I0J-1600200D01*
G01*
X-48308260Y-15290800D02*
G75*
G02X-49507140Y-14091920I0J1198880D01*
G01*
X-49507140Y-4889500D02*
G75*
G02X-48407320Y-3591560I1198880J99060D01*
G01*
X-49207420Y-15293340D02*
G75*
G02X-50408840Y-14091920I0J1201420D01*
G01*
X-50406300Y-4892040D02*
G75*
G02X-49309020Y-3591560I1198880J101600D01*
G01*
X-53007260Y-15293340D02*
G75*
G02X-54208680Y-14091920I0J1201420D01*
G01*
X-54206140Y-4892040D02*
G75*
G02X-53108860Y-3591560I1198880J101600D01*
G01*
D10*
X-17070060Y3991800D02*
X-17070060Y-17728200D01*
X-17070060Y-17728200D02*
X-31800060Y-17728200D01*
X-31800060Y-17728200D02*
X-31800060Y3991800D01*
X-31800060Y3991800D02*
X-17070060Y3991800D01*
X23856800Y-10050400D02*
X23726800Y-10050400D01*
X23856800Y-14130400D02*
X23726800Y-14130400D01*
X23856800Y-12820400D02*
X23856800Y-14130400D01*
X23076800Y-13380400D02*
X23076800Y-12980400D01*
X26966800Y-18080400D02*
G75*
G02X26176800Y-18870400I-790000J0D01*
G01*
X25016968Y-6109420D02*
G75*
G02X25806800Y-5310400I779832J19020D01*
G01*
X26156801Y-5310462D02*
G75*
G02X26966800Y-6110400I9999J-799938D01*
G01*
X24438234Y-17079293D02*
G75*
G02X25016800Y-17210400I258566J-201107D01*
G01*
X24449473Y-17072834D02*
G75*
G02X23196800Y-18170400I-5472673J4982434D01*
G01*
X24448260Y-7120703D02*
G75*
G03X25016800Y-6970400I248540J210303D01*
G01*
X24450774Y-7116789D02*
G75*
G03X23216800Y-6030400I-5473974J-4973611D01*
G01*
X14213411Y-7814522D02*
G75*
G02X24906800Y-9680400I4763389J-4275878D01*
G01*
X13087512Y-14583168D02*
G75*
G02X12736800Y-13490400I5889288J2492768D01*
G01*
X12739004Y-10682528D02*
G75*
G02X13086800Y-9600400I6237796J-1407872D01*
G01*
X24908331Y-14497252D02*
G75*
G02X14216800Y-16370400I-5931531J2406852D01*
G01*
X21816800Y-5265400D02*
X21922555Y-5312990D01*
X12193129Y-9141307D02*
X12235431Y-9040840D01*
X14482717Y-6217192D02*
X14572608Y-6148451D01*
X21922555Y-5312990D02*
X22023022Y-5355291D01*
X14302934Y-6359960D02*
X14392825Y-6285932D01*
X20177603Y-4794792D02*
X20288646Y-4815943D01*
X16444465Y-19039941D02*
X16343998Y-19002927D01*
X17882728Y-19404794D02*
X17771686Y-19383643D01*
X26967051Y-15851439D02*
X26967051Y-18072286D01*
X19812750Y-19436521D02*
X19701708Y-19447096D01*
X15947418Y-5344716D02*
X16047885Y-5297126D01*
X26470004Y-13672893D02*
X26470004Y-13667605D01*
X19839189Y-4747202D02*
X19955519Y-4757778D01*
X19617104Y-4726051D02*
X19733434Y-4731339D01*
X17549601Y-9141307D02*
X17422695Y-9141307D01*
X20219905Y-19235587D02*
X21420220Y-18865446D01*
X12452228Y-9030265D02*
X12283020Y-8940373D01*
X18675888Y-14984251D02*
X17549601Y-14984251D01*
X16026734Y-18870733D02*
X15920980Y-18823144D01*
X20151165Y-19388931D02*
X20034835Y-19410082D01*
X21896116Y-18881309D02*
X21785074Y-18928898D01*
X20066561Y-4778929D02*
X20177603Y-4794792D01*
X21996583Y-18839007D02*
X21896116Y-18881309D01*
X12235431Y-9040840D02*
X12283020Y-8940373D01*
X16343998Y-19002927D02*
X16232956Y-18960625D01*
X21684607Y-18971200D02*
X21578852Y-19008214D01*
X14662499Y-6084998D02*
X14757679Y-6016258D01*
X13049741Y-7671318D02*
X13113194Y-7581426D01*
X21785074Y-18928898D02*
X21684607Y-18971200D01*
X25359580Y-18722677D02*
X25301415Y-18680375D01*
X14392825Y-6285932D02*
X14482717Y-6217192D01*
X14218330Y-6428701D02*
X14302934Y-6359960D01*
X12018634Y-9564326D02*
X12066223Y-9458571D01*
X15920980Y-18823144D02*
X15820513Y-18780842D01*
X17687082Y-4810655D02*
X17792837Y-4789504D01*
X22023022Y-5355291D02*
X22123489Y-5397593D01*
X21499536Y-5138494D02*
X21610579Y-5186084D01*
X16365149Y-5170221D02*
X16470904Y-5133207D01*
X18221143Y-19447096D02*
X18104813Y-19436521D01*
X18104813Y-19436521D02*
X17993770Y-19420657D01*
X21610579Y-5186084D02*
X21711046Y-5223098D01*
X13181935Y-7486247D02*
X13250675Y-7406931D01*
X16259394Y-5207235D02*
X16365149Y-5170221D01*
X18326897Y-19457671D02*
X18221143Y-19447096D01*
X13113194Y-7581426D02*
X13181935Y-7486247D01*
X18131251Y-4747202D02*
X18247581Y-4731339D01*
X12981001Y-7761209D02*
X13049741Y-7671318D01*
X17993770Y-19420657D02*
X17882728Y-19404794D01*
X19923792Y-19420657D02*
X19812750Y-19436521D01*
X12917548Y-7856388D02*
X12981001Y-7761209D01*
X17792837Y-4789504D02*
X17909167Y-4773641D01*
X20034835Y-19410082D02*
X19923792Y-19420657D01*
X16132489Y-18913035D02*
X16026734Y-18870733D01*
X19701708Y-19447096D02*
X19585378Y-19457671D01*
X12050360Y-14698713D02*
X12013346Y-14592958D01*
X14572608Y-6148451D02*
X14662499Y-6084998D01*
X20256919Y-19373068D02*
X20151165Y-19388931D01*
X12145539Y-9252350D02*
X12193129Y-9141307D01*
X13250675Y-7406931D02*
X13329991Y-7317040D01*
X12103237Y-9352816D02*
X12145539Y-9252350D01*
X17771686Y-19383643D02*
X17660643Y-19362492D01*
X22097050Y-18791417D02*
X21996583Y-18839007D01*
X16047885Y-5297126D02*
X16158927Y-5254824D01*
X15846951Y-5392305D02*
X15947418Y-5344716D01*
X18025497Y-4757778D02*
X18131251Y-4747202D01*
X19955519Y-4757778D02*
X20066561Y-4778929D01*
X16158927Y-5254824D02*
X16259394Y-5207235D01*
X18247581Y-4731339D02*
X18358624Y-4720764D01*
X16232956Y-18960625D02*
X16132489Y-18913035D01*
X20246344Y-5006301D02*
X20288646Y-4815943D01*
X24809656Y-9453283D02*
X24793793Y-9442708D01*
X21578852Y-19008214D02*
X21478385Y-19045228D01*
X20167028Y-14291558D02*
X20167028Y-14984251D01*
X17142446Y-15745684D02*
X17142446Y-14587671D01*
X19268114Y-14984251D02*
X19268114Y-14291558D01*
X14366386Y-17881927D02*
X14287070Y-17807899D01*
X14287070Y-17807899D02*
X14197179Y-17733871D01*
X20124726Y-15037128D02*
X20124726Y-14984251D01*
X14218330Y-6428701D02*
X14324085Y-6523880D01*
X18379775Y-13091243D02*
X18379775Y-11092480D01*
X17422695Y-9442708D02*
X17549601Y-9442708D01*
X22772596Y-11092480D02*
X22772596Y-11330437D01*
X14799980Y-18024696D02*
X15910404Y-18611634D01*
X25544651Y-18817856D02*
X25481198Y-18791417D01*
X17697657Y-19182709D02*
X17660643Y-19362492D01*
X19580090Y-19267313D02*
X19585378Y-19457671D01*
X13308840Y-16845532D02*
X13404019Y-16745065D01*
X12272445Y-15216911D02*
X12224855Y-15111156D01*
X24925986Y-9516736D02*
X24915411Y-9516736D01*
X13821750Y-11192947D02*
X14350523Y-9892165D01*
X13467472Y-7449233D02*
X13329991Y-7317040D01*
X14773542Y-8157789D02*
X13657830Y-9950330D01*
X25428321Y-5598527D02*
X25428321Y-10584858D01*
X17142446Y-9596052D02*
X17142446Y-8432751D01*
X25481198Y-18791417D02*
X25417745Y-18759691D01*
X18527733Y-12313946D02*
X22386823Y-12313946D01*
X24910123Y-14471341D02*
X24910123Y-9707094D01*
X24851958Y-9500873D02*
X24841383Y-9485010D01*
X25163934Y-18527031D02*
X25126920Y-18468866D01*
X12224855Y-15111156D02*
X12177266Y-15010689D01*
X14551457Y-18019408D02*
X14456278Y-17950668D01*
X14641348Y-18082861D02*
X14551457Y-18019408D01*
X25021166Y-18141026D02*
X25015878Y-18072286D01*
X19268114Y-9294651D02*
X20167028Y-9294651D01*
X24841383Y-9485010D02*
X24825519Y-9479722D01*
X14456278Y-17950668D02*
X14366386Y-17881927D01*
X22023022Y-18675087D02*
X23085856Y-17998258D01*
X13404019Y-16745065D02*
X14324085Y-17596390D01*
X22772596Y-13091243D02*
X15381631Y-13091243D01*
X25745585Y-18865446D02*
X25676844Y-18854870D01*
X24825519Y-9479722D02*
X24820232Y-9469147D01*
X19268114Y-9093718D02*
X20167028Y-9093718D01*
X12272445Y-15216911D02*
X12388775Y-15142883D01*
X23144021Y-6159027D02*
X22033597Y-5572088D01*
X24915411Y-9516736D02*
X24894260Y-9511448D01*
X23355530Y-14291558D02*
X20167028Y-14291558D01*
X21467810Y-5281263D02*
X20246344Y-5006301D01*
X26470004Y-10505542D02*
X26470004Y-5598527D01*
X25571090Y-14587671D02*
X25571090Y-18082861D01*
X21711046Y-5223098D02*
X21816800Y-5265400D01*
X17142446Y-14587671D02*
X14228905Y-14587671D01*
X23085856Y-17998258D02*
X23191610Y-18167465D01*
X17687082Y-4810655D02*
X17729384Y-4948136D01*
X23350242Y-9892165D02*
X23355530Y-9892165D01*
X24947137Y-9516736D02*
X24925986Y-9516736D01*
X16476191Y-18902460D02*
X17697657Y-19182709D01*
X25867203Y-18082861D02*
X25571090Y-18082861D01*
X12161402Y-9596052D02*
X11916800Y-10690400D01*
X12388775Y-15142883D02*
X13060317Y-16205717D01*
X23355530Y-14286270D02*
X23350242Y-14286270D01*
X15000914Y-8305846D02*
X13885203Y-10093099D01*
X18427364Y-13091243D02*
X18427364Y-11092480D01*
X25571090Y-6095574D02*
X25571090Y-9596052D01*
X14324085Y-17596390D02*
X14197179Y-17733871D01*
X11816800Y-13490400D02*
X12198417Y-14534793D01*
X26163316Y-18870733D02*
X25814325Y-18870733D01*
X18675888Y-9892165D02*
X19268114Y-9892165D01*
X25867203Y-14587671D02*
X25576709Y-14587671D01*
X25426802Y-14518930D02*
X24906696Y-14518930D01*
X23075280Y-11200402D02*
X23075280Y-10791079D01*
X12198417Y-14534793D02*
X12013346Y-14592958D01*
X15000914Y-15883165D02*
X14218330Y-16369636D01*
X25095194Y-18405413D02*
X25068755Y-18341960D01*
X12177266Y-15010689D02*
X12134964Y-14910222D01*
X25126920Y-18468866D02*
X25095194Y-18405413D01*
X15000914Y-8305846D02*
X14218330Y-7819374D01*
X19268114Y-14291558D02*
X18675888Y-14291558D01*
X24947137Y-9516736D02*
X25426841Y-9516736D01*
X17554889Y-10791079D02*
X17554889Y-11092480D01*
X23212761Y-6032121D02*
X23144021Y-6159027D01*
X17549601Y-14291558D02*
X14350523Y-14291558D01*
X19268114Y-14741015D02*
X18675888Y-14741015D01*
X13885203Y-10093099D02*
X13086755Y-9596052D01*
X20167028Y-14788604D02*
X19268114Y-14788604D01*
X25814325Y-18870733D02*
X25745585Y-18865446D01*
X20346811Y-14587671D02*
X20346811Y-15745684D01*
X25576377Y-14587671D02*
X25571090Y-14587671D01*
X13885203Y-14090624D02*
X15000914Y-15883165D01*
X19268114Y-14984251D02*
X20167028Y-14984251D01*
X19622392Y-4868820D02*
X18363912Y-4916410D01*
X17549601Y-9294651D02*
X18675888Y-9294651D01*
X25576379Y-9596052D02*
X25867203Y-9596052D01*
X18363912Y-4916410D02*
X18358624Y-4720764D01*
X12018634Y-9564326D02*
X12161402Y-9596052D01*
X20167028Y-9892165D02*
X23355530Y-9892165D01*
X14731240Y-18146314D02*
X14641348Y-18082861D01*
X22772596Y-12850364D02*
X22772596Y-13091243D01*
X13044454Y-7919841D02*
X12452228Y-9030265D01*
X25015878Y-6973337D02*
X25015878Y-6111437D01*
X25068755Y-18341960D02*
X25047604Y-18278507D01*
X25047604Y-18278507D02*
X25031741Y-18209767D01*
X20346811Y-8432751D02*
X20346811Y-9596052D01*
X20346811Y-9596052D02*
X23720384Y-9596052D01*
X13240100Y-16755641D02*
X13171359Y-16665749D01*
X20256919Y-19373068D02*
X20219905Y-19235587D01*
X25428321Y-13598865D02*
X25428321Y-18585196D01*
X24793793Y-9442708D02*
X24788505Y-9426845D01*
X25867203Y-9596052D02*
X25867203Y-6095574D01*
X18321610Y-19314903D02*
X19580090Y-19267313D01*
X25301415Y-18680375D02*
X25253826Y-18632785D01*
X18527733Y-11864489D02*
X18527733Y-12313946D01*
X13060317Y-16205717D02*
X12896397Y-16306183D01*
X18675888Y-14291558D02*
X18675888Y-14984251D01*
X13028590Y-16491254D02*
X12965138Y-16401363D01*
X27363631Y-13725770D02*
X26967051Y-15851439D01*
X21499536Y-5138494D02*
X21467810Y-5281263D01*
X14228905Y-9596052D02*
X17142446Y-9596052D01*
X18675888Y-14788604D02*
X17549601Y-14788604D01*
X19617104Y-4726051D02*
X19622392Y-4868820D01*
X17729384Y-4948136D02*
X16523781Y-5318277D01*
X22033597Y-5572088D02*
X22123489Y-5397593D01*
X25613392Y-18844295D02*
X25544651Y-18817856D01*
X16444465Y-19039941D02*
X16476191Y-18902460D01*
X14731240Y-18146314D02*
X14799980Y-18024696D01*
X15920980Y-5513923D02*
X14858145Y-6180177D01*
X13171359Y-16665749D02*
X13097331Y-16581145D01*
X13308840Y-16845532D02*
X13240100Y-16755641D01*
X25253826Y-18632785D02*
X25206236Y-18585196D01*
X18326897Y-19457671D02*
X18321610Y-19314903D01*
X15381631Y-13091243D02*
X15381631Y-13387356D01*
X23720384Y-14587671D02*
X20346811Y-14587671D01*
X21420220Y-18865446D02*
X21478385Y-19045228D01*
X20167028Y-9093718D02*
X20167028Y-9892165D01*
X15846951Y-5392305D02*
X15920980Y-5513923D01*
X12917548Y-7856388D02*
X13044454Y-7919841D01*
X25676844Y-18854870D02*
X25613392Y-18844295D01*
X19268114Y-9141307D02*
X18675888Y-9141307D01*
X20346811Y-15745684D02*
X17142446Y-15745684D01*
X19268114Y-9892165D02*
X19268114Y-9093718D01*
X13657830Y-14233393D02*
X14773542Y-16020646D01*
X17422695Y-14741015D02*
X17422695Y-15037128D01*
X15381631Y-13387356D02*
X23075280Y-13387356D01*
X24788505Y-9426845D02*
X24783218Y-9416269D01*
X14324085Y-6523880D02*
X13467472Y-7449233D01*
X23075280Y-10791079D02*
X15381631Y-10791079D01*
X15381631Y-10791079D02*
X15381631Y-11092480D01*
X18675888Y-9093718D02*
X18675888Y-9892165D01*
X26470004Y-5598527D02*
X25428321Y-5598527D01*
X14228905Y-14587671D02*
X14228905Y-13979582D01*
X26470004Y-18585196D02*
X26470004Y-13672893D01*
X25814325Y-5312990D02*
X26163316Y-5312990D01*
X26967051Y-8332284D02*
X27363631Y-10457952D01*
X22376802Y-11864489D02*
X18527733Y-11864489D01*
X15910404Y-18611634D02*
X15820513Y-18780842D01*
X17549601Y-9892165D02*
X17549601Y-9093718D01*
X17422695Y-9141307D02*
X17422695Y-9442708D01*
X14858145Y-6180177D02*
X14757679Y-6016258D01*
X14228905Y-10204141D02*
X14228905Y-9596052D01*
X23720384Y-9596052D02*
X23720384Y-10050797D01*
X23720384Y-14132926D02*
X23720384Y-14587671D01*
X23857865Y-10050384D02*
X23857865Y-11390429D01*
X22097050Y-18791417D02*
X22023022Y-18675087D01*
X25867203Y-6095574D02*
X25571090Y-6095574D01*
X16523781Y-5318277D02*
X16470904Y-5133207D01*
X12134964Y-14910222D02*
X12092662Y-14804468D01*
X12092662Y-14804468D02*
X12050360Y-14698713D01*
X18675888Y-9442708D02*
X19268114Y-9442708D01*
X14350523Y-14291558D02*
X13821750Y-12990776D01*
X17549601Y-14984251D02*
X17549601Y-14291558D01*
X17554889Y-13091243D02*
X17554889Y-13387356D01*
X25015878Y-18072286D02*
X25015878Y-17205098D01*
X26967051Y-6111437D02*
X26967051Y-8332284D01*
X24883685Y-9511448D02*
X24873109Y-9506161D01*
X13885203Y-14090624D02*
X13086755Y-14587671D01*
X25428321Y-18585196D02*
X26470004Y-18585196D01*
X24894260Y-9511448D02*
X24883685Y-9511448D01*
X25571090Y-9596052D02*
X25576377Y-9596052D01*
X14350523Y-9892165D02*
X17549601Y-9892165D01*
X13097331Y-16581145D02*
X13028590Y-16491254D01*
X24820232Y-9469147D02*
X24809656Y-9453283D01*
X17142446Y-8432751D02*
X20346811Y-8432751D01*
X17549601Y-9093718D02*
X18675888Y-9093718D01*
X25417745Y-18759691D02*
X25359580Y-18722677D01*
X25031741Y-18209767D02*
X25021166Y-18141026D01*
X15381631Y-11092480D02*
X22772596Y-11092480D01*
X12965138Y-16401363D02*
X12896397Y-16306183D01*
X17422695Y-15037128D02*
X20124726Y-15037128D01*
X25867203Y-18082861D02*
X25867203Y-14587671D01*
X24873109Y-9506161D02*
X24851958Y-9500873D01*
X25206236Y-18585196D02*
X25163934Y-18527031D01*
X17549601Y-14741015D02*
X17422695Y-14741015D01*
X12066223Y-9458571D02*
X12103237Y-9352816D01*
X19733434Y-4731339D02*
X19839189Y-4747202D01*
X17909167Y-4773641D02*
X18025497Y-4757778D01*
D13*
X27505311Y8257100D02*
G75*
G03X27505311Y8257100I-70711J0D01*
G01*
D14*
X27534600Y7657100D02*
X27534600Y-8342900D01*
X43534600Y7657100D02*
X43534600Y-8342900D01*
D15*
X-5588000Y-5905500D02*
X-8382000Y-5905500D01*
X-5334000Y-7683500D02*
G75*
G02X-5588000Y-7937500I-254000J0D01*
G01*
X-8382000Y-7937500D02*
G75*
G02X-8636000Y-7683500I0J254000D01*
G01*
X-8382000Y-5905500D02*
G75*
G03X-8636000Y-6159500I0J-254000D01*
G01*
X-5334000Y-6159500D02*
G75*
G03X-5588000Y-5905500I-254000J0D01*
G01*
X-5334000Y-6159500D02*
X-5334000Y-7683500D01*
X-8636000Y-6159500D02*
X-8636000Y-7683500D01*
X-8382000Y-7937500D02*
X-5588000Y-7937500D01*
D16*
X25368069Y-994229D02*
X25368069Y-123372D01*
X25368069Y-558800D02*
X23844069Y-558800D01*
X24061783Y-413657D01*
X24206926Y-268515D01*
X24279497Y-123372D01*
M02*
